<svg viewBox="0 0 24 24" fill="#44739e" xmlns="http://www.w3.org/2000/svg"><title>hue:adore-alt-off</title><desc>Source: https://github.com/arallsopp/hass-hue-icons</desc><path d="M1.49,3.24L7.35,9.1H2.4C1.6,9.1,1,9.8,1,10.6v2.1c0,0.8,0.6,1.5,1.4,1.5h6.9c0,0,0,0,0,0.1 c0,0.6,0.5,1.1,1.1,1.1h3.25l6.94,6.94l1.38-1.38L2.88,1.86L1.49,3.24z M2.4,13.2C2.2,13.2,2,13,2,12.8c0-0.3,0.2-0.5,0.4-0.5h8.15 l0.9,0.9H2.4z M21.6,9.1h-9.93l3.2,3.2h6.63c0.2,0,0.4,0.2,0.4,0.5c0.1,0.2-0.1,0.4-0.3,0.4h-5.83l1,1h4.93 c0.8,0,1.4-0.7,1.4-1.5v-2.1C23,9.8,22.4,9.1,21.6,9.1z"/></svg>