<svg viewBox="0 0 24 24" fill="#44739e" xmlns="http://www.w3.org/2000/svg"><title>hue:amarant</title><desc>Source: https://github.com/arallsopp/hass-hue-icons</desc><path d="M1.07,13.69c0-0.79,0-1.58,0-2.37c0-0.35,0.19-0.67,0.49-0.84c0.11-0.05,0.22-0.09,0.33-0.11 c0.4-0.12,0.8-0.23,1.2-0.35C3.52,9.9,3.95,9.78,4.37,9.66c0.42-0.12,0.84-0.25,1.27-0.37c0.37-0.11,0.74-0.21,1.11-0.32 c0.34-0.1,0.69-0.2,1.03-0.3c0.35-0.1,0.7-0.2,1.04-0.3c0.32-0.09,0.64-0.19,0.96-0.28c0.32-0.09,0.64-0.19,0.96-0.28 c0.3-0.09,0.59-0.17,0.89-0.26c0.27-0.08,0.54-0.15,0.81-0.23s0.54-0.16,0.81-0.24s0.54-0.16,0.81-0.23s0.54-0.16,0.81-0.23 s0.54-0.16,0.81-0.23s0.54-0.16,0.81-0.23C16.72,6.07,16.96,6,17.2,5.93c0.24-0.07,0.48-0.14,0.73-0.21 c0.22-0.06,0.44-0.13,0.67-0.18c0.11-0.02,0.22-0.02,0.33-0.01c0.2,0.01,0.39,0.07,0.57,0.17c0.06,0.03,0.11,0.08,0.16,0.12 c0.91,0.88,1.82,1.77,2.74,2.65c0.13,0.14,0.25,0.3,0.34,0.47c0.14,0.23,0.21,0.49,0.2,0.76c0.01,0.62,0,1.24,0,1.86 c0.01,0.29-0.12,0.57-0.35,0.75c-0.12,0.09-0.25,0.15-0.39,0.19c-0.44,0.14-0.89,0.28-1.33,0.42c-0.41,0.13-0.83,0.26-1.24,0.39 c-0.42,0.13-0.84,0.26-1.26,0.39c-0.47,0.15-0.93,0.29-1.4,0.44c-0.44,0.14-0.88,0.27-1.32,0.41c-0.42,0.13-0.83,0.26-1.25,0.39 c-0.42,0.13-0.83,0.26-1.25,0.39c-0.47,0.15-0.93,0.29-1.4,0.44c-0.44,0.14-0.88,0.27-1.31,0.41c-0.42,0.13-0.84,0.26-1.25,0.39 s-0.84,0.26-1.25,0.39c-0.47,0.15-0.93,0.29-1.4,0.44c-0.34,0.11-0.68,0.22-1.03,0.32c-0.25,0.07-0.51,0.1-0.78,0.09 c-0.29-0.02-0.58-0.08-0.86-0.18c-0.39-0.12-0.78-0.23-1.18-0.34c-0.35-0.1-0.7-0.21-1.05-0.31c-0.1-0.04-0.18-0.11-0.25-0.19 c-0.21-0.2-0.32-0.48-0.32-0.77C1.07,15.24,1.07,14.47,1.07,13.69z M5.18,14.25c0.06,0,0.12,0,0.17,0c0.09-0.02,0.18-0.04,0.27-0.07 c0.34-0.1,0.67-0.2,1.01-0.3c0.31-0.09,0.62-0.18,0.93-0.28s0.62-0.19,0.93-0.28c0.29-0.09,0.57-0.17,0.86-0.26 c0.33-0.1,0.67-0.2,1-0.3c0.31-0.09,0.62-0.18,0.93-0.28c0.34-0.1,0.67-0.2,1.01-0.3c0.31-0.09,0.63-0.19,0.94-0.28 c0.33-0.1,0.67-0.2,1-0.3c0.33-0.1,0.67-0.2,1-0.3c0.36-0.11,0.71-0.21,1.07-0.32c0.38-0.11,0.77-0.23,1.15-0.34 c0.41-0.12,0.82-0.25,1.24-0.37c0.41-0.12,0.81-0.24,1.22-0.36c0.36-0.11,0.73-0.22,1.09-0.33c0.12-0.02,0.23-0.07,0.33-0.14 c0.14-0.08,0.19-0.27,0.11-0.41C21.43,9,21.42,8.99,21.41,8.98c-0.05-0.06-0.1-0.11-0.15-0.17C20.63,8.2,20,7.6,19.37,6.99 c-0.05-0.05-0.1-0.09-0.16-0.12c-0.17-0.1-0.36-0.16-0.56-0.17c-0.12-0.02-0.25-0.01-0.37,0.01c-0.2,0.04-0.39,0.1-0.58,0.16 C17.45,6.93,17.2,7,16.96,7.07s-0.49,0.14-0.73,0.21c-0.24,0.07-0.48,0.14-0.73,0.21c-0.27,0.08-0.54,0.16-0.81,0.23 c-0.24,0.07-0.49,0.14-0.73,0.21c-0.24,0.07-0.49,0.14-0.73,0.21c-0.27,0.08-0.54,0.16-0.81,0.24c-0.27,0.08-0.53,0.15-0.8,0.23 c-0.3,0.09-0.59,0.17-0.89,0.26c-0.32,0.09-0.64,0.18-0.96,0.28C9.45,9.25,9.13,9.34,8.81,9.43C8.49,9.53,8.17,9.62,7.85,9.71 c-0.35,0.1-0.7,0.2-1.04,0.3c-0.32,0.09-0.64,0.18-0.96,0.28c-0.37,0.11-0.75,0.22-1.12,0.33c-0.37,0.11-0.74,0.21-1.11,0.32 c-0.38,0.11-0.76,0.22-1.14,0.33c-0.18,0.04-0.3,0.23-0.26,0.41c0.03,0.11,0.08,0.2,0.16,0.27c0.65,0.65,1.3,1.3,1.95,1.95 C4.55,14.14,4.86,14.26,5.18,14.25z"/></svg>