<svg viewBox="0 0 24 24" fill="#44739e" xmlns="http://www.w3.org/2000/svg"><title>hue:amaze-off</title><desc>Source: https://github.com/arallsopp/hass-hue-icons</desc><path d="M1.5,3.24l4.63,4.63C5.69,8.01,5.26,8.15,4.87,8.32c-1.85,0.79-3.16,1.92-3.86,3.33 c-0.17,0.34-0.3,0.69-0.39,1.05c-0.04,0.17-0.06,0.25-0.05,0.4c0,0.67,0.5,1.3,1.47,1.87c0.3,0.18,0.82,0.42,1.21,0.57 c1.92,0.74,4.7,1.21,7.75,1.3l0,0c0.32,0.01,1.66,0,1.95-0.01c0.57-0.02,1.01-0.05,1.41-0.08c0.2-0.02,0.39-0.04,0.58-0.06 l5.64,5.64l1.38-1.38L2.88,1.86L1.5,3.24z M14.56,16.54c-0.58,0.05-0.96,0.07-1.81,0.1l0,0c-0.23,0.01-1.2,0.02-1.32,0.01 c-0.04,0-0.2-0.01-0.36-0.01C9.2,16.58,7.6,16.4,6.12,16.09C4.83,15.82,3.64,15.43,2.8,15c-0.98-0.5-1.54-1.08-1.66-1.69 c-0.2-1.07,0.93-2.07,3.16-2.79c1.12-0.36,2.32-0.62,3.68-0.8l0.38,0.38c-2.52,0.29-4.61,0.87-5.81,1.62 c-0.73,0.46-1.09,0.97-1.03,1.44c0.05,0.4,0.37,0.8,0.93,1.17c0.69,0.46,1.69,0.86,2.95,1.17c1.61,0.4,3.48,0.64,5.58,0.71l0,0 c0.31,0.01,1.94,0,2.21-0.01c0.47-0.02,0.85-0.04,1.21-0.07l0.38,0.38C14.7,16.52,14.63,16.53,14.56,16.54z M12.75,14.49 c-0.02,0.17-0.08,0.33-0.21,0.46c-0.09,0.08-0.21,0.15-0.33,0.18l0,0c-0.07,0.02-0.24,0.03-0.3,0.02c-0.25-0.05-0.45-0.19-0.55-0.41 c-0.07-0.14-0.09-0.28-0.07-0.42c0.05-0.35,0.33-0.59,0.67-0.63L12.75,14.49z M9,10.75l1.39,1.39c-1.01-0.12-2.05-0.34-3.08-0.66 c-0.41-0.13-0.46-0.15-0.49-0.22c-0.03-0.05-0.03-0.09-0.02-0.15c0.01-0.05,0.06-0.11,0.11-0.13c0.03-0.01,0.2-0.03,0.7-0.09 C8.1,10.84,8.56,10.79,9,10.75z M16.35,11.34c-0.58,0.23-1.23,0.41-1.89,0.56l3.69,3.69c1.07-0.24,1.99-0.55,2.7-0.9 c0.51-0.26,0.86-0.49,1.14-0.78c0.25-0.26,0.38-0.5,0.41-0.76c0.05-0.4-0.22-0.84-0.76-1.24c-1.33-0.99-4.13-1.72-7.5-1.94 c-0.59-0.04-1.05-0.06-1.68-0.06l0.68,0.68c0.41,0.02,0.86,0.04,1.37,0.08c0.8,0.06,2.01,0.17,2.09,0.19 c0.05,0.01,0.11,0.06,0.13,0.11c0.02,0.05,0.02,0.11,0,0.16C16.7,11.19,16.67,11.21,16.35,11.34z M23.37,12.53 c-0.35-1.24-1.09-2.27-2.23-3.13c-0.18-0.14-0.49-0.34-0.7-0.47c-1.72-1.02-4.06-1.63-6.88-1.79C13,7.11,12.83,7.1,12.04,7.1 c-0.8,0-0.99,0-1.53,0.04c-0.25,0.01-0.49,0.05-0.74,0.07l2.27,2.27c1.63,0,3.27,0.11,4.8,0.35c0.52,0.08,1.32,0.23,1.63,0.31 c0.2,0.05,0.65,0.17,0.88,0.24c1.93,0.57,3.13,1.36,3.42,2.24c0.06,0.16,0.06,0.22,0.06,0.42c0,0.14,0,0.2-0.02,0.26 c-0.13,0.62-0.71,1.21-1.69,1.71c-0.7,0.36-1.6,0.67-2.64,0.93l0.19,0.19c0.93-0.22,1.76-0.47,2.43-0.75 c1.3-0.56,2.06-1.18,2.28-1.86c0.05-0.17,0.06-0.23,0.06-0.45C23.45,12.83,23.44,12.78,23.37,12.53z"/></svg>