<svg viewBox="0 0 24 24" fill="#44739e" xmlns="http://www.w3.org/2000/svg"><title>hue:amaze-alt-off</title><desc>Source: https://github.com/arallsopp/hass-hue-icons</desc><path d="M0.69,2.44l5.8,5.8l-2.26,6.1c-1.47,0.6-2.56,1.32-3,2.02c-1.07,1.7-0.91,2.89-0.91,2.89 c0,2.32,5.23,4.19,11.68,4.19c3.31,0,6.28-0.5,8.4-1.29l0.99,0.99l1.38-1.38L2.08,1.06L0.69,2.44z M7.86,9.61l3.3,3.3 c-2.77-0.19-4.87-1.23-4.51-2.2l0.05-0.13C6.88,10.19,7.3,9.87,7.86,9.61z M6.11,12.16c0.42,0.44,1.08,0.82,1.9,1.1 c-0.9,0.17-1.75,0.38-2.54,0.63L6.11,12.16z M19.4,21.45c-1.89,0.48-4.51,0.78-7.4,0.78s-5.51-0.3-7.4-0.78 c-0.24-0.06-0.46-0.12-0.68-0.19c-0.43-0.13-0.8-0.27-1.13-0.43c-0.81-0.38-1.26-0.81-1.26-1.27c0-1.47,4.69-2.67,10.47-2.67 c1.15,0,2.25,0.05,3.28,0.14l2,2c-1.43,0.4-3.26,0.65-5.29,0.65c-2.76,0-5.19-0.45-6.71-1.14c-1.45,0.33-2.39,0.71-2.7,1.02 c0.66,0.65,4.06,1.67,9.4,1.67c2.88,0,5.19-0.3,6.82-0.67l0.83,0.83C19.56,21.41,19.48,21.43,19.4,21.45z M23.55,18.65c-0.19-0.78-0.61-2.15-1.34-2.92c-0.38-0.4-1.19-0.87-2.29-1.31l-4.1-10.86 c0.93-0.21,1.5-0.5,1.5-0.82v-1c0-0.65-2.37-1.17-5.29-1.17c-2.92,0-5.29,0.53-5.29,1.17v1c0,0.32,0.57,0.6,1.49,0.81L7.66,5.1 l0.78,0.78l0.79-2.15c0.68,0.09,1.46,0.15,2.3,0.17l-0.01,4.05c-0.32,0.01-0.63,0.04-0.94,0.07l0.86,0.86c0.03,0,0.05,0,0.08,0 l0,0.08l0.99,0.99l0.01-1.1c1.62-0.1,2.95-0.73,3.63-1.62l2.55,6.75c-0.86-0.27-1.82-0.52-2.86-0.7l4.76,4.76 c1.18,0.43,1.87,0.96,1.87,1.52c0,0.09-0.03,0.19-0.07,0.28l0.7,0.7c0.37-0.41,0.58-0.84,0.58-1.29 C23.68,19.04,23.63,18.85,23.55,18.65z M12.53,7.9V3.91c0.09,0,0.17,0,0.26-0.01c1.2,0.14,2.33,0.6,2.64,1.42l0.17,0.44 C15.94,6.66,14.31,7.73,12.53,7.9z"/></svg>