<svg viewBox="0 0 24 24" fill="#44739e" xmlns="http://www.w3.org/2000/svg"><title>hue:amaze</title><desc>Source: https://github.com/arallsopp/hass-hue-icons</desc><path d="M11,16.84c-3.04-0.09-5.82-0.56-7.75-1.3c-0.4-0.15-0.92-0.4-1.21-0.57c-0.97-0.57-1.47-1.2-1.47-1.87 c0-0.15,0.01-0.23,0.05-0.4c0.09-0.36,0.22-0.7,0.39-1.05c0.69-1.41,2-2.54,3.86-3.33c1.55-0.65,3.46-1.06,5.64-1.18 c0.54-0.03,0.74-0.04,1.53-0.04s0.96,0,1.52,0.04c2.82,0.16,5.16,0.77,6.88,1.79c0.21,0.13,0.52,0.33,0.7,0.47 c1.14,0.86,1.88,1.89,2.23,3.13c0.07,0.26,0.08,0.3,0.08,0.52s-0.01,0.28-0.06,0.45c-0.22,0.68-0.98,1.3-2.28,1.86 c-1.57,0.68-4.01,1.18-6.74,1.39c-0.4,0.03-0.84,0.06-1.41,0.08C12.66,16.85,11.32,16.85,11,16.84L11,16.84z M12.75,16.64 c0.85-0.03,1.23-0.05,1.81-0.1c2.73-0.22,5.08-0.77,6.56-1.54c0.98-0.51,1.56-1.09,1.69-1.71c0.01-0.06,0.02-0.11,0.02-0.26 c0-0.2-0.01-0.26-0.06-0.42c-0.29-0.88-1.49-1.66-3.42-2.24c-0.23-0.07-0.68-0.19-0.88-0.24c-0.32-0.08-1.11-0.23-1.63-0.31 C14.09,9.39,11,9.35,8.19,9.69c-1.45,0.18-2.71,0.45-3.89,0.83c-2.23,0.72-3.36,1.72-3.16,2.79C1.26,13.92,1.82,14.5,2.8,15 c0.84,0.43,2.03,0.82,3.32,1.09c1.48,0.31,3.08,0.49,4.95,0.55c0.16,0,0.32,0.01,0.36,0.01C11.56,16.66,12.53,16.65,12.75,16.64 L12.75,16.64z M10.98,16.22C8.88,16.15,7,15.91,5.4,15.51c-1.26-0.31-2.26-0.71-2.95-1.17c-0.56-0.37-0.88-0.77-0.93-1.17 c-0.06-0.47,0.3-0.98,1.03-1.44c1.39-0.88,3.98-1.52,7.04-1.74c0.88-0.06,1.68-0.09,2.64-0.08c0.77,0.01,1.25,0.02,1.91,0.07 c3.37,0.23,6.17,0.95,7.5,1.94c0.54,0.4,0.81,0.84,0.76,1.24c-0.03,0.26-0.16,0.5-0.41,0.76c-0.28,0.28-0.62,0.52-1.14,0.78 c-1.31,0.65-3.33,1.15-5.68,1.38c-0.62,0.06-1.17,0.1-1.99,0.14C12.92,16.22,11.28,16.23,10.98,16.22L10.98,16.22z M12.2,15.13 c0.11-0.03,0.24-0.1,0.33-0.18c0.35-0.33,0.3-0.89-0.1-1.15c-0.13-0.08-0.25-0.12-0.41-0.12c-0.38,0-0.69,0.27-0.74,0.64 c-0.02,0.14,0,0.28,0.07,0.42c0.1,0.22,0.3,0.36,0.55,0.41C11.96,15.16,12.14,15.15,12.2,15.13L12.2,15.13z M12.53,12.2 c0.49-0.04,0.9-0.09,1.31-0.16c0.88-0.16,1.76-0.4,2.52-0.7c0.32-0.13,0.35-0.14,0.38-0.22c0.02-0.05,0.02-0.11,0-0.16 s-0.08-0.1-0.13-0.11c-0.08-0.02-1.29-0.13-2.09-0.19c-1.64-0.12-2.64-0.13-3.75-0.06c-0.89,0.06-1.96,0.16-3.16,0.29 c-0.5,0.06-0.67,0.08-0.7,0.09C6.87,11,6.82,11.06,6.8,11.11c-0.02,0.05-0.01,0.09,0.02,0.15c0.04,0.07,0.08,0.1,0.49,0.22 c1.33,0.42,2.68,0.67,3.95,0.73C11.48,12.23,12.32,12.22,12.53,12.2L12.53,12.2z"/></svg>