<svg viewBox="0 0 24 24" fill="#44739e" xmlns="http://www.w3.org/2000/svg"><title>hue:aura-off</title><desc>Source: https://github.com/arallsopp/hass-hue-icons</desc><path d="M0.67,2.42L1.05,2.8C0.97,2.97,0.9,3.13,0.9,3.3c0,0,0,0,0,0.1v0.1c0,0.1,0,0.2,0,0.3 c-0.1,1.6,0.7,4.6,1.5,6.9C3.9,15.9,2.6,18,2.6,18C2.2,18.4,2,19,2,19.6c0,1.2,0.9,2.1,2,2.2c0.5,0,1-0.2,1.3-0.5 c2-2,7.3-1,7.5-0.9c0.97,0.29,4.74,1.33,7.34,1.48l1.42,1.42l1.38-1.38L2.05,1.03L0.67,2.42z M13,19.2c-5.3-1.2-8.8-6-9.8-8.8 C2.9,9.5,2.6,8.6,2.4,7.8c0.1,0.1,0.2,0.3,0.3,0.4c1.6,2.3,4.1,4.9,6.9,7.2c2.4,2,4.9,3.6,7.1,4.7C15.4,19.8,14.1,19.5,13,19.2z M10.8,13.1c0.79,0.68,1.58,1.27,2.32,1.76l4.52,4.52c-2.22-1.03-4.91-2.74-7.44-4.89c-2.8-2.3-5.2-4.8-6.7-7 c-1.2-1.8-1.7-3-1.7-3.7V3.7c0-0.05,0-0.1,0.01-0.15l5.33,5.33C7.73,10.02,9.05,11.6,10.8,13.1z M13.1,10.5c-0.07-0.06-0.14-0.11-0.21-0.17l2.92,2.92C15.11,12.38,14.18,11.43,13.1,10.5z M14.4,7.9c-2.8-2.3-5.8-4.2-8.2-5.2c-0.52-0.22-1-0.38-1.46-0.52l1.83,1.83c2.18,1.04,4.78,2.71,7.23,4.79 c5.82,4.71,8.64,9.24,8.41,10.85l0.76,0.76C24.05,17.66,19.46,12.1,14.4,7.9z"/></svg>