<svg viewBox="0 0 24 24" fill="#44739e" xmlns="http://www.w3.org/2000/svg"><title>hue:beyond-up-off</title><desc>Source: https://github.com/arallsopp/hass-hue-icons</desc><path d="M20.59,22.33l1.38-1.38L2.88,1.86L1.5,3.24l3.36,3.36c-0.1,0.16-0.2,0.31-0.29,0.48 C4.49,7.24,4.5,7.42,4.59,7.57c0.09,0.15,0.25,0.24,0.43,0.24h1.04l5.31,5.31v5.51c0,0.02,0,0.06,0,0.11 c-0.01,0.13-0.04,0.26-0.1,0.37c-0.2,0.29-0.53,0.46-0.88,0.45c-0.86,0.09-1.72,0.24-2.56,0.47c-0.38,0.09-0.75,0.22-1.11,0.37 C6.52,20.48,6,20.72,6,21.19c0,0.85,1.47,1.57,1.94,1.68c1.26,0.24,2.55,0.35,3.84,0.32c1.33,0.03,2.65-0.08,3.96-0.32 c0.39-0.15,0.76-0.36,1.08-0.63c0.47-0.29,0.78-0.77,0.86-1.31c0-0.62-0.76-0.88-1.91-1.1c-0.83-0.15-1.68-0.25-2.52-0.31 c-0.31,0.01-0.6-0.15-0.75-0.42c-0.06-0.12-0.1-0.26-0.11-0.39c0-0.05,0-0.09,0-0.1l0,0v-4.49L20.59,22.33z M6.92,4.04h0.18C7.02,4.11,6.93,4.2,6.84,4.28l0.71,0.71C7.97,4.63,8.42,4.3,8.9,4.04h6.12 c0.68,0.36,1.3,0.82,1.85,1.36c0.45,0.43,0.85,0.91,1.21,1.42H9.37l1,1h1v1l1,1V7.81h6.61c0.17,0,0.34-0.09,0.43-0.24 c0.09-0.15,0.1-0.33,0.02-0.49C18.94,6.2,18.32,5.4,17.59,4.7c-0.24-0.23-0.49-0.46-0.76-0.66h0.31c0.19,0,0.36-0.11,0.45-0.28 c0.08-0.17,0.07-0.37-0.05-0.52c-1.38-1.59-3.4-2.48-5.5-2.44C9.92,0.73,7.89,1.63,6.52,3.24C6.41,3.39,6.39,3.6,6.48,3.76 C6.56,3.93,6.74,4.04,6.92,4.04z"/></svg>