<svg viewBox="0 0 24 24" fill="#44739e" xmlns="http://www.w3.org/2000/svg"><title>hue:beyond-down-off</title><desc>Source: https://github.com/arallsopp/hass-hue-icons</desc><path d="M20.59,22.33l1.38-1.38L2.88,1.86L1.5,3.24l3.38,3.38c-0.1,0.15-0.2,0.31-0.28,0.46 C4.51,7.24,4.52,7.42,4.61,7.57C4.7,7.72,4.87,7.81,5.04,7.81h1.02l5.33,5.33v5.49c0,0.02,0,0.06,0,0.11 c-0.01,0.13-0.04,0.26-0.1,0.37c-0.2,0.29-0.53,0.46-0.88,0.45c-0.86,0.09-1.72,0.24-2.56,0.47c-0.38,0.09-0.75,0.22-1.11,0.37 c-0.2,0.09-0.72,0.32-0.72,0.8c0,0.85,1.47,1.57,1.94,1.68c1.26,0.24,2.55,0.35,3.84,0.32c1.33,0.03,2.65-0.08,3.96-0.32 c0.39-0.15,0.76-0.36,1.08-0.63c0.47-0.29,0.78-0.77,0.86-1.31c0-0.62-0.76-0.88-1.91-1.1c-0.83-0.15-1.68-0.25-2.52-0.31 c-0.31,0.01-0.6-0.15-0.75-0.42c-0.06-0.12-0.1-0.26-0.11-0.39c0-0.05,0-0.09,0-0.1l0,0v-4.47L20.59,22.33z M6.95,4.04h0.18c-0.1,0.08-0.19,0.17-0.28,0.25l3.52,3.52h1.03v1.03l1,1V7.81H19c0.17,0,0.34-0.09,0.43-0.24 c0.09-0.15,0.1-0.33,0.02-0.49c-0.66-1.17-1.54-2.21-2.59-3.04h0.3c0.19,0,0.36-0.11,0.45-0.28c0.08-0.17,0.07-0.37-0.05-0.52 c-1.38-1.59-3.4-2.48-5.5-2.44C9.94,0.73,7.91,1.63,6.54,3.24C6.43,3.39,6.41,3.6,6.5,3.76C6.58,3.93,6.76,4.04,6.95,4.04z M8.53,2.8c1.04-0.68,2.27-1.03,3.52-1.01c1.25-0.01,2.47,0.35,3.53,1.03c0.11,0.07,0.22,0.15,0.32,0.22h-0.74H8.19 C8.3,2.96,8.41,2.88,8.53,2.8z"/></svg>