<svg viewBox="0 0 24 24" fill="#44739e" xmlns="http://www.w3.org/2000/svg"><title>hue:beyond-off</title><desc>Source: https://github.com/arallsopp/hass-hue-icons</desc><path d="M20.59,22.33l1.38-1.38L2.88,1.86L1.5,3.24l3.36,3.36c-0.1,0.16-0.2,0.31-0.29,0.48 C4.49,7.24,4.5,7.42,4.59,7.57c0.09,0.15,0.25,0.24,0.43,0.24h1.04l5.31,5.31v5.51c0,0.02,0,0.06,0,0.11 c-0.01,0.13-0.04,0.26-0.1,0.37c-0.2,0.29-0.53,0.46-0.88,0.45c-0.86,0.09-1.72,0.24-2.56,0.47c-0.38,0.09-0.75,0.22-1.11,0.37 C6.52,20.48,6,20.72,6,21.19c0,0.85,1.47,1.57,1.94,1.68c1.26,0.24,2.55,0.35,3.84,0.32c1.33,0.03,2.65-0.08,3.96-0.32 c0.39-0.15,0.76-0.36,1.08-0.63c0.47-0.29,0.78-0.77,0.86-1.31c0-0.62-0.76-0.88-1.91-1.1c-0.83-0.15-1.68-0.25-2.52-0.31 c-0.31,0.01-0.6-0.15-0.75-0.42c-0.06-0.12-0.1-0.26-0.11-0.39c0-0.05,0-0.09,0-0.1l0,0v-4.49L20.59,22.33z M6.92,4.04h0.18C7.01,4.11,6.93,4.2,6.84,4.28L7.56,5C7.98,4.64,8.42,4.31,8.9,4.04h6.11 c1.22,0.67,2.27,1.62,3.06,2.77H9.37l1,1h1v1l1,1V7.81h6.61c0.17,0,0.34-0.09,0.43-0.24c0.09-0.15,0.1-0.33,0.02-0.49 c-0.66-1.17-1.54-2.21-2.59-3.04h0.3c0.19,0,0.36-0.11,0.45-0.28c0.08-0.17,0.07-0.37-0.05-0.52c-1.38-1.59-3.4-2.48-5.5-2.44 l-0.06,0c-2.09-0.05-4.1,0.85-5.45,2.45C6.41,3.39,6.39,3.6,6.48,3.76C6.56,3.93,6.74,4.04,6.92,4.04z M8.51,2.8 c1.04-0.68,2.27-1.03,3.52-1.01c1.25-0.01,2.47,0.35,3.53,1.03c0.11,0.07,0.22,0.15,0.32,0.22h-7.7C8.27,2.96,8.39,2.88,8.51,2.8z"/></svg>