<svg viewBox="0 0 24 24" fill="#44739e" xmlns="http://www.w3.org/2000/svg"><title>hue:beyond-up-group-off</title><desc>Source: https://github.com/arallsopp/hass-hue-icons</desc><path d="M21.97,20.95L2.88,1.86L1.5,3.24l2.21,2.21C3.08,6.04,2.54,6.72,2.13,7.47C2.07,7.59,2.07,7.73,2.15,7.84 c0.07,0.11,0.2,0.18,0.33,0.18h3.79l1.14,1.14v7.28c0,0.01,0,0.04,0,0.09c-0.01,0.1-0.03,0.2-0.08,0.29 c-0.15,0.23-0.41,0.36-0.69,0.35c-0.67,0.07-1.34,0.19-1.99,0.36c-0.29,0.07-0.58,0.17-0.86,0.29c-0.15,0.07-0.56,0.25-0.56,0.62 c0,0.66,1.14,1.22,1.51,1.3c0.98,0.19,1.97,0.27,2.96,0.25c0.2-0.19,0.44-0.36,0.77-0.51c0.43-0.18,0.85-0.32,1.28-0.43 c0.8-0.21,1.62-0.36,2.45-0.45c0.05-0.12,0.09-0.24,0.11-0.37c0-0.48-0.59-0.69-1.48-0.85c-0.65-0.11-1.3-0.19-1.96-0.24 c-0.24,0.01-0.47-0.12-0.58-0.33c-0.05-0.1-0.08-0.2-0.09-0.31c0-0.04,0-0.07,0-0.08V9.95l5.34,5.34v3.34c0,0.02,0,0.06,0,0.11 c-0.01,0.13-0.04,0.26-0.1,0.37c-0.2,0.29-0.53,0.46-0.88,0.45c-0.86,0.09-1.72,0.24-2.56,0.47c-0.38,0.09-0.75,0.22-1.11,0.37 c-0.2,0.09-0.72,0.32-0.72,0.8c0,0.85,1.47,1.57,1.94,1.68c1.26,0.24,2.55,0.35,3.84,0.32c1.33,0.03,2.65-0.08,3.96-0.32 c0.39-0.15,0.76-0.36,1.08-0.63c0.32-0.2,0.55-0.48,0.7-0.81l0.89,0.89L21.97,20.95z M3.17,7.25c0.31-0.46,0.69-0.86,1.1-1.23 L5.5,7.25H3.17z M17.94,19.84c-0.83-0.15-1.68-0.25-2.52-0.31c-0.31,0.01-0.6-0.15-0.75-0.42c-0.06-0.12-0.1-0.26-0.11-0.39 c0-0.05,0-0.09,0-0.1v-2.31l3.57,3.57C18.07,19.87,18.01,19.85,17.94,19.84z M7.71,4.12C7.7,4.09,7.69,4.07,7.68,4.04L7.62,3.85 c-0.09-0.41,0-0.85,0.27-1.2C7.91,2.62,7.93,2.6,7.95,2.58c-0.01,0-0.01,0-0.02,0H7.88C7.09,2.56,6.31,2.72,5.59,3.03l1.62,1.62 C7.37,4.47,7.54,4.29,7.71,4.12z M7.92,5.36l0.72,0.72c0.68-0.82,1.5-1.51,2.43-2.04h6.11c1.22,0.67,2.27,1.62,3.06,2.77H9.37l1,1 h3.17v3.17L14.56,12V7.81h6.61c0.17,0,0.34-0.09,0.43-0.24c0.07-0.15,0.08-0.33,0-0.49c-0.66-1.17-1.54-2.21-2.59-3.04h0.3 c0.19,0,0.36-0.11,0.45-0.28c0.08-0.17,0.07-0.37-0.05-0.52c-1.38-1.59-3.4-2.48-5.5-2.44h-0.06c-2.09-0.05-4.1,0.85-5.45,2.45 C8.58,3.39,8.56,3.6,8.65,3.76C8.73,3.93,8.9,4.04,9.09,4.04h0.18C8.78,4.44,8.33,4.88,7.92,5.36z"/></svg>