<svg viewBox="0 0 24 24" fill="#44739e" xmlns="http://www.w3.org/2000/svg"><title>hue:beyond-up</title><desc>Source: https://github.com/arallsopp/hass-hue-icons</desc><path d="M19.43,7.08C18.94,6.2,18.32,5.4,17.59,4.7c-0.24-0.23-0.49-0.46-0.76-0.66h0.31c0.19,0,0.36-0.11,0.45-0.28 c0.08-0.17,0.07-0.37-0.05-0.52c-1.38-1.59-3.4-2.48-5.5-2.44C9.92,0.73,7.89,1.63,6.52,3.24C6.41,3.39,6.39,3.6,6.48,3.76 c0.09,0.17,0.26,0.27,0.45,0.27h0.18C6.87,4.23,6.63,4.44,6.4,4.67C5.68,5.38,5.06,6.19,4.57,7.09C4.49,7.24,4.5,7.42,4.59,7.57 c0.09,0.15,0.25,0.24,0.43,0.24h6.35v10.82c0,0.02,0,0.06,0,0.11c-0.01,0.13-0.04,0.26-0.1,0.37c-0.2,0.29-0.53,0.46-0.88,0.45 c-0.86,0.09-1.72,0.24-2.56,0.47c-0.38,0.09-0.75,0.22-1.11,0.37C6.52,20.48,6,20.72,6,21.19c0,0.85,1.47,1.57,1.94,1.68 c1.26,0.24,2.55,0.35,3.84,0.32c1.33,0.03,2.65-0.08,3.96-0.32c0.39-0.15,0.76-0.36,1.08-0.63c0.47-0.29,0.78-0.77,0.86-1.31 c0-0.62-0.76-0.88-1.91-1.1c-0.83-0.15-1.68-0.25-2.52-0.31c-0.31,0.01-0.6-0.15-0.75-0.42c-0.06-0.12-0.1-0.26-0.11-0.39 c0-0.05,0-0.09,0-0.1l0,0V7.81h6.61c0.17,0,0.34-0.09,0.43-0.24C19.5,7.42,19.51,7.24,19.43,7.08z M5.91,6.81 c0.35-0.52,0.76-1,1.2-1.44C7.64,4.85,8.24,4.4,8.9,4.04h6.12c0.68,0.36,1.3,0.82,1.85,1.36c0.45,0.43,0.85,0.91,1.21,1.42 L5.91,6.81z"/></svg>