<svg viewBox="0 0 24 24" fill="#44739e" xmlns="http://www.w3.org/2000/svg"><title>hue:beyond-up-group</title><desc>Source: https://github.com/arallsopp/hass-hue-icons</desc><path d="M5.7,7.25H3.17c0.6-0.89,1.39-1.62,2.32-2.15h1.37C7.13,4.76,7.4,4.42,7.71,4.12C7.7,4.09,7.69,4.07,7.68,4.04 L7.62,3.85c-0.09-0.41,0-0.85,0.27-1.2C7.91,2.62,7.93,2.6,7.95,2.58c-0.01,0-0.01,0-0.02,0H7.88C6.26,2.54,4.7,3.24,3.65,4.48 c-0.09,0.12-0.1,0.27-0.03,0.4C3.68,5.02,3.81,5.1,3.96,5.1H4.1C3.3,5.75,2.63,6.56,2.13,7.47C2.07,7.59,2.07,7.73,2.15,7.84 c0.07,0.11,0.2,0.18,0.33,0.18h3.4C5.75,7.79,5.69,7.52,5.7,7.25z M9.75,19.05c0.8-0.21,1.62-0.36,2.45-0.45 c0.05-0.12,0.09-0.24,0.11-0.37c0-0.48-0.59-0.69-1.48-0.85c-0.65-0.11-1.3-0.19-1.96-0.24c-0.24,0.01-0.47-0.12-0.58-0.33 c-0.05-0.1-0.08-0.2-0.09-0.31c0-0.04,0-0.07,0-0.08V8.81H7.41v7.63c0,0.01,0,0.04,0,0.09c-0.01,0.1-0.03,0.2-0.08,0.29 c-0.15,0.23-0.41,0.36-0.69,0.35c-0.67,0.07-1.34,0.19-1.99,0.36c-0.29,0.07-0.58,0.17-0.86,0.29c-0.15,0.07-0.56,0.25-0.56,0.62 c0,0.66,1.14,1.22,1.51,1.3c0.98,0.19,1.97,0.27,2.96,0.25c0.2-0.19,0.44-0.36,0.77-0.51C8.9,19.3,9.32,19.16,9.75,19.05z M21.6,7.08c-0.66-1.17-1.54-2.21-2.59-3.04h0.3c0.19,0,0.36-0.11,0.45-0.28c0.08-0.17,0.07-0.37-0.05-0.52 c-1.38-1.59-3.4-2.48-5.5-2.44h-0.06c-2.09-0.05-4.1,0.85-5.45,2.45C8.58,3.39,8.56,3.6,8.65,3.76C8.73,3.93,8.9,4.04,9.09,4.04 h0.18c-1.04,0.84-1.9,1.88-2.54,3.05C6.66,7.24,6.67,7.42,6.76,7.57s0.25,0.24,0.43,0.24h6.35v10.82c0,0.02,0,0.06,0,0.11 c-0.01,0.13-0.04,0.26-0.1,0.37c-0.2,0.29-0.53,0.46-0.88,0.45c-0.86,0.09-1.72,0.24-2.56,0.47c-0.38,0.09-0.75,0.22-1.11,0.37 c-0.2,0.09-0.72,0.32-0.72,0.8c0,0.85,1.47,1.57,1.94,1.68c1.26,0.24,2.55,0.35,3.84,0.32c1.33,0.03,2.65-0.08,3.96-0.32 c0.39-0.15,0.76-0.36,1.08-0.63c0.47-0.29,0.78-0.77,0.86-1.31c0-0.62-0.76-0.88-1.91-1.1c-0.83-0.15-1.68-0.25-2.52-0.31 c-0.31,0.01-0.6-0.15-0.75-0.42c-0.06-0.12-0.1-0.26-0.11-0.39c0-0.05,0-0.09,0-0.1V7.81h6.61c0.17,0,0.34-0.09,0.43-0.24 C21.67,7.42,21.68,7.24,21.6,7.08z M8.08,6.81c0.77-1.14,1.79-2.09,2.99-2.77h6.11c1.22,0.67,2.27,1.62,3.06,2.77H8.08z"/></svg>