<svg viewBox="0 0 24 24" height="24px" width="24px" fill="#44739e" xmlns="http://www.w3.org/2000/svg"><title>hue:bloom-group</title><desc>Source: https://github.com/arallsopp/hass-hue-icons</desc><path d="M22.81,10.88c-1.59-2.88-5.29-6.53-8.2-8.09c-0.89-0.47-1.59-0.65-2.09-0.65c0,0-0.32-0.01-0.57,0.09 c-0.65,0.28-1,1.03-1,2.69c0,0.47,0.05,0.93,0.14,1.38c2.76,2.24,5.46,5.14,7.19,7.79c0.79,0.25,1.58,0.39,2.37,0.39 c1.25,0,2.05-0.3,2.57-0.82C23.52,13.4,23.62,12.34,22.81,10.88z M22.24,12.73c-1.07-0.48-3.36-1.82-5.48-3.92 c-2.19-2.16-3.59-4.44-4.02-5.47c-0.08-0.2,0.1-0.4,0.31-0.35c0.3,0.07,0.69,0.21,1.19,0.48c2.77,1.48,6.38,5.05,7.89,7.78 c0.26,0.48,0.4,0.88,0.47,1.19C22.64,12.64,22.43,12.81,22.24,12.73z M17.34,18.38c-1.49-0.67-4.69-2.54-7.66-5.47c-3.06-3.02-5.01-6.2-5.61-7.64C3.95,5,4.2,4.71,4.5,4.79 c0.41,0.1,0.96,0.3,1.66,0.67c3.87,2.07,8.91,7.05,11.02,10.87c0.37,0.67,0.56,1.23,0.66,1.66C17.9,18.26,17.6,18.5,17.34,18.38 M18.14,15.8c-2.21-4.02-7.38-9.11-11.46-11.3C5.44,3.85,4.47,3.6,3.76,3.6c0,0-0.45-0.01-0.79,0.13c-0.9,0.39-1.4,1.45-1.4,3.76 c0,2.83,1.19,5.59,3.05,7.86l-2.93,4.36c-0.33,0.48,0.02,1.13,0.6,1.12l4.8-0.02c0.48,0,0.94-0.24,1.21-0.64l0.73-1.08 c1.93,1.11,4.04,1.75,6.09,1.75c1.75,0,2.87-0.42,3.59-1.14C19.13,19.32,19.26,17.85,18.14,15.8"/></svg>