<svg viewBox="0 0 24 24" fill="#44739e" xmlns="http://www.w3.org/2000/svg"><title>hue:bloom-group-off</title><desc>Source: https://github.com/arallsopp/hass-hue-icons</desc><path d="M1.5,3.24l0.9,0.9c-0.53,0.57-0.82,1.6-0.82,3.35c0,2.83,1.19,5.59,3.05,7.86l-2.93,4.36 c-0.33,0.48,0.02,1.13,0.6,1.12l4.8-0.02c0.48,0,0.94-0.24,1.21-0.64l0.73-1.08c1.93,1.11,4.04,1.75,6.09,1.75 c1.45,0,2.46-0.29,3.17-0.8l2.29,2.29l1.38-1.38L2.88,1.86L1.5,3.24z M9.68,12.91c-2.44-2.41-4.16-4.9-5.06-6.55l11.26,11.26 C14.21,16.67,11.88,15.08,9.68,12.91z M7.59,5.03l10.24,10.24C15.66,11.64,11.31,7.32,7.59,5.03z M22.81,10.88c-1.59-2.88-5.29-6.53-8.2-8.09c-0.89-0.47-1.59-0.65-2.09-0.65c0,0-0.32-0.01-0.57,0.09 c-0.65,0.28-1,1.03-1,2.69c0,0.47,0.05,0.93,0.14,1.38c2.76,2.24,5.46,5.14,7.19,7.79c0.79,0.25,1.58,0.39,2.37,0.39 c1.25,0,2.05-0.3,2.57-0.82C23.52,13.4,23.62,12.34,22.81,10.88z M22.24,12.73c-1.07-0.48-3.36-1.82-5.48-3.92 c-2.19-2.16-3.59-4.44-4.02-5.47c-0.08-0.2,0.1-0.4,0.31-0.35c0.3,0.07,0.69,0.21,1.19,0.48c2.77,1.48,6.38,5.05,7.89,7.78 c0.26,0.48,0.4,0.88,0.47,1.19C22.64,12.64,22.43,12.81,22.24,12.73z"/></svg>