<svg viewBox="0 0 24 24" fill="#44739e" xmlns="http://www.w3.org/2000/svg"><title>hue:bloom-off</title><desc>Source: https://github.com/arallsopp/hass-hue-icons</desc><path d="M21.97,20.95L2.88,1.86L1.5,3.24l1.59,1.59C2.98,5.35,2.92,5.98,2.92,6.77c0,2.83,1.19,5.59,3.05,7.86 l-2.93,4.36c-0.33,0.48,0.02,1.13,0.6,1.12l4.8-0.02c0.48,0,0.94-0.24,1.21-0.64l0.73-1.08c1.93,1.11,4.04,1.75,6.09,1.75 c0.67,0,1.23-0.07,1.73-0.18l2.39,2.39L21.97,20.95z M7.51,4.73c3.87,2.07,8.91,7.05,11.02,10.87c0.14,0.26,0.25,0.5,0.35,0.73l1.47,1.47 c-0.03-0.69-0.26-1.62-0.87-2.72c-2.21-4.02-7.38-9.11-11.46-11.3C6.98,3.22,6.13,2.97,5.46,2.9l1.6,1.6 C7.21,4.57,7.35,4.64,7.51,4.73z"/></svg>