<svg viewBox="0 0 24 24" fill="#44739e" xmlns="http://www.w3.org/2000/svg"><title>hue:bollard-off</title><desc>Source: https://github.com/arallsopp/hass-hue-icons</desc><path d="M8.6,6.04C8.6,6.04,8.6,6.04,8.6,6.04c0.6,0.38,1.9,0.71,3.4,0.71s2.8-0.33,3.4-0.71 c0.15-0.1,0.35,0,0.35,0.18v3.15c0,0.52-1.16,0.94-2.74,1.08l3.49,3.49v-9.7c0-0.32-0.42-0.64-1.25-0.88C14.41,3.12,13.3,3,12.17,3 c-1.12,0-2.27,0.12-3.16,0.36C8.02,3.62,7.5,3.98,7.5,4.34v0.6L8.6,6.04z M10.01,3.96c1.2-0.28,3.04-0.28,4.16,0 c1.14,0.29,1.12,0.76-0.09,1.06c-1.23,0.31-3.19,0.31-4.32,0C8.65,4.72,8.78,4.24,10.01,3.96z M21.97,20.95L2.88,1.86L1.5,3.24l6,6v10.51c0,0.3,0.38,0.6,1.14,0.84c0.86,0.26,2.01,0.4,3.19,0.4 c1.18,0,2.37-0.14,3.29-0.4S16.5,20,16.5,19.66v-1.41l4.09,4.09L21.97,20.95z"/></svg>