<svg viewBox="0 0 24 24" fill="#44739e" xmlns="http://www.w3.org/2000/svg"><title>hue:bridge-v2-off</title><desc>Source: https://github.com/arallsopp/hass-hue-icons</desc><path d="M0.3,2.71l0.49,0.49C0.67,3.58,0.6,3.98,0.6,4.39V19.6c0,2.09,1.71,3.8,3.8,3.8h15.2 c0.42,0,0.82-0.07,1.19-0.2l0.35,0.35l1.38-1.38L1.68,1.33L0.3,2.71z M12,17.7c-3.15,0-5.7-2.56-5.7-5.7 c0-0.95,0.24-1.84,0.66-2.63l1.44,1.44C8.27,11.18,8.2,11.58,8.2,12c0,2.1,1.7,3.8,3.8,3.8c0.42,0,0.82-0.07,1.19-0.2l1.44,1.44 C13.84,17.45,12.95,17.7,12,17.7z M12,8.2c-0.56,0-1.08,0.13-1.56,0.34l5.02,5.02c0.22-0.48,0.34-1,0.34-1.56C15.8,9.9,14.1,8.2,12,8.2z M19.6,0.59H4.4c-0.56,0-1.09,0.13-1.57,0.35l2.52,2.52c0,0,0,0,0-0.01c0-0.53,0.42-0.95,0.95-0.95 c0.53,0,0.95,0.42,0.95,0.95c0,0.53-0.43,0.95-0.95,0.95c0,0,0,0-0.01,0l2.74,2.74C9.9,6.61,10.91,6.3,12,6.3 c3.15,0,5.7,2.56,5.7,5.7c0,1.09-0.31,2.1-0.84,2.96l6.19,6.19c0.22-0.48,0.35-1,0.35-1.56V4.4C23.41,2.31,21.69,0.59,19.6,0.59z M12,4.4c-0.53,0-0.95-0.42-0.95-0.95c0-0.53,0.42-0.95,0.95-0.95s0.95,0.42,0.95,0.95C12.95,3.98,12.53,4.4,12,4.4z M17.7,4.4 c-0.53,0-0.95-0.42-0.95-0.95c0-0.53,0.43-0.95,0.95-0.95s0.95,0.42,0.95,0.95C18.65,3.98,18.23,4.4,17.7,4.4z"/></svg>