<svg viewBox="0 0 24 24" fill="#44739e" xmlns="http://www.w3.org/2000/svg"><title>hue:bulb-group-filament-alt</title><desc>Source: https://github.com/arallsopp/hass-hue-icons</desc><path d="M15.1,0.85c-0.29,0.04-0.56,0.12-0.82,0.25C13,1.11,11.78,1.59,10.84,2.44c-1.72,1.46-0.97,4.2-0.97,4.2 l2.47,9.44c0.12,0.01,0.24,0.02,0.37,0.03c0.38,0.02,1.63,0.09,2.44,0.1c0.91,0.01,2.62-0.05,2.72-0.05c0.03,0,0.05,0,0.08-0.01 l2.44-9.31c0,0,0.89-2.72-0.67-4.24c-1.02-0.93-2.33-1.46-3.71-1.5C15.73,0.97,15.42,0.89,15.1,0.85L15.1,0.85z M17.57,3.51 c0.2,0.02,0.37,0.16,0.44,0.35c0.04,0.12,0.02,0.25-0.05,0.36c-0.08,0.11-0.2,0.19-0.34,0.21l-3.51,0.76 c-0.28,0.08-0.45,0.21-0.45,0.3c0,0.09,0.16,0.24,0.47,0.3l3.38,0.81c0.51,0.1,0.89,0.53,0.92,1.06c-0.03,0.52-0.4,0.96-0.92,1.06 l-4.05,0.95c-0.07,0.01-0.13,0.07-0.13,0.14c0,0.08,0.06,0.14,0.13,0.14l3.37,0.81c0.65,0.07,1.16,0.57,1.26,1.21 c-0.09,0.65-0.61,1.15-1.27,1.22l-3.43,0.69h-0.13c-0.28,0.04-0.55-0.14-0.61-0.42c-0.02-0.27,0.19-0.51,0.47-0.52 c0.01,0,0.01,0,0.02,0l3.4-0.69c0.28-0.08,0.45-0.21,0.45-0.3s-0.16-0.24-0.47-0.3l-3.38-0.75c-0.52-0.09-0.91-0.53-0.93-1.06 c0.02-0.53,0.41-0.97,0.93-1.05l4.05-0.95c0.07-0.01,0.13-0.07,0.13-0.14c0-0.07-0.05-0.14-0.13-0.15l-3.36-0.82 c-0.65-0.07-1.18-0.57-1.27-1.22c0.09-0.65,0.61-1.15,1.27-1.22l3.52-0.76C17.43,3.5,17.5,3.49,17.57,3.51L17.57,3.51z M12.2,16.99 c-0.01,0.25-0.06,0.5-0.15,0.73c-0.15,0.41-0.01,0.88,0.34,1.15l0.41,2.55c0.03,0.21,0.13,0.4,0.29,0.54l0.45,0.41l0.09,0.09 L14.09,23c0.19,0.22,0.46,0.34,0.75,0.34h0.71c0.29,0,0.56-0.12,0.75-0.34l0.47-0.55l0.09-0.09l0.45-0.41 c0.16-0.14,0.26-0.33,0.29-0.54l0.41-2.52c0.35-0.27,0.48-0.73,0.34-1.15c-0.09-0.23-0.14-0.48-0.15-0.73 c-0.96,0.09-1.93,0.15-2.77,0.15C14.35,17.17,13.27,17.11,12.2,16.99L12.2,16.99z M5.94,6.1C5.72,6.16,5.59,6.26,5.59,6.34 s0.13,0.18,0.36,0.23l2.61,0.62c0.21,0.05,0.39,0.16,0.52,0.33L8.93,6.89C8.81,6.43,8.75,5.96,8.74,5.48 C8.71,5.5,8.68,5.51,8.65,5.52L5.94,6.1z M4.85,14.54c0.29,0.02,1.26,0.07,1.89,0.08c0.7,0.01,2.03-0.04,2.11-0.04l0.06,0l1.01-3.87 L9.25,8.14C9.18,8.48,8.91,8.75,8.57,8.83L5.44,9.56c-0.06,0.01-0.1,0.05-0.1,0.11c0,0.06,0.04,0.11,0.1,0.11l2.61,0.62 c0.5,0.06,0.9,0.44,0.97,0.94c-0.07,0.5-0.47,0.89-0.98,0.94l-2.65,0.53h-0.1c-0.22,0.03-0.42-0.11-0.47-0.33 c-0.01-0.21,0.15-0.39,0.36-0.41c0,0,0.01,0,0.01,0l2.63-0.54c0.22-0.06,0.35-0.16,0.35-0.23c0-0.07-0.13-0.18-0.36-0.23l-2.62-0.58 c-0.4-0.07-0.7-0.41-0.72-0.82c0.02-0.41,0.31-0.75,0.72-0.81l3.13-0.73c0.06-0.01,0.1-0.05,0.1-0.11c0-0.06-0.04-0.11-0.1-0.12 l-2.6-0.63C5.22,7.23,4.82,6.84,4.75,6.34c0.07-0.5,0.47-0.89,0.98-0.95l2.72-0.59c0.05-0.01,0.11-0.01,0.17,0v0 C8.66,4.81,8.7,4.83,8.74,4.86c0.03-0.53,0.14-1.05,0.32-1.55C8.54,3.09,7.98,2.96,7.41,2.94C7.19,2.84,6.95,2.78,6.7,2.75 c-0.22,0.03-0.44,0.1-0.64,0.19C5.08,2.95,4.14,3.32,3.41,3.98C2.07,5.11,2.66,7.22,2.66,7.22l1.91,7.3 C4.66,14.53,4.76,14.54,4.85,14.54z M9.1,15.25c-0.74,0.07-1.49,0.12-2.14,0.12c-0.84,0-1.67-0.05-2.5-0.14 c-0.01,0.19-0.05,0.38-0.12,0.56c-0.11,0.32-0.01,0.68,0.26,0.89l0.32,1.97c0.02,0.16,0.1,0.31,0.22,0.42l0.35,0.32l0.07,0.07 l0.36,0.43c0.15,0.17,0.36,0.27,0.58,0.26h0.55c0.22,0,0.44-0.09,0.58-0.26L8,19.45l0.07-0.07l0.35-0.32 c0.12-0.11,0.2-0.25,0.22-0.42l0.32-1.95c0.27-0.21,0.37-0.57,0.26-0.89C9.15,15.63,9.11,15.44,9.1,15.25z"/></svg>