<svg viewBox="0 0 24 24" height="24px" width="24px" xmlns="http://www.w3.org/2000/svg"><title>hue:bulb-golfball-e14</title><desc>Source: https://github.com/arallsopp/hass-hue-icons</desc><path d="M15.3,16.6c-0.9,0.1-1.9,0.2-2.7,0.2c-1.1,0-2.1-0.1-3.2-0.2c0,0.2-0.1,0.5-0.2,0.7c-0.1,0.4,0,0.9,0.3,1.1L10,21c0,0.2,0.1,0.4,0.3,0.5l0.4,0.4l0.1,0.1l0.5,0.5c0.2,0.2,0.5,0.3,0.7,0.3h0.7c0.3,0,0.6-0.1,0.7-0.3l0.5-0.5l0.1-0.1l0.4-0.4c0.2-0.1,0.3-0.3,0.3-0.5l0.4-2.5c0.3-0.3,0.5-0.7,0.3-1.1C15.4,17.1,15.3,16.9,15.3,16.6z M19.1,6.4L19.1,6.4c0-2.9-0.8-6.1-6.7-6.1c-5.9,0-6.7,3.3-6.7,6.2c0,0,0,0,0,0c0,2.2,1.2,5.8,3.1,8.1 c0.3,0.4,0.6,0.7,0.9,1c0,0,0.6,0.2,2.7,0.2c2.1,0,2.7-0.2,2.7-0.2c0.3-0.3,0.6-0.6,0.9-1c1.9-2.3,3.1-5.9,3.1-8.1 C19.1,6.5,19.1,6.5,19.1,6.4z M12.6,6.3c-2.9,0-4.7,0.1-6,0.2c0-2.7,0.8-5.1,5.7-5.1c4.9,0,5.7,2.4,5.7,5.1 C16.9,6.3,15.1,6.3,12.6,6.3z"/></svg>