<svg viewBox="0 0 24 24" fill="#44739e" xmlns="http://www.w3.org/2000/svg"><title>hue:bulb-br30-hung-off</title><desc>Source: https://github.com/arallsopp/hass-hue-icons</desc><path d="M12.17,4.27c0.12,0,0.24,0,0.36,0c0.96,0,1.84,0.11,2.64,0.27l-0.06-1.96c0-0.11-0.04-0.22-0.12-0.31 l-1.22-1.4c-0.1-0.11-0.24-0.17-0.38-0.17h-2.43c-0.15,0-0.29,0.06-0.38,0.17l-1.22,1.4C9.29,2.35,9.24,2.46,9.24,2.58L9.18,4.54 c0.79-0.16,1.67-0.27,2.63-0.27C11.93,4.27,12.05,4.27,12.17,4.27z M4.12,20.76c0.1,0.14,0.21,0.28,0.35,0.43c1.31,1.36,3.86,2.05,7.7,2.01c3.75,0.03,6.39-0.65,7.7-2.01 c0.14-0.14,0.25-0.29,0.35-0.43c-1.67,0.41-4.2,0.75-8.05,0.75C8.32,21.51,5.78,21.17,4.12,20.76z M16.76,14.15c-0.8-1-0.75-1.65-0.71-2.71c0.01-0.23,0.02-0.48,0.02-0.75V7.18c0-0.64-0.12-1.14-0.36-1.5 c-1-0.27-2.19-0.46-3.53-0.41h-0.03C10.81,5.23,9.61,5.43,8.6,5.7C8.56,5.77,8.54,5.86,8.5,5.94L16.76,14.15 M19.64,19.84L8.25,8.46v2.24c0,0.26,0.01,0.51,0.02,0.75c0.04,1.06,0.06,1.7-0.74,2.7 c-0.3,0.38-0.78,0.77-1.29,1.18c-1.23,1-2.77,2.25-2.6,4.16c0,0.01,0,0.04,0,0.09c1.48,0.46,4.07,0.92,8.51,0.92 C15.71,20.5,18.07,20.2,19.64,19.84z"/></svg>