<svg viewBox="0 0 24 24" fill="#44739e" xmlns="http://www.w3.org/2000/svg"><title>hue:bulb-group-classic-3</title><desc>Source: https://github.com/arallsopp/hass-hue-icons</desc><path d="M11.2,9.91c1.41,0.45,3.48,0.59,4.82,0.59s3.41-0.14,4.82-0.59c-0.57,1.51-1.57,2.18-1.81,3.59 c-0.11,0.61-0.19,1.47-0.13,2.1c0.04,0.4-0.27,0.75-0.67,0.79c-0.65,0.07-1.38,0.11-2.21,0.11c-0.83,0-1.56-0.04-2.21-0.11 c-0.4-0.04-0.7-0.39-0.66-0.79c0.06-0.63-0.03-1.49-0.13-2.1C12.78,12.09,11.78,11.42,11.2,9.91z M13.77,17.15 c0.78,0.07,1.64,0.1,2.25,0.1c0.61,0,1.47-0.03,2.25-0.1l-0.38,2.33c-0.02,0.16-0.1,0.32-0.23,0.43l-0.35,0.32 c-0.02,0.02-0.05,0.04-0.07,0.07l-0.37,0.44C16.75,20.9,16.53,21,16.3,21h-0.55c-0.23,0-0.45-0.1-0.59-0.27l-0.37-0.44 c-0.02-0.02-0.04-0.05-0.07-0.07l-0.35-0.32c-0.12-0.11-0.21-0.27-0.23-0.43L13.77,17.15z M16.02,3c2.89,0,5.25,2.5,5.25,4.88 c0,0.21-0.04,0.41-0.06,0.61c-0.02,0.19-0.06,0.35-0.1,0.53c-0.82,0.35-2.55,0.74-5.09,0.74s-4.27-0.4-5.09-0.75 c-0.04-0.18-0.07-0.34-0.1-0.53c-0.02-0.2-0.06-0.39-0.06-0.61C10.77,5.5,13.13,3,16.02,3z M12.55,16.77 c-0.01-0.02-0.02-0.04-0.04-0.05c-0.56,0.04-1.14,0.06-1.57,0.06c-0.52,0-1.26-0.03-1.94-0.09l0.32,2c0.02,0.14,0.09,0.28,0.2,0.37 l0.3,0.28c0.03,0.02,0.04,0.04,0.06,0.06l0.32,0.38c0.12,0.15,0.31,0.23,0.51,0.23h0.47c0.2,0,0.39-0.09,0.49-0.22l0.32-0.39 c0.02-0.03,0.04-0.04,0.06-0.06l0.3-0.28c0.11-0.09,0.18-0.23,0.2-0.37l0.27-1.67C12.72,16.96,12.63,16.87,12.55,16.77z M6.48,9.23 c0.03,0.16,0.05,0.3,0.09,0.46c0.63,0.27,1.9,0.57,3.73,0.63c-0.01-0.02-0.02-0.03-0.02-0.05c-0.04-0.1-0.21-0.66-0.31-1.04l0,0 V9.22C9.93,9.07,9.91,8.95,9.91,8.91c0,0,0,0,0-0.01C9.89,8.81,9.87,8.73,9.86,8.63c0-0.02-0.01-0.04-0.01-0.06 C9.84,8.52,9.84,8.46,9.83,8.41C9.81,8.26,9.78,8.08,9.78,7.86c0-1.14,0.46-2.33,1.24-3.34c-0.02,0-0.04-0.01-0.06-0.01 c-2.49,0-4.52,2.15-4.52,4.19C6.42,8.9,6.46,9.06,6.48,9.23z M10.94,16.13c0.46,0,0.87-0.02,1.26-0.04 c-0.05-0.19-0.07-0.39-0.05-0.58c0.05-0.51-0.03-1.29-0.12-1.84c-0.1-0.58-0.39-1.01-0.76-1.56c-0.22-0.33-0.47-0.7-0.69-1.14 c-1.14-0.02-2.69-0.15-3.79-0.5c0.5,1.3,1.36,1.88,1.57,3.09c0.09,0.52,0.16,1.26,0.11,1.81c-0.03,0.34,0.22,0.65,0.57,0.68 C9.6,16.1,10.23,16.13,10.94,16.13z M2.76,9.92c0.02,0.14,0.05,0.26,0.08,0.4c0.55,0.23,1.63,0.49,3.2,0.55 C6.03,10.84,6.01,10.81,6,10.78c-0.03-0.08-0.18-0.57-0.27-0.89l0,0V9.88C5.7,9.75,5.67,9.65,5.68,9.62c0,0,0,0,0-0.01 C5.67,9.54,5.65,9.46,5.64,9.38c0-0.02,0-0.03-0.01-0.05c0-0.05-0.01-0.09-0.02-0.14C5.59,9.06,5.57,8.9,5.57,8.72 c0-0.23,0.03-0.46,0.07-0.68C5.65,8,5.65,7.97,5.66,7.93C5.71,7.7,5.77,7.48,5.85,7.25c0.01-0.02,0.02-0.04,0.02-0.06 c0.19-0.48,0.45-0.95,0.79-1.37l0,0c-2.17,0-3.94,1.88-3.94,3.66C2.71,9.63,2.74,9.77,2.76,9.92z M7.62,15.28 c0.04-0.44-0.03-1.11-0.1-1.58c-0.08-0.5-0.34-0.87-0.65-1.35c-0.18-0.27-0.38-0.58-0.57-0.92C5.31,11.41,3.99,11.3,3.04,11 c0.44,1.13,1.19,1.64,1.37,2.7c0.08,0.46,0.14,1.1,0.1,1.58c-0.03,0.3,0.2,0.56,0.5,0.59c0.49,0.05,1.04,0.08,1.66,0.08 c0.37,0,0.71-0.01,1.04-0.03C7.62,15.71,7.59,15.5,7.62,15.28z M8.06,16.45c-0.5,0.04-1.02,0.05-1.4,0.05 c-0.46,0-1.1-0.02-1.69-0.08l0.28,1.74c0.02,0.12,0.08,0.24,0.17,0.32l0.26,0.24c0.02,0.02,0.04,0.04,0.05,0.05l0.28,0.33 c0.11,0.13,0.27,0.2,0.44,0.2h0.41c0.17,0,0.34-0.08,0.43-0.2l0.28-0.3c0.02-0.02,0.04-0.04,0.05-0.05l0.27-0.24 c0.1-0.08,0.16-0.2,0.17-0.32l0.25-1.53C8.22,16.6,8.14,16.53,8.06,16.45z"/></svg>