<svg viewBox="0 0 24 24" fill="#44739e" xmlns="http://www.w3.org/2000/svg"><title>hue:bulb-group-bollard-off</title><desc>Source: https://github.com/arallsopp/hass-hue-icons</desc><path d="M21.97,20.95L2.88,1.86L1.5,3.24l2.1,2.1v10.02c0,0.21,0.16,0.5,0.93,0.74c0.64,0.19,1.49,0.3,2.4,0.3 c0.9,0,1.8-0.11,2.48-0.3c0.73-0.21,1.11-0.49,1.11-0.82v-3.02l0.89,0.89v6.54c0,0.3,0.38,0.6,1.14,0.84 c0.86,0.26,2.01,0.4,3.19,0.4c1.1,0,2.21-0.13,3.1-0.36l1.75,1.75L21.97,20.95z M4.41,7.67V6.16l2.21,2.21 C5.24,8.3,4.41,7.93,4.41,7.67z M20.41,4.17c-0.01-0.32-0.43-0.63-1.26-0.88c-0.83-0.24-1.94-0.36-3.07-0.36c-1.12,0-2.27,0.12-3.16,0.36 c-0.99,0.26-1.51,0.62-1.51,0.98v4.58l9,9V4.17z M13.91,3.89c1.2-0.28,3.04-0.28,4.16,0c1.14,0.29,1.12,0.76-0.09,1.06 c-1.23,0.31-3.19,0.31-4.32,0C12.55,4.65,12.68,4.18,13.91,3.89z M19.65,9.31c0,0.62-1.68,1.12-3.75,1.12 c-2.07,0-3.75-0.5-3.75-1.12V6.16c0-0.18,0.2-0.28,0.35-0.18c0.6,0.38,1.89,0.71,3.4,0.71c1.51,0,2.8-0.33,3.4-0.71 c0.15-0.1,0.35,0,0.35,0.18V9.31z M8.64,3.77C9.08,3.88,9.16,4,9.16,4.03c0,0.04-0.11,0.17-0.59,0.29C8.14,4.43,7.59,4.48,7.04,4.48L8.3,5.74 c0.56-0.1,1.05-0.25,1.35-0.44c0.02-0.02,0.04-0.01,0.05,0c0.02,0,0.02,0.02,0.02,0.03v1.83l0.8,0.8V3.85 c0.01-0.31-0.34-0.57-1.01-0.77C8.9,2.91,8.07,2.81,7.19,2.81c-0.6,0-1.17,0.05-1.69,0.13l0.73,0.73C7.04,3.58,8,3.61,8.64,3.77z"/></svg>