<svg viewBox="0 0 24 24" fill="#44739e" xmlns="http://www.w3.org/2000/svg"><title>hue:bulb-group-spot</title><desc>Source: https://github.com/arallsopp/hass-hue-icons</desc><path d="M15.93,19.5c0,0.41,0.34,0.75,0.75,0.75s0.75-0.34,0.75-0.75v-1.55c-0.47,0.23-0.98,0.37-1.5,0.4V19.5z M12.93,19.5c0,0.41,0.34,0.75,0.75,0.75s0.75-0.34,0.75-0.75v-1.16c-0.52-0.03-1.03-0.16-1.5-0.4V19.5z M15.18,3.75 c-3.26,0-5.99,0.68-6.61,1.59c-0.09,0.12-0.13,0.25-0.14,0.4c0,1.1,3.02,1.99,6.75,1.99c3.73,0,6.75-0.89,6.75-1.99 S18.9,3.75,15.18,3.75z M9.34,7.57c0.23,1.87,1.19,3.56,2.67,4.72c0.15,0.14,0.17,0.38,0.17,0.84v2.77 c-0.01,0.36,0.12,0.7,0.35,0.97c0.74,0.6,1.7,0.87,2.65,0.75c0.95,0.12,1.91-0.15,2.65-0.75c0.23-0.27,0.36-0.62,0.35-0.97v-2.77 c0-0.47,0.02-0.7,0.17-0.84c1.48-1.16,2.44-2.85,2.67-4.72c-1.88,0.65-3.85,0.96-5.84,0.91C13.19,8.52,11.21,8.21,9.34,7.57z M4.95,18.05c0,0.3,0.24,0.55,0.55,0.55s0.55-0.24,0.55-0.55v-0.84c-0.38-0.02-0.75-0.12-1.09-0.29V18.05z M6.59,10.03 c-1.45,0.03-2.88-0.2-4.25-0.67c0.17,1.36,0.87,2.59,1.95,3.44c0.11,0.1,0.12,0.27,0.12,0.61v2.01c0,0.26,0.09,0.51,0.25,0.71 c0.54,0.44,1.24,0.64,1.93,0.55c0.69,0.09,1.39-0.11,1.93-0.55c0.17-0.2,0.26-0.45,0.26-0.71v-2.01c0-0.34,0.01-0.51,0.12-0.61 c0.43-0.31,0.8-0.7,1.09-1.15c-0.42-0.55-0.75-1.16-1.01-1.81C8.18,9.97,7.38,10.03,6.59,10.03z M8.75,9.33 c-0.17-0.52-0.3-1.05-0.4-1.59l-0.09-0.5C8.04,7.06,7.85,6.86,7.7,6.63C7.34,6.6,6.97,6.59,6.59,6.59c-2.37,0-4.36,0.5-4.81,1.16 c-0.06,0.08-0.1,0.19-0.1,0.29c0,0.8,2.2,1.45,4.91,1.45C7.31,9.48,8.03,9.43,8.75,9.33z M7.13,18.05c0,0.3,0.24,0.55,0.55,0.55 c0.3,0,0.55-0.24,0.55-0.55v-1.13c-0.34,0.17-0.71,0.27-1.09,0.29L7.13,18.05z"/></svg>