<svg viewBox="0 0 24 24" height="24px" width="24px" fill="#44739e" xmlns="http://www.w3.org/2000/svg"><title>hue:bulb-group-candle-lightstrip</title><desc>Source: https://github.com/arallsopp/hass-hue-icons</desc><path d="M16.18,12.68c1.88,0,3.28-0.22,4.16-0.46c-0.27-4.38-2.58-10.42-4.16-10.42c-1.58,0-3.89,6.03-4.16,10.42 C12.9,12.47,14.3,12.68,16.18,12.68z M14.09,18.45l0.35,2.08c0.02,0.15,0.09,0.28,0.21,0.38l0.33,0.28c0.02,0.02,0.04,0.04,0.06,0.06l0.34,0.39 c0.13,0.15,0.33,0.24,0.54,0.24h0.51c0.21,0,0.41-0.09,0.54-0.24l0.34-0.39c0.02-0.02,0.04-0.04,0.06-0.06l0.33-0.28 c0.12-0.1,0.19-0.24,0.21-0.38l0.35-2.08c-0.72,0.07-1.53,0.09-2.09,0.09C15.62,18.54,14.81,18.52,14.09,18.45z M16.18,13.52c-1.15,0-2.89-0.11-4.18-0.44c0,0.03,0,0.07,0,0.11c0,2.07,0.64,3.54,1.45,4.34 c0.75,0.11,1.66,0.18,2.74,0.18c1.07,0,1.99-0.07,2.74-0.18c0.81-0.8,1.45-2.27,1.45-4.34c0-0.03,0-0.07,0-0.11 C19.07,13.41,17.34,13.52,16.18,13.52z M4.19,7.57h7.66c0.32-1.18,0.72-2.36,1.18-3.39H4.19c-0.31,0-0.57,0.25-0.57,0.57V7 C3.62,7.32,3.87,7.57,4.19,7.57z M10.97,5.31c0.31,0,0.57,0.25,0.57,0.57s-0.25,0.57-0.57,0.57c-0.31,0-0.57-0.25-0.57-0.57 S10.65,5.31,10.97,5.31z M8.14,5.31c0.31,0,0.57,0.25,0.57,0.57S8.45,6.44,8.14,6.44c-0.31,0-0.57-0.25-0.57-0.57 S7.83,5.31,8.14,5.31z M5.32,5.31c0.31,0,0.57,0.25,0.57,0.57S5.63,6.44,5.32,6.44C5,6.44,4.75,6.19,4.75,5.87S5,5.31,5.32,5.31z M6.45,14.35c-2.26,0-2.83-1.7-2.83-2.26v2.83c0,1.56,1.27,2.83,2.83,2.83h5.87c-0.66-0.87-1.09-2.04-1.24-3.39 H6.45z M7.01,16.61c-0.31,0-0.57-0.25-0.57-0.57c0-0.31,0.25-0.57,0.57-0.57c0.31,0,0.57,0.25,0.57,0.57 C7.58,16.36,7.32,16.61,7.01,16.61z M9.84,16.61c-0.31,0-0.57-0.25-0.57-0.57c0-0.31,0.25-0.57,0.57-0.57 c0.31,0,0.57,0.25,0.57,0.57C10.4,16.36,10.15,16.61,9.84,16.61z M4.18,11.51c0.31,1.46,1.75,2.39,3.21,2.08l3.62-0.78l0.01-0.48l0.01-0.16c0.06-0.97,0.24-2.16,0.52-3.4 l-6.51,1.4C4.43,10.3,4.04,10.9,4.18,11.51z M8.89,10.74c0.3-0.06,0.61,0.13,0.67,0.43c0.06,0.31-0.13,0.61-0.43,0.67 c-0.31,0.06-0.61-0.13-0.67-0.43C8.39,11.11,8.59,10.81,8.89,10.74z M6.13,11.34c0.31-0.06,0.61,0.13,0.67,0.44 c0.06,0.3-0.13,0.6-0.43,0.67c-0.31,0.06-0.61-0.13-0.67-0.43C5.63,11.7,5.82,11.4,6.13,11.34z"/></svg>