<svg viewBox="0 0 24 24" fill="#44739e" xmlns="http://www.w3.org/2000/svg"><title>hue:bulb-filament-a19-hung</title><desc>Source: https://github.com/arallsopp/hass-hue-icons</desc><path d="M11.07,1.25l-0.6,0.69C9.55,2.19,9.65,2.68,9.65,2.68L9.61,5.8L9.28,6.01L8.86,6.67L8.82,7.59 c0,0,1.64-0.32,3.2-0.32s3.33,0.32,3.33,0.32L15.3,6.67l-0.42-0.67L14.55,5.8l-0.04-3.12c0,0,0.1-0.5-0.81-0.75l-0.6-0.69 c0,0-0.47-0.16-1.03-0.16C11.52,1.09,11.07,1.25,11.07,1.25z M6.45,18.11c1.33,4.9,5.59,4.74,5.59,4.74s4.26,0.17,5.59-4.74c0.62-2.49-0.37-3.62-1.16-4.82 c0,0-1.04-1.08-1.04-2.99c0-1.5-0.17-1.62-0.17-1.62s-1-0.37-3.33-0.37c-2.33,0-3.11,0.37-3.11,0.37S8.66,8.9,8.66,10.29 c0,1.91-1.04,2.99-1.04,2.99C6.83,14.49,5.83,15.61,6.45,18.11z M13.98,12.92c0.05,0.25,0.08,0.53-0.51,0.65l-3.21,0.85 c-0.07,0.01-0.12,0.07-0.11,0.14c0,0.07,0.05,0.13,0.11,0.14l3.52,0.95c0.47,0.13,0.8,0.56,0.8,1.04c0,0.48-0.33,0.91-0.8,1.04 l-2.94,0.79c-0.27,0.07-0.41,0.21-0.41,0.3c0,0.09,0.14,0.22,0.39,0.3l3.06,0.75c0.12,0.03,0.23,0.1,0.29,0.21 c0.06,0.11,0.08,0.23,0.05,0.35c-0.07,0.25-0.32,0.4-0.57,0.35l-3.07-0.75c-0.6-0.11-1.06-0.6-1.1-1.21c0.04-0.6,0.5-1.1,1.1-1.21 l2.92-0.8c0.07-0.02,0.12-0.08,0.11-0.15c0-0.07-0.05-0.13-0.11-0.14l-3.52-0.93c-0.48-0.12-0.81-0.55-0.81-1.04 s0.33-0.92,0.81-1.05l3.28-0.91C13.26,12.59,13.89,12.48,13.98,12.92z"/></svg>