<svg viewBox="0 0 24 24" fill="#44739e" xmlns="http://www.w3.org/2000/svg"><title>hue:bulb-filament-a19-hung-off</title><desc>Source: https://github.com/arallsopp/hass-hue-icons</desc><path d="M11.93,8.31c-0.39,0-0.72,0.01-1.03,0.03l6.53,6.53c-0.27-0.58-0.63-1.07-0.96-1.58c0,0-1.04-1.08-1.04-2.99 c0-1.5-0.17-1.62-0.17-1.62S14.26,8.31,11.93,8.31z M21.97,20.95L2.88,1.86L1.5,3.24l7.16,7.16c-0.04,1.84-1.03,2.88-1.03,2.88c-0.79,1.21-1.79,2.33-1.17,4.83 c1.33,4.9,5.59,4.74,5.59,4.74s3.69,0.14,5.27-3.79l3.28,3.28L21.97,20.95z M14.58,16.69c0,0.48-0.33,0.91-0.8,1.04l-2.94,0.79 c-0.27,0.07-0.41,0.21-0.41,0.3c0,0.09,0.14,0.22,0.39,0.3l3.06,0.75c0.12,0.03,0.23,0.1,0.29,0.21c0.06,0.11,0.08,0.23,0.05,0.35 c-0.07,0.25-0.32,0.4-0.57,0.35l-3.07-0.75c-0.6-0.11-1.06-0.6-1.1-1.21c0.04-0.6,0.5-1.1,1.1-1.21l2.92-0.8 c0.07-0.02,0.12-0.08,0.11-0.15c0-0.07-0.05-0.13-0.11-0.14l-3.52-0.93c-0.48-0.12-0.81-0.55-0.81-1.04s0.33-0.92,0.81-1.05 l1.39-0.39l0.8,0.8l-1.91,0.51c-0.07,0.01-0.12,0.07-0.11,0.14c0,0.07,0.05,0.13,0.11,0.14l3.52,0.95 c0.08,0.02,0.16,0.07,0.23,0.11l0.42,0.42C14.52,16.34,14.58,16.51,14.58,16.69z M9.97,7.41c0.59-0.07,1.32-0.14,2.05-0.14c1.56,0,3.33,0.32,3.33,0.32L15.3,6.67L14.88,6l-0.33-0.2l-0.04-3.12 c0,0,0.1-0.5-0.81-0.75l-0.6-0.69c0,0-0.47-0.16-1.03-0.16c-0.55,0.01-1,0.17-1,0.17l-0.6,0.69C9.55,2.19,9.65,2.68,9.65,2.68 L9.61,5.8L9.28,6.01L9,6.44L9.97,7.41z"/></svg>