<svg viewBox="0 0 24 24" fill="#44739e" xmlns="http://www.w3.org/2000/svg"><title>hue:bulb-group-filament-filament-alt</title><desc>Source: https://github.com/arallsopp/hass-hue-icons</desc><path d="M18.14,17c0.01,0.25,0.06,0.49,0.15,0.72c0.14,0.41,0.01,0.86-0.33,1.13l-0.41,2.49 c-0.03,0.21-0.13,0.4-0.28,0.53l-0.45,0.4l-0.09,0.08l-0.47,0.54c-0.18,0.22-0.46,0.34-0.74,0.34h-0.7c-0.28,0-0.56-0.12-0.74-0.34 l-0.47-0.54l-0.09-0.08l-0.45-0.4c-0.16-0.14-0.26-0.33-0.28-0.53l-0.41-2.51c-0.34-0.27-0.48-0.72-0.33-1.13 c0.09-0.23,0.14-0.47,0.15-0.72c1.06,0.12,2.12,0.18,3.19,0.18C16.24,17.15,17.19,17.1,18.14,17z M22.77,8.25 c0,1.31-0.34,2.6-1.01,3.74l-0.1,0.16c-0.09,0.15-0.19,0.3-0.29,0.44c-1.29,1.85-2.34,2.25-2.99,3.45 c-0.98,0.11-1.97,0.16-2.95,0.16c-1.16,0-2.31-0.07-3.46-0.21c-0.65-1.16-1.69-1.58-2.96-3.4c-0.1-0.14-0.2-0.29-0.29-0.44 l-0.1-0.16C7,9.27,7.3,5.84,9.36,3.44c2.07-2.42,5.43-3.3,8.42-2.22C20.76,2.27,22.76,5.09,22.77,8.25L22.77,8.25z M17.08,8.79 c0.58-0.16,0.92-0.75,0.76-1.32c-0.1-0.37-0.39-0.66-0.76-0.76l-2.94-0.79c-0.27-0.07-0.41-0.21-0.41-0.3c0-0.09,0.14-0.22,0.39-0.3 l3.06-0.75c0.12-0.03,0.23-0.1,0.29-0.21c0.06-0.11,0.08-0.23,0.05-0.35c-0.07-0.25-0.32-0.4-0.57-0.35L13.88,4.4 c-0.6,0.1-1.05,0.6-1.1,1.21c0.05,0.61,0.5,1.1,1.1,1.21l2.92,0.8c0.07,0.02,0.12,0.08,0.11,0.15c0,0.07-0.05,0.13-0.11,0.14 l-3.52,0.93c-0.48,0.12-0.81,0.55-0.81,1.04c0,0.49,0.33,0.92,0.81,1.05l2.94,0.74c0.27,0.07,0.41,0.21,0.41,0.3 s-0.14,0.22-0.39,0.3l-2.96,0.68c-0.26,0.02-0.45,0.25-0.42,0.51c0.02,0.26,0.25,0.45,0.51,0.42c0,0,0.01,0,0.01,0h0.11l2.98-0.68 c0.6-0.1,1.05-0.6,1.1-1.21c-0.05-0.6-0.5-1.09-1.09-1.2L13.55,10c-0.07-0.01-0.12-0.07-0.11-0.14c0-0.07,0.05-0.13,0.11-0.14 L17.08,8.79z M5.14,9.62c0,0.06,0.04,0.11,0.1,0.11l1.56,0.37C6.74,9.8,6.69,9.49,6.67,9.18L5.25,9.51 C5.19,9.52,5.15,9.57,5.14,9.62z M5.4,6.24c0,0.07,0.13,0.19,0.37,0.24l0.98,0.23C6.81,6.38,6.9,6.05,7,5.73L5.75,6 C5.53,6.06,5.4,6.16,5.4,6.24z M8.97,15.29c-0.76,0.07-1.51,0.12-2.18,0.12c-0.85,0-1.7-0.05-2.54-0.14 c-0.01,0.2-0.05,0.39-0.12,0.57c-0.11,0.33-0.01,0.69,0.26,0.9l0.32,2c0.02,0.16,0.1,0.31,0.23,0.42l0.36,0.32l0.07,0.07l0.37,0.43 c0.15,0.17,0.36,0.27,0.59,0.27h0.56c0.23,0,0.44-0.09,0.59-0.27l0.37-0.43l0.07-0.07l0.36-0.32c0.13-0.11,0.21-0.26,0.23-0.42 l0.32-1.98c0.27-0.21,0.38-0.57,0.26-0.9C9.02,15.68,8.98,15.48,8.97,15.29z M4.65,14.57c0.3,0.02,1.28,0.07,1.92,0.08 c0.71,0.01,2.06-0.04,2.14-0.04l0.06,0l0.13-0.51c-0.23-0.27-0.47-0.57-0.72-0.93c-0.1-0.13-0.21-0.3-0.31-0.47l-0.1-0.15 c-0.04-0.07-0.07-0.15-0.11-0.22l-2.47,0.5h-0.1c-0.22,0.03-0.43-0.11-0.48-0.33c-0.01-0.21,0.15-0.4,0.37-0.41c0,0,0.01,0,0.01,0 l2.32-0.47c-0.1-0.22-0.18-0.45-0.26-0.68L5,10.47c-0.41-0.07-0.71-0.42-0.73-0.83C4.29,9.23,4.59,8.88,5,8.81l1.62-0.38 C6.6,8.11,6.61,7.79,6.63,7.46L5.54,7.2C5.03,7.15,4.61,6.75,4.55,6.24c0.07-0.51,0.48-0.91,0.99-0.96L7.29,4.9 c0.3-0.69,0.69-1.33,1.16-1.91c-0.39-0.12-0.79-0.19-1.19-0.2c-0.23-0.1-0.47-0.17-0.72-0.2c-0.22,0.03-0.44,0.1-0.65,0.2 c-1,0.01-1.96,0.39-2.7,1.05C1.83,4.99,2.43,7.14,2.43,7.14l1.94,7.41C4.46,14.56,4.56,14.56,4.65,14.57z"/></svg>