<svg viewBox="0 0 24 24" fill="#44739e" xmlns="http://www.w3.org/2000/svg"><title>hue:bulb-filament-candle-hung</title><desc>Source: https://github.com/arallsopp/hass-hue-icons</desc><path d="M16.5,10.8v-0.1c0-2.3-0.7-3.9-1.6-4.8c-0.8-0.1-1.8-0.2-3-0.2s-2.2,0.1-3,0.2C8,6.8,7.3,8.4,7.3,10.7v0.1 c1.4-0.4,3.3-0.5,4.6-0.5S15.1,10.4,16.5,10.8z M12.1,4.7c0.6,0,1.5,0,2.3,0.1L14,2.5c0-0.1-0.1-0.3-0.2-0.4l-0.4-0.3 c-0.1-0.1-0.1-0.1-0.1-0.1l-0.4-0.4C12.8,1.1,12.5,1,12.3,1h-0.6c-0.2,0-0.5,0.1-0.6,0.3l-0.4,0.4c-0.1,0.1-0.1,0.1-0.1,0.1 l-0.4,0.3C10.1,2.2,10,2.3,10,2.5L9.6,4.8C10.4,4.7,11.5,4.7,12.1,4.7z M11,11.2c-1.6,0.1-2.9,0.3-3.7,0.5 c0.3,4.8,2.9,11.5,4.6,11.5c1.8,0,4.3-6.6,4.6-11.4c-0.6-0.2-1.4-0.3-2.5-0.4c0.2,0.2,0.3,0.5,0.3,0.8c0,0.5-0.5,1-1.1,1.1l-3,0.7 c0,0-0.1,0-0.1,0.1c0,0,0,0.1,0.1,0.1l3.4,1.1c0.4,0.2,0.7,0.6,0.7,1.1s-0.3,0.9-0.8,1l-3,0.7c-0.2,0.1-0.4,0.2-0.4,0.3 s0.2,0.2,0.4,0.3l3,0.9c0.1,0,0.3,0,0.3,0.2c0,0.2,0,0.3,0,0.4c-0.1,0.2-0.3,0.4-0.6,0.3l-3-0.9c-0.6-0.2-1-0.7-1-1.3 c0.1-0.6,0.6-1.1,1.1-1.3l1-0.2l2-0.4c0,0,0.1,0,0.1-0.1c0,0,0-0.1-0.1-0.1l-3.4-1.1c-0.5-0.2-0.8-0.6-0.8-1.1 c0.1-0.5,0.4-0.9,0.9-1l3-0.6c0.2-0.1,0.4-0.2,0.4-0.3s-0.2-0.2-0.4-0.3L11,11.2z"/></svg>