<svg viewBox="0 0 24 24" fill="#44739e" xmlns="http://www.w3.org/2000/svg"><title>hue:bulb-group-br30-off</title><desc>Source: https://github.com/arallsopp/hass-hue-icons</desc><path d="M1.5,3.24l1.8,1.8C2.96,5.22,2.66,5.42,2.43,5.66c-0.1,0.11-0.19,0.22-0.26,0.33 c0.48-0.12,1.06-0.23,1.75-0.32l0.68,0.68C3.36,6.48,2.44,6.68,1.82,6.87c0,0.04,0,0.07,0,0.07c-0.13,1.45,1.03,2.39,1.96,3.14 c0.38,0.31,0.74,0.6,0.97,0.89c0.6,0.75,0.59,1.24,0.56,2.04c0,0.18-0.01,0.37-0.01,0.57v2.65c0,0.47,0.09,0.85,0.26,1.13 c0.76,0.2,1.67,0.35,2.68,0.32h0.02c0.26,0.01,0.52,0,0.77-0.01c-0.04-0.25-0.07-0.51-0.07-0.8v-3.51c0-0.28,0.01-0.54,0.02-0.79 c0.04-1,0.05-1.33-0.52-2.04c-0.24-0.3-0.67-0.65-1.14-1.03C6.44,8.78,5.24,7.79,4.67,6.42l5.31,5.31C10,12,9.99,12.28,9.98,12.6 c-0.01,0.24-0.02,0.49-0.02,0.75v3.51c0,0.63,0.12,1.13,0.35,1.49c1.01,0.27,2.21,0.47,3.55,0.43h0.03 c1.06,0.04,2.03-0.07,2.88-0.26l3.81,3.81l1.38-1.38L2.88,1.86L1.5,3.24z M13.87,2.55c3.85,0,6.38,0.34,8.05,0.75c-0.1-0.14-0.21-0.29-0.35-0.43c-1.31-1.36-3.95-2.04-7.7-2.01 c-3.84-0.04-6.39,0.65-7.7,2.01C6.04,3,5.93,3.14,5.84,3.28l0.01,0.01C7.52,2.89,10.04,2.55,13.87,2.55z M6.69,4.13l11.09,11.09v-1.86c0-0.27-0.01-0.52-0.02-0.75c-0.04-1.06-0.06-1.7,0.74-2.7 c0.3-0.38,0.78-0.77,1.29-1.18c1.23-1,2.77-2.24,2.59-4.1c0-0.02,0-0.08-0.01-0.16c-1.48-0.45-4.08-0.92-8.51-0.92 C10.54,3.55,8.25,3.81,6.69,4.13z M13.88,19.78c-0.12,0-0.24,0-0.36,0c-0.96,0-1.84-0.11-2.63-0.27l0.06,1.96c0,0.12,0.05,0.23,0.12,0.31 l1.22,1.4c0.09,0.11,0.23,0.17,0.38,0.17h2.43c0.14,0,0.28-0.06,0.38-0.17l1.22-1.4c0.08-0.09,0.12-0.2,0.12-0.31l0.06-1.96 c-0.81,0.17-1.69,0.27-2.64,0.27C14.12,19.78,14,19.78,13.88,19.78z M9.68,19.21l-0.21-0.32c-0.1-0.15-0.18-0.32-0.25-0.5c-0.23,0.02-0.46,0.04-0.7,0.04c-0.09,0-0.18,0-0.27,0 s-0.19,0-0.28,0c-0.72,0-1.38-0.08-1.98-0.2l0.05,1.48c0,0.09,0.03,0.17,0.09,0.24L7.05,21c0.07,0.08,0.17,0.13,0.28,0.13h1.84 c0.1,0,0.21-0.05,0.28-0.13l0.47-0.54l-0.04-1.2L9.68,19.21z"/></svg>