<svg viewBox="0 0 24 24" fill="#44739e" xmlns="http://www.w3.org/2000/svg"><title>hue:bulb-group-sultan-3</title><desc>Source: https://github.com/arallsopp/hass-hue-icons</desc><path d="M17.77,2.55c1.35,1.28,0.13,3.63-0.29,4.47c-1.12,0.33-2.9,0.63-5.3,0.63s-4.19-0.3-5.3-0.63 c-0.42-0.84-1.64-3.2-0.29-4.47c1.46-1.36,5.36-1.28,5.6-1.28C12.44,1.27,16.32,1.19,17.77,2.55z M12.17,8.57 c1.35,0,3.33-0.13,4.91-0.5c-1.21,3.84-1.41,7.37-1.37,8.36c0.01,0.23-0.07,0.47-0.21,0.63l-0.4,0.47c-0.84,0.1-1.83,0.17-2.93,0.17 s-2.1-0.06-2.93-0.17l-0.4-0.47c-0.15-0.19-0.22-0.4-0.22-0.64c0.05-1-0.16-4.51-1.37-8.36C8.85,8.44,10.82,8.57,12.17,8.57z M9.51,18.46c0.92,0.09,1.94,0.13,2.67,0.13s1.73-0.03,2.67-0.13l-0.45,2.83c-0.02,0.2-0.12,0.38-0.27,0.52L13.7,22.2 c-0.02,0.02-0.06,0.05-0.08,0.08l-0.44,0.54c-0.15,0.21-0.41,0.33-0.68,0.33h-0.65c-0.27,0-0.54-0.12-0.7-0.33l-0.44-0.54 c-0.02-0.02-0.05-0.06-0.08-0.08l-0.42-0.38c-0.14-0.13-0.23-0.33-0.26-0.52L9.51,18.46z M6.09,7.89C5.98,7.8,5.9,7.67,5.83,7.54 L5.79,7.46C5.37,6.62,4.23,4.31,5.17,2.51C4.11,2.65,2.94,2.93,2.29,3.53c-1.25,1.14-0.12,3.26,0.27,4c0.8,0.23,2,0.44,3.55,0.52 C6.11,8.01,6.09,7.95,6.09,7.89z M8.36,18.65c-0.02-0.12-0.02-0.24,0-0.36l-0.01-0.01l-0.33-0.38c-0.21,0-0.41,0.01-0.59,0.01 c-0.66,0-1.61-0.03-2.46-0.12l0.42,2.54c0.02,0.17,0.1,0.35,0.24,0.47l0.38,0.35c0.03,0.02,0.06,0.06,0.08,0.08l0.41,0.48 c0.15,0.19,0.4,0.29,0.64,0.29h0.59c0.26,0,0.48-0.1,0.62-0.29l0.41-0.48l0,0L8.36,18.65z M7.57,17.1 c-0.07-0.22-0.12-0.47-0.12-0.73c0.03-0.66-0.09-3.78-1.19-7.47C5.2,8.83,3.96,8.71,2.9,8.47c1.11,3.46,1.3,6.6,1.27,7.5 c0,0.22,0.07,0.42,0.21,0.58l0.36,0.42c0.77,0.09,1.68,0.15,2.7,0.15C7.49,17.1,7.53,17.1,7.57,17.1z M18.26,8.05 c1.55-0.08,2.75-0.29,3.55-0.52c0.38-0.75,1.51-2.86,0.27-4c-0.65-0.59-1.83-0.87-2.89-1.01c0.94,1.79-0.2,4.11-0.62,4.95 l-0.03,0.08c-0.07,0.13-0.15,0.26-0.27,0.35C18.27,7.95,18.26,8.01,18.26,8.05z M15.59,21.22L15.59,21.22L16,21.7 c0.14,0.19,0.36,0.29,0.62,0.29h0.59c0.24,0,0.49-0.1,0.64-0.29l0.41-0.48c0.02-0.02,0.05-0.06,0.08-0.08l0.38-0.35 c0.14-0.12,0.22-0.29,0.24-0.47l0.42-2.54c-0.85,0.08-1.79,0.12-2.46,0.12c-0.19,0-0.38-0.01-0.59-0.01l-0.33,0.38L16,18.29 c0.02,0.12,0.02,0.24,0,0.36L15.59,21.22z M16.92,17.12c1.02,0,1.93-0.06,2.7-0.15l0.36-0.42c0.14-0.16,0.21-0.36,0.21-0.58 c-0.03-0.9,0.16-4.04,1.27-7.5c-1.06,0.23-2.29,0.36-3.36,0.42c-1.09,3.69-1.22,6.81-1.19,7.47c0,0.27-0.05,0.51-0.12,0.73 C16.84,17.1,16.87,17.1,16.92,17.12z"/></svg>