<svg viewBox="0 0 24 24" fill="#44739e" xmlns="http://www.w3.org/2000/svg"><title>hue:bulb-group-filament-candles-hung</title><desc>Source: https://github.com/arallsopp/hass-hue-icons</desc><path d="M6.67,13.25c0,0,0,0.08,0.08,0.08l2.54,0.82c-0.1-0.53-0.17-1.04-0.22-1.52l-2.31,0.54 C6.76,13.16,6.67,13.16,6.67,13.25z M10.19,5.65L9.86,3.78c0-0.08-0.08-0.24-0.16-0.33L9.37,3.2C9.29,3.12,9.29,3.12,9.29,3.12L8.96,2.8 C8.88,2.63,8.63,2.55,8.47,2.55H7.98c-0.16,0-0.41,0.08-0.49,0.24L7.16,3.12C7.08,3.2,7.08,3.2,7.08,3.2L6.76,3.45 C6.67,3.53,6.59,3.61,6.59,3.78L6.27,5.65c0.65-0.08,1.55-0.08,2.04-0.08C8.8,5.57,9.53,5.57,10.19,5.65z M9.65,15.86c-0.06,0.03-0.13,0.06-0.2,0.08L7,16.51c-0.16,0.08-0.33,0.16-0.33,0.24 c0,0.08,0.16,0.16,0.33,0.24l2.45,0.73c0.08,0,0.24,0,0.24,0.16s0,0.24,0,0.33c-0.08,0.16-0.24,0.33-0.49,0.24l-2.45-0.73 c-0.49-0.16-0.82-0.57-0.82-1.06c0.08-0.49,0.49-0.9,0.9-1.06l0.82-0.16l1.63-0.33c0,0,0.08,0,0.08-0.08c0,0,0-0.08-0.08-0.08 l-2.78-0.9c-0.41-0.16-0.65-0.49-0.65-0.9c0.08-0.41,0.33-0.73,0.73-0.82l2.39-0.48v-0.52l-1.58-0.47 c-1.31,0.08-2.37,0.24-3.02,0.41c0.24,3.92,2.37,9.39,3.76,9.39c0.66,0,1.44-1.09,2.11-2.65C10.03,17.31,9.82,16.59,9.65,15.86z M9.01,10.16c0.08-1.44,0.4-2.68,0.94-3.68C9.43,6.43,8.83,6.39,8.14,6.39c-0.98,0-1.8,0.08-2.45,0.16 c-0.73,0.73-1.31,2.04-1.31,3.92v0.08c1.14-0.33,2.69-0.41,3.76-0.41C8.41,10.14,8.7,10.15,9.01,10.16z M19.19,10.82v-0.1c0-2.3-0.7-3.9-1.6-4.8c-0.8-0.1-1.8-0.2-3-0.2s-2.2,0.1-3,0.2c-0.9,0.9-1.6,2.5-1.6,4.8v0.1 c1.4-0.4,3.3-0.5,4.6-0.5S17.79,10.42,19.19,10.82z M14.79,4.72c0.6,0,1.5,0,2.3,0.1l-0.4-2.3c0-0.1-0.1-0.3-0.2-0.4l-0.4-0.3 c-0.1-0.1-0.1-0.1-0.1-0.1l-0.4-0.4c-0.1-0.2-0.4-0.3-0.6-0.3h-0.6c-0.2,0-0.5,0.1-0.6,0.3l-0.4,0.4c-0.1,0.1-0.1,0.1-0.1,0.1 l-0.4,0.3c-0.1,0.1-0.2,0.2-0.2,0.4l-0.4,2.3C13.09,4.72,14.19,4.72,14.79,4.72z M13.69,11.22c-1.6,0.1-2.9,0.3-3.7,0.5 c0.3,4.8,2.9,11.5,4.6,11.5c1.8,0,4.3-6.6,4.6-11.4c-0.6-0.2-1.4-0.3-2.5-0.4c0.2,0.2,0.3,0.5,0.3,0.8c0,0.5-0.5,1-1.1,1.1l-3,0.7 c0,0-0.1,0-0.1,0.1c0,0,0,0.1,0.1,0.1l3.4,1.1c0.4,0.2,0.7,0.6,0.7,1.1c0,0.5-0.3,0.9-0.8,1l-3,0.7c-0.2,0.1-0.4,0.2-0.4,0.3 s0.2,0.2,0.4,0.3l3,0.9c0.1,0,0.3,0,0.3,0.2s0,0.3,0,0.4c-0.1,0.2-0.3,0.4-0.6,0.3l-3-0.9c-0.6-0.2-1-0.7-1-1.3 c0.1-0.6,0.6-1.1,1.1-1.3l1-0.2l2-0.4c0,0,0.1,0,0.1-0.1c0,0,0-0.1-0.1-0.1l-3.4-1.1c-0.5-0.2-0.8-0.6-0.8-1.1 c0.1-0.5,0.4-0.9,0.9-1l3-0.6c0.2-0.1,0.4-0.2,0.4-0.3s-0.2-0.2-0.4-0.3L13.69,11.22z"/></svg>