<svg viewBox="0 0 24 24" height="24px" width="24px" fill="#44739e" xmlns="http://www.w3.org/2000/svg"><title>hue:bulb-group-filament-go</title><desc>Source: https://github.com/arallsopp/hass-hue-icons</desc><path d="M10.59,15.98c0.01,0.2,0.05,0.39,0.12,0.57c0.11,0.32,0.01,0.69-0.26,0.9l-0.32,1.98 c-0.02,0.16-0.1,0.31-0.23,0.42l-0.35,0.32l-0.07,0.07L9.1,20.67c-0.15,0.17-0.36,0.27-0.59,0.27H7.95c-0.23,0-0.44-0.1-0.59-0.27 l-0.37-0.43l-0.07-0.07l-0.35-0.32c-0.13-0.11-0.21-0.26-0.23-0.42l-0.32-2c-0.27-0.21-0.38-0.57-0.26-0.9 c0.07-0.18,0.11-0.38,0.12-0.57c0.84,0.09,1.69,0.14,2.54,0.14C9.08,16.1,9.83,16.05,10.59,15.98z M14.27,9.02 c0,1.04-0.27,2.07-0.8,2.97l-0.08,0.13c-0.08,0.12-0.15,0.24-0.23,0.35c-1.03,1.47-1.86,1.79-2.38,2.74 C10,15.3,9.21,15.34,8.43,15.34c-0.92,0-1.84-0.05-2.75-0.16c-0.51-0.92-1.34-1.26-2.36-2.71c-0.08-0.11-0.16-0.23-0.23-0.35 l-0.08-0.13C1.73,9.83,1.97,7.11,3.6,5.19c1.63-1.92,4.31-2.63,6.7-1.77C12.69,4.28,14.28,6.52,14.27,9.02L14.27,9.02z M9.74,9.44 c0.38-0.11,0.63-0.44,0.63-0.83c0-0.38-0.26-0.72-0.63-0.83L7.4,7.15C7.19,7.1,7.08,6.99,7.08,6.92c0-0.07,0.11-0.18,0.31-0.24 l2.43-0.59C9.91,6.06,10,6,10.05,5.92c0.05-0.08,0.07-0.19,0.04-0.28c-0.05-0.2-0.25-0.32-0.45-0.28L7.2,5.96 C6.72,6.04,6.36,6.44,6.32,6.92C6.35,7.4,6.72,7.79,7.2,7.88l2.33,0.64c0.05,0.01,0.09,0.06,0.09,0.12c0,0.05-0.04,0.1-0.09,0.11 l-2.8,0.74c-0.38,0.1-0.65,0.44-0.64,0.83c0,0.39,0.26,0.73,0.64,0.83l2.34,0.59c0.21,0.05,0.32,0.16,0.32,0.24 c0,0.07-0.11,0.18-0.31,0.24l-2.36,0.54c-0.21,0.02-0.36,0.21-0.34,0.41c0.02,0.21,0.21,0.35,0.42,0.33h0.09l2.37-0.54 c0.48-0.09,0.84-0.48,0.88-0.96c-0.04-0.47-0.39-0.86-0.87-0.95l-2.33-0.63c-0.06-0.01-0.1-0.06-0.09-0.11 c0-0.05,0.04-0.1,0.09-0.11L9.74,9.44z M20.95,13.1c-1.32-2.16-3.87-4.84-6.18-6.59c0.18,0.45,0.32,0.91,0.4,1.39c1.87,1.63,3.85,3.75,5,5.4 c1.54,2.22,0.94,2.71-1.29,1.13c-1.19-0.84-2.6-2.1-3.91-3.43c-0.16,0.52-0.36,1.03-0.64,1.51l-0.01,0.02l-0.01,0.02l-0.08,0.11 c-0.09,0.14-0.18,0.28-0.26,0.38c-0.58,0.83-1.11,1.33-1.53,1.74c-0.35,0.34-0.61,0.58-0.79,0.91l-0.08,0.14l0.01,0.1 c0,0.09,0.02,0.18,0.07,0.29c0.21,0.58,0.1,1.22-0.27,1.7l-0.08,0.5h3.87c0.06,0,0.11-0.01,0.16-0.02 c0.11,0.01,0.21,0.02,0.32,0.02c2.33,0,4.69-1.16,6.07-2.83C21.96,15.18,21.71,14.33,20.95,13.1z"/></svg>