<svg viewBox="0 0 24 24" fill="#44739e" xmlns="http://www.w3.org/2000/svg"><title>hue:bulb-sultan-hung</title><desc>Source: https://github.com/arallsopp/hass-hue-icons</desc><path d="M7.27,19.95c-1.14-1.05-0.11-2.99,0.25-3.68C8.46,16,9.97,15.75,12,15.75c2.03,0,3.54,0.25,4.48,0.52 c0.35,0.69,1.39,2.62,0.25,3.68C15.5,21.07,12.21,21,12,21S8.5,21.07,7.27,19.95z M12,15c-1.14,0-2.81,0.11-4.15,0.41 C8.86,12.25,9.04,9.35,9,8.53C9,8.34,9.06,8.16,9.19,8.01l0.33-0.38C10.23,7.55,11.06,7.5,12,7.5s1.77,0.05,2.48,0.14l0.33,0.38 C14.94,8.16,15,8.34,15,8.53c-0.04,0.82,0.14,3.71,1.16,6.88C14.81,15.11,13.14,15,12,15z M14.25,6.85 C13.47,6.78,12.61,6.75,12,6.75c-0.61,0-1.47,0.03-2.25,0.11l0.38-2.33c0.02-0.16,0.1-0.32,0.23-0.43l0.35-0.32 c0.02-0.02,0.05-0.04,0.07-0.07l0.37-0.44C11.28,3.1,11.49,3,11.72,3h0.55c0.23,0,0.45,0.1,0.59,0.27l0.37,0.44 c0.02,0.02,0.04,0.05,0.07,0.07l0.35,0.32c0.12,0.11,0.2,0.27,0.22,0.43L14.25,6.85z"/></svg>