<svg viewBox="0 0 24 24" height="24px" width="24px" fill="#44739e" xmlns="http://www.w3.org/2000/svg"><title>hue:bulb-group-sultan-go</title><desc>Source: https://github.com/arallsopp/hass-hue-icons</desc><path d="M13.45,4.28c1.14,1.05,0.11,2.99-0.25,3.68c-0.94,0.28-2.45,0.52-4.48,0.52c-2.03,0-3.54-0.25-4.48-0.52 C3.89,7.27,2.85,5.34,3.99,4.28c1.22-1.12,4.52-1.05,4.73-1.05S12.22,3.16,13.45,4.28z M8.72,9.24c1.14,0,2.81-0.11,4.15-0.41 c-1.02,3.16-1.19,6.06-1.16,6.88c0.01,0.19-0.06,0.38-0.18,0.52L11.2,16.6c-0.71,0.09-1.54,0.14-2.48,0.14s-1.77-0.05-2.48-0.14 l-0.33-0.38c-0.12-0.14-0.19-0.33-0.18-0.52c0.04-0.82-0.14-3.71-1.16-6.88C5.91,9.13,7.58,9.24,8.72,9.24z M6.47,17.38 c0.78,0.08,1.64,0.11,2.25,0.11c0.61,0,1.47-0.03,2.25-0.11l-0.38,2.33c-0.02,0.16-0.1,0.32-0.23,0.43l-0.35,0.32 c-0.02,0.02-0.05,0.04-0.07,0.07l-0.37,0.44C9.44,21.14,9.23,21.24,9,21.24H8.45c-0.23,0-0.45-0.1-0.59-0.27l-0.37-0.44 c-0.02-0.02-0.04-0.05-0.07-0.07l-0.35-0.32c-0.12-0.11-0.2-0.27-0.22-0.43L6.47,17.38z M21.45,13.25c-1.4-2.29-4.16-5.15-6.57-6.89c-0.06,0.29-0.14,0.57-0.23,0.83c2.12,1.68,4.66,4.3,6.02,6.26 c1.54,2.22,0.94,2.71-1.29,1.13c-1.74-1.23-3.96-3.35-5.6-5.28c-0.97,3.1-1.08,5.8-1.06,6.37c0.02,0.44-0.13,0.88-0.43,1.22 l-0.27,0.3l-0.06,0.36l-0.17,1.03h3.87c0.06,0,0.11-0.01,0.16-0.02c0.11,0.01,0.21,0.02,0.32,0.02c2.33,0,4.69-1.16,6.07-2.83 C22.45,15.33,22.2,14.48,21.45,13.25z"/></svg>