<svg viewBox="0 0 24 24" fill="#44739e" xmlns="http://www.w3.org/2000/svg"><title>hue:bulb-group-filament-alt-hung-off</title><desc>Source: https://github.com/arallsopp/hass-hue-icons</desc><path d="M21.97,20.95L2.88,1.86L1.5,3.24l4.77,4.77c-0.1,0-0.17,0.01-0.18,0.01c-0.03,0-0.05,0-0.08,0.01l-2.44,9.31 c0,0-0.89,2.72,0.67,4.24c1.02,0.93,2.33,1.46,3.71,1.5c0.28,0.11,0.59,0.2,0.91,0.24c0.29-0.04,0.56-0.12,0.82-0.25 c1.27-0.01,2.49-0.49,3.44-1.34c1.72-1.46,0.97-4.2,0.97-4.2l-0.6-2.31l1.65,1.65c-0.1-0.06-0.18-0.13-0.25-0.22l0.16,0.63 c0.11,0.46,0.18,0.93,0.19,1.41c0.03-0.01,0.06-0.02,0.08-0.03l1.32-0.29l0.62,0.62l-1.72,0.37c-0.05,0.01-0.11,0.01-0.17,0 c-0.05-0.01-0.09-0.03-0.13-0.06c-0.03,0.53-0.14,1.05-0.32,1.55c0.52,0.22,1.08,0.35,1.65,0.37c0.23,0.1,0.47,0.16,0.71,0.19 c0.22-0.03,0.44-0.1,0.64-0.19c0.45,0,0.9-0.1,1.32-0.25l1.37,1.37L21.97,20.95z M7.43,12.51l3.38,0.75 c0.52,0.09,0.91,0.53,0.93,1.06c-0.02,0.53-0.41,0.97-0.93,1.05l-4.05,0.95c-0.07,0.01-0.13,0.07-0.13,0.14s0.05,0.14,0.13,0.15 l3.36,0.82c0.65,0.07,1.18,0.57,1.27,1.22c-0.09,0.65-0.61,1.15-1.27,1.22L6.6,20.63c-0.08,0.04-0.15,0.04-0.22,0.03 C6.18,20.63,6,20.5,5.94,20.3c-0.04-0.12-0.02-0.25,0.05-0.36c0.08-0.11,0.2-0.19,0.34-0.21l3.51-0.76c0.28-0.08,0.45-0.21,0.45-0.3 s-0.16-0.24-0.47-0.3l-3.38-0.81c-0.51-0.1-0.89-0.53-0.92-1.06c0.03-0.52,0.4-0.96,0.92-1.06l4.05-0.95 c0.07-0.01,0.13-0.07,0.13-0.14c0-0.08-0.06-0.14-0.13-0.14L7.12,13.4c-0.65-0.07-1.16-0.57-1.26-1.21 c0.09-0.65,0.61-1.15,1.27-1.22l1.74-0.35l0.83,0.83l-2.29,0.46c-0.28,0.08-0.45,0.21-0.45,0.3C6.96,12.3,7.12,12.45,7.43,12.51z M11.24,8.06c-0.13-0.01-0.37-0.02-0.65-0.03l1.36,1.36l-0.34-1.3C11.49,8.08,11.37,8.07,11.24,8.06z M14.85,8.91 c0.74-0.07,1.49-0.12,2.14-0.12c0.84,0,1.67,0.05,2.5,0.14c0.01-0.19,0.05-0.38,0.12-0.56c0.11-0.32,0.01-0.68-0.26-0.89l-0.32-1.97 c-0.02-0.16-0.1-0.31-0.22-0.42l-0.35-0.32L18.39,4.7l-0.36-0.43C17.88,4.1,17.67,4,17.45,4.01H16.9c-0.22,0-0.44,0.09-0.58,0.26 L15.95,4.7l-0.07,0.07L15.53,5.1c-0.12,0.11-0.2,0.25-0.22,0.42l-0.32,1.95c-0.27,0.21-0.37,0.57-0.26,0.89 C14.8,8.53,14.84,8.72,14.85,8.91z M18.62,14.49c0-0.06-0.04-0.11-0.1-0.11l-2.07-0.49l0.97,0.97l1.1-0.26 C18.58,14.59,18.62,14.55,18.62,14.49z M15.92,11.88l2.65-0.53h0.1c0.22-0.03,0.42,0.11,0.47,0.33c0.01,0.21-0.15,0.39-0.36,0.41 h-0.01l-2.63,0.54c-0.22,0.06-0.35,0.16-0.35,0.23s0.13,0.18,0.36,0.23l2.62,0.58c0.4,0.07,0.7,0.41,0.72,0.82 c-0.02,0.41-0.31,0.75-0.72,0.81l-0.74,0.17l3.32,3.32c0.2-0.94-0.04-1.85-0.04-1.85l-1.91-7.3c-0.11-0.01-0.21-0.01-0.3-0.02 c-0.29-0.02-1.26-0.07-1.89-0.08c-0.7-0.01-2.03,0.04-2.11,0.04h-0.06l-0.6,2.3l0.61,0.61C15.21,12.15,15.53,11.92,15.92,11.88z M11.75,7.18c0.01-0.25,0.06-0.5,0.15-0.73c0.15-0.41,0.01-0.88-0.34-1.15l-0.41-2.55c-0.03-0.21-0.13-0.4-0.29-0.54L10.42,1.8 l-0.09-0.09L9.86,1.17C9.67,0.95,9.4,0.82,9.11,0.83H8.4c-0.29,0-0.56,0.12-0.75,0.34L7.17,1.72L7.09,1.8L6.63,2.21 C6.47,2.35,6.37,2.54,6.34,2.75L6.2,3.64l3.39,3.39C10.31,7.06,11.03,7.1,11.75,7.18z"/></svg>