<svg viewBox="0 0 24 24" fill="#44739e" xmlns="http://www.w3.org/2000/svg"><title>hue:bulb-filament-a19-off</title><desc>Source: https://github.com/arallsopp/hass-hue-icons</desc><path d="M21.97,20.95L2.88,1.86L1.5,3.24L6.35,8.1c0.2,1.06,0.76,1.8,1.26,2.55c0,0,1.04,1.08,1.04,2.99 c0,1.5,0.17,1.62,0.17,1.62s1,0.37,3.33,0.37c0.68,0,1.22-0.03,1.66-0.08l0.88,0.88c-0.61,0.09-1.64,0.22-2.63,0.22 c-1.56,0-3.33-0.32-3.33-0.32l0.04,0.91l0.42,0.67l0.33,0.21l0.04,3.12c0,0-0.1,0.5,0.81,0.75l0.6,0.69c0,0,0.47,0.16,1.03,0.16 s1.02-0.16,1.02-0.16l0.6-0.69c0.91-0.25,0.81-0.75,0.81-0.75l0.04-3.12l0.33-0.21l0.42-0.67l0.01-0.27l5.35,5.35L21.97,20.95z M10.3,6.21l2.94-0.79c0.27-0.07,0.41-0.21,0.41-0.3c0-0.09-0.14-0.22-0.39-0.3L10.2,4.07 c-0.12-0.03-0.23-0.1-0.29-0.21S9.83,3.63,9.86,3.51c0.07-0.25,0.32-0.4,0.57-0.35l3.07,0.75c0.6,0.11,1.06,0.6,1.1,1.21 c-0.04,0.6-0.5,1.1-1.1,1.21l-2.92,0.8c-0.07,0.02-0.12,0.08-0.11,0.15c0,0.07,0.05,0.13,0.11,0.14l3.52,0.93 c0.48,0.12,0.81,0.55,0.81,1.04s-0.33,0.92-0.81,1.05l-0.86,0.24l2.24,2.24c0.21-1.46,0.99-2.27,0.99-2.27 c0.79-1.2,1.78-2.33,1.16-4.82c-1.33-4.9-5.59-4.74-5.59-4.74S8.66,0.97,6.98,4.42l2.56,2.56C9.64,6.62,9.92,6.32,10.3,6.21z M13.94,9.37c0-0.07-0.05-0.13-0.11-0.14l-2.78-0.74l1.39,1.39l1.39-0.37C13.9,9.5,13.95,9.44,13.94,9.37z"/></svg>