<svg viewBox="0 0 24 24" height="24px" width="24px" fill="#44739e" xmlns="http://www.w3.org/2000/svg"><title>hue:bulb-group-classic-hung-4</title><desc>Source: https://github.com/arallsopp/hass-hue-icons</desc><path d="M14.4,10.4c0.1-0.6,0.2-1.5,0.1-2.1c0-0.4,0.3-0.8,0.7-0.8c0.6-0.1,1.4-0.1,2.2-0.1s1.6,0,2.2,0.1 c0.4,0,0.7,0.4,0.7,0.8c-0.1,0.6,0,1.5,0.1,2.1c0.2,1.4,1.2,2.1,1.8,3.6c-1.4-0.4-3.5-0.6-4.8-0.6S14,13.6,12.6,14 C13.2,12.5,14.2,11.8,14.4,10.4z M15.5,4.4c0-0.2,0.1-0.3,0.2-0.4l0.3-0.3c0,0,0.1,0,0.1-0.1l0.4-0.4c0.1-0.2,0.4-0.3,0.6-0.3h0.6 c0.2,0,0.4,0.1,0.6,0.3l0.4,0.4c0,0,0.1,0,0.1,0.1L19.1,4c0.1,0.1,0.2,0.3,0.2,0.4l0.4,2.3c-0.8-0.1-1.6-0.1-2.2-0.1s-1.5,0-2.2,0.1 L15.5,4.4z M12.2,16c0-0.2,0-0.4,0.1-0.6c0-0.2,0.1-0.3,0.1-0.5c0.8-0.4,2.6-0.8,5.1-0.8s4.3,0.4,5.1,0.7c0,0.2,0.1,0.3,0.1,0.5 c0,0.2,0.1,0.4,0.1,0.6c0,2.4-2.4,4.9-5.2,4.9S12.2,18.4,12.2,16z M5.8,7.4L5.6,6.2c0-0.1-0.1-0.2-0.1-0.3L5.3,5.7c0,0,0,0,0,0 L5,5.4C4.9,5.3,4.8,5.3,4.6,5.3H4.3C4.1,5.3,4,5.3,3.9,5.4L3.7,5.7c0,0,0,0,0,0L3.4,5.9C3.3,6,3.3,6.1,3.3,6.2L3,7.7 c0.5,0,1-0.1,1.4-0.1c0.3,0,0.7,0,1.1,0C5.6,7.6,5.7,7.5,5.8,7.4z M1.1,13.6c0,1.4,1.3,2.9,3,3.1c-0.5-0.7-0.7-1.5-0.7-2.2 c0-0.2,0-0.3,0-0.4c0,0,0-0.1,0-0.1c0,0,0,0,0,0c0-0.1,0-0.1,0-0.2c0,0,0,0,0,0c0,0,0-0.1,0-0.2v0l0,0c0.1-0.3,0.2-0.7,0.2-0.8 c0-0.1,0.1-0.1,0.1-0.2c-1.3,0.1-2.2,0.3-2.6,0.4c0,0.1,0,0.2-0.1,0.3C1.1,13.4,1.1,13.5,1.1,13.6z M5.3,8.2c-0.2,0-0.5,0-0.8,0 c-0.5,0-1,0-1.4,0.1c-0.2,0-0.5,0.2-0.4,0.5c0,0.4,0,0.9-0.1,1.3c-0.1,0.9-0.8,1.3-1.2,2.3C2.2,12.1,3.3,12,4.1,12 c0.1-0.2,0.3-0.5,0.4-0.7c0.3-0.4,0.5-0.7,0.6-1.2c0.1-0.4,0.1-1,0.1-1.4C5.1,8.5,5.2,8.3,5.3,8.2z M14.2,6.9L14,5.2 c0-0.1-0.1-0.3-0.2-0.4l-0.3-0.3c0,0,0,0-0.1-0.1l-0.3-0.4C13,4,12.8,3.9,12.6,3.9h-0.5c-0.2,0-0.4,0.1-0.5,0.2l-0.3,0.4 c0,0,0,0-0.1,0.1l-0.3,0.3c-0.1,0.1-0.2,0.2-0.2,0.4l-0.3,2c0.7-0.1,1.4-0.1,1.9-0.1c0.4,0,1,0,1.6,0.1c0,0,0,0,0-0.1 C14,7,14.1,6.9,14.2,6.9z M7.8,15.2c0,2,2,4.2,4.5,4.2c0,0,0,0,0.1,0c-0.8-1-1.2-2.2-1.2-3.3c0-0.2,0-0.4,0.1-0.5c0-0.1,0-0.1,0-0.2 c0,0,0,0,0-0.1c0-0.1,0-0.2,0.1-0.3c0,0,0,0,0,0c0,0,0-0.2,0.1-0.3v0l0,0c0.1-0.4,0.3-0.9,0.3-1c0,0,0,0,0-0.1 c-1.8,0.1-3.1,0.4-3.7,0.6c0,0.2-0.1,0.3-0.1,0.5C7.9,14.9,7.8,15,7.8,15.2z M10.5,7.9c-0.3,0-0.6,0.3-0.6,0.7 c0.1,0.6,0,1.3-0.1,1.8c-0.2,1.2-1.1,1.8-1.6,3.1c1.1-0.4,2.6-0.5,3.8-0.5c0.2-0.4,0.5-0.8,0.7-1.1c0.4-0.6,0.7-1,0.8-1.6 c0.1-0.6,0.2-1.3,0.1-1.8c0-0.2,0-0.4,0.1-0.6c-0.4,0-0.8,0-1.3,0C11.6,7.8,11,7.8,10.5,7.9z M4.1,14.4c0,1.8,1.8,3.7,3.9,3.7l0,0 c-0.3-0.4-0.6-0.9-0.8-1.4c0,0,0,0,0-0.1c-0.1-0.2-0.1-0.5-0.2-0.7c0,0,0-0.1,0-0.1C7,15.7,7,15.4,7,15.2c0-0.2,0-0.3,0-0.5 c0-0.1,0-0.1,0-0.1c0,0,0,0,0-0.1c0-0.1,0-0.2,0-0.2c0,0,0,0,0,0c0,0,0-0.1,0-0.3v0l0,0c0.1-0.3,0.2-0.8,0.3-0.9c0,0,0-0.1,0-0.1 c-1.6,0.1-2.7,0.3-3.2,0.6c0,0.1-0.1,0.3-0.1,0.4C4.2,14.1,4.1,14.3,4.1,14.4z M9.1,8c-0.3,0-0.7,0-1,0C7.5,8,6.9,8,6.4,8 c-0.3,0-0.5,0.3-0.5,0.6c0,0.5,0,1.1-0.1,1.6c-0.2,1.1-0.9,1.6-1.4,2.7c1-0.3,2.3-0.4,3.3-0.4c0.2-0.3,0.4-0.6,0.6-0.9 c0.3-0.5,0.6-0.9,0.6-1.4C9,9.7,9.1,9.1,9,8.6C9,8.4,9,8.2,9.1,8z M9.7,7.2L9.5,5.7c0-0.1-0.1-0.2-0.2-0.3L9,5.2c0,0,0,0-0.1-0.1 L8.7,4.8C8.6,4.7,8.4,4.6,8.3,4.6H7.9c-0.2,0-0.3,0.1-0.4,0.2L7.1,5.1c0,0,0,0,0,0.1L6.8,5.4C6.7,5.5,6.7,5.6,6.7,5.7L6.4,7.5 C7,7.4,7.6,7.4,8.1,7.4c0.4,0,0.9,0,1.4,0.1C9.5,7.4,9.6,7.3,9.7,7.2z"/></svg>