<svg viewBox="0 0 24 24" fill="#44739e" xmlns="http://www.w3.org/2000/svg"><title>hue:bulb-group-filament-alt-off</title><desc>Source: https://github.com/arallsopp/hass-hue-icons</desc><path d="M21.97,20.95L2.88,1.86L1.5,3.24l1.4,1.4C2.28,5.78,2.66,7.22,2.66,7.22l1.91,7.3 c0.09,0.01,0.19,0.01,0.28,0.02c0.29,0.02,1.26,0.07,1.89,0.08c0.7,0.01,2.03-0.04,2.11-0.04h0.06l0.81-3.1l1.91,1.91l0.7,2.69 c0.12,0.01,0.24,0.02,0.37,0.03c0.28,0.01,1.03,0.06,1.73,0.08l0.98,0.98c-1.08,0-2.15-0.06-3.22-0.18 c-0.01,0.25-0.06,0.5-0.15,0.73c-0.15,0.41-0.01,0.88,0.34,1.15l0.41,2.55c0.03,0.21,0.13,0.4,0.29,0.54l0.45,0.41l0.09,0.09 L14.09,23c0.19,0.22,0.46,0.34,0.75,0.34h0.71c0.29,0,0.56-0.12,0.75-0.34l0.47-0.55l0.09-0.09l0.45-0.41 c0.16-0.14,0.26-0.33,0.29-0.54l0.29-1.77l2.69,2.69L21.97,20.95z M5.46,7.21C5.16,7.1,4.93,6.87,4.82,6.57L5.46,7.21z M5.44,9.78 l2.61,0.62c0.5,0.06,0.9,0.44,0.97,0.94c-0.07,0.5-0.47,0.89-0.98,0.94l-2.65,0.53h-0.1c-0.22,0.03-0.42-0.11-0.47-0.33 c-0.01-0.21,0.15-0.39,0.36-0.41h0.01l2.63-0.54c0.22-0.06,0.35-0.16,0.35-0.23s-0.13-0.18-0.36-0.23l-2.62-0.58 c-0.4-0.07-0.7-0.41-0.72-0.82c0.02-0.41,0.31-0.75,0.72-0.81l1.57-0.37l0.6,0.6L5.44,9.56c-0.06,0.01-0.1,0.05-0.1,0.11 S5.38,9.78,5.44,9.78z M10.11,7.55l2.14,2.14c0.08-0.46,0.42-0.84,0.9-0.92l4.05-0.95c0.07-0.01,0.13-0.07,0.13-0.14 c0-0.07-0.05-0.14-0.13-0.15l-3.36-0.82c-0.65-0.07-1.18-0.57-1.27-1.22c0.09-0.65,0.61-1.15,1.27-1.22l3.52-0.76 c0.07-0.01,0.14-0.01,0.21,0l0,0c0.2,0.02,0.37,0.16,0.44,0.35c0.04,0.12,0.02,0.25-0.05,0.36c-0.08,0.11-0.2,0.19-0.34,0.21 l-3.51,0.76c-0.28,0.08-0.45,0.21-0.45,0.3s0.16,0.24,0.47,0.3l3.38,0.81c0.51,0.1,0.89,0.53,0.92,1.06 c-0.03,0.52-0.4,0.96-0.92,1.06l-4.05,0.95c-0.07,0.01-0.13,0.07-0.13,0.14c0,0.08,0.06,0.14,0.13,0.14l3.37,0.81 c0.65,0.07,1.16,0.57,1.26,1.21c-0.09,0.65-0.61,1.15-1.27,1.22l-0.9,0.18l2.18,2.18l2.28-8.72c0,0,0.89-2.72-0.67-4.24 c-1.02-0.93-2.33-1.46-3.71-1.5c-0.29-0.13-0.6-0.21-0.92-0.25l0,0c-0.29,0.04-0.56,0.12-0.82,0.25c-1.26,0.02-2.48,0.5-3.42,1.35 c-1.72,1.46-0.97,4.2-0.97,4.2L10.11,7.55z M17,11.93c0-0.09-0.16-0.24-0.47-0.3l-3-0.66l1.57,1.57l1.46-0.3 C16.84,12.16,17,12.03,17,11.93z M8.65,5.52l-0.47,0.1L8.8,6.24c-0.03-0.25-0.06-0.5-0.06-0.76C8.71,5.5,8.68,5.51,8.65,5.52z M8.45,4.81c0.05-0.01,0.11-0.01,0.17,0l0,0c0.04,0,0.08,0.02,0.12,0.05c0.03-0.53,0.14-1.05,0.32-1.55 C8.54,3.09,7.98,2.96,7.41,2.94C7.19,2.84,6.95,2.78,6.7,2.75c-0.22,0.03-0.44,0.1-0.64,0.19c-0.17,0-0.34,0.03-0.51,0.05l2,2 L8.45,4.81z M9.1,15.25c-0.74,0.07-1.49,0.12-2.14,0.12c-0.84,0-1.67-0.05-2.5-0.14c-0.01,0.19-0.05,0.38-0.12,0.56 c-0.11,0.32-0.01,0.68,0.26,0.89l0.32,1.97c0.02,0.16,0.1,0.31,0.22,0.42l0.35,0.32l0.07,0.07l0.36,0.43 c0.15,0.17,0.36,0.27,0.58,0.26h0.55c0.22,0,0.44-0.09,0.58-0.26L8,19.45l0.07-0.07l0.35-0.32c0.12-0.11,0.2-0.25,0.22-0.42 l0.32-1.95c0.27-0.21,0.37-0.57,0.26-0.89C9.15,15.63,9.11,15.44,9.1,15.25z"/></svg>