<svg viewBox="0 0 24 24" height="24px" width="24px" fill="#44739e" xmlns="http://www.w3.org/2000/svg"><title>hue:bulb-group-spot</title><desc>Source: https://github.com/arallsopp/hass-hue-icons</desc><path d="M15.92725,19.5a.75.75,0,0,0,1.5,0V17.94531a3.79343,3.79343,0,0,1-1.5.39844Z M12.92725,19.5a.75.75,0,0,0,1.5,0V18.34375a3.79333,3.79333,0,0,1-1.5-.39844Z M15.17725,3.75c-3.26172,0-5.99225.68359-6.61329,1.58984a.70066.70066,0,0,0-.13671.39844c0,1.09766,3.02343,1.99219,6.75,1.99219,3.7265,0,6.75-.89453,6.75-1.99219S18.90375,3.75,15.17725,3.75Z M9.33734,7.56641a7.07823,7.07823,0,0,0,2.67194,4.71875c.15234.14062.168.375.168.84375v2.76562a1.4643,1.4643,0,0,0,.34765.97266,3.49813,3.49813,0,0,0,2.65235.75,3.48688,3.48688,0,0,0,2.64843-.75,1.448,1.448,0,0,0,.35157-.97266V13.12891c0-.46875.01562-.70313.168-.84375a7.07784,7.07784,0,0,0,2.67188-4.71875,16.87487,16.87487,0,0,1-5.83984.91406A16.8608,16.8608,0,0,1,9.33734,7.56641Z M4.94739,18.05188a.546.546,0,0,0,1.092,0v-.8418a2.76132,2.76132,0,0,1-1.092-.29Z M6.58539,10.02954a12.27374,12.27374,0,0,1-4.25147-.66547,5.15282,5.15282,0,0,0,1.94519,3.43531c.1109.10241.12226.273.12226.61426v2.01342a1.06577,1.06577,0,0,0,.25311.70807,2.54655,2.54655,0,0,0,1.93091.546,2.53841,2.53841,0,0,0,1.9281-.546,1.05407,1.05407,0,0,0,.25592-.70807V13.41364c0-.34125.01141-.51185.12231-.61426a4.35055,4.35055,0,0,0,1.089-1.14643A7.80564,7.80564,0,0,1,8.97131,9.8476,16.12364,16.12364,0,0,1,6.58539,10.02954Z M8.74713,9.32922a10.77261,10.77261,0,0,1-.39557-1.59338L8.265,7.23309a2.41654,2.41654,0,0,1-.56433-.6065c-.35968-.02472-.7301-.04084-1.11523-.04084-2.37451,0-4.36237.49762-4.81452,1.15741a.50978.50978,0,0,0-.09954.29c0,.79914,2.20111,1.45032,4.91406,1.45032A15.01858,15.01858,0,0,0,8.74713,9.32922Z M7.13141,18.05188a.546.546,0,0,0,1.092,0V16.92a2.76142,2.76142,0,0,1-1.092.29Z"/></svg>