<svg viewBox="0 0 24 24" height="24px" width="24px" fill="#44739e" xmlns="http://www.w3.org/2000/svg"><title>hue:bulb-group-filament-alt-hung</title><desc>Source: https://github.com/arallsopp/hass-hue-icons</desc><path d="M8.85,23.32c0.29-0.04,0.56-0.12,0.82-0.25c1.27-0.01,2.49-0.49,3.44-1.34c1.72-1.46,0.97-4.2,0.97-4.2 l-2.47-9.44c-0.12-0.01-0.24-0.02-0.37-0.03c-0.38-0.02-1.63-0.09-2.44-0.1C7.89,7.95,6.18,8.01,6.08,8.02c-0.03,0-0.05,0-0.08,0.01 l-2.44,9.31c0,0-0.89,2.72,0.67,4.24c1.02,0.93,2.33,1.46,3.71,1.5C8.22,23.19,8.53,23.28,8.85,23.32L8.85,23.32z M6.38,20.66 C6.18,20.63,6,20.5,5.94,20.3c-0.04-0.12-0.02-0.25,0.05-0.36c0.08-0.11,0.2-0.19,0.34-0.21l3.51-0.76c0.28-0.08,0.45-0.21,0.45-0.3 c0-0.09-0.16-0.24-0.47-0.3l-3.38-0.81c-0.51-0.1-0.89-0.53-0.92-1.06c0.03-0.52,0.4-0.96,0.92-1.06l4.05-0.95 c0.07-0.01,0.13-0.07,0.13-0.14c0-0.08-0.06-0.14-0.13-0.14l-3.37-0.81c-0.65-0.07-1.16-0.57-1.26-1.21 c0.09-0.65,0.61-1.15,1.27-1.22l3.43-0.69h0.13c0.28-0.04,0.55,0.14,0.61,0.42c0.02,0.27-0.19,0.51-0.47,0.52c-0.01,0-0.01,0-0.02,0 l-3.4,0.69c-0.28,0.08-0.45,0.21-0.45,0.3s0.16,0.24,0.47,0.3l3.38,0.75c0.52,0.09,0.91,0.53,0.93,1.06 c-0.02,0.53-0.41,0.97-0.93,1.05l-4.05,0.95c-0.07,0.01-0.13,0.07-0.13,0.14c0,0.07,0.05,0.14,0.13,0.15l3.36,0.82 c0.65,0.07,1.18,0.57,1.27,1.22c-0.09,0.65-0.61,1.15-1.27,1.22l-3.52,0.76C6.52,20.67,6.45,20.67,6.38,20.66L6.38,20.66z  M11.75,7.18c0.01-0.25,0.06-0.5,0.15-0.73c0.15-0.41,0.01-0.88-0.34-1.15l-0.41-2.55c-0.03-0.21-0.13-0.4-0.29-0.54L10.42,1.8 l-0.09-0.09L9.86,1.17C9.67,0.95,9.4,0.82,9.11,0.83H8.4c-0.29,0-0.56,0.12-0.75,0.34L7.17,1.72L7.09,1.8L6.63,2.21 C6.47,2.35,6.37,2.54,6.34,2.75L5.93,5.27C5.58,5.54,5.45,6,5.59,6.42C5.68,6.65,5.73,6.9,5.75,7.15C6.71,7.05,7.67,7,8.52,7 C9.6,7,10.68,7.06,11.75,7.18L11.75,7.18z M18.02,18.06c0.22-0.06,0.34-0.16,0.34-0.23s-0.13-0.18-0.36-0.23l-2.61-0.62 c-0.21-0.05-0.39-0.16-0.52-0.33l0.16,0.63c0.11,0.46,0.18,0.93,0.19,1.41c0.03-0.01,0.06-0.02,0.08-0.03L18.02,18.06z M19.1,9.62 c-0.29-0.02-1.26-0.07-1.89-0.08c-0.7-0.01-2.03,0.04-2.11,0.04l-0.06,0l-1.01,3.87l0.67,2.57c0.07-0.35,0.34-0.62,0.69-0.69 l3.13-0.73c0.06-0.01,0.1-0.05,0.1-0.11c0-0.06-0.04-0.11-0.1-0.11l-2.61-0.62c-0.5-0.06-0.9-0.44-0.97-0.94 c0.07-0.5,0.47-0.89,0.98-0.94l2.65-0.53h0.1c0.22-0.03,0.42,0.11,0.47,0.33c0.01,0.21-0.15,0.39-0.36,0.41c0,0-0.01,0-0.01,0 l-2.63,0.54c-0.22,0.06-0.35,0.16-0.35,0.23c0,0.07,0.13,0.18,0.36,0.23l2.62,0.58c0.4,0.07,0.7,0.41,0.72,0.82 c-0.02,0.41-0.31,0.75-0.72,0.81l-3.13,0.73c-0.06,0.01-0.1,0.05-0.1,0.11c0,0.06,0.04,0.11,0.1,0.12l2.6,0.63 c0.51,0.05,0.91,0.44,0.98,0.94c-0.07,0.5-0.47,0.89-0.98,0.95l-2.72,0.58c-0.05,0.01-0.11,0.01-0.17,0v0 c-0.05-0.01-0.09-0.03-0.13-0.06c-0.03,0.53-0.14,1.05-0.32,1.55c0.52,0.22,1.08,0.35,1.65,0.37c0.23,0.1,0.47,0.16,0.71,0.19 c0.22-0.03,0.44-0.1,0.64-0.19c0.98-0.01,1.93-0.38,2.66-1.04c1.33-1.13,0.75-3.24,0.75-3.24l-1.91-7.3 C19.29,9.63,19.19,9.63,19.1,9.62z M14.85,8.91c0.74-0.07,1.49-0.12,2.14-0.12c0.84,0,1.67,0.05,2.5,0.14 c0.01-0.19,0.05-0.38,0.12-0.56c0.11-0.32,0.01-0.68-0.26-0.89l-0.32-1.97c-0.02-0.16-0.1-0.31-0.22-0.42l-0.35-0.32l-0.07-0.07 l-0.36-0.43c-0.15-0.17-0.36-0.27-0.58-0.26H16.9c-0.22,0-0.44,0.09-0.58,0.26l-0.37,0.43l-0.07,0.07L15.53,5.1 c-0.12,0.11-0.2,0.25-0.22,0.42l-0.32,1.95c-0.27,0.21-0.37,0.57-0.26,0.89C14.8,8.53,14.84,8.72,14.85,8.91z"/></svg>