<svg viewBox="0 0 24 24" height="24px" width="24px" fill="#44739e" xmlns="http://www.w3.org/2000/svg"><title>hue:bulb-filament-a19</title><desc>Source: https://github.com/arallsopp/hass-hue-icons</desc><path d="M13.02,22.69l0.6-0.69c0.91-0.25,0.81-0.75,0.81-0.75l0.04-3.12l0.33-0.21l0.42-0.67l0.04-0.91 c0,0-1.64,0.32-3.2,0.32s-3.33-0.32-3.33-0.32l0.04,0.91l0.42,0.67l0.33,0.21l0.04,3.12c0,0-0.1,0.5,0.81,0.75l0.6,0.69 c0,0,0.47,0.16,1.03,0.16C12.56,22.85,13.02,22.69,13.02,22.69z M17.63,5.83c-1.33-4.9-5.59-4.74-5.59-4.74S7.78,0.93,6.45,5.83c-0.62,2.49,0.37,3.62,1.16,4.82 c0,0,1.04,1.08,1.04,2.99c0,1.5,0.17,1.62,0.17,1.62s1,0.37,3.33,0.37c2.33,0,3.11-0.37,3.11-0.37s0.17-0.23,0.17-1.62 c0-1.91,1.04-2.99,1.04-2.99C17.26,9.45,18.25,8.32,17.63,5.83z M13.94,10.19L11,10.93c-0.27,0.07-0.41,0.21-0.41,0.3 c0,0.09,0.14,0.22,0.39,0.3l2.96,0.68c0.26,0.03,0.45,0.26,0.42,0.52c-0.03,0.26-0.26,0.44-0.53,0.42h-0.11l-2.98-0.68 c-0.6-0.11-1.06-0.6-1.1-1.21c0.05-0.6,0.5-1.08,1.09-1.2l2.93-0.79c0.07-0.01,0.12-0.07,0.11-0.14c0-0.07-0.05-0.13-0.11-0.14 l-3.52-0.95C9.67,7.91,9.34,7.48,9.34,7c0-0.48,0.33-0.91,0.8-1.04l2.94-0.79c0.27-0.07,0.41-0.21,0.41-0.3 c0-0.09-0.14-0.22-0.39-0.3l-3.06-0.75c-0.12-0.03-0.23-0.1-0.29-0.21C9.69,3.5,9.67,3.38,9.7,3.26c0.07-0.25,0.32-0.4,0.57-0.35 l3.07,0.75c0.6,0.11,1.06,0.6,1.1,1.21c-0.04,0.6-0.5,1.1-1.1,1.21l-2.92,0.8c-0.07,0.02-0.12,0.08-0.11,0.15 c0,0.07,0.05,0.13,0.11,0.14l3.52,0.93c0.48,0.12,0.81,0.55,0.81,1.04S14.42,10.06,13.94,10.19z"/></svg>