<svg viewBox="0 0 24 24" fill="#44739e" xmlns="http://www.w3.org/2000/svg"><title>hue:bulb-group-go-sultan-off</title><desc>Source: https://github.com/arallsopp/hass-hue-icons</desc><path d="M21.97,20.95L2.88,1.86L1.5,3.24l2.97,2.97c-1.1,1.67-1.78,3.69-1.78,5.76c0,3.09,1.41,5.85,3.63,7.67H6.07 c-0.62,0-1.12,0.5-1.12,1.12s0.51,1.12,1.12,1.12h5.9c0.07,0,0.14-0.01,0.21-0.02c0.14,0.01,0.28,0.02,0.43,0.02 c2.04,0,4.07-0.68,5.74-1.78l2.23,2.23L21.97,20.95z M16.94,6.48c1.69,0,2.95-0.2,3.73-0.44c0.29-0.58,1.16-2.19,0.2-3.06c-1.02-0.93-3.76-0.87-3.93-0.87 s-2.92-0.06-3.93,0.87c-0.95,0.88-0.09,2.49,0.2,3.06C13.99,6.27,15.25,6.48,16.94,6.48z M16.94,7.1c-0.89,0-2.15-0.09-3.23-0.3c2.08,1.8,4.13,3.97,5.63,6.01c0.06-0.1,0.1-0.21,0.09-0.33 c-0.03-0.68,0.12-3.09,0.96-5.73C19.28,7.01,17.89,7.1,16.94,7.1z M9.42,6.04c2.96,2.05,7.07,6.17,9.12,9.13c0.54,0.78,0.88,1.39,1.03,1.84l1.05,1.05 c0.22-0.55-0.13-1.62-1.05-3.15c-2.09-3.41-6.48-7.81-9.89-9.89C8.16,4.09,7.09,3.74,6.53,3.97l1.05,1.05 C8.02,5.16,8.63,5.5,9.42,6.04z"/></svg>