<svg viewBox="0 0 24 24" fill="#44739e" xmlns="http://www.w3.org/2000/svg"><title>hue:bulb-group-bollard-wall-appear</title><desc>Source: https://github.com/arallsopp/hass-hue-icons</desc><path d="M8.4,5.12L8.4,5.12C7.79,4.95,6.96,4.85,6.08,4.85S4.36,4.95,3.7,5.12C2.92,5.33,2.49,5.63,2.49,5.97v11.44 c0,0.21,0.16,0.5,0.93,0.74c0.64,0.19,1.49,0.3,2.4,0.3c0.9,0,1.8-0.11,2.48-0.3c0.73-0.21,1.11-0.49,1.11-0.82V5.89 C9.42,5.58,9.07,5.32,8.4,5.12z M8.61,7.37v2.34c0,0.3-1.01,0.71-2.66,0.71S3.3,10,3.3,9.71V7.37c0-0.02,0.01-0.03,0.02-0.03 c0,0,0.01-0.01,0.02-0.01c0.01,0,0.02,0,0.03,0.01c0.51,0.33,1.55,0.55,2.59,0.55s2.07-0.23,2.58-0.55c0.02-0.02,0.04-0.01,0.05,0 C8.61,7.34,8.61,7.36,8.61,7.37z M7.53,5.81c0.44,0.11,0.52,0.23,0.52,0.26c0,0.04-0.11,0.17-0.59,0.29c-0.89,0.22-2.33,0.22-3.14,0 C3.94,6.25,3.85,6.14,3.85,6.11c0-0.03,0.11-0.18,0.65-0.3C5.37,5.61,6.72,5.61,7.53,5.81z M16.99,1.11c-2.7,0-4.74,1.09-4.74,2.53v2.6l-1.59,0.72c-0.18,0.08-0.3,0.26-0.3,0.46v10.81 c0,0.28,0.22,0.5,0.5,0.5h1.38v1.92c0,1.44,2.04,2.53,4.74,2.53s4.74-1.09,4.74-2.53v-17C21.73,2.2,19.69,1.11,16.99,1.11z M16.99,22.17c-2.14,0-3.74-0.81-3.74-1.53s1.6-1.53,3.74-1.53s3.74,0.81,3.74,1.53S19.13,22.17,16.99,22.17z"/></svg>