<svg viewBox="0 0 24 24" fill="#44739e" xmlns="http://www.w3.org/2000/svg"><title>hue:bulb-classic-hung-off</title><desc>Source: https://github.com/arallsopp/hass-hue-icons</desc><path d="M21.97,20.95L2.88,1.86L1.5,3.24l7.45,7.45c-0.3,1.28-1.22,1.96-1.76,3.4c1.33-0.42,3.24-0.57,4.58-0.59 l0.75,0.75c-0.17,0-0.33-0.01-0.51-0.01c-2.54,0-4.27,0.39-5.09,0.74c-0.04,0.18-0.08,0.34-0.1,0.53c-0.02,0.2-0.06,0.4-0.06,0.61 C6.75,18.5,9.11,21,12,21c1.98,0,3.68-1.17,4.58-2.67l4.01,4.01L21.97,20.95z M12,7.5c-0.68,0-1.29,0.03-1.86,0.08l6.44,6.44c0.08,0.02,0.16,0.04,0.23,0.07c-0.58-1.51-1.57-2.18-1.81-3.59 c-0.1-0.61-0.19-1.47-0.13-2.1c0.03-0.4-0.27-0.75-0.67-0.79C13.56,7.54,12.82,7.5,12,7.5z M14.25,6.85l-0.36-2.32c-0.02-0.16-0.11-0.32-0.23-0.43l-0.35-0.32c-0.03-0.02-0.05-0.05-0.07-0.07l-0.37-0.44 C12.73,3.1,12.51,3,12.28,3h-0.55c-0.23,0-0.45,0.1-0.58,0.26L10.78,3.7c-0.02,0.03-0.05,0.05-0.07,0.07l-0.35,0.32 c-0.13,0.11-0.21,0.27-0.23,0.43L9.75,6.85c0.78-0.07,1.64-0.1,2.25-0.1S13.47,6.78,14.25,6.85z"/></svg>