<svg viewBox="0 0 24 24" fill="#44739e" xmlns="http://www.w3.org/2000/svg"><title>hue:bulb-filament-off</title><desc>Source: https://github.com/arallsopp/hass-hue-icons</desc><path d="M2.9,1.9L1.5,3.2l3.4,3.4C4.5,8.5,4.8,10.4,5.7,12l0.1,0.2c0.1,0.1,0.2,0.3,0.3,0.4c1.3,1.8,2.3,2.2,3,3.4 c1.1,0.1,2.3,0.2,3.5,0.2c0.6,0,1.2,0,1.9-0.1l6.2,6.2l1.4-1.4L2.9,1.9z M10.6,13.9h-0.1c-0.3,0-0.5-0.2-0.5-0.4 c0-0.3,0.2-0.5,0.4-0.5l0.7-0.2l0.8,0.8L10.6,13.9z M13.9,8C14,7.9,14,7.9,14,7.8c0-0.1,0-0.1-0.1-0.1L11,6.9C10.4,6.8,10,6.3,9.9,5.7c0-0.6,0.5-1.1,1.1-1.2 l3.1-0.7c0.3-0.1,0.5,0.1,0.6,0.3c0,0.1,0,0.2,0,0.4c-0.1,0.1-0.2,0.2-0.3,0.2l-3.1,0.7c-0.2,0.1-0.4,0.2-0.4,0.3 c0,0.1,0.1,0.2,0.4,0.3l2.9,0.8c0.5,0.1,0.8,0.6,0.8,1s-0.3,0.9-0.8,1L12,9.4l1.3,1.3l0.3,0.1c0.6,0.1,1,0.6,1.1,1.2 c0,0,0,0.1,0,0.1l2.3,2.3c0.5-0.4,1-1,1.5-1.8c0.1-0.1,0.2-0.3,0.3-0.4l0.1-0.2c0.7-1.1,1-2.4,1-3.7l0,0c0-3.1-2-6-5-7 c-3-1.1-6.4-0.2-8.4,2.2C6.4,3.6,6.4,3.7,6.3,3.7l4.9,4.9L13.9,8z M15.3,17.1c-0.9,0.1-1.9,0.1-2.7,0.1c-1.1,0-2.1-0.1-3.2-0.2c0,0.2-0.1,0.5-0.2,0.7c-0.1,0.4,0,0.9,0.3,1.1 l0.4,2.5c0,0.2,0.1,0.4,0.3,0.5l0.4,0.4l0.1,0.1l0.5,0.5c0.2,0.2,0.5,0.3,0.7,0.3h0.7c0.3,0,0.6-0.1,0.7-0.3l0.5-0.5l0.1-0.1 l0.4-0.4c0.2-0.1,0.3-0.3,0.3-0.5l0.4-2.5c0.3-0.3,0.5-0.7,0.3-1.1C15.3,17.5,15.3,17.3,15.3,17.1z"/></svg>