<svg viewBox="0 0 24 24" fill="#44739e" xmlns="http://www.w3.org/2000/svg"><title>hue:bulb-group-classic-4</title><desc>Source: https://github.com/arallsopp/hass-hue-icons</desc><path d="M12.6,9.82c1.41,0.45,3.48,0.59,4.82,0.59s3.41-0.14,4.82-0.59c-0.57,1.51-1.57,2.18-1.81,3.59 c-0.11,0.61-0.19,1.47-0.13,2.1c0.04,0.4-0.27,0.75-0.67,0.79c-0.65,0.07-1.38,0.11-2.21,0.11s-1.56-0.04-2.21-0.11 c-0.4-0.04-0.7-0.39-0.66-0.79c0.06-0.63-0.03-1.49-0.13-2.1C14.18,12,13.18,11.33,12.6,9.82z M15.17,17.06 c0.78,0.07,1.64,0.1,2.25,0.1s1.47-0.03,2.25-0.1l-0.38,2.33c-0.02,0.16-0.1,0.32-0.23,0.43l-0.35,0.32 c-0.02,0.02-0.05,0.04-0.07,0.07l-0.37,0.44c-0.12,0.16-0.34,0.26-0.57,0.26h-0.55c-0.23,0-0.45-0.1-0.59-0.27l-0.37-0.44 c-0.02-0.02-0.04-0.05-0.07-0.07l-0.35-0.32c-0.12-0.11-0.21-0.27-0.23-0.43L15.17,17.06z M17.42,2.91c2.89,0,5.25,2.5,5.25,4.88 c0,0.21-0.04,0.41-0.06,0.61c-0.02,0.19-0.06,0.35-0.1,0.53c-0.82,0.35-2.55,0.74-5.09,0.74s-4.27-0.4-5.09-0.75 c-0.04-0.18-0.07-0.34-0.1-0.53c-0.02-0.2-0.06-0.39-0.06-0.61C12.17,5.41,14.53,2.91,17.42,2.91z M5.55,16.14 c-0.4,0.03-0.8,0.04-1.11,0.04c-0.39,0-0.94-0.02-1.43-0.06l0.24,1.48c0.01,0.1,0.07,0.2,0.15,0.27l0.22,0.2 c0.02,0.01,0.03,0.03,0.04,0.04l0.24,0.28c0.09,0.11,0.23,0.17,0.38,0.17h0.35c0.15,0,0.29-0.06,0.36-0.17l0.23-0.27 c0.01-0.02,0.03-0.03,0.04-0.04l0.22-0.2c0.08-0.07,0.13-0.17,0.15-0.27l0.2-1.23C5.73,16.31,5.64,16.22,5.55,16.14z M1.14,10.6 c0.02,0.12,0.04,0.22,0.06,0.34c0.45,0.19,1.36,0.4,2.64,0.45c-0.03-0.08-0.07-0.13-0.1-0.21c-0.03-0.07-0.16-0.5-0.23-0.78l0,0 v-0.01c-0.03-0.11-0.05-0.2-0.05-0.23c0,0,0,0,0-0.01c-0.01-0.07-0.03-0.13-0.04-0.2c0-0.01,0-0.03-0.01-0.04 c0-0.04-0.01-0.08-0.01-0.12C3.38,9.68,3.37,9.54,3.37,9.38c0-0.75,0.27-1.53,0.73-2.22c-1.68,0.19-2.99,1.65-2.99,3.06 C1.1,10.35,1.13,10.47,1.14,10.6z M5.16,15.11c0.04-0.39-0.02-0.97-0.09-1.38C5,13.29,4.78,12.97,4.5,12.55 c-0.14-0.2-0.28-0.43-0.42-0.68c-0.83-0.02-1.92-0.12-2.7-0.37c0.37,0.96,1.01,1.39,1.16,2.28c0.06,0.39,0.12,0.94,0.08,1.34 c-0.03,0.25,0.17,0.48,0.42,0.5c0.41,0.04,0.88,0.07,1.41,0.07c0.29,0,0.55-0.01,0.8-0.02C5.18,15.5,5.14,15.31,5.16,15.11z M13.95,16.69c-0.01-0.02-0.02-0.04-0.04-0.05c-0.56,0.04-1.14,0.06-1.57,0.06c-0.52,0-1.26-0.03-1.94-0.09l0.32,2 c0.02,0.14,0.09,0.28,0.2,0.37l0.3,0.28c0.03,0.02,0.04,0.04,0.06,0.06l0.32,0.38c0.12,0.15,0.31,0.23,0.51,0.23h0.47 c0.2,0,0.39-0.09,0.49-0.22l0.32-0.38c0.02-0.03,0.04-0.04,0.06-0.06l0.3-0.28c0.11-0.09,0.18-0.23,0.2-0.37l0.28-1.68 C14.13,16.87,14.04,16.78,13.95,16.69z M7.88,9.15c0.03,0.16,0.05,0.3,0.09,0.46c0.63,0.27,1.9,0.57,3.73,0.63 c-0.01-0.02-0.02-0.03-0.02-0.05c-0.04-0.1-0.21-0.66-0.31-1.04l0,0V9.14c-0.04-0.15-0.06-0.27-0.06-0.31c0,0,0,0,0-0.01 c-0.02-0.09-0.04-0.17-0.05-0.27c0-0.02-0.01-0.04-0.01-0.06c-0.01-0.05-0.01-0.11-0.02-0.16C11.21,8.18,11.18,8,11.18,7.78 c0-1.14,0.46-2.33,1.24-3.34c-0.02,0-0.04-0.01-0.06-0.01c-2.49,0-4.52,2.15-4.52,4.19C7.83,8.81,7.87,8.97,7.88,9.15z M12.35,16.05 c0.46,0,0.87-0.02,1.26-0.04c-0.05-0.19-0.07-0.39-0.05-0.58c0.05-0.51-0.03-1.29-0.12-1.84c-0.1-0.58-0.39-1.01-0.76-1.56 c-0.22-0.33-0.47-0.7-0.69-1.14c-1.14-0.02-2.69-0.15-3.79-0.5c0.5,1.3,1.36,1.88,1.57,3.09c0.09,0.52,0.16,1.26,0.11,1.81 c-0.03,0.34,0.22,0.65,0.57,0.68C11.01,16.01,11.63,16.05,12.35,16.05z M4.16,9.83c0.02,0.14,0.05,0.26,0.08,0.4 c0.55,0.23,1.63,0.49,3.2,0.55c-0.01-0.03-0.03-0.06-0.04-0.09c-0.03-0.08-0.18-0.57-0.27-0.89l0,0V9.79 C7.1,9.66,7.07,9.56,7.08,9.53c0,0,0,0,0-0.01C7.07,9.45,7.05,9.37,7.04,9.29c0-0.02,0-0.03-0.01-0.05c0-0.05-0.01-0.09-0.02-0.14 C6.99,8.97,6.97,8.81,6.97,8.63C6.97,8.4,7,8.17,7.04,7.95c0.01-0.04,0.01-0.07,0.02-0.11c0.05-0.23,0.11-0.45,0.19-0.68 C7.26,7.14,7.27,7.12,7.27,7.1c0.19-0.48,0.45-0.95,0.79-1.37l0,0c-2.17,0-3.94,1.88-3.94,3.66C4.12,9.54,4.15,9.68,4.16,9.83z M9.02,15.19c0.04-0.44-0.03-1.11-0.1-1.58c-0.08-0.5-0.34-0.87-0.65-1.35c-0.18-0.27-0.38-0.58-0.57-0.92 c-0.99-0.02-2.31-0.13-3.26-0.43c0.44,1.13,1.19,1.64,1.37,2.7c0.08,0.46,0.14,1.1,0.1,1.58c-0.03,0.3,0.2,0.56,0.5,0.59 c0.49,0.05,1.04,0.08,1.66,0.08c0.37,0,0.71-0.02,1.03-0.04C9.03,15.62,9,15.41,9.02,15.19z M9.47,16.37 c-0.5,0.04-1.02,0.05-1.4,0.05c-0.46,0-1.1-0.02-1.69-0.08l0.28,1.74c0.02,0.12,0.08,0.24,0.17,0.32l0.26,0.24 c0.02,0.02,0.04,0.04,0.05,0.05l0.28,0.33c0.11,0.13,0.27,0.2,0.44,0.2h0.41c0.17,0,0.34-0.08,0.43-0.2l0.28-0.31 c0.02-0.02,0.04-0.04,0.05-0.05l0.27-0.24c0.1-0.08,0.16-0.2,0.17-0.32l0.25-1.53C9.63,16.51,9.54,16.44,9.47,16.37z"/></svg>