<svg viewBox="0 0 24 24" fill="#44739e" xmlns="http://www.w3.org/2000/svg"><title>hue:bulb-group-wall-nyro-flood-alt</title><desc>Source: https://github.com/arallsopp/hass-hue-icons</desc><path d="M22.73,12.55c-0.33-0.13-1.71-0.56-1.71-0.56s-0.27-0.12-0.74,0.03l-0.25,0.08c0,0-0.72-3.05-0.77-3.27 c-0.04-0.19-0.46-0.95-1.3-0.94c-0.12,0-0.25,0.02-0.39,0.05c-1.1,0.28-14.39,3.78-14.39,3.78s-0.79,0.36-0.49,1.41 c0.31,1.05,2.86,8.46,2.86,8.46s0.38,0.87,1.02,0.82c0.64-0.05,6.34-0.54,6.34-0.54s-0.05,0.56,0.61,0.74s1.56,0.33,1.56,0.33 l7.44-0.51c0,0,0.59-0.05,0.59-0.61v-8.69C23.11,13.11,23.06,12.68,22.73,12.55z M18.96,19.62c-0.16,0.29-0.56,0.32-0.56,0.32 S7.32,21.38,7.1,21.39c-0.41-0.03-0.59-0.31-0.8-0.64l-2.54-7.26c0,0-0.06-0.35,0-0.5c0.04-0.12,0.25-0.31,0.25-0.31l11.83-2.87 c0,0,0.49,0.02,0.68,0.15c0.16,0.11,0.32,0.48,0.32,0.48l2.2,8.51C19.03,18.96,19.16,19.27,18.96,19.62z M2.84,10.76l0.08-0.02c0.33-0.09,5.25-1.38,9.26-2.44l-0.02-1.16c0.02,0,0.04,0,0.06,0l2.44-0.29 c0.34-0.04,0.61-0.36,0.61-0.73v-0.4V5.63V4.78l-0.48-0.19V4.59L5.7,1.02L1.05,2.49l0.01,8.4l1.39,0.09 c0.11-0.08,0.21-0.15,0.31-0.19L2.84,10.76z M2.75,3.74L5.67,2.9l8.92,2.73v0.48l-2.44,0.29l-9.4-1.79L2.75,3.74z"/></svg>