<svg viewBox="0 0 24 24" height="24px" width="24px" fill="#44739e" xmlns="http://www.w3.org/2000/svg"><title>hue:bulb-filament-alt-hung</title><desc>Source: https://github.com/arallsopp/hass-hue-icons</desc><path d="M12.36,23.29c0.3,0,0.81-0.25,0.81-0.25s1.69,0.12,3.39-1.32c1.7-1.44,0.95-4.14,0.95-4.14l-2.43-9.31 c-0.12-0.01-0.24-0.02-0.36-0.03c-0.37-0.02-1.61-0.09-2.41-0.1c-0.9-0.01-2.59,0.05-2.69,0.05c-0.03,0-0.05,0-0.08,0.01l-2.41,9.18 c0,0-0.88,2.68,0.66,4.18c1.53,1.49,3.66,1.48,3.66,1.48S12.06,23.29,12.36,23.29L12.36,23.29z M9.92,20.66 c-0.2-0.03-0.38-0.16-0.43-0.35c-0.04-0.12-0.02-0.25,0.05-0.35c0.07-0.11,0.19-0.18,0.33-0.21L13.34,19 c0.28-0.07,0.44-0.21,0.44-0.3c0-0.09-0.16-0.23-0.46-0.3l-3.33-0.79c-0.54-0.13-0.9-0.56-0.9-1.04c0-0.48,0.37-0.91,0.9-1.04 l3.99-0.94c0.08-0.01,0.13-0.07,0.13-0.14c0.01-0.07-0.05-0.13-0.13-0.14l-3.32-0.79c-0.68-0.11-1.18-0.6-1.24-1.2 c0.05-0.6,0.56-1.1,1.25-1.21l3.38-0.68h0.13c0.3-0.03,0.56,0.16,0.6,0.42c0.03,0.26-0.18,0.49-0.48,0.52l-3.36,0.68 c-0.28,0.07-0.44,0.21-0.44,0.3s0.16,0.23,0.46,0.3l3.34,0.74c0.54,0.13,0.92,0.56,0.91,1.05c0.01,0.49-0.37,0.92-0.91,1.04 l-3.99,0.94c-0.08,0.01-0.13,0.07-0.13,0.14c0,0.07,0.05,0.13,0.13,0.15l3.31,0.8c0.69,0.11,1.2,0.6,1.25,1.21 c-0.05,0.6-0.56,1.1-1.25,1.21l-3.47,0.75C10.06,20.67,9.99,20.67,9.92,20.66L9.92,20.66z M15.23,7.37 c0.01-0.25,0.06-0.49,0.15-0.72c0.14-0.41,0.01-0.86-0.33-1.13L14.64,3c-0.03-0.21-0.13-0.39-0.29-0.53l-0.45-0.4l-0.08-0.08 l-0.46-0.54C13.17,1.22,12.9,1.1,12.62,1.1h-0.7c-0.29,0-0.56,0.12-0.74,0.34l-0.47,0.54l-0.08,0.08l-0.45,0.4 C10.02,2.61,9.92,2.79,9.89,3L9.48,5.49C9.14,5.76,9.01,6.21,9.15,6.62C9.24,6.85,9.29,7.09,9.3,7.34c0.95-0.09,1.9-0.15,2.73-0.15 C13.1,7.19,14.17,7.25,15.23,7.37L15.23,7.37z"/></svg>