<svg viewBox="0 0 24 24" fill="#44739e" xmlns="http://www.w3.org/2000/svg"><title>hue:bulb-group-filament</title><desc>Source: https://github.com/arallsopp/hass-hue-icons</desc><path d="M18.14,17c0.01,0.25,0.06,0.49,0.15,0.72c0.14,0.41,0.01,0.86-0.33,1.13l-0.41,2.49 c-0.03,0.21-0.13,0.4-0.28,0.53l-0.45,0.4l-0.09,0.08l-0.47,0.54c-0.18,0.22-0.46,0.34-0.74,0.34h-0.7c-0.28,0-0.56-0.12-0.74-0.34 l-0.47-0.54l-0.09-0.08l-0.45-0.4c-0.16-0.14-0.26-0.33-0.28-0.53l-0.41-2.51c-0.34-0.27-0.48-0.72-0.33-1.13 c0.09-0.23,0.14-0.47,0.15-0.72c1.06,0.12,2.12,0.18,3.19,0.18C16.24,17.15,17.19,17.1,18.14,17z M22.77,8.25 c0,1.31-0.34,2.6-1.01,3.74l-0.1,0.16c-0.09,0.15-0.19,0.3-0.29,0.44c-1.29,1.85-2.34,2.25-2.99,3.45 c-0.98,0.11-1.97,0.16-2.95,0.16c-1.16,0-2.31-0.07-3.46-0.21c-0.65-1.16-1.69-1.58-2.96-3.4c-0.1-0.14-0.2-0.29-0.29-0.44 l-0.1-0.16C7,9.27,7.3,5.84,9.36,3.44c2.07-2.42,5.43-3.3,8.42-2.22C20.76,2.27,22.76,5.09,22.77,8.25L22.77,8.25z M17.08,8.79 c0.58-0.16,0.92-0.75,0.76-1.32c-0.1-0.37-0.39-0.66-0.76-0.76l-2.94-0.79c-0.27-0.07-0.41-0.21-0.41-0.3c0-0.09,0.14-0.22,0.39-0.3 l3.06-0.75c0.12-0.03,0.23-0.1,0.29-0.21c0.06-0.11,0.08-0.23,0.05-0.35c-0.07-0.25-0.32-0.4-0.57-0.35L13.88,4.4 c-0.6,0.1-1.05,0.6-1.1,1.21c0.05,0.61,0.5,1.1,1.1,1.21l2.92,0.8c0.07,0.02,0.12,0.08,0.11,0.15c0,0.07-0.05,0.13-0.11,0.14 l-3.52,0.93c-0.48,0.12-0.81,0.55-0.81,1.04c0,0.49,0.33,0.92,0.81,1.05l2.94,0.74c0.27,0.07,0.41,0.21,0.41,0.3 s-0.14,0.22-0.39,0.3l-2.96,0.68c-0.26,0.02-0.45,0.25-0.42,0.51c0.02,0.26,0.25,0.45,0.51,0.42c0,0,0.01,0,0.01,0h0.11l2.98-0.68 c0.6-0.1,1.05-0.6,1.1-1.21c-0.05-0.6-0.5-1.09-1.09-1.2L13.55,10c-0.07-0.01-0.12-0.07-0.11-0.14c0-0.07,0.05-0.13,0.11-0.14 M5.24,9.77c0,0.05,0.03,0.1,0.09,0.11l1.53,0.42C6.78,9.97,6.72,9.64,6.68,9.3L5.33,9.66C5.28,9.67,5.24,9.72,5.24,9.77z M5.46,6.48c0,0.07,0.11,0.18,0.32,0.23l0.94,0.25c0.05-0.34,0.12-0.67,0.21-1L5.76,6.25C5.57,6.3,5.46,6.41,5.46,6.48z M8.19,13.16 c-0.1-0.13-0.21-0.3-0.31-0.47l-0.1-0.15c-0.04-0.07-0.07-0.14-0.1-0.21c-0.03,0.01-0.05,0.02-0.07,0.03l-2.31,0.53H5.2 c-0.2,0.03-0.38-0.12-0.41-0.32c-0.03-0.2,0.12-0.38,0.32-0.41c0,0,0.01,0,0.01,0l2.22-0.51c-0.08-0.18-0.16-0.37-0.23-0.55 l-1.99-0.5c-0.37-0.1-0.63-0.43-0.62-0.81c0-0.38,0.26-0.71,0.62-0.8l1.5-0.4C6.6,8.29,6.6,7.99,6.62,7.7L5.58,7.41 C5.11,7.33,4.76,6.95,4.73,6.48c0.04-0.47,0.39-0.85,0.85-0.93l1.61-0.39c0.31-0.77,0.72-1.48,1.24-2.13 C6.14,2.28,3.64,2.98,2.08,4.8C0.49,6.65,0.26,9.32,1.5,11.42l0.08,0.12c0.07,0.12,0.15,0.23,0.23,0.34 c0.99,1.41,1.79,1.74,2.29,2.63c0.89,0.11,1.78,0.16,2.68,0.16c0.76,0,1.53-0.04,2.29-0.12c0.03-0.06,0.07-0.11,0.1-0.17 C8.81,14,8.49,13.59,8.19,13.16z M8.88,15.3c-0.74,0.07-1.47,0.12-2.12,0.12c-0.83,0-1.65-0.05-2.47-0.14 c-0.01,0.19-0.05,0.38-0.12,0.56c-0.11,0.32-0.01,0.67,0.26,0.88l0.32,1.95c0.02,0.16,0.1,0.31,0.22,0.41l0.35,0.31l0.07,0.07 l0.36,0.42c0.14,0.17,0.35,0.26,0.57,0.26h0.54c0.22,0,0.43-0.09,0.57-0.26l0.36-0.42l0.07-0.07l0.35-0.31 c0.12-0.11,0.2-0.25,0.22-0.41l0.32-1.93C9,16.53,9.11,16.18,9,15.86C8.93,15.68,8.89,15.49,8.88,15.3z"/></svg>