<svg viewBox="0 0 24 24" fill="#44739e" xmlns="http://www.w3.org/2000/svg"><title>hue:bulb-filament-hung-off</title><desc>Source: https://github.com/arallsopp/hass-hue-icons</desc><path d="M21.97,20.95L2.88,1.86L1.5,3.24l6.31,6.31c-0.49,0.47-1.04,1.02-1.66,1.9c-0.1,0.14-0.2,0.29-0.29,0.44 l-0.1,0.16c-1.6,2.72-1.3,6.14,0.75,8.55c2.05,2.41,5.42,3.3,8.42,2.22c1.44-0.51,2.65-1.45,3.51-2.63l2.14,2.14L21.97,20.95z M14.21,17.34l-2.94,0.79c-0.27,0.07-0.41,0.21-0.41,0.3c0,0.09,0.14,0.22,0.39,0.3l3.06,0.75c0.12,0.03,0.23,0.1,0.29,0.21 s0.08,0.23,0.05,0.35c-0.07,0.25-0.32,0.4-0.57,0.35l-3.07-0.75c-0.6-0.11-1.06-0.6-1.1-1.21c0.04-0.6,0.5-1.1,1.1-1.21l2.92-0.8 c0.07-0.02,0.12-0.08,0.11-0.15c0-0.07-0.05-0.13-0.11-0.14l-3.52-0.93c-0.48-0.12-0.81-0.55-0.81-1.04c0-0.49,0.33-0.92,0.81-1.05 l0.76-0.19l0.77,0.77l-1.25,0.34c-0.07,0.01-0.12,0.07-0.11,0.14c0,0.07,0.05,0.13,0.11,0.14L13.25,15l1.68,1.68 C14.81,16.99,14.55,17.25,14.21,17.34z M10.48,7.92l2.84,2.84l0.28,0.06c0.6,0.11,1.06,0.6,1.1,1.21c0,0.03-0.02,0.06-0.02,0.09l5.07,5.07 c0.09-0.46,0.15-0.93,0.15-1.41c0-1.31-0.34-2.6-1.01-3.74l-0.1-0.16c-0.09-0.15-0.19-0.3-0.29-0.44C17.22,9.6,16.17,9.2,15.52,8 c-0.98-0.11-1.97-0.16-2.95-0.16C11.87,7.84,11.18,7.87,10.48,7.92z M9.31,6.75l0.3,0.3c0.97-0.1,1.95-0.16,2.93-0.16c0.83,0.01,1.78,0.06,2.73,0.15 c0.01-0.25,0.06-0.49,0.15-0.72c0.14-0.41,0.01-0.86-0.33-1.13L14.68,2.7c-0.03-0.21-0.13-0.4-0.28-0.53l-0.45-0.4l-0.09-0.08 L13.4,1.15c-0.18-0.22-0.45-0.34-0.74-0.34h-0.7c-0.29,0-0.56,0.12-0.74,0.34l-0.47,0.54l-0.09,0.08l-0.45,0.4 C10.06,2.31,9.96,2.5,9.94,2.71L9.53,5.22C9.18,5.49,9.05,5.94,9.2,6.35C9.25,6.48,9.29,6.61,9.31,6.75z"/></svg>