<svg viewBox="0 0 24 24" fill="#44739e" xmlns="http://www.w3.org/2000/svg"><title>hue:bulb-br30-off</title><desc>Source: https://github.com/arallsopp/hass-hue-icons</desc><path d="M21.97,20.95L2.88,1.86L1.5,3.24L3.75,5.5C4.1,6.82,5.26,7.78,6.24,8.57c0.51,0.41,0.99,0.8,1.29,1.18 c0.8,1,0.78,1.64,0.74,2.7c-0.01,0.24-0.02,0.49-0.02,0.75v3.51c0,0.63,0.12,1.13,0.35,1.49c1.01,0.27,2.21,0.47,3.55,0.43h0.03 c1.34,0.05,2.53-0.14,3.53-0.41c0.1-0.15,0.17-0.34,0.23-0.54l4.65,4.65L21.97,20.95z M12.17,2.39c3.85,0,6.38,0.34,8.05,0.75c-0.1-0.14-0.21-0.29-0.35-0.43c-1.31-1.36-3.95-2.04-7.7-2.01 C8.7,0.66,6.3,1.23,4.9,2.34l0.53,0.53C7.04,2.59,9.21,2.39,12.17,2.39z M6.31,3.75l9.76,9.76V13.2c0-0.27-0.01-0.52-0.02-0.75c-0.04-1.06-0.06-1.7,0.74-2.7 c0.3-0.38,0.78-0.77,1.29-1.18c1.23-1,2.77-2.24,2.59-4.1c0-0.02,0-0.08-0.01-0.16c-1.48-0.45-4.08-0.92-8.51-0.92 C9.66,3.39,7.76,3.54,6.31,3.75z M12.17,19.63c-0.12,0-0.24,0-0.36,0c-0.96,0-1.84-0.11-2.63-0.27l0.06,1.96c0,0.12,0.05,0.23,0.12,0.31 l1.22,1.4c0.09,0.11,0.23,0.17,0.38,0.17h2.43c0.14,0,0.28-0.06,0.38-0.17l1.22-1.4c0.08-0.09,0.12-0.2,0.12-0.31l0.06-1.96 c-0.8,0.16-1.68,0.27-2.64,0.27C12.41,19.63,12.29,19.63,12.17,19.63z"/></svg>