<svg viewBox="0 0 24 24" fill="#44739e" xmlns="http://www.w3.org/2000/svg"><title>hue:bulb-candle-off</title><desc>Source: https://github.com/arallsopp/hass-hue-icons</desc><path d="M21.97,20.95L2.88,1.86L1.5,3.24l7.05,7.05c-0.13,0.7-0.23,1.39-0.27,2.04c0.61,0.17,1.53,0.32,2.7,0.38 l0.77,0.77c-1.03-0.01-2.42-0.12-3.5-0.39c0,0.03,0,0.07,0,0.1c0,1.86,0.57,3.17,1.3,3.89c0.67,0.1,1.49,0.16,2.45,0.16 s1.78-0.06,2.45-0.16c0.14-0.14,0.27-0.32,0.39-0.5l5.74,5.74L21.97,20.95z M15.75,13.19c0-0.03,0-0.06,0-0.09c-0.02,0.01-0.05,0.01-0.07,0.01L15.75,13.19z M15.73,12.34C15.49,8.41,13.41,3,12,3c-0.79,0-1.79,1.7-2.56,3.88l5.61,5.61 C15.31,12.44,15.53,12.39,15.73,12.34z M10.12,17.92l0.31,1.86c0.02,0.13,0.08,0.25,0.19,0.34l0.29,0.25c0.02,0.02,0.04,0.04,0.05,0.05l0.31,0.35 c0.12,0.14,0.3,0.21,0.49,0.21h0.46c0.19,0,0.37-0.08,0.49-0.21l0.31-0.35c0.02-0.02,0.04-0.04,0.05-0.05l0.29-0.25 c0.11-0.09,0.17-0.21,0.19-0.34l0.31-1.86C13.23,17.98,12.51,18,12,18S10.77,17.98,10.12,17.92z"/></svg>