<svg viewBox="0 0 24 24" fill="#44739e" xmlns="http://www.w3.org/2000/svg"><title>hue:bulb-group-filament-candles</title><desc>Source: https://github.com/arallsopp/hass-hue-icons</desc><path d="M6.67,10.99c0,0,0-0.08,0.08-0.08l2.54-0.82c-0.1,0.53-0.17,1.04-0.22,1.52l-2.31-0.54 C6.76,11.08,6.67,11.08,6.67,10.99z M10.19,18.59l-0.33,1.88c0,0.08-0.08,0.24-0.16,0.33l-0.33,0.24c-0.08,0.08-0.08,0.08-0.08,0.08l-0.33,0.33 c-0.08,0.16-0.33,0.24-0.49,0.24H7.98c-0.16,0-0.41-0.08-0.49-0.24l-0.33-0.33c-0.08-0.08-0.08-0.08-0.08-0.08l-0.33-0.24 c-0.08-0.08-0.16-0.16-0.16-0.33l-0.33-1.88c0.65,0.08,1.55,0.08,2.04,0.08C8.8,18.67,9.53,18.67,10.19,18.59z M9.65,8.38C9.59,8.35,9.53,8.32,9.45,8.3L7,7.73C6.84,7.65,6.67,7.57,6.67,7.48C6.67,7.4,6.84,7.32,7,7.24 L9.45,6.5c0.08,0,0.24,0,0.24-0.16s0-0.24,0-0.33C9.61,5.85,9.45,5.69,9.21,5.77L6.76,6.5C6.27,6.67,5.94,7.08,5.94,7.57 c0.08,0.49,0.49,0.9,0.9,1.06l0.82,0.16l1.63,0.33c0,0,0.08,0,0.08,0.08c0,0,0,0.08-0.08,0.08l-2.78,0.9 c-0.41,0.16-0.65,0.49-0.65,0.9c0.08,0.41,0.33,0.73,0.73,0.82l2.39,0.48v0.52l-1.58,0.47c-1.31-0.08-2.37-0.24-3.02-0.41 c0.24-3.92,2.37-9.39,3.76-9.39c0.66,0,1.44,1.09,2.11,2.65C10.03,6.93,9.82,7.66,9.65,8.38z M9.01,14.08c0.08,1.44,0.4,2.68,0.94,3.68c-0.53,0.05-1.13,0.09-1.81,0.09c-0.98,0-1.8-0.08-2.45-0.16 c-0.73-0.73-1.31-2.04-1.31-3.92v-0.08c1.14,0.33,2.69,0.41,3.76,0.41C8.41,14.1,8.7,14.09,9.01,14.08z M14.59,13.92c-1.3,0-3.2-0.1-4.6-0.5v0.1c0,2.3,0.7,3.9,1.6,4.8c0.8,0.1,1.8,0.2,3,0.2s2.2-0.1,3-0.2 c0.9-0.9,1.6-2.5,1.6-4.8v-0.1C17.79,13.82,15.89,13.92,14.59,13.92z M12.29,19.42l0.4,2.3c0,0.2,0.1,0.3,0.2,0.4l0.4,0.3 c0,0,0,0,0.1,0.1l0.4,0.4c0.1,0.2,0.4,0.3,0.6,0.3h0.6c0.2,0,0.5-0.1,0.6-0.3l0.4-0.4c0,0,0,0,0.1-0.1l0.4-0.3 c0.1-0.1,0.2-0.3,0.2-0.4l0.4-2.3c-0.8,0.1-1.7,0.1-2.3,0.1S13.09,19.52,12.29,19.42z M15.69,12.42c0.2-0.1,0.4-0.2,0.4-0.3 s-0.2-0.2-0.4-0.3l-3-0.6c-0.5-0.1-0.8-0.5-0.9-1c0-0.5,0.3-0.9,0.8-1.1l3.4-1.1c0.1,0,0.1-0.1,0.1-0.1c0-0.1-0.1-0.1-0.1-0.1 l-2-0.4l-1-0.2c-0.5-0.2-1-0.7-1.1-1.3c0-0.6,0.4-1.1,1-1.3l3-0.9c0.3-0.1,0.5,0.1,0.6,0.3c0,0.1,0,0.2,0,0.4s-0.2,0.2-0.3,0.2 l-3,0.9c-0.2,0.1-0.4,0.2-0.4,0.3c0,0.1,0.2,0.2,0.4,0.3l3,0.7c0.5,0.1,0.8,0.5,0.8,1s-0.3,0.9-0.7,1.1l-3.4,1.1 c-0.1,0-0.1,0.1-0.1,0.1c0,0.1,0.1,0.1,0.1,0.1l3,0.7c0.6,0.1,1.1,0.6,1.1,1.1c0,0.3-0.1,0.6-0.3,0.8c1.1-0.1,1.9-0.2,2.5-0.4 c-0.3-4.8-2.8-11.4-4.6-11.4c-1.7,0-4.3,6.7-4.6,11.5c0.8,0.2,2.1,0.4,3.7,0.5L15.69,12.42z"/></svg>