<svg viewBox="0 0 24 24" fill="#44739e" xmlns="http://www.w3.org/2000/svg"><title>hue:bulb-group-spot-hung-off</title><desc>Source: https://github.com/arallsopp/hass-hue-icons</desc><path d="M21.97,20.95L2.88,1.86L1.5,3.24L4.95,6.7v0.38c0.09-0.04,0.18-0.07,0.28-0.11l0.41,0.41 C5.28,7.47,4.94,7.63,4.65,7.86C4.49,8.06,4.4,8.31,4.4,8.57v2.01c0,0.34-0.01,0.51-0.12,0.61c-1.08,0.84-1.78,2.08-1.95,3.44 c1.37-0.47,2.81-0.7,4.25-0.67c0.8,0.01,1.6,0.07,2.39,0.19c0.25-0.64,0.59-1.25,1.01-1.81c-0.29-0.45-0.66-0.83-1.09-1.15 c-0.11-0.1-0.12-0.27-0.12-0.61v-0.06l2.21,2.21c-0.89,1.04-1.47,2.32-1.64,3.71c1.44-0.5,2.94-0.79,4.47-0.89l0.73,0.73 c-3.43,0.1-6.1,0.94-6.1,1.98c0,0.14,0.05,0.28,0.14,0.4c0.62,0.91,3.35,1.59,6.61,1.59c1.12,0,2.16-0.09,3.09-0.23l2.31,2.31 L21.97,20.95z M14.43,4.5c0-0.41-0.34-0.75-0.75-0.75c-0.41,0-0.75,0.34-0.75,0.75v1.55c0.47-0.23,0.98-0.37,1.5-0.4V4.5z M21.51,18.95c0.27-0.21,0.42-0.45,0.42-0.69c0-0.65-1.06-1.23-2.7-1.59L21.51,18.95z M17.43,4.5c0-0.41-0.34-0.75-0.75-0.75c-0.41,0-0.75,0.34-0.75,0.75v1.16c0.52,0.03,1.03,0.16,1.5,0.4V4.5z M21.02,16.43c-0.23-1.87-1.19-3.56-2.67-4.72c-0.15-0.14-0.17-0.38-0.17-0.84V8.11 c0.01-0.36-0.12-0.7-0.35-0.97c-0.74-0.6-1.7-0.87-2.65-0.75c-0.95-0.12-1.91,0.15-2.65,0.75c-0.23,0.27-0.35,0.62-0.35,0.97v1.51 l6.14,6.14C19.23,15.91,20.14,16.13,21.02,16.43z M6.59,14.52c-2.71,0-4.91,0.65-4.91,1.45c0,0.1,0.04,0.21,0.1,0.29c0.45,0.66,2.44,1.16,4.81,1.16 c0.39,0,0.76-0.02,1.12-0.04c0.15-0.23,0.34-0.44,0.56-0.61l0.09-0.5c0.09-0.54,0.22-1.07,0.4-1.59 C8.03,14.57,7.31,14.52,6.59,14.52z"/></svg>