<svg viewBox="0 0 24 24" fill="#44739e" xmlns="http://www.w3.org/2000/svg"><title>hue:bulb-group-sultan-4</title><desc>Source: https://github.com/arallsopp/hass-hue-icons</desc><path d="M21.87,3.65c1.16,1.1,0.11,3.12-0.25,3.84c-0.96,0.28-2.49,0.54-4.55,0.54s-3.6-0.26-4.55-0.54 c-0.36-0.72-1.41-2.75-0.25-3.84c1.25-1.17,4.6-1.1,4.81-1.1S20.62,2.48,21.87,3.65z M17.06,8.82c1.16,0,2.86-0.11,4.22-0.43 c-1.04,3.3-1.21,6.33-1.18,7.18c0.01,0.2-0.06,0.4-0.18,0.54l-0.34,0.4c-0.72,0.09-1.57,0.15-2.52,0.15s-1.8-0.05-2.52-0.15 l-0.34-0.4c-0.13-0.16-0.19-0.34-0.19-0.55c0.04-0.86-0.14-3.87-1.18-7.18C14.21,8.71,15.9,8.82,17.06,8.82z M14.77,17.32 c0.79,0.08,1.67,0.11,2.29,0.11s1.49-0.03,2.29-0.11l-0.39,2.43c-0.02,0.17-0.1,0.33-0.23,0.45l-0.36,0.33 c-0.02,0.02-0.05,0.04-0.07,0.07l-0.38,0.46c-0.13,0.18-0.35,0.28-0.58,0.28h-0.56c-0.23,0-0.46-0.1-0.6-0.28l-0.38-0.46 c-0.02-0.02-0.04-0.05-0.07-0.07l-0.36-0.33c-0.12-0.11-0.2-0.28-0.22-0.45L14.77,17.32z M5.61,14.75c0.03-0.67-0.15-2.85-0.85-5.17C4.05,9.54,3.26,9.46,2.57,9.3c0.78,2.41,0.91,4.61,0.88,5.23 c0,0.15,0.05,0.29,0.14,0.4l0.25,0.29c0.53,0.07,1.16,0.1,1.86,0.11C5.65,15.16,5.61,14.97,5.61,14.75z M4.64,8.99C4.57,8.92,4.52,8.85,4.48,8.76L4.45,8.71c-0.3-0.6-1.12-2.21-0.48-3.53 c-0.69,0.11-1.41,0.3-1.83,0.68c-0.87,0.8-0.08,2.27,0.19,2.8c0.53,0.15,1.31,0.3,2.31,0.36C4.64,9.01,4.64,9,4.64,8.99z M6.25,16.38c-0.01-0.07-0.02-0.14-0.01-0.21L6.02,15.9c0,0,0-0.01-0.01-0.01c-0.09,0-0.19,0-0.27,0 c-0.46,0-1.12-0.02-1.71-0.08l0.29,1.77c0.02,0.12,0.08,0.24,0.17,0.33l0.27,0.24c0.02,0.02,0.04,0.04,0.05,0.05l0.28,0.33 c0.11,0.13,0.27,0.21,0.45,0.21h0.42c0.17,0,0.33-0.08,0.43-0.21l0.19-0.23L6.25,16.38z M8.1,8.65C8.03,8.57,7.96,8.49,7.91,8.39L7.88,8.33C7.54,7.67,6.63,5.86,7.37,4.44 C6.55,4.54,5.66,4.76,5.16,5.22C4.2,6.1,5.07,7.73,5.37,8.31c0.62,0.18,1.55,0.34,2.74,0.41C8.11,8.69,8.1,8.67,8.1,8.65z M9.28,15.68c-0.05-0.18-0.09-0.36-0.09-0.56c0.02-0.5-0.08-2.91-0.95-5.77c-0.83-0.04-1.79-0.14-2.6-0.33 c0.86,2.66,1.01,5.09,0.97,5.78c0,0.17,0.05,0.32,0.16,0.45l0.28,0.32c0.6,0.08,1.29,0.12,2.08,0.12 C9.18,15.68,9.23,15.68,9.28,15.68z M9.9,16.9c-0.01-0.09-0.02-0.17-0.01-0.26l-0.28-0.33c0-0.01-0.01-0.01-0.01-0.02 c-0.17,0-0.33,0.01-0.47,0.01c-0.51,0-1.23-0.03-1.89-0.09l0.32,1.96c0.02,0.13,0.08,0.27,0.18,0.36l0.29,0.27 c0.03,0.02,0.04,0.04,0.06,0.06l0.31,0.37c0.12,0.14,0.3,0.23,0.5,0.23h0.46c0.19,0,0.37-0.08,0.48-0.23l0.31-0.37 c0.02-0.02,0.04-0.04,0.06-0.06L9.9,16.9z M11.84,8.24c-0.1-0.08-0.17-0.19-0.23-0.3l-0.03-0.07c-0.36-0.72-1.34-2.71-0.53-4.25 c-0.91,0.12-1.92,0.36-2.48,0.87C7.5,5.47,8.47,7.29,8.8,7.93c0.69,0.2,1.72,0.38,3.05,0.45C11.85,8.34,11.84,8.29,11.84,8.24z M13.79,17.48c-0.02-0.1-0.02-0.21,0-0.31c0,0-0.01-0.01-0.01-0.01l-0.28-0.33c-0.18,0-0.35,0.01-0.51,0.01 c-0.57,0-1.38-0.03-2.11-0.1l0.36,2.18c0.02,0.15,0.09,0.3,0.21,0.4l0.33,0.3c0.03,0.02,0.05,0.05,0.07,0.07l0.35,0.41 c0.13,0.16,0.34,0.25,0.55,0.25h0.51c0.22,0,0.41-0.09,0.53-0.25l0.35-0.41c0,0,0,0,0,0L13.79,17.48z M13.11,16.15c-0.06-0.19-0.1-0.4-0.1-0.63c0.03-0.57-0.08-3.25-1.02-6.42c-0.92-0.05-1.98-0.16-2.89-0.36 c0.95,2.97,1.12,5.67,1.09,6.44c0,0.19,0.06,0.36,0.18,0.5l0.31,0.36c0.66,0.08,1.44,0.13,2.32,0.13 C13.04,16.15,13.07,16.15,13.11,16.15z"/></svg>