<svg viewBox="0 0 24 24" fill="#44739e" xmlns="http://www.w3.org/2000/svg"><title>hue:bulb-br30</title><desc>Source: https://github.com/arallsopp/hass-hue-icons</desc><path d="M12.17,2.39C12.17,2.39,12.17,2.39,12.17,2.39C12.17,2.39,12.17,2.39,12.17,2.39c3.85,0,6.38,0.34,8.05,0.75 c-0.1-0.14-0.21-0.29-0.35-0.43c-1.31-1.36-3.95-2.04-7.7-2.01c-3.84-0.04-6.39,0.65-7.7,2.01C4.32,2.86,4.21,3,4.12,3.14 C5.78,2.73,8.32,2.39,12.17,2.39z M6.24,8.57c0.51,0.41,0.99,0.8,1.29,1.18c0.8,1,0.78,1.64,0.74,2.7c-0.01,0.24-0.02,0.49-0.02,0.75v3.51 c0,0.63,0.12,1.13,0.35,1.49c1.01,0.27,2.21,0.47,3.55,0.43h0.03c1.34,0.05,2.53-0.14,3.53-0.41c0.24-0.36,0.36-0.86,0.36-1.5 V13.2c0-0.27-0.01-0.52-0.02-0.75c-0.04-1.06-0.06-1.7,0.74-2.7c0.3-0.38,0.78-0.77,1.29-1.18c1.23-1,2.77-2.24,2.59-4.1 c0-0.02,0-0.08-0.01-0.16c-1.48-0.45-4.08-0.92-8.51-0.92c-4.44,0-7.03,0.46-8.51,0.92c0,0.05,0,0.08,0,0.09 C3.47,6.32,5.01,7.57,6.24,8.57z M12.53,19.63c-0.12,0-0.24,0-0.36,0c-0.12,0-0.24,0-0.36,0c-0.96,0-1.84-0.11-2.63-0.27l0.06,1.96 c0,0.12,0.05,0.23,0.12,0.31l1.22,1.4c0.09,0.11,0.23,0.17,0.38,0.17h2.43c0.14,0,0.28-0.06,0.38-0.17l1.22-1.4 c0.08-0.09,0.12-0.2,0.12-0.31l0.06-1.96C14.37,19.52,13.49,19.63,12.53,19.63z"/></svg>