<svg viewBox="0 0 24 24" fill="#44739e" xmlns="http://www.w3.org/2000/svg"><title>hue:bulb-group-recessed-ceiling</title><desc>Source: https://github.com/arallsopp/hass-hue-icons</desc><path d="M9.17,14.42c-2.18,0-4.26,0.39-5.85,1.1c-0.76,0.34-1.34,0.72-1.77,1.1c-0.05-0.91,0.71-1.82,2.28-2.51 c2.97-1.29,7.71-1.29,10.67,0c1.58,0.68,2.34,1.6,2.3,2.51c-0.43-0.38-1.01-0.76-1.78-1.1C13.42,14.81,11.34,14.42,9.17,14.42z M14.5,16.05c3,1.34,3.1,3.55,0.14,4.94c-3,1.41-7.93,1.41-10.93,0c-2.96-1.39-2.87-3.6,0.13-4.94C6.8,14.73,11.54,14.73,14.5,16.05 z M13.27,20.3c2.22-0.64,2.14-1.64-0.1-2.25c-2.22-0.6-5.77-0.6-7.99,0c-2.25,0.61-2.31,1.62-0.09,2.25 C7.33,20.94,11.02,20.94,13.27,20.3z M13.73,3.46c-2.57,0-5.03,0.46-6.9,1.3c-0.9,0.4-1.58,0.85-2.09,1.3C4.68,4.99,5.58,3.91,7.43,3.1 c3.5-1.52,9.09-1.52,12.59,0c1.86,0.8,2.76,1.89,2.71,2.96c-0.51-0.45-1.19-0.9-2.1-1.3C18.75,3.92,16.3,3.46,13.73,3.46z M20.02,5.38c3.54,1.58,3.66,4.19,0.17,5.83c-3.54,1.66-9.35,1.66-12.89,0C3.81,9.57,3.91,6.96,7.45,5.38 C10.94,3.82,16.53,3.82,20.02,5.38z M18.57,10.39c2.62-0.75,2.53-1.93-0.12-2.65c-2.62-0.71-6.81-0.71-9.43,0 c-2.65,0.72-2.73,1.91-0.11,2.65C11.57,11.15,15.92,11.15,18.57,10.39z M13.73,3.46c-2.57,0-5.03,0.46-6.9,1.3c-0.9,0.4-1.58,0.85-2.09,1.3C4.68,4.99,5.58,3.91,7.43,3.1 c3.5-1.52,9.09-1.52,12.59,0c1.86,0.8,2.76,1.89,2.71,2.96c-0.51-0.45-1.19-0.9-2.1-1.3C18.75,3.92,16.3,3.46,13.73,3.46z M20.02,5.38c3.54,1.58,3.66,4.19,0.17,5.83c-3.54,1.66-9.35,1.66-12.89,0C3.81,9.57,3.91,6.96,7.45,5.38 C10.94,3.82,16.53,3.82,20.02,5.38z M18.57,10.39c2.62-0.75,2.53-1.93-0.12-2.65c-2.62-0.71-6.81-0.71-9.43,0 c-2.65,0.72-2.73,1.91-0.11,2.65C11.57,11.15,15.92,11.15,18.57,10.39z"/></svg>