<svg viewBox="0 0 24 24" height="24px" width="24px" fill="#44739e" xmlns="http://www.w3.org/2000/svg"><title>hue:bulb-group-classic-hung-3</title><desc>Source: https://github.com/arallsopp/hass-hue-icons</desc><path d="M13,10.5c0.1-0.6,0.2-1.5,0.1-2.1c0-0.4,0.3-0.8,0.7-0.8c0.7-0.1,1.4-0.1,2.2-0.1c0.8,0,1.6,0,2.2,0.1 c0.4,0,0.7,0.4,0.7,0.8c-0.1,0.6,0,1.5,0.1,2.1c0.2,1.4,1.2,2.1,1.8,3.6c-1.4-0.4-3.5-0.6-4.8-0.6s-3.4,0.1-4.8,0.6 C11.8,12.6,12.8,11.9,13,10.5z M14.1,4.5c0-0.2,0.1-0.3,0.2-0.4l0.4-0.3c0,0,0,0,0.1-0.1l0.4-0.4C15.3,3.1,15.5,3,15.8,3h0.6 c0.2,0,0.5,0.1,0.6,0.3l0.4,0.4c0,0,0,0,0.1,0.1l0.4,0.3c0.1,0.1,0.2,0.3,0.2,0.4l0.4,2.3c-0.8-0.1-1.6-0.1-2.2-0.1 c-0.6,0-1.5,0-2.2,0.1L14.1,4.5z M10.8,16.1c0-0.2,0-0.4,0.1-0.6c0-0.2,0.1-0.3,0.1-0.5c0.8-0.4,2.5-0.8,5.1-0.8s4.3,0.4,5.1,0.7 c0,0.2,0.1,0.3,0.1,0.5c0,0.2,0.1,0.4,0.1,0.6c0,2.4-2.4,4.9-5.2,4.9S10.8,18.5,10.8,16.1z M12.8,7l-0.3-1.7c0-0.1-0.1-0.3-0.2-0.4 l-0.3-0.3c0,0,0,0-0.1-0.1l-0.3-0.4C11.6,4.1,11.4,4,11.2,4h-0.5c-0.2,0-0.4,0.1-0.5,0.2L9.9,4.6c0,0,0,0-0.1,0.1L9.5,4.9 C9.4,5,9.3,5.2,9.3,5.3L9,7.3c0.7-0.1,1.4-0.1,1.9-0.1c0.4,0,1,0,1.6,0.1c0,0,0,0,0-0.1C12.6,7.1,12.7,7,12.8,7z M6.4,15.3 c0,2,2,4.2,4.5,4.2c0,0,0,0,0.1,0c-0.8-1-1.2-2.2-1.2-3.3c0-0.2,0-0.4,0.1-0.5c0-0.1,0-0.1,0-0.2c0,0,0,0,0-0.1c0-0.1,0-0.2,0.1-0.3 c0,0,0,0,0,0c0,0,0-0.2,0.1-0.3v0l0,0c0.1-0.4,0.3-0.9,0.3-1c0,0,0,0,0-0.1c-1.8,0.1-3.1,0.4-3.7,0.6c0,0.2-0.1,0.3-0.1,0.5 C6.5,14.9,6.4,15.1,6.4,15.3z M9,7.9C8.7,8,8.4,8.3,8.5,8.6c0.1,0.6,0,1.3-0.1,1.8c-0.2,1.2-1.1,1.8-1.6,3.1 c1.1-0.4,2.7-0.5,3.8-0.5c0.2-0.4,0.5-0.8,0.7-1.1c0.4-0.5,0.7-1,0.8-1.6c0.1-0.6,0.2-1.3,0.1-1.8c0-0.2,0-0.4,0.1-0.6 c-0.4,0-0.8,0-1.3,0C10.2,7.9,9.6,7.9,9,7.9z M2.7,14.5c0,1.8,1.8,3.7,3.9,3.7l0,0c-0.3-0.4-0.6-0.9-0.8-1.4c0,0,0,0,0-0.1 c-0.1-0.2-0.1-0.5-0.2-0.7c0,0,0-0.1,0-0.1c0-0.2-0.1-0.5-0.1-0.7c0-0.2,0-0.3,0-0.5c0-0.1,0-0.1,0-0.1c0,0,0,0,0-0.1 c0-0.1,0-0.2,0-0.2c0,0,0,0,0,0c0,0,0-0.1,0-0.3v0l0,0C5.8,13.8,6,13.3,6,13.2c0,0,0-0.1,0-0.1c-1.6,0.1-2.7,0.3-3.2,0.6 c0,0.1-0.1,0.3-0.1,0.4C2.7,14.2,2.7,14.4,2.7,14.5z M7.7,8.1c-0.3,0-0.7,0-1,0c-0.6,0-1.2,0-1.7,0.1c-0.3,0-0.5,0.3-0.5,0.6 c0,0.5,0,1.1-0.1,1.6C4.2,11.4,3.5,11.9,3,13c1-0.3,2.3-0.4,3.3-0.4c0.2-0.3,0.4-0.6,0.6-0.9c0.3-0.5,0.6-0.9,0.6-1.4 c0.1-0.5,0.1-1.1,0.1-1.6C7.6,8.5,7.6,8.3,7.7,8.1z M8.3,7.3L8.1,5.8c0-0.1-0.1-0.2-0.2-0.3L7.6,5.2c0,0,0,0,0-0.1L7.3,4.9 C7.2,4.8,7,4.7,6.9,4.7H6.5C6.3,4.7,6.1,4.8,6,4.9L5.7,5.2c0,0,0,0,0,0.1L5.4,5.5C5.3,5.6,5.3,5.7,5.3,5.8L5,7.6 c0.6-0.1,1.2-0.1,1.7-0.1c0.4,0,0.9,0,1.4,0.1C8.1,7.5,8.2,7.4,8.3,7.3z"/></svg>