<svg viewBox="0 0 24 24" fill="#44739e" xmlns="http://www.w3.org/2000/svg"><title>hue:bulb-group-br30</title><desc>Source: https://github.com/arallsopp/hass-hue-icons</desc><path d="M4.36,4.69C4.35,5.01,4.38,5.32,4.43,5.61c-0.92,0.1-1.67,0.23-2.26,0.38c0.07-0.11,0.16-0.22,0.26-0.33 c0.3-0.32,0.71-0.58,1.19-0.8L4.36,4.69z M8.25,18.43c0.09,0,0.18,0,0.27,0c0.24,0,0.47-0.02,0.7-0.04c0.07,0.18,0.15,0.35,0.25,0.5 l0.21,0.32l0.2,0.05l0.04,1.2L9.45,21c-0.07,0.08-0.18,0.13-0.28,0.13H7.33c-0.11,0-0.21-0.05-0.28-0.13l-0.92-1.05 c-0.06-0.07-0.09-0.15-0.09-0.24l-0.05-1.48c0.6,0.12,1.26,0.2,1.98,0.2C8.06,18.43,8.16,18.43,8.25,18.43z M7.32,9.5L7.32,9.5 c0.47,0.38,0.9,0.73,1.14,1.03c0.57,0.71,0.56,1.04,0.52,2.04c-0.01,0.25-0.02,0.51-0.02,0.79v3.51c0,0.29,0.03,0.55,0.07,0.8 c-0.25,0.01-0.51,0.02-0.77,0.01H8.24c-1.01,0.03-1.92-0.12-2.68-0.32C5.39,17.08,5.3,16.7,5.3,16.23v-2.65 c0-0.2,0.01-0.39,0.01-0.57c0.03-0.8,0.04-1.29-0.56-2.04c-0.23-0.29-0.59-0.58-0.97-0.89C2.85,9.33,1.69,8.39,1.82,6.94 c0,0,0-0.03,0-0.07c0.63-0.19,1.55-0.39,2.82-0.52C5.19,7.76,6.42,8.77,7.32,9.5z M13.87,2.55L13.87,2.55 C13.87,2.55,13.88,2.55,13.87,2.55c3.85,0,6.38,0.34,8.05,0.75c-0.1-0.14-0.21-0.29-0.35-0.43c-1.31-1.36-3.95-2.04-7.7-2.01 c-3.84-0.04-6.39,0.65-7.7,2.01C6.03,3.01,5.92,3.16,5.82,3.3C7.49,2.89,10.02,2.55,13.87,2.55z M7.95,8.72 c0.51,0.41,0.99,0.8,1.29,1.18c0.8,1,0.78,1.64,0.74,2.7c-0.01,0.24-0.02,0.49-0.02,0.75v3.51c0,0.63,0.12,1.13,0.35,1.49 c1.01,0.27,2.21,0.47,3.55,0.43h0.03c1.34,0.05,2.53-0.14,3.53-0.41c0.24-0.36,0.36-0.86,0.36-1.5v-3.51c0-0.27-0.01-0.52-0.02-0.75 c-0.04-1.06-0.06-1.7,0.74-2.7c0.3-0.38,0.78-0.77,1.29-1.18c1.23-1,2.77-2.24,2.59-4.1c0-0.02,0-0.08-0.01-0.16 c-1.48-0.45-4.08-0.92-8.51-0.92c-4.44,0-7.03,0.46-8.51,0.92c0,0.05,0,0.08,0,0.09C5.18,6.48,6.72,7.72,7.95,8.72z M14.24,19.78 c-0.12,0-0.24,0-0.36,0s-0.24,0-0.36,0c-0.96,0-1.84-0.11-2.63-0.27l0.06,1.96c0,0.12,0.05,0.23,0.12,0.31l1.22,1.4 c0.09,0.11,0.23,0.17,0.38,0.17h2.43c0.14,0,0.28-0.06,0.38-0.17l1.22-1.4c0.08-0.09,0.12-0.2,0.12-0.31l0.06-1.96 C16.07,19.68,15.19,19.78,14.24,19.78z"/></svg>