<svg viewBox="0 0 24 24" height="24px" width="24px" fill="#44739e" xmlns="http://www.w3.org/2000/svg"><title>hue:bulb-group-go-sultan</title><desc>Source: https://github.com/arallsopp/hass-hue-icons</desc><path d="M16.94,7.1c-0.89,0-2.15-0.09-3.23-0.3c2.08,1.8,4.13,3.97,5.63,6.01c0.06-0.1,0.1-0.21,0.09-0.33 c-0.03-0.68,0.12-3.09,0.96-5.73C19.28,7.01,17.89,7.1,16.94,7.1z M16.94,6.48c1.69,0,2.95-0.2,3.73-0.44c0.29-0.58,1.16-2.19,0.2-3.06c-1.02-0.93-3.76-0.87-3.93-0.87 c-0.17,0-2.92-0.06-3.93,0.87c-0.95,0.88-0.09,2.49,0.2,3.06C13.99,6.27,15.25,6.48,16.94,6.48z M16.84,16.65c-2.89-2.04-6.85-6-8.9-8.9C5.87,4.81,6.5,4.02,9.42,6.04c2.96,2.05,7.07,6.17,9.12,9.13 C20.57,18.09,19.78,18.73,16.84,16.65 M19.57,14.91c-2.09-3.41-6.48-7.81-9.89-9.89C8.06,4.03,6.95,3.69,6.42,4.01 c-2.24,1.82-3.73,4.86-3.73,7.96c0,3.09,1.41,5.85,3.63,7.67H6.07c-0.62,0-1.12,0.5-1.12,1.12c0,0.62,0.51,1.12,1.12,1.12h5.9 c0.07,0,0.14-0.01,0.21-0.02c0.14,0.01,0.28,0.02,0.43,0.02c3.07,0,6.16-1.53,7.97-3.72C20.89,17.65,20.55,16.53,19.57,14.91"/></svg>