<svg viewBox="0 0 24 24" fill="#44739e" xmlns="http://www.w3.org/2000/svg"><title>hue:bulb-filament-alt</title><desc>Source: https://github.com/arallsopp/hass-hue-icons</desc><path d="M12.21,1.1c-0.3,0-0.81,0.25-0.81,0.25c0,0-1.69-0.12-3.39,1.32c-1.7,1.44-0.95,4.14-0.95,4.14l2.43,9.31 c0.12,0.01,0.24,0.02,0.36,0.03c0.37,0.02,1.61,0.09,2.41,0.1c0.9,0.01,2.59-0.05,2.69-0.05c0.03,0,0.05,0,0.08-0.01l2.41-9.18 c0,0,0.88-2.68-0.66-4.18c-1.53-1.49-3.66-1.48-3.66-1.48S12.51,1.1,12.21,1.1L12.21,1.1z M14.65,3.73c0.2,0.03,0.38,0.16,0.43,0.35 c0.04,0.12,0.02,0.25-0.05,0.35s-0.19,0.18-0.33,0.21l-3.46,0.75c-0.28,0.07-0.44,0.21-0.44,0.3c0,0.09,0.16,0.23,0.46,0.3 l3.33,0.79c0.54,0.13,0.9,0.56,0.9,1.04c0,0.48-0.37,0.91-0.9,1.04L10.6,9.8c-0.08,0.01-0.13,0.07-0.13,0.14 c-0.01,0.07,0.05,0.13,0.13,0.14l3.32,0.79c0.68,0.11,1.18,0.6,1.24,1.2c-0.05,0.6-0.56,1.1-1.25,1.21l-3.38,0.68H10.4 c-0.3,0.03-0.56-0.16-0.6-0.42c-0.03-0.26,0.18-0.49,0.48-0.52l3.36-0.68c0.28-0.07,0.44-0.21,0.44-0.3s-0.16-0.23-0.46-0.3 L10.29,11c-0.54-0.13-0.92-0.56-0.91-1.05c-0.01-0.49,0.37-0.92,0.91-1.04l3.99-0.94c0.08-0.01,0.13-0.07,0.13-0.14 c0-0.07-0.05-0.13-0.13-0.15l-3.31-0.8c-0.69-0.11-1.2-0.6-1.25-1.21c0.05-0.6,0.56-1.1,1.25-1.21l3.47-0.75 C14.51,3.72,14.58,3.72,14.65,3.73L14.65,3.73z M9.35,17.02c-0.01,0.25-0.06,0.49-0.15,0.72c-0.14,0.41-0.01,0.86,0.33,1.13 l0.41,2.52c0.03,0.21,0.13,0.39,0.29,0.53l0.45,0.4l0.08,0.08l0.46,0.54c0.18,0.22,0.46,0.34,0.74,0.34h0.7 c0.29,0,0.56-0.12,0.74-0.34l0.47-0.54l0.08-0.08l0.45-0.4c0.16-0.14,0.26-0.33,0.29-0.53l0.41-2.49c0.34-0.27,0.48-0.72,0.33-1.13 c-0.09-0.23-0.14-0.47-0.15-0.72c-0.95,0.09-1.9,0.15-2.73,0.15C11.47,17.2,10.41,17.14,9.35,17.02L9.35,17.02z"/></svg>