<svg viewBox="0 0 24 24" fill="#44739e" xmlns="http://www.w3.org/2000/svg"><title>hue:bulb-group-classic-hung-4</title><desc>Source: https://github.com/arallsopp/hass-hue-icons</desc><path d="M14.42,10.41c0.1-0.61,0.19-1.47,0.13-2.1c-0.04-0.4,0.26-0.75,0.66-0.79c0.65-0.07,1.38-0.11,2.21-0.11 s1.56,0.04,2.21,0.11c0.4,0.04,0.71,0.39,0.67,0.79c-0.06,0.63,0.02,1.49,0.13,2.1c0.24,1.41,1.24,2.08,1.81,3.59 c-1.41-0.45-3.48-0.59-4.82-0.59S14.01,13.55,12.6,14C13.18,12.49,14.18,11.82,14.42,10.41z M15.54,4.44 c0.02-0.16,0.11-0.32,0.23-0.43l0.35-0.32c0.03-0.02,0.05-0.05,0.07-0.07l0.37-0.44c0.14-0.17,0.36-0.27,0.59-0.27h0.55 c0.23,0,0.45,0.1,0.57,0.26l0.37,0.44c0.02,0.03,0.05,0.05,0.07,0.07L19.06,4c0.13,0.11,0.21,0.27,0.23,0.43l0.38,2.33 c-0.78-0.07-1.64-0.1-2.25-0.1s-1.47,0.03-2.25,0.1L15.54,4.44z M12.17,16.04c0-0.22,0.04-0.41,0.06-0.61 c0.03-0.19,0.06-0.35,0.1-0.53c0.82-0.35,2.55-0.75,5.09-0.75s4.27,0.39,5.09,0.74c0.04,0.18,0.08,0.34,0.1,0.53 c0.02,0.2,0.06,0.4,0.06,0.61c0,2.38-2.36,4.88-5.25,4.88S12.17,18.41,12.17,16.04z M5.83,7.44l-0.2-1.23 c-0.02-0.1-0.07-0.2-0.15-0.27l-0.22-0.2C5.25,5.73,5.23,5.72,5.22,5.7L4.99,5.43C4.92,5.32,4.78,5.26,4.63,5.26H4.28 c-0.15,0-0.29,0.06-0.38,0.17L3.66,5.71C3.65,5.72,3.64,5.74,3.62,5.75L3.4,5.95C3.32,6.02,3.26,6.12,3.25,6.22L3.01,7.7 C3.5,7.66,4.05,7.64,4.44,7.64c0.31,0,0.71,0.01,1.11,0.04C5.64,7.6,5.73,7.51,5.83,7.44z M1.11,13.6c0,1.41,1.31,2.87,2.99,3.06 c-0.46-0.69-0.73-1.47-0.73-2.22c0-0.16,0.01-0.3,0.03-0.41c0-0.04,0.01-0.08,0.01-0.12c0.01-0.01,0.01-0.03,0.01-0.04 c0.01-0.07,0.03-0.13,0.04-0.2c0-0.01,0-0.01,0-0.01c0-0.03,0.02-0.12,0.05-0.23v-0.01l0,0c0.07-0.28,0.2-0.71,0.23-0.78 c0.03-0.08,0.07-0.13,0.1-0.21c-1.28,0.05-2.19,0.26-2.64,0.45C1.18,13,1.16,13.1,1.14,13.22C1.13,13.35,1.1,13.47,1.11,13.6z M5.25,8.15C5,8.14,4.74,8.13,4.45,8.13c-0.53,0-1,0.03-1.41,0.07C2.79,8.22,2.59,8.45,2.62,8.7c0.04,0.4-0.02,0.95-0.08,1.34 c-0.15,0.89-0.79,1.32-1.16,2.28c0.78-0.25,1.87-0.35,2.7-0.37c0.14-0.25,0.28-0.48,0.42-0.68c0.28-0.42,0.5-0.74,0.57-1.18 C5.14,9.68,5.2,9.1,5.16,8.71C5.14,8.51,5.18,8.32,5.25,8.15z M14.23,6.88L13.95,5.2c-0.02-0.14-0.09-0.28-0.2-0.37l-0.3-0.28 c-0.02-0.02-0.04-0.03-0.06-0.06l-0.32-0.38c-0.1-0.13-0.29-0.22-0.49-0.22h-0.47c-0.2,0-0.39,0.08-0.51,0.23L11.28,4.5 c-0.02,0.02-0.03,0.04-0.06,0.06l-0.3,0.28c-0.11,0.09-0.18,0.23-0.2,0.37l-0.32,2c0.68-0.06,1.42-0.09,1.94-0.09 c0.43,0,1.01,0.02,1.57,0.06c0.02-0.01,0.03-0.03,0.04-0.05C14.04,7.04,14.13,6.95,14.23,6.88z M7.84,15.2 c0,2.04,2.03,4.19,4.52,4.19c0.02,0,0.04-0.01,0.06-0.01c-0.78-1.01-1.24-2.2-1.24-3.34c0-0.22,0.03-0.4,0.05-0.55 c0.01-0.05,0.01-0.11,0.02-0.16c0-0.02,0.01-0.04,0.01-0.06c0.01-0.1,0.03-0.18,0.05-0.27c0-0.01,0-0.01,0-0.01 c0-0.04,0.02-0.16,0.06-0.31v-0.01l0,0c0.1-0.38,0.27-0.94,0.31-1.04c0-0.02,0.01-0.03,0.02-0.05c-1.83,0.06-3.1,0.36-3.73,0.63 c-0.04,0.16-0.06,0.3-0.09,0.46C7.87,14.85,7.83,15.01,7.84,15.2z M10.45,7.85c-0.35,0.03-0.6,0.34-0.57,0.68 c0.05,0.55-0.02,1.29-0.11,1.81c-0.21,1.21-1.07,1.79-1.57,3.09c1.1-0.35,2.65-0.48,3.79-0.5c0.22-0.44,0.47-0.81,0.69-1.14 c0.37-0.55,0.66-0.98,0.76-1.56c0.09-0.55,0.17-1.33,0.12-1.84c-0.02-0.19,0-0.39,0.05-0.58c-0.39-0.02-0.8-0.04-1.26-0.04 C11.63,7.77,11.01,7.81,10.45,7.85z M4.12,14.43c0,1.78,1.77,3.66,3.94,3.66l0,0c-0.34-0.42-0.6-0.89-0.79-1.37 c0-0.02-0.01-0.04-0.02-0.06c-0.08-0.23-0.14-0.45-0.19-0.68c-0.01-0.04-0.01-0.07-0.02-0.11C7,15.65,6.97,15.42,6.97,15.19 c0-0.18,0.02-0.34,0.04-0.47c0.01-0.05,0.02-0.09,0.02-0.14c0.01-0.02,0.01-0.03,0.01-0.05c0.01-0.08,0.03-0.16,0.04-0.23 c0-0.01,0-0.01,0-0.01c-0.01-0.03,0.02-0.13,0.05-0.26v-0.01l0,0c0.09-0.32,0.24-0.81,0.27-0.89c0.01-0.03,0.03-0.06,0.04-0.09 c-1.57,0.06-2.65,0.32-3.2,0.55c-0.03,0.14-0.06,0.26-0.08,0.4C4.15,14.14,4.12,14.28,4.12,14.43z M9.1,8 C8.78,7.98,8.44,7.96,8.07,7.96c-0.62,0-1.17,0.03-1.66,0.08c-0.3,0.03-0.53,0.29-0.5,0.59c0.04,0.48-0.02,1.12-0.1,1.58 c-0.18,1.06-0.93,1.57-1.37,2.7c0.95-0.3,2.27-0.41,3.26-0.43c0.19-0.34,0.39-0.65,0.57-0.92c0.31-0.48,0.57-0.85,0.65-1.35 c0.07-0.47,0.14-1.14,0.1-1.58C9,8.41,9.03,8.2,9.1,8z M9.72,7.25L9.47,5.72C9.46,5.6,9.4,5.48,9.3,5.4L9.03,5.16 C9.02,5.15,9,5.13,8.98,5.11L8.7,4.8C8.61,4.68,8.44,4.6,8.27,4.6H7.86c-0.17,0-0.33,0.07-0.44,0.2L7.14,5.13 C7.13,5.14,7.11,5.16,7.09,5.18L6.83,5.42C6.74,5.5,6.68,5.62,6.66,5.74L6.38,7.48C6.97,7.42,7.61,7.4,8.07,7.4 c0.38,0,0.9,0.01,1.4,0.05C9.54,7.38,9.63,7.31,9.72,7.25z"/></svg>