<svg viewBox="0 0 24 24" fill="#44739e" xmlns="http://www.w3.org/2000/svg"><title>hue:bulb-group-bollard-wall-appear-go</title><desc>Source: https://github.com/arallsopp/hass-hue-icons</desc><path d="M8.47,9.68L8.47,9.68C7.86,9.51,7.03,9.41,6.15,9.41s-1.72,0.1-2.38,0.27c-0.78,0.21-1.21,0.51-1.21,0.85v11.44 c0,0.21,0.16,0.5,0.93,0.74c0.64,0.19,1.49,0.3,2.4,0.3c0.9,0,1.8-0.11,2.48-0.3c0.73-0.21,1.11-0.49,1.11-0.82V10.45 C9.49,10.14,9.14,9.88,8.47,9.68z M8.68,11.93v2.34c0,0.3-1.01,0.71-2.66,0.71s-2.65-0.42-2.65-0.71v-2.34 c0-0.02,0.01-0.03,0.02-0.03c0,0,0.01-0.01,0.02-0.01c0.01,0,0.02,0,0.03,0.01c0.51,0.33,1.55,0.55,2.59,0.55s2.07-0.23,2.58-0.55 c0.02-0.02,0.04-0.01,0.05,0C8.68,11.9,8.68,11.92,8.68,11.93z M7.6,10.37c0.44,0.11,0.52,0.23,0.52,0.26 c0,0.04-0.11,0.17-0.59,0.29c-0.89,0.22-2.33,0.22-3.14,0c-0.38-0.11-0.47-0.22-0.47-0.25c0-0.03,0.11-0.18,0.65-0.3 C5.44,10.17,6.79,10.17,7.6,10.37z M17.06,0.95c-2.7,0-4.74,1.09-4.74,2.53v2.6L10.73,6.8c-0.18,0.08-0.3,0.26-0.3,0.46v10.81 c0,0.28,0.22,0.5,0.5,0.5h1.38v1.92c0,1.44,2.04,2.53,4.74,2.53s4.74-1.09,4.74-2.53v-17C21.8,2.04,19.76,0.95,17.06,0.95z M17.06,22.01c-2.14,0-3.74-0.81-3.74-1.53s1.6-1.53,3.74-1.53s3.74,0.81,3.74,1.53S19.2,22.01,17.06,22.01z M9.23,5.78C8.36,4.35,6.52,2.51,5.1,1.65C4.42,1.23,3.96,1.09,3.74,1.22C2.8,1.98,2.18,3.25,2.18,4.55 c0,1.29,0.59,2.44,1.52,3.2h-0.1c-0.26,0-0.47,0.21-0.47,0.47c0,0.26,0.21,0.47,0.47,0.47h2.46c0.03,0,0.06,0,0.09-0.01 c0.06,0,0.12,0.01,0.18,0.01c1.28,0,2.57-0.64,3.33-1.55C9.78,6.92,9.64,6.45,9.23,5.78z M7.82,6.12c-0.99-0.7-2.36-2.06-3.06-3.06 c-0.71-1.01-0.5-1.29,0.51-0.59C6.29,3.17,7.7,4.59,8.41,5.61C9.11,6.61,8.83,6.83,7.82,6.12z"/></svg>