<svg viewBox="0 0 24 24" fill="#44739e" xmlns="http://www.w3.org/2000/svg"><title>hue:bulb-group-br30-hung-off</title><desc>Source: https://github.com/arallsopp/hass-hue-icons</desc><path d="M1.5,3.24l3.75,3.75c-0.13,0.26-0.21,0.58-0.21,1v2.65c0,0.2,0.01,0.39,0.01,0.57 c0.03,0.8,0.04,1.29-0.56,2.04c-0.23,0.29-0.59,0.58-0.97,0.89c-0.93,0.75-2.09,1.69-1.96,3.15c0,0,0,0.03,0,0.07 c0.63,0.19,1.55,0.39,2.82,0.52c0.55-1.43,1.78-2.43,2.68-3.17c0.47-0.38,0.9-0.73,1.14-1.03c0.57-0.71,0.56-1.04,0.52-2.04 c-0.01-0.24-0.02-0.5-0.02-0.78v-0.41l1.02,1.02c0,0.05,0,0.1,0,0.15c0.04,1.06,0.06,1.7-0.74,2.7c-0.3,0.38-0.78,0.77-1.29,1.18 c-1.23,1-2.77,2.24-2.6,4.16c0,0.01,0,0.04,0,0.09c1.48,0.46,4.07,0.92,8.51,0.92c2.06,0,3.72-0.1,5.06-0.26l0.9,0.9 c-1.51,0.21-3.45,0.36-5.95,0.36c-3.84,0-6.38-0.34-8.05-0.75c0.1,0.14,0.21,0.28,0.35,0.43c1.31,1.36,3.86,2.05,7.7,2.01 c2.99,0.02,5.25-0.41,6.72-1.28l0.26,0.26l1.38-1.38L2.88,1.86L1.5,3.24z M13.62,4.43c0.12,0,0.24,0,0.36,0c0.96,0,1.83,0.1,2.64,0.27l-0.06-1.96c0-0.11-0.04-0.22-0.12-0.31l-1.22-1.4 c-0.1-0.11-0.24-0.17-0.38-0.17h-2.43c-0.15,0-0.29,0.06-0.38,0.17l-1.22,1.4c-0.07,0.08-0.12,0.19-0.12,0.31L10.63,4.7 c0.79-0.16,1.67-0.27,2.63-0.27C13.38,4.43,13.5,4.43,13.62,4.43z M19.53,15.48c-0.51-0.41-0.99-0.8-1.29-1.18c-0.8-1-0.78-1.64-0.74-2.7c0.01-0.23,0.02-0.48,0.02-0.75V7.34 c0-0.64-0.12-1.14-0.36-1.5c-1-0.27-2.19-0.46-3.53-0.41H13.6c-1.34-0.04-2.54,0.16-3.55,0.43c-0.2,0.32-0.31,0.77-0.33,1.3 l12.4,12.4C22.29,17.71,20.76,16.48,19.53,15.48z M8.96,5.83c0.07-0.18,0.15-0.35,0.25-0.5L9.42,5l0.2-0.05l0.04-1.2L9.19,3.21C9.12,3.13,9.02,3.08,8.91,3.08 H7.07c-0.11,0-0.21,0.05-0.28,0.13L6.31,3.75L8.36,5.8C8.56,5.8,8.76,5.81,8.96,5.83z M2.18,18.55c0.3,0.32,0.71,0.58,1.19,0.8l0.73,0.18C4.09,19.2,4.12,18.9,4.18,18.6 c-0.92-0.1-1.67-0.23-2.26-0.38C1.99,18.33,2.08,18.44,2.18,18.55z"/></svg>