<svg viewBox="0 0 24 24" fill="#44739e" xmlns="http://www.w3.org/2000/svg"><title>hue:bulb-group-candle-filament-hung</title><desc>Source: https://github.com/arallsopp/hass-hue-icons</desc><path d="M7.09,11.25l0.01-0.02c0.1-0.16,0.21-0.33,0.33-0.49c0.38-0.54,0.74-0.97,1.08-1.33 C7.96,6.18,6.44,2.6,5.35,2.6c-1.27,0-3.13,4.85-3.34,8.37c0.7,0.2,1.83,0.37,3.34,0.37C6.01,11.34,6.58,11.31,7.09,11.25z M5.85,16.04c-0.18,0-0.35,0.01-0.5,0.01c-0.46,0-1.1-0.02-1.68-0.07l0.28,1.67c0.01,0.12,0.07,0.23,0.17,0.31l0.26,0.23 c0.02,0.02,0.03,0.03,0.05,0.05l0.28,0.32c0.11,0.12,0.27,0.19,0.44,0.19h0.41c0.17,0,0.33-0.07,0.44-0.19l0.24-0.27 C6,17.56,5.88,16.81,5.85,16.04z M5.84,15.36c0.04-1.18,0.34-2.34,0.87-3.41c-0.49,0.04-0.97,0.06-1.36,0.06 c-0.93,0-2.32-0.09-3.36-0.36c0,0.03,0,0.06,0,0.09c0,1.66,0.51,2.84,1.16,3.49c0.6,0.09,1.34,0.14,2.2,0.14 C5.53,15.38,5.68,15.37,5.84,15.36z M11.45,6.93c-0.01-0.25-0.06-0.49-0.15-0.72c-0.14-0.41-0.01-0.86,0.33-1.13l0.41-2.49 c0.03-0.21,0.13-0.4,0.28-0.53l0.45-0.4l0.09-0.08l0.47-0.54c0.18-0.22,0.45-0.34,0.74-0.34h0.7c0.29,0,0.56,0.12,0.74,0.34 l0.47,0.54l0.09,0.08l0.45,0.4c0.16,0.14,0.26,0.33,0.28,0.53l0.41,2.51c0.34,0.27,0.48,0.72,0.33,1.13 c-0.09,0.23-0.14,0.47-0.15,0.72c-1.06-0.12-2.12-0.18-3.19-0.18C13.35,6.78,12.4,6.84,11.45,6.93z M6.82,15.68 c0-1.31,0.34-2.6,1.01-3.74l0.1-0.16c0.09-0.15,0.19-0.3,0.29-0.44c1.29-1.85,2.34-2.25,2.99-3.45c0.98-0.11,1.97-0.16,2.95-0.16 c1.16,0,2.31,0.07,3.46,0.21c0.65,1.16,1.69,1.58,2.96,3.4c0.1,0.14,0.2,0.29,0.29,0.44l0.1,0.16c1.6,2.72,1.3,6.14-0.75,8.55 s-5.42,3.3-8.42,2.22C8.81,21.64,6.82,18.83,6.82,15.68L6.82,15.68z M12.52,15.15c-0.47,0.13-0.8,0.56-0.8,1.04 c0,0.48,0.33,0.91,0.8,1.04l2.94,0.79c0.27,0.07,0.41,0.21,0.41,0.3s-0.14,0.22-0.39,0.3l-3.06,0.75c-0.12,0.03-0.23,0.1-0.29,0.21 c-0.06,0.11-0.08,0.23-0.05,0.35c0.07,0.25,0.32,0.4,0.57,0.35l3.07-0.75c0.6-0.11,1.06-0.6,1.1-1.21c-0.04-0.6-0.5-1.1-1.1-1.21 l-2.92-0.8c-0.07-0.02-0.12-0.08-0.11-0.15c0-0.07,0.05-0.13,0.11-0.14l3.52-0.93c0.48-0.12,0.81-0.55,0.81-1.04 S16.8,13.13,16.32,13l-2.94-0.74c-0.27-0.07-0.41-0.21-0.41-0.3s0.14-0.22,0.39-0.3l2.96-0.68c0.26-0.03,0.45-0.26,0.42-0.52 s-0.26-0.44-0.53-0.42H16.1l-2.98,0.68c-0.6,0.11-1.06,0.6-1.1,1.21c0.05,0.6,0.5,1.08,1.09,1.2l2.93,0.79 c0.07,0.01,0.12,0.07,0.11,0.14c0,0.07-0.05,0.13-0.11,0.14L12.52,15.15z"/></svg>