<svg viewBox="0 0 24 24" fill="#44739e" xmlns="http://www.w3.org/2000/svg"><title>hue:bulb-filament-a19</title><desc>Source: https://github.com/arallsopp/hass-hue-icons</desc><path d="M13.02,22.69l0.6-0.69c0.91-0.25,0.81-0.75,0.81-0.75l0.04-3.12l0.33-0.21l0.42-0.67l0.04-0.91 c0,0-1.64,0.32-3.2,0.32s-3.33-0.32-3.33-0.32l0.04,0.91l0.42,0.67l0.33,0.21l0.04,3.12c0,0-0.1,0.5,0.81,0.75l0.6,0.69 c0,0,0.47,0.16,1.03,0.16C12.56,22.85,13.02,22.69,13.02,22.69z M17.63,5.83c-1.33-4.9-5.59-4.74-5.59-4.74S7.78,0.93,6.45,5.83c-0.62,2.49,0.37,3.62,1.16,4.82 c0,0,1.04,1.08,1.04,2.99c0,1.5,0.17,1.62,0.17,1.62s1,0.37,3.33,0.37c2.33,0,3.11-0.37,3.11-0.37s0.17-0.23,0.17-1.62 c0-1.91,1.04-2.99,1.04-2.99C17.26,9.45,18.25,8.32,17.63,5.83z M10.11,11.01c-0.05-0.25-0.08-0.53,0.51-0.65l3.21-0.85 c0.07-0.01,0.12-0.07,0.11-0.14c0-0.07-0.05-0.13-0.11-0.14L10.3,8.29C9.83,8.16,9.5,7.73,9.5,7.25c0-0.48,0.33-0.91,0.8-1.04 l2.94-0.79c0.27-0.07,0.41-0.21,0.41-0.3c0-0.09-0.14-0.22-0.39-0.3L10.2,4.07c-0.12-0.03-0.23-0.1-0.29-0.21 C9.85,3.75,9.83,3.63,9.86,3.51c0.07-0.25,0.32-0.4,0.57-0.35l3.07,0.75c0.6,0.11,1.06,0.6,1.1,1.21c-0.04,0.6-0.5,1.1-1.1,1.21 l-2.92,0.8c-0.07,0.02-0.12,0.08-0.11,0.15c0,0.07,0.05,0.13,0.11,0.14l3.52,0.93c0.48,0.12,0.81,0.55,0.81,1.04 s-0.33,0.92-0.81,1.05l-3.28,0.91C10.83,11.34,10.19,11.45,10.11,11.01z"/></svg>