<svg viewBox="0 0 24 24" height="24px" width="24px" fill="#44739e" xmlns="http://www.w3.org/2000/svg"><title>hue:bulb-group-classic-hung-4-alt</title><desc>Source: https://github.com/arallsopp/hass-hue-icons</desc><path d="M16.82,12.43c-1.41-0.45-3.48-0.59-4.82-0.59s-3.41,0.14-4.82,0.59c0.57-1.51,1.57-2.18,1.81-3.59 c0.11-0.61,0.19-1.47,0.13-2.1c-0.04-0.4,0.27-0.75,0.67-0.79c0.65-0.07,1.38-0.11,2.21-0.11s1.56,0.04,2.21,0.11 c0.4,0.04,0.7,0.39,0.66,0.79C14.81,7.37,14.9,8.23,15,8.84C15.24,10.25,16.24,10.92,16.82,12.43z M14.25,5.19c-0.78-0.07-1.64-0.1-2.25-0.1s-1.47,0.03-2.25,0.1l0.38-2.33c0.02-0.16,0.1-0.32,0.23-0.43 l0.35-0.32c0.02-0.02,0.05-0.04,0.07-0.07l0.37-0.44c0.12-0.16,0.34-0.26,0.57-0.26h0.55c0.23,0,0.45,0.1,0.59,0.27l0.37,0.44 c0.02,0.02,0.04,0.05,0.07,0.07l0.35,0.32c0.12,0.11,0.21,0.27,0.23,0.43L14.25,5.19z M12,19.34c-2.89,0-5.25-2.5-5.25-4.88c0-0.21,0.04-0.41,0.06-0.61c0.02-0.19,0.06-0.35,0.1-0.53 c0.82-0.35,2.55-0.74,5.09-0.74s4.27,0.4,5.09,0.75c0.04,0.18,0.07,0.34,0.1,0.53c0.02,0.2,0.06,0.39,0.06,0.61 C17.25,16.84,14.89,19.34,12,19.34z M46.82,12.43c-1.41-0.45-3.48-0.59-4.82-0.59s-3.41,0.14-4.82,0.59c0.57-1.51,1.57-2.18,1.81-3.59 c0.11-0.61,0.19-1.47,0.13-2.1c-0.04-0.4,0.27-0.75,0.67-0.79c0.65-0.07,1.38-0.11,2.21-0.11c0.83,0,1.56,0.04,2.21,0.11 c0.4,0.04,0.7,0.39,0.66,0.79C44.81,7.37,44.9,8.23,45,8.84C45.24,10.25,46.24,10.92,46.82,12.43z M44.25,5.19c-0.78-0.07-1.64-0.1-2.25-0.1s-1.47,0.03-2.25,0.1l0.38-2.33c0.02-0.16,0.1-0.32,0.23-0.43 l0.35-0.32c0.02-0.02,0.05-0.04,0.07-0.07l0.37-0.44c0.12-0.16,0.34-0.26,0.57-0.26h0.55c0.23,0,0.45,0.1,0.59,0.27l0.37,0.44 c0.02,0.02,0.04,0.05,0.07,0.07l0.35,0.32c0.12,0.11,0.21,0.27,0.23,0.43L44.25,5.19z M42,19.34c-2.89,0-5.25-2.5-5.25-4.88c0-0.21,0.04-0.41,0.06-0.61c0.02-0.19,0.06-0.35,0.1-0.53 c0.82-0.35,2.55-0.74,5.09-0.74s4.27,0.4,5.09,0.75c0.04,0.18,0.07,0.34,0.1,0.53c0.02,0.2,0.06,0.39,0.06,0.61 C47.25,16.84,44.89,19.34,42,19.34z M41.24,16.08c-1.09-0.35-2.69-0.46-3.73-0.46s-2.64,0.11-3.73,0.46c0.44-1.17,1.21-1.69,1.4-2.78 c0.09-0.47,0.15-1.14,0.1-1.62c-0.03-0.31,0.21-0.58,0.52-0.61c0.5-0.05,1.07-0.09,1.71-0.09s1.21,0.03,1.71,0.09 c0.31,0.03,0.54,0.3,0.51,0.61c-0.05,0.49,0.02,1.15,0.1,1.62C40.02,14.4,40.79,14.91,41.24,16.08z M39.25,10.48c-0.6-0.05-1.27-0.08-1.74-0.08c-0.47,0-1.14,0.02-1.74,0.08l0.29-1.8 c0.02-0.12,0.08-0.25,0.18-0.33l0.27-0.25c0.02-0.02,0.04-0.03,0.05-0.05l0.29-0.34c0.09-0.12,0.26-0.2,0.44-0.2h0.43 c0.18,0,0.35,0.08,0.46,0.21l0.29,0.34c0.02,0.02,0.03,0.04,0.05,0.05l0.27,0.25c0.09,0.09,0.16,0.21,0.18,0.33L39.25,10.48z M37.51,21.43c-2.24,0-4.06-1.93-4.06-3.78c0-0.16,0.03-0.32,0.05-0.47c0.02-0.15,0.05-0.27,0.08-0.41 c0.63-0.27,1.97-0.57,3.94-0.57c1.97,0,3.3,0.31,3.94,0.58c0.03,0.14,0.05,0.26,0.08,0.41c0.02,0.15,0.05,0.3,0.05,0.47 C41.57,19.49,39.75,21.43,37.51,21.43z M13.73,20.08c-0.55,0.16-1.12,0.26-1.73,0.26c-0.59,0-1.17-0.09-1.73-0.26c-0.4,0.54-0.92,1.01-1.53,1.36 c0.74,0.95,1.92,1.65,3.26,1.65c1.34,0,2.52-0.7,3.26-1.65C14.65,21.09,14.13,20.61,13.73,20.08z M6.08,16.22c-1.74,0.04-2.94,0.31-3.53,0.57c-0.03,0.14-0.06,0.26-0.08,0.41c-0.02,0.15-0.05,0.31-0.05,0.47 c0,1.84,1.83,3.78,4.07,3.78c1.3,0,2.46-0.67,3.2-1.58C8.03,19.19,6.67,17.82,6.08,16.22z M5.75,14.46c0-0.21,0.02-0.39,0.04-0.55c0.01-0.05,0.01-0.11,0.02-0.17c0.02-0.16,0.05-0.29,0.07-0.41 c0.01-0.04,0.01-0.08,0.02-0.12c0-0.01,0-0.03,0.01-0.04l0.02-0.07c0,0,0,0,0-0.01c0.09-0.41,0.24-0.85,0.31-1.02 c0.16-0.41,0.34-0.76,0.52-1.08c-0.09,0-0.18-0.01-0.28-0.01c-0.64,0-1.21,0.03-1.71,0.09c-0.31,0.03-0.55,0.3-0.52,0.61 c0.05,0.49-0.02,1.15-0.1,1.63c-0.19,1.09-0.96,1.61-1.4,2.78c0.91-0.29,2.15-0.41,3.15-0.44C5.8,15.26,5.75,14.86,5.75,14.46z M7.13,10.42c0.04-0.06,0.08-0.13,0.12-0.19c0.33-0.5,0.59-0.91,0.71-1.42L7.95,8.69 C7.93,8.56,7.86,8.44,7.77,8.35L7.5,8.1C7.47,8.09,7.46,8.07,7.44,8.05L7.16,7.71C7.05,7.58,6.88,7.5,6.7,7.5H6.27 c-0.18,0-0.35,0.08-0.44,0.2L5.54,8.04C5.53,8.07,5.51,8.08,5.49,8.1L5.22,8.34c-0.1,0.09-0.16,0.21-0.18,0.33l-0.29,1.81 c0.6-0.05,1.27-0.08,1.74-0.08C6.68,10.41,6.9,10.41,7.13,10.42z M21.53,17.2c-0.02-0.15-0.05-0.27-0.08-0.41c-0.59-0.25-1.8-0.53-3.54-0.57c-0.58,1.54-1.88,2.96-3.59,3.66 c0.75,0.91,1.89,1.57,3.2,1.57c2.24,0,4.07-1.94,4.07-3.77C21.58,17.5,21.55,17.36,21.53,17.2z M17.75,12.07c0.04,0.1,0.21,0.66,0.31,1.04c0,0,0,0,0,0c0,0,0,0.01,0,0.01c0.04,0.15,0.06,0.27,0.06,0.31 c0,0,0,0,0,0.01c0.02,0.09,0.04,0.17,0.05,0.27c0,0.02,0.01,0.04,0.01,0.06c0.01,0.05,0.01,0.11,0.02,0.16 c0.02,0.15,0.05,0.33,0.05,0.55c0,0.39-0.06,0.79-0.16,1.18c1,0.03,2.24,0.15,3.16,0.44c-0.45-1.17-1.22-1.69-1.41-2.78 c-0.08-0.47-0.15-1.14-0.1-1.63c0.03-0.31-0.2-0.58-0.51-0.61c-0.5-0.05-1.07-0.09-1.71-0.09c-0.1,0-0.19,0.01-0.28,0.01 C17.41,11.31,17.6,11.66,17.75,12.07z M16.74,10.23c0.04,0.06,0.08,0.12,0.12,0.18c0.23-0.01,0.46-0.01,0.64-0.01c0.47,0,1.14,0.02,1.74,0.08 l-0.29-1.8c-0.02-0.12-0.09-0.25-0.18-0.33L18.52,8.1c-0.02-0.02-0.04-0.04-0.05-0.05l-0.29-0.34C18.07,7.58,17.9,7.5,17.72,7.5 h-0.43c-0.18,0-0.35,0.08-0.44,0.2l-0.29,0.34c-0.02,0.02-0.04,0.04-0.05,0.05l-0.27,0.25c-0.1,0.09-0.16,0.21-0.18,0.33l-0.03,0.17 C16.16,9.34,16.42,9.74,16.74,10.23z M-1.8,13.92c-0.01-0.05-0.01-0.11-0.02-0.16c0-0.02,0-0.04-0.01-0.06c-0.02-0.1-0.03-0.18-0.05-0.27 c0,0,0,0,0-0.01c0-0.04-0.02-0.16-0.06-0.31c0,0,0-0.01,0-0.01c0,0,0,0,0,0c-0.1-0.38-0.27-0.94-0.31-1.04 c-0.29-0.77-0.67-1.33-1.01-1.83c-0.37-0.55-0.66-0.98-0.76-1.56C-4.1,8.12-4.18,7.35-4.13,6.83c0.05-0.46-0.09-0.91-0.4-1.27 C-4.82,5.21-5.24,5-5.69,4.95c-0.03,0-0.07,0-0.1-0.01l-0.33-2.08c-0.02-0.16-0.11-0.32-0.23-0.43L-6.7,2.12 C-6.73,2.1-6.75,2.07-6.77,2.05l-0.37-0.44C-7.28,1.44-7.5,1.34-7.73,1.34h-0.55c-0.23,0-0.45,0.1-0.57,0.26l-0.37,0.44 c-0.02,0.03-0.05,0.05-0.07,0.07l-0.35,0.32C-9.77,2.54-9.85,2.7-9.87,2.86l-0.34,2.09c-0.03,0-0.07,0-0.11,0.01 c-0.95,0.09-1.65,0.94-1.56,1.88c0.05,0.52-0.02,1.29-0.12,1.82c-0.1,0.59-0.39,1.02-0.75,1.57c-0.34,0.5-0.72,1.07-1.01,1.85 c-0.06,0.16-0.21,0.61-0.31,1.02c0,0,0,0,0,0.01l-0.02,0.07c0,0.01,0,0.03-0.01,0.04c-0.01,0.04-0.01,0.08-0.02,0.12 c-0.03,0.13-0.06,0.25-0.07,0.41c-0.01,0.06-0.01,0.11-0.02,0.17c-0.02,0.15-0.04,0.34-0.04,0.55c0,3.08,2.98,5.88,6.25,5.88 c3.58,0,6.25-3.1,6.25-5.87C-1.75,14.25-1.77,14.07-1.8,13.92z"/></svg>