<svg viewBox="0 0 24 24" fill="#44739e" xmlns="http://www.w3.org/2000/svg"><title>hue:bulb-group-sultan-3-hung</title><desc>Source: https://github.com/arallsopp/hass-hue-icons</desc><path d="M12.19,23.14c-0.24,0-4.14,0.08-5.6-1.28c-1.35-1.27-0.13-3.63,0.29-4.47c1.11-0.33,2.9-0.63,5.3-0.63 s4.18,0.3,5.3,0.63c0.42,0.84,1.64,3.19,0.29,4.47C16.32,23.22,12.44,23.14,12.19,23.14z M7.25,16.35C8.46,12.5,8.67,9,8.62,7.99 c0-0.24,0.07-0.45,0.22-0.64l0.4-0.47c0.84-0.12,1.83-0.17,2.93-0.17s2.1,0.07,2.93,0.17l0.4,0.47c0.14,0.16,0.22,0.4,0.21,0.63 c-0.03,0.99,0.16,4.52,1.37,8.36c-1.58-0.37-3.56-0.5-4.91-0.5S8.85,15.97,7.25,16.35z M9.95,3.12c0.02-0.2,0.12-0.4,0.26-0.52 l0.42-0.38c0.03-0.02,0.06-0.06,0.08-0.08l0.44-0.54c0.16-0.21,0.43-0.33,0.7-0.33h0.65c0.27,0,0.52,0.12,0.68,0.33l0.44,0.54 c0.02,0.03,0.06,0.06,0.08,0.08l0.42,0.38c0.15,0.14,0.24,0.33,0.27,0.52l0.45,2.83c-0.93-0.09-1.94-0.13-2.67-0.13 s-1.75,0.03-2.67,0.13L9.95,3.12z M6.11,16.35c-1.55,0.08-2.75,0.29-3.55,0.52c-0.38,0.75-1.51,2.86-0.27,4 c0.65,0.59,1.83,0.87,2.89,1.01c-0.94-1.79,0.2-4.11,0.62-4.95l0.03-0.08c0.07-0.13,0.15-0.26,0.27-0.35 C6.09,16.46,6.11,16.4,6.11,16.35z M8.77,3.19L8.77,3.19L8.36,2.71C8.22,2.52,8,2.42,7.75,2.42H7.15c-0.24,0-0.49,0.1-0.64,0.29 L6.11,3.19C6.08,3.21,6.06,3.24,6.02,3.27L5.64,3.62C5.5,3.73,5.42,3.91,5.4,4.08L4.98,6.62C5.83,6.54,6.77,6.5,7.43,6.5 c0.19,0,0.38,0.01,0.59,0.01l0.33-0.38l0.01-0.01C8.34,6,8.34,5.88,8.36,5.76L8.77,3.19z M7.44,7.28c-1.02,0-1.93,0.06-2.7,0.15 L4.38,7.86C4.24,8.02,4.17,8.22,4.17,8.44c0.03,0.9-0.16,4.04-1.27,7.5c1.06-0.23,2.29-0.36,3.36-0.42 c1.09-3.69,1.22-6.81,1.19-7.47c0-0.27,0.05-0.51,0.12-0.73C7.53,7.31,7.49,7.31,7.44,7.28z M18.27,16.52 c0.12,0.09,0.2,0.22,0.27,0.35l0.03,0.08c0.42,0.84,1.56,3.15,0.62,4.95c1.06-0.14,2.24-0.42,2.89-1.01c1.25-1.14,0.12-3.26-0.27-4 c-0.8-0.23-2-0.44-3.55-0.52C18.26,16.4,18.27,16.46,18.27,16.52z M16,5.76c0.02,0.12,0.02,0.24,0,0.36l0.01,0.01l0.33,0.38 c0.21,0,0.41-0.01,0.59-0.01c0.66,0,1.61,0.03,2.46,0.12l-0.42-2.54c-0.02-0.17-0.1-0.35-0.24-0.47l-0.38-0.35 c-0.03-0.02-0.06-0.06-0.08-0.08l-0.41-0.48c-0.15-0.19-0.4-0.29-0.64-0.29h-0.59c-0.26,0-0.48,0.1-0.62,0.29l-0.41,0.48l0,0 L16,5.76z M16.79,7.31c0.07,0.22,0.12,0.47,0.12,0.73C16.87,8.7,17,11.83,18.1,15.52c1.07,0.06,2.31,0.19,3.36,0.42 c-1.11-3.46-1.3-6.6-1.27-7.5c0-0.22-0.07-0.42-0.21-0.58l-0.36-0.42c-0.77-0.09-1.68-0.15-2.7-0.15 C16.87,7.31,16.84,7.31,16.79,7.31z"/></svg>