<svg viewBox="0 0 24 24" height="24px" width="24px" fill="#44739e" xmlns="http://www.w3.org/2000/svg"><title>hue:bulb-golfball-e14</title><desc>Source: https://github.com/arallsopp/hass-hue-icons</desc><path d="M12.3,6.2c2.9,0,4.9,0.1,6.4,0.2c-0.1-2.8-1.1-5.6-6.7-5.6C6.4,0.7,5.4,3.7,5.3,6.4C7,6.3,9.3,6.2,12.3,6.2z M12.3,7.2c-3,0-5.3,0.1-7,0.3c0.2,2.2,1.3,5.4,3.1,7.5c0.3,0.4,0.6,0.7,0.9,1c0,0,0.6,0.2,2.7,0.2s2.7-0.2,2.7-0.2 c0.3-0.3,0.6-0.6,0.9-1c1.8-2.1,2.9-5.4,3.1-7.6C17.2,7.3,15.2,7.2,12.3,7.2z M15,17c-0.9,0.1-1.9,0.2-2.7,0.2c-1.1,0-2.1-0.1-3.2-0.2c0,0.2-0.1,0.5-0.2,0.7c-0.1,0.4,0,0.9,0.3,1.1l0.4,2.5 c0,0.2,0.1,0.4,0.3,0.5l0.4,0.4l0.1,0.1l0.5,0.5c0.2,0.2,0.5,0.3,0.7,0.3h0.7c0.3,0,0.6-0.1,0.7-0.3l0.5-0.5l0.1-0.1l0.4-0.4 c0.2-0.1,0.3-0.3,0.3-0.5l0.4-2.5c0.3-0.3,0.5-0.7,0.3-1.1C15,17.5,15,17.3,15,17z"/></svg>