<svg viewBox="0 0 24 24" height="24px" width="24px" fill="#44739e" xmlns="http://www.w3.org/2000/svg"><title>hue:bulb-group-classic-hung</title><desc>Source: https://github.com/arallsopp/hass-hue-icons</desc><path d="M10.12,7.95L9.82,6.12C9.81,5.99,9.74,5.87,9.65,5.79L9.37,5.53C9.35,5.52,9.34,5.5,9.32,5.48L9.03,5.14 C8.92,5,8.75,4.93,8.57,4.93H8.14C7.95,4.93,7.78,5,7.67,5.14L7.38,5.48C7.37,5.5,7.35,5.52,7.33,5.53L7.06,5.79 c-0.1,0.09-0.16,0.21-0.18,0.34L6.58,7.95C7.2,7.89,7.87,7.87,8.35,7.87S9.51,7.89,10.12,7.95z M8.35,19.07c0.43,0,0.83-0.09,1.22-0.21c-0.5-0.83-0.8-1.77-0.8-2.74c0-0.21,0.03-0.39,0.05-0.54 c0.01-0.05,0.02-0.11,0.02-0.19c0.03-0.23,0.07-0.42,0.11-0.62c0.01-0.02,0.01-0.05,0.02-0.07l0.27-0.9c0,0,0-0.01,0-0.01 c-0.29-0.01-0.58-0.02-0.9-0.02c-2,0-3.36,0.31-4,0.58c-0.03,0.14-0.06,0.26-0.08,0.41c-0.02,0.16-0.05,0.31-0.05,0.48 C4.22,17.11,6.08,19.07,8.35,19.07z M9.49,13.22c0.25-0.52,0.53-0.94,0.78-1.33c0.2-0.29,0.37-0.55,0.5-0.82c-0.02-0.08-0.05-0.16-0.06-0.25 c-0.08-0.48-0.15-1.16-0.1-1.65c0.03-0.31-0.21-0.59-0.53-0.62C9.58,8.5,9,8.46,8.35,8.46c-0.65,0-1.23,0.03-1.73,0.09 C6.3,8.58,6.06,8.86,6.09,9.17c0.05,0.49-0.02,1.17-0.1,1.65c-0.19,1.11-0.97,1.64-1.42,2.82c1.11-0.35,2.74-0.47,3.79-0.47 C8.68,13.18,9.08,13.2,9.49,13.22z M19.85,14.09c-1.41-0.45-3.48-0.59-4.82-0.59s-3.41,0.14-4.82,0.59c0.57-1.51,1.57-2.18,1.81-3.59 c0.11-0.61,0.19-1.47,0.13-2.1c-0.04-0.4,0.27-0.75,0.67-0.79c0.65-0.07,1.38-0.11,2.21-0.11s1.56,0.04,2.21,0.11 c0.4,0.04,0.7,0.39,0.67,0.79c-0.06,0.63,0.03,1.49,0.13,2.1C18.27,11.91,19.27,12.58,19.85,14.09z M17.28,6.85 c-0.78-0.07-1.64-0.1-2.25-0.1s-1.47,0.03-2.25,0.1l0.38-2.33c0.02-0.16,0.1-0.32,0.23-0.43l0.35-0.32 c0.02-0.02,0.05-0.04,0.07-0.07l0.37-0.44C14.3,3.1,14.52,3,14.75,3h0.55c0.23,0,0.45,0.1,0.59,0.27l0.37,0.44 c0.02,0.02,0.04,0.05,0.07,0.07l0.35,0.32c0.12,0.11,0.21,0.27,0.23,0.43L17.28,6.85z M15.03,21c-2.89,0-5.25-2.5-5.25-4.88 c0-0.21,0.04-0.41,0.06-0.61c0.02-0.19,0.06-0.35,0.1-0.53c0.82-0.35,2.55-0.74,5.09-0.74s4.27,0.39,5.09,0.74 c0.04,0.18,0.07,0.34,0.1,0.53c0.02,0.2,0.06,0.39,0.06,0.61C20.28,18.5,17.92,21,15.03,21z"/></svg>