<svg viewBox="0 0 24 24" fill="#44739e" xmlns="http://www.w3.org/2000/svg"><title>hue:bulb-group-br30-hung</title><desc>Source: https://github.com/arallsopp/hass-hue-icons</desc><path d="M4.1,19.53C4.09,19.2,4.12,18.9,4.18,18.6c-0.92-0.1-1.67-0.23-2.26-0.38c0.07,0.11,0.16,0.22,0.26,0.33 c0.3,0.32,0.71,0.58,1.19,0.8L4.1,19.53z M7.99,5.79c0.09,0,0.18,0,0.27,0c0.24,0,0.47,0.02,0.7,0.04c0.07-0.18,0.15-0.35,0.25-0.5 L9.42,5l0.2-0.05l0.04-1.2L9.19,3.21C9.12,3.13,9.02,3.08,8.91,3.08H7.07c-0.11,0-0.21,0.05-0.28,0.13L5.87,4.26 C5.81,4.33,5.78,4.41,5.78,4.5L5.73,5.98c0.6-0.12,1.26-0.2,1.98-0.2C7.81,5.78,7.9,5.78,7.99,5.79z M7.06,14.71L7.06,14.71 c0.47-0.38,0.9-0.73,1.14-1.03c0.57-0.71,0.56-1.04,0.52-2.04c-0.01-0.24-0.02-0.5-0.02-0.78V7.35c0-0.29,0.03-0.55,0.07-0.8 C8.52,6.53,8.27,6.53,8,6.54H7.98C6.97,6.51,6.06,6.66,5.3,6.86C5.13,7.14,5.04,7.51,5.04,7.99v2.65c0,0.2,0.01,0.39,0.01,0.57 c0.03,0.8,0.04,1.29-0.56,2.04c-0.23,0.29-0.59,0.58-0.97,0.89c-0.93,0.75-2.09,1.69-1.96,3.15c0,0,0,0.03,0,0.07 c0.63,0.19,1.55,0.39,2.82,0.52C4.93,16.45,6.16,15.45,7.06,14.71z M13.61,21.66C13.62,21.66,13.62,21.66,13.61,21.66 C13.62,21.66,13.62,21.66,13.61,21.66c3.85,0,6.38-0.34,8.05-0.75c-0.1,0.14-0.21,0.29-0.35,0.43c-1.31,1.36-3.95,2.04-7.7,2.01 c-3.84,0.04-6.39-0.65-7.7-2.01c-0.14-0.15-0.25-0.29-0.35-0.43C7.23,21.32,9.77,21.66,13.61,21.66z M7.69,15.49 c0.51-0.41,0.99-0.8,1.29-1.18c0.8-1,0.78-1.64,0.74-2.7c-0.01-0.24-0.02-0.49-0.02-0.75V7.35c0-0.63,0.12-1.13,0.35-1.49 c1.01-0.27,2.21-0.47,3.55-0.43h0.03c1.34-0.05,2.53,0.14,3.53,0.41c0.24,0.36,0.36,0.86,0.36,1.5v3.51c0,0.27-0.01,0.52-0.02,0.75 c-0.04,1.06-0.06,1.7,0.74,2.7c0.3,0.38,0.78,0.77,1.29,1.18c1.23,1,2.77,2.24,2.59,4.1c0,0.02,0,0.08-0.01,0.16 c-1.48,0.45-4.08,0.92-8.51,0.92c-4.44,0-7.03-0.46-8.51-0.92c0-0.05,0-0.08,0-0.09C4.92,17.73,6.46,16.49,7.69,15.49z M13.98,4.43 c-0.12,0-0.24,0-0.36,0s-0.24,0-0.36,0c-0.96,0-1.84,0.11-2.63,0.27l0.06-1.96c0-0.12,0.05-0.23,0.12-0.31l1.22-1.4 c0.09-0.11,0.23-0.17,0.38-0.17h2.43c0.14,0,0.28,0.06,0.38,0.17l1.22,1.4c0.08,0.09,0.12,0.2,0.12,0.31l0.06,1.96 C15.81,4.53,14.94,4.43,13.98,4.43z"/></svg>