<svg viewBox="0 0 24 24" fill="#44739e" xmlns="http://www.w3.org/2000/svg"><title>hue:bulb-group-filament-spot</title><desc>Source: https://github.com/arallsopp/hass-hue-icons</desc><path d="M18.14,17c0.01,0.25,0.06,0.49,0.15,0.72c0.14,0.41,0.01,0.86-0.33,1.13l-0.41,2.49 c-0.03,0.21-0.13,0.4-0.28,0.53l-0.45,0.4l-0.09,0.08l-0.47,0.54c-0.18,0.22-0.46,0.34-0.74,0.34h-0.7c-0.28,0-0.56-0.12-0.74-0.34 l-0.47-0.54l-0.09-0.08l-0.45-0.4c-0.16-0.14-0.26-0.33-0.28-0.53l-0.41-2.51c-0.34-0.27-0.48-0.72-0.33-1.13 c0.09-0.23,0.14-0.47,0.15-0.72c1.06,0.12,2.12,0.18,3.19,0.18C16.24,17.15,17.19,17.1,18.14,17z M22.77,8.25 c0,1.31-0.34,2.6-1.01,3.74l-0.1,0.16c-0.09,0.15-0.19,0.3-0.29,0.44c-1.29,1.85-2.34,2.25-2.99,3.45 c-0.98,0.11-1.97,0.16-2.95,0.16c-1.16,0-2.31-0.07-3.46-0.21c-0.65-1.16-1.69-1.58-2.96-3.4c-0.1-0.14-0.2-0.29-0.29-0.44 l-0.1-0.16C7,9.27,7.3,5.84,9.36,3.44c2.07-2.42,5.43-3.3,8.42-2.22C20.76,2.27,22.76,5.09,22.77,8.25L22.77,8.25z M17.08,8.79 c0.58-0.16,0.92-0.75,0.76-1.32c-0.1-0.37-0.39-0.66-0.76-0.76l-2.94-0.79c-0.27-0.07-0.41-0.21-0.41-0.3c0-0.09,0.14-0.22,0.39-0.3 l3.06-0.75c0.12-0.03,0.23-0.1,0.29-0.21c0.06-0.11,0.08-0.23,0.05-0.35c-0.07-0.25-0.32-0.4-0.57-0.35L13.88,4.4 c-0.6,0.1-1.05,0.6-1.1,1.21c0.05,0.61,0.5,1.1,1.1,1.21l2.92,0.8c0.07,0.02,0.12,0.08,0.11,0.15c0,0.07-0.05,0.13-0.11,0.14 l-3.52,0.93c-0.48,0.12-0.81,0.55-0.81,1.04c0,0.49,0.33,0.92,0.81,1.05l2.94,0.74c0.27,0.07,0.41,0.21,0.41,0.3 s-0.14,0.22-0.39,0.3l-2.96,0.68c-0.26,0.02-0.45,0.25-0.42,0.51c0.02,0.26,0.25,0.45,0.51,0.42c0,0,0.01,0,0.01,0h0.11l2.98-0.68 c0.6-0.1,1.05-0.6,1.1-1.21c-0.05-0.6-0.5-1.09-1.09-1.2L13.55,10c-0.07-0.01-0.12-0.07-0.11-0.14c0-0.07,0.05-0.13,0.11-0.14 L17.08,8.79z M4.51,17.15c0,0.33,0.27,0.6,0.61,0.6c0.33,0,0.6-0.27,0.6-0.6v-0.93C5.3,16.2,4.88,16.09,4.51,15.9V17.15z M6.62,7.66 C6.7,6.56,7,5.49,7.49,4.5C7.12,4.47,6.72,4.46,6.32,4.46c-2.63,0-4.83,0.55-5.33,1.28C0.92,5.83,0.88,5.95,0.88,6.06 c0,0.88,2.44,1.61,5.44,1.61C6.42,7.67,6.52,7.66,6.62,7.66z M8.19,13.16c-0.1-0.13-0.21-0.3-0.31-0.47l-0.1-0.15 c-0.76-1.3-1.16-2.77-1.16-4.27c-0.1,0-0.2,0-0.29,0c-1.6,0.03-3.19-0.22-4.71-0.74c0.18,1.5,0.96,2.87,2.15,3.8 c0.12,0.11,0.14,0.3,0.14,0.68v2.23c0,0.29,0.09,0.57,0.28,0.78c0.6,0.49,1.37,0.7,2.14,0.6c0.76,0.1,1.54-0.12,2.13-0.6 c0.19-0.22,0.29-0.5,0.28-0.78V13.9C8.56,13.67,8.38,13.44,8.19,13.16z M6.93,17.15c0,0.33,0.27,0.6,0.6,0.6 c0.33,0,0.6-0.27,0.6-0.6V15.9c-0.38,0.19-0.79,0.3-1.21,0.32V17.15z"/></svg>