<svg viewBox="0 0 24 24" fill="#44739e" xmlns="http://www.w3.org/2000/svg"><title>hue:bulb-group-wall-lucca</title><desc>Source: https://github.com/arallsopp/hass-hue-icons</desc><path d="M19.47,14.49c0-0.03-0.01-0.05-0.03-0.08c-0.73-1.37-5.1-1.58-7.64-1.58h-0.45c-2.2,0.01-4.4,0.26-6.55,0.74 c0.03-0.4,0.06-1.09,0.07-1.36c0.07-0.22,1.45-1.15,6.45-1.26c0.15,0,0.3,0,0.45,0c4.48,0,6.11,1,6.17,1.28 c0.03,0.46,0.07,0.83,0.07,0.83c0.01,0.12,0.12,0.21,0.23,0.2c0.02,0,0.03-0.01,0.05-0.01c0.11-0.04,1.09-0.4,1.09-1.09 c0.02-0.34,0-0.68-0.06-1.01c-0.01-0.03-0.02-0.06-0.04-0.09c-0.32-0.36-0.71-0.65-1.17-0.82h0.01c0.49-0.22,0.9-0.59,1.16-1.07 c0.02-0.03,0.03-0.07,0.03-0.1c0-0.34-0.02-0.66-0.05-1c0-0.03-0.01-0.04-0.02-0.07c-0.22-0.4-0.57-0.71-0.97-0.9 c0.39-0.22,0.98-0.65,0.98-1.21c0.02-0.25,0-0.5-0.04-0.74c-0.01-0.04-0.02-0.1-0.03-0.18c0-0.02-0.01-0.03-0.02-0.05 c-0.56-1.32-2.74-1.99-6.86-2.11c-0.4-0.01-0.78-0.02-1.12-0.02C9.43,2.77,7.7,3.01,6.02,3.51C4.47,3.95,3.47,4.95,3.46,5.27v0.06 c0.02,0.17,0,0.47,0,0.69c0,0.12,0.02,0.23,0.06,0.35L1.63,7.44C1.56,7.48,1.52,7.56,1.52,7.63v9.4c0,0.11,0.09,0.21,0.19,0.22 l8.45,0.86h0.03c0.03,0,0.05-0.01,0.08-0.02c0.02-0.01,1.33-0.49,2.69-0.94c3.99-0.05,6.48-1.02,6.5-1.88 c0-0.11,0.01-0.22,0.03-0.33C19.51,14.8,19.51,14.64,19.47,14.49z M18.04,15.44c0,0.02-0.02,0.04-0.03,0.05 c-0.53,0.59-4.44,0.85-7.05,0.85c-5.09,0-6.16-0.44-6.16-0.81c0-0.56,2.59-1.16,6.94-1.21h0.29C15.73,14.32,17.98,14.89,18.04,15.44 z M17.65,6.84C15.62,6.25,13.5,6,11.38,6.07C9.23,6.09,7.1,6.39,5.04,6.97C5.03,6.65,5.05,6.33,5.09,6.02 C5.18,5.7,6.56,4.43,11.3,4.43h0.28c5.51,0.05,6,1.31,6.01,1.33C17.58,5.94,17.62,6.5,17.65,6.84L17.65,6.84z M17.9,10.16 c-1.62-0.59-4.08-0.66-6.32-0.73h-0.21c-0.14,0-0.28-0.01-0.41-0.01C8.92,9.48,6.9,9.75,4.93,10.24l0.04-1.15 c0.06-0.28,1.41-1.41,6.44-1.41c5.13,0,6.36,1.05,6.39,1.42c0.02,0.24,0.03,0.34,0.03,0.47c0,0.11,0.01,0.24,0.03,0.5 C17.86,10.1,17.87,10.14,17.9,10.16L17.9,10.16z M20.39,12.2c0,0.06-0.01,0.12-0.02,0.18c0.88,0.26,1,0.57,1.01,0.57c-0.01,0.13,0.02,0.53,0.04,0.77 c-0.49-0.14-0.99-0.25-1.49-0.33c0.21,0.2,0.31,0.39,0.39,0.52c0.07,0.12,0.12,0.25,0.14,0.39c0.03,0.12,0.04,0.25,0.05,0.37 c0.77,0.23,1.02,0.5,1.03,0.64c0.01,0.17,0.02,0.24,0.02,0.33c0,0.08,0.01,0.17,0.02,0.35c0.01,0.03,0.01,0.05,0.03,0.07 c-0.36-0.13-0.79-0.22-1.25-0.29c-0.14,0.38-0.44,0.71-0.86,1c1.49,0.22,2.1,0.61,2.13,0.76c0.02,0.32,0.05,0.58,0.05,0.58 c0.01,0.09,0.09,0.15,0.16,0.14c0.01,0,0.02-0.01,0.04-0.01c0.08-0.03,0.77-0.29,0.77-0.77c0.01-0.24,0-0.48-0.04-0.71 c-0.01-0.02-0.01-0.04-0.03-0.06c-0.22-0.26-0.5-0.46-0.83-0.58h0.01c0.35-0.15,0.64-0.42,0.82-0.75c0.01-0.02,0.02-0.05,0.02-0.07 c0-0.24-0.01-0.47-0.04-0.7c0-0.02-0.01-0.03-0.01-0.05c-0.16-0.28-0.4-0.5-0.69-0.64c0.27-0.16,0.69-0.46,0.69-0.86 c0.01-0.18,0-0.35-0.03-0.52c-0.01-0.03-0.01-0.07-0.02-0.13c0-0.01-0.01-0.02-0.01-0.04c-0.25-0.58-0.95-0.99-2.15-1.23 C20.38,11.49,20.41,11.84,20.39,12.2z M22.7,19.12c0-0.02-0.01-0.04-0.02-0.05c-0.52-0.97-3.6-1.11-5.39-1.11h-0.32c-1.53,0.01-3.06,0.18-4.56,0.51 c-0.66,0.18-1.6,0.49-1.75,0.54l-0.02,0.01l-0.07,0.02c-0.06,0.02-0.21,0.07-0.42,0.07h-0.05l-0.05-0.01l-0.01,0v1.81 c0,0.08,0.06,0.15,0.13,0.15l5.96,0.61h0.02c0.02,0,0.04-0.01,0.05-0.01c0.01-0.01,0.94-0.35,1.89-0.66 c2.81-0.04,4.57-0.72,4.58-1.32c0-0.08,0.01-0.16,0.02-0.23C22.73,19.33,22.73,19.22,22.7,19.12z M21.67,19.83 c-0.38,0.41-3.13,0.6-4.97,0.6c-3.59,0-4.34-0.31-4.34-0.57c0-0.39,1.83-0.82,4.89-0.85h0.21c2.61-0.01,4.2,0.39,4.23,0.78 C21.69,19.8,21.68,19.82,21.67,19.83z"/></svg>