<svg viewBox="0 0 24 24" fill="#44739e" xmlns="http://www.w3.org/2000/svg"><title>hue:bulb-group-filament-sultan</title><desc>Source: https://github.com/arallsopp/hass-hue-icons</desc><path d="M18.34,17c0.01,0.25,0.06,0.49,0.15,0.72c0.14,0.41,0.01,0.86-0.33,1.13l-0.41,2.49 c-0.03,0.21-0.13,0.4-0.28,0.53l-0.45,0.4l-0.09,0.08l-0.47,0.54c-0.18,0.22-0.46,0.34-0.74,0.34h-0.7c-0.28,0-0.56-0.12-0.74-0.34 l-0.47-0.54l-0.09-0.08l-0.45-0.4c-0.16-0.14-0.26-0.33-0.28-0.53l-0.41-2.51c-0.34-0.27-0.48-0.72-0.33-1.13 c0.09-0.23,0.14-0.47,0.15-0.72c1.06,0.12,2.12,0.18,3.19,0.18C16.44,17.15,17.39,17.09,18.34,17z M22.97,8.25 c0,1.31-0.34,2.6-1.01,3.74l-0.1,0.16c-0.09,0.15-0.19,0.3-0.29,0.44c-1.29,1.85-2.34,2.25-2.99,3.45 c-0.98,0.11-1.97,0.16-2.95,0.16c-1.16,0-2.31-0.07-3.46-0.21c-0.65-1.16-1.69-1.58-2.96-3.4c-0.1-0.14-0.2-0.29-0.29-0.44 l-0.1-0.16c-1.6-2.72-1.3-6.16,0.75-8.55c2.07-2.42,5.43-3.3,8.42-2.22C20.97,2.27,22.97,5.09,22.97,8.25L22.97,8.25z M17.28,8.78 c0.58-0.16,0.92-0.75,0.76-1.32c-0.1-0.37-0.39-0.66-0.76-0.76l-2.94-0.79c-0.27-0.07-0.41-0.21-0.41-0.3c0-0.09,0.14-0.22,0.39-0.3 l3.06-0.75c0.12-0.03,0.23-0.1,0.29-0.21c0.06-0.11,0.08-0.23,0.05-0.35c-0.07-0.25-0.32-0.4-0.57-0.35L14.08,4.4 c-0.6,0.1-1.05,0.6-1.1,1.21c0.05,0.61,0.5,1.1,1.1,1.21L17,7.62c0.07,0.02,0.12,0.08,0.11,0.15c0,0.07-0.05,0.13-0.11,0.14 l-3.52,0.93C13,8.96,12.67,9.39,12.67,9.88c0,0.49,0.33,0.92,0.81,1.05l2.94,0.74c0.27,0.07,0.41,0.21,0.41,0.3s-0.14,0.22-0.39,0.3 l-2.96,0.68c-0.26,0.02-0.45,0.25-0.42,0.51c0.02,0.26,0.25,0.45,0.51,0.42c0,0,0.01,0,0.01,0h0.11l2.98-0.68 c0.6-0.1,1.05-0.6,1.1-1.21c-0.05-0.6-0.5-1.09-1.09-1.2L13.76,10c-0.07-0.01-0.12-0.07-0.11-0.14c0-0.07,0.05-0.13,0.11-0.14 L17.28,8.78z M6.81,8.79c-0.11-1.65,0.28-3.3,1.11-4.74c-0.6-0.04-1.06-0.03-1.13-0.03c-0.19,0-3.18-0.07-4.29,0.95 C1.46,5.93,2.4,7.69,2.72,8.32c1.33,0.34,2.7,0.5,4.07,0.48L6.81,8.79z M4.75,16.87l0.34,2.12c0.02,0.15,0.09,0.29,0.2,0.39 l0.32,0.29c0.02,0.02,0.04,0.04,0.06,0.06l0.34,0.4c0.13,0.16,0.33,0.25,0.54,0.24h0.5c0.21,0,0.4-0.09,0.54-0.24l0.34-0.4 c0.02-0.02,0.04-0.04,0.06-0.06l0.32-0.29c0.11-0.1,0.19-0.24,0.21-0.39l0.34-2.12c-0.71,0.07-1.49,0.1-2.04,0.1 C6.24,16.96,5.46,16.94,4.75,16.87z M9.53,14.56c-0.42-0.44-0.8-0.9-1.14-1.4c-0.1-0.13-0.21-0.3-0.31-0.47l-0.1-0.15 c-0.55-0.94-0.91-1.99-1.06-3.07c-0.04,0-0.08,0-0.12,0c-1.27,0-2.53-0.12-3.77-0.38c0.66,2.02,1.02,4.12,1.05,6.25 c-0.01,0.17,0.05,0.34,0.17,0.47l0.3,0.34c0.75,0.09,1.5,0.13,2.26,0.13c0.75,0,1.51-0.04,2.26-0.13l0.3-0.34 c0.11-0.13,0.17-0.3,0.17-0.47C9.51,15.18,9.51,14.9,9.53,14.56z"/></svg>