<svg viewBox="0 0 24 24" fill="#44739e" xmlns="http://www.w3.org/2000/svg"><title>hue:bulb-group-sultan-hung</title><desc>Source: https://github.com/arallsopp/hass-hue-icons</desc><path d="M6.87,7.28c0.57,0,1.37,0.03,2.09,0.1l-0.35-1.9c-0.02-0.15-0.09-0.3-0.21-0.4l-0.33-0.3 C8.06,4.76,8.04,4.74,8.02,4.72L7.67,4.31C7.54,4.15,7.34,4.06,7.13,4.06H6.62c-0.21,0-0.41,0.09-0.55,0.25L5.72,4.72 C5.71,4.74,5.68,4.76,5.66,4.78l-0.33,0.3c-0.12,0.1-0.19,0.25-0.21,0.4l-0.35,1.9C5.51,7.31,6.3,7.28,6.87,7.28z M20.51,17.44 c-1.83-0.47-3.71-0.69-5.6-0.65c-1.89-0.04-3.77,0.18-5.6,0.65c-0.44,0.86-1.74,3.29-0.31,4.6c1.53,1.41,5.65,1.31,5.91,1.31 c0.26,0,4.38,0.1,5.91-1.31C22.25,20.73,20.95,18.3,20.51,17.44z M6.87,15.31c-1.35-0.03-2.7,0.13-4,0.48 c-0.31,0.64-1.24,2.41-0.22,3.38c1.09,1.03,4.04,0.96,4.22,0.96c0.05,0,0.32,0,0.69-0.01c0.16-1.04,0.49-2.04,0.99-2.96 c0,0,0.2-0.48,0.4-1.04c0.07-0.22,0.14-0.45,0.21-0.67C8.4,15.36,7.64,15.31,6.87,15.31z M9.85,12.62c-0.26-1.2-0.4-2.42-0.41-3.65 C9.45,8.8,9.39,8.65,9.29,8.52L9,8.2C8.29,8.12,7.58,8.08,6.87,8.08c-0.71,0-1.42,0.04-2.13,0.12L4.45,8.52 C4.35,8.65,4.29,8.8,4.3,8.97c-0.03,2.01-0.37,4-1,5.91c1.17-0.24,2.37-0.36,3.57-0.36c0.84,0,1.67,0.06,2.51,0.17 C9.57,13.98,9.72,13.28,9.85,12.62z M14.92,5.53c0.76,0,1.84,0.04,2.81,0.13l-0.47-2.91c-0.03-0.21-0.13-0.4-0.28-0.54l-0.44-0.4 c-0.03-0.03-0.06-0.06-0.08-0.09L16,1.18c-0.18-0.21-0.45-0.34-0.74-0.33h-0.69c-0.28,0-0.55,0.12-0.74,0.33l-0.46,0.55 c-0.03,0.03-0.05,0.06-0.08,0.09l-0.44,0.4c-0.16,0.14-0.26,0.33-0.28,0.54l-0.47,2.91C13.08,5.57,14.16,5.53,14.92,5.53z M20.11,16.37c-0.91-2.78-1.4-5.68-1.45-8.61c0.01-0.24-0.07-0.47-0.23-0.64l-0.41-0.47c-1.03-0.12-2.07-0.18-3.1-0.17 c-1.04,0-2.07,0.05-3.1,0.17L11.4,7.12c-0.16,0.18-0.24,0.41-0.23,0.64c-0.05,2.93-0.54,5.83-1.45,8.61 c1.71-0.35,3.45-0.52,5.19-0.52C16.66,15.84,18.4,16.02,20.11,16.37z"/></svg>