<svg viewBox="0 0 24 24" fill="#44739e" xmlns="http://www.w3.org/2000/svg"><title>hue:bulb-group-candle</title><desc>Source: https://github.com/arallsopp/hass-hue-icons</desc><path d="M19.83,12.51c-0.3-4.91-2.89-11.67-4.66-11.67c-1.77,0-4.36,6.76-4.66,11.67c1.52,0.37,3.09,0.55,4.66,0.52 C16.75,13.06,18.31,12.89,19.83,12.51 M12.83,19.49l0.39,2.33c0.02,0.17,0.1,0.32,0.23,0.43l0.37,0.32 c0.02,0.02,0.05,0.04,0.07,0.07l0.39,0.44c0.15,0.17,0.38,0.27,0.61,0.27h0.58c0.23,0,0.46-0.09,0.61-0.27l0.39-0.44 c0.02-0.02,0.04-0.05,0.07-0.07l0.37-0.32c0.13-0.11,0.21-0.26,0.23-0.43l0.39-2.33c-0.81,0.07-1.71,0.1-2.34,0.1 S13.64,19.56,12.83,19.49z M15.18,13.97c-1.58,0.01-3.15-0.16-4.69-0.5v0.12c-0.12,1.77,0.46,3.52,1.62,4.86 c1.02,0.14,2.04,0.21,3.07,0.2c1.03,0.01,2.05-0.06,3.07-0.2c1.16-1.35,1.74-3.09,1.62-4.86v-0.12 C18.32,13.81,16.75,13.98,15.18,13.97z M4.95,17.34l0.31,1.82c0.02,0.13,0.08,0.25,0.18,0.34l0.29,0.25 c0.02,0.02,0.04,0.03,0.05,0.05l0.3,0.34c0.12,0.14,0.3,0.21,0.48,0.21h0.45c0.18,0,0.36-0.07,0.48-0.21l0.3-0.34 c0.02-0.02,0.03-0.04,0.05-0.05l0.29-0.25c0.1-0.08,0.17-0.2,0.18-0.34l0.31-1.82c-0.63,0.06-1.34,0.08-1.83,0.08 C6.28,17.42,5.58,17.39,4.95,17.34z M6.78,2.75c-1.38,0-3.41,5.29-3.64,9.13c1.19,0.29,2.42,0.43,3.64,0.4 c0.93,0.01,1.86-0.07,2.77-0.22c0.09-1,0.25-1.98,0.46-2.96C9.3,5.9,7.84,2.75,6.78,2.75z M9.49,12.81c-0.9,0.13-1.8,0.2-2.71,0.2 c-1.23,0.01-2.46-0.12-3.67-0.39v0.1c-0.09,1.39,0.36,2.75,1.27,3.81c0.8,0.11,1.6,0.16,2.4,0.16c0.8,0.01,1.6-0.05,2.4-0.16 c0.21-0.22,0.39-0.46,0.54-0.72c-0.15-0.73-0.23-1.47-0.23-2.21V12.81z"/></svg>