<svg viewBox="0 0 24 24" fill="#44739e" xmlns="http://www.w3.org/2000/svg"><title>hue:bulb-group-sultan-4-hung-off</title><desc>Source: https://github.com/arallsopp/hass-hue-icons</desc><path d="M1.5,3.24l2.89,2.89C4.35,6.19,4.33,6.25,4.32,6.32L4.03,8.09c0.59-0.06,1.25-0.08,1.71-0.08 c0.08,0,0.18,0,0.27,0C6.02,8.01,6.02,8,6.02,8l0.11-0.13l0.71,0.71L6.77,8.66C6.66,8.79,6.61,8.94,6.61,9.11 c0.04,0.69-0.11,3.12-0.97,5.78c0.81-0.19,1.77-0.29,2.6-0.33c0.44-1.43,0.68-2.75,0.81-3.77l0.88,0.88 c-0.17,1.04-0.42,2.24-0.82,3.5c0.91-0.2,1.97-0.31,2.89-0.36c0.09-0.29,0.16-0.57,0.23-0.84l0.82,0.82 c-0.07,0.24-0.13,0.48-0.21,0.73c0.25-0.06,0.52-0.1,0.79-0.15l0.68,0.68c-0.73,0.1-1.34,0.22-1.8,0.36 c-0.35,0.72-1.41,2.74-0.25,3.84c1.25,1.17,4.6,1.1,4.81,1.1c0.12,0,1.22,0.02,2.38-0.17l1.15,1.15l1.38-1.38L2.88,1.86L1.5,3.24z M19.35,6.58l-0.39-2.43c-0.02-0.17-0.1-0.34-0.23-0.45l-0.36-0.33c-0.02-0.02-0.05-0.04-0.07-0.07l-0.37-0.46 c-0.13-0.18-0.35-0.28-0.58-0.28h-0.56c-0.23,0-0.46,0.1-0.6,0.28L15.81,3.3c-0.02,0.02-0.04,0.05-0.07,0.07L15.38,3.7 c-0.12,0.12-0.2,0.28-0.22,0.45l-0.39,2.43c0.8-0.08,1.67-0.11,2.29-0.11S18.56,6.5,19.35,6.58z M21.6,16.41c-0.72-0.21-1.77-0.41-3.13-0.5l3.76,3.76C22.68,18.55,21.91,17.02,21.6,16.41z M4.76,14.32c0.7-2.32,0.88-4.5,0.85-5.17c0-0.21,0.04-0.4,0.1-0.58C5,8.57,4.38,8.61,3.84,8.69L3.59,8.98 C3.5,9.09,3.45,9.23,3.45,9.38c0.03,0.62-0.1,2.82-0.88,5.23C3.26,14.45,4.05,14.36,4.76,14.32z M9.89,7.26C9.88,7.18,9.89,7.09,9.9,7l0.32-1.9c-0.02-0.02-0.04-0.04-0.06-0.06L9.85,4.67 C9.74,4.52,9.56,4.44,9.37,4.44H8.91c-0.2,0-0.38,0.09-0.5,0.23L8.1,5.04C8.08,5.06,8.07,5.09,8.04,5.1l-0.2,0.18L9.86,7.3 L9.89,7.26z M11.85,15.52c-1.33,0.07-2.36,0.25-3.05,0.45c-0.32,0.64-1.3,2.46-0.23,3.44c0.56,0.51,1.57,0.75,2.48,0.87 c-0.81-1.54,0.17-3.53,0.53-4.25l0.03-0.07c0.06-0.11,0.13-0.22,0.23-0.3C11.84,15.62,11.85,15.57,11.85,15.52z M8.11,15.18c-1.19,0.07-2.12,0.23-2.74,0.41c-0.29,0.58-1.17,2.21-0.21,3.09c0.49,0.45,1.39,0.67,2.21,0.78 c-0.74-1.43,0.18-3.23,0.51-3.89l0.03-0.06c0.05-0.09,0.11-0.18,0.19-0.26C8.1,15.23,8.11,15.21,8.11,15.18z M13.79,11.23l3.86,3.86c1.1,0.03,2.48,0.15,3.63,0.42c-1.04-3.3-1.21-6.32-1.18-7.18 c0.01-0.2-0.06-0.39-0.18-0.54l-0.34-0.4c-0.72-0.1-1.57-0.15-2.52-0.15s-1.8,0.06-2.52,0.15l-0.34,0.4 c-0.13,0.15-0.19,0.34-0.19,0.55C14.03,8.79,13.99,9.85,13.79,11.23z M2.14,18.05c0.42,0.38,1.14,0.57,1.83,0.68c-0.64-1.32,0.18-2.93,0.48-3.53l0.03-0.06 c0.04-0.08,0.1-0.16,0.16-0.23c0,0,0-0.01,0-0.02c-1,0.06-1.78,0.21-2.31,0.36C2.06,15.78,1.27,17.25,2.14,18.05z M13.5,7.07l0.28-0.32l0.01-0.01c-0.02-0.1-0.02-0.21,0-0.31l0.35-2.22L13.79,3.8 c-0.12-0.16-0.31-0.25-0.53-0.25h-0.51c-0.21,0-0.42,0.09-0.55,0.25l-0.35,0.41c-0.02,0.02-0.04,0.05-0.07,0.07l-0.33,0.3 c-0.12,0.1-0.19,0.25-0.21,0.4l-0.36,2.18c0.73-0.07,1.54-0.1,2.11-0.1C13.15,7.06,13.32,7.07,13.5,7.07z M13.01,8.39c0-0.23,0.04-0.44,0.1-0.63c-0.04,0-0.07,0-0.11-0.02c-0.88,0-1.66,0.05-2.32,0.13L10.56,8 l2.33,2.33C13,9.36,13.02,8.65,13.01,8.39z"/></svg>