<svg viewBox="0 0 24 24" fill="#44739e" xmlns="http://www.w3.org/2000/svg"><title>hue:bulb-spot-hung</title><desc>Source: https://github.com/arallsopp/hass-hue-icons</desc><path d="M12,20.25c-3.73,0-6.75-0.89-6.75-1.99s3.02-1.99,6.75-1.99s6.75,0.89,6.75,1.99c0,0.13-0.05,0.27-0.14,0.4 C17.99,19.57,15.26,20.25,12,20.25z M17.84,16.43c-1.62-0.69-4.11-0.91-5.84-0.91s-4.21,0.23-5.84,0.91 c0.25-1.44,0.86-3.41,2.67-4.72C8.98,11.57,9,11.34,9,10.87V8.11C9,7.75,9.11,7.4,9.35,7.13C9.73,6.71,10.53,6.38,12,6.38 s2.28,0.32,2.65,0.75C14.89,7.4,15,7.75,15,8.11v2.77c0,0.47,0.02,0.7,0.17,0.84C16.98,13.03,17.59,15,17.84,16.43z M11.25,4.5v1.16 c-0.67,0.06-1.16,0.21-1.5,0.4V4.5c0-0.41,0.34-0.75,0.75-0.75S11.25,4.09,11.25,4.5z M14.25,4.5v1.55c-0.34-0.19-0.83-0.34-1.5-0.4 V4.5c0-0.41,0.34-0.75,0.75-0.75S14.25,4.09,14.25,4.5z"/></svg>