<svg viewBox="0 0 24 24" fill="#44739e" xmlns="http://www.w3.org/2000/svg"><title>hue:bulb-group-classic-hung-3</title><desc>Source: https://github.com/arallsopp/hass-hue-icons</desc><path d="M13.02,10.5c0.1-0.61,0.19-1.47,0.13-2.1c-0.04-0.4,0.26-0.75,0.66-0.79c0.65-0.07,1.38-0.11,2.21-0.11 s1.56,0.04,2.21,0.11C18.63,7.65,18.94,8,18.9,8.4c-0.06,0.63,0.02,1.49,0.13,2.1c0.24,1.41,1.24,2.08,1.81,3.59 c-1.41-0.45-3.48-0.59-4.82-0.59s-3.41,0.14-4.82,0.59C11.78,12.58,12.78,11.91,13.02,10.5z M14.14,4.53 c0.02-0.16,0.11-0.32,0.23-0.43l0.35-0.32c0.03-0.02,0.05-0.05,0.07-0.07l0.37-0.44C15.3,3.1,15.52,3,15.75,3h0.55 c0.23,0,0.45,0.1,0.57,0.26l0.37,0.44c0.02,0.03,0.05,0.05,0.07,0.07l0.35,0.32c0.13,0.11,0.21,0.27,0.23,0.43l0.38,2.33 c-0.78-0.07-1.64-0.1-2.25-0.1c-0.61,0-1.47,0.03-2.25,0.1L14.14,4.53z M10.77,16.13c0-0.22,0.04-0.41,0.06-0.61 c0.03-0.19,0.06-0.35,0.1-0.53c0.82-0.35,2.55-0.75,5.09-0.75s4.27,0.39,5.09,0.74c0.04,0.18,0.08,0.34,0.1,0.53 c0.02,0.2,0.06,0.4,0.06,0.61c0,2.38-2.36,4.88-5.25,4.88S10.77,18.5,10.77,16.13z M12.82,6.98l-0.27-1.67 c-0.02-0.14-0.09-0.28-0.2-0.37l-0.3-0.28c-0.02-0.02-0.04-0.03-0.06-0.06l-0.32-0.39c-0.1-0.13-0.29-0.22-0.49-0.22h-0.47 c-0.2,0-0.39,0.08-0.51,0.23L9.88,4.6C9.86,4.62,9.85,4.64,9.82,4.66l-0.3,0.28c-0.11,0.09-0.18,0.23-0.2,0.37L9,7.31 c0.68-0.06,1.42-0.09,1.94-0.09c0.43,0,1.01,0.02,1.57,0.06c0.02-0.01,0.03-0.03,0.04-0.05C12.63,7.13,12.72,7.04,12.82,6.98z M6.44,15.3c0,2.04,2.03,4.19,4.52,4.19c0.02,0,0.04-0.01,0.06-0.01c-0.78-1.01-1.24-2.2-1.24-3.34c0-0.22,0.03-0.4,0.05-0.55 c0.01-0.05,0.01-0.11,0.02-0.16c0-0.02,0.01-0.04,0.01-0.06c0.01-0.1,0.03-0.18,0.05-0.27c0-0.01,0-0.01,0-0.01 c0-0.04,0.02-0.16,0.06-0.31v-0.01l0,0c0.1-0.38,0.27-0.94,0.31-1.04c0-0.02,0.01-0.03,0.02-0.05c-1.83,0.06-3.1,0.36-3.73,0.63 c-0.04,0.16-0.06,0.3-0.09,0.46C6.46,14.94,6.42,15.1,6.44,15.3z M9.04,7.95c-0.35,0.03-0.6,0.34-0.57,0.68 c0.05,0.55-0.02,1.29-0.11,1.81c-0.21,1.21-1.07,1.79-1.57,3.09c1.1-0.35,2.65-0.48,3.79-0.5c0.22-0.44,0.47-0.81,0.69-1.14 c0.37-0.55,0.66-0.98,0.76-1.56C12.12,9.78,12.2,9,12.15,8.49c-0.02-0.19,0-0.39,0.05-0.58c-0.39-0.02-0.8-0.04-1.26-0.04 C10.23,7.87,9.6,7.9,9.04,7.95z M2.72,14.52c0,1.78,1.77,3.66,3.94,3.66l0,0c-0.34-0.42-0.6-0.89-0.79-1.37 c0-0.02-0.01-0.04-0.02-0.06c-0.08-0.23-0.14-0.45-0.19-0.68C5.65,16.03,5.65,16,5.64,15.96c-0.04-0.22-0.07-0.45-0.07-0.68 c0-0.18,0.02-0.34,0.04-0.47c0.01-0.05,0.02-0.09,0.02-0.14c0.01-0.02,0.01-0.03,0.01-0.05c0.01-0.08,0.03-0.16,0.04-0.23 c0-0.01,0-0.01,0-0.01c-0.01-0.03,0.02-0.13,0.05-0.26v-0.01l0,0C5.82,13.79,5.97,13.3,6,13.22c0.01-0.03,0.03-0.06,0.04-0.09 c-1.57,0.06-2.65,0.32-3.2,0.55c-0.03,0.14-0.06,0.26-0.08,0.4C2.74,14.23,2.71,14.37,2.72,14.52z M7.71,8.08 C7.38,8.06,7.04,8.05,6.67,8.05c-0.62,0-1.17,0.03-1.66,0.08c-0.3,0.03-0.53,0.29-0.5,0.59c0.04,0.48-0.02,1.12-0.1,1.58 c-0.18,1.06-0.93,1.57-1.37,2.7c0.95-0.3,2.27-0.41,3.26-0.43c0.19-0.34,0.39-0.65,0.57-0.92c0.31-0.48,0.57-0.85,0.65-1.35 c0.07-0.47,0.14-1.14,0.1-1.58C7.59,8.5,7.62,8.29,7.71,8.08z M8.31,7.34L8.06,5.81C8.05,5.69,7.99,5.57,7.89,5.49L7.62,5.25 C7.61,5.24,7.59,5.22,7.57,5.2L7.29,4.9C7.2,4.78,7.03,4.7,6.86,4.7H6.45c-0.17,0-0.33,0.07-0.44,0.2L5.73,5.23 C5.72,5.24,5.7,5.26,5.68,5.28L5.42,5.52C5.33,5.6,5.27,5.72,5.25,5.84L4.97,7.58C5.56,7.52,6.2,7.5,6.66,7.5 c0.38,0,0.9,0.01,1.4,0.05C8.14,7.47,8.22,7.4,8.31,7.34z"/></svg>