<svg viewBox="0 0 24 24" fill="#44739e" xmlns="http://www.w3.org/2000/svg"><title>hue:bulb-group-sultan-4-off</title><desc>Source: https://github.com/arallsopp/hass-hue-icons</desc><path d="M1.5,3.24l2.02,2.02c-0.54,0.12-1.05,0.3-1.38,0.59c-0.87,0.8-0.08,2.27,0.19,2.8 c0.53,0.15,1.31,0.3,2.31,0.36c0-0.01,0-0.02,0-0.03C4.57,8.92,4.52,8.85,4.48,8.76L4.45,8.71C4.18,8.17,3.5,6.81,3.83,5.58 l0.91,0.91C4.8,7.21,5.19,7.96,5.37,8.31C5.75,8.42,6.25,8.52,6.85,8.6l0.69,0.69C6.9,9.24,6.23,9.16,5.64,9.02 c0.86,2.66,1.01,5.09,0.97,5.78c0,0.17,0.05,0.32,0.16,0.45l0.28,0.32c0.6,0.08,1.29,0.12,2.08,0.12c0.05-0.01,0.1-0.01,0.15-0.01 c-0.05-0.18-0.09-0.36-0.09-0.56c0.02-0.45-0.06-2.43-0.7-4.89l1.32,1.32c0.33,1.74,0.41,3.12,0.39,3.63c0,0.19,0.06,0.36,0.18,0.5 l0.31,0.36c0.66,0.08,1.44,0.13,2.32,0.13c0.04-0.02,0.07-0.02,0.11-0.02c-0.06-0.19-0.1-0.4-0.1-0.63c0.01-0.14,0-0.41-0.02-0.78 l1.05,1.05c0.03,0.11,0.07,0.22,0.15,0.32l0.34,0.4c0.08,0.01,0.17,0.02,0.25,0.02l0.85,0.85c-0.29-0.02-0.58-0.04-0.87-0.07 l0.38,2.43c0.02,0.17,0.1,0.34,0.22,0.45l0.36,0.33c0.03,0.02,0.05,0.05,0.07,0.07l0.38,0.46c0.14,0.18,0.37,0.28,0.6,0.28h0.56 c0.23,0,0.45-0.1,0.58-0.28l0.38-0.46c0.02-0.03,0.05-0.05,0.07-0.07l0.22-0.2l2,2l1.38-1.38L2.88,1.86L1.5,3.24z M11.85,8.38c0-0.04-0.01-0.09-0.01-0.14c-0.1-0.08-0.17-0.19-0.23-0.3l-0.03-0.07 c-0.36-0.72-1.34-2.71-0.53-4.25c-0.91,0.12-1.92,0.36-2.48,0.87C8.25,4.78,8.13,5.15,8.1,5.54l2.76,2.76 C11.17,8.33,11.5,8.36,11.85,8.38z M17.07,8.03c2.06,0,3.59-0.26,4.55-0.54c0.36-0.72,1.41-2.74,0.25-3.84c-1.25-1.17-4.58-1.1-4.79-1.1 c-0.21,0-3.56-0.07-4.81,1.1c-1.16,1.09-0.11,3.12,0.25,3.84C13.47,7.77,15.01,8.03,17.07,8.03z M17.06,8.82c-1.16,0-2.85-0.11-4.23-0.44c0.28,0.88,0.49,1.74,0.66,2.55l5.63,5.63 c0.15-0.02,0.32-0.03,0.47-0.04l0.34-0.4c0.12-0.14,0.19-0.34,0.18-0.54c-0.03-0.85,0.14-3.88,1.18-7.18 C19.92,8.71,18.22,8.82,17.06,8.82z M13.79,17.17l-0.01-0.01l-0.28-0.33c-0.18,0-0.35,0.01-0.51,0.01c-0.57,0-1.38-0.03-2.11-0.1l0.36,2.18 c0.02,0.15,0.09,0.3,0.21,0.4l0.33,0.3c0.03,0.02,0.05,0.05,0.07,0.07l0.35,0.41c0.13,0.16,0.34,0.25,0.55,0.25h0.51 c0.22,0,0.41-0.09,0.53-0.25l0.35-0.41l-0.35-2.21C13.77,17.38,13.77,17.27,13.79,17.17z M5.61,14.75c0.03-0.67-0.15-2.85-0.85-5.17C4.05,9.54,3.26,9.46,2.57,9.3c0.78,2.41,0.91,4.61,0.88,5.23 c0,0.15,0.05,0.29,0.14,0.4l0.25,0.29c0.53,0.07,1.16,0.1,1.86,0.11C5.65,15.16,5.61,14.97,5.61,14.75z M9.89,16.64l-0.28-0.33c0-0.01-0.01-0.01-0.01-0.02c-0.17,0-0.33,0.01-0.47,0.01c-0.51,0-1.23-0.03-1.89-0.09 l0.32,1.96c0.02,0.13,0.08,0.27,0.18,0.36l0.29,0.27c0.03,0.02,0.04,0.04,0.06,0.06l0.31,0.37c0.12,0.14,0.3,0.23,0.5,0.23h0.46 c0.19,0,0.37-0.08,0.48-0.23l0.31-0.37c0.02-0.02,0.04-0.04,0.06-0.06L9.9,16.9C9.89,16.81,9.88,16.73,9.89,16.64z M6.24,16.17L6.02,15.9c0,0,0-0.01-0.01-0.01c-0.09,0-0.19,0-0.27,0c-0.46,0-1.12-0.02-1.71-0.08l0.29,1.77 c0.02,0.12,0.08,0.24,0.17,0.33l0.27,0.24c0.02,0.02,0.04,0.04,0.05,0.05l0.28,0.33c0.11,0.13,0.27,0.21,0.45,0.21h0.42 c0.17,0,0.33-0.08,0.43-0.21l0.19-0.23l-0.33-1.92C6.24,16.31,6.23,16.24,6.24,16.17z"/></svg>