<svg viewBox="0 0 24 24" fill="#44739e" xmlns="http://www.w3.org/2000/svg"><title>hue:bulb-group-sultan-4-hung</title><desc>Source: https://github.com/arallsopp/hass-hue-icons</desc><path d="M17.06,21.35c-0.21,0-3.56,0.07-4.81-1.1c-1.16-1.1-0.1-3.12,0.25-3.84c0.96-0.28,2.49-0.54,4.55-0.54 s3.6,0.26,4.55,0.54c0.37,0.72,1.41,2.75,0.25,3.84C20.62,21.42,17.28,21.35,17.06,21.35z M12.83,15.52 c1.04-3.31,1.22-6.33,1.18-7.18c0-0.21,0.06-0.4,0.19-0.55l0.34-0.4c0.72-0.09,1.57-0.15,2.52-0.15s1.8,0.05,2.52,0.15l0.34,0.4 c0.12,0.15,0.19,0.34,0.18,0.54c-0.03,0.86,0.14,3.88,1.18,7.18c-1.36-0.31-3.06-0.43-4.22-0.43S14.21,15.2,12.83,15.52z M15.16,4.15c0.02-0.17,0.1-0.33,0.22-0.45l0.36-0.33c0.03-0.02,0.05-0.05,0.07-0.07l0.38-0.46c0.14-0.18,0.37-0.28,0.6-0.28h0.56 c0.23,0,0.45,0.1,0.58,0.28L18.3,3.3c0.02,0.03,0.05,0.05,0.07,0.07l0.36,0.33c0.13,0.11,0.21,0.28,0.23,0.45l0.39,2.43 c-0.79-0.08-1.67-0.11-2.29-0.11s-1.49,0.03-2.29,0.11L15.16,4.15z M5.61,9.15c0.03,0.67-0.15,2.85-0.85,5.17c-0.71,0.04-1.5,0.13-2.19,0.29c0.78-2.41,0.91-4.61,0.88-5.23 c0-0.15,0.05-0.29,0.14-0.4l0.25-0.29C4.38,8.61,5,8.57,5.71,8.57C5.65,8.75,5.61,8.94,5.61,9.15z M4.64,14.91c-0.06,0.07-0.12,0.15-0.16,0.23L4.45,15.2c-0.3,0.6-1.12,2.21-0.48,3.53 c-0.69-0.11-1.41-0.3-1.83-0.68c-0.87-0.8-0.08-2.27,0.19-2.8c0.53-0.15,1.31-0.3,2.31-0.36C4.64,14.9,4.64,14.91,4.64,14.91z M6.25,7.53C6.24,7.6,6.24,7.67,6.24,7.74L6.02,8c0,0,0,0.01-0.01,0.01c-0.09,0-0.19,0-0.27,0 c-0.46,0-1.12,0.02-1.71,0.08l0.29-1.77C4.33,6.2,4.39,6.08,4.48,5.99l0.27-0.24C4.77,5.73,4.78,5.71,4.8,5.7l0.28-0.33 c0.11-0.13,0.27-0.21,0.45-0.21h0.42c0.17,0,0.33,0.08,0.43,0.21l0.19,0.23L6.25,7.53z M8.1,15.25c-0.08,0.08-0.14,0.17-0.19,0.26l-0.03,0.06c-0.33,0.66-1.25,2.46-0.51,3.89 c-0.82-0.11-1.72-0.33-2.21-0.78c-0.96-0.88-0.08-2.51,0.21-3.09c0.62-0.18,1.55-0.34,2.74-0.41C8.11,15.21,8.1,15.23,8.1,15.25z M9.28,8.22C9.23,8.4,9.19,8.58,9.19,8.79c0.02,0.5-0.08,2.91-0.95,5.77c-0.83,0.04-1.79,0.14-2.6,0.33 c0.86-2.66,1.01-5.09,0.97-5.78c0-0.17,0.05-0.32,0.16-0.45l0.28-0.32c0.6-0.08,1.29-0.12,2.08-0.12 C9.18,8.22,9.23,8.22,9.28,8.22z M9.9,7C9.89,7.09,9.88,7.18,9.89,7.26L9.61,7.59C9.6,7.59,9.6,7.6,9.6,7.6C9.43,7.6,9.27,7.6,9.13,7.6 c-0.51,0-1.23,0.03-1.89,0.09l0.32-1.96C7.58,5.6,7.65,5.46,7.75,5.37L8.04,5.1C8.07,5.09,8.08,5.06,8.1,5.04l0.31-0.37 c0.12-0.14,0.3-0.23,0.5-0.23h0.46c0.19,0,0.37,0.08,0.48,0.23l0.31,0.37c0.02,0.02,0.04,0.04,0.06,0.06L9.9,7z M11.84,15.66c-0.1,0.08-0.17,0.19-0.23,0.3l-0.03,0.07c-0.36,0.72-1.34,2.71-0.53,4.25 c-0.91-0.12-1.92-0.36-2.48-0.87c-1.07-0.98-0.09-2.8,0.23-3.44c0.69-0.2,1.72-0.38,3.05-0.45 C11.85,15.57,11.84,15.62,11.84,15.66z M13.79,6.43c-0.02,0.1-0.02,0.21,0,0.31c0,0-0.01,0.01-0.01,0.01L13.5,7.07c-0.18,0-0.35-0.01-0.51-0.01 c-0.57,0-1.38,0.03-2.11,0.1l0.36-2.18c0.02-0.15,0.09-0.3,0.21-0.4l0.33-0.3c0.03-0.02,0.05-0.05,0.07-0.07l0.35-0.41 c0.13-0.16,0.34-0.25,0.55-0.25h0.51c0.22,0,0.41,0.09,0.53,0.25l0.35,0.41c0,0,0,0,0,0L13.79,6.43z M13.11,7.76c-0.06,0.19-0.1,0.4-0.1,0.63c0.03,0.57-0.08,3.25-1.02,6.42c-0.92,0.05-1.98,0.16-2.89,0.36 c0.95-2.97,1.12-5.67,1.09-6.44c0-0.19,0.06-0.36,0.18-0.5l0.31-0.36c0.66-0.08,1.44-0.13,2.32-0.13 C13.04,7.76,13.07,7.76,13.11,7.76z"/></svg>