<svg viewBox="0 0 24 24" fill="#44739e" xmlns="http://www.w3.org/2000/svg"><title>hue:bulb-candle-hung-off</title><desc>Source: https://github.com/arallsopp/hass-hue-icons</desc><path d="M22,20.9L2.9,1.9L1.5,3.2l6.8,6.8c0,0.2-0.1,0.5-0.1,0.7c0,0,0,0.1,0,0.1c0.2-0.1,0.5-0.1,0.8-0.1l0.7,0.7 c-0.6,0.1-1,0.2-1.4,0.3C8.5,15.6,10.6,21,12,21c0.9,0,2-2,2.8-4.5l5.8,5.8L22,20.9z M15.7,11.7c-0.4-0.1-1.1-0.2-1.8-0.3l1.7,1.7C15.6,12.6,15.7,12.1,15.7,11.7z M13.9,6.1l-0.3-1.9c0-0.1-0.1-0.3-0.2-0.3l-0.3-0.3c0,0,0,0-0.1-0.1l-0.3-0.4C12.6,3.1,12.4,3,12.2,3h-0.5 c-0.2,0-0.4,0.1-0.5,0.2L11,3.6c0,0,0,0-0.1,0.1l-0.3,0.3c-0.1,0.1-0.2,0.2-0.2,0.3l-0.3,1.9C10.8,6,11.5,6,12,6S13.2,6,13.9,6.1z M15.8,10.9C15.8,10.9,15.8,10.8,15.8,10.9c0-2-0.6-3.3-1.3-4C13.8,6.8,13,6.8,12,6.8s-1.8,0.1-2.5,0.2 c0,0,0,0,0,0l3.6,3.6C14,10.6,15,10.7,15.8,10.9z"/></svg>