<svg viewBox="0 0 24 24" height="24px" width="24px" fill="#44739e" xmlns="http://www.w3.org/2000/svg"><title>hue:bulb-group-filament-filament-alt</title><desc>Source: https://github.com/arallsopp/hass-hue-icons</desc><path d="M18.13919,17.00312a2.37106,2.37106,0,0,0,.1519.7198,1.00914,1.00914,0,0,1-.33229,1.131l-.40824,2.4865a.847.847,0,0,1-.28482.53278l-.44622.40195-.08545.08419-.46521.54215a.9556.9556,0,0,1-.74054.33649h-.70256a.95553.95553,0,0,1-.74054-.33649L13.62,22.35934l-.08545-.08419-.44622-.40195a.847.847,0,0,1-.28482-.53278l-.40824-2.5145a1.0093,1.0093,0,0,1-.33229-1.1311,2.26749,2.26749,0,0,0,.1519-.7197,29.43947,29.43947,0,0,0,3.19.17756C16.24037,17.15268,17.18979,17.09658,18.13919,17.00312Zm4.6332-8.7494a7.39034,7.39034,0,0,1-1.0065,3.7391l-.10444.15883c-.09494.14956-.18988.29921-.29432.43941-1.2912,1.8508-2.345,2.2528-2.9906,3.4493a27.25206,27.25206,0,0,1-2.9526.15892,28.81423,28.81423,0,0,1-3.4558-.20566c-.6456-1.1591-1.6899-1.5797-2.9621-3.4025-.10443-.1402-.19938-.28985-.29432-.43941l-.10443-.15883a7.38627,7.38627,0,0,1,.74785-8.5548,7.67188,7.67188,0,0,1,8.4233-2.2235,7.4846,7.4846,0,0,1,4.9941,7.0392Zm-5.6965.53278a1.07974,1.07974,0,0,0,0-2.0844l-2.9432-.79463c-.26583-.06537-.40824-.20556-.40824-.29912,0-.09346.14241-.22429.38926-.29912l3.0571-.7478a.45539.45539,0,0,0,.29413-.20762.44279.44279,0,0,0,.04766-.35325.48462.48462,0,0,0-.56964-.34585l-3.0666.7478a1.33511,1.33511,0,0,0-1.1013,1.2058,1.32553,1.32553,0,0,0,1.1013,1.2058l2.9242.8039a.14993.14993,0,0,1,.11393.14956.14078.14078,0,0,1-.11393.14029l-3.5223.93473a1.05921,1.05921,0,0,0-.807,1.0377,1.07772,1.07772,0,0,0,.807,1.0469l2.9432.73844c.26583.06546.40824.20566.40824.29912s-.14241.22439-.38926.29912l-2.9621.68243a.47033.47033,0,1,0,.10443.93473h.11393l2.9811-.68234a1.33512,1.33512,0,0,0,1.1013-1.2058,1.33525,1.33525,0,0,0-1.0918-1.1966l-2.9337-.79453a.13133.13133,0,0,1-.11393-.14019.14061.14061,0,0,1,.11393-.1402Z M5.1438,9.62378a.10881.10881,0,0,0,.1026.11194l1.55743.37243a8.38482,8.38482,0,0,1-.13867-.92724L5.2464,9.51337A.11494.11494,0,0,0,5.1438,9.62378Z M5.40186,6.23914c0,.07446.12866.18585.36846.23785l.98261.23431a8.35478,8.35478,0,0,1,.2439-.97888l-1.24518.26886C5.529,6.06085,5.40186,6.16473,5.40186,6.23914Z M8.9668,15.28766c-.75574.07434-1.51154.11969-2.17658.11969a23.42655,23.42655,0,0,1-2.53882-.14148,1.803,1.803,0,0,1-.12127.57214.80308.80308,0,0,0,.26428.90021l.325,2.00244a.67159.67159,0,0,0,.227.42285l.356.32025.06683.0669.37006.43219a.7627.7627,0,0,0,.59076.26739h.55816a.75977.75977,0,0,0,.58924-.26739l.37158-.43219.06683-.0669.356-.32025a.67159.67159,0,0,0,.227-.42285l.325-1.97912a.80305.80305,0,0,0,.26428-.90021A1.8947,1.8947,0,0,1,8.9668,15.28766Z M4.65088,14.57086c.29761.01587,1.27856.07135,1.91858.07776.71338.00708,2.059-.03924,2.13928-.042l.06372-.0047.13434-.51264c-.23236-.27191-.47125-.5675-.72125-.92523-.09864-.13281-.20606-.30029-.3125-.46826l-.10157-.1543c-.04144-.07019-.06671-.1455-.10589-.21649l-2.47046.49835h-.1026a.42118.42118,0,0,1-.47577-.33111.38988.38988,0,0,1,.38092-.41205L7.315,11.6084c-.0979-.22431-.181-.45075-.25842-.68006l-2.0589-.45568a.88336.88336,0,0,1-.7276-.83332.869.869,0,0,1,.7276-.82556L6.61359,8.4353a8.41578,8.41578,0,0,1,.0169-.9718L5.5387,7.19843a1.11582,1.11582,0,0,1-.99347-.95929,1.12533,1.12533,0,0,1,.99347-.96076l1.75079-.37591a8.38412,8.38412,0,0,1,1.15808-1.9104,4.77628,4.77628,0,0,0-1.19409-.20124,2.67781,2.67781,0,0,0-.723-.19745,2.14652,2.14652,0,0,0-.64679.19745A4.09083,4.09083,0,0,0,3.18481,3.84491C1.83142,4.9931,2.42609,7.13934,2.42609,7.13934l1.93719,7.40973C4.4588,14.55743,4.5553,14.56348,4.65088,14.57086Z"/></svg>