<svg viewBox="0 0 24 24" fill="#44739e" xmlns="http://www.w3.org/2000/svg"><title>hue:bulb-group-spot-hung</title><desc>Source: https://github.com/arallsopp/hass-hue-icons</desc><path d="M15.93,5.66c0.52,0.03,1.03,0.16,1.5,0.4V4.5c0-0.41-0.34-0.75-0.75-0.75s-0.75,0.34-0.75,0.75V5.66z M12.93,6.05c0.47-0.23,0.98-0.37,1.5-0.4V4.5c0-0.41-0.34-0.75-0.75-0.75s-0.75,0.34-0.75,0.75V6.05z M21.93,18.26 c0-1.1-3.02-1.99-6.75-1.99c-3.73,0-6.75,0.89-6.75,1.99c0,0.14,0.05,0.28,0.14,0.4c0.62,0.91,3.35,1.59,6.61,1.59 C18.9,20.25,21.93,19.36,21.93,18.26z M15.18,15.52c1.99-0.04,3.96,0.27,5.84,0.91c-0.23-1.87-1.19-3.56-2.67-4.72 c-0.15-0.14-0.17-0.38-0.17-0.84V8.11c0.01-0.36-0.12-0.7-0.35-0.97c-0.74-0.6-1.7-0.87-2.65-0.75c-0.95-0.12-1.91,0.15-2.65,0.75 c-0.23,0.27-0.35,0.62-0.35,0.97v2.77c0,0.47-0.02,0.7-0.17,0.84c-1.48,1.16-2.44,2.85-2.67,4.72 C11.21,15.79,13.19,15.48,15.18,15.52z M4.95,7.08c0.34-0.17,0.71-0.27,1.09-0.29V5.95c0-0.3-0.24-0.55-0.55-0.55 S4.95,5.65,4.95,5.95V7.08z M8.97,14.15c0.25-0.64,0.59-1.25,1.01-1.81c-0.29-0.45-0.66-0.83-1.09-1.15 c-0.11-0.1-0.12-0.27-0.12-0.61V8.57c0-0.26-0.09-0.51-0.26-0.71C7.97,7.43,7.28,7.23,6.59,7.32C5.89,7.23,5.2,7.43,4.65,7.86 C4.49,8.06,4.4,8.31,4.4,8.57v2.01c0,0.34-0.01,0.51-0.12,0.61c-1.08,0.84-1.78,2.08-1.95,3.44c1.37-0.47,2.81-0.7,4.25-0.67 C7.38,13.97,8.18,14.03,8.97,14.15z M6.59,14.52c-2.71,0-4.91,0.65-4.91,1.45c0,0.1,0.04,0.21,0.1,0.29 c0.45,0.66,2.44,1.16,4.81,1.16c0.39,0,0.76-0.02,1.12-0.04c0.15-0.23,0.34-0.44,0.56-0.61l0.09-0.5c0.09-0.54,0.22-1.07,0.4-1.59 C8.03,14.57,7.31,14.52,6.59,14.52z M7.13,6.79c0.38,0.02,0.75,0.12,1.09,0.29V5.95c0-0.3-0.24-0.55-0.55-0.55 c-0.3,0-0.55,0.24-0.55,0.55L7.13,6.79z"/></svg>