<svg viewBox="0 0 24 24" fill="#44739e" xmlns="http://www.w3.org/2000/svg"><title>hue:bulb-spot-hung-off</title><desc>Source: https://github.com/arallsopp/hass-hue-icons</desc><path d="M21.97,20.95L2.88,1.86L1.5,3.24l7.5,7.5v0.12c0,0.47-0.02,0.7-0.17,0.84c-1.81,1.31-2.42,3.28-2.67,4.72 c1.63-0.68,4.11-0.91,5.84-0.91c0.56,0,1.19,0.03,1.85,0.08l0.84,0.84c-0.83-0.11-1.73-0.17-2.69-0.17c-3.73,0-6.75,0.89-6.75,1.99 c0,1.1,3.02,1.99,6.75,1.99c2.35,0,4.41-0.35,5.61-0.89l2.98,2.98L21.97,20.95z M15.17,11.72C15.02,11.58,15,11.35,15,10.88V8.11c0-0.36-0.11-0.71-0.35-0.98C14.28,6.7,13.47,6.38,12,6.38 c-1.27,0-2.04,0.25-2.47,0.59l7.91,7.91C17.05,13.77,16.38,12.6,15.17,11.72z M14.25,4.5c0-0.41-0.34-0.75-0.75-0.75s-0.75,0.34-0.75,0.75v1.15c0.67,0.06,1.16,0.21,1.5,0.4V4.5z M11.25,4.5c0-0.41-0.34-0.75-0.75-0.75S9.75,4.09,9.75,4.5v1.56c0.34-0.19,0.83-0.34,1.5-0.4V4.5z"/></svg>