<svg viewBox="0 0 24 24" fill="#44739e" xmlns="http://www.w3.org/2000/svg"><title>hue:bulb-group-sultan-3-off</title><desc>Source: https://github.com/arallsopp/hass-hue-icons</desc><path d="M18.26,8.05c1.55-0.08,2.75-0.29,3.55-0.52c0.38-0.75,1.51-2.86,0.27-4c-0.65-0.59-1.83-0.87-2.89-1.01 c0.94,1.79-0.2,4.11-0.62,4.95l-0.03,0.08c-0.07,0.13-0.15,0.26-0.27,0.35C18.27,7.95,18.26,8.01,18.26,8.05z M11.11,8.55l4.82,4.82c0.2-1.49,0.55-3.35,1.16-5.29c-1.58,0.37-3.56,0.5-4.91,0.5 C11.85,8.57,11.49,8.56,11.11,8.55z M12.18,7.65c2.4,0,4.18-0.3,5.3-0.63c0.42-0.84,1.64-3.19,0.29-4.47c-1.45-1.36-5.33-1.28-5.58-1.28 c-0.24,0-4.14-0.08-5.6,1.28C6.3,2.82,6.14,3.14,6.05,3.49l4.08,4.08C10.75,7.62,11.43,7.65,12.18,7.65z M19.62,16.97l0.36-0.42c0.14-0.16,0.21-0.36,0.21-0.58c-0.03-0.9,0.16-4.04,1.27-7.5 C20.4,8.7,19.17,8.83,18.1,8.89c-0.65,2.19-0.95,4.17-1.09,5.56l2.53,2.53C19.56,16.97,19.59,16.97,19.62,16.97z M5.17,2.51c-0.03,0-0.06,0.01-0.09,0.01l0.06,0.06C5.15,2.56,5.16,2.53,5.17,2.51z M9.51,18.46l0.44,2.84c0.03,0.19,0.12,0.39,0.26,0.52l0.42,0.38c0.03,0.02,0.06,0.06,0.08,0.08l0.44,0.54 c0.16,0.21,0.43,0.33,0.7,0.33h0.65c0.27,0,0.53-0.12,0.68-0.33l0.44-0.54c0.02-0.03,0.06-0.06,0.08-0.08l0.43-0.39 c0.15-0.14,0.25-0.32,0.27-0.52l0.45-2.83c-0.94,0.1-1.94,0.13-2.67,0.13S10.43,18.55,9.51,18.46z M7.57,17.1c-0.07-0.22-0.12-0.47-0.12-0.73c0.03-0.66-0.09-3.78-1.19-7.47C5.2,8.83,3.96,8.71,2.9,8.47 c1.11,3.46,1.3,6.6,1.27,7.5c0,0.22,0.07,0.42,0.21,0.58l0.36,0.42c0.77,0.09,1.68,0.15,2.7,0.15C7.49,17.1,7.53,17.1,7.57,17.1z M1.5,3.24l0.57,0.57C1.23,4.99,2.2,6.85,2.56,7.53c0.8,0.23,2,0.44,3.55,0.52c0-0.01,0.08-0.01,0.19-0.01 l1.33,1.33c0.87,3.31,1.04,6.16,0.99,7.04c0,0.24,0.07,0.45,0.22,0.64l0.4,0.47c0.83,0.11,1.83,0.17,2.93,0.17 c1.1,0,2.09-0.07,2.93-0.17l0.31-0.37l0.83,0.83L16,18.27v0.02c0.02,0.12,0.02,0.24,0,0.36l-0.41,2.57L16,21.7 c0.14,0.19,0.36,0.29,0.62,0.29h0.59c0.24,0,0.49-0.1,0.64-0.29l0.41-0.48c0.02-0.02,0.05-0.06,0.08-0.08l0.38-0.35 c0.06-0.05,0.1-0.12,0.14-0.18l1.73,1.73l1.38-1.38L2.88,1.86L1.5,3.24z M8.36,18.29l-0.01-0.01L8.02,17.9c-0.21,0-0.41,0.01-0.59,0.01c-0.66,0-1.61-0.03-2.46-0.12l0.42,2.54 c0.02,0.17,0.1,0.35,0.24,0.47l0.38,0.35c0.03,0.02,0.06,0.06,0.08,0.08l0.41,0.48C6.65,21.9,6.9,22,7.14,22h0.59 c0.26,0,0.48-0.1,0.62-0.29l0.41-0.48l-0.4-2.58C8.34,18.53,8.34,18.41,8.36,18.29z"/></svg>