<svg
    xmlns="http://www.w3.org/2000/svg"
    viewBox="0 0 24 24"
    height="24px"
    width="24px">
    <path d="M21.44633,1.08657H2.59644a1.51619,1.51619,0,0,0-1.51619,1.5162V21.45264a1.51619,1.51619,0,0,0,1.51619,1.5162H21.44633a1.5162,1.5162,0,0,0,1.5162-1.5162V2.60277A1.5162,1.5162,0,0,0,21.44633,1.08657Zm0,20.36607H2.59644V2.60277H21.44633Z M12.02138,17.6901A5.6624,5.6624,0,1,0,6.359,12.02773,5.66871,5.66871,0,0,0,12.02138,17.6901Zm0-9.592a3.9296,3.9296,0,1,1-3.92957,3.92962A3.93407,3.93407,0,0,1,12.02138,8.09811Z"/>
</svg>
