<svg viewBox="0 0 24 24" fill="#44739e" xmlns="http://www.w3.org/2000/svg"><title>hue:button</title><desc>Source: https://github.com/arallsopp/hass-hue-icons</desc><path d="M22.26,0.81H1.83c-0.55,0-1,0.45-1,1v20.43c0,0.55,0.45,1,1,1h20.43c0.55,0,1-0.45,1-1V1.81 C23.26,1.25,22.81,0.81,22.26,0.81z M22.26,22.24H1.83V1.81h20.43V22.24z M12.04,18.08c3.36,0,6.08-2.72,6.08-6.08 c0-3.36-2.72-6.08-6.08-6.08S5.96,8.64,5.96,12c0,0,0,0,0,0C5.96,15.36,8.68,18.08,12.04,18.08z M12.04,6.92 c2.81,0,5.08,2.28,5.08,5.08c0,2.81-2.28,5.08-5.08,5.08S6.96,14.81,6.96,12c0,0,0,0,0,0C6.96,9.19,9.24,6.92,12.04,6.92z"/></svg>