<svg viewBox="0 0 24 24" height="24px" width="24px" fill="#44739e" xmlns="http://www.w3.org/2000/svg"><title>hue:ceiling-flourish-pendant</title><desc>Source: https://github.com/arallsopp/hass-hue-icons</desc><path d="M15.39,12.45V3.43c0.66-0.19,1.08-0.43,1.08-0.7V1.85c0-0.57-1.81-1.04-4.04-1.04c-2.23,0-4.04,0.47-4.04,1.04v0.87 c0,0.27,0.42,0.52,1.08,0.7v8.91C6.29,13.14,4,15.29,4,17.82c0,2.42,2.08,4.49,5.05,5.37h6.33c0.05-0.02,0.11-0.03,0.16-0.04 c2.89-0.9,4.9-2.95,4.9-5.33C20.43,15.4,18.35,13.33,15.39,12.45z M10.48,7.5c0-1.33,0.65-2.24,1.46-2.86v5.91 C11.13,9.82,10.48,8.82,10.48,7.5z M11.94,11.84v0.17c-0.5,0.01-0.98,0.05-1.46,0.12v-1.68C10.9,11.01,11.41,11.47,11.94,11.84z M12.94,4.03c0.29-0.14,0.57-0.25,0.83-0.33c0.22-0.02,0.42-0.04,0.62-0.07v8.39c-0.39-0.15-0.92-0.39-1.46-0.72V4.03z M11.53,3.73 c-0.38,0.27-0.75,0.58-1.05,0.95V3.63C10.81,3.67,11.16,3.71,11.53,3.73z M15.24,22.2H9.2C6.64,21.4,5,19.69,5,17.82 C5,15.16,8.24,13,12.22,13s7.22,2.16,7.22,4.82C19.43,19.68,17.8,21.39,15.24,22.2z"/></svg>