<svg viewBox="0 0 24 24" fill="#44739e" xmlns="http://www.w3.org/2000/svg"><title>hue:ceiling-square-off</title><desc>Source: https://github.com/arallsopp/hass-hue-icons</desc><path d="M17.8,13.2c0.2,0.1,0.2,0.4,0,0.5l-1.2,0.4l1.1,1.1l2.9-1.1c0.2-0.1,0.4-0.4,0.4-0.7v-2.8 c0-0.3-0.2-0.6-0.4-0.6l-8.1-3.1c-0.3-0.1-0.6-0.1-0.9,0L10,7.4l4.7,4.7L17.8,13.2z M2.9,1.9L1.5,3.2l5.4,5.4L3.4,10C3.2,10,3,10.3,3,10.6v2.8C3,13.7,3.2,14,3.4,14l8.1,3.1 c0.3,0.1,0.6,0.1,0.9,0l2.1-0.8l6,6l1.4-1.4L2.9,1.9z M12.5,15.7c-0.3,0.1-0.6,0.1-0.9,0l-5.4-2c-0.2-0.1-0.2-0.4,0-0.5l3.9-1.4 l3.4,3.4L12.5,15.7z"/></svg>