<svg viewBox="0 0 24 24" fill="#44739e" xmlns="http://www.w3.org/2000/svg"><title>hue:ceiling-aurelle-circle-off</title><desc>Source: https://github.com/arallsopp/hass-hue-icons</desc><path d="M1.49,3.24l4.02,4.02C2.48,8.15,0.5,9.66,0.5,11.4v1c0,2.8,5,5,11.5,5c1.2,0,2.35-0.08,3.43-0.22l5.16,5.16 l1.38-1.38L2.88,1.86L1.49,3.24z M12,16.3c-6.3,0-10.5-2-10.5-4c0-1.41,2.09-2.81,5.53-3.52l1.35,1.35 C5.84,10.5,3.9,11.29,3.9,12.5c0,1.8,4.1,2.7,8.1,2.7c0.47,0,0.95-0.01,1.41-0.04l1.02,1.02C13.66,16.25,12.86,16.3,12,16.3z M20.1,12.5c0.05-1.69-3.73-2.56-7.65-2.62l4.74,4.74C18.91,14.17,20.1,13.47,20.1,12.5z M12,6.4c-1,0-1.95,0.06-2.87,0.16l1.76,1.76C11.25,8.31,11.62,8.3,12,8.3c6.3,0,10.5,2,10.5,4 c0,1.25-1.63,2.49-4.38,3.25l0.85,0.85c2.77-0.91,4.53-2.35,4.53-4v-1C23.5,8.6,18.5,6.4,12,6.4z"/></svg>