<svg viewBox="0 0 24 24" fill="#44739e" xmlns="http://www.w3.org/2000/svg"><title>hue:ceiling-fugato-two-off</title><desc>Source: https://github.com/arallsopp/hass-hue-icons</desc><path d="M1.49,3.24L5,6.75V8.1C5,9,6.2,9.7,7.9,9.7h0.05l0.1,0.1c-0.12,0-0.24,0-0.35,0c-0.1,0-0.2,0-0.3,0.1 C7.2,10,7,10,6.9,10.2c-0.4,0.2-2.9,2-4.1,2.9c-0.4,0.3-0.6,0.4-0.6,0.4c-0.5,0.4-0.8,1-0.8,1.7s0.25,1.39,0.7,2.1 c0.65,1.25,2.2,1.8,2.5,1.8c0.4,0,0.7-0.1,1-0.3c0,0,4.4-3,4.9-3.4c0.7-0.45,0.99-1.35,0.85-2.3l9.24,9.24l1.38-1.38L2.88,1.86 L1.49,3.24z M5.7,17.6L5.1,18c-0.6,0.4-1.7-0.1-2.3-1c-0.3-0.5-0.5-1.1-0.5-1.6c0-0.3,0.1-0.7,0.4-1L3.3,14 c0.2-0.1,0.3-0.1,0.5-0.1S4.2,14,4.3,14c0.5,0.2,0.9,0.6,1.3,1.1C6.3,16,6.3,17.2,5.7,17.6z M6,8.1C6,8.07,6.07,8,6.18,7.93 L6.8,8.54C6.28,8.39,6,8.16,6,8.1z M22.3,13.6c-0.1-0.1-0.3-0.2-0.7-0.5c-1.2-0.9-3.7-2.7-4.1-2.9c-0.2-0.1-0.3-0.2-0.5-0.3c-0.1,0-0.2,0-0.3-0.1 c-0.2,0-0.3,0-0.5,0V9.7c1.7,0,3.3-0.7,3.3-1.6v-2c0-0.5-0.5-0.9-1.2-1.2c-0.6-0.2-1.3-0.4-2.1-0.4h-0.8H8.8H7.9 c-0.26,0-0.53,0.01-0.79,0.04l2.96,2.96h5.43h0.9c1.2,0,1.9,0.5,1.9,0.6c0,0.1-0.6,0.6-1.9,0.6h-0.3V8.6c-0.9-0.3-1.3,0-1.3,0v0.1 h-3.53l1.1,1.1h2.43v0.5c-0.34,0.26-0.68,0.52-1.03,0.9l4.56,4.56c0.09-0.26,0.21-0.52,0.37-0.76c0.3-0.5,0.8-0.9,1.3-1.1 c0.1-0.1,0.3-0.1,0.5-0.1s0.3,0,0.5,0.1l0.6,0.4c0.4,0.2,0.4,0.7,0.4,1c0.1,0.5-0.1,1.1-0.5,1.6c-0.32,0.45-0.69,0.77-1.07,0.96 l0.64,0.64c0.51-0.35,0.96-0.82,1.23-1.2c0.5-0.6,0.7-1.4,0.7-2.1S22.8,14,22.3,13.6z"/></svg>