<svg viewBox="0 0 24 24" fill="#44739e" xmlns="http://www.w3.org/2000/svg"><title>hue:ceiling-rect</title><desc>Source: https://github.com/arallsopp/hass-hue-icons</desc><path d="M19.12,12.5l-9.3,3.55c-0.3,0.11-0.64,0.11-0.95,0l-3.94-1.52c-0.12-0.05-0.18-0.2-0.13-0.32 c0.03-0.06,0.07-0.1,0.13-0.13l9.42-3.49c0.29-0.1,0.61-0.1,0.91,0l3.84,1.47c0.13,0.05,0.19,0.19,0.13,0.32 C19.23,12.43,19.18,12.48,19.12,12.5 M21.88,8.78l-7.05-2.49c-0.3-0.12-0.64-0.12-0.95,0l-11.75,4.6c-0.25,0.12-0.41,0.38-0.4,0.66 v2.79c-0.01,0.28,0.14,0.54,0.4,0.66l6.76,2.56c0.3,0.12,0.64,0.12,0.95,0l12.05-4.67c0.25-0.12,0.41-0.38,0.4-0.66V9.43 C22.29,9.15,22.13,8.89,21.88,8.78"/></svg>