<svg
	xmlns="http://www.w3.org/2000/svg"
	viewBox="0 0 24 24"
	height="24px"
	width="24px">
	<path d="M22.3,13.6C22.3,13.6,22.3,13.6,22.3,13.6C22.2,13.6,22.2,13.6,22.3,13.6c-0.1-0.1-0.3-0.2-0.7-0.5 c-1.2-0.9-3.7-2.7-4.1-2.9c-0.2-0.1-0.3-0.2-0.5-0.3c0,0,0,0,0,0c-0.1,0-0.2,0-0.3-0.1c-0.2,0-0.3,0-0.5,0l0-0.1 c1.7,0,3.3-0.7,3.3-1.6v-2c0-0.9-1.6-1.6-3.3-1.6h-0.8H8.8H7.9C6.2,4.5,5,5.2,5,6.1v2C5,9,6.2,9.7,7.9,9.7l0.4,0v0l0,0l0,0v0.1 c-0.2,0-0.4,0-0.6,0c-0.1,0-0.2,0-0.3,0.1c0,0,0,0,0,0c-0.2,0.1-0.4,0.1-0.5,0.3c-0.4,0.2-2.9,2-4.1,2.9c-0.4,0.3-0.6,0.4-0.6,0.4 c0,0,0,0,0,0c0,0,0,0,0,0c-0.5,0.4-0.8,1-0.8,1.7s0.2,1.5,0.7,2.1c0.5,0.7,1.1,1.2,1.7,1.4C4,19,4.3,19.1,4.6,19.1 c0.4,0,0.7-0.1,1-0.3c0,0,0.1,0,0.1,0c0,0,4.3-3,4.8-3.4c1.1-0.7,1.2-2.5,0.2-3.9c-0.3-0.5-0.7-0.9-1.2-1.2l0-0.5l5.3,0l0,0.5 c-0.4,0.3-0.8,0.6-1.2,1.1c-1,1.5-0.9,3.2,0.2,3.9c0.5,0.3,4.8,3.4,4.8,3.4c0,0,0.1,0,0.1,0c0.3,0.2,0.6,0.3,1,0.3 c0.3,0,0.6-0.1,0.9-0.3c0.6-0.2,1.2-0.7,1.7-1.4c0.5-0.6,0.7-1.4,0.7-2.1S22.8,14,22.3,13.6z M5.7,17.6l-0.6,0.4 c-0.6,0.4-1.7-0.1-2.3-1c-0.3-0.5-0.5-1.1-0.5-1.6c0-0.3,0.1-0.7,0.4-1L3.3,14c0.2-0.1,0.3-0.1,0.5-0.1c0.2,0,0.4,0.1,0.5,0.1 c0.5,0.2,0.9,0.6,1.3,1.1C6.3,16,6.3,17.2,5.7,17.6z M6,6.2C6.1,6,6.7,5.5,7.9,5.5h0.8l6.8,0h0.8c1.2,0,1.9,0.5,1.9,0.6v0.7 c-0.5-0.2-1.1-0.4-1.9-0.4h-0.9l-6.6,0H7.9C7.2,6.4,6.5,6.5,6,6.8V6.2z M14.8,8.7l-5.3,0c0-0.1-0.4-0.4-1.3-0.1v0.1H7.9 C6.7,8.7,6,8.2,6,8.1C6,8,6.6,7.5,7.9,7.5h0.9l6.7,0h0.9c1.2,0,1.9,0.5,1.9,0.6c0,0.1-0.6,0.6-1.9,0.6h-0.3V8.6 c-0.9-0.3-1.3,0-1.3,0V8.7z M21.5,16.9c-0.7,1-1.7,1.4-2.3,1l-0.6-0.4c-0.6-0.4-0.5-1.6,0.1-2.5c0.3-0.5,0.8-0.9,1.3-1.1 c0.1-0.1,0.3-0.1,0.5-0.1c0.2,0,0.3,0,0.5,0.1l0.6,0.4c0.4,0.2,0.4,0.7,0.4,1C22.1,15.8,21.9,16.4,21.5,16.9z"/>
</svg>
