<svg viewBox="0 0 24 24" height="24px" width="24px" fill="#44739e" xmlns="http://www.w3.org/2000/svg"><title>hue:ceiling-flourish</title><desc>Source: https://github.com/arallsopp/hass-hue-icons</desc><path d="M12,6.3C6.5,6.3,0.9,7.5,0.9,9.6v2c0,0.3,0.2,0.5,0.5,0.5c0,0,0.1,0,0.1,0c0.1,1,0.6,2.3,2.4,3.5c2.7,1.9,6.8,2,8,2h0.3 c0,0,0.1,0,0.1,0c1.3,0,5.3-0.2,7.9-2c1.7-1.2,2.3-2.5,2.4-3.5c0,0,0.1,0,0.1,0c0.3,0,0.5-0.2,0.5-0.5v-2C23.1,7.5,17.5,6.3,12,6.3z M19.6,14.8c-2.4,1.7-6.3,1.9-7.4,1.8h-0.3c-1.1,0-5-0.1-7.4-1.8c-2.6-1.9-1.9-3.7-1.9-3.8l0-0.1c0,0,0,0,0,0 c1.3-0.7,4.5-1.6,9.4-1.6c4.9,0,8.1,0.8,9.4,1.6l0,0.1C21.5,11.1,22.1,12.9,19.6,14.8z"/></svg>