<svg viewBox="0 0 24 24" fill="#44739e" xmlns="http://www.w3.org/2000/svg"><title>hue:ceiling-flush-circular</title><desc>Source: https://github.com/arallsopp/hass-hue-icons</desc><path d="M12,4.6c-6.6,0-11.8,2.8-11.8,6.5V12c0,3.6,5.2,6.5,11.8,6.5s11.8-2.8,11.8-6.5v-0.9C23.8,7.5,18.6,4.6,12,4.6z M12,17.4c-5.9,0-10.8-2.5-10.8-5.5s5-5.5,10.8-5.5S22.8,9,22.8,12S17.9,17.4,12,17.4z M12,16.4c4.2,0,7.8-1.8,7.6-4.1 c0-0.2,0-0.4-0.1-0.7c-0.4-1.9-3.6-3.3-7.6-3.3s-6.73,1.53-7.49,2.95c-0.31,0.57-0.43,2.12,0.54,3.05C6.39,15.67,9.5,16.4,12,16.4z M12,9.3c3.8,0,6.5,1.4,6.6,2.7c-0.2,1.4-2.8,2.9-6.6,2.9S5.5,13.4,5.4,12C5.5,10.7,8.2,9.3,12,9.3z"/></svg>