<svg viewBox="0 0 24 24" height="24px" width="24px" fill="#44739e" xmlns="http://www.w3.org/2000/svg"><title>hue:ceiling-fair</title><desc>Source: https://github.com/arallsopp/hass-hue-icons</desc><path d="M23.42,9.35c0-2.34-7.47-2.96-11.41-2.96S0.59,7.01,0.59,9.35l0.04,4.24C0.59,15.57,8.17,16.35,12,16.35 c3.86,0,11.06-0.6,11.38-2.81L23.42,9.35z M12,15.35c-6.74,0-10.41-1.3-10.41-1.96c0-0.52,2.22-1.41,6.35-1.78 c1.74-0.09,3.63-0.13,5.51-0.15c5.82,0.17,8.97,1.32,8.97,1.94C22.42,14.06,18.74,15.35,12,15.35z M12.02,12.83 c-0.22,0-2.15,0.02-2.15,0.79s1.93,0.79,2.15,0.79s2.16-0.02,2.16-0.79S12.25,12.83,12.02,12.83z"/></svg>