<svg viewBox="0 0 24 24" fill="#44739e" xmlns="http://www.w3.org/2000/svg"><title>hue:ceiling-fugato-three-alt</title><desc>Source: https://github.com/arallsopp/hass-hue-icons</desc><path d="M22.5,11.6L22.5,11.6L22.5,11.6L22.5,11.6L22.5,11.6c-0.1-0.1-4.3-3-4.8-3.4c0,0-0.1,0-0.1-0.1 c1.7-0.3,3.2-0.8,3.2-1.6v-1c0-1.9-7.1-2-8.5-2s-8.5,0.1-8.5,2v1C3.8,7.3,5,7.7,6.5,8C6.4,8,6.3,8.1,6.2,8.2 c-0.5,0.3-4.8,3.4-4.8,3.4l0,0c-0.5,0.4-0.8,1-0.8,1.8c0,0.7,0.2,1.5,0.7,2.1c0.5,0.7,1.1,1.2,1.7,1.4c0.3,0.1,0.6,0.2,0.9,0.2 c0.4,0,0.7-0.1,1-0.3l0,0l0,0c0,0,0.2-0.1,0.4-0.3c0,0,0.1,0,0.1-0.1l0.1-0.1c1-0.6,2.6-1.7,3.5-2.3c0,0.7,0.1,1.2,0.1,1.2l0,0l0,0 l0,0l0,0c0,1.3,1.4,2.2,3.1,2.2h0.1c1.8,0,3.1-1.1,3.1-2.4l0,0l0,0c0,0,0-0.2,0-0.5v-0.1v-0.1c0.9,0.7,2.2,1.6,3,2.1l0.1,0.1 c0,0,0.1,0,0.1,0.1c0.3,0.2,0.4,0.3,0.4,0.3l0,0l0,0c0.3,0.2,0.7,0.3,1,0.3s0.6-0.1,0.9-0.2c0.7-0.3,1.3-0.8,1.7-1.4 c0.5-0.7,0.7-1.4,0.7-2.1C23.4,12.6,23.1,12,22.5,11.6z M20,11.1L20,11.1c-0.7,0.3-1.3,0.8-1.8,1.4l0,0c-0.5,0.7-0.7,1.4-0.7,2.1 c-0.9-0.6-1.8-1.3-2.3-1.6c0-1.1-0.1-2.4-0.1-3.1c0.6-0.8,1.5-1.1,2.1-0.7C17.4,9.3,18.8,10.2,20,11.1z M8.9,8.5V8.4 c0.1,0,0.1,0,0.2,0C9,8.5,9,8.5,8.9,8.5C8.9,8.6,8.9,8.5,8.9,8.5z M10.4,8.4c0.4-0.3,1-0.4,1.5-0.4c0.1,0,0.3,0,0.4,0l0,0 c0.5,0.1,0.9,0.2,1.2,0.4l0.1,0.1l0,0C13.8,8.7,14,8.9,14,9.2c0,0.1,0,0.2,0,0.5l0,0c0,0.4,0,0.9,0.1,1.4c0,0.5,0,1,0.1,1.6 c-0.6-0.4-1.3-0.5-2.1-0.5c-0.8,0-1.6,0.3-2.1,0.7l0,0c0-0.3,0-0.6,0-1c0-0.9-0.1-1.8-0.1-2.3l0,0c0-0.1,0-0.2,0-0.3 C9.9,9,10.1,8.7,10.4,8.4L10.4,8.4z M15.1,8.5L15,8.6c0-0.1,0-0.1-0.1-0.2C15,8.4,15,8.4,15.1,8.5L15.1,8.5z M12.3,4.6L12.3,4.6 L12.3,4.6L12.3,4.6z M15.5,4.7h-0.1C15.4,4.7,15.4,4.7,15.5,4.7z M14.2,4.6c-0.1,0-0.2,0-0.4,0C13.9,4.6,14,4.6,14.2,4.6z M10.8,4.6 c-0.1,0-0.2,0-0.3,0C10.6,4.6,10.7,4.6,10.8,4.6z M12.3,5.6c4.3,0,6.8,0.6,7.4,1c-0.3,0.2-1.4,0.5-3.3,0.8l0.1-0.7 c-0.9-0.3-1.3,0-1.3,0v0.8c-0.4,0-0.7,0-1.1,0.1c0,0,0,0-0.1,0c-0.1-0.1-0.2-0.1-0.4-0.2c-0.1,0-0.1,0-0.2-0.1 c-0.1,0-0.2-0.1-0.3-0.1s-0.3-0.1-0.4-0.1V6.4c0,0-0.1-0.3-1.2,0V7h-0.1c-0.1,0-0.2,0-0.3,0.1c-0.1,0-0.1,0-0.2,0 c-0.1,0-0.3,0.1-0.4,0.1l0,0c-0.1,0.1-0.3,0.1-0.4,0.2c-0.4,0-0.8-0.1-1.2-0.1V6.6c0,0-0.4-0.3-1.3,0l0.1,0.6C6.1,7,5.2,6.7,4.9,6.6 C5.5,6.2,8,5.6,12.3,5.6z M6.4,14.6c0-0.7-0.2-1.4-0.7-2.1l0,0c-0.5-0.7-1.1-1.2-1.7-1.4l0,0c1.2-0.9,2.6-1.8,2.9-2 c0.5-0.3,1.4,0,2,0.7c0,0.7,0.1,1.9,0.1,3C8.5,13.1,7.4,13.9,6.4,14.6z"/></svg>