<svg viewBox="0 0 24 24" fill="#44739e" xmlns="http://www.w3.org/2000/svg"><title>hue:ceiling-devere-off</title><desc>Source: https://github.com/arallsopp/hass-hue-icons</desc><path d="M1.5,3.24l3.66,3.66C2.92,7.74,1.5,8.98,1.5,10.4v3.9c0,0.1,0,0.2,0,0.2c0,2.6,4.7,4.6,10.6,4.6 c1.72,0,3.34-0.17,4.77-0.48l3.71,3.71l1.38-1.38L2.88,1.86L1.5,3.24z M12.1,18.1c-5.7,0-9.6-1.9-9.6-3.6 c0-1.41,2.68-2.94,6.82-3.43L16,17.75C14.83,17.97,13.52,18.1,12.1,18.1z M12.1,5.8c-1.23,0-2.4,0.09-3.49,0.25l4.89,4.89c4.92,0.28,8.2,2,8.2,3.56c0,0.75-0.88,1.58-2.38,2.26 l0.78,0.78c1.62-0.8,2.6-1.86,2.6-3.04v-4C22.7,7.8,18,5.8,12.1,5.8z"/></svg>