<svg
	xmlns="http://www.w3.org/2000/svg"
	viewBox="0 0 24 24"
	height="24px"
	width="24px">
	<path d="M23.4,8.3V6.9c0-0.9-1.1-1.5-2.7-1.5H4.2c-1.3,0-2.4,0.5-2.6,1.2c0,0.1-0.1,0.1-0.1,0.2v1.4c0,0,0,0,0,0c0,0,0,0,0,0.1 c0,1.1,1.2,1.9,2.7,1.9h2.5l0,0.5c-0.5-0.1-0.9,0-1.3,0.3C4.9,11.3,1,14.1,1,14.1c0,0,0,0,0,0c-0.5,0.3-0.8,0.9-0.8,1.6 c0,0.7,0.2,1.4,0.6,2c0.6,1,1.6,1.5,2.4,1.5c0.4,0,0.7-0.1,1-0.3l0,0l0,0l0,0l0.5-0.3c0,0,0.1-0.1,0.1-0.1l0.7-0.5 c0.6,0.8,1.5,1.3,2.2,1.3c0.4,0,0.7-0.1,1-0.3l0,0h0l0,0l0.5-0.3c0,0,0.1-0.1,0.1-0.1l0.7-0.5c0.4,0.5,0.9,0.9,1.4,1.1 c0.3,0.1,0.6,0.2,0.8,0.2c0.4,0,0.7-0.1,1-0.3l0.5-0.4c0,0,0,0,0.1-0.1l0.8-0.5c0.6,0.8,1.5,1.3,2.2,1.3c0.4,0,0.7-0.1,1-0.3 l0.5-0.4l0,0c0,0,0.1-0.1,0.1-0.1c1.1-0.8,3.4-2.4,3.8-2.6c1-0.7,1.1-2.3,0.2-3.6c-0.3-0.4-0.6-0.7-1-1l0-1.1 C22.7,9.9,23.4,9.2,23.4,8.3z M1.6,17.1c-0.3-0.4-0.5-1-0.5-1.4c0-0.2,0.1-0.6,0.4-0.8l0.5-0.4l0,0c0.1-0.1,0.3-0.1,0.4-0.1 c0.5,0,1.2,0.4,1.6,1.1c0.3,0.4,0.5,1,0.5,1.4c0,0.2-0.1,0.6-0.4,0.8l-0.5,0.4C3.2,18.4,2.2,18,1.6,17.1z M8.8,17.7l-0.5,0.4l0,0 c-0.5,0.4-1.5-0.1-2-0.9c-0.3-0.4-0.5-1-0.5-1.4c0-0.2,0.1-0.6,0.4-0.8l0.5-0.4c0.1-0.1,0.3-0.1,0.4-0.1l0.1,0 c0.5,0,1.1,0.4,1.6,1.1c0.3,0.4,0.5,1,0.5,1.4C9.2,17.1,9.1,17.5,8.8,17.7z M10,11c-0.2,0.1-0.7,0.5-1.4,0.9 c-0.2-0.3-0.5-0.5-0.8-0.7l0-1h3.4l0,0.5C10.8,10.6,10.3,10.7,10,11z M13.4,17.7l-0.5,0.4c-0.3,0.2-0.7,0.1-0.9,0 c-0.4-0.2-0.8-0.5-1.1-1s-0.5-1-0.5-1.4c0-0.2,0.1-0.6,0.4-0.8l0.5-0.4l0,0c0.1-0.1,0.3-0.1,0.4-0.1c0.5,0,1.2,0.4,1.6,1.1 c0.3,0.4,0.5,1,0.5,1.4C13.7,17.1,13.7,17.5,13.4,17.7z M14.5,11c-0.2,0.1-0.7,0.5-1.4,0.9c-0.2-0.3-0.5-0.5-0.8-0.7l0-1h3.4l0,0.5 C15.4,10.6,14.9,10.7,14.5,11z M18,17.7l-0.5,0.4c-0.5,0.4-1.5-0.1-2-0.9c-0.6-0.9-0.6-1.9-0.1-2.2l0.5-0.4c0.1-0.1,0.3-0.1,0.4-0.1 c0.2,0,0.4,0.1,0.5,0.1c0.4,0.2,0.8,0.5,1.1,1s0.5,1,0.5,1.4C18.3,17.1,18.3,17.5,18,17.7z M17.7,13.9L17.7,13.9L17.7,13.9 C17.7,13.9,17.7,13.9,17.7,13.9z M19.1,11c-0.2,0.1-0.7,0.5-1.4,0.9c-0.2-0.3-0.5-0.5-0.8-0.7l0-1h3.4l0,0.5 C20,10.6,19.5,10.7,19.1,11z M21.5,9.1l0-0.4c0,0-0.4-0.4-1.2-0.1l0,0.5h-3.4l0-0.5c0,0-0.4-0.4-1.2-0.1l0,0.5h-3.4l0-0.5 c0,0-0.4-0.4-1.2-0.1l0,0.5H7.8l0-0.5c0,0-0.4-0.4-1.2-0.1l0,0.5H4.2c-1,0-1.7-0.5-1.7-0.9s0.7-0.9,1.7-0.9h16.6 c1,0,1.7,0.5,1.7,0.9C22.4,8.6,22.1,8.9,21.5,9.1z"/>
</svg>
