<svg viewBox="0 0 24 24" fill="#44739e" xmlns="http://www.w3.org/2000/svg"><title>hue:ceiling-aurelle-off</title><desc>Source: https://github.com/arallsopp/hass-hue-icons</desc><path d="M1.49,3.24l3.5,3.5h-3.1c-0.35,0-0.62,0.28-0.62,0.62v1c0,0.05,0.02,0.09,0.03,0.14 C1.27,8.6,1.26,8.71,1.29,8.82l2.15,7.98c0.07,0.27,0.32,0.46,0.6,0.46h11.47l5.08,5.08l1.38-1.38L2.88,1.86L1.49,3.24z M4.52,16.01L2.71,9.28h4.82l6.73,6.73H4.52z M22.12,6.74H9.31l2.54,2.54h9.45l-1.78,6.73h-0.94l1.25,1.25H20c0.28,0,0.53-0.19,0.6-0.47l2.11-7.98 c0.03-0.11,0.02-0.21-0.01-0.32c0.01-0.05,0.03-0.09,0.03-0.14V7.36h0.01C22.74,7.01,22.46,6.74,22.12,6.74z"/></svg>