<svg viewBox="0 0 24 24" height="24px" width="24px" fill="#44739e" xmlns="http://www.w3.org/2000/svg"><title>hue:ceiling-aurelle-rect</title><desc>Source: https://github.com/arallsopp/hass-hue-icons</desc><path d="M17.74,3.86c0-0.35-0.28-0.62-0.62-0.62H6.89c-0.35,0-0.62,0.28-0.62,0.62v1C6.27,4.91,6.28,4.95,6.3,5 C6.27,5.1,6.26,5.21,6.28,5.32L8.44,20.3c0.07,0.27,0.32,0.46,0.6,0.46h5.96c0.28,0,0.53-0.19,0.6-0.47l2.11-14.98 c0.03-0.11,0.02-0.21-0.01-0.32c0.01-0.05,0.03-0.09,0.03-0.14L17.74,3.86L17.74,3.86z M14.52,19.51h-5L7.7,5.78h8.59L14.52,19.51z"/></svg>