<svg viewBox="0 0 24 24" height="24px" width="24px" fill="#44739e" xmlns="http://www.w3.org/2000/svg"><title>hue:ceiling-aurelle</title><desc>Source: https://github.com/arallsopp/hass-hue-icons</desc><path d="M22.74,7.36c0-0.35-0.28-0.62-0.62-0.62H1.89c-0.35,0-0.62,0.28-0.62,0.62v1c0,0.05,0.02,0.09,0.03,0.14 C1.27,8.6,1.26,8.71,1.29,8.82l2.15,7.98c0.07,0.27,0.32,0.46,0.6,0.46H20c0.28,0,0.53-0.19,0.6-0.47l2.11-7.98 c0.03-0.11,0.02-0.21-0.01-0.32c0.01-0.05,0.03-0.09,0.03-0.14V7.36z M19.52,16.01h-15L2.71,9.28H21.3L19.52,16.01z"/></svg>