<svg viewBox="0 0 24 24" height="24px" width="24px" fill="#44739e" xmlns="http://www.w3.org/2000/svg"><title>hue:ceiling-rect</title><desc>Source: https://github.com/arallsopp/hass-hue-icons</desc><path d="M19.125,12.50432,9.82848,16.04967a1.35723,1.35723,0,0,1-.94531,0L4.94665,14.5294a.24649.24649,0,0,1,.00391-.45313l9.42181-3.494a1.38575,1.38575,0,0,1,.90625,0l3.84252,1.469a.24555.24555,0,0,1,.0039.45312m2.75-3.72656-7.05016-2.4876a1.27525,1.27525,0,0,0-.94531,0L2.125,10.88725a.68453.68453,0,0,0-.39844.65625v2.78516a.68454.68454,0,0,0,.39844.65625l6.75821,2.56085a1.27525,1.27525,0,0,0,.94531,0L21.875,12.87542a.68454.68454,0,0,0,.39844-.65625V9.434a.68453.68453,0,0,0-.39844-.65625"/></svg>