<svg viewBox="0 0 24 24" fill="#44739e" xmlns="http://www.w3.org/2000/svg"><title>hue:ceiling-rect-off</title><desc>Source: https://github.com/arallsopp/hass-hue-icons</desc><path d="M1.5,3.24l5.67,5.67l-5.04,1.97c-0.25,0.12-0.41,0.38-0.4,0.66v2.79c-0.01,0.28,0.14,0.54,0.4,0.66l6.76,2.56 c0.3,0.12,0.64,0.12,0.95,0l4.3-1.67l6.46,6.46l1.38-1.38L2.88,1.86L1.5,3.24z M9.83,16.05c-0.3,0.11-0.64,0.11-0.95,0l-3.94-1.52 c-0.12-0.05-0.18-0.2-0.13-0.32c0.03-0.06,0.07-0.1,0.13-0.13l5.38-2l2.73,2.73L9.83,16.05z M21.88,8.78L21.88,8.78l-7.05-2.49c-0.3-0.12-0.64-0.12-0.95,0L10.26,7.7l3.21,3.21l0.9-0.33 c0.29-0.1,0.61-0.1,0.91,0l3.84,1.47c0.13,0.05,0.19,0.19,0.13,0.32c-0.02,0.06-0.07,0.11-0.13,0.13l0,0l-2.94,1.12l1.05,1.05 l4.64-1.8c0.25-0.12,0.41-0.38,0.4-0.66V9.43C22.29,9.15,22.13,8.89,21.88,8.78z"/></svg>