<svg viewBox="0 0 24 24" height="24px" width="24px" fill="#44739e" xmlns="http://www.w3.org/2000/svg"><title>hue:ceiling-beyond</title><desc>Source: https://github.com/arallsopp/hass-hue-icons</desc><path d="M23.45,16.66c-0.69-2.4-2.19-4.07-3.84-5.24c0.34-0.13,0.54-0.32,0.54-0.64c0-0.17-0.03-0.31-0.19-0.45 c-0.8-1.51-3.05-2.78-3.8-3.16l-0.14-0.79C15.99,6.21,15.87,6.06,15.7,6c-0.05-0.02-1.32-0.48-3.7-0.48c-0.01,0-0.02,0-0.02,0 c-2.37,0-3.6,0.46-3.65,0.48C8.16,6.07,8.05,6.21,8.02,6.38L7.88,7.17c-0.74,0.39-3.01,1.66-3.8,3.18 c-0.14,0.13-0.17,0.27-0.17,0.43c0,0,0,0,0,0c0,0.01,0,0.02,0.01,0.03c0.02,0.29,0.21,0.47,0.53,0.6c-1.65,1.17-3.15,2.84-3.85,5.24 c-0.04,0.15-0.01,0.31,0.08,0.43c0.09,0.12,0.24,0.2,0.39,0.2c1.59,0.03,2.94,0.07,4.12,0.1c2.7,0.07,4.65,0.11,6.81,0.11 c3.06,0,10.9-0.21,10.98-0.21c0.15,0,0.3-0.08,0.39-0.21C23.46,16.97,23.49,16.81,23.45,16.66z M12,9.58 M5.69,9.88 C6.6,9.01,7.94,8.25,8.54,7.96c0.15-0.07,0.25-0.21,0.28-0.37l0.13-0.74c0.45-0.12,1.46-0.34,3.03-0.34c0.01,0,0.01,0,0.02,0 c1.58,0,2.63,0.22,3.09,0.34l0.13,0.73c0.03,0.16,0.13,0.3,0.28,0.37c0.6,0.29,1.94,1.05,2.85,1.92c0,0-3.94-0.48-6.35-0.48 S5.69,9.88,5.69,9.88z M12,16.51c-2.15,0-4-0.04-6.79-0.11c-1.02-0.03-2.15-0.05-3.45-0.08c0.85-2.27,2.55-3.75,4.27-4.72 c0.29-0.16,0.58-0.31,0.88-0.45c0.03-0.01,0.06-0.03,0.09-0.05c0.31-0.15,0.64-0.28,0.96-0.4c1.25-0.07,2.72-0.21,4.06-0.22 c1.62-0.02,3.1,0.13,4.04,0.22c0.33,0.12,0.65,0.26,0.97,0.41c0.03,0.02,0.07,0.03,0.1,0.05c0.29,0.14,0.58,0.29,0.86,0.45 c1.73,0.97,3.43,2.46,4.28,4.73C20.31,16.37,14.52,16.51,12,16.51z"/></svg>