<svg viewBox="0 0 24 24" height="24px" width="24px" fill="#44739e" xmlns="http://www.w3.org/2000/svg"><title>hue:ceiling-beyond-alt</title><desc>Source: https://github.com/arallsopp/hass-hue-icons</desc><path d="M23.45,16.66c-0.69-2.4-2.19-4.07-3.84-5.24c0.34-0.13,0.54-0.32,0.54-0.64c0-0.17-0.03-0.31-0.19-0.45 c-0.8-1.51-3.05-2.78-3.8-3.16l-0.14-0.79C15.99,6.21,15.87,6.06,15.7,6c-0.05-0.02-1.32-0.48-3.7-0.48c-0.01,0-0.02,0-0.02,0 c-2.37,0-3.6,0.46-3.65,0.48C8.16,6.07,8.05,6.21,8.02,6.38L7.88,7.17c-0.74,0.39-3.01,1.66-3.8,3.18 c-0.14,0.13-0.17,0.27-0.17,0.43c0,0,0,0,0,0c0,0.01,0,0.02,0.01,0.03c0.02,0.29,0.21,0.47,0.53,0.6c-1.65,1.17-3.15,2.84-3.85,5.24 c-0.04,0.15-0.01,0.31,0.08,0.43c0.09,0.12,0.24,0.2,0.39,0.2c1.59,0.03,2.94,0.07,4.12,0.1c2.7,0.07,4.65,0.11,6.81,0.11 c3.06,0,10.9-0.21,10.98-0.21c0.15,0,0.3-0.08,0.39-0.21C23.46,16.97,23.49,16.81,23.45,16.66z M5.69,9.88 C6.6,9.01,7.94,8.25,8.54,7.96c0.15-0.07,0.25-0.21,0.28-0.37l0.13-0.74c0.45-0.12,1.46-0.34,3.03-0.34c0.01,0,0.01,0,0.02,0 c1.58,0,2.63,0.22,3.09,0.34l0.13,0.73c0.03,0.16,0.13,0.3,0.28,0.37c0.6,0.29,1.94,1.05,2.85,1.92c0,0-3.42-0.5-6.35-0.5 S5.69,9.88,5.69,9.88z"/></svg>