<svg viewBox="0 0 24 24" fill="#44739e" xmlns="http://www.w3.org/2000/svg"><title>hue:ceiling-still</title><desc>Source: https://github.com/arallsopp/hass-hue-icons</desc><path d="M22.45,9.71c-1.73-1.89-5.21-2.85-10.33-2.85C7,6.86,3.53,7.82,1.79,9.71c-0.66,0.65-1.03,1.53-1.05,2.46l0,0 l0,0l0,0.04c0.01,0.03,0.01,0.06,0.03,0.09c0.29,2.19,7.5,2.78,11.35,2.78c3.86,0,11.06-0.59,11.35-2.78 c0.01-0.03,0.02-0.06,0.03-0.09C23.5,11.27,23.12,10.37,22.45,9.71z M12.12,14.08c-6.85,0-10.38-1.34-10.38-1.92 s3.53-1.92,10.38-1.92s10.38,1.34,10.38,1.92S18.97,14.08,12.12,14.08z M12.12,10.78c0,0-5.51,0.04-5.49,1.11 c0.02,1.08,4.51,1.46,5.49,1.46s5.38-0.38,5.38-1.5S12.12,10.78,12.12,10.78z"/></svg>