<svg viewBox="0 0 24 24" height="24px" width="24px" xmlns="http://www.w3.org/2000/svg"><title>hue:ceiling-surimu</title><desc>Source: https://github.com/arallsopp/hass-hue-icons</desc><path d="M22.51,8.88c-0.09-0.12-0.24-0.19-0.4-0.19h-3l-0.21-0.65c-0.07-0.21-0.26-0.35-0.48-0.35H5.58c-0.22,0-0.41,0.14-0.48,0.35 L4.89,8.69h-3c-0.16,0-0.3,0.07-0.4,0.2C1.4,9.01,1.37,9.17,1.41,9.32l2.15,7.98c0.06,0.22,0.26,0.37,0.48,0.37H20 c0.23,0,0.43-0.15,0.48-0.37l2.11-7.98C22.63,9.17,22.6,9.01,22.51,8.88z M21.46,9.69l-1.84,6.98H4.42L2.54,9.69H21.46z"/></svg>