<svg
	xmlns="http://www.w3.org/2000/svg"
	viewBox="0 0 24 24"
	height="24px"
	width="24px">
	<path d="M23.63,12.03c0-1.75-1.9-3.3-4.8-4.25c-0.54-1.7-3.34-2.97-6.83-2.97c-3.49,0-6.29,1.26-6.83,2.97 c-2.9,0.96-4.8,2.5-4.8,4.25h0.01c0,0.03-0.01,0.07-0.01,0.1C0.37,14.83,5.58,17,12,17c6.42,0,11.63-2.18,11.63-4.87 c0-0.04-0.01-0.07-0.01-0.1H23.63z M12,5.82c2.53,0,4.5,0.71,5.4,1.56c-1.61-0.38-3.45-0.6-5.4-0.6c-1.95,0-3.79,0.22-5.4,0.6 C7.49,6.52,9.47,5.82,12,5.82z M12.27,16.1c-4.98,0-9.01-1.77-9.01-3.96c0-2.19,4.04-3.96,9.01-3.96s9.01,1.77,9.01,3.96 C21.28,14.32,17.25,16.1,12.27,16.1z"/>
</svg>
