<svg viewBox="0 0 24 24" height="24px" width="24px" xmlns="http://www.w3.org/2000/svg"><title>hue:ceiling-aurelle</title><desc>Source: https://github.com/arallsopp/hass-hue-icons</desc><path d="M22.61,8.01c0-0.28-0.22-0.5-0.5-0.5H1.89c-0.28,0-0.5,0.22-0.5,0.5v1c0,0.03,0.01,0.05,0.02,0.08c0,0.02,0,0.04,0,0.05 l2.15,7.98c0.06,0.22,0.26,0.37,0.48,0.37H20c0.23,0,0.43-0.15,0.48-0.37l2.11-7.98c0-0.02,0-0.04,0-0.05 c0-0.03,0.01-0.05,0.01-0.07V8.01z M19.62,16.49H4.42L2.54,9.51h18.92L19.62,16.49z"/></svg>