<svg viewBox="0 0 24 24" fill="#44739e" xmlns="http://www.w3.org/2000/svg"><title>hue:centris-off</title><desc>Source: https://github.com/arallsopp/hass-hue-icons</desc><path d="M1.49,3.24l2.15,2.15C2.78,5.7,1.92,6.02,1.05,6.33C0.88,6.37,0.77,6.53,0.79,6.7c0,1.56,0,3.12,0,4.69 c-0.02,0.17,0.1,0.33,0.27,0.36c0.26,0.09,0.52,0.17,0.78,0.26c2.36,0.78,4.73,1.56,7.09,2.34c0.58,0.19,1.15,0.38,1.73,0.57 l0.04-0.09c0.19-0.51,0.59-0.9,1.1-1.08c0.05-0.02,0.1-0.04,0.14-0.05l0.9,0.9c-0.21,0.07-0.41,0.15-0.62,0.22 c-0.24,0.08-0.42,0.27-0.48,0.51c-0.06,0.22-0.1,0.45-0.11,0.68c0.03,0.25,0.05,0.5,0.09,0.74c0.1,0.64,0.33,1.24,0.68,1.78 c0.26,0.42,0.62,0.76,1.04,0.99c0.23,0.14,0.51,0.17,0.76,0.07c0.85-0.36,1.7-0.72,2.55-1.08l3.82,3.82l1.38-1.38L2.88,1.86 L1.49,3.24z M14.52,18.07c-0.1,0.25-0.39,0.36-0.64,0.26c-0.01,0-0.02-0.01-0.02-0.01c-0.22-0.1-0.41-0.26-0.54-0.46 c-0.31-0.42-0.47-0.93-0.46-1.45c0-0.18,0.04-0.36,0.13-0.52c0.11-0.22,0.36-0.31,0.59-0.23c0.21,0.07,0.4,0.21,0.53,0.4 c0.33,0.42,0.52,0.93,0.53,1.47C14.64,17.71,14.6,17.89,14.52,18.07z M10.78,13.13c-0.12,0.05-0.25,0.06-0.37,0.02 c-1.18-0.38-2.36-0.76-3.55-1.13c-0.93-0.3-1.86-0.59-2.79-0.89c-0.4-0.13-0.79-0.25-1.18-0.38c-0.16-0.03-0.26-0.18-0.23-0.34 c0-0.01,0-0.02,0.01-0.03c0.03-0.1,0.1-0.17,0.2-0.2c0.29-0.12,0.59-0.24,0.88-0.36c0.74-0.3,1.49-0.61,2.23-0.92 c0.1-0.04,0.21-0.04,0.32,0c0.43,0.15,0.86,0.29,1.29,0.44l3.61,3.61C11.06,13.01,10.92,13.07,10.78,13.13z M20.71,16.24 c0.07-0.28,0.08-0.56,0.04-0.84c-0.07-0.6-0.28-1.18-0.6-1.68c-0.24-0.41-0.59-0.73-1.01-0.94c-0.33-0.17-0.71-0.2-1.06-0.08 c-0.69,0.25-1.38,0.5-2.07,0.75l3.79,3.79c0.02-0.01,0.04-0.02,0.06-0.02C20.3,17.06,20.62,16.69,20.71,16.24z M23.21,10.2 c0.02-0.18-0.1-0.35-0.28-0.39c-1.08-0.36-2.16-0.73-3.24-1.09c-1.97-0.66-3.94-1.32-5.91-1.98c6.52,10.32,6.84,9.95,6.93,9.5 L23.21,10.2z M23.21,10.2c0.02-0.18-0.1-0.35-0.28-0.39c-1.08-0.36-2.16-0.73-3.24-1.09c-1.97-0.66-3.94-1.32-5.91-1.98 C11.54,5.99,9.3,5.23,7.05,4.48l8.06,8.06c0.14-0.05,0.29-0.1,0.43-0.16c0.75-0.27,1.49-0.55,2.24-0.81c0.48-0.16,0.99-0.16,1.47,0 c0.62,0.19,1.16,0.57,1.56,1.08c0.62,0.76,1,1.69,1.09,2.66c0.01,0.11,0.02,0.23,0.02,0.35c0.03-0.02,0.06-0.03,0.08-0.04 c0.32-0.17,0.65-0.34,0.97-0.51c0.15-0.07,0.24-0.22,0.23-0.38C23.21,13.23,23.21,11.71,23.21,10.2z"/></svg>