<svg
    xmlns="http://www.w3.org/2000/svg"
    viewBox="0 0 24 24"
    height="24px"
    width="24px">
    <path d="M23.31451,13.28022l.00414.00027-.02614-.02818-.02389-.03a.94539.94539,0,0,0-.07965-.08163l-1.79083-1.93129h1.16737l.48954-.88363L22.90442,5.2219H.86534v5.10383l.5272.95894,10.0826.03766v3.954l.00021-.00013c.00455.58407.90889,1.05683,2.024,1.05683,1.09177,0,1.98117-.45318,2.02229-1.02026l.002.00122V11.20936l1.80754.03766a1.33409,1.33409,0,0,0-.226,1.205s2.27231,2.63587,2.93055,3.39617a.94559.94559,0,0,0,.06945.09261,1.13667,1.13667,0,0,0,.8901.363,2.55728,2.55728,0,0,0,1.60035-.66477C23.44113,14.91247,23.75047,13.87563,23.31451,13.28022ZM10.096,11.01419H1.70834l-.30482-.57627H10.154Zm3.40339,4.87c-.97731,0-1.57546-.39652-1.57546-.61244s.59815-.61243,1.57546-.61243,1.57547.39652,1.57547.61243S14.47671,15.88422,13.49939,15.88422Zm8.80379-.58558a2.13122,2.13122,0,0,1-1.30784.55636.71445.71445,0,0,1-.54973-.20669.81588.81588,0,0,1-.08735-.733,2.25713,2.25713,0,0,1,.71241-1.05089,2.13145,2.13145,0,0,1,1.30787-.55635l0-.09068h0v.09068a.71434.71434,0,0,1,.54966.20669.81591.81591,0,0,1,.08735.733A2.25708,2.25708,0,0,1,22.30318,15.29864Z"/>
</svg>
