<svg viewBox="0 0 24 24" fill="#44739e" xmlns="http://www.w3.org/2000/svg"><title>hue:centris-two-off</title><desc>Source: https://github.com/arallsopp/hass-hue-icons</desc><path d="M1.49,3.24L3.15,4.9H0.5c0,0-0.2,0.1-0.2,0.3v4.4l0.6,1.8c0.1,0.1,0.2,0.2,0.3,0.2h8.65l1.05,1.05v2.55 c0,0.8,1,1.4,2.4,1.4c0.5,0,0.94-0.09,1.31-0.24l5.97,5.97l1.38-1.38L2.88,1.86L1.49,3.24z M1.8,10.7L1.6,9.9h6.55l0.8,0.8H1.8z M13.3,15.7c-0.8,0-1.4-0.3-1.4-0.6c0-0.23,0.36-0.46,0.9-0.55l1.1,1.1C13.72,15.68,13.52,15.7,13.3,15.7z M23.5,13.1L22,11.6h0.3c0.1,0,0.3-0.1,0.3-0.2l0.4-1.3c0-0.1,0-0.1,0-0.2l-0.1-4.7c0-0.2-0.2-0.3-0.4-0.3H7.47 l8.23,8.23V11.5h0.9c-0.1,0.3-0.1,0.7,0,1l0.1,0.1c0,0,2.3,2.6,2.9,3.4l0.1,0.1c0.3,0.3,0.7,0.5,1.2,0.5c0.7,0,1.2-0.2,1.8-0.8 C23.3,15.2,23.9,14.1,23.5,13.1z M22.5,14.1c-0.1,0.4-0.3,0.7-0.6,0.9c-0.3,0.3-0.7,0.4-1.1,0.5c-0.1,0-0.2,0-0.3-0.1 c-0.1-0.1-0.1-0.3,0-0.4c0.1-0.3,0.3-0.6,0.6-0.9c0.3-0.3,0.7-0.4,1.1-0.5c0.1,0,0.2,0,0.3,0.1C22.5,13.9,22.5,14,22.5,14.1z"/></svg>