<svg viewBox="0 0 24 24" fill="#44739e" xmlns="http://www.w3.org/2000/svg"><title>hue:centris-three-off</title><desc>Source: https://github.com/arallsopp/hass-hue-icons</desc><path d="M1.49,3.24L3.15,4.9H0.5c0,0-0.2,0.1-0.2,0.3v4.4l0.6,1.8c0.1,0.1,0.2,0.2,0.3,0.2h8.65l0.25,0.25L9,13.1 c-0.4,1,0.1,2.1,0.8,2.8c0.6,0.6,1.2,0.7,1.8,0.8c0.4,0,0.9-0.2,1.2-0.5l0.1-0.1c0.14-0.17,0.39-0.45,0.67-0.78l7.02,7.02 l1.38-1.38L2.88,1.86L1.49,3.24z M12,15.4c-0.1,0.1-0.2,0.1-0.3,0.1c-0.4,0-0.8-0.2-1.1-0.5c-0.3-0.2-0.5-0.5-0.6-0.9 c-0.1-0.1,0-0.2,0-0.4c0.1-0.1,0.2-0.1,0.3-0.1c0.4,0,0.8,0.2,1.1,0.5c0.3,0.2,0.5,0.5,0.6,0.9C12.1,15.1,12,15.3,12,15.4z M1.8,10.7L1.6,9.9h6.55l0.8,0.8H1.8z M23.5,13.1L22,11.6h0.3c0.1,0,0.3-0.1,0.3-0.2l0.4-1.3c0-0.1,0-0.1,0-0.2l-0.1-4.7c0-0.2-0.2-0.3-0.4-0.3H7.47 l9.77,9.77c0.28,0.11,0.46,0.27,0.46,0.43c0,0.01-0.01,0.01-0.01,0.02l0.72,0.72c0.15-0.17,0.26-0.35,0.28-0.55v-0.4 c0.38,0.45,0.72,0.86,0.9,1.1l0.1,0.1c0.3,0.3,0.7,0.5,1.2,0.5c0.7,0,1.2-0.2,1.8-0.8C23.3,15.2,23.9,14.1,23.5,13.1z M22.5,14.1 c-0.1,0.4-0.3,0.7-0.6,0.9c-0.3,0.3-0.7,0.4-1.1,0.5c-0.1,0-0.2,0-0.3-0.1c-0.1-0.1-0.1-0.3,0-0.4c0.1-0.3,0.3-0.6,0.6-0.9 c0.3-0.3,0.7-0.4,1.1-0.5c0.1,0,0.2,0,0.3,0.1C22.5,13.9,22.5,14,22.5,14.1z"/></svg>