<svg viewBox="0 0 24 24" fill="#44739e" xmlns="http://www.w3.org/2000/svg"><title>hue:centris</title><desc>Source: https://github.com/arallsopp/hass-hue-icons</desc><path d="M23.21,10.2c0.02-0.18-0.1-0.35-0.28-0.39c-1.08-0.36-2.16-0.73-3.24-1.09c-1.97-0.66-3.94-1.32-5.91-1.98 c-2.35-0.79-4.69-1.58-7.04-2.36c-0.09-0.03-0.19-0.03-0.28,0c-1.8,0.65-3.6,1.3-5.4,1.95c-0.17,0.04-0.28,0.2-0.26,0.37 c0,1.56,0,3.12,0,4.69c-0.02,0.17,0.1,0.33,0.27,0.36c0.26,0.09,0.52,0.17,0.78,0.26c2.36,0.78,4.73,1.56,7.09,2.34 c0.58,0.19,1.15,0.38,1.73,0.57l0.04-0.09c0.19-0.51,0.59-0.9,1.1-1.08c1.25-0.45,2.5-0.9,3.74-1.36c0.75-0.27,1.49-0.55,2.24-0.81 c0.48-0.16,0.99-0.16,1.47,0c0.62,0.19,1.16,0.57,1.56,1.08c0.62,0.76,1,1.69,1.09,2.66c0.01,0.11,0.02,0.23,0.02,0.35 c0.03-0.02,0.06-0.03,0.08-0.04c0.32-0.17,0.65-0.34,0.97-0.51c0.15-0.07,0.24-0.22,0.23-0.38C23.21,13.23,23.21,11.71,23.21,10.2z M13.59,11.94c-0.3,0.13-0.6,0.25-0.89,0.38c-0.64,0.27-1.28,0.54-1.92,0.82c-0.12,0.05-0.25,0.06-0.37,0.02 c-1.18-0.38-2.36-0.76-3.55-1.13c-0.93-0.3-1.86-0.59-2.79-0.89C3.67,11,3.28,10.88,2.88,10.75c-0.16-0.03-0.26-0.18-0.23-0.34 c0-0.01,0-0.02,0.01-0.03c0.03-0.1,0.1-0.17,0.2-0.2c0.29-0.12,0.59-0.24,0.88-0.36c0.74-0.3,1.49-0.61,2.23-0.92 C6.08,8.86,6.19,8.86,6.3,8.9c1.45,0.5,2.9,0.99,4.36,1.49c0.96,0.33,1.93,0.66,2.89,0.99c0.04,0.01,0.07,0.03,0.1,0.05 c0.08,0.05,0.14,0.14,0.13,0.24C13.79,11.78,13.71,11.89,13.59,11.94z M20.15,13.71c-0.24-0.41-0.59-0.73-1.01-0.94 c-0.33-0.17-0.71-0.2-1.06-0.08c-0.75,0.27-1.49,0.54-2.24,0.81c-1.21,0.44-2.41,0.88-3.62,1.31c-0.24,0.08-0.42,0.27-0.48,0.51 c-0.06,0.22-0.1,0.45-0.11,0.68c0.03,0.25,0.05,0.5,0.09,0.74c0.1,0.64,0.33,1.24,0.68,1.78c0.26,0.42,0.62,0.76,1.04,0.99 c0.23,0.14,0.51,0.17,0.76,0.07c1.09-0.46,2.18-0.92,3.27-1.38c0.79-0.34,1.58-0.68,2.38-1c0.43-0.16,0.75-0.53,0.84-0.98 c0.07-0.28,0.08-0.56,0.04-0.84C20.68,14.79,20.48,14.22,20.15,13.71z M14.52,18.07c-0.1,0.25-0.39,0.36-0.64,0.26 c-0.01,0-0.02-0.01-0.02-0.01c-0.22-0.1-0.41-0.26-0.54-0.46c-0.31-0.42-0.47-0.93-0.46-1.45c0-0.18,0.04-0.36,0.13-0.52 c0.11-0.22,0.36-0.31,0.59-0.23c0.21,0.07,0.4,0.21,0.53,0.4c0.33,0.42,0.52,0.93,0.53,1.47C14.64,17.71,14.6,17.89,14.52,18.07z"/></svg>