<svg viewBox="0 0 24 24" fill="#44739e" xmlns="http://www.w3.org/2000/svg"><title>hue:daylo-wall-off</title><desc>Source: https://github.com/arallsopp/hass-hue-icons</desc><path d="M1.5,3.24l1.96,1.96C1.58,7.15,0.5,9.72,0.5,12.5C0.5,18.2,5.2,23,11,23c2.59,0,5.59-1.04,7.74-2.51l1.84,1.84 l1.38-1.38L2.88,1.86L1.5,3.24z M13,21.1c-5.2,0-9.5-4.3-9.5-9.5c0-1.82,0.51-3.52,1.38-4.97l13.05,13.05 C16.49,20.57,14.8,21.1,13,21.1z M13,2c5.3,0,9.5,4.3,9.5,9.5c0,2.36-0.85,4.51-2.26,6.18l0.73,0.73c1.56-1.89,2.53-4.25,2.53-6.81 C23.5,5.8,18.8,1,13,1c-0.5,0-0.9,0-1.4,0.1C9.61,1.34,7.38,2.33,5.85,3.29l0.99,0.99C8.49,2.86,10.63,2,13,2z"/></svg>