<svg viewBox="0 0 24 24" fill="#44739e" xmlns="http://www.w3.org/2000/svg"><title>hue:double-spot-off</title><desc>Source: https://github.com/arallsopp/hass-hue-icons</desc><path d="M1.49,3.24l0.69,0.69C2.03,4.05,1.91,4.16,1.85,4.28C1.81,4.36,1.8,4.43,1.8,4.51v0.55 c0,0.08,0.02,0.15,0.06,0.22C2.07,5.71,2.91,6.13,4.4,6.46c0.12,0.03,0.26,0.05,0.38,0.07L7.15,8.9v0.65l-5.28,1.77 c-0.86,0.3-1.1,1.8-0.54,3.36c0.56,1.56,1.71,2.58,2.57,2.28l5.76-2.65c0.61-0.24,0.72-1.38,0.29-2.62l1.63,1.63 c-0.04,0.09-0.09,0.17-0.13,0.27c-0.72,1.73-0.6,3.41,0.27,3.74l7.02,3.15l1.85,1.85l1.38-1.38L2.88,1.86L1.49,3.24z M3.96,15.55 c-0.49,0.17-1.14-0.41-1.46-1.3c-0.32-0.89-0.18-1.74,0.3-1.91c0.49-0.17,1.14,0.41,1.46,1.3C4.58,14.52,4.45,15.38,3.96,15.55z M22.09,13.43l-7.29-2.39V6.89c1-0.1,1.93-0.24,2.75-0.42c1.49-0.34,2.33-0.75,2.55-1.19 c0.04-0.07,0.06-0.15,0.06-0.22V4.51c0-0.08-0.02-0.15-0.06-0.22c-0.22-0.45-1.14-0.88-2.71-1.22C14.1,2.35,9.03,2.31,5.47,2.9 L9.6,7.03c1.22,0.04,2.46,0.04,3.67-0.03v3.69l5.69,5.69c0.51-1.33,1.5-2.2,2.25-1.94c0.76,0.26,0.98,1.59,0.48,2.97 c-0.15,0.42-0.36,0.79-0.59,1.11l0.86,0.86c0.33-0.45,0.63-0.98,0.85-1.59C23.56,15.78,23.23,13.82,22.09,13.43z"/></svg>