<svg viewBox="0 0 24 24" fill="#44739e" xmlns="http://www.w3.org/2000/svg"><title>hue:entertainment-area</title><desc>Source: https://github.com/arallsopp/hass-hue-icons</desc><path d="M14.27,18.46c-0.73,0.26-1.5,0.39-2.29,0.39c-3.76,0-6.8-2.94-6.93-6.69c-0.04-1.1-0.97-1.95-2.07-1.93 c-1.1,0.04-1.97,0.96-1.93,2.07c0.2,5.92,5,10.56,10.93,10.56c1.23,0,2.45-0.21,3.6-0.61c1.04-0.36,1.59-1.5,1.23-2.55 C16.45,18.65,15.32,18.09,14.27,18.46z M11.98,0.97c-3.1,0-6.07,1.32-8.14,3.64C3.1,5.43,3.17,6.69,3.99,7.43C4.82,8.17,6.08,8.1,6.82,7.28 c1.31-1.47,3.2-2.31,5.17-2.31c3.83,0,6.94,3.11,6.94,6.94c0,1.02-0.21,1.99-0.64,2.91c-0.46,1-0.03,2.19,0.98,2.66 c0.27,0.12,0.56,0.18,0.84,0.18c0.75,0,1.48-0.43,1.82-1.16c0.67-1.44,1.01-2.99,1.01-4.59C22.92,5.88,18.02,0.97,11.98,0.97z M15.67,11.79c0-2.04-1.68-3.7-3.76-3.7c-2.08,0-3.76,1.66-3.76,3.7c0,2.04,1.68,3.7,3.76,3.7 C13.99,15.49,15.67,13.83,15.67,11.79z"/></svg>