<svg viewBox="0 0 24 24" fill="#44739e" xmlns="http://www.w3.org/2000/svg"><title>hue:floor-spot-group</title><desc>Source: https://github.com/arallsopp/hass-hue-icons</desc><path d="M20.79,8.59c-0.69-1.9-2.09-3.15-3.13-2.79l-0.53,0.25c0.03,0.08,0.07,0.16,0.1,0.25l0,0 c0.1,0.28,0.18,0.56,0.25,0.84c0.04-0.02,0.07-0.05,0.11-0.06c0.7-0.25,1.64,0.6,2.1,1.9s0.27,2.55-0.44,2.8 c-0.53,0.19-1.21-0.26-1.7-1.06c-0.06,0.23-0.14,0.45-0.24,0.65c-0.34,0.72-0.88,1.23-1.54,1.46l-4.26,1.43 c0.6,0.63,1.26,0.96,1.72,0.78l0.88-0.32v2.2c-0.28,0.01-0.54,0.03-0.8,0.05c0.85,0.36,1.45,0.89,1.45,1.68v0.94 c0,0.09-0.02,0.17-0.03,0.25c2.26,0,4.09-0.5,4.09-1.1v-0.74c0-0.56-1.54-1.01-3.53-1.09v-2.59l4.84-1.62 C21.18,12.34,21.47,10.5,20.79,8.59z M16.28,6.64c-0.88-2.43-2.67-4.02-4-3.56L3.37,7.22c-1.02,0.39-1.16,2.4-0.32,4.48 c0.84,2.08,2.57,3.56,3.59,3.17l1.12-0.41v2.81c-2.2,0.08-3.96,0.53-4.39,1.11c-0.07,0.09-0.11,0.19-0.11,0.28v0.94 c0,0.78,2.35,1.41,5.25,1.41c2.9,0,5.25-0.63,5.25-1.41v-0.94c0-0.71-1.96-1.29-4.5-1.39v-3.31l6.18-2.07 C16.78,11.42,17.15,9.07,16.28,6.64z M14.31,10.71c-0.89,0.32-2.1-0.77-2.68-2.43c-0.59-1.66-0.34-3.26,0.56-3.57 c0.89-0.32,2.09,0.77,2.68,2.43C15.46,8.8,15.21,10.4,14.31,10.71z"/></svg>