<svg viewBox="0 0 24 24" fill="#44739e" xmlns="http://www.w3.org/2000/svg"><title>hue:floor-shade-off</title><desc>Source: https://github.com/arallsopp/hass-hue-icons</desc><path d="M20.59,22.34l1.38-1.38L2.88,1.86L1.49,3.24L11.25,13v7.27c-2.2,0.08-3.96,0.53-4.39,1.11 c-0.07,0.09-0.11,0.18-0.11,0.28v0.94C6.75,23.37,9.1,24,12,24s5.25-0.63,5.25-1.41v-0.94c0-0.71-1.96-1.29-4.5-1.39V14.5 L20.59,22.34z M12.75,9.73c1.07-0.04,2.09-0.18,2.92-0.41c0.9-0.25,1.42-0.57,1.55-0.91c0.02-0.05,0.03-0.11,0.03-0.16V1.5 c0-0.06-0.01-0.11-0.03-0.17c-0.12-0.32-0.61-0.63-1.46-0.88c-2.06-0.6-5.45-0.6-7.52,0C7.39,0.7,6.91,1.01,6.78,1.33 C6.76,1.38,6.75,1.44,6.75,1.5v2.68l6,6V9.73z M9.38,2.79C7.91,2.5,7.86,2.02,9.31,1.73c1.48-0.3,3.89-0.3,5.37,0 c1.45,0.3,1.41,0.77-0.06,1.06C13.17,3.07,10.84,3.07,9.38,2.79z"/></svg>