<?xml version="1.0" encoding="utf-8"?>
<!-- Generator: Adobe Illustrator 24.0.2, SVG Export Plug-In . SVG Version: 6.00 Build 0)  -->
<svg version="1.1" id="Layer_1" xmlns="http://www.w3.org/2000/svg" xmlns:xlink="http://www.w3.org/1999/xlink" x="0px" y="0px"
	 viewBox="0 0 24 24" style="enable-background:new 0 0 24 24;" xml:space="preserve">
<style type="text/css">
	.st0{fill:#44739E;}
</style>
<title>hue:floor-spot</title>
<desc>Source: https://github.com/arallsopp/hass-hue-icons</desc>
<g>
	<path class="st0" d="M17.44,11.88c1.34-0.46,1.71-2.81,0.84-5.24s-2.67-4.02-4-3.56L8.39,5.82l6.81,6.81L17.44,11.88z M13.63,8.29
		c-0.59-1.66-0.34-3.26,0.56-3.57c0.89-0.32,2.09,0.77,2.68,2.43c0.59,1.66,0.33,3.26-0.56,3.57S14.21,9.94,13.63,8.29z M11.97,13.71l8.62,8.62l1.38-1.38L2.88,1.86L1.49,3.24l3.95,3.95L5.37,7.22c-1.02,0.39-1.16,2.4-0.32,4.48
		c0.84,2.08,2.57,3.56,3.59,3.17l1.12-0.41v2.81c-2.2,0.08-3.96,0.53-4.39,1.11c-0.07,0.09-0.11,0.19-0.11,0.28v0.94
		c0,0.78,2.35,1.41,5.25,1.41s5.25-0.63,5.25-1.41v-0.94c0-0.71-1.96-1.29-4.5-1.39v-3.31L11.97,13.71z"/>
</g>
</svg>
