<?xml version="1.0" encoding="utf-8"?>
<!-- Generator: Adobe Illustrator 24.0.2, SVG Export Plug-In . SVG Version: 6.00 Build 0)  -->
<svg version="1.1" id="Layer_1" xmlns="http://www.w3.org/2000/svg" xmlns:xlink="http://www.w3.org/1999/xlink" x="0px" y="0px"
	 viewBox="0 0 24 24" style="enable-background:new 0 0 24 24;" xml:space="preserve">
<style type="text/css">
	.st0{fill:#44739E;}
	.st1{fill:#FFFFFF;}
</style>
<path class="st0" d="M19.25,11.78c-0.7,0.25-1.65-0.6-2.1-1.9c-0.46-1.3-0.27-2.55,0.44-2.8c0.7-0.25,1.64,0.6,2.1,1.9
	S19.95,11.54,19.25,11.78 M20.79,8.59c-0.69-1.9-2.09-3.15-3.13-2.79l-6.98,3.24c-0.8,0.31-0.91,1.88-0.25,3.51s2.01,2.79,2.81,2.48
	l0.88-0.32v2.2c-1.72,0.06-3.1,0.42-3.44,0.87c-0.05,0.07-0.09,0.15-0.09,0.22v0.74c0,0.61,1.84,1.11,4.11,1.11s4.11-0.49,4.11-1.11
	v-0.74c0-0.56-1.54-1.01-3.53-1.09v-2.59l4.84-1.62C21.18,12.34,21.47,10.5,20.79,8.59"/>
<path class="st1" d="M17.22,6.3L17.22,6.3c-1.1-3.03-3.35-4.82-5.27-4.17L3.01,6.29C2.48,6.49,2.06,6.91,1.8,7.5
	c-0.5,1.14-0.38,2.85,0.32,4.57c0.9,2.23,2.9,4.24,4.64,3.81v0.45c-1.43,0.13-3.47,0.47-4.18,1.43c-0.21,0.27-0.32,0.58-0.32,0.9
	v0.94c0,2.24,4.78,2.41,6.25,2.41s6.25-0.17,6.25-2.41v-0.94c0-1.62-2.5-2.16-4.5-2.33v-1.65l5.51-1.85
	c0.66-0.23,1.2-0.74,1.54-1.46C17.93,10.08,17.9,8.18,17.22,6.3z M13.99,9.76L13.99,9.76c-0.01,0-0.01,0-0.01,0
	C13.98,9.77,13.98,9.76,13.99,9.76L13.99,9.76z"/>
<title>hue:floor-spot</title>
<desc>Source: https://github.com/arallsopp/hass-hue-icons</desc>
<path class="st0" d="M14.31,10.71c-0.89,0.32-2.1-0.77-2.68-2.43c-0.59-1.66-0.34-3.26,0.56-3.57c0.89-0.32,2.09,0.77,2.68,2.43
	S15.21,10.4,14.31,10.71 M16.28,6.64c-0.88-2.43-2.67-4.02-4-3.56L3.37,7.22c-1.02,0.39-1.16,2.4-0.32,4.48s2.57,3.56,3.59,3.17
	l1.12-0.41v2.81c-2.2,0.08-3.96,0.53-4.39,1.11c-0.07,0.09-0.11,0.19-0.11,0.28v0.94c0,0.78,2.35,1.41,5.25,1.41
	s5.25-0.63,5.25-1.41v-0.94c0-0.71-1.96-1.29-4.5-1.39v-3.31l6.18-2.07C16.78,11.42,17.15,9.07,16.28,6.64"/>
</svg>
