<svg viewBox="0 0 24 24" height="24px" width="24px" fill="#44739e" xmlns="http://www.w3.org/2000/svg"><title>hue:friends-of-hue-arke-round</title><desc>Source: https://github.com/arallsopp/hass-hue-icons</desc><path d="M7.2,7.4v9.3h9.7V7.4H7.2z M11.5,15.6H8.2V8.4h3.3V15.6z M15.8,15.6h-3.3V8.4h3.3V15.6z M17.2,0.7H6.7c-3.3,0-6,2.7-6,6v10.5c0,3.3,2.7,6,6,6h10.5c3.3,0,6-2.7,6-6V6.7C23.2,3.4,20.5,0.7,17.2,0.7z M22.2,17.2 c0,2.8-2.2,5-5,5H6.7c-2.8,0-5-2.2-5-5V6.7c0-2.8,2.2-5,5-5h10.5c2.8,0,5,2.2,5,5V17.2z"/></svg>