<svg viewBox="0 0 24 24" height="24px" width="24px" fill="#44739e" xmlns="http://www.w3.org/2000/svg"><title>hue:friends-of-hue-marbul-suspended</title><desc>Source: https://github.com/arallsopp/hass-hue-icons</desc><path d="M15.36,3.04c-0.57-0.77-1.72-1.22-3.14-1.28V0h-1v1.78c-0.75,0.06-1.55,0.21-2.36,0.48C6.22,3.11,4.32,4.83,4.09,6.41 c-1.27,1.69-2.03,3.79-2.03,6.07c0,5.54,4.46,10.04,9.95,10.04s9.95-4.5,9.95-10.04C21.95,8.13,19.19,4.43,15.36,3.04z M16.49,20.3 c-3.34,1.93-7.84,1.32-9.19-0.53c-0.49-0.68-0.65-1.46-0.47-2.33c0.32-1.53,1.67-3.07,3.69-4.24c1.39-0.8,3.13-1.24,4.76-1.24 c0.75,0,1.48,0.09,2.15,0.28c1.05,0.31,1.83,0.84,2.18,1.51v0C20.54,15.5,19.95,18.29,16.49,20.3z"/></svg>