<svg viewBox="0 0 24 24" fill="#44739e" xmlns="http://www.w3.org/2000/svg"><title>hue:go-portable-table-alt</title><desc>Source: https://github.com/arallsopp/hass-hue-icons</desc><path d="M12.72,19.84v-4.4h0c0.28,0,0.5-0.22,0.5-0.5V12c0-0.28-0.22-0.5-0.5-0.5h0V9.79 c2.76-0.02,4.06-0.29,4.11-0.31c0.13-0.03,0.24-0.11,0.31-0.22c0.07-0.11,0.09-0.25,0.06-0.38l-0.4-1.72c0,0,0,0,0,0l-1.23-5.35 c-0.04-0.19-0.19-0.33-0.38-0.38C13.21,1,12.78,1.01,11.99,1c-0.8,0-1.22,0-3.19,0.43C8.61,1.48,8.47,1.62,8.42,1.81L7.13,7.16 c0,0,0,0,0,0L6.7,8.92C6.67,9.05,6.69,9.19,6.77,9.31C6.84,9.42,6.96,9.5,7.1,9.53c0.06,0.01,1.46,0.26,4.29,0.27v1.7 c-0.28,0-0.5,0.22-0.5,0.5v2.94c0,0.28,0.22,0.5,0.5,0.5v4.4c-2.43,0.06-4.3,0.38-4.3,0.77c0,0.13,0.22,0.25,0.57,0.35v0.34 c0,0.43,2.01,0.78,4.5,0.78s4.5-0.35,4.5-0.78v-0.34c0.35-0.11,0.57-0.23,0.57-0.35C17.22,20.21,15.25,19.88,12.72,19.84z M7.8,8.61l0.21-0.87c0.76-0.06,2.62-0.2,3.99-0.2c1.37-0.01,3.17,0.13,3.92,0.2l0.2,0.85C15.45,8.68,14.1,8.82,12,8.8 C9.89,8.82,8.5,8.7,7.8,8.61z"/></svg>