<svg viewBox="0 0 24 24" fill="#44739e" xmlns="http://www.w3.org/2000/svg"><title>hue:gradient-tube-short-off</title><desc>Source: https://github.com/arallsopp/hass-hue-icons</desc><path d="M22.2,12.1l-4.8-2c-0.3-0.2-0.8-0.1-1.2,0.1l-0.1,0.1l-5.07-1.83l1.72,1.72L14.9,11 c-0.2,0.2-0.39,0.48-0.55,0.79l7.64,7.64L23,18.9l0.1-5C23.1,13,22.7,12.3,22.2,12.1z M21.97,20.95L2.88,1.86L1.5,3.24l1.61,1.61C1.86,5.59,0.9,7.24,0.9,8.7v5.1l17.9,7.3l0.36-0.19l1.42,1.42 L21.97,20.95z M7.6,12.3v-1.9c0-0.15,0.07-0.5,0.21-0.84l4.4,4.4L7.6,12.3z"/></svg>