<svg viewBox="0 0 24 24" fill="#44739e" xmlns="http://www.w3.org/2000/svg"><title>hue:gradient-tube-long-off</title><desc>Source: https://github.com/arallsopp/hass-hue-icons</desc><path d="M1.5,3.24l1.58,1.58C1.88,5.53,0.9,7.21,0.9,8.7v5.1l17.9,7.3l0.36-0.19l1.42,1.42l1.38-1.38L2.88,1.86 L1.5,3.24z M6,11.5V9.7c0-0.24,0.19-0.98,0.52-1.43l5.57,5.57L6,11.5z M22.2,12.1l-2.8-1.3c-0.3-0.2-0.8-0.1-1.2,0.1L18.1,11l-7.39-2.85l1.95,1.95l4.13,1.59 c-0.31,0.31-0.67,0.91-0.82,1.72l6.01,6.01L23,18.9l0.1-5C23.1,13,22.7,12.3,22.2,12.1z"/></svg>