<svg viewBox="0 0 24 24" fill="#44739e" xmlns="http://www.w3.org/2000/svg"><title>hue:iris-off</title><desc>Source: https://github.com/arallsopp/hass-hue-icons</desc><path d="M19.21,16.65c0.57-0.6,1.08-1.24,1.52-1.88c0.03-0.05,0.06-0.09,0.09-0.14c0.32-0.57,0.22-1.54-0.39-2.83 c-1.44-3.09-5.12-6.8-8.18-8.24C11,2.97,10.08,2.87,9.51,3.16C9.44,3.2,9.38,3.25,9.3,3.29C8.64,3.73,7.99,4.25,7.38,4.82 L19.21,16.65z M10.73,4.36c0.29,0.05,0.69,0.18,1.2,0.42c1.39,0.64,2.66,1.48,4.25,3.07c1.59,1.59,2.43,2.86,3.07,4.25 c0.25,0.52,0.37,0.93,0.42,1.22c0.05,0.27-0.21,0.51-0.47,0.43c-1.15-0.38-2.85-1.48-5.14-3.78c-1.84-1.84-3.29-3.88-3.76-5.12 C10.2,4.58,10.44,4.31,10.73,4.36z M16.15,16.36L7.69,7.9c0.53,1.26,1.95,3.17,3.61,4.83C13.71,15.14,15.25,16.04,16.15,16.36z M21.97,20.95L2.88,1.86L1.5,3.24L5.36,7.1C2.54,10.87,1.9,15.1,5.41,18.61c3.47,3.46,7.73,2.86,11.51,0.06 l3.66,3.66L21.97,20.95z M7.82,17.22c0.14,0.92-0.41,1.43-1.45,0.39c-1.04-1.04-0.53-1.59,0.39-1.45c0.46,0.07,1.81-3.14,2.74-4.91 l3.22,3.22C10.84,15.43,7.76,16.79,7.82,17.22z"/></svg>