<svg viewBox="0 0 24 24" fill="#44739e" xmlns="http://www.w3.org/2000/svg"><title>hue:lily-two-off</title><desc>Source: https://github.com/arallsopp/hass-hue-icons</desc><path d="M1.49,3.24l2.69,2.69L2.4,7c-0.7,0.4-1,1.2-1,2.2c0,0.9,0.4,2,1,3c0.6,1,1.3,1.8,2.1,2.3 c0.2,0.1,0.4,0.2,0.5,0.3c0.1,1.4,0.3,2.6,0.6,3c0.3,0.4,1,0.8,1.8,1.1C5.8,19,4,19.5,4,20.5v0.7c0,1.3,3,1.7,4.8,1.7 s4.8-0.4,4.8-1.7v-0.7c0-1-1.5-1.4-3-1.6c0.6-0.2,1-0.5,1.1-0.7c0.2-0.1,0.3-0.3,0.3-0.6c0-0.5-0.6-0.8-1.1-1 c-0.9-0.3-1.3-0.3-1.7-0.2C9,15.8,9,14.8,9,13.6l1.79-1.06l3.81,3.81c0.08,0.55,0.16,0.95,0.3,1.15c0.2,0.3,0.6,0.5,1.2,0.7 c-1,0.1-2,0.3-2.2,0.9c0.5,0.5,0.7,1,0.7,1.4c0.7,0.3,1.7,0.4,2.5,0.4c0.55,0,1.26-0.05,1.87-0.18l1.62,1.62l1.38-1.38L2.88,1.86 L1.49,3.24z M22.1,8.2c-0.4-0.7-0.9-1.2-1.4-1.6c-0.6-0.4-1.1-0.4-1.6-0.2l-0.8,0.5c0.1,1.3-0.4,2.3-1.2,2.9 c0,0,0,0-0.1,0.1L16.9,10l-2.73,1.6l3.13,3.13c0-0.01,0-0.02,0-0.03l5-3c0.4-0.3,0.6-0.8,0.6-1.4C22.7,9.6,22.5,8.9,22.1,8.2z M21.8,11.1c-0.2,0.1-0.6,0.1-0.9-0.2c-0.4-0.3-0.9-0.8-1.2-1.3c-0.3-0.6-0.5-1.2-0.6-1.7c0-0.3,0-0.6,0.2-0.8 C19.3,7,19.4,7,19.4,7c0.1,0,0.2-0.1,0.2-0.1c0.2,0,0.4,0.1,0.7,0.2c0.4,0.3,0.9,0.8,1.2,1.3c0.3,0.6,0.5,1.2,0.6,1.7 C22.1,10.7,22,11,21.8,11.1z M16.5,9.2c0,0,0,0,0.1,0c0.1-0.1,0.2-0.2,0.3-0.3c0-0.1,0.1-0.1,0.1-0.2c0-0.1,0.1-0.1,0.1-0.2 s0.1-0.2,0.1-0.3c0-0.1,0-0.1,0-0.2s0.1-0.3,0.1-0.4c0-0.2,0-0.4,0-0.6c0-0.9-0.4-2-1-3c-0.6-1-1.3-1.8-2.1-2.3 c-0.9-0.6-1.7-0.7-2.4-0.3L6.89,4.32l6.62,6.62L16.5,9.2z M12.6,6.1c-0.5-0.9-0.8-1.8-0.8-2.6C11.9,3,12,2.6,12.1,2.3 c0.1-0.1,0.1-0.1,0.2-0.2C12.4,2,12.5,2,12.7,2c0.3,0,0.6,0.1,1,0.4c0.7,0.4,1.3,1.1,1.8,2C16,5.3,16.3,6.2,16.3,7 c0,0.6-0.1,1.1-0.4,1.3c0,0,0,0-0.1,0.1c0,0,0,0-0.1,0c-0.3,0.1-0.8,0-1.3-0.3C13.7,7.7,13.1,7,12.6,6.1z"/></svg>