<svg viewBox="0 0 24 24" height="24px" width="24px" fill="#44739e" xmlns="http://www.w3.org/2000/svg"><title>hue:logo-alt</title><desc>Source: https://github.com/arallsopp/hass-hue-icons</desc><path d="M-29.45,14.46c0-0.43,0-0.85,0-1.28c0-0.11,0.03-0.16,0.15-0.16c0.24,0.01,0.48,0.01,0.72,0 c0.11,0,0.15,0.03,0.15,0.14c0,0.82,0,1.64,0,2.46c0,0.07-0.01,0.14-0.02,0.2c-0.05,0.26-0.27,0.42-0.54,0.4 c-0.28-0.03-0.45-0.21-0.46-0.48C-29.45,15.32-29.45,14.89-29.45,14.46z M7.07,10.71C7,10.23,6.86,9.82,6.66,9.44c-0.18-0.33-0.4-0.6-0.67-0.82c-0.48-0.39-1.05-0.6-1.75-0.64 C3.85,7.95,3.46,8,3.07,8.11C2.59,8.25,2.19,8.45,1.87,8.73V4.28c0-0.17-0.05-0.22-0.22-0.22l-0.8,0v9.12l0.33,0 c0.16,0,0.31,0,0.47,0c0.16,0,0.21-0.05,0.21-0.21l0-0.54c0-0.39,0-0.79,0-1.18c0-0.18,0.01-0.41,0.05-0.63 c0.11-0.64,0.45-1.1,1.01-1.37c0.49-0.24,1-0.31,1.52-0.22c0.51,0.09,0.9,0.32,1.17,0.7c0.29,0.41,0.44,0.89,0.46,1.48 c0.01,0.4,0.01,0.81,0.01,1.21c0,0.17,0,0.35,0,0.52c0,0.21,0.04,0.25,0.25,0.25h0.5c0.2,0,0.25-0.04,0.25-0.24v-0.48 c0-0.48,0-0.96,0-1.44C7.09,10.91,7.08,10.81,7.07,10.71z M1.67,14c-0.18,0-0.36,0-0.54,0H0.85v4.32h0.28c0.18,0,0.36,0,0.54,0c0,0,0,0,0.01,0c0.03,0,0.09,0,0.14-0.05 c0.05-0.05,0.05-0.11,0.05-0.15c0-1.31,0-2.62,0-3.93c0-0.04-0.01-0.1-0.05-0.15C1.77,13.99,1.69,14,1.67,14z M17.92,14.11c0,0,0.01,0,0.01,0h1.11c0.13,0,0.28,0,0.42,0c0.34,0,0.68,0.01,1.03-0.05c0.87-0.14,1.52-0.47,1.99-1.01 c0.25-0.29,0.43-0.62,0.53-0.98c0.1-0.36,0.14-0.75,0.12-1.14c-0.02-0.34-0.06-0.62-0.14-0.87c-0.17-0.57-0.48-1.03-0.9-1.36 c-0.71-0.55-1.53-0.79-2.46-0.71c-0.81,0.07-1.46,0.39-1.95,0.95c-0.17,0.2-0.32,0.42-0.43,0.67c-0.24,0.52-0.36,1.09-0.36,1.75 c0,0.57,0,1.15,0,1.72c0,0.01,0,0.02,0,0.02c-0.01,0-0.01,0-0.02,0h-0.25c-0.25,0-0.49,0-0.74,0c-0.04,0-0.1,0-0.14,0.05 c-0.05,0.05-0.05,0.12-0.05,0.14c0,0.15,0,0.29,0,0.44v0.18c0,0.16,0.05,0.21,0.2,0.21l0.25,0c0.24,0,0.48,0,0.74,0c0,0,0,0,0,0 c0,0.33-0.01,0.65,0,0.98c0,0.15,0.02,0.32,0.04,0.52c0.05,0.35,0.14,0.69,0.29,1.02c0.2,0.44,0.47,0.79,0.81,1.07 c0.46,0.37,1.01,0.57,1.68,0.62c0.08,0.01,0.17,0.01,0.25,0.01c0.41,0,0.82-0.07,1.21-0.22c0.59-0.22,1.04-0.54,1.37-0.98 c0.02-0.02,0.05-0.07,0.04-0.13c-0.01-0.04-0.03-0.07-0.07-0.1c-0.19-0.13-0.38-0.27-0.56-0.4c-0.08-0.06-0.18-0.05-0.26,0.05 c-0.05,0.07-0.1,0.13-0.16,0.19c-0.26,0.23-0.55,0.39-0.86,0.47c-0.21,0.05-0.46,0.11-0.69,0.12c-0.25,0-0.49-0.03-0.74-0.11 c-0.35-0.11-0.63-0.3-0.83-0.56c-0.32-0.4-0.49-0.89-0.51-1.51c-0.01-0.23-0.01-0.47,0-0.7C17.92,14.33,17.92,14.23,17.92,14.11 C17.92,14.12,17.92,14.11,17.92,14.11z M17.92,11.15c0.01-0.55,0.17-1.04,0.46-1.44c0.27-0.37,0.65-0.6,1.15-0.69 c0.58-0.1,1.15,0,1.67,0.29c0.49,0.28,0.79,0.72,0.89,1.31c0.07,0.41,0.06,0.78-0.04,1.14c-0.12,0.41-0.37,0.74-0.74,0.96 c-0.36,0.22-0.75,0.33-1.17,0.35c-0.27,0.01-0.54,0.01-0.81,0c-0.12,0-0.25,0-0.37,0h-0.1v0.02h-0.94c0,0-0.01,0-0.01,0 c0,0,0-0.01,0-0.01c0-0.19,0-0.38,0-0.57C17.91,12.07,17.91,11.6,17.92,11.15z M15.71,17.3c-0.2,0-0.33-0.1-0.41-0.3c-0.14-0.34-0.16-0.7-0.17-1c-0.01-0.43-0.01-0.85,0-1.28l0-0.52 c0-0.15-0.05-0.2-0.2-0.2c-0.2,0-0.4,0-0.6,0c-0.16,0-0.21,0.04-0.21,0.21c0,0.38-0.01,0.77-0.02,1.15c0,0.23-0.05,0.46-0.14,0.71 c-0.08,0.23-0.22,0.44-0.4,0.62c-0.18,0.18-0.4,0.32-0.65,0.42c-0.33,0.13-0.64,0.2-0.94,0.2c-0.01,0-0.01,0-0.02,0 c-0.25,0-0.5-0.04-0.72-0.11c-0.42-0.13-0.74-0.39-0.96-0.75c-0.25-0.4-0.37-0.86-0.38-1.4c0-0.23,0-0.46,0-0.69l0-0.17 c0-0.17-0.11-0.19-0.17-0.19c-0.22,0-0.45,0-0.67,0c-0.06,0-0.17,0.02-0.17,0.19c0,0.09,0,0.18,0,0.27c0,0.18,0,0.35,0,0.53 c0.01,0.24,0.02,0.46,0.05,0.68c0.14,0.86,0.48,1.52,1.05,2c0.27,0.23,0.58,0.4,0.92,0.5c0.33,0.1,0.68,0.16,1.04,0.16 c0.13,0,0.27-0.01,0.4-0.02c0.37-0.04,0.73-0.14,1.08-0.3c0.35-0.16,0.66-0.37,0.93-0.65c0.09,0.24,0.22,0.44,0.37,0.58 c0.27,0.26,0.61,0.39,1,0.39c0.07,0,0.12-0.01,0.16-0.05c0.05-0.05,0.05-0.12,0.05-0.14c0-0.21,0-0.41,0-0.62 c0-0.06-0.02-0.12-0.05-0.15C15.83,17.32,15.78,17.3,15.71,17.3z M8.88,12.95c0,0.18,0.04,0.22,0.22,0.22c0.1,0,0.19,0,0.29,0c0.1,0,0.19,0,0.29,0c0.17,0,0.22-0.04,0.22-0.22V8.18 c0-0.15-0.05-0.2-0.2-0.2l-0.21,0c-0.14,0-0.27,0-0.41,0c-0.03,0-0.1,0-0.15,0.05C8.88,8.07,8.87,8.13,8.87,8.17 c0,0.11,0,0.22,0,0.32L8.88,12.95z M14.32,13.18h0.23c0.13,0,0.26,0,0.39,0c0,0,0,0,0.01,0c0.03,0,0.09,0,0.14-0.05c0.05-0.04,0.05-0.1,0.05-0.15 c0-1.61,0-3.21,0-4.82c0-0.04,0-0.1-0.05-0.15c-0.05-0.05-0.12-0.05-0.15-0.05c-0.14,0-0.28,0-0.42,0l-0.18,0 c-0.17,0-0.22,0.04-0.22,0.22l0,4.78C14.11,13.13,14.16,13.18,14.32,13.18z M6.89,14H6.67c-0.13,0-0.26,0-0.38,0c-0.03,0-0.1,0-0.15,0.05c-0.05,0.05-0.05,0.1-0.05,0.15c0,1.31,0,2.62,0,3.93 c0,0.04,0.01,0.1,0.05,0.15c0.05,0.05,0.11,0.05,0.14,0.05c0,0,0.01,0,0.01,0c0.12,0,0.25,0,0.37,0h0.21 c0.17,0,0.22-0.04,0.22-0.22v-1.93c0-0.66,0-1.31,0-1.97C7.09,14.05,7.04,14,6.89,14z"/></svg>