<svg viewBox="0 0 24 24" height="24px" width="24px" fill="#44739e" xmlns="http://www.w3.org/2000/svg"><title>hue:logo</title><desc>Source: https://github.com/arallsopp/hass-hue-icons</desc><path d="M1.42,12.94c-0.2,0-0.46,0.01-0.72,0c-0.04,0-0.11,0-0.15,0.04C0.5,13.03,0.5,13.09,0.5,13.15c0,0.31,0,0.63,0,0.95l0,0.71 c0,0.3,0,0.61,0,0.91c0,0.3,0.2,0.5,0.5,0.53c0.02,0,0.04,0,0.06,0c0.27,0,0.48-0.17,0.53-0.44c0.01-0.08,0.02-0.15,0.02-0.21 c0-0.32,0-0.64,0-0.96c0-0.5,0-1,0-1.5c0-0.07-0.01-0.12-0.05-0.15C1.53,12.95,1.47,12.94,1.42,12.94z M17.97,13.09l3.3,0c0.55,0,1.1,0,1.65,0c0.4,0,0.58-0.18,0.58-0.58c0-0.47-0.06-0.92-0.18-1.33c-0.29-0.99-0.9-1.66-1.82-2 c-0.54-0.2-1.14-0.26-1.77-0.18c-0.96,0.12-1.73,0.55-2.29,1.28c-0.4,0.51-0.64,1.13-0.73,1.84c-0.01,0.09-0.04,0.1-0.12,0.1 c-0.16,0-0.36-0.01-0.55,0.02c-0.25,0.03-0.37,0.19-0.36,0.45c0.01,0.22,0.17,0.37,0.41,0.38c0.09,0,0.18,0,0.27,0l0.11,0 c0.23,0,0.23,0,0.25,0.23c0.17,1.41,1.13,2.51,2.51,2.87c0.41,0.11,0.84,0.16,1.3,0.16c0.15,0,0.29,0,0.45-0.02 c0.68-0.05,1.22-0.17,1.7-0.4c0.09-0.04,0.17-0.1,0.25-0.17c0.12-0.11,0.15-0.33,0.06-0.49c-0.08-0.15-0.26-0.23-0.42-0.19 c-0.14,0.03-0.29,0.08-0.45,0.13c-0.98,0.36-1.88,0.38-2.75,0.07c-0.89-0.32-1.45-1.06-1.53-2.03c0-0.04-0.01-0.12,0-0.13 C17.85,13.09,17.92,13.09,17.97,13.09z M17.83,12.21c-0.01-0.01,0-0.09,0.01-0.16c0.08-0.55,0.26-1,0.58-1.38 c0.35-0.43,0.83-0.7,1.41-0.8c0.65-0.11,1.2-0.01,1.69,0.3c0.47,0.3,0.76,0.76,0.88,1.39c0.02,0.12,0.03,0.24,0.04,0.36 c0.01,0.07,0.01,0.13,0.02,0.2c0,0.03,0,0.06-0.01,0.08c-0.01,0.01-0.04,0.02-0.09,0.02c-0.37,0-0.74,0-1.11,0 c-0.18,0-0.37,0-0.55,0l-2.69,0C17.92,12.22,17.84,12.22,17.83,12.21z M5.63,12.28c0.03,0.03,0.06,0.04,0.11,0.04c0,0,0,0,0,0c0.27,0,0.54,0,0.81,0c0,0,0,0,0,0c0.1,0,0.15-0.05,0.15-0.15 c0.02-0.63-0.06-1.14-0.23-1.61c-0.29-0.8-0.84-1.3-1.63-1.5C4.4,8.95,3.95,8.93,3.5,9c-0.86,0.14-1.49,0.59-1.88,1.33 c0,0,0,0.01-0.01,0.01v0c0-1.1,0-2.21,0-3.31c0-0.08-0.01-0.15-0.01-0.23C1.59,6.62,1.52,6.47,1.4,6.39 C1.26,6.29,1.08,6.27,0.88,6.31C0.64,6.37,0.5,6.56,0.5,6.85c0,1.17,0,2.34,0,3.5l0,1.75l0,0.02c0,0.01,0,0.02,0,0.03 c0,0.05,0.01,0.09,0.03,0.12c0.03,0.03,0.07,0.04,0.12,0.04c0,0,0,0,0,0c0.27,0,0.54,0,0.81,0c0,0,0,0,0,0 c0.09,0,0.14-0.05,0.15-0.15l0-0.06c0.01-0.11,0.01-0.23,0.03-0.34c0.08-0.54,0.29-0.98,0.62-1.33c0.39-0.41,0.88-0.6,1.5-0.6 c0.02,0,0.03,0,0.05,0c0.86,0.01,1.45,0.47,1.67,1.29c0.09,0.34,0.1,0.68,0.1,0.99C5.59,12.19,5.59,12.24,5.63,12.28z M14.75,13c-0.03-0.03-0.08-0.05-0.13-0.04c-0.23,0-0.48,0-0.76,0c0,0,0,0,0,0c-0.15,0-0.17,0.1-0.17,0.18 c0,0.15,0,0.3-0.03,0.45c-0.08,0.6-0.36,1.08-0.8,1.44c-0.43,0.34-0.96,0.47-1.6,0.38c-0.8-0.11-1.3-0.58-1.45-1.35 c-0.04-0.22-0.05-0.46-0.06-0.68c0-0.07-0.01-0.15-0.01-0.22c-0.01-0.1-0.03-0.19-0.17-0.19c0,0,0,0-0.01,0c-0.26,0-0.52,0-0.77,0 c0,0,0,0,0,0c-0.11,0-0.16,0.05-0.16,0.16c-0.01,0.52,0.02,0.91,0.11,1.27c0.2,0.88,0.67,1.45,1.43,1.73 c0.37,0.14,0.76,0.21,1.19,0.21c0.13,0,0.27-0.01,0.4-0.02c0.79-0.07,1.42-0.43,1.85-1.07c0.03-0.05,0.06-0.1,0.1-0.15l0,0.1 c0,0.17,0,0.34,0,0.52c0,0.29,0.18,0.5,0.45,0.54c0.2,0.03,0.36-0.01,0.48-0.11c0.12-0.1,0.18-0.25,0.19-0.45c0-0.12,0-0.25,0-0.37 l0-0.67c0-0.5,0-1,0-1.5C14.79,13.11,14.79,13.04,14.75,13z M6.66,12.99c-0.04-0.04-0.11-0.05-0.16-0.05c-0.09,0-0.18,0-0.27,0c-0.13,0-0.25,0-0.38,0c-0.23,0-0.26,0.02-0.26,0.23 v0.48c0,0.64,0,1.29,0,1.93c0,0.09,0.01,0.18,0.02,0.25C5.66,16.05,5.8,16.19,6,16.23c0.05,0.01,0.1,0.02,0.15,0.02 c0.13,0,0.25-0.04,0.34-0.11c0.13-0.1,0.2-0.27,0.2-0.46c0-0.27,0-0.54,0-0.81l0-0.8c0-0.3,0-0.61,0-0.91 C6.71,13.1,6.7,13.03,6.66,12.99z M14.79,10.51c0-0.3,0-0.6,0-0.9c0-0.27-0.12-0.44-0.33-0.52c-0.2-0.07-0.4-0.06-0.54,0.05c-0.15,0.1-0.23,0.28-0.24,0.49 c0,0.28,0,0.55,0,0.83l0,0.76c0,0.31,0,0.61,0,0.92c0,0.05,0,0.12,0.05,0.16c0.03,0.03,0.08,0.04,0.14,0.04c0,0,0.01,0,0.01,0 c0.23-0.01,0.47-0.01,0.72,0c0.05,0.01,0.11,0,0.15-0.04c0.04-0.04,0.05-0.1,0.05-0.15c0-0.3,0-0.6,0-0.9L14.79,10.51z M8.65,12.28c0.04,0.04,0.09,0.04,0.13,0.04c0,0,0.01,0,0.01,0c0.16,0,0.32,0,0.48,0c0.08,0,0.16,0,0.24,0 c0.19,0,0.21-0.02,0.21-0.21c0-0.81,0-1.62,0-2.43c0-0.08-0.01-0.16-0.02-0.24C9.65,9.24,9.52,9.1,9.32,9.05 C9.11,9.01,8.93,9.03,8.8,9.14S8.6,9.41,8.6,9.62c0,0.29,0,0.59,0,0.88l0,0.71c0,0.31,0,0.62,0,0.93 C8.6,12.18,8.6,12.24,8.65,12.28z"/></svg>