<svg viewBox="0 0 24 24" height="24px" width="24px" fill="#44739e" xmlns="http://www.w3.org/2000/svg"><title>hue:logo-alt</title><desc>Source: https://github.com/arallsopp/hass-hue-icons</desc><path d="M1.05,4.74v9.37l1.27,0.01v-2.36c0,0,0.14-1.88,1.97-1.85s1.94,1.73,1.94,1.73l0.05,2.45l1.24,0.02L7.5,11.37 c-0.08-1.85-1.84-2.71-3.2-2.73C3.16,8.66,2.32,9.27,2.32,9.27V4.74H1.05z M6.29,14.67h1.24l0.01,4.58H6.29V14.67z M1.05,14.68v4.57h1.27v-4.57L1.05,14.68z M8.43,8.66v5.46h1.28V8.66H8.43z  M14.95,8.64h-1.27v5.47h1.27V8.64z M15.66,19.26v-1.18c-0.81,0.01-0.71-1.12-0.71-1.12l0-2.29l-1.27,0c0,0,0.64,3.27-2.04,3.31 c-2.48,0.03-1.93-3.31-1.93-3.31l-1.28,0c0,0-0.44,4.59,3.25,4.59c1.56,0,2.31-0.89,2.31-0.89C14.32,19.26,15.66,19.26,15.66,19.26 z M19.57,18.01c-1.22-0.03-1.83-0.49-1.84-2.98l2.13-0.01c0,0,3.14,0.1,3.08-2.98s-2.69-3.46-3.24-3.41s-3.32,0.23-3.26,3.52 v1.61l-1.2-0.01v1.3l1.19-0.02c0,0-0.41,4.18,3.09,4.21c2.33,0.01,2.85-1.48,2.85-1.48l-0.91-0.72 C21.47,17.06,20.8,18.05,19.57,18.01z M19.54,9.91c0,0,2.02-0.17,2.16,1.82c0.13,1.98-1.87,2.02-1.87,2.02l-2.1,0.02v-1.23 C17.59,9.81,19.54,9.91,19.54,9.91z"/></svg>