<svg viewBox="0 0 24 24" height="24px" width="24px" fill="#44739e" xmlns="http://www.w3.org/2000/svg"><title>hue:logo</title><desc>Source: https://github.com/arallsopp/hass-hue-icons</desc><path d="M1.96,12.02H0.54V6.24c0.13-0.79,1.29-0.79,1.42,0l0,3.13c0,0,0.85-1.14,2.39-1.02C5.9,8.49,7.17,9.34,7.09,12 l-1.47,0.01c0.11-1.17-0.21-2.5-1.67-2.46C2.11,9.61,1.96,11.24,1.96,12.02z M1.96,15.88c-0.27,0.63-1.24,0.63-1.42,0v-3.13h1.42V15.88z M7.05,15.88c-0.27,0.63-1.24,0.63-1.42,0v-3.13h1.42V15.88z M8.23,8.94c0.27-0.63,1.24-0.63,1.42,0v3.13H8.23V8.94z M13.31,8.94c0.27-0.63,1.24-0.63,1.42,0v3.13h-1.42V8.94z M14.73,15.97c-0.27,0.63-1.42,0.69-1.45-0.35c0,0-1.03,1.41-3.42,0.64c-1.55-0.5-1.68-2.26-1.64-3.46h1.42 c0.11,0.22-0.38,2.49,1.68,2.47s1.97-2.44,1.97-2.44h1.42V15.97z M19.92,8.47c-3.26,0-3.58,3.4-3.58,3.4s-1.07-0.17-1.03,0.6c0,0.78,0.68,0.55,1.03,0.6 c-0.02,0.44,0.57,3.41,3.58,3.39c1.61,0.01,2.54-0.23,2.88-0.63c0.56-0.75-0.25-1.06-0.49-0.99s-3.87,1.58-4.54-1.75h5.66 C23.43,13.09,24.02,8.47,19.92,8.47z M17.74,11.87c0,0,0.32-2.18,2.21-2.19c1.89-0.01,2.08,1.48,2.13,2.19H17.74z"/></svg>