<svg viewBox="0 0 24 24" height="24px" width="24px" fill="#44739e" xmlns="http://www.w3.org/2000/svg"><title>hue:logo</title><desc>Source: https://github.com/arallsopp/hass-hue-icons</desc><path d="M1.96,12.95H0.54V7.17c0.13-0.79,1.29-0.79,1.42,0l0,3.13c0,0,0.85-1.14,2.39-1.02 c1.55,0.13,2.82,0.98,2.74,3.64l-1.47,0.01c0.11-1.17-0.21-2.5-1.67-2.46C2.11,10.54,1.96,12.17,1.96,12.95z M1.96,16.81c-0.27,0.63-1.24,0.63-1.42,0v-3.13h1.42V16.81z M7.05,16.81c-0.27,0.63-1.24,0.63-1.42,0v-3.13h1.42V16.81z M8.23,9.87c0.27-0.63,1.24-0.63,1.42,0V13H8.23V9.87z M13.31,9.87c0.27-0.63,1.24-0.63,1.42,0V13h-1.42V9.87z M14.73,16.9c-0.27,0.63-1.42,0.69-1.45-0.35c0,0-1.03,1.41-3.42,0.64c-1.55-0.5-1.68-2.26-1.64-3.46h1.42 c0.11,0.22-0.38,2.49,1.68,2.47s1.97-2.44,1.97-2.44h1.42V16.9z M19.92,9.39c-3.26,0-3.58,3.4-3.58,3.4s-1.07-0.17-1.03,0.6c0,0.78,0.68,0.55,1.03,0.6 c-0.02,0.44,0.57,3.41,3.58,3.39c1.61,0.01,2.54-0.23,2.88-0.63c0.56-0.75-0.25-1.06-0.49-0.99s-3.87,1.58-4.54-1.75h5.66 C23.43,14.02,24.02,9.39,19.92,9.39z M17.74,12.79c0,0,0.32-2.18,2.21-2.19c1.89-0.01,2.08,1.48,2.13,2.19H17.74z"/></svg>