<svg viewBox="0 0 24 24" fill="#44739e" xmlns="http://www.w3.org/2000/svg"><title>hue:motion-sensor-luminance-off</title><desc>Source: https://github.com/arallsopp/hass-hue-icons</desc><path d="M12.65,10.09V3.93c0-1.01-0.82-1.84-1.82-1.84H4.65L12.65,10.09z M7.2,2.85c0.33,0,0.61,0.28,0.61,0.62 c0,0.34-0.27,0.61-0.61,0.61c-0.34,0-0.6-0.27-0.6-0.61C6.6,3.13,6.87,2.85,7.2,2.85z M15.6,15.81v2.02l-0.02,2.41c-2-0.25-3.56-1.94-3.56-4c0-1.11,0.46-2.1,1.19-2.83l-1.92-1.92 c-0.19,0.2-0.19,0.5,0.01,0.7l0.89,0.89c-0.62,0.76-1.01,1.69-1.11,2.71H9.8c-0.28,0-0.5,0.22-0.5,0.5c0,0.28,0.22,0.5,0.5,0.5 h1.28c0.11,1.01,0.51,1.93,1.14,2.68l-0.92,0.92c-0.2,0.2-0.2,0.51,0,0.71c0.1,0.1,0.23,0.15,0.35,0.15S11.91,21.2,12,21.1 l0.93-0.93c0.75,0.6,1.66,0.99,2.67,1.09v1.34c0,0.28,0.22,0.5,0.5,0.5c0.28,0,0.5-0.22,0.5-0.5v-1.34c1-0.1,1.91-0.5,2.65-1.1 l0.95,0.95c0.1,0.1,0.23,0.15,0.35,0.15s0.26-0.05,0.35-0.15c0,0,0,0,0,0L15.6,15.81z M22.39,15.78h-1.31c-0.09-1.02-0.48-1.94-1.09-2.69l0.91-0.91c0.2-0.2,0.2-0.51,0-0.71 c-0.2-0.2-0.51-0.2-0.71,0l-0.9,0.9c-0.75-0.63-1.67-1.03-2.7-1.14V9.99c0-0.28-0.22-0.5-0.5-0.5c-0.28,0-0.5,0.22-0.5,0.5v1.25 c-0.51,0.05-0.99,0.17-1.43,0.36l0.78,0.78c0.21-0.06,0.43-0.11,0.66-0.14v0.8l5.12,5.12c0.18-0.43,0.3-0.88,0.35-1.36h1.32 c0.28,0,0.5-0.22,0.5-0.5C22.89,16.02,22.67,15.78,22.39,15.78z M21.97,20.95L2.1,1.08L0.72,2.46l1.08,1.08C1.77,3.67,1.75,3.8,1.75,3.93v7.37c0,1.01,0.82,1.84,1.82,1.84 c0,0,6.34,0.01,7.26,0c0.16,0,0.34-0.01,0.53-0.03l9.23,9.23L21.97,20.95z M7.2,9.46c-1,0-1.82-0.83-1.82-1.84 c0-0.15,0.02-0.3,0.06-0.44L7.65,9.4C7.51,9.44,7.36,9.46,7.2,9.46z"/></svg>