<svg viewBox="0 0 24 24" fill="#44739e" xmlns="http://www.w3.org/2000/svg"><title>hue:motion-sensor-movement-off</title><desc>Source: https://github.com/arallsopp/hass-hue-icons</desc><path d="M21.97,20.95L2.1,1.08L0.72,2.46l1.08,1.08C1.77,3.67,1.75,3.8,1.75,3.93v7.37c0,1.01,0.82,1.84,1.82,1.84 h6.69l0.41-0.72l0.36,0.36l-1.17,2.02c-0.21,0.36-0.08,0.82,0.27,1.02c0.12,0.07,0.25,0.1,0.37,0.1c0.26,0,0.51-0.13,0.65-0.38 l0.96-1.68l1.39,1.39l-1.8,3.49H8.65c-0.41,0-0.75,0.34-0.75,0.75s0.34,0.75,0.75,0.75h3.53c0.28,0,0.54-0.16,0.67-0.41l1.48-2.87 l2.97,5.31c0.14,0.25,0.39,0.38,0.66,0.38c0.12,0,0.25-0.03,0.37-0.1c0.36-0.2,0.49-0.66,0.29-1.02l-1.5-2.67l3.46,3.46 L21.97,20.95z M7.2,9.46c-1,0-1.82-0.83-1.82-1.84c0-0.15,0.02-0.3,0.06-0.44L7.65,9.4C7.51,9.44,7.36,9.46,7.2,9.46z M20.83,14.35h-2.22l-1.9-2.83c-0.01-0.01-0.02-0.01-0.03-0.02c-0.06-0.08-0.13-0.14-0.22-0.2 c-0.01-0.01-0.02-0.02-0.03-0.02c-0.1-0.05-0.21-0.07-0.32-0.08c-0.01,0-0.01-0.01-0.02-0.01h-2.34l4.65,4.65h2.43 c0.41,0,0.75-0.34,0.75-0.75C21.58,14.68,21.25,14.35,20.83,14.35z M15.68,9c0-1.07,0.84-1.93,1.88-1.93S19.44,7.94,19.44,9s-0.84,1.93-1.88,1.93S15.68,10.07,15.68,9z M12.64,3.93c0-1.01-0.82-1.84-1.82-1.84H4.65l7.99,7.99V3.93z M7.2,4.08c-0.34,0-0.6-0.27-0.6-0.61 c0-0.34,0.27-0.62,0.6-0.62s0.61,0.28,0.61,0.62C7.81,3.81,7.54,4.08,7.2,4.08z"/></svg>