<svg viewBox="0 0 24 24" fill="#44739e" xmlns="http://www.w3.org/2000/svg"><title>hue:motion-sensor-movement</title><desc>Source: https://github.com/arallsopp/hass-hue-icons</desc><path d="M11.31,11.32c0.22-0.39,0.64-0.63,1.08-0.63l0.25,0V3.93c0-1.01-0.82-1.84-1.82-1.84H3.57 c-1,0-1.82,0.83-1.82,1.84v7.37c0,1.01,0.82,1.84,1.82,1.84h6.69L11.31,11.32z M7.2,2.85c0.33,0,0.61,0.28,0.61,0.62 c0,0.34-0.27,0.61-0.61,0.61c-0.34,0-0.6-0.27-0.6-0.61C6.6,3.13,6.87,2.85,7.2,2.85z M7.2,9.46c-1,0-1.82-0.83-1.82-1.84 S6.2,5.77,7.2,5.77S9.02,6.6,9.02,7.62S8.2,9.46,7.2,9.46z M20.83,14.35h-2.22l-1.9-2.83c-0.01-0.01-0.02-0.01-0.03-0.02c-0.06-0.08-0.13-0.14-0.22-0.2 c-0.01-0.01-0.02-0.02-0.03-0.02c0,0,0,0,0,0c-0.1-0.05-0.21-0.07-0.32-0.08c-0.01,0-0.01-0.01-0.02-0.01h-3.7 c-0.27,0-0.52,0.14-0.65,0.38l-1.87,3.24c-0.21,0.36-0.08,0.82,0.27,1.02c0.12,0.07,0.25,0.1,0.37,0.1c0.26,0,0.51-0.13,0.65-0.38 l1.65-2.87h2.03l-3.13,6.07H8.65c-0.41,0-0.75,0.34-0.75,0.75s0.34,0.75,0.75,0.75h3.53c0.28,0,0.54-0.16,0.67-0.41l1.48-2.87 l2.97,5.31c0.14,0.25,0.39,0.38,0.66,0.38c0.12,0,0.25-0.03,0.37-0.1c0.36-0.2,0.49-0.66,0.29-1.02l-3.46-6.17l1.02-1.97l1.41,2.11 c0.14,0.21,0.37,0.33,0.62,0.33h2.62c0.41,0,0.75-0.34,0.75-0.75S21.25,14.35,20.83,14.35z M19.44,9c0,1.06-0.84,1.93-1.88,1.93S15.68,10.07,15.68,9s0.84-1.93,1.88-1.93S19.44,7.94,19.44,9z"/></svg>