<svg viewBox="0 0 24 24" fill="#44739e" xmlns="http://www.w3.org/2000/svg"><title>hue:motion-sensor-temperature-off</title><desc>Source: https://github.com/arallsopp/hass-hue-icons</desc><path d="M0.72,2.46l1.08,1.08C1.77,3.67,1.75,3.8,1.75,3.93v7.37c0,1.01,0.82,1.84,1.82,1.84h7.26 c0.17,0,0.33-0.03,0.49-0.08l1.4,1.4c-0.59,0.76-0.92,1.69-0.92,2.71c0,2.51,2.04,4.55,4.55,4.55c1.02,0,1.95-0.35,2.7-0.92 l1.53,1.53l1.38-1.38L2.1,1.08L0.72,2.46z M7.2,9.46c-1,0-1.82-0.83-1.82-1.84c0-0.15,0.02-0.3,0.06-0.44L7.65,9.4 C7.51,9.44,7.36,9.46,7.2,9.46z M16.35,20.72c-1.96,0-3.55-1.59-3.55-3.55c0-0.74,0.24-1.41,0.65-1.98l0.71,0.71 c-0.22,0.37-0.35,0.8-0.35,1.27c0,1.41,1.14,2.55,2.55,2.55c0.47,0,0.9-0.13,1.27-0.35l0.71,0.71 C17.76,20.47,17.09,20.72,16.35,20.72z M16.87,18.62c-0.16,0.06-0.34,0.1-0.52,0.1c-0.86,0-1.55-0.7-1.55-1.55 c0-0.18,0.04-0.36,0.1-0.52L16.87,18.62z M21.51,7.38c0.28,0,0.5-0.22,0.5-0.5c0-0.28-0.22-0.5-0.5-0.5h-2.44V5.91h0.89c0.28,0,0.5-0.22,0.5-0.5 c0-0.28-0.22-0.5-0.5-0.5h-0.89V4.45h2.47c0.28,0,0.5-0.22,0.5-0.5c0-0.28-0.22-0.5-0.5-0.5h-2.66C18.49,2.43,17.5,1.7,16.35,1.7 c-1.5,0-2.72,1.22-2.72,2.72v6.65l1,1V4.42c0-0.95,0.77-1.72,1.72-1.72c0.95,0,1.72,0.77,1.72,1.72v9.38 c0,0.02,0.01,0.03,0.01,0.05c0,0.04,0.01,0.07,0.02,0.1c0.01,0.03,0.02,0.06,0.04,0.08c0.02,0.03,0.03,0.05,0.05,0.08 c0.02,0.03,0.04,0.05,0.07,0.07c0.01,0.01,0.02,0.03,0.04,0.04c1.01,0.65,1.6,1.72,1.6,2.95c0,0.05-0.01,0.1-0.02,0.15l0.88,0.88 c0.08-0.34,0.13-0.68,0.13-1.04c0-1.47-0.67-2.77-1.83-3.62v-0.29h2.44c0.28,0,0.5-0.22,0.5-0.5c0-0.28-0.22-0.5-0.5-0.5h-2.44 v-0.47h0.88c0.28,0,0.5-0.22,0.5-0.5c0-0.28-0.22-0.5-0.5-0.5h-0.88v-0.47h2.44c0.28,0,0.5-0.22,0.5-0.5c0-0.28-0.22-0.5-0.5-0.5 h-2.44V8.85h0.89c0.28,0,0.5-0.22,0.5-0.5c0-0.28-0.22-0.5-0.5-0.5h-0.89V7.38H21.51z M16.33,7.82c-0.28,0-0.5,0.22-0.5,0.5v4.95l1,1V8.32C16.83,8.04,16.61,7.82,16.33,7.82z M12.65,3.93c0-1.01-0.82-1.84-1.82-1.84H4.65l8,8V3.93z M7.2,4.08c-0.34,0-0.6-0.27-0.6-0.61 c0-0.34,0.27-0.62,0.6-0.62s0.61,0.28,0.61,0.62C7.81,3.81,7.54,4.08,7.2,4.08z"/></svg>