<svg viewBox="0 0 24 24" fill="#44739e" xmlns="http://www.w3.org/2000/svg"><title>hue:motion-sensor-luminance-alt-off</title><desc>Source: https://github.com/arallsopp/hass-hue-icons</desc><path d="M12.23,9.67c0.14-0.07,0.28-0.14,0.42-0.2V3.93c0-1.01-0.82-1.84-1.82-1.84H4.65L12.23,9.67z M7.2,2.85 c0.33,0,0.61,0.28,0.61,0.62c0,0.34-0.27,0.61-0.61,0.61c-0.34,0-0.6-0.27-0.6-0.61C6.6,3.13,6.87,2.85,7.2,2.85z M14.9,9.18c0.27,0,0.5-0.22,0.5-0.5l-0.01-1.41c0-0.28-0.22-0.5-0.5-0.5c-0.28,0-0.5,0.22-0.5,0.5l0.01,1.41 C14.4,8.96,14.62,9.18,14.9,9.18z M19.43,11.04c0.13,0,0.26-0.04,0.36-0.15l0.99-1c0.2-0.2,0.2-0.52,0-0.71c-0.2-0.2-0.52-0.2-0.71,0l-0.99,1 c-0.2,0.2-0.2,0.52,0,0.71C19.18,10.99,19.3,11.04,19.43,11.04z M12.97,10.41l0.81,0.81c0.21-0.06,0.41-0.11,0.63-0.14v0.77l5.16,5.16c0.25-0.6,0.39-1.25,0.39-1.94 c0-2.78-2.26-5.05-5.05-5.05C14.22,10.02,13.57,10.16,12.97,10.41z M22.74,14.56l-1.41,0.01c-0.28,0-0.5,0.22-0.5,0.5c0,0.28,0.22,0.5,0.5,0.5l1.41-0.01c0.28,0,0.5-0.22,0.5-0.5 C23.24,14.78,23.02,14.56,22.74,14.56z M8.44,14.61L7.1,14.62c-0.28,0-0.5,0.22-0.5,0.5c0,0.28,0.23,0.5,0.5,0.5l1.34-0.01c0.28,0,0.5-0.22,0.5-0.5 C8.94,14.83,8.71,14.61,8.44,14.61z M14.94,21.07c-0.28,0-0.5,0.22-0.5,0.5l0.01,1.34c0,0.28,0.23,0.5,0.5,0.5c0.27-0.01,0.5-0.23,0.5-0.5 l-0.01-1.34C15.44,21.29,15.21,21.07,14.94,21.07z M21.97,20.95L2.1,1.08L0.72,2.46l1.08,1.08C1.77,3.67,1.75,3.8,1.75,3.93v7.37c0,1.01,0.82,1.84,1.82,1.84 h5.61c0.18-0.53,0.44-1.01,0.75-1.46l0.72,0.72c-0.49,0.78-0.79,1.69-0.79,2.68c0,2.78,2.27,5.05,5.05,5.05 c0.98,0,1.9-0.3,2.68-0.79l3,3L21.97,20.95z M7.2,9.46c-1,0-1.82-0.83-1.82-1.84c0-0.15,0.02-0.3,0.06-0.44L7.65,9.4 C7.51,9.44,7.36,9.46,7.2,9.46z M14.41,19.08c-2-0.25-3.55-1.94-3.55-4c0-0.71,0.21-1.36,0.53-1.94l3.02,3.02V19.08z M10,19.33l-0.94,0.96c-0.2,0.2-0.2,0.52,0,0.71c0.1,0.09,0.22,0.14,0.35,0.14c0.13,0,0.26-0.05,0.36-0.15 l0.94-0.95c0.2-0.2,0.2-0.52,0-0.71C10.51,19.13,10.19,19.13,10,19.33z"/></svg>