<svg viewBox="0 0 24 24" fill="#44739e" xmlns="http://www.w3.org/2000/svg"><title>hue:pedestal-econic</title><desc>Source: https://github.com/arallsopp/hass-hue-icons</desc><path d="M19.41,2.27l-0.14-0.11c-0.08-0.06-1.91-1.44-6.55-1.53c-2.66-0.08-5.31,0.19-7.89,0.82L4.52,1.53L4.37,2.55 l2.54,10.33L7,12.97c0.72,0.8,1.64,1.4,2.66,1.74c0.14,1.77-0.02,3.55-0.48,5.27c-1.01,0.3-1.74,0.8-1.74,1.53 c0,1.28,2.23,1.87,4.3,1.87c2.07,0,4.3-0.58,4.3-1.87c0-0.72-0.71-1.21-1.69-1.51c-0.45-1.76-0.62-3.58-0.48-5.39 c2.72-0.41,2.81-0.62,2.91-0.87c0.09-0.22,1.81-6.63,2.82-10.44l0.03-0.12L19.41,2.27z M8.56,4.02L9.2,9.24L7.37,8.27L6.15,3.2 L8.56,4.02z M8.19,11.71L7.68,9.57l1.68,0.88l0.28,2.24L8.19,11.71z M10.73,12.96l-0.27-2.52l5.33-0.5l-0.63,2.45L10.73,12.96z M16.06,8.92l-5.7,0.53L9.8,4.21l7.58-0.43L16.06,8.92z"/></svg>