<svg viewBox="0 0 24 24" fill="#44739e" xmlns="http://www.w3.org/2000/svg"><title>hue:pendant-devote-two-solid-off</title><desc>Source: https://github.com/arallsopp/hass-hue-icons</desc><path d="M21.97,20.95L2.88,1.86L1.5,3.24l5.34,5.34L6.42,21.13c-0.01,0.22,0.13,0.42,0.34,0.49 c0.02,0.01,0.16,0.05,0.38,0.11c0,0.07,0,0.14,0.03,0.2c0.11,0.25,0.67,1.09,3.27,1.09s3.16-0.83,3.27-1.09 c0.03-0.06,0.03-0.13,0.03-0.2c0.22-0.06,0.36-0.1,0.38-0.11c0.21-0.07,0.35-0.27,0.34-0.49l-0.17-5.1l1.04,1.04l0.11,3.1 c0.13,0.01,0.26,0.02,0.4,0.02c1.17,0,1.81-0.21,2.18-0.43l2.57,2.57L21.97,20.95z M14.01,8c-0.04-1.31-1.52-3.44-1.94-4.03l-0.05-2.33c-0.01-0.27-0.23-0.49-0.5-0.49H9.35 c-0.27,0-0.49,0.22-0.5,0.49L8.8,3.96C8.62,4.21,8.26,4.73,7.9,5.34l6.23,6.23L14.01,8z M15.17,12.61l3.82,3.82l-0.28-8.35c-0.04-1.06-1.22-2.77-1.57-3.25L17.1,2.95c0-0.22-0.18-0.39-0.4-0.39h-1.74 c-0.22,0-0.4,0.18-0.4,0.39l-0.04,1.88c-0.08,0.12-0.22,0.31-0.38,0.55c0.48,0.9,0.85,1.82,0.87,2.59L15.17,12.61z"/></svg>