<svg viewBox="0 0 24 24" fill="#44739e" xmlns="http://www.w3.org/2000/svg"><title>hue:pendant-devote-three</title><desc>Source: https://github.com/arallsopp/hass-hue-icons</desc><path d="M10.82,8C10.78,6.69,9.3,4.55,8.88,3.96L8.83,1.64C8.82,1.37,8.6,1.15,8.33,1.15H6.16 c-0.27,0-0.49,0.22-0.5,0.49L5.61,3.96C5.19,4.55,3.71,6.69,3.67,8L3.23,21.13c-0.01,0.22,0.13,0.42,0.34,0.49 c0.02,0.01,0.16,0.05,0.38,0.11c0,0.07,0,0.14,0.03,0.2c0.11,0.25,0.67,1.09,3.27,1.09s3.16-0.83,3.27-1.09 c0.03-0.06,0.03-0.13,0.03-0.2c0.22-0.06,0.36-0.1,0.38-0.11c0.21-0.07,0.35-0.27,0.34-0.49L10.82,8z M7.24,21.15 c-1.35,0-2.46-0.23-3.01-0.37L4.67,8.03c0.03-0.96,1.34-2.92,1.84-3.6c0.06-0.08,0.1-0.18,0.1-0.29l0.04-2h1.18l0.04,2 c0,0.1,0.04,0.2,0.1,0.29c0.5,0.67,1.81,2.64,1.84,3.6l0.43,12.74C9.71,20.91,8.59,21.15,7.24,21.15z M20.54,8.46 c-0.03-0.88-1.01-2.3-1.3-2.69l-0.03-1.55c0-0.18-0.15-0.33-0.33-0.33h-1.44c-0.18,0-0.33,0.15-0.33,0.33l-0.03,1.55 c-0.11,0.16-0.33,0.48-0.56,0.86c0.13,0.28,0.23,0.55,0.3,0.82c0.29-0.55,0.66-1.1,0.86-1.37c0.04-0.06,0.06-0.12,0.07-0.19 l0.03-1.33h0.79l0.03,1.33c0,0.07,0.02,0.14,0.07,0.19c0.33,0.45,1.21,1.76,1.23,2.4L20.16,17c-0.36,0.09-1.11,0.25-2.01,0.25 c-0.34,0-0.64-0.03-0.92-0.06l0.04,1.24c0.25,0.04,0.53,0.06,0.88,0.06c1.74,0,2.11-0.56,2.18-0.73c0.02-0.04,0.02-0.09,0.02-0.13 c0.15-0.04,0.24-0.07,0.25-0.07c0.14-0.05,0.23-0.18,0.23-0.33L20.54,8.46z M16.13,8.18c-0.04-1.05-1.21-2.75-1.55-3.22L14.54,3.1 c0-0.22-0.18-0.39-0.4-0.39H12.4c-0.22,0-0.4,0.17-0.4,0.39l-0.04,1.86c-0.14,0.19-0.41,0.59-0.7,1.06 c0.15,0.33,0.28,0.65,0.37,0.97c0.34-0.66,0.8-1.34,1.04-1.66c0.05-0.07,0.08-0.15,0.08-0.23l0.04-1.6h0.95l0.04,1.6 c0,0.08,0.03,0.16,0.08,0.23c0.4,0.54,1.45,2.11,1.47,2.88l0.34,10.19c-0.43,0.11-1.33,0.3-2.4,0.3c-0.4,0-0.75-0.03-1.09-0.07 l0.05,1.49c0.29,0.04,0.62,0.07,1.04,0.07c2.08,0,2.53-0.67,2.61-0.87c0.02-0.05,0.03-0.11,0.03-0.16c0.18-0.05,0.29-0.08,0.3-0.09 c0.17-0.06,0.28-0.22,0.27-0.39L16.13,8.18z M10.82,8C10.78,6.69,9.3,4.55,8.88,3.96L8.83,1.64C8.82,1.37,8.6,1.15,8.33,1.15H6.16 c-0.27,0-0.49,0.22-0.5,0.49L5.61,3.96C5.19,4.55,3.71,6.69,3.67,8L3.23,21.13c-0.01,0.22,0.13,0.42,0.34,0.49 c0.02,0.01,0.16,0.05,0.38,0.11c0,0.07,0,0.14,0.03,0.2c0.11,0.25,0.67,1.09,3.27,1.09s3.16-0.83,3.27-1.09 c0.03-0.06,0.03-0.13,0.03-0.2c0.22-0.06,0.36-0.1,0.38-0.11c0.21-0.07,0.35-0.27,0.34-0.49L10.82,8z M7.24,21.15 c-1.35,0-2.46-0.23-3.01-0.37L4.67,8.03c0.03-0.96,1.34-2.92,1.84-3.6c0.06-0.08,0.1-0.18,0.1-0.29l0.04-2h1.18l0.04,2 c0,0.1,0.04,0.2,0.1,0.29c0.5,0.67,1.81,2.64,1.84,3.6l0.43,12.74C9.71,20.91,8.59,21.15,7.24,21.15z"/></svg>