<svg viewBox="0 0 24 24" fill="#44739e" xmlns="http://www.w3.org/2000/svg"><title>hue:pendant-long-up</title><desc>Source: https://github.com/arallsopp/hass-hue-icons</desc><path d="M12.39,2.83c0.71,0,0.75,0.29,0.75,0.29v1.43v2.13l9.67,3.25c0.29,0.1,0.48,0.37,0.48,0.67v3.26 c0,0.3-0.18,0.56-0.46,0.66l-4.96,1.87c-0.15,0.06-0.32,0.06-0.47,0.01c-3.47-1.17,0.33,0.11-16.22-5.45 c-0.29-0.1-0.48-0.37-0.48-0.68V7.02c0-0.3,0.18-0.56,0.46-0.67l4.96-1.87c0.15-0.06,0.32-0.06,0.47-0.01l5.13,1.72V4.54V3.12 C11.72,3.12,11.74,2.83,12.39,2.83z M6.38,5.94c-0.08,0-0.16,0.02-0.23,0.04L3.38,7.03C3.19,7.1,3.19,7.37,3.38,7.43l14.02,4.71 c0.15,0.05,0.32,0.05,0.47-0.01l2.77-1.04c0.19-0.07,0.18-0.34-0.01-0.4h0l-7.5-2.52v0.88c0,0-0.02,0.29-0.67,0.29 c-0.71,0-0.75-0.29-0.75-0.29V7.69L6.62,5.97C6.54,5.95,6.46,5.94,6.38,5.94z"/></svg>