<svg viewBox="0 0 24 24" fill="#44739e" xmlns="http://www.w3.org/2000/svg"><title>hue:pendant-cher-off</title><desc>Source: https://github.com/arallsopp/hass-hue-icons</desc><path d="M9.87,4.27c1.4,0.97,1.63,1.86,1.63,2.29v2.37l1.01,1.01V6.57c0-0.4,0.24-1.34,1.63-2.3 c0.65-0.45,1.48-1.13,1.23-1.91c-0.23-0.72-1.27-1.06-3.3-1.06h-0.13c-2.03,0-3.07,0.34-3.3,1.06C8.39,3.13,9.22,3.82,9.87,4.27z M22.91,20.12c-0.11-0.98-0.96-1.53-2.15-1.93l1.99,1.99l-0.78,0.78L2.88,1.86L1.49,3.24l10,10 c-0.04,0.68-0.36,2.76-2.82,3.55c-1,0.32-2.02,0.56-3.01,0.78c-2.28,0.52-4.23,0.98-4.52,2.42L1.13,20 c-0.03,0.07-0.16,0.47,0.16,0.93c0.82,1.18,3.93,1.78,9.25,1.78c0.4,0,0.81,0,1.23-0.01h0.42c3.66,0.05,6.39-0.14,8.18-0.58 l0.22,0.22l0.38-0.38c0.85-0.27,1.42-0.61,1.71-1.02c0.22-0.31,0.23-0.59,0.2-0.76C22.9,20.15,22.91,20.14,22.91,20.12z M14.84,16.59c-1.13-0.51-1.71-1.3-2.01-2.01L14.84,16.59z M12.21,21.69h-0.43c-0.42,0.01-0.82,0.01-1.21,0.01 c-7.56,0-8.38-1.19-8.48-1.33l0.06-0.07l16.46,0.06l0.92,0.92C18.11,21.55,15.84,21.75,12.21,21.69z"/></svg>