<svg viewBox="0 0 24 24" fill="#44739e" xmlns="http://www.w3.org/2000/svg"><title>hue:pendant-devote</title><desc>Source: https://github.com/arallsopp/hass-hue-icons</desc><path d="M15.58,8c-0.04-1.31-1.52-3.44-1.94-4.03l-0.05-2.33c-0.01-0.27-0.23-0.49-0.5-0.49h-2.16c-0.27,0-0.49,0.22-0.5,0.49 l-0.05,2.33C9.94,4.55,8.47,6.69,8.42,8L7.98,21.13c-0.01,0.22,0.13,0.42,0.34,0.49c0.02,0.01,0.16,0.05,0.38,0.11 c0,0.07,0,0.14,0.03,0.2c0.11,0.25,0.67,1.09,3.27,1.09s3.16-0.83,3.27-1.09c0.03-0.06,0.03-0.13,0.03-0.2 c0.22-0.06,0.36-0.1,0.38-0.11c0.21-0.07,0.35-0.27,0.34-0.49L15.58,8z M12,21.15c-1.35,0-2.46-0.23-3.01-0.37L9.42,8.03 c0.03-0.96,1.34-2.92,1.84-3.6c0.06-0.08,0.1-0.18,0.1-0.29l0.04-2h1.18l0.04,2c0,0.1,0.04,0.2,0.1,0.29 c0.5,0.67,1.81,2.64,1.84,3.6l0.43,12.74C14.46,20.91,13.35,21.15,12,21.15z"/></svg>