<svg viewBox="0 0 24 24" fill="#44739e" xmlns="http://www.w3.org/2000/svg"><title>hue:pendant-devote-three-off</title><desc>Source: https://github.com/arallsopp/hass-hue-icons</desc><path d="M21.97,20.95L2.88,1.86L1.5,3.24l2.82,2.82C3.97,6.74,3.69,7.44,3.67,8L3.23,21.13 c-0.01,0.22,0.13,0.42,0.34,0.49c0.02,0.01,0.16,0.05,0.38,0.11c0,0.07,0,0.14,0.03,0.2c0.11,0.25,0.67,1.09,3.27,1.09 s3.16-0.83,3.27-1.09c0.03-0.06,0.03-0.13,0.03-0.2c0.22-0.06,0.36-0.1,0.38-0.11c0.21-0.07,0.35-0.27,0.34-0.49l-0.29-8.4 l4.65,4.65l0.03,1.02c-0.43,0.11-1.33,0.3-2.4,0.3c-0.4,0-0.75-0.03-1.09-0.07l0.05,1.49c0.29,0.04,0.62,0.07,1.04,0.07 c2.08,0,2.53-0.67,2.61-0.87c0.02-0.05,0.03-0.11,0.03-0.16c0.18-0.05,0.29-0.08,0.3-0.09c0.17-0.06,0.28-0.22,0.27-0.39 l-0.02-0.47l4.12,4.12L21.97,20.95z M10.24,20.77c-0.53,0.14-1.65,0.38-3,0.38c-1.35,0-2.46-0.23-3.01-0.37L4.67,8.03 c0.01-0.32,0.17-0.76,0.39-1.22l4.87,4.87L10.24,20.77z M12.67,5.33c0.05-0.07,0.08-0.15,0.08-0.23l0.04-1.6h0.95l0.04,1.6c0,0.08,0.03,0.16,0.08,0.23 c0.4,0.54,1.45,2.11,1.47,2.88l0.16,4.72l0.83,0.83l-0.19-5.58c-0.04-1.05-1.21-2.75-1.55-3.22L14.54,3.1 c0-0.22-0.18-0.39-0.4-0.39H12.4c-0.22,0-0.4,0.17-0.4,0.39l-0.04,1.86c-0.14,0.19-0.41,0.59-0.7,1.06 c0.15,0.33,0.28,0.65,0.37,0.97C11.97,6.33,12.43,5.65,12.67,5.33z M17.68,6.08c0.04-0.06,0.06-0.12,0.07-0.19l0.03-1.33h0.79l0.03,1.33c0,0.07,0.02,0.14,0.07,0.19 c0.33,0.45,1.21,1.76,1.23,2.4L20.16,17c-0.12,0.03-0.3,0.07-0.5,0.1l0.66,0.66c0,0,0,0,0-0.01c0.02-0.04,0.02-0.09,0.02-0.13 c0.15-0.04,0.24-0.07,0.25-0.07c0.14-0.05,0.23-0.18,0.23-0.33l-0.29-8.77c-0.03-0.88-1.01-2.3-1.3-2.69l-0.03-1.55 c0-0.18-0.15-0.33-0.33-0.33h-1.44c-0.18,0-0.33,0.15-0.33,0.33l-0.03,1.55c-0.11,0.16-0.33,0.48-0.56,0.86 c0.13,0.28,0.23,0.55,0.3,0.82C17.11,6.9,17.48,6.35,17.68,6.08z M6.65,2.14h1.18l0.04,2c0,0.1,0.04,0.2,0.1,0.29C8.31,4.89,9.03,5.96,9.46,6.9l1.36,1.36L10.82,8 C10.78,6.69,9.3,4.55,8.88,3.96L8.83,1.64C8.82,1.37,8.6,1.15,8.33,1.15H6.16c-0.27,0-0.49,0.22-0.5,0.49L5.63,3.07l0.98,0.98 L6.65,2.14z"/></svg>