<svg viewBox="0 0 24 24" fill="#44739e" xmlns="http://www.w3.org/2000/svg"><title>hue:pendant-devote-two-off</title><desc>Source: https://github.com/arallsopp/hass-hue-icons</desc><path d="M21.97,20.95L2.88,1.86L1.5,3.24l5.34,5.34L6.42,21.13c-0.01,0.22,0.13,0.42,0.34,0.49 c0.02,0.01,0.16,0.05,0.38,0.11c0,0.07,0,0.14,0.03,0.2c0.11,0.25,0.67,1.09,3.27,1.09s3.16-0.83,3.27-1.09 c0.03-0.06,0.03-0.13,0.03-0.2c0.22-0.06,0.36-0.1,0.38-0.11c0.21-0.07,0.35-0.27,0.34-0.49l-0.17-5.1l2.58,2.58 c-0.32,0.03-0.65,0.06-1.02,0.06c-0.16,0-0.3-0.01-0.45-0.02l0.05,1.51c0.13,0.01,0.25,0.02,0.39,0.02c1.16,0,1.81-0.21,2.18-0.43 l2.58,2.58L21.97,20.95z M13.43,20.77c-0.53,0.14-1.64,0.38-2.99,0.38s-2.46-0.23-3.01-0.37L7.81,9.56l5.43,5.43L13.43,20.77z M9.7,4.43c0.06-0.08,0.1-0.18,0.1-0.29l0.04-2h1.18l0.04,2c0,0.1,0.04,0.2,0.1,0.29 c0.5,0.67,1.81,2.64,1.84,3.6l0.08,2.49l1.05,1.05L14.01,8c-0.04-1.31-1.52-3.44-1.94-4.03l-0.05-2.33 c-0.01-0.27-0.23-0.49-0.5-0.49H9.35c-0.27,0-0.49,0.22-0.5,0.49L8.8,3.96C8.62,4.21,8.26,4.73,7.9,5.34l0.73,0.73 C9.02,5.4,9.46,4.76,9.7,4.43z M15.24,5.2c0.05-0.07,0.08-0.15,0.08-0.23l0.04-1.61h0.95l0.04,1.61c0,0.08,0.03,0.16,0.08,0.23 c0.4,0.54,1.46,2.12,1.48,2.9l0.26,7.51l0.83,0.83L18.7,8.08c-0.04-1.06-1.22-2.77-1.57-3.25L17.1,2.95c0-0.22-0.18-0.39-0.4-0.39 h-1.74c-0.22,0-0.4,0.18-0.4,0.39l-0.04,1.88c-0.08,0.11-0.2,0.29-0.35,0.5c0.15,0.28,0.29,0.57,0.41,0.85 C14.83,5.77,15.08,5.41,15.24,5.2z"/></svg>