<svg viewBox="0 0 24 24" fill="#44739e" xmlns="http://www.w3.org/2000/svg"><title>hue:pendant-round-off</title><desc>Source: https://github.com/arallsopp/hass-hue-icons</desc><path d="M1.49,3.24l5.1,5.1C5.76,8.47,4.96,8.62,4.24,8.81c-1.9,0.51-2.99,1.16-3.26,1.84 c-0.05,0.11-0.07,0.22-0.07,0.34v6.53c0,0.11,0.02,0.23,0.07,0.34c0.26,0.65,1.28,1.28,3.08,1.78c3.84,1.08,9.86,1.2,14.21,0.37 l2.32,2.32l1.38-1.38L2.88,1.86L1.49,3.24z M5.38,18.08c-3.58-0.9-3.47-2.32,0.16-3.19c1.93-0.46,4.48-0.66,6.99-0.62l4.16,4.16 C13.11,18.95,8.43,18.84,5.38,18.08z M22.96,10.65c-0.27-0.68-1.37-1.32-3.27-1.84c-1.91-0.51-4.33-0.8-6.8-0.85V4.12V3.86 c0-0.23-0.41-0.42-0.92-0.42s-0.92,0.19-0.92,0.42v0.25v3.84c-0.17,0-0.33,0.02-0.5,0.02l6.68,6.68c0.4,0.07,0.8,0.14,1.17,0.23 c2.98,0.71,3.58,1.8,1.72,2.66l1.47,1.47c0.75-0.36,1.21-0.76,1.37-1.16c0.05-0.11,0.07-0.22,0.07-0.34v-6.53 C23.03,10.87,23.01,10.77,22.96,10.65z"/></svg>