<svg viewBox="0 0 24 24" fill="#44739e" xmlns="http://www.w3.org/2000/svg"><title>hue:pendant-devote-three-solid-off</title><desc>Source: https://github.com/arallsopp/hass-hue-icons</desc><path d="M21.97,20.95L2.88,1.86L1.5,3.24l2.82,2.82C3.97,6.74,3.69,7.44,3.67,8L3.23,21.13 c-0.01,0.22,0.13,0.42,0.34,0.49c0.02,0.01,0.16,0.05,0.38,0.11c0,0.07,0,0.14,0.03,0.2c0.11,0.25,0.67,1.09,3.27,1.09 s3.16-0.83,3.27-1.09c0.03-0.06,0.03-0.13,0.03-0.2c0.22-0.06,0.36-0.1,0.38-0.11c0.21-0.07,0.35-0.27,0.34-0.49l-0.29-8.4 l1.04,1.04l0.22,6.4c0.13,0.01,0.26,0.02,0.4,0.02c2.09,0,2.55-0.67,2.63-0.88c0.02-0.05,0.03-0.11,0.03-0.16 c0.18-0.05,0.29-0.08,0.3-0.09c0.17-0.06,0.28-0.22,0.28-0.4l-0.04-1.07l4.74,4.74L21.97,20.95z M11.87,9.31l3.83,3.83l-0.17-5.05c-0.04-1.06-1.22-2.77-1.57-3.25l-0.04-1.88c0-0.22-0.18-0.39-0.4-0.39h-1.74 c-0.22,0-0.4,0.18-0.4,0.39l-0.04,1.88c-0.08,0.12-0.22,0.31-0.38,0.55c0.48,0.9,0.85,1.82,0.87,2.59L11.87,9.31z M16.74,14.18l3.08,3.08c0.02-0.05,0.05-0.09,0.05-0.14l-0.3-8.35c-0.03-0.83-0.97-2.19-1.23-2.56L18.3,4.73 c-0.01-0.17-0.15-0.31-0.32-0.31H16.6c-0.17,0-0.31,0.14-0.32,0.31L16.26,6.2c-0.04,0.06-0.1,0.15-0.17,0.25 c0.24,0.54,0.42,1.1,0.44,1.59L16.74,14.18z M10.82,8C10.78,6.69,9.3,4.56,8.88,3.97L8.83,1.64C8.82,1.37,8.6,1.15,8.33,1.15H6.16 c-0.27,0-0.49,0.22-0.5,0.49L5.63,3.07l5.2,5.2L10.82,8z"/></svg>