<svg viewBox="0 0 24 24" fill="#44739e" xmlns="http://www.w3.org/2000/svg"><title>hue:pendant-devote-solid-off</title><desc>Source: https://github.com/arallsopp/hass-hue-icons</desc><path d="M21.97,20.95L2.88,1.86L1.5,3.24l6.85,6.85L7.98,21.13c-0.01,0.22,0.13,0.42,0.34,0.49 c0.02,0.01,0.16,0.05,0.38,0.11c0,0.07,0,0.14,0.03,0.2c0.11,0.25,0.67,1.09,3.27,1.09s3.16-0.83,3.27-1.09 c0.03-0.06,0.03-0.13,0.03-0.2c0.22-0.06,0.36-0.1,0.38-0.11c0.21-0.07,0.35-0.27,0.34-0.49l-0.12-3.48l4.68,4.68L21.97,20.95z M15.58,8c-0.04-1.31-1.52-3.44-1.94-4.03l-0.05-2.33c-0.01-0.27-0.23-0.49-0.5-0.49h-2.16 c-0.27,0-0.49,0.22-0.5,0.49l-0.05,2.33C10.1,4.34,9.4,5.34,8.92,6.36l6.83,6.83L15.58,8z"/></svg>