<svg viewBox="0 0 24 24" fill="#44739e" xmlns="http://www.w3.org/2000/svg"><title>hue:pendant-devote-two</title><desc>Source: https://github.com/arallsopp/hass-hue-icons</desc><path d="M18.7,8.08c-0.04-1.06-1.22-2.77-1.57-3.25L17.1,2.95c0-0.22-0.18-0.39-0.4-0.39h-1.74c-0.22,0-0.4,0.18-0.4,0.39 l-0.04,1.88c-0.08,0.11-0.2,0.29-0.35,0.5c0.15,0.28,0.29,0.57,0.41,0.85c0.25-0.41,0.5-0.77,0.66-0.98 c0.05-0.07,0.08-0.15,0.08-0.23l0.04-1.61h0.95l0.04,1.61c0,0.08,0.03,0.16,0.08,0.23c0.4,0.54,1.46,2.12,1.48,2.9l0.35,10.27 c-0.44,0.11-1.34,0.3-2.42,0.3c-0.16,0-0.3-0.01-0.45-0.02l0.05,1.51c0.13,0.01,0.25,0.02,0.39,0.02c2.09,0,2.55-0.67,2.63-0.88 c0.02-0.05,0.03-0.11,0.03-0.16c0.18-0.05,0.29-0.08,0.3-0.09c0.17-0.06,0.28-0.22,0.28-0.4L18.7,8.08z M14.01,8c-0.04-1.31-1.52-3.44-1.94-4.03l-0.05-2.33c-0.01-0.27-0.23-0.49-0.5-0.49H9.35c-0.27,0-0.49,0.22-0.5,0.49 L8.8,3.96C8.38,4.55,6.9,6.69,6.86,8L6.42,21.13c-0.01,0.22,0.13,0.42,0.34,0.49c0.02,0.01,0.16,0.05,0.38,0.11 c0,0.07,0,0.14,0.03,0.2c0.11,0.25,0.67,1.09,3.27,1.09s3.16-0.83,3.27-1.09c0.03-0.06,0.03-0.13,0.03-0.2 c0.22-0.06,0.36-0.1,0.38-0.11c0.21-0.07,0.35-0.27,0.34-0.49L14.01,8z M10.44,21.15c-1.35,0-2.46-0.23-3.01-0.37L7.86,8.03 C7.89,7.07,9.2,5.11,9.7,4.43c0.06-0.08,0.1-0.18,0.1-0.29l0.04-2h1.18l0.04,2c0,0.1,0.04,0.2,0.1,0.29c0.5,0.67,1.81,2.64,1.84,3.6 l0.43,12.74C12.9,20.91,11.79,21.15,10.44,21.15z M14.01,8c-0.04-1.31-1.52-3.44-1.94-4.03l-0.05-2.33c-0.01-0.27-0.23-0.49-0.5-0.49H9.35c-0.27,0-0.49,0.22-0.5,0.49 L8.8,3.96C8.38,4.55,6.9,6.69,6.86,8L6.42,21.13c-0.01,0.22,0.13,0.42,0.34,0.49c0.02,0.01,0.16,0.05,0.38,0.11 c0,0.07,0,0.14,0.03,0.2c0.11,0.25,0.67,1.09,3.27,1.09s3.16-0.83,3.27-1.09c0.03-0.06,0.03-0.13,0.03-0.2 c0.22-0.06,0.36-0.1,0.38-0.11c0.21-0.07,0.35-0.27,0.34-0.49L14.01,8z M10.44,21.15c-1.35,0-2.46-0.23-3.01-0.37L7.86,8.03 C7.89,7.07,9.2,5.11,9.7,4.43c0.06-0.08,0.1-0.18,0.1-0.29l0.04-2h1.18l0.04,2c0,0.1,0.04,0.2,0.1,0.29c0.5,0.67,1.81,2.64,1.84,3.6 l0.43,12.74C12.9,20.91,11.79,21.15,10.44,21.15z"/></svg>