<svg
	xmlns="http://www.w3.org/2000/svg"
	viewBox="0 0 24 24"
	height="24px"
	width="24px">
	<path d="M17.1,3.6c-0.9,0-1.8,0.1-2.5,0.3c0,0,0,0,0,0C13.8,4.1,13,4.2,12,4.2c-0.9,0-1.7-0.1-2.5-0.3c0,0,0,0-0.1,0 C8.8,3.7,7.9,3.6,7,3.6c-2.7,0-4.8,0.9-4.8,2v12.9c0,1.1,2.2,2,4.8,2c0.8,0,1.5-0.1,2.1-0.2c0.1,0,0.1,0,0.2,0 c0.8-0.2,1.7-0.3,2.7-0.3c1,0,1.9,0.1,2.6,0.3c0.1,0,0.2,0,0.2,0c0.7,0.1,1.4,0.2,2.2,0.2c2.7,0,4.8-0.9,4.8-2V5.6 C21.9,4.5,19.8,3.6,17.1,3.6z M17.1,18.9c-0.7,0-1.5-0.1-2.1-0.2c0,0,0,0-0.1,0c0,0-0.1,0-0.1,0C14,18.5,13,18.3,12,18.3 c-1,0-2,0.1-2.8,0.4c-0.1,0-0.1,0-0.1,0c0,0,0,0-0.1,0c-0.6,0.1-1.3,0.2-2,0.2c-1.9,0-3.4-0.5-4-1c0.6-0.5,2.1-1,4-1 c0.8,0,1.6,0.1,2.3,0.3c0,0,0,0,0.1,0c0,0,0.1,0,0.1,0c0.8,0.2,1.7,0.3,2.6,0.3c0.9,0,1.8-0.1,2.6-0.3c0,0,0.1,0,0.1,0 c0,0,0.1,0,0.1,0c0.7-0.2,1.4-0.2,2.2-0.2c1.9,0,3.4,0.5,4,1C20.5,18.5,19,18.9,17.1,18.9z"/>
</svg>
