<svg viewBox="0 0 24 24" fill="#44739e" xmlns="http://www.w3.org/2000/svg"><title>hue:pillar-tuar</title><desc>Source: https://github.com/arallsopp/hass-hue-icons</desc><path d="M17.54,2.29c0-0.1-0.04-0.2-0.1-0.27c-0.25-0.49-1.1-0.73-1.77-0.87c-1.21-0.23-2.45-0.34-3.68-0.32 C10.75,0.81,9.52,0.92,8.3,1.15C7.51,1.32,6.46,1.62,6.46,2.32v6.75c0,0.7,1.05,1.01,1.84,1.17c0.12,0.03,0.25,0.05,0.39,0.07v12.26 l0.26,0.12c1,0.41,2.08,0.64,3.16,0.66c1.06-0.02,2.1-0.24,3.07-0.67l0.25-0.12V10.29c0.08-0.01,0.15-0.03,0.22-0.04 c0.69-0.15,1.59-0.4,1.8-0.93c0.04-0.06,0.06-0.14,0.06-0.21L17.54,2.29z M16.62,4.43c-0.01,0.03-0.02,0.05-0.02,0.08 c-0.43,0.25-0.9,0.4-1.4,0.45c-1.06,0.17-2.14,0.26-3.21,0.25c-1.08,0.01-2.15-0.07-3.21-0.25c-0.49-0.05-0.97-0.2-1.39-0.45V3.24 c0.3,0.11,0.61,0.19,0.92,0.26c1.21,0.23,2.45,0.34,3.68,0.32c1.23,0.01,2.47-0.09,3.68-0.32c0.32-0.06,0.64-0.15,0.95-0.27 L16.62,4.43z M7.38,5.49C7.68,5.6,7.99,5.68,8.3,5.75c1.21,0.23,2.45,0.34,3.68,0.32c1.23,0.01,2.47-0.09,3.68-0.32 c0.32-0.06,0.64-0.15,0.95-0.27l0,1.22c-0.01,0.02-0.01,0.04-0.02,0.07c-0.43,0.25-0.9,0.4-1.4,0.45c-1.06,0.17-2.14,0.26-3.21,0.25 c-1.08,0.01-2.15-0.07-3.21-0.25c-0.49-0.05-0.97-0.2-1.39-0.45V5.49z M8.77,1.93c1.06-0.17,2.14-0.26,3.21-0.25 c1.08-0.01,2.15,0.07,3.21,0.25c0.45,0.06,0.9,0.19,1.31,0.39c-0.41,0.2-0.86,0.33-1.31,0.39c-1.06,0.17-2.14,0.26-3.21,0.25 c-1.08,0.01-2.15-0.07-3.21-0.25c-0.45-0.06-0.9-0.19-1.31-0.39C7.88,2.13,8.32,1.99,8.77,1.93z M15.2,9.46 c-1.06,0.17-2.14,0.26-3.21,0.25c-1.08,0.01-2.15-0.07-3.21-0.25c-0.49-0.05-0.97-0.2-1.39-0.45V7.74C7.68,7.85,7.99,7.93,8.3,8 c1.21,0.23,2.45,0.34,3.68,0.32c1.23,0.01,2.47-0.09,3.68-0.32c0.32-0.06,0.64-0.15,0.94-0.26l0,1.23c0,0.02-0.01,0.03-0.01,0.05 C16.17,9.26,15.69,9.42,15.2,9.46z"/></svg>