<svg viewBox="0 0 24 24" fill="#44739e" xmlns="http://www.w3.org/2000/svg"><title>hue:play-bar-off</title><desc>Source: https://github.com/arallsopp/hass-hue-icons</desc><path d="M1.49,3.24L4,5.74c-0.06,0-0.11-0.01-0.17-0.01c-0.51,0-1.25,0.05-1.84,0.27c-1.04,0.4-1.25,1-1.27,1.35 l-0.01,0l-0.01,4.27l0,0c0.02,0.34,0.21,0.89,1.1,1.27l15.87,6.53l2.91,2.91l1.38-1.38L2.88,1.86L1.49,3.24z M2.16,7.97 c0,0-1.34-0.6,0.12-1.13C3.22,6.5,4.07,6.49,4.91,6.65l4.17,4.17C5.5,9.35,2.16,7.97,2.16,7.97z M23.24,13.83c-0.01-0.36-0.2-1.01-1.27-1.45L10.24,7.67l1.59,1.59c4.14,1.66,9.52,3.82,9.52,3.82 s1.98,0.63,0.39,1.42c-1.6,0.79-3.17,0.2-4.22-0.21c-0.12-0.05-0.52-0.21-1.11-0.45l5.61,5.61c0.02-0.01,0.05-0.02,0.07-0.03 c1.02-0.45,1.16-1.1,1.16-1.45L23.24,13.83L23.24,13.83z"/></svg>