<svg viewBox="0 0 24 24" height="24px" width="24px" xmlns="http://www.w3.org/2000/svg"><title>hue:play-bar-v-two-out</title><desc>Source: https://github.com/arallsopp/hass-hue-icons</desc><path d="M21,19.23c0.1-0.2,0.2-0.4,0.3-0.6c0.4-0.9,0.6-1.9,0.6-2.6L22,3.43c0-1.2-0.5-1.6-0.9-1.7l0,0l-3.8-1.2 c-0.3-0.1-1-0.2-1.8,0.5c-0.5,0.4-0.9,1-1.2,1.8c-0.3,0.8-0.5,1.5-0.5,2.2v12.8c0,1,0.5,1.3,0.8,1.5c-1,0.4-1.7,1-1.7,1.6v0.6 c0,1.2,2.3,2.2,5,2.2c2.8,0,5-1,5-2.2v-0.6C22.9,20.23,22.2,19.63,21,19.23z M18.5,6.73c0-1.1,0-2.8,1.4-4s1.2,0.9,1.2,0.9 s-0.2,10.1-0.2,11.2c0,1.8,0,3.4-1.3,4.8c-1,1.2-1.1-0.3-1.1-0.3S18.5,7.73,18.5,6.73z M0.9,20.93v0.6c0,1.2,2.2,2.2,5,2.2c2.7,0,5-1,5-2.2v-0.6c0-0.6-0.7-1.2-1.7-1.6c0.3-0.2,0.8-0.5,0.8-1.5V5.03 c0-0.7-0.2-1.4-0.5-2.2c-0.3-0.8-0.7-1.4-1.2-1.8c-0.8-0.7-1.5-0.6-1.8-0.5l-3.8,1.2l0,0c-0.4,0.1-0.9,0.5-0.9,1.7l0.1,12.6 c0,0.7,0.2,1.7,0.6,2.6c0.1,0.2,0.2,0.4,0.3,0.6C1.6,19.63,0.9,20.23,0.9,20.93z M5.3,19.33c0,0-0.1,1.5-1.1,0.3 c-1.3-1.4-1.3-3-1.3-4.8c0-1.1-0.2-11.2-0.2-11.2s-0.2-2.1,1.2-0.9s1.4,2.9,1.4,4C5.3,7.73,5.3,19.33,5.3,19.33z"/></svg>