<svg viewBox="0 0 24 24" height="24px" width="24px" xmlns="http://www.w3.org/2000/svg"><title>hue:play-bar-v-two-in</title><desc>Source: https://github.com/arallsopp/hass-hue-icons</desc><path d="M9.1,19.14c0.1-0.2,0.2-0.4,0.3-0.6c0.4-0.9,0.6-1.9,0.6-2.6l0.1-12.6c0-1.2-0.5-1.6-0.9-1.7l0,0l-3.8-1.2 c-0.3-0.1-1-0.2-1.8,0.5c-0.5,0.4-0.9,1-1.2,1.8c-0.3,0.8-0.5,1.5-0.5,2.2v12.8c0,1,0.5,1.3,0.8,1.5c-1,0.4-1.7,1-1.7,1.6v0.6 c0,1.2,2.3,2.2,5,2.2c2.8,0,5-1,5-2.2v-0.6C11,20.14,10.3,19.54,9.1,19.14z M6.6,6.64c0-1.1,0-2.8,1.4-4s1.2,0.9,1.2,0.9 S9,13.64,9,14.74c0,1.8,0,3.4-1.3,4.8c-1,1.2-1.1-0.3-1.1-0.3S6.6,7.64,6.6,6.64z M13,20.84v0.6c0,1.2,2.2,2.2,5,2.2c2.7,0,5-1,5-2.2v-0.6c0-0.6-0.7-1.2-1.7-1.6c0.3-0.2,0.8-0.5,0.8-1.5V4.94 c0-0.7-0.2-1.4-0.5-2.2s-0.7-1.4-1.2-1.8c-0.8-0.7-1.5-0.6-1.8-0.5l-3.8,1.2l0,0c-0.4,0.1-0.9,0.5-0.9,1.7l0.1,12.6 c0,0.7,0.2,1.7,0.6,2.6c0.1,0.2,0.2,0.4,0.3,0.6C13.7,19.54,13,20.14,13,20.84z M17.4,19.24c0,0-0.1,1.5-1.1,0.3 c-1.3-1.4-1.3-3-1.3-4.8c0-1.1-0.2-11.2-0.2-11.2s-0.2-2.1,1.2-0.9s1.4,2.9,1.4,4C17.4,7.64,17.4,19.24,17.4,19.24z"/></svg>