<svg viewBox="0 0 24 24" fill="#44739e" xmlns="http://www.w3.org/2000/svg"><title>hue:plug-group</title><desc>Source: https://github.com/arallsopp/hass-hue-icons</desc><path d="M8.99,3.62c0-0.34-0.27-0.61-0.61-0.61S7.77,3.28,7.77,3.62c0,0,0,0,0,0v1.49h1.22V3.62z M7.31,8.75C6.39,8.66,5.67,7.88,5.66,6.94c0-0.31,0.08-0.61,0.23-0.87H5.1V3.62c0-0.34-0.27-0.61-0.61-0.61 S3.87,3.28,3.87,3.62c0,0,0,0,0,0v2.45H1.42c-0.34,0-0.61,0.28-0.61,0.61c0,0.34,0.27,0.61,0.61,0.61h0.61v2.45 c0,2.23,1.51,4.18,3.67,4.74v2c0,0.68,0.55,1.22,1.22,1.22s1.22-0.55,1.22-1.22c0,0,0,0,0,0v-1.95c-0.54-1.05-0.85-2.23-0.85-3.46 V8.75z M22.35,6.11C22.35,6.11,22.34,6.11,22.35,6.11h-3.31v-3.3c0-0.46-0.37-0.83-0.82-0.83 c-0.46,0-0.83,0.37-0.83,0.82c0,0,0,0,0,0.01v3.3h-4.95v-3.3c0-0.46-0.37-0.83-0.82-0.83s-0.83,0.37-0.83,0.82c0,0,0,0,0,0.01v3.3 h-3.3c-0.46,0-0.82,0.37-0.82,0.83c0,0.45,0.37,0.82,0.82,0.82h0.83v3.3c0,3.01,2.04,5.64,4.95,6.39v2.69 c0,0.91,0.74,1.65,1.65,1.65c0.91,0,1.65-0.74,1.65-1.65c0,0,0,0,0,0v-2.69c2.91-0.75,4.95-3.38,4.95-6.39v-3.3h0.83 c0.46,0,0.83-0.37,0.83-0.82S22.8,6.11,22.35,6.11z"/></svg>