<svg viewBox="0 0 24 24" fill="#44739e" xmlns="http://www.w3.org/2000/svg"><title>hue:plug-uk</title><desc>Source: https://github.com/arallsopp/hass-hue-icons</desc><path d="M15.22,15.11c-0.05,0-0.11,0.01-0.16,0.02l-1.18,0.38c-0.21,0.07-0.35,0.26-0.35,0.48v1.22 c0,0.28,0.22,0.5,0.5,0.5c0.06,0,0.11-0.01,0.17-0.03l1.18-0.42c0.2-0.07,0.33-0.26,0.33-0.47v-1.18 C15.72,15.33,15.49,15.11,15.22,15.11z M16.98,8.08c-0.04,0-0.08,0-0.11,0.01l-0.72,0.17c-0.23,0.05-0.39,0.25-0.39,0.49v2.19 c0,0.28,0.22,0.5,0.5,0.5c0.06,0,0.11-0.01,0.17-0.03l0.72-0.25c0.2-0.07,0.33-0.26,0.33-0.47V8.58 C17.48,8.31,17.25,8.08,16.98,8.08z M19.44,13.74c-0.05,0-0.11,0.01-0.16,0.02l-1.18,0.38c-0.21,0.07-0.35,0.26-0.35,0.48v1.22 c0,0.16,0.08,0.32,0.21,0.41c0.08,0.06,0.19,0.09,0.29,0.09c0.06,0,0.11-0.01,0.17-0.03l1.18-0.42c0.2-0.07,0.33-0.26,0.33-0.47 v-1.18C19.94,13.96,19.72,13.74,19.44,13.74z M21.38,3.97c-0.18-0.13-2.69-0.67-2.91-0.69l-4.33-1c-0.74-0.24-1.54-0.24-2.29-0.01 C10.78,2.61,5.6,4.21,5.57,4.22C4.99,4.48,4.65,4.83,4.31,5.37C4.24,5.5,4.17,5.64,4.11,5.79C4.08,5.78,4.04,5.77,4,5.77H3.7 c-0.12,0-0.24,0.04-0.33,0.13L3.17,6.08C3.06,6.17,3,6.31,3,6.45v1.49c0,0.07,0.02,0.15,0.05,0.21l0.16,0.34 C3.26,8.62,3.37,8.71,3.5,8.76l0.29,0.1c0,0.96,0,2.13,0,3.34l0,0.35l-0.1-0.02c-0.09-0.02-0.18-0.01-0.27,0.02l-1.26,0.43 c-0.2,0.07-0.34,0.26-0.34,0.47v0.51c0,0.09,0.02,0.18,0.07,0.25l0.23,0.39c0.07,0.12,0.18,0.2,0.31,0.23l1.34,0.33 c-0.01,1.62-0.03,2.67-0.03,2.93c0,0-0.04,0.84,0.35,1.37c0.39,0.53,0.82,0.71,1.45,0.9c1.73,0.34,6.72,1.59,6.72,1.59l0.66,0.01 c0.44-0.01,0.87-0.09,1.28-0.24c2.59-0.88,6.09-2.18,6.1-2.19c0.07-0.02,1.7-0.56,1.7-3.09V6.17C21.93,5,22.24,4.58,21.38,3.97z M21,6.16v10.28c0,1.76-0.96,2.12-1.02,2.14c-0.04,0.01-3.52,1.31-6.09,2.19c-0.7,0.24-1.21,0.25-1.47,0.05 c-0.28-0.23-0.24-0.74-0.24-0.8c0-0.4,0.09-9.76,0-11.53c-0.08-0.75,0.36-1.47,1.07-1.73l7.03-2.06c0.26-0.07,0.39,0.04,0.39,0.04 C21.06,5,21,5.71,21,6.16z"/></svg>