<svg viewBox="0 0 24 24" fill="#44739e" xmlns="http://www.w3.org/2000/svg"><title>hue:plug-eu-alt</title><desc>Source: https://github.com/arallsopp/hass-hue-icons</desc><path d="M21.9,6.66c0.04-0.46-0.12-0.92-0.45-1.25c-0.12-0.1-0.25-0.17-0.4-0.22l0-0.01l-7.21-2.84 c-0.51-0.19-1.07-0.2-1.59-0.04c-1,0.19-7.46,1.56-7.46,1.56C3.93,4.01,3.28,4.74,3.23,5.62v0.39L2.59,7.04v1.4L2.2,8.69v1.52 l0.37,0.2l0.02,1.15l0.58,0.78l0.05,3.16c-0.02,0.73,0.41,1.4,1.08,1.69c0.73,0.27,7.55,3.2,7.62,3.23l0.02-0.04 c0.17,0.05,0.35,0.08,0.53,0.08c0.2,0,0.41-0.02,0.61-0.07c1.65-0.35,7.19-2.02,7.51-2.13c0.82-0.5,1.31-1.38,1.31-2.34 C21.95,14.54,21.91,6.94,21.9,6.66z M20.8,6.16c0.09,0.14,0.13,0.3,0.11,0.46c0,0.03,0.01,1.29,0.01,2.88 c-0.22-0.67-0.62-1.27-1.16-1.73c-0.86-0.65-1.94-0.92-3-0.77l3.72-0.86C20.58,6.11,20.7,6.11,20.8,6.16L20.8,6.16z M19.98,9.85 l-0.46,0.13l-2.06-0.84V7.98c0.6,0,1.18,0.2,1.66,0.56C19.52,8.89,19.82,9.34,19.98,9.85L19.98,9.85z M10.83,9.13v9.73 c-2.08-0.89-5.64-2.41-6.18-2.61c-0.41-0.15-0.42-0.75-0.42-0.76l-0.06-3.5l-0.58-0.78L3.56,9.8L3.2,9.61V9.24l0.39-0.25V7.33 L4.23,6.3V5.62c0-0.6,0.69-0.77,0.77-0.79l7.44-1.56c0.24-0.05,0.48-0.08,0.72-0.08c0.13,0,0.19,0.01,0.18,0l5.69,2.25l-6.62,1.53 C11.46,7.26,10.82,8.14,10.83,9.13L10.83,9.13z M11.83,12.51V9.13c-0.02-0.54,0.32-1.02,0.83-1.19l3-0.69 C13.63,8.31,12.22,10.26,11.83,12.51L11.83,12.51z M15.44,11.13c-0.24,0.5-0.62,0.5-0.78,0.42c-0.16-0.07-0.33-0.26-0.3-0.71 c0.03-0.45,0.6-0.75,0.6-0.75C15.52,9.96,15.69,10.63,15.44,11.13L15.44,11.13z M12.88,19.41c-0.28,0.09-0.58,0.06-0.84-0.07 c-0.12-0.11-0.19-0.27-0.2-0.44v-4.27c0.11,0.54,0.3,1.06,0.59,1.53c0.76,1.32,2.1,2.21,3.61,2.41 C14.74,18.94,13.5,19.28,12.88,19.41z M17.27,17.11l-0.93-0.42l0.14-0.48c0.07-0.24-0.05-0.5-0.29-0.59c0.73-0.6,1.18-1.46,1.27-2.4 v-1.02l1.94,0.83l0.82-0.23c-0.18,1.29-0.77,3.53-2.75,4.48C17.42,17.2,17.35,17.14,17.27,17.11z M20.9,15.89 c0,0.56-0.25,1.1-0.69,1.45h0c-0.05,0.01-0.79,0.24-1.78,0.53c1.23-0.85,2.11-2.11,2.49-3.56C20.92,15.03,20.91,15.61,20.9,15.89z"/></svg>