<svg viewBox="0 0 24 24" fill="#44739e" xmlns="http://www.w3.org/2000/svg"><title>hue:plug-us</title><desc>Source: https://github.com/arallsopp/hass-hue-icons</desc><path d="M19.26,8.68l-4.97,1.55c-0.09,0.03-0.18,0.11-0.24,0.23c-0.56,1.13-0.91,2.39-1,3.63c0.09,1.18,0.43,2.21,0.99,2.98 c0.06,0.08,0.15,0.11,0.24,0.07l4.99-1.69c0.09-0.03,0.18-0.12,0.24-0.24c0.5-1.1,0.81-2.31,0.88-3.48 c-0.09-1.13-0.4-2.15-0.9-2.94C19.45,8.69,19.36,8.66,19.26,8.68z M19.13,14.7l-4.68,1.57c-0.43-0.62-0.7-1.45-0.77-2.38 c0.07-0.98,0.34-1.98,0.77-2.89l4.65-1.46c0.39,0.65,0.64,1.47,0.71,2.38C19.76,12.85,19.52,13.81,19.13,14.7z M21.38,3.97c-0.18-0.13-2.69-0.67-2.91-0.69l-4.33-1c-0.74-0.24-1.54-0.24-2.29-0.01C10.78,2.61,5.6,4.21,5.57,4.22 C4.99,4.48,4.65,4.83,4.31,5.37C3.9,6.03,3.81,7.19,3.79,7.9L2.85,7.68c-0.15-0.03-0.3,0-0.42,0.1c-0.12,0.1-0.19,0.24-0.19,0.39 v0.72c0,0.23,0.16,0.43,0.38,0.49l1.17,0.28c0,0.78,0,1.65,0,2.54L3.79,14.8c-0.01,1.83-0.03,3.01-0.04,3.29 c-0.06,0.46,0.03,0.93,0.26,1.34c0.36,0.51,0.91,0.85,1.53,0.93c1.73,0.34,6.72,1.59,6.72,1.59l0.66,0.01 c0.44-0.01,0.87-0.09,1.28-0.24c2.59-0.88,6.09-2.18,6.1-2.19c0.07-0.02,1.7-0.56,1.7-3.09V6.17C21.93,5,22.24,4.58,21.38,3.97z M21,6.16v10.28c0,1.76-0.96,2.12-1.02,2.14c-0.04,0.01-3.52,1.31-6.09,2.19c-0.7,0.24-1.21,0.25-1.47,0.05 c-0.28-0.23-0.24-0.74-0.24-0.8c0-0.4,0.09-9.76,0-11.53c-0.08-0.75,0.36-1.47,1.07-1.73l7.03-2.06c0.26-0.07,0.39,0.04,0.39,0.04 C21.06,5,21,5.71,21,6.16z M17.5,12.59c-0.18-0.18-0.43-0.23-0.68-0.13c-0.46,0.08-0.87,0.66-0.91,1.29c0,0.03,0,0.05,0,0.08l0,1.32l1.78-0.59l0-1.31 C17.7,12.98,17.63,12.74,17.5,12.59z M17.09,13.95l-0.58,0.19l0-0.5c0-0.12,0.06-0.29,0.31-0.37c0.08-0.04,0.17-0.04,0.24,0 c0.02,0.03,0.03,0.08,0.03,0.13L17.09,13.95z M15.93,12.79l-0.61,0.2l0-1.46l0.61-0.19L15.93,12.79z M17.63,12.24l0.6-0.19l0-1.44l-0.6,0.19L17.63,12.24z"/></svg>