<svg viewBox="0 0 24 24" fill="#44739e" xmlns="http://www.w3.org/2000/svg"><title>hue:plug-eu-group-off</title><desc>Source: https://github.com/arallsopp/hass-hue-icons</desc><path d="M6.15,3.59l0.41-0.13c0.67-0.21,2.01-0.62,3.25-1.01L8.29,2.1c-0.52-0.16-1.08-0.16-1.6,0 C6.43,2.18,5.82,2.37,5.14,2.58L6.15,3.59z M17.71,8.38c-1.29,0.41-2.4,2-2.87,3.9l0.53,0.53c0.3-1.5,1.1-2.81,2.07-3.29v0.66 l0.64-0.21V9.32c1.19-0.1,2.11,1.2,2.11,3.14c0,1.49-0.54,2.94-1.33,3.84l0.52,0.52c0.87-1.15,1.45-2.84,1.45-4.57 C20.83,9.56,19.43,7.83,17.71,8.38z M21.97,20.95L2.88,1.86L1.5,3.24l0.44,0.44c-0.2,0.15-0.36,0.34-0.51,0.58 C0.99,4.95,1.06,6.45,1.06,6.45c0,0.31,0,0.66,0,1.05C1.01,7.48,0.96,7.46,0.9,7.46c-0.28,0-0.34,0.24-0.34,0.52s0.06,0.5,0.34,0.5 l0.16,0.04c0,0.17,0,0.34,0,0.52v1.81c-0.01,1.28-0.02,2.1-0.03,2.3c-0.04,0.32,0.02,0.65,0.18,0.94c0.25,0.36,0.64,0.59,1.07,0.65 c0.32,0.06,0.82,0.17,1.36,0.3v-2.49c-0.36-0.21-0.71-0.64-0.71-1.5c0-0.88,0.35-1.32,0.71-1.54V8.84C3.62,8.53,3.58,6.97,4.03,5.77 l0.8,0.8C4.58,7.6,4.64,8.84,4.64,8.84c0,0.44,0,0.95,0,1.5c-0.07-0.03-0.14-0.05-0.23-0.05c-0.4,0-0.48,0.35-0.48,0.75 s0.08,0.71,0.48,0.71l0.23,0.06c0,0.25,0,0.49,0,0.74v2.59c-0.01,1.83-0.03,3.01-0.04,3.29c-0.06,0.46,0.03,0.93,0.26,1.34 c0.36,0.51,0.91,0.85,1.53,0.93c1.73,0.34,6.72,1.59,6.72,1.59l0.66,0.01c0.44-0.01,0.87-0.09,1.28-0.24 c1.25-0.43,2.71-0.95,3.89-1.37l1.65,1.65L21.97,20.95z M14.74,21.11c-0.7,0.24-1.21,0.25-1.47,0.05c-0.28-0.23-0.24-0.74-0.24-0.8 c0-0.21,0.02-2.83,0.03-5.55l5.09,5.09C17.07,20.29,15.82,20.73,14.74,21.11z M17.71,18.13c0.05-0.02,0.09-0.05,0.14-0.07 l-0.87-0.87c-0.65-0.1-1.17-0.65-1.48-1.48l-0.88-0.88C14.81,17.18,16.12,18.64,17.71,18.13z M22.23,4.31 c-0.18-0.13-2.69-0.67-2.91-0.69l-4.33-1c-0.74-0.24-1.54-0.24-2.29-0.01c-0.87,0.27-4.4,1.36-5.75,1.78l6.11,6.11 c-0.01-0.75-0.02-1.34-0.03-1.67c-0.08-0.75,0.36-1.47,1.07-1.73l7.03-2.06c0.26-0.07,0.39,0.04,0.39,0.04 c0.39,0.26,0.33,0.97,0.33,1.42v10.28c0,1.05-0.34,1.6-0.63,1.88l0.7,0.7c0.45-0.44,0.93-1.21,0.93-2.58V6.51 C22.78,5.34,23.09,4.92,22.23,4.31z M18.98,13.83c0.34-0.11,0.62-0.64,0.62-1.17s-0.28-0.88-0.62-0.77s-0.62,0.64-0.62,1.17 C18.36,13.6,18.64,13.94,18.98,13.83z M16.62,12.65c-0.28-0.06-0.58,0.24-0.72,0.69l0.91,0.91c0.09-0.14,0.17-0.3,0.2-0.5 C17.12,13.21,16.94,12.72,16.62,12.65z"/></svg>