<svg viewBox="0 0 24 24" fill="#44739e" xmlns="http://www.w3.org/2000/svg"><title>hue:plug-uk-off</title><desc>Source: https://github.com/arallsopp/hass-hue-icons</desc><path d="M1.5,3.24l2.53,2.53C4.02,5.77,4.01,5.77,4,5.77H3.7c-0.12,0-0.24,0.04-0.33,0.13l-0.2,0.18 C3.06,6.17,3,6.31,3,6.45v1.49c0,0.07,0.02,0.15,0.05,0.21l0.16,0.34C3.26,8.62,3.37,8.71,3.5,8.76l0.29,0.1c0,0.96,0,2.13,0,3.34 v0.35l-0.1-0.02c-0.09-0.02-0.18-0.01-0.27,0.02l-1.26,0.43c-0.2,0.07-0.34,0.26-0.34,0.47v0.51c0,0.09,0.02,0.18,0.07,0.25 l0.23,0.39c0.07,0.12,0.18,0.2,0.31,0.23l1.34,0.33c-0.01,1.62-0.03,2.67-0.03,2.93c0,0-0.04,0.84,0.35,1.37 c0.39,0.53,0.82,0.71,1.45,0.9c1.73,0.34,6.72,1.59,6.72,1.59l0.66,0.01c0.44-0.01,0.87-0.09,1.28-0.24 c1.39-0.47,3.03-1.06,4.26-1.51l2.12,2.12l1.38-1.38L2.88,1.86L1.5,3.24z M13.89,20.77c-0.7,0.24-1.21,0.25-1.47,0.05 c-0.28-0.23-0.24-0.74-0.24-0.8c0-0.22,0.03-3.16,0.04-6.06l1.6,1.6c-0.16,0.09-0.28,0.24-0.28,0.43v1.22c0,0.28,0.22,0.5,0.5,0.5 c0.06,0,0.11-0.01,0.17-0.03l1.18-0.42c0.03-0.01,0.05-0.04,0.08-0.06l2.22,2.22C16.52,19.85,15.1,20.35,13.89,20.77z M16.43,11.41l0.72-0.25c0.2-0.07,0.33-0.26,0.33-0.47V8.58c0-0.27-0.23-0.5-0.5-0.5c-0.04,0-0.08,0-0.11,0.01 l-0.72,0.17c-0.23,0.05-0.39,0.25-0.39,0.49v2.19c0,0.28,0.22,0.5,0.5,0.5C16.32,11.44,16.37,11.43,16.43,11.41z M21.38,3.97c-0.18-0.13-2.69-0.67-2.91-0.69l-4.33-1c-0.74-0.24-1.54-0.24-2.29-0.01 c-0.79,0.25-3.81,1.19-5.36,1.66l5.71,5.71c-0.01-0.5-0.02-0.91-0.03-1.16c-0.08-0.75,0.36-1.47,1.07-1.73l7.03-2.06 c0.26-0.07,0.39,0.04,0.39,0.04C21.06,5,21,5.71,21,6.16v10.28c0,0.78-0.19,1.27-0.4,1.6l0.71,0.71c0.36-0.47,0.69-1.18,0.69-2.31 V6.17C21.93,5,22.24,4.58,21.38,3.97z M19.93,15.42v-1.18c0.01-0.28-0.21-0.5-0.49-0.5c-0.05,0-0.11,0.01-0.16,0.02l-1.18,0.38 c-0.21,0.07-0.35,0.26-0.35,0.48v0.57l1,1l0.85-0.3C19.8,15.82,19.93,15.63,19.93,15.42z"/></svg>