<svg viewBox="0 0 24 24" fill="#44739e" xmlns="http://www.w3.org/2000/svg"><title>hue:plug-eu</title><desc>Source: https://github.com/arallsopp/hass-hue-icons</desc><path d="M16.86,8.04c-1.72,0.55-3.12,3.19-3.12,5.88s1.4,4.43,3.12,3.87c1.72-0.55,3.12-3.19,3.12-5.88 S18.58,7.49,16.86,8.04z M17.23,16.62v-0.64l-0.64,0.21v0.66c-1.24,0.19-2.21-1.13-2.21-3.12c0-2,0.97-3.94,2.21-4.55v0.66 l0.64-0.21V8.98c1.19-0.1,2.11,1.2,2.11,3.14S18.42,15.95,17.23,16.62z M18.13,11.55c-0.34,0.11-0.62,0.64-0.62,1.17c0,0.54,0.28,0.88,0.62,0.77c0.34-0.11,0.62-0.64,0.62-1.17 S18.47,11.44,18.13,11.55z M14.99,13.17c0.11-0.54,0.46-0.93,0.78-0.86s0.5,0.56,0.39,1.1c-0.11,0.54-0.46,0.93-0.78,0.86 C15.06,14.2,14.88,13.71,14.99,13.17z M21.38,3.97c-0.18-0.13-2.69-0.67-2.91-0.69l-4.33-1c-0.74-0.24-1.54-0.24-2.29-0.01 C10.78,2.61,5.6,4.21,5.57,4.22C4.99,4.48,4.65,4.83,4.31,5.37C3.69,6.36,3.79,8.5,3.79,8.5c0,0.44,0,0.95,0,1.5 C3.72,9.97,3.65,9.95,3.56,9.95c-0.4,0-0.48,0.35-0.48,0.75s0.08,0.71,0.48,0.71l0.23,0.06c0,0.25,0,0.49,0,0.74v2.59 c-0.01,1.83-0.03,3.01-0.04,3.29c-0.06,0.46,0.03,0.93,0.26,1.34c0.36,0.51,0.91,0.85,1.53,0.93c1.73,0.34,6.72,1.59,6.72,1.59 l0.66,0.01c0.44-0.01,0.87-0.09,1.28-0.24c2.59-0.88,6.09-2.18,6.1-2.19c0.07-0.02,1.7-0.56,1.7-3.09V6.17 C21.93,5,22.24,4.58,21.38,3.97z M21,6.16v10.28c0,1.76-0.96,2.12-1.02,2.14c-0.04,0.01-3.52,1.31-6.09,2.19 c-0.7,0.24-1.21,0.25-1.47,0.05c-0.28-0.23-0.24-0.74-0.24-0.8c0-0.4,0.09-9.76,0-11.53c-0.08-0.75,0.36-1.47,1.07-1.73l7.03-2.06 c0.26-0.07,0.39,0.04,0.39,0.04C21.06,5,21,5.71,21,6.16z"/></svg>