<svg viewBox="0 0 24 24" fill="#44739e" xmlns="http://www.w3.org/2000/svg"><title>hue:plug-eu-group</title><desc>Source: https://github.com/arallsopp/hass-hue-icons</desc><path d="M3.64,12.54c-0.36-0.21-0.71-0.64-0.71-1.5c0-0.88,0.35-1.32,0.71-1.54V8.84C3.62,8.47,3.56,6.37,4.31,5.17 c0.47-0.75,0.98-1.21,1.7-1.53l0.1-0.04l0.46-0.14c0.67-0.21,2.01-0.62,3.25-1.01L8.29,2.1c-0.52-0.16-1.08-0.16-1.6,0 C5.94,2.33,2.32,3.45,2.3,3.46c-0.4,0.18-0.64,0.43-0.88,0.8C0.99,4.95,1.06,6.45,1.06,6.45c0,0.31,0,0.66,0,1.05 C1.01,7.48,0.96,7.46,0.9,7.46c-0.28,0-0.34,0.24-0.34,0.52s0.06,0.5,0.34,0.5l0.16,0.04c0,0.17,0,0.34,0,0.52v1.81 c-0.01,1.28-0.02,2.1-0.03,2.3c-0.04,0.32,0.02,0.65,0.18,0.94c0.25,0.36,0.64,0.59,1.07,0.65c0.32,0.06,0.82,0.17,1.36,0.3 C3.64,15.04,3.64,12.54,3.64,12.54z M17.71,8.38c-1.72,0.55-3.12,3.19-3.12,5.88s1.4,4.43,3.12,3.87c1.72-0.55,3.12-3.19,3.12-5.88 S19.43,7.83,17.71,8.38z M18.08,16.96v-0.64l-0.64,0.21v0.66c-1.24,0.19-2.21-1.13-2.21-3.12c0-2,0.97-3.94,2.21-4.55v0.66 l0.64-0.21V9.32c1.19-0.1,2.11,1.2,2.11,3.14S19.27,16.29,18.08,16.96z M18.98,11.89c-0.34,0.11-0.62,0.64-0.62,1.17 c0,0.54,0.28,0.88,0.62,0.77c0.34-0.11,0.62-0.64,0.62-1.17S19.32,11.78,18.98,11.89z M15.84,13.51c0.11-0.54,0.46-0.93,0.78-0.86 s0.5,0.56,0.39,1.1s-0.46,0.93-0.78,0.86S15.73,14.05,15.84,13.51z M22.23,4.31c-0.18-0.13-2.69-0.67-2.91-0.69l-4.33-1 c-0.74-0.24-1.54-0.24-2.29-0.01c-1.07,0.34-6.25,1.94-6.28,1.95C5.84,4.82,5.5,5.17,5.16,5.71C4.54,6.7,4.64,8.84,4.64,8.84 c0,0.44,0,0.95,0,1.5c-0.07-0.03-0.14-0.05-0.23-0.05c-0.4,0-0.48,0.35-0.48,0.75s0.08,0.71,0.48,0.71l0.23,0.06 c0,0.25,0,0.49,0,0.74v2.59c-0.01,1.83-0.03,3.01-0.04,3.29c-0.06,0.46,0.03,0.93,0.26,1.34c0.36,0.51,0.91,0.85,1.53,0.93 c1.73,0.34,6.72,1.59,6.72,1.59l0.66,0.01c0.44-0.01,0.87-0.09,1.28-0.24c2.59-0.88,6.09-2.18,6.1-2.19c0.07-0.02,1.7-0.56,1.7-3.09 V6.51C22.78,5.34,23.09,4.92,22.23,4.31z M21.85,6.5v10.28c0,1.76-0.96,2.12-1.02,2.14c-0.04,0.01-3.52,1.31-6.09,2.19 c-0.7,0.24-1.21,0.25-1.47,0.05c-0.28-0.23-0.24-0.74-0.24-0.8c0-0.4,0.09-9.76,0-11.53c-0.08-0.75,0.36-1.47,1.07-1.73l7.03-2.06 c0.26-0.07,0.39,0.04,0.39,0.04C21.91,5.34,21.85,6.05,21.85,6.5z"/></svg>