<svg viewBox="0 0 24 24" fill="#44739e" xmlns="http://www.w3.org/2000/svg"><title>hue:plug-eu-off</title><desc>Source: https://github.com/arallsopp/hass-hue-icons</desc><path d="M18.13,13.49c0.34-0.11,0.62-0.64,0.62-1.17c0-0.53-0.28-0.88-0.62-0.77c-0.34,0.11-0.62,0.64-0.62,1.17 C17.51,13.26,17.79,13.6,18.13,13.49z M12.21,9.65c-0.01-0.5-0.02-0.91-0.03-1.16c-0.08-0.75,0.36-1.47,1.07-1.73l7.03-2.06 c0.26-0.07,0.39,0.04,0.39,0.04C21.06,5,21,5.71,21,6.16v10.28c0,0.78-0.19,1.27-0.4,1.6l0.71,0.71c0.36-0.47,0.69-1.18,0.69-2.31 V6.17c-0.07-1.17,0.24-1.59-0.62-2.2c-0.18-0.13-2.69-0.67-2.91-0.69l-4.33-1c-0.74-0.24-1.54-0.24-2.29-0.01 c-0.79,0.25-3.81,1.19-5.36,1.66L12.21,9.65z M21.97,20.95L2.88,1.86L1.5,3.24l2.6,2.6C3.72,6.91,3.79,8.5,3.79,8.5c0,0.44,0,0.95,0,1.5 C3.72,9.97,3.65,9.95,3.56,9.95c-0.4,0-0.48,0.35-0.48,0.75c0,0.4,0.08,0.71,0.48,0.71l0.23,0.06c0,0.25,0,0.49,0,0.74v2.59 c-0.01,1.83-0.03,3.01-0.04,3.29c-0.06,0.46,0.03,0.93,0.26,1.34c0.36,0.51,0.91,0.85,1.53,0.93c1.73,0.34,6.72,1.59,6.72,1.59 l0.66,0.01c0.44-0.01,0.87-0.09,1.28-0.24c1.39-0.47,3.03-1.06,4.26-1.51l2.12,2.12L21.97,20.95z M13.89,20.77 c-0.7,0.24-1.21,0.25-1.47,0.05c-0.28-0.23-0.24-0.74-0.24-0.8c0-0.22,0.03-3.16,0.04-6.06l1.77,1.77 c0.38,1.29,1.18,2.09,2.14,2.14l1.55,1.55C16.52,19.85,15.1,20.35,13.89,20.77z M15.77,12.31c-0.2-0.04-0.4,0.1-0.56,0.34l0.9,0.9c0.01-0.05,0.04-0.09,0.05-0.14 C16.27,12.87,16.09,12.38,15.77,12.31z M16.86,8.04c-1.2,0.38-2.23,1.79-2.75,3.51l0.5,0.5c0.36-1.32,1.09-2.44,1.98-2.87v0.66l0.64-0.21V8.98 c1.19-0.1,2.11,1.2,2.11,3.14c0,1.34-0.44,2.65-1.11,3.55l0.51,0.51c0.75-1.13,1.24-2.69,1.24-4.27 C19.98,9.22,18.58,7.49,16.86,8.04z"/></svg>