<svg viewBox="0 0 24 24" fill="#44739e" xmlns="http://www.w3.org/2000/svg"><title>hue:plug-uk-group-off</title><desc>Source: https://github.com/arallsopp/hass-hue-icons</desc><path d="M18.39,8.91c-0.04,0-0.08,0-0.11,0.01l-0.72,0.17c-0.23,0.05-0.39,0.25-0.39,0.49v2.19c0,0.28,0.22,0.5,0.5,0.5 c0.06,0,0.11-0.01,0.17-0.03l0.72-0.25c0.2-0.07,0.33-0.26,0.33-0.47V9.41C18.89,9.14,18.66,8.91,18.39,8.91z M20.85,14.57 c-0.05,0-0.11,0.01-0.16,0.02l-1.18,0.38c-0.21,0.07-0.35,0.26-0.35,0.48v1.22c0,0.16,0.08,0.32,0.21,0.41 c0.08,0.06,0.19,0.09,0.29,0.09c0.06,0,0.11-0.01,0.17-0.03l1.18-0.42c0.2-0.07,0.33-0.26,0.33-0.47v-1.18 C21.35,14.79,21.13,14.57,20.85,14.57z M6.67,4.1c0.01,0,0.23-0.07,0.58-0.18C8,3.69,9.37,3.27,10.61,2.88l-1.5-0.34 c-0.53-0.17-1.1-0.17-1.63-0.01C7.19,2.62,6.45,2.85,5.66,3.1L6.67,4.1L6.67,4.1z M1.5,3.24l1,1.01C2.36,4.38,2.24,4.54,2.11,4.74 c-0.05,0.09-0.1,0.19-0.14,0.3C1.95,5.03,1.92,5.02,1.89,5.02H1.68c-0.09,0-0.17,0.03-0.24,0.09L1.3,5.24 C1.22,5.31,1.18,5.41,1.18,5.51v1.06c0,0.05,0.01,0.11,0.04,0.15l0.11,0.24c0.04,0.09,0.11,0.16,0.21,0.19l0.21,0.07 c0,0.68,0,1.52,0,2.38v0.25L1.67,9.84C1.61,9.82,1.54,9.83,1.48,9.85l-0.9,0.31c-0.14,0.05-0.24,0.19-0.24,0.33v0.36 c0,0.06,0.01,0.13,0.05,0.18l0.16,0.28c0.05,0.09,0.13,0.14,0.22,0.16l0.95,0.24c-0.01,1.15-0.02,1.9-0.02,2.09 c0,0-0.03,0.6,0.25,0.98c0.1,0.14,0.21,0.23,0.32,0.31c-0.02-0.1-0.04-0.19-0.04-0.3v-0.51c0-0.63,0.4-1.2,1.01-1.41l0.96-0.33 v-2.21c-0.24-0.17-0.41-0.39-0.51-0.65L3.56,9.41C3.47,9.23,3.41,9,3.41,8.77V7.28c0-0.45,0.2-0.86,0.54-1.14l0.16-0.15 c0.02-0.02,0.05-0.03,0.07-0.05L4.9,6.66C4.86,6.67,4.82,6.7,4.78,6.73l-0.2,0.18C4.47,7,4.41,7.14,4.41,7.28v1.49 c0,0.07,0.02,0.15,0.05,0.21l0.16,0.34c0.05,0.13,0.16,0.22,0.29,0.27l0.29,0.1c0,0.96,0,2.13,0,3.34v0.35l-0.1-0.02 c-0.09-0.02-0.18-0.01-0.27,0.02l-1.26,0.43c-0.2,0.07-0.34,0.26-0.34,0.47v0.51c0,0.09,0.02,0.18,0.07,0.25l0.23,0.39 c0.07,0.12,0.18,0.2,0.31,0.23l1.34,0.33c-0.01,1.62-0.03,2.67-0.03,2.93c0,0-0.04,0.84,0.35,1.37s0.82,0.71,1.45,0.9 c1.73,0.34,6.72,1.59,6.72,1.59l0.66,0.01c0.44-0.01,0.87-0.09,1.28-0.24c1.23-0.42,2.67-0.93,3.84-1.36l1.14,1.14l1.38-1.38 L2.88,1.86L1.5,3.24z M13.59,20.85c0-0.21,0.02-2.78,0.03-5.48l1.35,1.35c-0.01,0.03-0.03,0.06-0.03,0.1v1.22 c0,0.28,0.22,0.5,0.5,0.5c0.06,0,0.11-0.01,0.17-0.03l0.85-0.3l2.2,2.2c-1.07,0.39-2.29,0.83-3.36,1.19 c-0.7,0.24-1.21,0.25-1.47,0.05C13.55,21.42,13.59,20.91,13.59,20.85z M22.79,4.8c-0.18-0.13-2.69-0.67-2.91-0.69l-4.33-1 c-0.74-0.24-1.54-0.24-2.29-0.01c-0.87,0.28-4.49,1.4-5.8,1.8l6.16,6.16c-0.01-0.78-0.02-1.41-0.03-1.75 c-0.08-0.75,0.36-1.47,1.07-1.73l7.03-2.06c0.26-0.07,0.39,0.04,0.39,0.04c0.39,0.26,0.33,0.97,0.33,1.42v10.28 c0,1.1-0.37,1.65-0.67,1.91l0.7,0.7c0.46-0.43,0.96-1.21,0.96-2.62V7C23.34,5.83,23.65,5.41,22.79,4.8z"/></svg>