<svg viewBox="0 0 24 24" height="24px" width="24px" fill="#44739e" xmlns="http://www.w3.org/2000/svg"><title>hue:qr</title><desc>Source: https://github.com/arallsopp/hass-hue-icons</desc><path d="M20.37 1.47h2.18v2.18H20.37Z M18.92,0.02c0,1.05,0,4.04,0,5.09c1.05,0,4.04,0,5.09,0c0-1.05,0-4.04,0-5.09C24.01,0.02,19.4,0.02,18.92,0.02z M23.24,4.34h-3.56V0.78h3.56V4.34z M1.48 20.36h2.18v2.18H1.48Z M0.02,18.91c0,1.05,0,4.04,0,5.09c1.05,0,4.04,0,5.09,0c0-1.05,0-4.04,0-5.09C5.11,18.91,0.5,18.91,0.02,18.91z M4.35,23.23H0.79v-3.56h3.56V23.23z M8.74,0.74V0.02c-0.91,0-2,0-2.91,0v0.73c0.36,0,1.09,0,1.45,0v0.73h0.73V0.74H8.74z M10.2,0.02v0.73c0.36,0,1.09,0,1.45,0v0.73c0.36,0,1.09,0,1.45,0V0.74h0.73V0.02 C13.83,0.02,11.11,0.02,10.2,0.02z M16.74 0.02h0.73v0.73H16.74Z M14.56,1.47c0.36,0,1.09,0,1.45,0V2.2h0.73v0.73h0.73V2.2h0.73V1.47c-0.36,0-1.09,0-1.45,0V0.74h-0.73V0.02 h-0.73v0.73c-0.36,0-1.09,0-1.45,0c0,0.36,0,1.09,0,1.45h0.73V1.47z M8.02,3.65c0.36,0,1.09,0,1.45,0c0-0.36,0-1.09,0-1.45h0.73V1.47H9.47V0.74H8.74v0.73H8.02V2.2H7.29v0.73h0.73 V3.65z M10.2,3.65H9.47v0.73h0.73V5.1h0.73c0-0.91,0-2,0-2.91H10.2C10.2,2.56,10.2,3.29,10.2,3.65z M17.46 2.92h0.73v0.73H17.46Z M15.28 3.65h0.73v0.73H15.28Z M7.29 4.38h0.73v0.73H7.29Z M14.56 4.38h0.73v0.73H14.56Z M9.47,5.1V4.38H8.74c0,0.36,0,1.09,0,1.45h0.73V5.1z M11.65,5.83h0.73v0.73h0.73V5.83h0.73c0-0.36,0-1.09,0-1.45h0.73V3.65h0.73V2.92h0.73V2.2 c-0.36,0-1.09,0-1.45,0v0.73h-0.73V2.2c-0.36,0-1.09,0-1.45,0v0.73h0.73c0,0.65,0,1.53,0,2.18h-0.73c0-0.36,0-1.09,0-1.45h-0.73 c0,0.36,0,1.09,0,1.45h-0.73v0.73H11.65z M15.28,5.1c0,0.36,0,1.09,0,1.45h0.73V5.83h0.73c0-0.36,0-1.09,0-1.45h-0.73V5.1H15.28z M18.19,5.1V4.38h-0.73c0,0.36,0,1.09,0,1.45h0.73V5.1z M0.02 5.83h0.73v0.73H0.02Z M2.93 5.83h0.73v0.73H2.93Z M8.02 5.83h0.73v0.73H8.02Z M13.83 5.83h0.73v0.73H13.83Z M23.28 5.83h0.73v0.73H23.28Z M2.2,6.56c-0.36,0-1.09,0-1.45,0c0,0.36,0,1.09,0,1.45c0.36,0,1.09,0,1.45,0V7.28h0.73V6.56H2.2z M13.1 6.56h0.73v0.73H13.1Z M21.83,6.56V5.83c-1.17,0-2.47,0-3.63,0c0,0.36,0,1.09,0,1.45h0.73V6.56c0.65,0,1.53,0,2.18,0 c0,0.36,0,1.09,0,1.45h0.73V7.28c0.36,0,1.09,0,1.45,0V6.56C22.92,6.56,22.19,6.56,21.83,6.56z M4.38 7.28h0.73v0.73H4.38Z M18.92 7.28h0.73v0.73H18.92Z M18.19 8.01h0.73v0.73H18.19Z M22.55,8.01c0,0.36,0,1.09,0,1.45c0.36,0,1.09,0,1.45,0c0-0.36,0-1.09,0-1.45C23.64,8.01,22.91,8.01,22.55,8.01 z M0.75 8.74h0.73v0.73H0.75Z M18.92 8.74h0.73v0.73H18.92Z M0.02 9.46h0.73v0.73H0.02Z M18.92,10.19h0.73c0,0.65,0,1.53,0,2.18h-0.73v-0.73h-0.73v-0.73c-0.36,0-1.09,0-1.45,0v-0.73 c-0.36,0-1.09,0-1.45,0V9.46c0.36,0,1.09,0,1.45,0c0-0.36,0-1.09,0-1.45h-0.73v0.73h-0.73V8.01h-0.73V7.28c0.65,0,1.53,0,2.18,0 c0-0.36,0-1.09,0-1.45h0.73c0,0.91,0,2,0,2.91h0.73v0.73h0.73V10.19z M19.65 9.46h0.73v0.73H19.65Z M21.1,9.46h-0.73V8.74c0.36,0,1.09,0,1.45,0c0,0.36,0,1.09,0,1.45H21.1V9.46z M6.56 10.19h0.73v0.73H6.56Z M10.2 10.19h0.73v0.73H10.2Z M20.37 10.19h0.73v0.73H20.37Z M22.55 10.19h0.73v0.73H22.55Z M0.02 10.92h0.73v0.73H0.02Z M6.56,10.92H5.84c0,0.36,0,1.09,0,1.45c0.36,0,1.09,0,1.45,0v-0.73H6.56V10.92z M7.29 10.92h0.73v0.73H7.29Z M2.2,11.64h0.73c0,0.36,0,1.09,0,1.45H2.2v0.73H1.48V13.1c-0.36,0-1.09,0-1.45,0v-0.73h0.73v-0.73h0.73v0.73 H2.2V11.64z M4.38 11.64h0.73v0.73H4.38Z M8.02 11.64h0.73v0.73H8.02Z M17.46 11.64h0.73v0.73H17.46Z M20.37 11.64h0.73v0.73H20.37Z M22.55 11.64h0.73v0.73H22.55Z M16.74,13.1v0.73h-0.73c0,0.36,0,1.09,0,1.45h0.73v-0.73c0.65,0,1.53,0,2.18,0v0.73h0.73v-0.73h0.73 c0-0.36,0-1.09,0-1.45h-0.73v0.73c-0.65,0-1.53,0-2.18,0c0-0.36,0-1.09,0-1.45h-0.73V13.1z M18.19 12.37h0.73v0.73H18.19Z M21.83,12.37H21.1c0,0.36,0,1.09,0,1.45h0.73V13.1h0.73v-0.73H21.83z M4.38 13.1h0.73v0.73H4.38Z M23.28,13.1h-0.73c0,1.17,0,2.47,0,3.63h0.73c0-0.36,0-1.09,0-1.45h0.73c0-0.36,0-1.09,0-1.45h-0.73V13.1z M6.56,13.82h0.73V13.1c-0.36,0-1.09,0-1.45,0c0,0.36,0,1.09,0,1.45h0.73V13.82z M14.56,14.55h0.73c0-0.36,0-1.09,0-1.45h-0.73v0.73h-0.73v0.73H14.56z M5.11,14.55H4.38v0.73c0.36,0,1.09,0,1.45,0v-0.73H5.11z M21.1,15.28h0.73v-0.73c-0.36,0-1.09,0-1.45,0v0.73H21.1z M0.75,15.28v-0.73H0.02c0,0.36,0,1.09,0,1.45h0.73V15.28z M6.56,15.28H5.84V16c0.36,0,1.09,0,1.45,0v-0.73H6.56z M18.19,16v0.73h-0.73v0.73c-0.36,0-1.09,0-1.45,0v-0.73h-0.73v0.73c-0.36,0-1.09,0-1.45,0v0.73h0.73 c0,0.91,0,2,0,2.91h0.73v-0.73h0.73v-0.73h0.73v-0.73c-0.36,0-1.09,0-1.45,0v-0.73c0.36,0,1.09,0,1.45,0v0.73h0.73 c0,0.65,0,1.53,0,2.18c-0.65,0-1.53,0-2.18,0v0.73c0.36,0,1.09,0,1.45,0c0,0.36,0,1.09,0,1.45h-0.73v-0.73c-0.36,0-1.09,0-1.45,0 c0-0.36,0-1.09,0-1.45h-0.73c0,0.36,0,1.09,0,1.45c-0.36,0-1.09,0-1.45,0c0,0.36,0,1.09,0,1.45h0.73v-0.73c0.36,0,1.09,0,1.45,0V24 c1.17,0,2.47,0,3.63,0v-0.73c0.36,0,1.09,0,1.45,0v-0.73c0.36,0,1.09,0,1.45,0v-0.73c0.65,0,1.53,0,2.18,0v-0.73h0.73v-0.73h-0.73 c0-0.36,0-1.09,0-1.45h-0.73c0,0.65,0,1.53,0,2.18h-0.73v-0.73H21.1v-0.73h0.73v-0.73H21.1v-0.73h0.73v-0.73H21.1v-0.73h0.73V16 c-0.36,0-1.09,0-1.45,0c0,0.36,0,1.09,0,1.45h-0.73v-0.73h-0.73c0-0.36,0-1.09,0-1.45h-0.73V16z M18.19,22.54c0-0.36,0-1.09,0-1.45 h0.73c0,0.36,0,1.09,0,1.45H18.19z M20.37,18.18c0,0.65,0,1.53,0,2.18c-0.65,0-1.53,0-2.18,0c0-0.65,0-1.53,0-2.18 C18.84,18.18,19.72,18.18,20.37,18.18z M2.93,13.1h0.73c0,0.65,0,1.53,0,2.18c-0.36,0-1.09,0-1.45,0V16h0.73v0.73H2.2v0.73H1.48c0-0.91,0-2,0-2.91 c0.36,0,1.09,0,1.45,0C2.93,14.19,2.93,13.46,2.93,13.1z M3.66,16c0,0.36,0,1.09,0,1.45h0.73v-0.73h0.73V16C4.75,16,4.02,16,3.66,16 z M7.29,16.73V16h0.73v-0.73H7.29c0-0.36,0-1.09,0-1.45h0.73v0.73c0.36,0,1.09,0,1.45,0v-0.73H8.74 c0-0.36,0-1.09,0-1.45h0.73v0.73h0.73c0-0.36,0-1.09,0-1.45c0.65,0,1.53,0,2.18,0v-0.73h-0.73c0-0.36,0-1.09,0-1.45 c0.36,0,1.09,0,1.45,0v0.73h0.73V9.46H13.1V8.74c-0.65,0-1.53,0-2.18,0v0.73c-0.65,0-1.53,0-2.18,0v0.73h0.73v0.73h0.73v0.73 c-0.36,0-1.09,0-1.45,0v-0.73H8.02c0-0.36,0-1.09,0-1.45H7.29c0-0.36,0-1.09,0-1.45H6.56c0,0.65,0,1.53,0,2.18H5.84v0.73 c-0.36,0-1.09,0-1.45,0v0.73c-0.36,0-1.09,0-1.45,0c0-0.36,0-1.09,0-1.45c-0.36,0-1.09,0-1.45,0V9.46H2.2V8.74h0.73v0.73h0.73V8.74 H2.93c0-0.36,0-1.09,0-1.45h0.73v0.73h0.73v0.73h0.73v0.73H4.38v0.73h0.73V9.46h0.73c0-0.91,0-2,0-2.91c-0.36,0-1.09,0-1.45,0V5.83 c0.36,0,1.09,0,1.45,0c0-1.17,0-2.47,0-3.63h0.73v0.73h0.73v0.73H6.56c0,0.36,0,1.09,0,1.45h0.73c0,0.36,0,1.09,0,1.45H6.56v0.73 h0.73V6.56h0.73c0,0.65,0,1.53,0,2.18c0.65,0,1.53,0,2.18,0V8.01h0.73V7.28c-0.65,0-1.53,0-2.18,0V6.56c0.91,0,2,0,2.91,0v0.73 c0.36,0,1.09,0,1.45,0v0.73h0.73v0.73c0.36,0,1.09,0,1.45,0v0.73h-0.73c0,0.36,0,1.09,0,1.45c0.65,0,1.53,0,2.18,0 c0,0.36,0,1.09,0,1.45h-0.73v0.73h-0.73v-0.73h-0.73v-0.73h-0.73v-0.73H13.1c0,0.36,0,1.09,0,1.45h0.73c0,0.36,0,1.09,0,1.45H13.1 V13.1h-0.73c0,0.65,0,1.53,0,2.18h-0.73v-0.73c-0.36,0-1.09,0-1.45,0v0.73H9.47V16H8.74v0.73C8.38,16.73,7.65,16.73,7.29,16.73z M16.01,16v0.73c0.36,0,1.09,0,1.45,0c0-0.36,0-1.09,0-1.45h-0.73V16H16.01z M8.74 16.73h0.73v0.73H8.74Z M1.48,17.46v0.73c-0.36,0-1.09,0-1.45,0v-0.73C0.39,17.46,1.11,17.46,1.48,17.46z M2.93,18.18v-0.73H2.2v0.73 H2.93z M5.11,18.18v-0.73H4.38v0.73H5.11z M7.29 17.46h0.73v0.73H7.29Z M21.83 18.18h0.73v0.73H21.83Z M18.92 18.91h0.73v0.73H18.92Z M13.83,19.64H13.1v-0.73h-0.73c0,0.36,0,1.09,0,1.45h0.73v0.73h0.73C13.83,20.73,13.83,20,13.83,19.64z M5.84 20.36h0.73v0.73H5.84Z M11.65,20.36v0.73h-0.73c0,0.65,0,1.53,0,2.18h0.73V24c-0.36,0-1.09,0-1.45,0c0-0.36,0-1.09,0-1.45H9.47v-0.73 h0.73v-0.73c-0.91,0-2,0-2.91,0c0-0.36,0-1.09,0-1.45c-0.36,0-1.09,0-1.45,0c0-0.91,0-2,0-2.91c0.36,0,1.09,0,1.45,0v0.73H6.56v0.73 h0.73v0.73h0.73c0,0.36,0,1.09,0,1.45c0.65,0,1.53,0,2.18,0v-0.73H9.47c0-0.36,0-1.09,0-1.45h0.73v-0.73h0.73v0.73h0.73v-0.73h-0.73 v-0.73H10.2c0-0.36,0-1.09,0-1.45h0.73V16h0.73v0.73h0.73c0-0.36,0-1.09,0-1.45c0.91,0,2,0,2.91,0c0,0.36,0,1.09,0,1.45h-0.73V16 h-0.73v0.73H13.1c0,0.36,0,1.09,0,1.45h-0.73v0.73h-0.73v0.73h-0.73v0.73H11.65z M6.56,21.82v0.73c0.36,0,1.09,0,1.45,0v0.73h0.73c0-0.36,0-1.09,0-1.45c-0.36,0-1.09,0-1.45,0v-0.73H6.56V21.82 z M12.38,21.09h-0.73c0,0.36,0,1.09,0,1.45h0.73C12.38,22.18,12.38,21.45,12.38,21.09z M5.84,23.27V24c0.65,0,1.53,0,2.18,0v-0.73C7.65,23.27,5.84,23.27,5.84,23.27z M8.74 23.27h0.73v0.73H8.74Z M23.28 23.27h0.73v0.73H23.28Z M1.48 1.47h2.18v2.18H1.48Z M0.02,0.02c0,1.05,0,4.04,0,5.09c1.05,0,4.04,0,5.09,0c0-1.05,0-4.04,0-5.09C5.11,0.02,0.5,0.02,0.02,0.02z M4.35,4.34H0.79V0.78h3.56V4.34z"/></svg>