<svg viewBox="0 0 24 24" fill="#44739e" xmlns="http://www.w3.org/2000/svg"><title>hue:room-porch-off</title><desc>Source: https://github.com/arallsopp/hass-hue-icons</desc><path d="M21.97,20.95L2.88,1.86L1.5,3.24l3.07,3.07L7.08,16.5l2.7-0.39l-0.9,2.83c-0.79-0.23-1.51-0.53-2.13-0.89 c-0.36-0.2-0.82-0.08-1.02,0.28C5.51,18.69,5.64,19.15,6,19.36c0.91,0.52,1.97,0.93,3.15,1.21c1.2,0.29,2.48,0.44,3.79,0.44 s2.59-0.14,3.79-0.44c0.56-0.13,1.08-0.31,1.58-0.51l2.28,2.28L21.97,20.95z M7.65,9.4l0.39,0.39c-0.1,0.02-0.2,0.03-0.28,0.04 L7.65,9.4z M8.79,13.99l-0.67-2.7c0.32-0.05,0.75-0.11,1.24-0.18l1.36,1.36l0.28,1.19L8.79,13.99z M10.34,19.28l1.09-3.41 l2.34-0.34l0,0l1.46,3.8C13.64,19.57,11.93,19.55,10.34,19.28z M16.73,19.01l-0.34-0.87l0.74,0.74 C17,18.92,16.87,18.97,16.73,19.01z M14.18,10.41L14.56,12l2.96,2.96l1.97-0.29c-0.18-1.23-1.31-2.08-2.54-1.91l-0.64,0.09l-0.64-2.65 c0.15-0.02,0.27-0.04,0.38-0.05c0.43,0.01,0.77,0.36,0.77,0.78c0,0.41,0.34,0.75,0.75,0.75s0.75-0.34,0.75-0.75 c0-1.26-1.03-2.29-2.29-2.29c-0.01,0-0.02,0.01-0.04,0.01c-0.01,0-0.02,0-0.04,0c-0.67,0.07-2.42,0.31-4.17,0.57l1.32,1.32 C13.49,10.51,13.85,10.46,14.18,10.41z"/></svg>