<svg viewBox="0 0 24 24" fill="#44739e" xmlns="http://www.w3.org/2000/svg"><title>hue:room-garage-off</title><desc>Source: https://github.com/arallsopp/hass-hue-icons</desc><path d="M21.97,20.95L2.88,1.86L1.5,3.24l4.47,4.47C5.72,7.75,5.46,7.69,5.27,7.5L3.74,5.97 c-0.22-0.22-0.6-0.11-0.66,0.19c-0.29,1.46,0.24,3.05,1.61,4.02c1.07,0.76,2.49,0.91,3.7,0.43l10.12,10.12 c0.16,0.16,0.38,0.24,0.59,0.24c0.04,0,0.08-0.02,0.12-0.02l1.37,1.37L21.97,20.95z M14.41,8.44L13.6,9.25l1.17,1.17l0.81-0.81l0.71,0.7c0.3,0.3,0.87,0.18,1.17-0.25l3.38-4.84 c0.22-0.32,0.22-0.7,0-0.92l-1.12-1.12c-0.22-0.22-0.6-0.22-0.92,0l-4.84,3.38c-0.43,0.3-0.55,0.87-0.25,1.17L14.41,8.44z M9.74,4.15C8.77,3.18,7.42,2.83,6.17,3.08C6.03,3.11,5.93,3.21,5.89,3.33l4.8,4.8 C11.13,6.78,10.82,5.23,9.74,4.15z M3.26,18.41c-0.32,0.32-0.32,0.85,0,1.18l1.17,1.17c0.32,0.32,0.85,0.32,1.18,0l5.4-5.4l-2.35-2.35L3.26,18.41 z"/></svg>