<svg viewBox="0 0 24 24" fill="#44739e" xmlns="http://www.w3.org/2000/svg"><title>hue:room-attic-alt-off</title><desc>Source: https://github.com/arallsopp/hass-hue-icons</desc><path d="M1.5,3.24l3.69,3.69l-3.99,3.61c-0.42,0.3-0.53,0.88-0.23,1.3c0.2,0.29,0.55,0.44,0.89,0.39h1.82V22.5 c0,0.52,0.42,0.93,0.93,0.93h14.94c0.52,0,0.93-0.42,0.93-0.93v-0.28l0.12,0.12l1.38-1.38L2.88,1.86L1.5,3.24z M3.62,10.63 l2.74-2.52l2.52,2.52H3.62z M22.97,10.54L12.75,1.29c-0.36-0.37-0.95-0.37-1.32-0.01c0,0,0,0-0.01,0.01L7.44,4.88L8.6,6.04l3.48-3.2 l8.47,7.79h-7.36l7.28,7.28v-5.68h1.87c0.51,0.04,0.96-0.34,1-0.86C23.38,11.05,23.24,10.73,22.97,10.54z"/></svg>