<svg viewBox="0 0 24 24" fill="#44739e" xmlns="http://www.w3.org/2000/svg"><title>hue:room-lounge-off</title><desc>Source: https://github.com/arallsopp/hass-hue-icons</desc><path d="M1.5,3.24l1.86,1.86C2.41,5.82,1.78,6.76,1.5,7.83C1.88,7.64,2.48,7.5,2.93,7.5h0.14C4.68,7.5,6,8.82,6,10.43 v0.82h3.5l1.5,1.5H4.5v-2.32C4.5,9.64,3.86,9,3.07,9H2.93C2.14,9,1.5,9.64,1.5,10.43v5.14c0,0.02,0.01,0.04,0.01,0.06 c0,0.04-0.01,0.08-0.01,0.12c0,0.41,0.34,0.75,0.75,0.75H3v0.75c0,0.83,0.67,1.5,1.5,1.5S6,18.08,6,17.25V16.5h8.75l5.83,5.83 l1.38-1.38L2.88,1.86L1.5,3.24z M20.32,11.25c0.38,0,0.68-0.3,0.68-0.68v-0.33c0-1.51-1.23-2.74-2.74-2.74h-4.01 c-0.92-2.16-3.03-3.75-6.39-3.75c-0.51,0-0.98,0.05-1.43,0.12l7.38,7.38H20.32z M18,12.75h-2.69l5.39,5.39c0.19-0.25,0.3-0.56,0.3-0.89V16.5h0.75c0.41,0,0.75-0.34,0.75-0.75 C22.5,13.27,20.48,12.75,18,12.75z"/></svg>