<svg viewBox="0 0 24 24" fill="#44739e" xmlns="http://www.w3.org/2000/svg"><title>hue:room-terrace-off</title><desc>Source: https://github.com/arallsopp/hass-hue-icons</desc><path d="M20.59,22.33l1.38-1.38L2.88,1.86L1.5,3.24l2.59,2.59L3.32,6.42C3.04,6.63,2.91,7.01,3.07,7.33 c0.25,0.5,0.77,0.89,1.37,0.89c0.39,0,0.75-0.16,1.02-0.42c0.12-0.12,0.27-0.17,0.43-0.19L11.25,13v0.48 c0,0.42,0.34,0.75,0.75,0.75c0.14,0,0.26-0.05,0.37-0.11l0.86,0.86H6.75c-0.83,0-1.5,0.67-1.5,1.5s0.67,1.5,1.5,1.5h3.32l-3.9,4.78 c-0.26,0.32-0.21,0.79,0.11,1.05s0.79,0.21,1.05-0.11L12,17.98l4.67,5.73c0.15,0.18,0.37,0.27,0.58,0.27 c0.17,0,0.34-0.05,0.47-0.17c0.32-0.26,0.37-0.73,0.11-1.05l-3.89-4.78h2.29L20.59,22.33z M11.25,8v0.69l1.5,1.5V8c0.23,0.14,0.48,0.23,0.76,0.23c0.39,0,0.75-0.16,1.02-0.42 c0.28-0.27,0.71-0.27,0.99,0c0.27,0.25,0.62,0.42,1.02,0.42c0.39,0,0.75-0.16,1.02-0.42c0.28-0.27,0.71-0.27,0.99,0 c0.27,0.25,0.62,0.42,1.02,0.42c0.6,0,1.12-0.39,1.37-0.89c0.15-0.32,0.03-0.7-0.25-0.91l-8.23-6.27c-0.27-0.2-0.64-0.2-0.91,0 L6.53,3.97l4.21,4.21C10.93,8.15,11.1,8.09,11.25,8z M17.57,15.01l1.14,1.14C18.59,15.59,18.14,15.14,17.57,15.01z"/></svg>