<svg viewBox="0 0 24 24" fill="#44739e" xmlns="http://www.w3.org/2000/svg"><title>hue:room-gym-off</title><desc>Source: https://github.com/arallsopp/hass-hue-icons</desc><path d="M1.5,3.24L6,7.75v8.75c0,0.41,0.34,0.75,0.75,0.75h3c0.41,0,0.75-0.34,0.75-0.75v-2.25h2l1,1v1.25 c0,0.41,0.34,0.75,0.75,0.75h1.25l5.08,5.08l1.38-1.38L2.88,1.86L1.5,3.24z M21,10.5V9c0-0.41-0.34-0.75-0.75-0.75H19.5v7.5h0.75c0.41,0,0.75-0.34,0.75-0.75v-1.5 c0.83,0,1.5-0.67,1.5-1.5S21.83,10.5,21,10.5z M18,7.5c0-0.41-0.34-0.75-0.75-0.75h-3c-0.41,0-0.75,0.34-0.75,0.75v2.25h-1.19L18,15.44V7.5z M3,9v1.5c-0.83,0-1.5,0.67-1.5,1.5s0.67,1.5,1.5,1.5V15c0,0.41,0.34,0.75,0.75,0.75H4.5v-7.5H3.75 C3.34,8.25,3,8.59,3,9z M10.5,7.5c0-0.41-0.34-0.75-0.75-0.75H9.31l1.19,1.19V7.5z"/></svg>