<svg viewBox="0 0 24 24" fill="#44739e" xmlns="http://www.w3.org/2000/svg"><title>hue:room-laundry-off</title><desc>Source: https://github.com/arallsopp/hass-hue-icons</desc><path d="M21.97,20.95L2.88,1.86L1.5,3.24L3,4.75v17c0,0.41,0.34,0.75,0.75,0.75h16.5c0.34,0,0.61-0.23,0.71-0.54 L21.97,20.95z M6,13.5c0-1.59,0.63-3.03,1.65-4.11l1.07,1.07c-0.76,0.8-1.22,1.87-1.22,3.04c0,2.48,2.08,4.5,4.63,4.5 c1.16,0,2.21-0.42,3.02-1.1l0.96,0.96c-1.07,1.02-2.51,1.65-4.11,1.65C8.69,19.5,6,16.81,6,13.5z M8.25,3C8.66,3,9,3.34,9,3.75S8.66,4.5,8.25,4.5H7.06l3.25,3.25C10.84,7.59,11.41,7.5,12,7.5 c3.31,0,6,2.69,6,6c0,0.59-0.09,1.16-0.25,1.69L21,18.44V2.25c0-0.41-0.34-0.75-0.75-0.75H4.06L5.56,3H8.25z M18.75,3 c0.41,0,0.75,0.34,0.75,0.75S19.16,4.5,18.75,4.5S18,4.16,18,3.75S18.34,3,18.75,3z M15.75,3c0.41,0,0.75,0.34,0.75,0.75 S16.16,4.5,15.75,4.5S15,4.16,15,3.75S15.34,3,15.75,3z M12.13,9c-0.18,0-0.35,0.03-0.52,0.05l3.78,3.78c0.22-0.42,0.61-0.73,1.11-0.81C15.87,10.27,14.15,9,12.13,9z"/></svg>