<svg viewBox="0 0 24 24" fill="#44739e" xmlns="http://www.w3.org/2000/svg"><title>hue:room-nursery-off</title><desc>Source: https://github.com/arallsopp/hass-hue-icons</desc><path d="M21.97,20.95L2.88,1.86L1.5,3.24l2.5,2.5c-0.04,0.24-0.16,0.49-0.4,0.74c-1.7,1.74,0.52,4.64,3.1,3.88 l-2.17,5.97c-0.07-0.07-0.15-0.13-0.22-0.21c-0.28-0.31-0.75-0.32-1.06-0.04s-0.32,0.76-0.04,1.06C5.47,19.6,8.68,21,12,21 c2.03,0,4-0.53,5.75-1.5l2.83,2.83L21.97,20.95z M5.38,7.13l0.22,0.22C5.52,7.3,5.44,7.22,5.38,7.13z M12,19.5 c-1.77,0-3.5-0.46-5.03-1.3c0.08-0.11,0.14-0.22,0.19-0.36l1.31-3.6h4.02l4.14,4.14C15.21,19.1,13.63,19.5,12,19.5z M13.91,9.91V9.75h-1.61l1.15,1.15C13.73,10.65,13.91,10.31,13.91,9.91z M20.8,17.15c0.28-0.3,0.26-0.78-0.04-1.06c-0.3-0.28-0.78-0.27-1.06,0.04c-0.11,0.12-0.24,0.23-0.36,0.35v0 l-2.01-4.32c-0.02-0.05-0.06-0.1-0.09-0.15c1,0.15,2.04-0.13,2.83-0.86c0.09-0.08,0.16-0.16,0.23-0.25 c0.31-0.4,1.02-1.55,0.52-3.02c-0.18-0.54-0.99-0.5-1.11,0.05c-0.13,0.63-0.44,1.23-0.93,1.73c-0.7,0.7-1.63,1.03-2.55,0.99 c-0.25-0.23-0.52-0.43-0.83-0.58c-0.04,0.75-0.37,1.42-0.88,1.9l5.72,5.72C20.43,17.51,20.63,17.34,20.8,17.15z M10.95,6.73C10.72,5.09,9.3,2.7,5.6,3.04l5.18,5.18C10.91,7.75,11.01,7.2,10.95,6.73z"/></svg>