<svg viewBox="0 0 24 24" fill="#44739e" xmlns="http://www.w3.org/2000/svg"><title>hue:room-driveway-off</title><desc>Source: https://github.com/arallsopp/hass-hue-icons</desc><path d="M21.97,20.95L2.88,1.86L1.5,3.24l4.03,4.03L4.91,9.71c-0.07,0.26-0.25,0.48-0.49,0.6l-0.9,0.43 C3.2,10.89,3,11.21,3,11.56v4.78c0,0.5,0.4,0.91,0.9,0.91h1.35v1.63c0,0.75,0.62,1.37,1.37,1.37h1.01c0.75,0,1.37-0.62,1.37-1.37 v-1.63h6v1.63c0,0.75,0.62,1.37,1.37,1.37h1.01c0.31,0,0.59-0.12,0.82-0.3l2.39,2.39L21.97,20.95z M6,15c-0.83,0-1.5-0.67-1.5-1.5 S5.17,12,6,12s1.5,0.67,1.5,1.5S6.83,15,6,15z M6.78,8.61L6.8,8.55L8,9.75H7.67C7.07,9.75,6.62,9.19,6.78,8.61z M10.07,15 C9.48,15,9,14.52,9,13.95V13.8c0-0.58,0.48-1.05,1.07-1.05H11L13.25,15H10.07z M8.43,5.25h7.15c0.42,0,0.78,0.27,0.89,0.66l0.75,2.7c0.16,0.57-0.29,1.14-0.89,1.14h-4.02l4.3,4.3 c-0.07-0.17-0.11-0.35-0.11-0.55c0-0.83,0.67-1.5,1.5-1.5s1.5,0.67,1.5,1.5S18.83,15,18,15c-0.19,0-0.38-0.04-0.55-0.11l2.36,2.36 h0.29c0.5,0,0.9-0.41,0.9-0.91v-4.78c0-0.35-0.2-0.67-0.52-0.82l-0.9-0.43c-0.24-0.12-0.42-0.34-0.49-0.6l-1.35-5.28 c-0.1-0.4-0.46-0.68-0.87-0.68H7.12c-0.22,0-0.43,0.09-0.59,0.23l1.41,1.41C8.09,5.31,8.25,5.25,8.43,5.25z"/></svg>