<svg viewBox="0 0 24 24" fill="#44739e" xmlns="http://www.w3.org/2000/svg"><title>hue:room-recreation-off</title><desc>Source: https://github.com/arallsopp/hass-hue-icons</desc><path d="M21.97,20.95L2.88,1.86L1.5,3.24L5.9,7.65c-1,2.19-0.96,4.73,0.15,6.88c0.22,0.42,0.12,0.94-0.21,1.27 l-2.62,2.61c-0.29,0.29-0.29,0.77,0,1.06l1.31,1.3c0.29,0.29,0.77,0.29,1.06,0l2.62-2.61c0.34-0.34,0.87-0.43,1.3-0.21 c1.65,0.84,3.72,1.18,5.5,0.79c0-0.58,0.15-1.12,0.39-1.61l1.16,1.16c-0.03,0.15-0.05,0.3-0.05,0.45c0,1.24,1.01,2.25,2.25,2.25 c0.16,0,0.31-0.02,0.45-0.05l1.38,1.38L21.97,20.95z M18.75,15c0.35,0,0.69,0.06,1.01,0.16c2.16-3.38,1.5-8.03-2.01-10.61c-2.77-2.04-6.43-2.07-9.23-0.06 C8.23,4.69,7.97,4.92,7.72,5.15l10.01,10.01C18.05,15.07,18.39,15,18.75,15z M20.97,18.4c-0.15-0.96-0.91-1.72-1.87-1.87L20.97,18.4z"/></svg>