<svg viewBox="0 0 24 24" fill="#44739e" xmlns="http://www.w3.org/2000/svg"><title>hue:room-studio-off</title><desc>Source: https://github.com/arallsopp/hass-hue-icons</desc><path d="M21.97,20.95L2.88,1.86L1.5,3.24l3,3V12c0,0.41,0.34,0.75,0.75,0.75H11l1.5,1.5H6.75C6.34,14.25,6,14.59,6,15 s0.34,0.75,0.75,0.75h1.43l-2.83,4.88c-0.21,0.36-0.09,0.82,0.27,1.02c0.12,0.07,0.25,0.1,0.38,0.1c0.26,0,0.51-0.13,0.65-0.38 l3.27-5.62h1.34v5.21c0,0.42,0.34,0.75,0.75,0.75s0.75-0.33,0.75-0.75v-5.21H14l0.2,0.2l3.15,5.43c0.14,0.24,0.39,0.38,0.65,0.38 c0.13,0,0.26-0.03,0.38-0.1c0.36-0.21,0.48-0.67,0.27-1.02l-0.32-0.55l2.25,2.25L21.97,20.95z M16.81,14.25l1.09,1.09C17.96,15.24,18,15.13,18,15c0-0.41-0.34-0.75-0.75-0.75H16.81z M18.75,12.75c0.41,0,0.75-0.34,0.75-0.75V5.25c0-0.41-0.34-0.75-0.75-0.75h-6V3c0-0.41-0.34-0.75-0.75-0.75 S11.25,2.59,11.25,3v1.5H7.06l8.25,8.25H18.75z"/></svg>