<svg viewBox="0 0 24 24" fill="#44739e" xmlns="http://www.w3.org/2000/svg"><title>hue:room-bbq-off</title><desc>Source: https://github.com/arallsopp/hass-hue-icons</desc><path d="M21.97,20.95L2.88,1.86L1.5,3.24L5.75,7.5H5.25C4.8,7.5,4.46,7.89,4.5,8.33C4.52,8.56,4.55,8.78,4.59,9H3.75 C3.34,9,3,9.34,3,9.75s0.34,0.75,0.75,0.75h1.23c0.63,1.77,1.79,3.23,3.28,4.16l-1.8,5.36c-0.13,0.39,0.08,0.82,0.47,0.95 C7.01,20.99,7.09,21,7.17,21c0.31,0,0.61-0.2,0.71-0.51L8.71,18h6.99l0.25,0.75c-0.13,0.22-0.21,0.47-0.21,0.75 c0,0.83,0.67,1.5,1.5,1.5c0.54,0,1.01-0.29,1.28-0.72l2.06,2.06L21.97,20.95z M14.04,5.94c0.17,0.11,0.4,0.07,0.52-0.11c0.11-0.17,0.07-0.4-0.1-0.52c-0.09-0.06-0.21-0.2-0.21-0.28 c0-0.04,0.05-0.12,0.21-0.23C14.91,4.51,15,4.18,15,3.96c0-0.52-0.48-0.86-0.54-0.89C14.39,3.02,14.32,3,14.25,3 c-0.12,0-0.24,0.06-0.31,0.17c-0.12,0.17-0.07,0.4,0.11,0.52c0.08,0.06,0.21,0.19,0.21,0.27c0,0.04-0.05,0.13-0.21,0.23 c-0.45,0.3-0.54,0.63-0.54,0.86C13.5,5.56,13.99,5.9,14.04,5.94z M16.56,14c1.07-0.91,1.92-2.1,2.42-3.5h1.27c0.41,0,0.75-0.34,0.75-0.75S20.66,9,20.25,9h-0.88 c0.04-0.22,0.07-0.44,0.09-0.67c0.04-0.44-0.3-0.83-0.75-0.83h-8.65L16.56,14z M9.54,5.94c0.17,0.11,0.4,0.07,0.52-0.11c0.11-0.17,0.07-0.4-0.1-0.52c-0.09-0.06-0.21-0.2-0.21-0.28 C9.75,5,9.8,4.91,9.96,4.81c0.45-0.3,0.54-0.63,0.54-0.86c0-0.52-0.48-0.86-0.54-0.89C9.89,3.02,9.82,3,9.75,3 C9.63,3,9.51,3.06,9.44,3.17c-0.12,0.17-0.07,0.4,0.11,0.52c0.08,0.06,0.21,0.19,0.21,0.27C9.75,4,9.7,4.09,9.54,4.19 C9.09,4.49,9,4.82,9,5.04C9,5.56,9.49,5.9,9.54,5.94z M11.79,5.94c0.17,0.11,0.4,0.07,0.52-0.11c0.11-0.17,0.07-0.4-0.1-0.52C12.12,5.25,12,5.12,12,5.04 c0-0.04,0.05-0.13,0.21-0.23c0.45-0.3,0.54-0.63,0.54-0.86c0-0.52-0.48-0.86-0.54-0.89C12.14,3.02,12.07,3,12,3 c-0.12,0-0.24,0.06-0.31,0.17c-0.12,0.17-0.07,0.4,0.11,0.52C11.88,3.75,12,3.88,12,3.96c0,0.04-0.05,0.13-0.21,0.23 c-0.45,0.3-0.54,0.63-0.54,0.86C11.25,5.56,11.74,5.9,11.79,5.94z"/></svg>