<svg viewBox="0 0 24 24" fill="#44739e" xmlns="http://www.w3.org/2000/svg"><title>hue:room-storage-off</title><desc>Source: https://github.com/arallsopp/hass-hue-icons</desc><path d="M21.97,20.95L2.88,1.86L1.5,3.24L3.75,5.5v1.25H5l1.5,1.5H3.75V19.5c0,0.41,0.34,0.75,0.75,0.75h14l2.08,2.08 L21.97,20.95z M9,12.75c-0.41,0-0.75-0.34-0.75-0.75S8.59,11.25,9,11.25h0.5l1.5,1.5H9z M15.26,12.7l4.99,4.99V8.25h-9.44l3,3H15c0.41,0,0.75,0.34,0.75,0.75C15.75,12.32,15.54,12.59,15.26,12.7z M20.25,6.75V4.5c0-0.41-0.34-0.75-0.75-0.75H6.31l3,3H20.25z"/></svg>