<svg viewBox="0 0 24 24" fill="#44739e" xmlns="http://www.w3.org/2000/svg"><title>hue:room-guestroom-off</title><desc>Source: https://github.com/arallsopp/hass-hue-icons</desc><path d="M21.97,20.95L2.88,1.86L1.5,3.24L6,7.75v2c0,0.41,0.34,0.75,0.75,0.75h2l1.5,1.5H6c-1.66,0-3,1.34-3,3v1.5 c0,0.41,0.34,0.75,0.75,0.75H4.5V18c0,0.83,0.67,1.5,1.5,1.5s1.5-0.67,1.5-1.5v-0.75h8l1.03,1.03c0.11,0.61,0.59,1.08,1.2,1.2 l2.86,2.86L21.97,20.95z M14.56,12l5.25,5.25h0.44c0.41,0,0.75-0.34,0.75-0.75V15c0-1.66-1.34-3-3-3H14.56z M14.91,7.5c0.46,0,0.84,0.34,0.84,0.75S15.38,9,14.91,9h-3.35l1.5,1.5h4.19c0.41,0,0.75-0.34,0.75-0.75v-4.5 c0-0.41-0.34-0.75-0.75-0.75H7.06l3,3H14.91z"/></svg>