<svg viewBox="0 0 24 24" fill="#44739e" xmlns="http://www.w3.org/2000/svg"><title>hue:room-hallway-off</title><desc>Source: https://github.com/arallsopp/hass-hue-icons</desc><path d="M21.97,20.95L2.88,1.86L1.5,3.24l3.55,3.55C4.73,6.88,4.5,7.16,4.5,7.5v2.25c0,0.41,0.34,0.75,0.75,0.75h3.5 L9,10.75v11H6c-0.83,0-1.5,0.67-1.5,1.5C4.5,23.66,4.84,24,5.25,24h9c0.41,0,0.75-0.34,0.75-0.75c0-0.83-0.67-1.5-1.5-1.5h-3v-9.5 l1.5,1.5v5c0,0.41,0.34,0.75,0.75,0.75h1c1.1,0,2-0.72,2.32-1.68l4.51,4.51L21.97,20.95z M6,9V7.75L7.25,9H6z M10.5,6.75H12v2.69l3.43,3.43L15.25,12l0.83-3.73l1.53,6.78l2.32,2.32l0.48-0.11 c0.41-0.09,0.66-0.49,0.57-0.89l-2.16-9.58c-0.34-1.51-1.79-2.46-3.29-2.24l-0.59-0.88C14.67,3.25,14.2,3,13.7,3h-0.95 C12.34,3,12,3.34,12,3.75v1.5h-1.5v-4.5C10.5,0.34,10.16,0,9.75,0S9,0.34,9,0.75v5.69l1.5,1.5V6.75z"/></svg>