<svg viewBox="0 0 24 24" fill="#44739e" xmlns="http://www.w3.org/2000/svg"><title>hue:room-toilet-off</title><desc>Source: https://github.com/arallsopp/hass-hue-icons</desc><path d="M21.97,20.95L2.88,1.86L1.5,3.24l5.5,5.5c0.42,1.74,1.37,3.19,2.61,4.01H6.75C6.34,12.75,6,13.09,6,13.5 s0.34,0.75,0.75,0.75h5.75l1.5,1.5H6.6c-0.33,0-0.6,0.26-0.6,0.58c0,2.48,1.55,4.48,3.8,5.37c0.32,0.12,0.52,0.42,0.52,0.75v0.73 c0,0.45,0.38,0.81,0.84,0.81h1.67c0.46,0,0.84-0.36,0.84-0.81v-0.72c0-0.33,0.21-0.63,0.53-0.75c1.36-0.52,2.46-1.44,3.12-2.64 l3.26,3.26L21.97,20.95z M15.31,12.75l1.5,1.5h0.44c0.41,0,0.75-0.34,0.75-0.75s-0.34-0.75-0.75-0.75H15.31z M17.25,6.75C17.25,3.02,14.9,0,12,0C9.72,0,7.78,1.88,7.06,4.5l7.86,7.86C16.32,11.14,17.25,9.09,17.25,6.75z"/></svg>