<svg viewBox="0 0 24 24" fill="#44739e" xmlns="http://www.w3.org/2000/svg"><title>hue:room-kitchen-off</title><desc>Source: https://github.com/arallsopp/hass-hue-icons</desc><path d="M21.97,20.95L2.88,1.86L1.5,3.24L7.25,9H4.5C3.67,9,3,9.67,3,10.5S3.67,12,4.5,12h0.75v7.41 c0,0.88,0.71,1.59,1.59,1.59h10.32c0.57,0,1.06-0.3,1.34-0.75l2.08,2.08L21.97,20.95z M10.06,7.5h7.56c0.62,0,1.12-0.5,1.12-1.12s-0.5-1.12-1.12-1.12h-4.33c0.13-0.22,0.21-0.48,0.21-0.75 C13.5,3.67,12.83,3,12,3s-1.5,0.67-1.5,1.5c0,0.27,0.08,0.53,0.21,0.75h-2.9L10.06,7.5z M18.75,16.19V12h0.75c0.83,0,1.5-0.67,1.5-1.5S20.33,9,19.5,9h-7.94L18.75,16.19z"/></svg>