<svg viewBox="0 0 24 24" fill="#44739e" xmlns="http://www.w3.org/2000/svg"><title>hue:room-pool-off</title><desc>Source: https://github.com/arallsopp/hass-hue-icons</desc><path d="M21.97,20.95L2.88,1.86L1.5,3.24L3.05,4.8C3.02,4.94,3,5.09,3,5.25C3,5.66,3.34,6,3.75,6 c0.14,0,0.27-0.05,0.38-0.12L6,7.75v5.08c-0.86-0.2-1.87-0.05-2.78,0.88C3.08,13.85,3.01,14.04,3,14.22h0v2.68 c0.07-0.05,0.14-0.1,0.22-0.17c0.7-0.71,1.45-0.96,2.15-0.96c0.9,0.01,1.71,0.46,2.21,0.96c0.26,0.25,1.21,1.03,2.24,0 c1.6-1.61,3.48-0.89,4.36,0c0.18,0.17,0.68,0.58,1.3,0.5l1.17,1.17c-0.41,0.22-0.85,0.35-1.29,0.35c-0.3,0-0.61-0.05-0.91-0.16 c-0.77-0.26-1.27-0.76-1.32-0.81c-0.27-0.26-1.21-1.04-2.24,0c-0.88,0.89-1.95,1.18-3.04,0.81c-0.75-0.25-1.24-0.73-1.31-0.8 c0,0-0.01,0-0.01,0c-0.2-0.2-0.79-0.69-1.5-0.48c-0.24,0.07-0.49,0.21-0.74,0.48c0,0-0.01,0-0.01,0.01 c-0.39,0.39-0.82,0.65-1.27,0.8V21h16.25l1.33,1.33L21.97,20.95z M8.75,10.5H7.5V9.25L8.75,10.5z M9.82,13.7 c-0.38,0.38-0.74,0.51-1.07,0.52H8.7c-0.54-0.01-0.96-0.36-1.12-0.52c-0.03-0.02-0.05-0.05-0.08-0.07V12h2.75l0.88,0.88 C10.69,13.02,10.25,13.27,9.82,13.7z M18.55,15.77c0.01,0,0.02,0,0.02,0c0.9,0.01,1.71,0.46,2.21,0.96c0.05,0.05,0.13,0.11,0.22,0.18v-2.69h0 c0-0.19-0.07-0.38-0.21-0.52c-0.88-0.88-2.76-1.61-4.36,0c-0.03,0.03-0.06,0.05-0.08,0.07l2.01,2.01 C18.41,15.78,18.48,15.77,18.55,15.77z M9.31,6.75l1.5,1.5h1.94v1.94l1.5,1.5V5.25C14.25,4.01,13.24,3,12,3S9.75,4.01,9.75,5.25 C9.75,5.66,10.09,6,10.5,6s0.75-0.34,0.75-0.75S11.59,4.5,12,4.5s0.75,0.34,0.75,0.75v1.5H9.31z M5.6,3.03L7.47,4.9C7.32,3.94,6.56,3.18,5.6,3.03z"/></svg>