<svg viewBox="0 0 24 24" fill="#44739e" xmlns="http://www.w3.org/2000/svg"><title>hue:room-outdoors-off</title><desc>Source: https://github.com/arallsopp/hass-hue-icons</desc><path d="M21.97,20.95L2.88,1.86L1.5,3.24L6.2,7.95C4.33,8.75,3,10.58,3,12.75c0,2.63,1.93,4.8,4.45,5.18v2.32 C7.45,20.66,7.79,21,8.2,21s0.75-0.34,0.75-0.75v-2.3c1.86-0.25,3.39-1.48,4.1-3.15l1.1,1.1c-0.02,0.05-0.04,0.1-0.07,0.14 c-0.27,0.47,0,1.08,0.54,1.14c0.27,0.03,0.57,0.04,0.86,0.04l0.27,0.27v2.75c0,0.41,0.34,0.75,0.75,0.75s0.75-0.34,0.75-0.75V19 l3.34,3.34L21.97,20.95zM14.92,12.36l4.57,4.57c0.89-0.33,1.51-1,1.51-2.42C21,10.88,18.19,3,16.5,3c-0.93,0-2.2,2.38-3.15,5.12 c-0.04,0.12-0.02,0.26,0.07,0.36C14.3,9.55,14.83,10.89,14.92,12.36z M10.69,8.13l2.19,2.19C12.38,9.38,11.62,8.62,10.69,8.13z"/></svg>