<svg viewBox="0 0 24 24" fill="#44739e" xmlns="http://www.w3.org/2000/svg"><title>hue:room-attic-off</title><desc>Source: https://github.com/arallsopp/hass-hue-icons</desc><path d="M1.5,3.24L7.2,8.95l-4.4,5.86l-1.71,2.28l-0.93,1.25c-0.38,0.5-0.02,1.22,0.6,1.22h0.03 c0.23,0,0.46-0.11,0.6-0.3l0.92-1.23H2.29L4,15.75l4.29-5.71l0.96,0.96l-4.24,5.83c-0.37,0.51-0.02,1.24,0.6,1.24h10.71l4.27,4.27 l1.38-1.38L2.88,1.86L1.5,3.24z M12,16.56c-1.24,0-2.25-1.01-2.25-2.25c0-0.77,0.39-1.44,0.97-1.84l3.12,3.12 C13.44,16.17,12.77,16.56,12,16.56z M23.84,18.34l-0.93-1.25l-1.71-2.28l-1.7-2.26V6.83c0-0.43-0.34-0.77-0.75-0.77h-1.5 c-0.41,0-0.75,0.35-0.75,0.77v1.72l-2.2-2.93L13.2,4.16l-0.68-0.9c-0.26-0.35-0.79-0.35-1.05,0l-0.68,0.9L9.71,5.62L9.05,6.49 l1.09,1.09l0.77-1.03l0.75-1c0.18-0.23,0.52-0.23,0.7,0l0.75,1l6.91,9.2l1.71,2.28H21.7l0.92,1.23c0.14,0.19,0.36,0.3,0.6,0.3h0.03 C23.87,19.56,24.22,18.84,23.84,18.34z M11.58,7.78L11.06,8.5l6.87,6.87l-5.51-7.59C12.21,7.48,11.79,7.48,11.58,7.78z"/></svg>