<svg viewBox="0 0 24 24" fill="#44739e" xmlns="http://www.w3.org/2000/svg"><title>hue:room-kids-off</title><desc>Source: https://github.com/arallsopp/hass-hue-icons</desc><path d="M21.97,20.95L2.88,1.86L1.5,3.24l5.83,5.83c0.15,0.58,0.4,1.13,0.74,1.6c-0.77,0.4-1.43,0.92-1.91,1.52 C5.88,12.07,5.57,12,5.25,12C4.01,12,3,13.01,3,14.25s1.01,2.25,2.25,2.25c0.02,0,0.04-0.01,0.06-0.01 c-0.04,0.25-0.06,0.5-0.06,0.76c0,2.07,1.34,3.75,3,3.75c1.01,0,1.9-0.63,2.45-1.59c0.42,0.06,0.86,0.09,1.3,0.09 s0.88-0.03,1.3-0.09c0.55,0.96,1.44,1.59,2.45,1.59c0.89,0,1.69-0.49,2.24-1.26l2.6,2.6L21.97,20.95z M8.25,19.12 c-0.83,0-1.5-0.84-1.5-1.88s0.67-1.88,1.5-1.88s1.5,0.84,1.5,1.88S9.08,19.12,8.25,19.12z M15.75,19.12c-0.83,0-1.5-0.84-1.5-1.88 c0-0.37,0.1-0.71,0.25-1l2.31,2.31C16.54,18.91,16.17,19.12,15.75,19.12z M12,7.5c1.24,0,2.25,0.84,2.25,1.88c0,0.59-0.34,1.12-0.85,1.46l5.64,5.64C20.14,16.33,21,15.4,21,14.25 c0-1.24-1.01-2.25-2.25-2.25c-0.32,0-0.63,0.07-0.91,0.2c-0.48-0.61-1.14-1.12-1.91-1.53c0.57-0.8,0.91-1.77,0.91-2.82 c0-0.02,0-0.04,0-0.06c1.09-0.23,1.91-1.2,1.91-2.37c0-1.34-1.09-2.42-2.42-2.42c-0.69,0-1.31,0.29-1.75,0.75 C13.83,3.28,12.95,3,12,3s-1.83,0.28-2.58,0.75C8.98,3.29,8.36,3,7.67,3C7.08,3,6.55,3.22,6.13,3.57l4.4,4.4 C10.92,7.68,11.43,7.5,12,7.5z M11.3,8.74l0.96,0.96c0.29-0.11,0.49-0.38,0.49-0.7c0-0.41-0.34-0.75-0.75-0.75 C11.68,8.25,11.41,8.46,11.3,8.74z"/></svg>