<svg viewBox="0 0 24 24" fill="#44739e" xmlns="http://www.w3.org/2000/svg"><title>hue:room-balcony-off</title><desc>Source: https://github.com/arallsopp/hass-hue-icons</desc><path d="M1.5,3.24L2.75,4.5h-0.5C1.84,4.5,1.5,4.84,1.5,5.25C1.5,5.66,1.84,6,2.25,6h2L4.5,6.25v2.96 C4.05,9.47,3.75,9.95,3.75,10.5s0.3,1.03,0.75,1.29v3.7C3.6,16.05,3,17.05,3,18.18c0,0.73,0.59,1.32,1.32,1.32h13.44l2.83,2.83 l1.38-1.38L2.88,1.86L1.5,3.24z M9,15H6.18C6.12,15,6.06,15.02,6,15.02v-3.23c0.45-0.26,0.75-0.73,0.75-1.29S6.45,9.47,6,9.21V7.75 l2.32,2.32c-0.04,0.14-0.07,0.28-0.07,0.43c0,0.55,0.3,1.03,0.75,1.29V15z M10.5,15v-2.75L13.25,15H10.5z M21.75,4.5H7.06L8.56,6H9v0.44l1.5,1.5V6h3v3.21c-0.37,0.22-0.63,0.59-0.71,1.02L15,12.44v-0.65 c0.45-0.26,0.75-0.73,0.75-1.29S15.45,9.47,15,9.21V6h3v3.21c-0.45,0.26-0.75,0.74-0.75,1.29s0.3,1.03,0.75,1.29v3.23 c-0.06,0-0.12-0.02-0.18-0.02h-0.26l3.4,3.4c0.01-0.07,0.04-0.14,0.04-0.21c0-1.14-0.6-2.13-1.5-2.69v-3.7 c0.45-0.26,0.75-0.73,0.75-1.29s-0.3-1.03-0.75-1.29V6h2.25c0.41,0,0.75-0.34,0.75-0.75C22.5,4.84,22.16,4.5,21.75,4.5z"/></svg>