<svg viewBox="0 0 24 24" fill="#44739e" xmlns="http://www.w3.org/2000/svg"><title>hue:room-attic-alt</title><desc>Source: https://github.com/arallsopp/hass-hue-icons</desc><path d="M22.97,10.54L12.75,1.29c-0.36-0.37-0.95-0.37-1.32-0.01c0,0,0,0-0.01,0.01L1.19,10.54 c-0.42,0.3-0.53,0.88-0.23,1.3c0.2,0.29,0.55,0.44,0.89,0.39h1.82v10.27c0,0.52,0.42,0.93,0.93,0.93h14.94 c0.52,0,0.93-0.42,0.93-0.93l0,0V12.23h1.87c0.51,0.04,0.96-0.34,1-0.86C23.38,11.05,23.24,10.73,22.97,10.54z M20.55,10.63H3.62 l8.46-7.79L20.55,10.63z"/></svg>