<svg viewBox="0 0 24 24" fill="#44739e" xmlns="http://www.w3.org/2000/svg"><title>hue:room-front-door-off</title><desc>Source: https://github.com/arallsopp/hass-hue-icons</desc><path d="M21.97,20.95L2.88,1.86L1.5,3.24L5.25,7v15.5c0,0.41,0.34,0.75,0.75,0.75h12c0.41,0,0.75-0.34,0.75-0.75v-2 l1.84,1.84L21.97,20.95z M7.5,12.75c-0.41,0-0.75-0.34-0.75-0.75s0.34-0.75,0.75-0.75S8.25,11.59,8.25,12S7.91,12.75,7.5,12.75z M9,15.75c-0.41,0-0.75-0.34-0.75-0.75S8.59,14.25,9,14.25h3.5l1.5,1.5H9z M8.25,4.5c0-0.41,0.34-0.75,0.75-0.75h1.5c0.41,0,0.75,0.34,0.75,0.75v4.19l7.5,7.5V1.5 c0-0.41-0.34-0.75-0.75-0.75H6c-0.41,0-0.75,0.34-0.75,0.75v1.19l3,3V4.5z M12.75,4.5c0-0.41,0.34-0.75,0.75-0.75H15 c0.41,0,0.75,0.34,0.75,0.75V9c0,0.41-0.34,0.75-0.75,0.75h-1.5c-0.41,0-0.75-0.34-0.75-0.75V4.5z"/></svg>