<svg viewBox="0 0 24 24" fill="#44739e" xmlns="http://www.w3.org/2000/svg"><title>hue:room-dining-off</title><desc>Source: https://github.com/arallsopp/hass-hue-icons</desc><path d="M21.97,20.95L2.88,1.86L1.5,3.24L5.25,7v0.98c0,1.52,0.58,2.99,1.62,4.11l0.22,0.23 c0.26,0.28,0.41,0.64,0.41,1.03v6.91c0,0.83,0.67,1.5,1.5,1.5s1.5-0.67,1.5-1.5v-6.91c0-0.3,0.11-0.58,0.28-0.82l5.72,5.72v2 c0,0.82,0.68,1.5,1.5,1.5c0.54,0,1.01-0.29,1.28-0.73l1.31,1.31L21.97,20.95z M12.75,7.98V3c0-0.41-0.34-0.75-0.75-0.75S11.25,2.59,11.25,3v3.75c0,0.41-0.34,0.75-0.75,0.75 S9.75,7.16,9.75,6.75V3c0-0.41-0.34-0.75-0.75-0.75S8.25,2.59,8.25,3v2.69l4.17,4.17C12.62,9.26,12.75,8.63,12.75,7.98z M16.5,12.19v1.75l3,3V3.75c0-0.82-0.68-1.5-1.5-1.5c-0.05,0-0.09,0.01-0.13,0.01 c-1.63,0.12-3.62,2.42-3.62,5.24C14.25,9.55,15.3,11.32,16.5,12.19z M6.75,3c0-0.41-0.34-0.75-0.75-0.75c-0.32,0-0.59,0.21-0.7,0.49l1.45,1.45V3z"/></svg>