<svg viewBox="0 0 24 24" fill="#44739e" xmlns="http://www.w3.org/2000/svg"><title>hue:room-carport-off</title><desc>Source: https://github.com/arallsopp/hass-hue-icons</desc><path d="M1.74,3H0.75C0.34,3,0,3.34,0,3.75v16.5C0,20.66,0.34,21,0.75,21s0.75-0.34,0.75-0.75V6.75 C1.5,6.34,1.84,6,2.25,6h2l2.77,2.77l-0.94,3.62c-0.05,0.22-0.2,0.39-0.4,0.49l-0.75,0.35c-0.26,0.12-0.43,0.39-0.43,0.68v4.06 c0,0.41,0.34,0.75,0.75,0.75H6v1.12c0,0.62,0.51,1.12,1.12,1.12h0.75c0.62,0,1.12-0.5,1.12-1.12v-1.12h6v1.14 c0,0.62,0.51,1.12,1.12,1.12h0.75c0.62,0,1.12-0.5,1.12-1.12v-0.12l2.59,2.59l1.38-1.38L2.88,1.86L1.74,3z M7.12,16.5 C6.5,16.5,6,15.99,6,15.38c0-0.62,0.5-1.12,1.12-1.12s1.12,0.5,1.12,1.12C8.25,15.99,7.75,16.5,7.12,16.5z M8.29,12.74 c-0.52,0-0.9-0.47-0.77-0.94l0.56-1.96l2.91,2.91H8.29z M13.5,16.5h-3c-0.41,0-0.75-0.34-0.75-0.75c0-0.41,0.34-0.75,0.75-0.75 h2.76l0.95,0.95C14.12,16.27,13.84,16.5,13.5,16.5z M19.5,16.94v-3.03c0-0.29-0.17-0.55-0.43-0.68l-0.75-0.35c-0.2-0.1-0.35-0.27-0.4-0.49l-1.12-4.34 c-0.09-0.33-0.39-0.56-0.73-0.56h-6.01L11.56,9h3.51c0.36,0,0.67,0.23,0.76,0.55l0.64,2.25c0.14,0.47-0.24,0.94-0.77,0.94h-0.4 l1.52,1.52c0.02,0,0.03-0.01,0.05-0.01c0.62,0,1.12,0.5,1.12,1.12c0,0.02-0.01,0.03-0.01,0.05L19.5,16.94z M23.25,3H5.56l3,3h13.19c0.41,0,0.75,0.34,0.75,0.75v13.19l0.24,0.24l-0.21,0.21C22.6,20.74,22.89,21,23.25,21 c0.41,0,0.75-0.34,0.75-0.75V3.75C24,3.34,23.66,3,23.25,3z"/></svg>