<svg viewBox="0 0 24 24" fill="#44739e" xmlns="http://www.w3.org/2000/svg"><title>hue:room-other-off</title><desc>Source: https://github.com/arallsopp/hass-hue-icons</desc><path d="M21.97,20.95L2.88,1.86L1.5,3.24l3,3v13.96C4.5,20.64,4.86,21,5.29,21H9v1.49c0,0.46,0.4,0.82,0.86,0.75l9-1.3 c0.36-0.05,0.62-0.35,0.64-0.71l1.09,1.09L21.97,20.95z M6,19.5V7.75l3,3v8.75H6z M10.59,12.34l0.33,0.33 C10.77,12.59,10.66,12.48,10.59,12.34z M9,4.5v1.94l10.5,10.5V2.8c0-0.38-0.27-0.7-0.64-0.75l-9-1.3C9.4,0.69,9,1.05,9,1.51V3H5.56l1.5,1.5H9z"/></svg>