<svg viewBox="0 0 24 24" fill="#44739e" xmlns="http://www.w3.org/2000/svg"><title>hue:room-bedroom-off</title><desc>Source: https://github.com/arallsopp/hass-hue-icons</desc><path d="M1.5,3.24l3,3v3.49c0,0.42,0.34,0.76,0.76,0.76h3.49l1.5,1.5H4.5c-1.66,0-3,1.34-3,3v1.5 c0,0.41,0.34,0.75,0.75,0.75H3V18c0,0.83,0.67,1.5,1.5,1.5S6,18.83,6,18v-0.75h9.5l5.08,5.08l1.38-1.38L2.88,1.86L1.5,3.24z M6.75,9C6.34,9,6,8.66,6,8.25c0-0.14,0.05-0.27,0.12-0.38L7.25,9H6.75z M10.5,7.5c0.41,0,0.75,0.34,0.75,0.75c0,0.13-0.04,0.24-0.09,0.34l1.91,1.91h5.68c0.42,0,0.76-0.34,0.76-0.76 V6c0-0.83-0.67-1.5-1.5-1.5H7.06l3,3H10.5z M13.5,7.5h3.75C17.66,7.5,18,7.84,18,8.25S17.66,9,17.25,9H13.5 c-0.41,0-0.75-0.34-0.75-0.75S13.09,7.5,13.5,7.5z M19.5,12h-4.94l6.38,6.38C20.98,18.26,21,18.13,21,18v-0.75h0.75c0.41,0,0.75-0.34,0.75-0.75V15 C22.5,13.34,21.16,12,19.5,12z"/></svg>