<svg viewBox="0 0 24 24" fill="#44739e" xmlns="http://www.w3.org/2000/svg"><title>hue:room-living-off</title><desc>Source: https://github.com/arallsopp/hass-hue-icons</desc><path d="M1.5,3.24l2.23,2.23C3.29,5.74,3,6.21,3,6.75v1.5c1.66,0,3,1.34,3,3h3.5l1.5,1.5H4.5v-1.5 c0-0.83-0.67-1.5-1.5-1.5s-1.5,0.67-1.5,1.5v4.55c0,0.39,0.31,0.7,0.7,0.7H3v0.75c0,0.83,0.67,1.5,1.5,1.5S6,18.08,6,17.25V16.5 h8.75l5.83,5.83l1.38-1.38L2.88,1.86L1.5,3.24z M18,11.25c0-1.66,1.34-3,3-3v-1.5c0-0.83-0.67-1.5-1.5-1.5H7.81l6,6H18z M21,9.75c-0.83,0-1.5,0.67-1.5,1.5v1.5h-4.19l5.39,5.39c0.19-0.25,0.3-0.56,0.3-0.89V16.5h0.8 c0.39,0,0.7-0.31,0.7-0.7v-4.55C22.5,10.42,21.83,9.75,21,9.75z"/></svg>