<svg viewBox="0 0 24 24" fill="#44739e" xmlns="http://www.w3.org/2000/svg"><title>hue:room-computer-off</title><desc>Source: https://github.com/arallsopp/hass-hue-icons</desc><path d="M1.5,3.24l0.55,0.55C1.73,3.88,1.5,4.16,1.5,4.5v8.25H11l1.5,1.5h-11V15c0,0.41,0.34,0.75,0.75,0.75h9v3h-1.5 C9.34,18.75,9,19.09,9,19.5s0.34,0.75,0.75,0.75h4.5c0.41,0,0.75-0.34,0.75-0.75s-0.34-0.75-0.75-0.75h-1.5v-3H14l6.58,6.58 l1.38-1.38L2.88,1.86L1.5,3.24z M21.75,3.75H6.31l9,9h7.19V4.5C22.5,4.09,22.16,3.75,21.75,3.75z M18.31,15.75h3.44c0.41,0,0.75-0.34,0.75-0.75v-0.75h-5.69L18.31,15.75z"/></svg>