<svg viewBox="0 0 24 24" fill="#44739e" xmlns="http://www.w3.org/2000/svg"><title>hue:sana-alt</title><desc>Source: https://github.com/arallsopp/hass-hue-icons</desc><path d="M21.25,15c0.23-0.94,0.35-1.9,0.35-2.86l0-0.03l0-0.03c0-5.89-4.15-10.69-9.25-10.69 c-0.44,0-0.88,0.04-1.31,0.11C6.19,2.04,2.4,6.6,2.4,12.13c-0.06,3.6,1.65,7,4.58,9.1l0.47,1.52l4.68,0.06l0.01,0 c0.53-0.01,1.06-0.06,1.58-0.17c3.76-0.82,6.69-3.76,7.5-7.52C21.23,15.09,21.24,15.05,21.25,15L21.25,15z M19.44,12.13 c0.07,2.95-1.29,5.75-3.66,7.51h-2.61l-0.13,0.08c-0.99,0.5-2.09,0.74-3.2,0.71c-2.99-1.11-5.16-4.41-5.16-8.29 c0-4.8,3.31-8.7,7.38-8.7S19.44,7.34,19.44,12.13z"/></svg>