<svg viewBox="0 0 24 24" fill="#44739e" xmlns="http://www.w3.org/2000/svg"><title>hue:scene-natural-light</title><desc>Source: https://github.com/arallsopp/hass-hue-icons</desc><path d="M12,6.26c0.47,0,0.85-0.38,0.85-0.84V2.59c0-0.47-0.38-0.85-0.85-0.85s-0.85,0.38-0.85,0.85v2.82 C11.15,5.88,11.53,6.26,12,6.26z M16.66,8.19c0.22,0,0.43-0.08,0.6-0.25l2-2c0.33-0.33,0.33-0.87,0-1.2s-0.87-0.33-1.2,0l-2,2 c-0.33,0.33-0.33,0.87,0,1.2C16.22,8.11,16.44,8.19,16.66,8.19z M6.74,7.94c0.16,0.17,0.38,0.25,0.6,0.25c0.22,0,0.44-0.08,0.6-0.25c0.33-0.33,0.33-0.87,0-1.2l-2-2 c-0.33-0.33-0.87-0.33-1.2,0s-0.33,0.87,0,1.2L6.74,7.94z M6.27,12c0-0.47-0.38-0.85-0.85-0.85H2.59c-0.47,0-0.85,0.38-0.85,0.85s0.38,0.85,0.85,0.85h2.82 C5.88,12.85,6.26,12.47,6.27,12z M15.84,10.19C15.16,8.75,13.7,7.74,12,7.74c-2.35,0-4.26,1.91-4.26,4.26c0,1.73,1.04,3.21,2.52,3.88 C10.71,12.99,12.97,10.7,15.84,10.19z M6.74,16.06l-2,2c-0.33,0.33-0.33,0.87,0,1.2c0.16,0.17,0.38,0.25,0.6,0.25c0.22,0,0.44-0.09,0.6-0.25l2-2 c0.33-0.33,0.33-0.87,0-1.2S7.07,15.73,6.74,16.06z M17.04,11.8c-2.85,0-5.15,2.31-5.15,5.15c0,2.85,2.31,5.15,5.15,5.15c2.85,0,5.15-2.31,5.15-5.15 C22.2,14.11,19.89,11.8,17.04,11.8z M18.08,17.17c0,0.11-0.03,0.21-0.07,0.3c-0.11,0.26-0.36,0.44-0.66,0.44h-2.36 c-0.39,0-0.71-0.32-0.71-0.71c0-0.39,0.32-0.71,0.71-0.71h1.6v-2.77c0-0.41,0.33-0.74,0.74-0.74s0.74,0.33,0.74,0.74V17.17z"/></svg>