<svg viewBox="0 0 24 24" fill="#44739e" xmlns="http://www.w3.org/2000/svg"><title>hue:scene-rest</title><desc>Source: https://github.com/arallsopp/hass-hue-icons</desc><path d="M12,1.91C6.44,1.91,1.91,6.44,1.91,12S6.44,22.09,12,22.09S22.09,17.56,22.09,12S17.56,1.91,12,1.91z M16.53,16.47c-2.15,2.02-5.4,2.49-7.79,1.12c-2.37-1.37-3.64-4.24-3.06-7C5.74,10.3,5.92,9.67,6.3,9.83 c0.38,0.16,0.26,0.98,0.24,1.45c-0.09,2.12,1.28,4.16,3.32,4.94c1.79,0.68,3.67,0.21,4.89-1.23c1.06-1.25,1.21-2.83,0.41-4.24 c-0.76-1.34-1.84-1.77-3.64-1.43c-1.49,0.28-2.6-0.34-2.77-1.54C8.6,6.7,9.51,5.78,10.95,5.58c2.88-0.4,5.68,1.12,6.91,3.75 C18.97,11.73,18.42,14.69,16.53,16.47z"/></svg>