<svg viewBox="0 0 24 24" fill="#44739e" xmlns="http://www.w3.org/2000/svg"><title>hue:scene-dimmed</title><desc>Source: https://github.com/arallsopp/hass-hue-icons</desc><path d="M12,7.74c-2.35,0-4.26,1.91-4.26,4.26s1.91,4.26,4.26,4.26s4.26-1.91,4.26-4.26S14.35,7.74,12,7.74z M12,14.74 V9.26c1.51,0,2.74,1.23,2.74,2.74S13.51,14.74,12,14.74z M12,6.26c-0.23,0-0.44-0.09-0.6-0.25c-0.08-0.08-0.14-0.17-0.19-0.27c-0.04-0.1-0.06-0.21-0.06-0.33 c0-0.11,0.02-0.22,0.06-0.32c0.05-0.11,0.11-0.2,0.19-0.28c0.08-0.08,0.17-0.14,0.27-0.18c0.21-0.09,0.45-0.09,0.66,0 c0.1,0.04,0.19,0.1,0.27,0.18c0.08,0.08,0.14,0.17,0.18,0.28c0.05,0.1,0.07,0.21,0.07,0.32c0,0.12-0.02,0.23-0.06,0.33 c-0.05,0.1-0.11,0.19-0.19,0.27s-0.17,0.15-0.28,0.19C12.22,6.24,12.11,6.26,12,6.26z M12,19.44c-0.23,0-0.44-0.09-0.6-0.25c-0.16-0.16-0.25-0.38-0.25-0.6c0-0.11,0.02-0.22,0.06-0.33 c0.05-0.1,0.11-0.2,0.19-0.28c0.08-0.07,0.17-0.14,0.27-0.18c0.21-0.08,0.45-0.08,0.66,0c0.1,0.04,0.19,0.11,0.27,0.18 c0.08,0.08,0.14,0.18,0.18,0.28c0.05,0.11,0.07,0.22,0.07,0.33c0,0.22-0.09,0.44-0.25,0.6c-0.08,0.08-0.17,0.14-0.28,0.18 C12.22,19.41,12.11,19.44,12,19.44z M16.66,8.19c-0.12,0-0.23-0.02-0.33-0.06c-0.1-0.04-0.19-0.11-0.27-0.19s-0.15-0.17-0.19-0.27 s-0.06-0.21-0.06-0.33c0-0.11,0.02-0.22,0.06-0.32c0.05-0.11,0.11-0.2,0.19-0.28c0.31-0.31,0.88-0.31,1.2,0 c0.16,0.16,0.25,0.38,0.25,0.6c0,0.23-0.09,0.44-0.25,0.6C17.1,8.1,16.88,8.19,16.66,8.19z M7.32,17.51c-0.22,0-0.43-0.08-0.59-0.24c-0.33-0.33-0.34-0.86-0.01-1.19l0.03-0.03 c0.33-0.33,0.87-0.33,1.2,0c0.33,0.33,0.33,0.87,0,1.2C7.77,17.43,7.55,17.51,7.32,17.51z M18.59,12.85c-0.12,0-0.23-0.02-0.33-0.06c-0.1-0.05-0.19-0.11-0.27-0.19c-0.08-0.08-0.15-0.17-0.19-0.27 c-0.04-0.11-0.06-0.22-0.06-0.33c0-0.11,0.02-0.22,0.06-0.32c0.04-0.11,0.11-0.2,0.19-0.28c0.31-0.32,0.88-0.32,1.2,0 c0.16,0.16,0.25,0.38,0.25,0.6c0,0.11-0.03,0.22-0.07,0.33c-0.04,0.1-0.1,0.19-0.18,0.27C19.02,12.76,18.81,12.85,18.59,12.85z M5.41,12.85c-0.22,0-0.44-0.09-0.6-0.25S4.56,12.23,4.56,12c0-0.23,0.09-0.44,0.25-0.6 c0.24-0.24,0.61-0.32,0.93-0.18c0.1,0.04,0.2,0.1,0.27,0.18c0.16,0.16,0.25,0.37,0.25,0.6c0,0.23-0.09,0.44-0.25,0.6 S5.64,12.85,5.41,12.85z M16.66,17.51c-0.12,0-0.23-0.03-0.33-0.07c-0.1-0.04-0.19-0.1-0.27-0.18s-0.15-0.17-0.19-0.28 c-0.04-0.1-0.06-0.21-0.06-0.32c0-0.12,0.02-0.22,0.06-0.33c0.05-0.1,0.11-0.2,0.19-0.27c0.31-0.32,0.88-0.32,1.2,0 c0.16,0.15,0.25,0.37,0.25,0.6c0,0.22-0.09,0.44-0.25,0.6c-0.08,0.08-0.18,0.14-0.28,0.18C16.88,17.48,16.77,17.51,16.66,17.51z M7.34,8.19c-0.22,0-0.44-0.09-0.6-0.25c-0.16-0.16-0.25-0.37-0.25-0.6c0-0.11,0.03-0.22,0.07-0.32 c0.04-0.11,0.1-0.2,0.18-0.28c0.32-0.31,0.88-0.32,1.2,0c0.08,0.08,0.14,0.17,0.19,0.28c0.04,0.1,0.06,0.21,0.06,0.32 c0,0.12-0.02,0.22-0.06,0.33c-0.04,0.1-0.11,0.19-0.19,0.27S7.77,8.09,7.67,8.13C7.56,8.17,7.46,8.19,7.34,8.19z"/></svg>