<svg viewBox="0 0 24 24" fill="#44739e" xmlns="http://www.w3.org/2000/svg"><title>hue:scene-bright</title><desc>Source: https://github.com/arallsopp/hass-hue-icons</desc><path d="M12,7.74c-2.35,0-4.26,1.91-4.26,4.26s1.91,4.26,4.26,4.26s4.26-1.91,4.26-4.26S14.35,7.74,12,7.74z M12,6.26c-0.47,0-0.85-0.38-0.85-0.85V2.59c0-0.47,0.38-0.85,0.85-0.85c0.47,0,0.85,0.38,0.85,0.85v2.83 C12.85,5.88,12.47,6.26,12,6.26z M12,22.26c-0.47,0-0.85-0.38-0.85-0.85v-2.83c0-0.47,0.38-0.85,0.85-0.85c0.47,0,0.85,0.38,0.85,0.85v2.83 C12.85,21.88,12.47,22.26,12,22.26z M16.66,8.19c-0.22,0-0.44-0.08-0.6-0.25c-0.33-0.33-0.33-0.87,0-1.2l2-2c0.33-0.33,0.87-0.33,1.2,0 c0.33,0.33,0.33,0.87,0,1.2l-2,2C17.09,8.11,16.88,8.19,16.66,8.19z M5.34,19.51c-0.22,0-0.44-0.08-0.6-0.25c-0.33-0.33-0.33-0.87,0-1.2l2-2c0.33-0.33,0.87-0.33,1.2,0 c0.33,0.33,0.33,0.87,0,1.2l-2,2C5.78,19.42,5.56,19.51,5.34,19.51z M21.41,12.85h-2.83c-0.47,0-0.85-0.38-0.85-0.85c0-0.47,0.38-0.85,0.85-0.85h2.83c0.47,0,0.85,0.38,0.85,0.85 C22.26,12.47,21.88,12.85,21.41,12.85z M5.41,12.85H2.59c-0.47,0-0.85-0.38-0.85-0.85c0-0.47,0.38-0.85,0.85-0.85h2.83c0.47,0,0.85,0.38,0.85,0.85 C6.26,12.47,5.88,12.85,5.41,12.85z M18.66,19.51c-0.22,0-0.44-0.08-0.6-0.25l-2-2c-0.33-0.33-0.33-0.87,0-1.2c0.33-0.33,0.87-0.33,1.2,0l2,2 c0.33,0.33,0.33,0.87,0,1.2C19.09,19.42,18.87,19.51,18.66,19.51z M7.34,8.19c-0.22,0-0.44-0.08-0.6-0.25l-2-2c-0.33-0.33-0.33-0.87,0-1.2s0.87-0.33,1.2,0l2,2 c0.33,0.33,0.33,0.87,0,1.2C7.78,8.11,7.56,8.19,7.34,8.19z"/></svg>