<svg
    xmlns="http://www.w3.org/2000/svg"
    viewBox="0 0 24 24"
    height="24px"
    width="24px">
    <path d="M15.76068,8.15125l-.00061.00006a.47667.47667,0,0,0-.261-.372,11.84006,11.84006,0,0,0-1.85577-.7,13.29891,13.29891,0,0,0-1.6806-.34888l-.026-4.77271-.00037-.0039c-.00446-.42981-.43823-.70722-1.10822-.70722-.6734,0-1.10858.28015-1.10858.71375l.00013.00152-.00013.0011.02674,4.89893c-.637.26056-1.04364.70917-1.04419,1.12573H8.702v12.3526c0,.57184,1.08868,2.41309,2.004,2.41309a12.58643,12.58643,0,0,0,2.68378-.87574c2.19257-.91955,2.37415-1.30993,2.37415-1.66009V8.26263A.68839.68839,0,0,0,15.76068,8.15125Zm-2.9151.86914a12.31547,12.31547,0,0,1-2.15924.52252.89152.89152,0,0,1-.59064-.28681,1.68425,1.68425,0,0,1-.43817-1.20776.59256.59256,0,0,1,.09473-.09442l.00018.03461c0,.43359.43512.71374,1.10858.71374.6734,0,1.10858-.28015,1.10858-.71374l-.00018-.00123L11.9696,7.986,11.968,7.69562a12.2535,12.2535,0,0,1,1.41546.302A11.03511,11.03511,0,0,1,14.48,8.37451,9.65452,9.65452,0,0,1,12.84558,9.02039Z"/>
</svg>
