<svg viewBox="0 0 24 24" fill="#44739e" xmlns="http://www.w3.org/2000/svg"><title>hue:signe-gradient-floor-off</title><desc>Source: https://github.com/arallsopp/hass-hue-icons</desc><path d="M21.97,20.95L2.88,1.86L1.5,3.24l7.2,7.2v3.45c-0.3,0.3-0.6,0.6-0.6,1v0.3v6.3c0,0.1,0,0.1,0,0.2 c0.2,1.1,2.2,1.7,4.1,1.7c1.9,0,3.9-0.6,4.1-1.7c0-0.1,0-0.1,0-0.2v-3.45l4.29,4.29L21.97,20.95z M11.2,14c0,0.1-0.2,0.3-0.5,0.3 s-0.5-0.2-0.5-0.3v-2.05l1,1V14z M10.2,1.9h1v6.74l1,1V1.4c0-0.3-0.2-0.5-0.5-0.5H9.8H9.2c-0.3,0-0.5,0.2-0.5,0.5v4.74l1.5,1.5V1.9z"/></svg>