<svg viewBox="0 0 24 24" height="24px" width="24px" fill="#44739e" xmlns="http://www.w3.org/2000/svg"><title>hue:signe-gradient-floor</title><desc>Source: https://github.com/arallsopp/hass-hue-icons</desc><path d="M10.2,13V1.4c0-0.3-0.2-0.5-0.5-0.5H7.8H7.2c-0.3,0-0.5,0.2-0.5,0.5v12.5c-0.3,0.3-0.6,0.6-0.6,1v0.3v6.3c0,0.1,0,0.1,0,0.2 c0.2,1.1,2.2,1.7,4.1,1.7s3.9-0.6,4.1-1.7c0-0.1,0-0.1,0-0.2v-6.3v-0.3C14.5,13.5,12.3,12.9,10.2,13z M9.2,14c0,0.1-0.2,0.3-0.5,0.3 c-0.3,0-0.5-0.2-0.5-0.3V1.9h1V14z"/></svg>