<svg viewBox="0 0 24 24" fill="#44739e" xmlns="http://www.w3.org/2000/svg"><title>hue:socket-uk</title><desc>Source: https://github.com/arallsopp/hass-hue-icons</desc><path d="M22.36,10.17l0-2.09c0-1.04,0-2.09,0-3.13c0.01-0.82-0.29-1.61-0.84-2.22c-0.57-0.67-1.39-1.06-2.27-1.09 c-0.64-0.02-1.29-0.02-1.92-0.01l-0.69,0l-4.31,0l-1.72,0l-1.35,0c-1.35,0-2.69,0-4.04,0c-0.3-0.01-0.59,0.01-0.89,0.05 C3.37,1.85,2.51,2.46,2.04,3.34c-0.28,0.5-0.42,1.07-0.41,1.65c0,0.77,0,1.54,0,2.32l0,3.65l0,8.07c0,0.13,0,0.26,0.02,0.4 C1.72,20.1,2,20.75,2.46,21.26c0.56,0.66,1.37,1.05,2.23,1.09c0.34,0.02,0.68,0.02,1.01,0.02c0.14,0,0.27,0,0.41,0l0.41,0 c1.37,0,2.74,0,4.11,0l1.53,0l2.32,0c1.53,0,3.05,0,4.58,0c0.84,0.01,1.65-0.31,2.26-0.89c0.68-0.63,1.06-1.53,1.04-2.46 c0-1.73,0-3.46,0-5.18L22.36,10.17z M21.34,19.07c0.01,1.08-0.75,2.01-1.8,2.23c-0.17,0.03-0.35,0.05-0.53,0.05 c-1.74,0-3.48,0-5.22,0H4.96c-1.03,0.02-1.94-0.66-2.22-1.65c-0.06-0.2-0.09-0.4-0.09-0.6c0-3.05-0.01-6.1,0-9.16l0-3.12 c0-0.62,0-1.25,0-1.87C2.64,3.88,3.37,2.95,4.4,2.72c0.27-0.05,0.55-0.07,0.83-0.06c1.56,0,3.12,0,4.69,0h5.18c1.34,0,2.67,0,4.01,0 c1.09,0.01,2.01,0.8,2.2,1.88c0.02,0.15,0.04,0.31,0.04,0.47c0,2.34,0,4.67,0,7.01L21.34,19.07z M11.5,9.1h1v2.03h-1V9.1z M9.05,13.62h1.61v1h-1.6L9.05,13.62z M13.45,14.62h1.6v-1h-1.6V14.62z M16,6.5H8C7.17,6.5,6.5,7.17,6.5,8v8 c0,0.83,0.67,1.5,1.5,1.5h8c0.83,0,1.5-0.67,1.5-1.5V8C17.5,7.17,16.83,6.5,16,6.5z M16.5,16c0,0.28-0.22,0.5-0.5,0.5H8 c-0.28,0-0.5-0.22-0.5-0.5V8c0-0.28,0.22-0.5,0.5-0.5h8c0.28,0,0.5,0.22,0.5,0.5V16z"/></svg>