<svg viewBox="0 0 24 24" fill="#44739e" xmlns="http://www.w3.org/2000/svg"><title>hue:socket-eu</title><desc>Source: https://github.com/arallsopp/hass-hue-icons</desc><path d="M22.36,10.17V8.08c0-1.04,0-2.09,0-3.13c0.01-0.82-0.29-1.61-0.84-2.22c-0.57-0.67-1.39-1.06-2.27-1.09 c-0.64-0.02-1.29-0.02-1.92-0.01h-0.69h-4.31h-1.72H9.26c-1.35,0-2.69,0-4.04,0c-0.3-0.01-0.59,0.01-0.89,0.05 C3.37,1.85,2.51,2.46,2.04,3.34c-0.28,0.5-0.42,1.07-0.41,1.65c0,0.77,0,1.54,0,2.32v3.65v8.07c0,0.13,0,0.26,0.02,0.4 C1.72,20.1,2,20.75,2.46,21.26c0.56,0.66,1.37,1.05,2.23,1.09c0.34,0.02,0.68,0.02,1.01,0.02c0.14,0,0.27,0,0.41,0h0.41 c1.37,0,2.74,0,4.11,0h1.53h2.32c1.53,0,3.05,0,4.58,0c0.84,0.01,1.65-0.31,2.26-0.89c0.68-0.63,1.06-1.53,1.04-2.46 c0-1.73,0-3.46,0-5.18L22.36,10.17z M21.34,19.07c0.01,1.08-0.75,2.01-1.8,2.23c-0.17,0.03-0.35,0.05-0.53,0.05 c-1.74,0-3.48,0-5.22,0H4.96c-1.03,0.02-1.94-0.66-2.22-1.65c-0.06-0.2-0.09-0.4-0.09-0.6c0-3.05-0.01-6.1,0-9.16V6.82 c0-0.62,0-1.25,0-1.87c-0.01-1.07,0.72-2,1.75-2.23c0.27-0.05,0.55-0.07,0.83-0.06c1.56,0,3.12,0,4.69,0h5.18c1.34,0,2.67,0,4.01,0 c1.09,0.01,2.01,0.8,2.2,1.88c0.02,0.15,0.04,0.31,0.04,0.47c0,2.34,0,4.67,0,7.01L21.34,19.07z M12,5.81L12,5.81 c-3.4,0.02-6.15,2.75-6.19,6.14c-0.03,3.41,2.7,6.19,6.11,6.22c0.02,0,0.05,0,0.07,0h0.02c3.41-0.01,6.17-2.79,6.16-6.2 C18.17,8.57,15.41,5.82,12,5.81L12,5.81z M13.28,16.85v-1.31h-2.57v1.31c-2.68-0.71-4.28-3.45-3.57-6.13 C7.6,8.98,8.96,7.61,10.7,7.15v1.31h2.57V7.15c2.68,0.7,4.28,3.45,3.58,6.12C16.4,15.02,15.03,16.39,13.28,16.85z M9.53,10.47 L9.53,10.47c-0.86-0.01-1.55,0.68-1.55,1.52V12c0,0.85,0.69,1.54,1.53,1.54l0,0l0,0c0.41,0,0.81-0.16,1.1-0.46 c0.29-0.29,0.44-0.68,0.44-1.08C11.05,11.15,10.37,10.47,9.53,10.47z M9.52,12.61c-0.33,0-0.61-0.27-0.6-0.61 c0-0.33,0.27-0.61,0.61-0.6c0.33,0,0.61,0.27,0.6,0.61c0,0.01,0,0.01,0,0.02C10.11,12.35,9.84,12.6,9.52,12.61L9.52,12.61z M14.47,10.47c-0.4,0-0.79,0.16-1.07,0.45c-0.6,0.6-0.6,1.57,0,2.17c0.29,0.29,0.67,0.45,1.08,0.45l0,0c0.41,0,0.8-0.16,1.09-0.45 s0.45-0.68,0.45-1.08C16.01,11.15,15.32,10.46,14.47,10.47L14.47,10.47z M15.09,12c0,0.34-0.27,0.61-0.6,0.61s-0.61-0.27-0.61-0.6 s0.27-0.61,0.6-0.61C14.81,11.39,15.08,11.66,15.09,12C15.09,11.99,15.09,11.99,15.09,12L15.09,12z"/></svg>