<svg viewBox="0 0 24 24" fill="#44739e" xmlns="http://www.w3.org/2000/svg"><title>hue:socket-us</title><desc>Source: https://github.com/arallsopp/hass-hue-icons</desc><path d="M22.36,10.17l0-2.09c0-1.04,0-2.09,0-3.13c0.01-0.82-0.29-1.61-0.84-2.22c-0.57-0.67-1.39-1.06-2.27-1.09 c-0.64-0.02-1.29-0.02-1.92-0.01l-0.69,0l-4.31,0l-1.72,0l-1.35,0c-1.35,0-2.69,0-4.04,0c-0.3-0.01-0.59,0.01-0.89,0.05 C3.37,1.85,2.51,2.46,2.04,3.34c-0.28,0.5-0.42,1.07-0.41,1.65c0,0.77,0,1.54,0,2.32l0,3.65l0,8.07c0,0.13,0,0.26,0.02,0.4 C1.72,20.1,2,20.75,2.46,21.26c0.56,0.66,1.37,1.05,2.23,1.09c0.34,0.02,0.68,0.02,1.01,0.02c0.14,0,0.27,0,0.41,0l0.41,0 c1.37,0,2.74,0,4.11,0l1.53,0l2.32,0c1.53,0,3.05,0,4.58,0c0.84,0.01,1.65-0.31,2.26-0.89c0.68-0.63,1.06-1.53,1.04-2.46 c0-1.73,0-3.46,0-5.18L22.36,10.17z M21.34,19.07c0.01,1.08-0.75,2.01-1.8,2.23c-0.17,0.03-0.35,0.05-0.53,0.05 c-1.74,0-3.48,0-5.22,0H4.96c-1.03,0.02-1.94-0.66-2.22-1.65c-0.06-0.2-0.09-0.4-0.09-0.6c0-3.05-0.01-6.1,0-9.16l0-3.12 c0-0.62,0-1.25,0-1.87C2.64,3.88,3.37,2.95,4.4,2.72c0.27-0.05,0.55-0.07,0.83-0.06c1.56,0,3.12,0,4.69,0h5.18c1.34,0,2.67,0,4.01,0 c1.09,0.01,2.01,0.8,2.2,1.88c0.02,0.15,0.04,0.31,0.04,0.47c0,2.34,0,4.67,0,7.01L21.34,19.07z M16.26,7.77H8.01 c-0.15,0-0.3,0.07-0.39,0.19C6.71,9.13,6.15,10.53,6.01,12c0.14,1.47,0.7,2.87,1.61,4.04c0.09,0.12,0.24,0.19,0.39,0.19h8.3 c0.16,0,0.31-0.08,0.4-0.2c0.86-1.17,1.37-2.55,1.49-4c-0.15-1.46-0.68-2.85-1.54-4.05C16.57,7.85,16.42,7.77,16.26,7.77z M16.05,15.23H8.26C7.56,14.29,7.12,13.17,7.01,12c0.12-1.17,0.55-2.29,1.26-3.23h7.72c0.67,0.97,1.09,2.09,1.21,3.26 C17.1,13.18,16.71,14.28,16.05,15.23L16.05,15.23z M13.3,11.93c-0.3-0.3-0.71-0.46-1.14-0.43c-0.76-0.08-1.43,0.47-1.51,1.23 c0,0.03-0.01,0.06-0.01,0.09v1.63h2.96l0-1.63C13.62,12.5,13.51,12.18,13.3,11.93z M12.6,13.45h-0.96v-0.62 c0.01-0.15,0.1-0.33,0.52-0.33c0.14-0.01,0.28,0.02,0.39,0.1c0.04,0.05,0.06,0.11,0.05,0.18L12.6,13.45z M10.69,11.55h-1v-1.8h1 V11.55z M13.5,11.55h1v-1.8h-1V11.55z"/></svg>