<svg viewBox="0 0 24 24" fill="#44739e" xmlns="http://www.w3.org/2000/svg"><title>hue:struana-alt</title><desc>Source: https://github.com/arallsopp/hass-hue-icons</desc><path d="M21.74,10.67c-0.01-0.04-0.02-0.07-0.03-0.11c-0.01-0.03-0.05-0.1-0.11-0.18c0.02-0.06,0.05-0.12,0.05-0.18 c0-2.27-4.15-3.98-9.65-3.98S2.35,7.93,2.35,10.2c0,0.09,0.03,0.18,0.07,0.26c-0.04,0.07-0.06,0.13-0.07,0.16 c0,0.01-0.01,0.02-0.01,0.03c-0.07,0.28-0.65,2.81,0.31,4.21c1.04,1.5,6.21,2.92,9.45,2.92c3.52,0,7.58-1.37,8.86-2.6 C22.33,13.87,21.8,11,21.74,10.67z M20.28,14.46c-1.09,1.05-4.98,2.32-8.17,2.32c-3.33,0-7.92-1.46-8.63-2.48 c-0.59-0.86-0.33-2.69-0.17-3.37c0.09-0.19,1.29-2.21,8.57-2.21c7.14,0,8.72,1.96,8.9,2.23C20.92,11.73,21.07,13.7,20.28,14.46z M11.9,12.53c-3.42,0-6.74,0.83-6.18,1.23c1.63,1.17,2.32,0.95,3.53,0.64c0.68,0.26,1.74,0.36,2.76,0.36 c0.98,0,1.99-0.1,2.67-0.34c1.14,0.29,1.83,0.47,3.41-0.67C18.63,13.36,15.31,12.53,11.9,12.53z"/></svg>