<svg viewBox="0 0 24 24" fill="#44739e" xmlns="http://www.w3.org/2000/svg"><title>hue:sync-music-alt-off</title><desc>Source: https://github.com/arallsopp/hass-hue-icons</desc><path d="M22.52,22.17L1.68,1.33L0.3,2.71l1.24,1.24v17.01c0,0.83,0.67,1.5,1.5,1.5h17.01l1.09,1.09L22.52,22.17z M10.69,19.31c0,0.42-0.34,0.76-0.75,0.76H7.1c-0.42,0-0.75-0.34-0.75-0.76v-0.95H5.19c-0.21,0-0.38-0.17-0.38-0.38v-2.31 c-0.54-1.11-0.83-2.33-0.83-3.6c0-1.62,0.48-3.13,1.28-4.4l0.81,0.81C5.46,9.53,5.1,10.75,5.1,12.06c0,0.85,0.16,1.68,0.44,2.45 h0.8V14c0-0.42,0.34-0.76,0.75-0.76h2.85c0.42,0,0.75,0.34,0.75,0.76V19.31z M16.91,20.07h-2.85c-0.42,0-0.75-0.34-0.75-0.76v-3.59 l4.13,4.13C17.3,19.99,17.11,20.07,16.91,20.07z M18.45,14.51c0.28-0.78,0.43-1.61,0.43-2.45c0-3.86-3.09-7.01-6.89-7.01c-1.42,0-2.75,0.44-3.85,1.2l6.99,6.99 h1.77c0.42,0,0.75,0.34,0.75,0.76v0.51H18.45z M12,3.92c4.42,0,8.01,3.66,8.01,8.15c0,1.25-0.28,2.48-0.81,3.58v1.65l3.26,3.26V3.04c0-0.83-0.67-1.5-1.5-1.5 H3.44l3.91,3.91C8.66,4.49,10.26,3.92,12,3.92z"/></svg>