<svg viewBox="0 0 24 24" fill="#44739e" xmlns="http://www.w3.org/2000/svg"><title>hue:sync-music-off</title><desc>Source: https://github.com/arallsopp/hass-hue-icons</desc><path d="M0.3,2.71l3.1,3.1c-1.29,1.76-2.07,3.92-2.07,6.27c0,1.67,0.39,3.27,1.1,4.71v3.02c0,0.28,0.22,0.5,0.5,0.5 h1.54v1.24c0,0.55,0.45,1,1,1h3.8c0.55,0,1-0.45,1-1v-6.94c0-0.55-0.45-1-1-1h-3.8c-0.55,0-1,0.45-1,1v0.66H3.42 c-0.38-1.01-0.58-2.09-0.58-3.2c0-1.93,0.61-3.71,1.64-5.19l9.25,9.25v5.42c0,0.55,0.45,1,1,1h3.8c0.44,0,0.8-0.29,0.94-0.68 l1.67,1.67l1.38-1.38L1.68,1.33L0.3,2.71z M12,2.92c5.05,0,9.16,4.11,9.16,9.16c0,1.1-0.2,2.19-0.58,3.2h-1.05v-0.66c0-0.55-0.45-1-1-1h-3.01l6.05,6.05 v-2.9c0.71-1.44,1.09-3.04,1.09-4.68c0-5.88-4.78-10.66-10.66-10.66c-2.43,0-4.67,0.83-6.47,2.21L6.6,4.7 C8.11,3.59,9.98,2.92,12,2.92z"/></svg>