<svg viewBox="0 0 24 24" fill="#44739e" xmlns="http://www.w3.org/2000/svg"><title>hue:sync-intense-off</title><desc>Source: https://github.com/arallsopp/hass-hue-icons</desc><path d="M22.52,22.17L1.68,1.33L0.3,2.71l1.24,1.24v17.01c0,0.83,0.67,1.5,1.5,1.5h17.01l1.09,1.09L22.52,22.17z M5.68,12.08c0,0,0,0-0.01,0c-0.28,0-0.5-0.23-0.49-0.51c0.01-0.48,0.07-2.22,0.67-3.31L6.6,9.01c-0.25,0.64-0.41,1.64-0.42,2.58 C6.18,11.86,5.95,12.08,5.68,12.08z M10.18,16.5c-1.53-0.01-1.76-2.2-2.03-4.54c-0.06-0.47-0.13-1.05-0.22-1.61l1.17,1.17 c0.01,0.11,0.03,0.21,0.04,0.32c0.16,1.37,0.42,3.66,1.03,3.66c0.4-0.01,0.71-0.93,0.94-1.97l0.83,0.83 C11.6,15.59,11.11,16.49,10.18,16.5z M13.83,8.35c-0.55,0-0.9,1.17-1.17,2.42l2.37,2.37c-0.03-0.28-0.06-0.57-0.09-0.86 C14.79,10.72,14.56,8.35,13.83,8.35z M13.83,7.34c1.63,0,1.88,2.45,2.12,4.83c0.06,0.6,0.15,1.45,0.28,2.16l0.95,0.95c0.35-0.62,0.62-1.92,0.66-3.1 c0.01-0.28,0.26-0.49,0.52-0.48c0.28,0.01,0.49,0.24,0.48,0.52c-0.03,0.53-0.17,2.65-0.97,3.76l4.59,4.59V3.04 c0-0.83-0.67-1.5-1.5-1.5H3.44l8.4,8.4C12.2,8.48,12.73,7.34,13.83,7.34z"/></svg>