<svg viewBox="0 0 24 24" fill="#44739e" xmlns="http://www.w3.org/2000/svg"><title>hue:sync-moderate</title><desc>Source: https://github.com/arallsopp/hass-hue-icons</desc><path d="M20.96,1.54H3.04c-0.83,0-1.5,0.67-1.5,1.5v17.92c0,0.83,0.67,1.5,1.5,1.5h17.92c0.83,0,1.5-0.67,1.5-1.5V3.04 C22.46,2.21,21.79,1.54,20.96,1.54z M18.78,12.34c-0.04,0.09-1.1,2.18-3.43,2.18c-1.21,0-2.48-1.09-3.82-2.25 c-1.15-0.99-2.33-2-3.17-2c-1.65,0-2.19,1.5-2.21,1.56c-0.09,0.26-0.37,0.4-0.63,0.31c-0.26-0.09-0.4-0.37-0.31-0.63 c0.26-0.78,1.25-2.24,3.15-2.24c1.21,0,2.48,1.09,3.82,2.25c1.15,0.99,2.33,2.01,3.17,2.01c1.7,0,2.5-1.56,2.54-1.62 c0.12-0.24,0.42-0.35,0.67-0.22C18.8,11.8,18.9,12.1,18.78,12.34z"/></svg>