<svg viewBox="0 0 24 24" fill="#44739e" xmlns="http://www.w3.org/2000/svg"><title>hue:sync-music-alt</title><desc>Source: https://github.com/arallsopp/hass-hue-icons</desc><path d="M20.96,1.54H3.04c-0.83,0-1.5,0.67-1.5,1.5v17.92c0,0.83,0.67,1.5,1.5,1.5h17.92c0.83,0,1.5-0.67,1.5-1.5V3.04 C22.46,2.21,21.79,1.54,20.96,1.54z M19.2,15.65v2.33c0,0.21-0.17,0.38-0.38,0.38h-1.16v0.95c0,0.42-0.34,0.76-0.75,0.76h-2.85 c-0.42,0-0.75-0.34-0.75-0.76v-5.31c0-0.42,0.34-0.76,0.75-0.76h2.85c0.42,0,0.75,0.34,0.75,0.76v0.51h0.79 c0.28-0.78,0.43-1.61,0.43-2.45c0-3.86-3.09-7.01-6.89-7.01c-3.8,0-6.89,3.14-6.89,7.01c0,0.85,0.16,1.68,0.44,2.45h0.8v-0.51 c0-0.42,0.34-0.76,0.75-0.76h2.85c0.42,0,0.75,0.34,0.75,0.76v5.31c0,0.42-0.34,0.76-0.75,0.76H7.1c-0.42,0-0.75-0.34-0.75-0.76 v-0.95H5.19c-0.21,0-0.38-0.17-0.38-0.38v-2.31c-0.54-1.11-0.83-2.33-0.83-3.6c0-4.5,3.6-8.15,8.02-8.15c4.42,0,8.01,3.66,8.01,8.15 C20.01,13.32,19.73,14.55,19.2,15.65z"/></svg>