<svg viewBox="0 0 24 24" fill="#44739e" xmlns="http://www.w3.org/2000/svg"><title>hue:sync-box-alt-off</title><desc>Source: https://github.com/arallsopp/hass-hue-icons</desc><path d="M0.3,2.71l3.91,3.91L1,8c0,0-0.5,0.2-0.5,0.6v2.8C0.6,11.8,1,12,1,12l14.4,6c0,0,0.11,0.03,0.26,0.07 l5.48,5.48l1.38-1.38L1.68,1.33L0.3,2.71z M5.8,9.1c-0.1,0-0.2,0-0.2,0C5.5,9,5.4,8.9,5.4,8.9c0-0.1,0.1-0.2,0.2-0.2l0.49-0.2 l0.4,0.4C6.3,9,6.2,9,6.1,9.1C6,9.1,5.9,9.1,5.8,9.1z M7.31,9.72l0.17,0.17C7.39,9.88,7.32,9.81,7.31,9.72z M11.3,15.2 c-0.2,0-0.4-0.2-0.4-0.4s0.2-0.4,0.4-0.4s0.4,0.2,0.4,0.4S11.5,15.2,11.3,15.2z M13.8,16.3c-0.1,0-0.1,0.1-0.2,0.1 c-0.1,0-0.1,0-0.2,0L12.7,16c0,0-0.4-0.1-0.4-0.8c0-0.2,0.1-0.3,0.1-0.3c0.02-0.01,0.04-0.02,0.06-0.02l1.38,1.38 C13.83,16.27,13.81,16.29,13.8,16.3z M15.9,11.6c0.1,0,0.1,0,0.1,0c0.2-0.1,0.3-0.2,0.3-0.3c0-0.1-0.1-0.2-0.2-0.3c-0.5-0.3-1.2-0.3-1.8-0.1 c0.2,0.1,0.3,0.1,0.5,0.2l0.2,0.1L15.9,11.6z M23,10.8L8.6,5.6c0,0-0.5-0.2-1-0.2c-0.1,0-0.19,0.01-0.28,0.02l1.83,1.82C9.16,7.23,9.17,7.23,9.2,7.2 c0.1,0,0.3,0,0.4,0c0,0,0.2,0.1,0.2,0.2c0,0,0,0.1-0.1,0.2c0,0-0.06,0.05-0.13,0.07l1.29,1.29C10.9,8.94,10.95,8.92,11,8.9l0.1-0.1 c0.2-0.1,0.4-0.1,0.5,0c0.1,0,0.2,0.1,0.2,0.2s-0.1,0.2-0.2,0.2l-0.34,0.17l0.84,0.84c0,0,0,0,0,0c0-0.1,0.1-0.1,0.2-0.2 c0,0,0.1,0,0.1-0.1c0.2-0.1,0.5-0.2,0.7-0.3c0.2-0.1,0.4-0.1,0.5,0c0.1,0,0.2,0.1,0.2,0.2c0,0.1-0.1,0.2-0.2,0.2L13,10.3 c-0.1,0-0.2,0.1-0.3,0.1c-0.1,0-0.1,0-0.2,0s-0.1,0-0.2,0h0l0.6,0.6c0.04-0.03,0.06-0.08,0.11-0.1c-0.1,0-0.1-0.1-0.2-0.1 c0-0.1,0-0.2,0.1-0.2c0.1,0,0.2,0,0.2,0c0.1,0,0.1,0,0.2,0c0.2,0.1,0.2,0.1,0.4,0c1.4-0.4,3.1,0,3.3,0.6c0.2,0.4-0.5,0.7-0.8,0.8 c-0.2,0.1-0.4,0-0.5,0c-0.2-0.1-0.4-0.1-0.5-0.2l-1.5-0.6c-0.1,0-0.1,0-0.2,0c-0.08,0.08-0.14,0.16-0.17,0.23l0.36,0.36 c0,0,0,0,0.01,0c0.3,0.1,0.6,0.2,1,0.3c0.1,0,0.1,0,0.2,0c0.1,0,0.2,0.1,0.2,0.2c0,0.1,0,0.1,0,0.2c-0.1,0.1-0.2,0.1-0.3,0.1h-0.1 h-0.1c-0.05-0.01-0.09-0.02-0.13-0.03l4.62,4.62L23,14.9c0,0,0.4-0.2,0.4-0.6v-2.8C23.4,11,23,10.8,23,10.8z"/></svg>