<svg viewBox="0 0 24 24" fill="#44739e" xmlns="http://www.w3.org/2000/svg"><title>hue:sync-box-alt</title><desc>Source: https://github.com/arallsopp/hass-hue-icons</desc><path d="M16.1,11c-0.5-0.3-1.2-0.3-1.8-0.1c0.2,0.1,0.3,0.1,0.5,0.2l0.2,0.1l0,0l0.9,0.4c0.1,0,0.1,0,0.1,0 c0.2-0.1,0.3-0.2,0.3-0.3C16.3,11.2,16.2,11.1,16.1,11z M23,10.8L8.6,5.6c0,0-0.5-0.2-1-0.2s-1,0.2-1,0.2L1,8c0,0-0.5,0.2-0.5,0.6 v2.8C0.6,11.8,1,12,1,12l14.4,6c0,0,0.6,0.2,1.3,0.2s1.2-0.3,1.2-0.3l5.1-3c0,0,0.4-0.2,0.4-0.6v-2.8C23.4,11,23,10.8,23,10.8z M8.8,9.5C8.6,9.6,8.3,9.7,8.1,9.8C7.9,9.9,7.8,9.9,7.7,9.9c-0.1,0-0.1,0-0.2,0S7.3,9.8,7.3,9.7c0-0.1,0.2-0.2,0.2-0.2L8,9.2l0,0 l0.1-0.1C8.2,9.1,8.3,9,8.4,9c0.2,0,0.3,0,0.4,0l0.1,0.1l0,0L8.8,9c0-0.1,0.1-0.2,0.3-0.2c0.2-0.1,0.2-0.2,0.2-0.2s0,0-0.1-0.1 C9.1,8.3,8.7,8.3,8.3,8.3C8,8.3,7.8,8.4,7.6,8.5c-0.1,0-0.2,0-0.3,0c-0.1,0-0.1,0-0.2-0.1l0.1,0.1c0,0.1-0.1,0.2-0.3,0.2L6.6,8.9 l0,0H6.5C6.3,9,6.2,9,6.1,9.1c-0.1,0-0.2,0-0.3,0s-0.2,0-0.2,0C5.5,9,5.4,8.9,5.4,8.9c0-0.1,0.1-0.2,0.2-0.2l0.5-0.2 c0.2-0.1,0.3-0.1,0.5-0.2c0.1,0,0.2,0,0.3,0c0.1,0,0.1,0,0.2,0.1C7,8.3,7,8.3,7,8.2C7,8.1,7.1,8.1,7.3,8L9,7.3c0.1,0,0.1,0,0.2-0.1 c0.1,0,0.3,0,0.4,0c0,0,0.2,0.1,0.2,0.2c0,0,0,0.1-0.1,0.2c0,0-0.1,0.1-0.2,0.1L8.9,7.9C9.4,7.9,9.7,8,10,8.2 c0.1,0.1,0.2,0.2,0.2,0.3c0,0.2-0.1,0.3-0.4,0.5C9.7,9.1,9.6,9.2,9.5,9.2H9.4l0,0l0,0H9.3c-0.1,0-0.1,0-0.1,0l0.1,0.1 c0,0.1-0.1,0.1-0.2,0.2C8.9,9.5,8.9,9.5,8.8,9.5z M11.3,15.2c-0.2,0-0.4-0.2-0.4-0.4s0.2-0.4,0.4-0.4s0.4,0.2,0.4,0.4 S11.5,15.2,11.3,15.2z M12.1,10.8c-0.3,0.1-0.5,0.3-0.8,0.4c-0.1,0-0.2,0.1-0.3,0.1s-0.3,0-0.3-0.1c0,0,0-0.1,0-0.2h-0.1 c-0.6,0-1.3-0.2-1.5-0.5S8.9,10.1,9,10c0.1-0.2,0.4-0.4,0.7-0.6c0.1,0,0.1,0,0.1,0h0.1c0.1,0,0.1,0,0.2,0.1L10,9.4 c0-0.1,0.1-0.1,0.2-0.2c0,0,0.1,0,0.1-0.1c0.3,0,0.5-0.1,0.7-0.2l0.1-0.1c0.2-0.1,0.4-0.1,0.5,0c0.1,0,0.2,0.1,0.2,0.2 c0,0.1-0.1,0.2-0.2,0.2l-0.4,0.2l0,0h-0.1c-0.1,0.1-0.2,0.1-0.4,0.2c-0.1,0-0.1,0-0.2,0h-0.1l-0.1-0.1l0,0c0,0,0.1,0,0.1,0.1 s0,0.1-0.1,0.2c0,0-0.1,0-0.1,0.1c0,0-0.1,0-0.1,0.1c-0.1,0.1-0.2,0.1-0.2,0.2c0,0.1,0.3,0.3,0.8,0.3c0.4,0,0.7,0,1-0.2 c0.1-0.1,0.3-0.1,0.4,0l0,0c0,0,0,0,0-0.1s0.1-0.1,0.2-0.2c0,0,0.1,0,0.1-0.1c0.2-0.1,0.5-0.2,0.7-0.3l0,0c0.2-0.1,0.4-0.1,0.5,0 c0.1,0,0.2,0.1,0.2,0.2c0,0.1-0.1,0.2-0.2,0.2L13,10.3c-0.1,0-0.2,0.1-0.3,0.1s-0.1,0-0.2,0c-0.1,0-0.1,0-0.2,0h-0.1c0,0,0,0,0,0.1 s-0.1,0.1-0.2,0.2L12.1,10.8z M13.8,16.3c-0.1,0-0.1,0.1-0.2,0.1c-0.1,0-0.1,0-0.2,0L12.7,16c0,0-0.4-0.1-0.4-0.8 c0-0.2,0.1-0.3,0.1-0.3c0.2-0.1,0.4-0.1,0.4-0.1l0,0l0.8,0.4c0,0,0.3,0.2,0.3,0.7C14,16.1,13.9,16.2,13.8,16.3z M16.2,12 c-0.2,0.1-0.4,0-0.5,0c-0.2-0.1-0.4-0.1-0.5-0.2l-1.5-0.6c-0.1,0-0.1,0-0.2,0c-0.1,0.1-0.2,0.2-0.2,0.3s0.1,0.2,0.4,0.3 c0.3,0.1,0.6,0.2,1,0.3c0.1,0,0.1,0,0.2,0c0.1,0,0.2,0.1,0.2,0.2c0,0.1,0,0.1,0,0.2c-0.1,0.1-0.2,0.1-0.3,0.1h-0.1h-0.1 c-0.8-0.1-1.4-0.4-1.7-0.7c-0.2-0.2-0.3-0.3-0.2-0.5c0-0.2,0.1-0.4,0.3-0.5c-0.1,0-0.1-0.1-0.2-0.1c0-0.1,0-0.2,0.1-0.2s0.2,0,0.2,0 l0,0c0.1,0,0.1,0,0.2,0c0.2,0.1,0.2,0.1,0.4,0c1.4-0.4,3.1,0,3.3,0.6C17.2,11.6,16.5,11.9,16.2,12z"/></svg>