<svg viewBox="0 0 24 24" fill="#44739e" xmlns="http://www.w3.org/2000/svg"><title>hue:sync-subtle-off</title><desc>Source: https://github.com/arallsopp/hass-hue-icons</desc><path d="M22.52,22.17L1.68,1.33L0.3,2.71l1.24,1.24v17.01c0,0.83,0.67,1.5,1.5,1.5h17.01l1.09,1.09L22.52,22.17z M8.35,11.51c-1.73,0-2.29,0.6-2.3,0.61c-0.18,0.2-0.5,0.22-0.7,0.05C5.15,12,5.11,11.7,5.28,11.48c0.08-0.1,0.8-0.89,2.83-0.96 l1.09,1.09C8.9,11.55,8.61,11.51,8.35,11.51z M15.34,12.27c1.81,0,2.66-0.66,2.67-0.67c0.21-0.17,0.53-0.14,0.7,0.07c0.18,0.21,0.15,0.53-0.06,0.7 c-0.04,0.04-1.1,0.9-3.31,0.9c-0.06,0-0.13-0.01-0.19-0.02l7.31,7.31V3.04c0-0.83-0.67-1.5-1.5-1.5H3.44l10.5,10.5 C14.44,12.18,14.92,12.27,15.34,12.27z"/></svg>