<svg viewBox="0 0 24 24" fill="#44739e" xmlns="http://www.w3.org/2000/svg"><title>hue:sync-moderate-off</title><desc>Source: https://github.com/arallsopp/hass-hue-icons</desc><path d="M22.52,22.17L1.68,1.33L0.3,2.71l1.24,1.24v17.01c0,0.83,0.67,1.5,1.5,1.5h17.01l1.09,1.09L22.52,22.17z M6.15,11.83c-0.09,0.26-0.37,0.4-0.63,0.31c-0.26-0.09-0.4-0.37-0.31-0.63c0.19-0.58,0.8-1.55,1.89-2l0.81,0.81 C6.62,10.56,6.17,11.78,6.15,11.83z M17.89,11.91c0.12-0.24,0.42-0.35,0.67-0.22c0.24,0.11,0.34,0.41,0.22,0.65c-0.03,0.08-0.82,1.6-2.5,2.05 l6.18,6.18V3.04c0-0.83-0.67-1.5-1.5-1.5H3.44l11.98,11.98C17.07,13.48,17.85,11.97,17.89,11.91z"/></svg>