<svg viewBox="0 0 24 24" fill="#44739e" xmlns="http://www.w3.org/2000/svg"><title>hue:sync-box</title><desc>Source: https://github.com/arallsopp/hass-hue-icons</desc><path d="M17,6.9c0.5,0,0.6-0.3,0.6-0.5c0-0.7-0.2-1.3-0.6-1.6c-0.5-0.4-1.2-0.5-1.8-0.3S14.1,5.2,14,5.9 c-0.1,0-0.1,0-0.2,0.1c0-0.1,0-0.1,0-0.2V5.1c0-0.2-0.1-0.4-0.2-0.5c-0.1-0.1-0.2-0.1-0.4-0.2c-0.3,0-0.6,0.2-0.6,0.6v0.1 c0,0.2,0,0.5,0,0.7v0.1c0,0.1,0,0.2,0.1,0.4c-0.1,0.1-0.1,0.2-0.1,0.3c0,0.2-0.1,0.4-0.3,0.5S12,7.2,11.8,7.2 c-0.2-0.1-0.3-0.2-0.3-0.5c0-0.1,0-0.1,0-0.2s0-0.1-0.1-0.2c0.1-0.1,0.1-0.2,0.1-0.3V5.6V5.3V5c0-0.5-0.3-0.6-0.6-0.6 c-0.2,0-0.4,0.1-0.4,0.2c-0.1,0.1-0.2,0.3-0.2,0.5v0.2c0,0.2,0,0.5,0,0.7v0.1c0,0.1,0,0.2,0.1,0.3c0,0.1-0.1,0.1-0.1,0.2 c0,0.4,0,0.8,0.3,1.2c0.2,0.3,0.6,0.5,1.1,0.6c0.1,0,0.1,0,0.2,0c0.3,0,0.6-0.1,0.9-0.2l0.1,0.1c0.2,0.1,0.4,0.1,0.6,0 c0.2-0.1,0.3-0.3,0.3-0.5c0-0.3,0-0.6,0-0.9C13.9,6.9,14,7,14,7c0,0.6,0.4,1,1,1.2c0.3,0.1,0.6,0.2,0.9,0.2s0.7-0.1,1-0.2 c0,0,0.1,0,0.1-0.1c0.2-0.1,0.3-0.4,0.3-0.7C17.2,7.2,17,7,16.7,7.1c-0.1,0-0.2,0-0.2,0.1c-0.2,0.1-0.4,0.1-0.7,0.1 s-0.5-0.1-0.6-0.4h1.3L17,6.9z M15.7,5.8h-0.3c-0.1,0-0.2,0-0.3,0c0,0,0,0-0.1,0c0.1-0.1,0.1-0.2,0.2-0.3c0.2-0.1,0.4-0.2,0.6-0.1 c0.1,0,0.3,0.1,0.4,0.4H15.7z M14,6.5L14,6.5C14,6.6,14,6.6,14,6.5L14,6.5z M14,6.9V6.6l0,0l0,0V6.9L14,6.9z M10,6.7 c0-0.1,0-0.3-0.1-0.4c0,0,0.1-0.1,0.1-0.2c0-0.2,0-0.3,0-0.5C9.8,4.8,9.3,4.5,9,4.4C8.5,4.3,8.1,4.3,7.7,4.5V3.8c0-0.1,0-0.2,0-0.3 C7.6,3.3,7.3,3.1,7,3.1S6.5,3.3,6.5,3.6c0,0.1,0,0.2,0,0.3v2c0,0.2,0,0.3,0.1,0.5c-0.1,0-0.1,0.1-0.1,0.3v1.1c0,0.4,0.3,0.6,0.6,0.6 c0.4,0,0.6-0.3,0.6-0.6V6.9c0-0.2,0-0.4-0.1-0.5c0.1-0.1,0.1-0.2,0.1-0.3c0-0.2,0.1-0.3,0.1-0.4C8,5.5,8.2,5.4,8.5,5.5 c0.2,0.1,0.3,0.3,0.3,0.4c0,0.2,0.1,0.3,0.1,0.4C8.8,6.4,8.8,6.5,8.8,6.7c0,0.1,0,0.2,0,0.3v0.3v0.4C8.8,8,8.9,8.1,9,8.2 c0,0.1,0.2,0.2,0.4,0.2l0,0c0.3,0,0.6-0.2,0.6-0.6V7.7c0-0.2,0-0.5,0-0.7V6.7z M6,15.7c0,0,0.4,0,1,0.5C7.7,16.7,7.9,17,7.9,17 s3.2,0.1,5.7,0.1c1.3,0,2.3,0,2.8-0.1c0.7-1,1.7-1.3,1.7-1.3V13H6V15.7z M7.6,14.1h8.9v1.1H7.6V14.1z M20.5,1.7H3.6 c-1.5,0-2.7,1.2-2.7,2.7v13.8c0,1.5,1.2,2.7,2.7,2.7h16.9c1.5,0,2.7-1.2,2.7-2.7V4.4C23.2,2.9,22,1.7,20.5,1.7z M19.2,15.8 c0,0.5-0.3,0.9-0.8,1.1c-0.1,0-0.7,0.2-1.1,0.9c-0.2,0.3-0.5,0.4-0.8,0.5c-0.4,0-1.4,0.1-2.9,0.1c-2.5,0-5.7-0.1-5.7-0.1 c-0.4,0-0.8-0.2-0.9-0.6c0,0-0.1-0.2-0.5-0.4C6.2,17.1,6,17,5.9,17C5.3,16.7,5,16.2,5,15.7v-2.6C5,12.5,5.4,12,6,12h12 c0.6,0,1.1,0.5,1.1,1.1v2.7H19.2z M22.3,9.4H1.9v-5c0-0.9,0.8-1.7,1.7-1.7h16.9c0.9,0,1.7,0.8,1.7,1.7v5H22.3z"/></svg>