<svg viewBox="0 0 24 24" fill="#44739e" xmlns="http://www.w3.org/2000/svg"><title>hue:sync-subtle</title><desc>Source: https://github.com/arallsopp/hass-hue-icons</desc><path d="M20.96,1.54H3.04c-0.83,0-1.5,0.67-1.5,1.5v17.92c0,0.83,0.67,1.5,1.5,1.5h17.92c0.83,0,1.5-0.67,1.5-1.5V3.04 C22.46,2.21,21.79,1.54,20.96,1.54z M18.65,12.37c-0.04,0.04-1.1,0.9-3.31,0.9c-1.11,0-2.41-0.46-3.66-0.91 c-1.17-0.42-2.39-0.85-3.33-0.85c-1.73,0-2.29,0.6-2.3,0.61c-0.18,0.2-0.5,0.22-0.7,0.05C5.15,12,5.11,11.7,5.28,11.48 c0.08-0.1,0.85-0.97,3.07-0.97c1.11,0,2.41,0.46,3.66,0.91c1.18,0.42,2.39,0.85,3.33,0.85c1.81,0,2.66-0.66,2.67-0.67 c0.21-0.17,0.53-0.14,0.7,0.07C18.89,11.88,18.86,12.2,18.65,12.37z"/></svg>