<svg viewBox="0 0 24 24" fill="#44739e" xmlns="http://www.w3.org/2000/svg"><title>hue:sync-high-off</title><desc>Source: https://github.com/arallsopp/hass-hue-icons</desc><path d="M22.52,22.17L1.68,1.33L0.3,2.71l1.24,1.24v17.01c0,0.83,0.67,1.5,1.5,1.5h17.01l1.09,1.09L22.52,22.17z M6.17,11.68c-0.05,0.27-0.32,0.45-0.59,0.39c-0.27-0.05-0.45-0.32-0.39-0.59c0.02-0.1,0.34-1.6,1.12-2.76l0.71,0.71 C6.44,10.4,6.17,11.66,6.17,11.68z M17.84,12.06c0.07-0.27,0.34-0.43,0.61-0.35c0.27,0.08,0.43,0.35,0.36,0.62c-0.08,0.28-0.55,1.93-1.48,3.11 l5.13,5.13V3.04c0-0.83-0.67-1.5-1.5-1.5H3.44l13.18,13.18C17.25,13.86,17.69,12.63,17.84,12.06z"/></svg>