<svg viewBox="0 0 24 24" fill="#44739e" xmlns="http://www.w3.org/2000/svg"><title>hue:sync-intense</title><desc>Source: https://github.com/arallsopp/hass-hue-icons</desc><path d="M20.96,1.54H3.04c-0.83,0-1.5,0.67-1.5,1.5v17.92c0,0.83,0.67,1.5,1.5,1.5h17.92c0.83,0,1.5-0.67,1.5-1.5V3.04 C22.46,2.21,21.79,1.54,20.96,1.54z M16.84,16.65C16.83,16.65,16.83,16.65,16.84,16.65c-1.46,0-1.66-2.03-1.89-4.37 c-0.16-1.56-0.39-3.93-1.12-3.93c-0.75,0-1.14,2.19-1.43,3.79c-0.4,2.24-0.79,4.35-2.22,4.36c-1.53-0.01-1.76-2.2-2.03-4.54 c-0.16-1.35-0.42-3.61-1-3.61c-0.53,0-0.95,1.71-0.97,3.24c0,0.27-0.23,0.49-0.5,0.49c0,0,0,0-0.01,0c-0.28,0-0.5-0.23-0.49-0.51 c0.01-0.71,0.14-4.23,1.97-4.23c1.47,0,1.72,2.18,1.99,4.49c0.16,1.37,0.42,3.66,1.03,3.66c0,0,0,0,0,0c0.61-0.01,1-2.13,1.25-3.54 c0.41-2.27,0.83-4.61,2.41-4.61c1.63,0,1.88,2.45,2.12,4.83c0.12,1.21,0.35,3.48,0.85,3.48c0.51-0.06,0.98-1.88,1.04-3.47 c0.01-0.28,0.26-0.49,0.52-0.48c0.28,0.01,0.49,0.24,0.48,0.52C18.8,12.93,18.57,16.46,16.84,16.65z"/></svg>