<svg viewBox="0 0 24 24" fill="#44739e" xmlns="http://www.w3.org/2000/svg"><title>hue:sync-high</title><desc>Source: https://github.com/arallsopp/hass-hue-icons</desc><path d="M20.96,1.54H3.04c-0.83,0-1.5,0.67-1.5,1.5v17.92c0,0.83,0.67,1.5,1.5,1.5h17.92c0.83,0,1.5-0.67,1.5-1.5V3.04 C22.46,2.21,21.79,1.54,20.96,1.54z M18.81,12.33c-0.12,0.44-1.22,4.32-3.58,4.32c-1.31,0-2.48-2.04-3.82-4.4 c-0.94-1.65-2.22-3.9-2.95-3.9c-1.59,0-2.29,3.3-2.29,3.33c-0.05,0.27-0.32,0.45-0.59,0.39c-0.27-0.05-0.45-0.32-0.39-0.59 c0.03-0.17,0.85-4.14,3.27-4.14c1.31,0,2.48,2.04,3.82,4.4c0.94,1.65,2.22,3.9,2.95,3.9c1.36,0,2.37-2.65,2.61-3.58 c0.07-0.27,0.34-0.43,0.61-0.35C18.72,11.79,18.88,12.06,18.81,12.33z"/></svg>