<svg viewBox="0 0 24 24" fill="#44739e" xmlns="http://www.w3.org/2000/svg"><title>hue:sync-music</title><desc>Source: https://github.com/arallsopp/hass-hue-icons</desc><path d="M22.66,12.09c0-5.88-4.78-10.66-10.66-10.66c-5.88,0-10.66,4.78-10.66,10.66c0,1.67,0.39,3.27,1.1,4.71v3.02 c0,0.28,0.22,0.5,0.5,0.5h1.54v1.24c0,0.55,0.45,1,1,1h3.8c0.55,0,1-0.45,1-1v-6.94c0-0.55-0.45-1-1-1h-3.8c-0.55,0-1,0.45-1,1v0.66 H3.42c-0.38-1.01-0.58-2.09-0.58-3.2c0-5.05,4.11-9.16,9.16-9.16c5.05,0,9.16,4.11,9.16,9.16c0,1.1-0.2,2.19-0.58,3.2h-1.05v-0.66 c0-0.55-0.45-1-1-1h-3.8c-0.55,0-1,0.45-1,1v6.94c0,0.55,0.45,1,1,1h3.8c0.55,0,1-0.45,1-1v-1.24h1.54c0.28,0,0.5-0.22,0.5-0.5 v-3.05C22.28,15.33,22.66,13.73,22.66,12.09z"/></svg>