<svg viewBox="0 0 24 24" fill="#44739e" xmlns="http://www.w3.org/2000/svg"><title>hue:sync-box-off</title><desc>Source: https://github.com/arallsopp/hass-hue-icons</desc><path d="M0.3,2.71l0.77,0.77C0.96,3.77,0.9,4.08,0.9,4.4v13.8c0,1.5,1.2,2.7,2.7,2.7h14.89l2.65,2.65l1.38-1.38 L1.68,1.33L0.3,2.71z M1.9,9.4v-5c0-0.03,0.01-0.05,0.01-0.08L6.99,9.4H1.9z M13.6,18.4c-2.5,0-5.7-0.1-5.7-0.1 c-0.4,0-0.8-0.2-0.9-0.6c0,0-0.1-0.2-0.5-0.4C6.2,17.1,6,17,5.9,17C5.3,16.7,5,16.2,5,15.7v-2.6C5,12.5,5.4,12,6,12h3.59l1,1H6v2.7 c0,0,0.4,0,1,0.5C7.7,16.7,7.9,17,7.9,17s3.2,0.1,5.7,0.1c0.4,0,0.75,0,1.08-0.01l1.23,1.23C15.39,18.35,14.62,18.4,13.6,18.4z M11.69,14.1l1.1,1.1H7.6v-1.1H11.69z M17.74,15.85c0.21-0.11,0.36-0.15,0.36-0.15V13h-3.2l1.1,1.1h0.5v0.5L17.74,15.85z M20.5,1.7 H3.6l0,0l1,1h15.9c0.9,0,1.7,0.8,1.7,1.7v5H11.3l2.6,2.6H18c0.6,0,1.1,0.5,1.1,1.1v2.7h0.1c0,0.41-0.2,0.74-0.55,0.96l3.54,3.54 c0.61-0.49,1.01-1.24,1.01-2.1V4.4C23.2,2.9,22,1.7,20.5,1.7z M10.6,7.8c0.2,0.3,0.6,0.5,1.1,0.6c0.1,0,0.1,0,0.2,0 c0.3,0,0.6-0.1,0.9-0.2l0.1,0.1c0.2,0.1,0.4,0.1,0.6,0c0.2-0.1,0.3-0.3,0.3-0.5c0-0.3,0-0.6,0-0.9C13.9,6.9,14,7,14,7 c0,0.6,0.4,1,1,1.2c0.3,0.1,0.6,0.2,0.9,0.2s0.7-0.1,1-0.2c0,0,0.1,0,0.1-0.1c0.2-0.1,0.3-0.4,0.3-0.7C17.2,7.2,17,7,16.7,7.1 c-0.1,0-0.2,0-0.2,0.1c-0.2,0.1-0.4,0.1-0.7,0.1s-0.5-0.1-0.6-0.4h1.3H17c0.5,0,0.6-0.3,0.6-0.5c0-0.7-0.2-1.3-0.6-1.6 c-0.5-0.4-1.2-0.5-1.8-0.3S14.1,5.2,14,5.9c-0.1,0-0.1,0-0.2,0.1c0-0.1,0-0.1,0-0.2V5.1c0-0.2-0.1-0.4-0.2-0.5 c-0.1-0.1-0.2-0.1-0.4-0.2c-0.3,0-0.6,0.2-0.6,0.6v0.1c0,0.2,0,0.5,0,0.7v0.1c0,0.1,0,0.2,0.1,0.4c-0.1,0.1-0.1,0.2-0.1,0.3 c0,0.2-0.1,0.4-0.3,0.5S12,7.2,11.8,7.2c-0.2-0.1-0.3-0.2-0.3-0.5c0-0.1,0-0.1,0-0.2s0-0.1-0.1-0.2c0.1-0.1,0.1-0.2,0.1-0.3V5.6V5.3 V5c0-0.5-0.3-0.6-0.6-0.6c-0.2,0-0.4,0.1-0.4,0.2c-0.1,0.1-0.2,0.3-0.2,0.5v0.2c0,0.2,0,0.5,0,0.7v0.1c0,0.1,0,0.2,0.1,0.3 c0,0.1-0.1,0.1-0.1,0.2C10.3,7,10.3,7.4,10.6,7.8z M15.2,5.5c0.2-0.1,0.4-0.2,0.6-0.1c0.1,0,0.3,0.1,0.4,0.4h-0.5h-0.3 c-0.1,0-0.2,0-0.3,0c0,0,0,0-0.1,0C15.1,5.7,15.1,5.6,15.2,5.5z M7.7,3.5C7.6,3.3,7.3,3.1,7,3.1S6.5,3.3,6.5,3.6c0,0.1,0,0.2,0,0.3 v0.7l1.25,1.25C7.78,5.8,7.8,5.75,7.8,5.7C8,5.5,8.2,5.4,8.5,5.5c0.2,0.1,0.3,0.3,0.3,0.4c0,0.2,0.1,0.3,0.1,0.4 C8.8,6.4,8.8,6.5,8.8,6.7c0,0.07,0,0.14,0,0.2l1.15,1.15C9.98,7.98,10,7.9,10,7.8V7.7c0-0.2,0-0.5,0-0.7V6.7c0-0.1,0-0.3-0.1-0.4 c0,0,0.1-0.1,0.1-0.2c0-0.2,0-0.3,0-0.5C9.8,4.8,9.3,4.5,9,4.4C8.5,4.3,8.1,4.3,7.7,4.5V3.8C7.7,3.7,7.7,3.6,7.7,3.5z"/></svg>