<svg viewBox="0 0 24 24" fill="#44739e" xmlns="http://www.w3.org/2000/svg"><title>hue:table-wash-off</title><desc>Source: https://github.com/arallsopp/hass-hue-icons</desc><path d="M19.42,16.86C20.38,15.5,21,14.1,21,12.95c0-0.06,0-0.12,0-0.18c0-0.42-0.18-1-0.57-1.72 c-1.27-2.39-4.23-5.42-6.57-6.72c-0.66-0.37-1.19-0.55-1.59-0.57c-0.05-0.01-0.09-0.01-0.14,0C12.09,3.75,12.05,3.75,12,3.75 c-1.16,0-2.59,0.69-3.97,1.72L19.42,16.86z M14.7,6.77c1.24,1,2.36,2.14,3.34,3.41c3,3.89,1.76,4.97-1.97,1.94 c-1.2-0.98-2.3-2.1-3.26-3.33C9.85,4.99,10.9,3.71,14.7,6.77z M21.97,20.95L2.88,1.86L1.5,3.24l4.29,4.29C4.19,9.31,3,11.37,3,12.95c0,3.2,1.59,6.01,4.01,7.66 C7.39,20.86,7.83,21,8.28,21h6.19c0.47,0,0.93-0.15,1.32-0.43c0.56-0.41,1.1-0.89,1.63-1.4l3.17,3.17L21.97,20.95z"/></svg>