<svg viewBox="0 0 24 24" height="24px" width="24px" fill="#44739e" xmlns="http://www.w3.org/2000/svg"><title>hue:tap</title><desc>Source: https://github.com/arallsopp/hass-hue-icons</desc><path d="M11.99976,23.17358A11.17358,11.17358,0,1,1,23.17358,11.99976,11.18623,11.18623,0,0,1,11.99976,23.17358Zm0-21.34716A10.17358,10.17358,0,1,0,22.17358,11.99976,10.18514,10.18514,0,0,0,11.99976,1.82642Z M6.335,15.58765a3.33228,3.33228,0,1,1,3.33252-3.33252A3.3365,3.3365,0,0,1,6.335,15.58765Zm0-5.66455a2.33228,2.33228,0,1,0,2.33252,2.332A2.33508,2.33508,0,0,0,6.335,9.9231Z M17.66553,15.58765a3.33228,3.33228,0,1,1,3.332-3.33252A3.3366,3.3366,0,0,1,17.66553,15.58765Zm0-5.66455a2.33228,2.33228,0,1,0,2.332,2.332A2.3355,2.3355,0,0,0,17.66553,9.9231Z M12,21.14331a3.33252,3.33252,0,1,1,3.33252-3.332A3.33639,3.33639,0,0,1,12,21.14331Zm0-5.665a2.33252,2.33252,0,1,0,2.33252,2.333A2.33561,2.33561,0,0,0,12,15.47827Z"/></svg>