<svg
    xmlns="http://www.w3.org/2000/svg"
    viewBox="0 0 24 24"
    height="24px"
    width="24px">
    <path d="M12.0353.96469A11.03531,11.03531,0,1,0,23.07062,12,11.03531,11.03531,0,0,0,12.0353.96469Zm0,20.44612A9.41081,9.41081,0,1,1,21.44612,12,9.42146,9.42146,0,0,1,12.0353,21.41081Z M10.81764,10.82939a3.86565,3.86565,0,0,0-.01971-.39045,3.81858,3.81858,0,0,0-7.59809,0,3.86272,3.86272,0,0,0-.01972.39045,3.81876,3.81876,0,0,0,7.63752,0ZM6.99889,13.02365a2.19427,2.19427,0,1,1,2.19426-2.19426A2.19675,2.19675,0,0,1,6.99889,13.02365Z M17.07173,7.01469A3.81876,3.81876,0,0,0,13.253,10.83344a3.86286,3.86286,0,0,0,.01972.39045,3.81857,3.81857,0,0,0,7.59808,0,3.86286,3.86286,0,0,0,.01972-.39045A3.81876,3.81876,0,0,0,17.07173,7.01469Zm0,6.013A2.19426,2.19426,0,1,1,19.266,10.83344,2.19674,2.19674,0,0,1,17.07173,13.0277Z M12.0353,13.40437a3.81876,3.81876,0,1,0,3.81877,3.81876A3.81876,3.81876,0,0,0,12.0353,13.40437Zm0,6.013a2.19427,2.19427,0,1,1,2.19427-2.19426A2.19674,2.19674,0,0,1,12.0353,19.41739Z"/>
</svg>
