<svg viewBox="0 0 24 24" fill="#44739e" xmlns="http://www.w3.org/2000/svg"><title>hue:tap</title><desc>Source: https://github.com/arallsopp/hass-hue-icons</desc><path d="M12,23.17c-6.17,0-11.17-5-11.17-11.17c0-6.17,5-11.17,11.17-11.17c6.17,0,11.17,5,11.17,11.17 C23.17,18.17,18.17,23.17,12,23.17z M12,1.83C6.38,1.83,1.83,6.38,1.83,12c0,5.62,4.56,10.17,10.17,10.17S22.17,17.62,22.17,12 C22.17,6.38,17.62,1.83,12,1.83z M6.34,15.59C4.49,15.59,3,14.1,3,12.26S4.5,8.92,6.34,8.92c1.84,0,3.33,1.49,3.33,3.33 C9.67,14.09,8.17,15.59,6.34,15.59z M6.34,9.92C5.05,9.92,4,10.97,4,12.26s1.04,2.33,2.33,2.33c1.29,0,2.33-1.04,2.33-2.33 c0,0,0,0,0,0C8.67,10.97,7.62,9.92,6.34,9.92z M17.67,15.59c-1.84,0-3.33-1.49-3.33-3.33c0-1.84,1.49-3.33,3.33-3.33 c1.84,0,3.33,1.49,3.33,3.33c0,0,0,0,0,0C21,14.09,19.5,15.59,17.67,15.59z M17.67,9.92c-1.29,0-2.33,1.04-2.33,2.33 c0,1.29,1.04,2.33,2.33,2.33c1.29,0,2.33-1.04,2.33-2.33c0,0,0,0,0,0C20,10.97,18.95,9.93,17.67,9.92z M12,21.14 c-1.84,0-3.33-1.49-3.33-3.33s1.49-3.33,3.33-3.33s3.33,1.49,3.33,3.33c0,0,0,0,0,0C15.33,19.65,13.84,21.14,12,21.14z M12,15.48 c-1.29,0-2.33,1.04-2.33,2.33s1.04,2.33,2.33,2.33c1.29,0,2.33-1.04,2.33-2.33C14.33,16.52,13.29,15.48,12,15.48L12,15.48z"/></svg>