<svg
    xmlns="http://www.w3.org/2000/svg"
    viewBox="0 0 24 24"
    height="24px"
    width="24px">
    <path d="M12.44259,1.04956c-3.32285,0-3.55741,1.32914-3.55741,1.32914v5.74659l-0.70366,0.5082 c0,0-0.03538,10.18692-0.03614,10.28213c-0.00116,0.14665,0.1173,0.22509,0.19251,0.23373 c0.21085,0.02423,0.51761,0.03451,0.51761,0.03451l-0.00941,3.64018c0,0,0.02491,0.11206,0.53764,0.23503 c0.50537,0.1212,1.48706,0.23665,3.05886,0.21725c1.73883-0.02147,2.70801-0.1507,3.16778-0.27805 C15.98785,22.89371,16,22.78494,16,22.78494V2.14415C16,2.14415,15.60908,1.04956,12.44259,1.04956z M12.43987,22.85773 c-1.66155,0-3.00851-0.18226-3.00851-0.40709c0-0.22483,1.34696-0.40709,3.00851-0.40709s3.00851,0.18226,3.00851,0.40709 C15.44838,22.67546,14.10142,22.85773,12.43987,22.85773z"/>
</svg>
