<svg viewBox="0 0 24 24" height="24px" width="24px" fill="#44739e" xmlns="http://www.w3.org/2000/svg"><title>hue:wall-attract</title><desc>Source: https://github.com/arallsopp/hass-hue-icons</desc><path d="M6.43864,10.54036H7.424L7.12391,13.3179H20.10816s-.33-2.77754-.555-3.9595c-.54649-.18769-4.822-.45525-4.822-.45525V4.51509a.42173.42173,0,0,0-.48221-.434L11.17759,4.483A3.9555,3.9555,0,0,0,7.81434,1.43424H6.54447C4.614,1.63465,3.09857,3.606,3.09857,5.9873c0,2.3379,1.46005,4.29389,3.34007,4.55306Zm4.89818-3.79844,1.04759-.12121-.03215,2.38863c-.52571.00339-1.25907.04669-1.99192.10171A4.94726,4.94726,0,0,0,11.33682,6.74192Z M21.27207,21.48423l-.794-6.90573a.44944.44944,0,0,0-.44652-.39811h-.00013L7.27,14.18464a.44945.44945,0,0,0-.44595.39467L5.99254,21.3502a.44945.44945,0,0,0,.35139.49414,36.79974,36.79974,0,0,0,7.052.67461c.1805,0,.36317-.0014.54708-.00434a50.7892,50.7892,0,0,0,6.957-.53583A.44942.44942,0,0,0,21.27207,21.48423Zm-7.34336.1316a37.553,37.553,0,0,1-6.99285-.57241l.73188-5.96,11.96311-.004.69854,6.07553A54.30735,54.30735,0,0,1,13.92871,21.61583Z M14.96976,15.72824H12.15124a.44945.44945,0,1,0,0,.8989h2.81852a.44945.44945,0,0,0,0-.8989ZM14.96976,17.27322H12.15124a.44945.44945,0,0,0,0,.8989h2.81852a.44945.44945,0,0,0,0-.8989ZM14.96976,18.8182H12.15124a.44945.44945,0,1,0,0,.8989h2.81852a.44945.44945,0,0,0,0-.8989Z"/></svg>