<svg viewBox="0 0 24 24" fill="#44739e" xmlns="http://www.w3.org/2000/svg"><title>hue:wall-lantern-off</title><desc>Source: https://github.com/arallsopp/hass-hue-icons</desc><path d="M21.97,20.95L2.88,1.86L1.5,3.24l1.69,1.69C2.9,6.51,2.95,8.62,3.33,10.01c0.2,0.71,0.44,1.12,0.7,1.21 c0.04,0.02,0.09,0.03,0.13,0.03h1.43c0.04,0,0.09-0.01,0.13-0.03c0.25-0.1,0.49-0.48,0.68-1.14C6.54,9.6,6.63,9.03,6.68,8.43 l1.88,1.88c-0.71,0.66-0.16,1.4,1.61,1.91c0.11,0.03,0.25,0.05,0.37,0.09l1.08,7.68c0.09,0.34,0.62,0.75,1.86,0.93 c0.38,0.05,0.76,0.08,1.14,0.08c0.38,0,0.77-0.03,1.14-0.08c1.23-0.18,1.74-0.59,1.86-0.93l0.08-0.54l2.88,2.88L21.97,20.95z M16.33,18.41c-0.99-0.32-2.43-0.32-3.41,0l-0.61-4.36l4.07,4.07L16.33,18.41z M5.72,3.03C5.68,3.01,5.63,3,5.59,3H5.56l0.65,0.65C6.06,3.31,5.89,3.1,5.72,3.03z M9.75,5.9c1.88,0,3.44,1.35,3.78,3.13c-0.61,0.03-1.2,0.09-1.76,0.17l3.52,3.52c0.63-0.02,1.26-0.06,1.86-0.13 l-0.25,1.75l1.33,1.33l0.47-3.37c0.12-0.03,0.25-0.05,0.37-0.09c2.5-0.72,2.58-1.91,0.11-2.65c-1.17-0.35-2.7-0.54-4.25-0.56 C14.58,6.46,12.39,4.5,9.75,4.5C8.97,4.5,8.23,4.69,7.56,5l1.09,1.09C9,5.98,9.36,5.9,9.75,5.9z"/></svg>