<svg viewBox="0 0 24 24" fill="#44739e" xmlns="http://www.w3.org/2000/svg"><title>hue:wall-flood</title><desc>Source: https://github.com/arallsopp/hass-hue-icons</desc><path d="M6.76,4.08c-0.86,0-1.29,0.77-1.34,0.97C5.37,5.28,4.63,8.42,4.63,8.42L4.37,8.34 C3.88,8.19,3.61,8.31,3.61,8.31S2.18,8.76,1.84,8.89C1.5,9.02,1.45,9.47,1.45,9.47v8.95c0,0.58,0.61,0.63,0.61,0.63l7.66,0.53 c0,0,0.92-0.16,1.61-0.34c0.68-0.18,0.63-0.76,0.63-0.76s5.87,0.5,6.53,0.55s1.05-0.84,1.05-0.84s2.63-7.63,2.95-8.71 s-0.5-1.45-0.5-1.45S8.29,4.42,7.16,4.13C7.02,4.09,6.88,4.08,6.76,4.08z M8.94,6.07l12.18,2.95c0,0,0.21,0.19,0.26,0.31 c0.06,0.16,0,0.52,0,0.52l-2.61,7.48c-0.21,0.33-0.41,0.62-0.83,0.65C17.7,17.99,6.3,16.5,6.3,16.5s-0.41-0.03-0.58-0.33 c-0.2-0.36-0.07-0.68-0.07-0.68l2.27-8.77c0,0,0.16-0.38,0.33-0.49C8.44,6.1,8.94,6.07,8.94,6.07z"/></svg>