<svg viewBox="0 0 24 24" fill="#44739e" xmlns="http://www.w3.org/2000/svg"><title>hue:wall-econic-lantern</title><desc>Source: https://github.com/arallsopp/hass-hue-icons</desc><path d="M20.68,4.62c0,0-5.44-2.78-8.73-3.25c-3.03,0.89-7.3,4.01-7.3,4.01L4.5,5.9c0,0,1.73,8.38,2.01,9.95 c-1.38,0.65-2.15,2.14-1.88,3.64c0.44,2.67,2.27,2.82,3.05,2.78c1.4-0.05,2.55-1.11,2.7-2.5c0.62-0.07,1.74-0.13,1.74-0.13 c0.06,0.17,0.15,0.33,0.26,0.48c0.21,0.02,0.42,0.02,0.64,0c0.35-0.49,0.59-1.06,0.7-1.65c1.65-0.08,3.29-0.32,4.89-0.69 c0.47-2.16,2.31-12.6,2.31-12.6L20.68,4.62z M5.96,7.21l1.35,0.31L7.17,6.9l-1.3-0.32l5.8-2.81l0.19,7.36l-4.82,1.12L5.96,7.21z M10.39,18.57v-0.21l1.19,0.11l0.08,0.23L10.39,18.57z M9.29,16.63l-0.09-0.4c-0.17-0.18-0.38-0.32-0.6-0.41 c-0.25-0.1-0.51-0.15-0.78-0.15l-0.51-2.28l1.31,0.15l-0.12-0.6l-0.73-0.06l4.13-0.92l0.08,4.43L9.29,16.63z M17.4,16.67l-4.33-0.37 l0.1-4.35l4.32,0.74l-0.7,0.09l-0.09,0.58l1.36-0.17L17.4,16.67z M19.31,6.68l-1.01,5.37l-5.06-0.98l0.12-7.3l6.04,2.28l-1.33,0.49 l-0.14,0.58L19.31,6.68z"/></svg>