<svg viewBox="0 0 24 24" fill="#44739e" xmlns="http://www.w3.org/2000/svg"><title>hue:wall-appear-off</title><desc>Source: https://github.com/arallsopp/hass-hue-icons</desc><path d="M21.97,20.95L2.88,1.86L1.5,3.24L5.55,7.3v10.79c0,0.28,0.22,0.5,0.5,0.5h1.38v1.92 c0,1.44,2.04,2.53,4.74,2.53s4.74-1.09,4.74-2.53v-1.85l3.68,3.68L21.97,20.95z M12.18,22.03c-2.14,0-3.74-0.81-3.74-1.53 c0-0.72,1.6-1.53,3.74-1.53s3.74,0.81,3.74,1.53C15.92,21.22,14.32,22.03,12.18,22.03z M16.91,3.51c0.01-1.45-2.03-2.54-4.73-2.54S7.44,2.06,7.44,3.5v1.38l9.47,9.47V3.51z"/></svg>