<svg viewBox="0 0 24 24" fill="#44739e" xmlns="http://www.w3.org/2000/svg"><title>hue:wall-econic-lantern-base</title><desc>Source: https://github.com/arallsopp/hass-hue-icons</desc><path d="M20.41,3.27l-0.14-0.11c-0.08-0.06-1.91-1.44-6.55-1.53c-2.65-0.08-5.31,0.19-7.89,0.82L5.52,2.53L5.37,3.55 l2.54,10.33L8,13.97c0.72,0.8,1.64,1.4,2.66,1.74c0,0,0,0,0.55,0.18c0.1,0.03,0.22,0.04,0.34,0.04c0.05,0.17,0.16,0.56,0.3,0.99 c-1.36-0.04-2.94-0.25-4.28-1.25c-0.2-1.86-0.8-3.23-1.53-3.23H4.44c-0.89,0-1.61,2.01-1.61,4.49c0,2.48,0.72,4.49,1.61,4.49h1.61 c0.63,0,1.16-1.01,1.43-2.48c1.17-0.56,1.23-1.09,4.79-0.93c0.12,0.28,0.24,0.49,0.35,0.56c0.42,0.28,0.66,0.03,0.76,0 c0.1-0.03,1.11-1.46,1.15-2.75c0-0.17-0.04-0.31-0.13-0.44c1.93-0.27,3.3-0.45,3.39-0.65c0.09-0.22,1.81-6.63,2.82-10.44l0.03-0.12 L20.41,3.27z M7.15,4.2l2.41,0.82l0.64,5.21L8.37,9.27L7.15,4.2z M9.19,12.71l-0.52-2.15l1.68,0.88l0.28,2.24L9.19,12.71z M16.17,13.4l-4.44,0.56l-0.27-2.52l5.33-0.5L16.17,13.4z M17.06,9.92l-5.7,0.53L10.8,5.21l7.58-0.43L17.06,9.92z"/></svg>