<svg viewBox="0 0 24 24" fill="#44739e" xmlns="http://www.w3.org/2000/svg"><title>hue:wall-lucca</title><desc>Source: https://github.com/arallsopp/hass-hue-icons</desc><path d="M22.4,16.69c0-0.03-0.01-0.06-0.03-0.09c-0.85-1.59-5.92-1.83-8.87-1.83l-0.52,0c-2.56,0.01-5.11,0.3-7.61,0.86 c0.03-0.46,0.07-1.27,0.08-1.58c0.08-0.25,1.68-1.33,7.49-1.46c0.17,0,0.35,0,0.52,0c5.2,0,7.09,1.16,7.17,1.49 c0.04,0.53,0.08,0.96,0.08,0.96c0.01,0.14,0.14,0.24,0.27,0.23c0.02,0,0.04-0.01,0.06-0.01c0.13-0.05,1.27-0.47,1.27-1.26 c0.02-0.39,0-0.79-0.07-1.17c-0.01-0.04-0.02-0.07-0.05-0.1c-0.37-0.42-0.83-0.75-1.36-0.95l0.01,0c0.57-0.25,1.05-0.69,1.35-1.24 c0.02-0.04,0.03-0.08,0.03-0.12c0-0.39-0.02-0.77-0.06-1.16c0-0.03-0.01-0.05-0.02-0.08c-0.26-0.46-0.66-0.82-1.13-1.05 c0.45-0.26,1.14-0.76,1.14-1.41c0.02-0.29,0-0.58-0.05-0.86c-0.01-0.05-0.02-0.12-0.04-0.21c0-0.02-0.01-0.04-0.02-0.06 c-0.65-1.53-3.18-2.31-7.96-2.45c-0.46-0.01-0.9-0.02-1.3-0.02c-2.03-0.04-4.04,0.24-5.99,0.82c-1.8,0.51-2.96,1.68-2.98,2.05 l0,0.07C3.83,6.26,3.81,6.61,3.81,6.86c0,0.14,0.02,0.27,0.07,0.41L1.69,8.51C1.61,8.55,1.56,8.64,1.56,8.73v10.91 c0,0.13,0.1,0.24,0.22,0.25l9.81,1l0.03,0c0.03,0,0.06-0.01,0.09-0.02c0.02-0.01,1.54-0.57,3.12-1.09c4.63-0.06,7.52-1.18,7.55-2.18 c0-0.13,0.01-0.26,0.04-0.38C22.45,17.05,22.45,16.87,22.4,16.69z M20.74,17.8c0,0.02-0.02,0.05-0.03,0.06 c-0.62,0.68-5.16,0.99-8.19,0.99c-5.91,0-7.15-0.51-7.15-0.94c0-0.65,3.01-1.35,8.06-1.4l0.34,0C18.06,16.5,20.68,17.16,20.74,17.8z M20.29,7.81c-2.36-0.68-4.82-0.98-7.28-0.89c-2.49,0.02-4.97,0.37-7.36,1.04c-0.01-0.37,0.01-0.74,0.06-1.1 c0.1-0.37,1.7-1.85,7.21-1.85l0.32,0c6.4,0.06,6.97,1.52,6.98,1.54C20.21,6.76,20.26,7.42,20.29,7.81L20.29,7.81z M20.58,11.67 c-1.88-0.69-4.74-0.77-7.34-0.85L13,10.82c-0.16,0-0.32-0.01-0.48-0.01c-2.36,0.06-4.71,0.38-7,0.95l0.05-1.34 c0.07-0.32,1.64-1.64,7.48-1.64c5.96,0,7.39,1.22,7.42,1.65c0.02,0.28,0.03,0.4,0.03,0.54c0,0.13,0.01,0.28,0.03,0.58 C20.54,11.6,20.55,11.64,20.58,11.67L20.58,11.67z"/></svg>