<svg
    xmlns="http://www.w3.org/2000/svg"
    viewBox="0 0 24 24"
    height="24px"
    width="24px">
    <path d="M12.49415,23.24612c3.41024-0.01647,3.44977-1.05393,3.44977-1.05393V1.8529c0,0-0.39258-1.09921-3.57244-1.09921 c-3.3369,0-3.57244,1.33476-3.57244,1.33476v5.77087L8.09239,8.36966c0,0-0.03553,10.22997-0.03629,10.32558 c-0.00117,0.14727,0.1178,0.22605,0.19332,0.23472c0.21174,0.02433,0.5198,0.03465,0.5198,0.03465l-0.00945,3.24993 C8.75977,22.21455,9.08391,23.2626,12.49415,23.24612z M12.36874,22.62666c-1.66857,0-3.02122-0.4052-3.02122-0.90504 c0-0.49984,1.35265-0.90505,3.02122-0.90505s3.02122,0.4052,3.02122,0.90505C15.38996,22.22146,14.03731,22.62666,12.36874,22.62666 z"/>
</svg>
