<svg viewBox="0 0 24 24" fill="#44739e" xmlns="http://www.w3.org/2000/svg"><title>hue:wall-lucca-off</title><desc>Source: https://github.com/arallsopp/hass-hue-icons</desc><path d="M1.5,3.24L3.95,5.7C3.87,5.82,3.81,5.92,3.81,5.99v0.07c0.02,0.2,0,0.55,0,0.8c0,0.14,0.02,0.27,0.07,0.41 L1.69,8.51C1.61,8.55,1.56,8.64,1.56,8.73v10.91c0,0.13,0.1,0.24,0.22,0.25l9.81,1h0.03c0.03,0,0.06-0.01,0.09-0.02 c0.02-0.01,1.54-0.57,3.12-1.09c1.11-0.01,2.1-0.09,2.99-0.21l2.77,2.77l1.38-1.38L2.88,1.86L1.5,3.24z M6.1,7.85 C5.95,7.89,5.8,7.92,5.65,7.96c0-0.18,0.02-0.36,0.03-0.53L6.1,7.85z M5.52,11.76l0.05-1.34c0.04-0.18,0.57-0.67,2.04-1.07 l1.73,1.73C8.05,11.24,6.77,11.45,5.52,11.76z M10.94,12.69l2.08,2.08h-0.04c-2.56,0.01-5.11,0.3-7.61,0.86 c0.03-0.46,0.07-1.27,0.08-1.58C5.52,13.83,6.77,12.99,10.94,12.69z M12.52,18.85c-5.91,0-7.15-0.51-7.15-0.94 c0-0.65,3.01-1.35,8.06-1.4h0.34c0.35,0,0.68,0.01,1.01,0.02l2.14,2.14C15.47,18.79,13.85,18.85,12.52,18.85z M22.4,16.69c0-0.03-0.01-0.06-0.03-0.09c-0.52-0.98-2.63-1.44-4.87-1.66l2.18,2.18 c0.67,0.21,1.04,0.44,1.06,0.68c0,0.02-0.02,0.05-0.03,0.06c-0.04,0.04-0.1,0.08-0.16,0.12l0.7,0.7c0.72-0.34,1.12-0.72,1.13-1.09 c0-0.13,0.01-0.26,0.04-0.38C22.45,17.05,22.45,16.87,22.4,16.69z M12.92,5.01h0.32c6.4,0.06,6.97,1.52,6.98,1.54c-0.01,0.21,0.04,0.87,0.07,1.26 c-2.36-0.68-4.82-0.98-7.28-0.89c-1.1,0.01-2.21,0.09-3.3,0.23l1.67,1.67c0.52-0.03,1.06-0.04,1.67-0.04 c5.96,0,7.39,1.22,7.42,1.65c0.02,0.28,0.03,0.4,0.03,0.54c0,0.13,0.01,0.28,0.03,0.58c0.01,0.05,0.02,0.09,0.05,0.12 c-1.85-0.68-4.63-0.77-7.2-0.85l1.81,1.81c3.89,0.22,5.36,1.15,5.43,1.44c0.04,0.53,0.08,0.96,0.08,0.96 c0.01,0.14,0.14,0.24,0.27,0.23c0.02,0,0.04-0.01,0.06-0.01c0.13-0.05,1.27-0.47,1.27-1.26c0.02-0.39,0-0.79-0.07-1.17 c-0.01-0.04-0.02-0.07-0.05-0.1c-0.37-0.42-0.83-0.75-1.36-0.95h0.01c0.57-0.25,1.05-0.69,1.35-1.24c0.02-0.04,0.03-0.08,0.03-0.12 c0-0.39-0.02-0.77-0.06-1.16c0-0.03-0.01-0.05-0.02-0.08c-0.26-0.46-0.66-0.82-1.13-1.05c0.45-0.26,1.14-0.76,1.14-1.41 c0.02-0.29,0-0.58-0.05-0.86c-0.01-0.05-0.02-0.12-0.04-0.21c0-0.02-0.01-0.04-0.02-0.06c-0.65-1.53-3.18-2.31-7.96-2.45 c-0.46-0.01-0.9-0.02-1.3-0.02c-2.03-0.04-4.04,0.24-5.99,0.82C6.71,3.96,6.65,3.99,6.57,4.01L8.1,5.54 C9.2,5.24,10.76,5.01,12.92,5.01z"/></svg>