<svg viewBox="0 0 24 24" fill="#44739e" xmlns="http://www.w3.org/2000/svg"><title>hue:wall-turaco</title><desc>Source: https://github.com/arallsopp/hass-hue-icons</desc><path d="M9.11,23.18c-0.13-0.06-1.08-0.48-2.12-0.94c-1.19-0.52-1.9-0.85-1.93-0.88C5.03,21.34,5,21.29,4.99,21.26 C4.97,21.19,4.98,1.73,5,1.71c0,0,0.21-0.04,0.45-0.08s1.23-0.2,2.19-0.36l1.76-0.29l0.33,0.03c0.5,0.04,0.55,0.08,0.56,0.44 l0.01,0.22l0.11,0.01c0.06,0.01,0.38,0.02,0.71,0.04c0.33,0.02,0.84,0.04,1.13,0.05c1.15,0.06,1.99,0.1,2.45,0.12l0.48,0.02 l1.78-0.21l1.78-0.21l0.27,0.03c0.32,0.03,0.41,0.06,0.47,0.18c0.04,0.07,0.04,0.07,0.04,10.11c0,9.95,0,10.04-0.04,10.1 c-0.02,0.04-0.06,0.09-0.1,0.11c-0.07,0.04-0.51,0.15-0.62,0.15c-0.07,0-2.51-0.74-2.6-0.79c-0.17-0.09-0.2-0.35-0.05-0.49 c0.08-0.08,0.07-0.08,0.89-0.19c0.35-0.05,0.65-0.09,0.68-0.09l0.05-0.01l-0.01-6.24C17.72,6.71,17.71,3.13,17.7,3.12 c0,0-1.55-0.08-3.43-0.17l-3.42-0.17l-0.27,0.05l-0.27,0.05l0,10.02c0,6.84-0.01,10.04-0.02,10.09c-0.05,0.17-0.14,0.22-0.49,0.27 C9.4,23.31,9.38,23.31,9.11,23.18L9.11,23.18z"/></svg>