<svg viewBox="0 0 24 24" fill="#44739e" xmlns="http://www.w3.org/2000/svg"><title>hue:wall-spot-off</title><desc>Source: https://github.com/arallsopp/hass-hue-icons</desc><path d="M21.97,20.95L2.88,1.86L1.49,3.24l6.04,6.04c-0.06,0.41-0.01,0.78,0.18,1.03l0.66,0.94H6.73 C6.69,10.34,6.58,9.47,6.4,8.78C6.21,8.05,5.96,7.63,5.72,7.53C5.68,7.51,5.63,7.5,5.59,7.5H4.16c-0.04,0-0.09,0.01-0.13,0.03 c-0.26,0.11-0.5,0.56-0.7,1.33c-0.44,1.75-0.44,4.54,0,6.29c0.2,0.77,0.44,1.22,0.7,1.33c0.04,0.02,0.09,0.03,0.13,0.03h1.43 c0.04,0,0.09-0.01,0.13-0.03c0.25-0.11,0.49-0.52,0.68-1.25c0.18-0.69,0.29-1.56,0.33-2.47h2.7l3.71,5.3 c0.59,0.83,1.97,0.9,3.47,0.31l3.98,3.98L21.97,20.95z M13.94,16.62c-0.2-0.28-0.23-0.65-0.12-1.06l1.51,1.51 C14.71,17.13,14.2,16.99,13.94,16.62z M19.12,12.84c0.47,0.65,0.04,1.79-0.95,2.76l1.07,1.07c1.53-1.46,2.19-3.22,1.48-4.22l-6.56-7.5 c-0.67-0.87-2.65-0.43-4.41,0.98C9.51,6.12,9.29,6.32,9.09,6.52l6.65,6.65C17.11,12.27,18.59,12.11,19.12,12.84z"/></svg>