<svg viewBox="0 0 24 24" fill="#44739e" xmlns="http://www.w3.org/2000/svg"><title>hue:wall-appear-group-off</title><desc>Source: https://github.com/arallsopp/hass-hue-icons</desc><path d="M1.5,3.24l1.48,1.48V6.1L1.39,6.82c-0.18,0.08-0.3,0.26-0.3,0.46v10.81c0,0.28,0.22,0.5,0.5,0.5h1.38v1.92 c0,1.44,2.04,2.53,4.74,2.53c2.7,0,4.74-1.09,4.74-2.53V14.2l1.04,1.04v0.25c0,0.23,0.19,0.42,0.42,0.42h0.25l0.93,0.93v0.69 c0,0.97,1.11,1.75,2.72,2.02l2.78,2.78l1.38-1.38L2.88,1.86L1.5,3.24z M7.72,22.03c-2.14,0-3.74-0.81-3.74-1.53 c0-0.72,1.6-1.53,3.74-1.53c2.14,0,3.74,0.81,3.74,1.53C11.46,21.22,9.86,22.03,7.72,22.03z M19.11,0.97c-2.29,0-4.02,0.92-4.02,2.14v2.21l-1.35,0.61C13.59,6,13.49,6.15,13.49,6.32v4.61l5.32,5.32 c0.1,0,0.19-0.01,0.3-0.01c1.82,0,3.17,0.68,3.17,1.3c0,0.35-0.46,0.73-1.2,0.98l0.64,0.64c0.86-0.39,1.4-0.96,1.4-1.64V3.12 C23.13,1.9,21.4,0.97,19.11,0.97z M12.45,3.51c0.01-1.45-2.03-2.54-4.73-2.54c-1.38,0-2.58,0.29-3.43,0.76l8.16,8.16V3.51z"/></svg>