<svg viewBox="0 0 24 24" fill="#44739e" xmlns="http://www.w3.org/2000/svg"><title>hue:wall-impress-narrow</title><desc>Source: https://github.com/arallsopp/hass-hue-icons</desc><path d="M13.37,0.6L5.05,2.58L5.03,3.91c0,0-0.3,0.08-0.38,0.13C4.57,4.1,4.58,4.23,4.58,4.23L4.52,20.55 c0,0,0.02,0.1,0.09,0.15s0.33,0.07,0.33,0.07l0.02,1.11l8.41,1.58l5.4-1.36V3.4L13.37,0.6z M14.26,2.52l3.57,1.77v0.18l-2.38,0.5 v0.6l2.04-0.36l0.02,15.05l-2.02-0.33l0.01,0.59l2.28,0.36l0,0.2l-3.53,0.66L14.26,2.52z M12.08,2.53l-0.03,19.12l-5.97-0.92 l0.02-0.19l2.28-0.38V4.81L6.14,3.98c0,0,0-0.27,0.28-0.33S12.08,2.53,12.08,2.53z"/></svg>