<svg viewBox="0 0 24 24" fill="#44739e" xmlns="http://www.w3.org/2000/svg"><title>hue:wall-attract</title><desc>Source: https://github.com/arallsopp/hass-hue-icons</desc><path d="M6.44,10.54h0.99l-0.3,2.78h12.98c0,0-0.33-2.78-0.56-3.96c-0.55-0.19-4.82-0.46-4.82-0.46V4.52 c0.01-0.23-0.17-0.43-0.4-0.44c-0.03,0-0.05,0-0.08,0l-3.07,0.4c-0.37-1.62-1.71-2.84-3.36-3.05H6.54C4.61,1.63,3.1,3.61,3.1,5.99 C3.1,8.33,4.56,10.28,6.44,10.54z M11.34,6.74l1.05-0.12l-0.03,2.39c-0.53,0-1.26,0.05-1.99,0.1C10.89,8.42,11.23,7.6,11.34,6.74z M21.27,21.48l-0.79-6.91c-0.03-0.23-0.22-0.4-0.45-0.4h0l-12.76,0c-0.23,0-0.42,0.17-0.45,0.39l-0.83,6.77 c-0.03,0.23,0.12,0.45,0.35,0.49c2.32,0.45,4.69,0.68,7.05,0.67c0.18,0,0.36,0,0.55,0c2.33-0.02,4.65-0.2,6.96-0.54 C21.14,21.94,21.3,21.72,21.27,21.48z M13.93,21.62c-2.34,0.03-4.68-0.16-6.99-0.57l0.73-5.96l11.96,0l0.7,6.08 C18.21,21.43,16.07,21.59,13.93,21.62z M14.97,15.73h-2.82c-0.25,0-0.45,0.2-0.45,0.45c0,0.25,0.2,0.45,0.45,0.45h2.82 c0.25,0,0.45-0.2,0.45-0.45C15.42,15.93,15.22,15.73,14.97,15.73C14.97,15.73,14.97,15.73,14.97,15.73z M14.97,17.27h-2.82 c-0.25,0-0.45,0.2-0.45,0.45c0,0.25,0.2,0.45,0.45,0.45h2.82c0.25,0,0.45-0.2,0.45-0.45C15.42,17.47,15.22,17.27,14.97,17.27z M14.97,18.82h-2.82c-0.25,0-0.45,0.2-0.45,0.45c0,0.25,0.2,0.45,0.45,0.45c0,0,0,0,0,0h2.82c0.25,0,0.45-0.2,0.45-0.45 C15.42,19.02,15.22,18.82,14.97,18.82z"/></svg>