<svg viewBox="0 0 24 24" fill="#44739e" xmlns="http://www.w3.org/2000/svg"><title>hue:wall-lucca-alt-off</title><desc>Source: https://github.com/arallsopp/hass-hue-icons</desc><path d="M1.5,3.24l1.43,1.43L1.4,4.9c-0.02,0-0.04,0.03-0.06,0.04c-0.01,0.01-0.03,0-0.05,0.01 C1.27,4.96,1.26,4.98,1.25,4.99C1.25,5,1.24,5,1.23,5v0.01C1.2,5.05,1.19,5.1,1.19,5.15l0.02,9.72c0,0.11,0.07,0.21,0.17,0.24 l5.39,1.87c0.34,1.62,5.73,1.81,8.1,1.81c0.57,0,1.32-0.01,2.12-0.05l3.6,3.6l1.38-1.38L2.88,1.86L1.5,3.24z M10.53,12.27 l1.99,1.99c-1.61-0.1-2.68-0.28-3.23-0.4v-1.77C9.67,12.16,10.1,12.22,10.53,12.27z M14.85,17.46c-2.97,0-4.79-0.3-5.57-0.47v-1.77 c1.55,0.3,3.45,0.39,4.61,0.42l1.81,1.81C15.42,17.45,15.15,17.46,14.85,17.46z M21.97,15.72V14.8c0.68-0.29,1.03-0.66,1.03-1.1c0-0.45-0.34-0.81-1.03-1.1v-0.92 c0.68-0.31,1.01-0.67,1.01-1.12s-0.34-0.81-1.03-1.1V8.54c0.08-0.03,0.16-0.07,0.24-0.11c0.53-0.27,0.79-0.61,0.79-1 c0-0.4-0.27-0.73-0.79-1c-0.62-0.32-1.66-0.57-3.06-0.73c-0.63-0.07-1.33-0.13-2.07-0.17c-0.82-0.04-1.52-0.06-1.93-0.06L7.26,4.03 c-0.03,0-0.05-0.01-0.08,0L6.67,4.11l3.06,3.06c0.13-0.02,0.25-0.05,0.39-0.07c0.61-0.1,1.3-0.17,2.05-0.22 c0.84-0.06,1.74-0.09,2.68-0.09c3.19,0,5.36,0.36,6.26,0.64c-0.9,0.28-3.06,0.64-6.26,0.64c-0.5,0-0.97-0.01-1.41-0.02 c-0.84-0.03-1.63-0.08-2.37-0.17c-0.26-0.03-0.5-0.06-0.72-0.09l1.49,1.49c1.49,0.11,2.79,0.12,3.01,0.12h0.22 c0.45,0,1.16-0.02,1.98-0.06c0.74-0.04,1.44-0.1,2.07-0.17c0.47-0.06,0.92-0.12,1.33-0.21v1.76c-0.79,0.17-2.61,0.48-5.6,0.48 c-0.39,0-0.76-0.01-1.1-0.01l1.34,1.34c0.83-0.01,3.42-0.06,5.36-0.44v0.35c0,0.01,0,0.02,0,0.03v0.86c0,0.01,0,0.02,0,0.03v0.49 c-0.59,0.13-1.77,0.34-3.61,0.43l1.24,1.24c0.8-0.07,1.63-0.16,2.37-0.31v0.36c0,0.01,0,0.02,0,0.03v0.86c0,0.01,0,0.02,0,0.03 v0.49c-0.19,0.04-0.45,0.09-0.77,0.14l1.16,1.16c1.25-0.29,2.16-0.75,2.16-1.46C23,16.37,22.66,16.01,21.97,15.72z"/></svg>