<svg
    xmlns="http://www.w3.org/2000/svg"
    viewBox="0 0 24 24"
    height="24px"
    width="24px">
    <path d="M6.82444,4.50192C5.01041,5.07638,4.07582,6.13053,4.06856,6.31228 C4.05782,6.57894,4.03517,6.90271,4.03517,7.18835c0,0.28569,0.13773,0.51171,0.13773,0.51171L1.78557,9.05164v10.91175 l9.81476,0.99985c0,0,1.55077-0.57132,3.16274-1.10189c4.938-0.0612,7.32538-1.26509,7.34578-1.93845 s0.10199-0.24484,0.0204-0.87741c-0.65297-1.22429-4.44828-1.73441-9.16179-1.69362 c-4.71356,0.04085-7.87631,0.93865-7.87631,0.93865s0.0816-1.4772,0.10199-1.91805c0.0204-0.4409,1.83646-1.57117,7.73346-1.69362 c5.71342-0.08165,7.89671,1.18349,7.93755,1.71402c0.0408,0.53052,0.0816,0.959,0.0816,0.959s1.10189-0.38768,1.10189-1.02025 c0-0.63252,0-0.83656-0.06125-1.12224c-1.30588-1.63242-5.44813-1.71401-9.01895-1.81606 C9.39659,11.29133,5.234,12.41357,5.234,12.41357s0.04698-1.28451,0.0612-1.67317c0.01421-0.3887,1.48958-1.87726,7.73346-1.87726 s7.63142,1.32628,7.67227,1.87726c0.0408,0.55092,0.0204,0.51012,0.0612,1.12224c0.71304-0.22694,1.20389-1.12224,1.20389-1.12224 s0-0.67337-0.0612-1.12229c-0.81621-1.61197-4.75436-2.12209-8.91695-2.12209c-4.16264,0-7.61107,1.12224-7.61107,1.12224 s-0.0204-1.12224,0.06125-1.48958c0.08159-0.36728,1.53037-2.1017,7.77426-2.04045c6.24389,0.0612,7.22334,1.46913,7.22334,1.77521 c0,0.30609,0.10205,1.55077,0.10205,1.55077s1.34673-0.59172,1.34673-1.36713s-0.02045-0.63257-0.08165-1.04065 c-0.67337-1.59157-3.71344-2.18228-7.73346-2.3021S8.63847,3.92746,6.82444,4.50192z M12.51552,19.77372 c-2.40374,0-7.42099-0.37633-7.42099-1.54658s4.66934-1.61621,8.30657-1.64786s7.46424,0.44279,7.55913,1.51816 C21.05512,19.1728,14.91926,19.77372,12.51552,19.77372z"/>
</svg>
