<svg viewBox="0 0 24 24" fill="#44739e" xmlns="http://www.w3.org/2000/svg"><title>hue:wall-econic-lantern-top</title><desc>Source: https://github.com/arallsopp/hass-hue-icons</desc><path d="M20.4,9.46l-0.14-0.11c-0.08-0.06-1.91-1.44-6.55-1.53c-0.19-0.01-0.38,0-0.57,0 c-0.01-0.18-0.02-0.31-0.02-0.31c-0.03-1.29-0.87-2.71-0.96-2.75c-0.09-0.03-0.29-0.28-0.64,0c-0.09,0.07-0.19,0.28-0.29,0.56 C8.27,5.48,7.55,4.9,7.25,4.4C7.03,2.93,6.58,1.92,6.06,1.92H4.72c-0.74,0-1.34,1.01-1.34,3.49s0.6,5.49,1.34,5.49h0.93l2.26,9.16 l0.09,0.09c0.72,0.8,1.64,1.4,2.66,1.74l0.55,0.18c0,0,1.34-0.22,1.65-0.28c2.72-0.41,4.81-0.62,4.91-0.87 c0.09-0.22,1.81-6.63,2.82-10.44l0.03-0.12L20.4,9.46z M10.91,6.42c-0.1,0.36-0.2,0.86-0.26,1.48C9.51,7.98,8.38,8.13,7.26,8.34 C7.29,8.13,7.32,7.9,7.34,7.67C8.46,6.68,9.77,6.47,10.91,6.42z M7.14,10.39l2.41,0.82l0.64,5.21l-1.84-0.96L7.14,10.39z M9.18,18.9 l-0.52-2.15l1.68,0.88l0.28,2.24L9.18,18.9z M16.16,19.59l-4.44,0.56l-0.27-2.52l5.33-0.5L16.16,19.59z M17.05,16.12l-5.7,0.53 l-0.56-5.25l7.58-0.43L17.05,16.12z"/></svg>