<svg viewBox="0 0 24 24" fill="#44739e" xmlns="http://www.w3.org/2000/svg"><title>hue:wall-tuar</title><desc>Source: https://github.com/arallsopp/hass-hue-icons</desc><path d="M21.28,2.62L21.28,2.62c-0.02-0.61-0.8-0.97-2.68-1.25c-1.86-0.24-3.73-0.36-5.6-0.34 c-1.87-0.02-3.74,0.1-5.6,0.34C5.52,1.66,4.74,2.01,4.72,2.61l0,0.01c0,0.06-0.02,0.52-0.05,1.18L2.82,4.08 C2.65,4.11,2.53,4.25,2.53,4.42l0.18,14.91c0,0.12,0.07,0.24,0.18,0.3l5.4,2.85c0.03,0.02,0.06,0.03,0.1,0.03 c1.4,0.24,2.81,0.38,4.22,0.44c0.28,0.01,0.55,0.01,0.82,0.01c2.56,0,4.22-0.47,4.93-1.4c0.05-0.06,0.07-0.13,0.07-0.21v-4.87 c0.08-0.02,0.15-0.03,0.23-0.05c0.61-0.14,1.2-0.33,1.77-0.58c0.37-0.18,0.86-0.47,0.87-0.93c0.01-0.26,0.18-4.39,0.18-5.82 C21.47,7.5,21.29,2.82,21.28,2.62z M18.15,11.47c-1.7,0.26-3.42,0.39-5.14,0.38c-1.73,0.01-3.46-0.13-5.16-0.42 c-0.83-0.08-1.63-0.32-2.36-0.71c-0.01-0.04-0.02-0.07-0.04-0.11C5.42,9.99,5.4,9.43,5.4,9.06c0-0.35,0.01-0.85,0.03-1.43 c0.06,0.03,0.12,0.05,0.16,0.06c0.57,0.2,1.16,0.35,1.76,0.44c1.86,0.29,3.73,0.43,5.61,0.41c1.9,0.01,3.8-0.14,5.68-0.44 c0.61-0.1,1.22-0.25,1.81-0.45c0.03-0.01,0.05-0.02,0.09-0.03c0.01,0.6,0.02,1.12,0.02,1.48c0,0.38-0.01,0.96-0.03,1.6 c-0.02,0.03-0.03,0.07-0.04,0.1C19.76,11.18,18.97,11.4,18.15,11.47z M20.51,6.58C20.5,6.6,20.5,6.62,20.49,6.64 C19.75,7,18.95,7.21,18.12,7.28c-1.71,0.25-3.43,0.37-5.16,0.36c-1.7,0.01-3.41-0.1-5.09-0.34c-0.8-0.05-1.58-0.26-2.3-0.62 C5.55,6.61,5.52,6.55,5.47,6.49c0.04-1.1,0.09-2.25,0.12-3C6.18,3.69,6.78,3.83,7.4,3.9c1.86,0.24,3.73,0.36,5.6,0.34 c1.87,0.02,3.74-0.1,5.6-0.34c0.61-0.08,1.22-0.21,1.81-0.4C20.44,4.27,20.48,5.46,20.51,6.58z M7.91,2.22 C9.6,2.02,11.3,1.93,13,1.94c1.7-0.01,3.4,0.08,5.09,0.28c0.69,0.07,1.37,0.21,2.03,0.42C19.46,2.85,18.78,3,18.09,3.06 C16.4,3.26,14.7,3.35,13,3.34c-1.7,0.01-3.4-0.08-5.09-0.28C7.22,3,6.54,2.85,5.88,2.64C6.54,2.43,7.22,2.29,7.91,2.22z M20.39,14.82c-0.69,0.42-1.47,0.7-2.27,0.81c-1.68,0.35-3.39,0.53-5.11,0.52c-1.72,0.01-3.43-0.18-5.11-0.56 c-0.81-0.13-1.58-0.42-2.27-0.86c-0.02-0.3-0.09-1.64-0.14-2.99c0.59,0.23,1.21,0.4,1.83,0.51c1.88,0.35,3.78,0.52,5.69,0.5 c1.9,0.01,3.79-0.14,5.66-0.46c0.61-0.1,1.21-0.26,1.79-0.47l0.03-0.01C20.46,13.16,20.4,14.5,20.39,14.82z"/></svg>