<svg viewBox="0 0 24 24" fill="#44739e" xmlns="http://www.w3.org/2000/svg"><title>hue:wall-lucca-alt-below-off</title><desc>Source: https://github.com/arallsopp/hass-hue-icons</desc><path d="M1.5,3.24l3.27,3.27L1.37,7.7C1.27,7.74,1.2,7.84,1.2,7.95l-0.02,9.72c0,0.05,0.02,0.09,0.05,0.13v0.01 c0,0.01,0.01,0.01,0.02,0.01c0.01,0.02,0.02,0.03,0.04,0.05c0.01,0.01,0.03,0,0.05,0.01c0.02,0.01,0.04,0.03,0.06,0.04l5.78,0.88 c0.03,0,0.06,0,0.08,0l7.86-1.44c0.13,0,0.3,0,0.49,0l4.98,4.98l1.38-1.38L2.88,1.86L1.5,3.24z M10.18,11.93l1.62,1.62 c-0.84,0.06-1.73,0.16-2.52,0.32v-1.77C9.5,12.04,9.8,11.99,10.18,11.93z M12.17,15.93c-0.75-0.05-1.44-0.13-2.05-0.22 c-0.29-0.04-0.55-0.09-0.77-0.14c-0.33-0.07-0.57-0.13-0.74-0.19c0.37-0.12,0.9-0.23,1.52-0.33c0.29-0.04,0.6-0.09,0.94-0.12 c0.62-0.07,1.28-0.11,1.96-0.15l1.23,1.23C13.54,16,12.83,15.98,12.17,15.93z M22.98,9.13c0-0.44-0.35-0.82-1.03-1.1V7.09c0.69-0.29,1.03-0.65,1.03-1.1c0-1.78-5.69-1.97-8.13-1.97 c-1.88,0-5.64,0.12-7.3,0.97l1.73,1.73v-0.9c0.79-0.17,2.61-0.47,5.57-0.47c2.99,0,4.81,0.31,5.6,0.48v0.49c0,0.01,0,0.02,0,0.03 v0.86c0,0.01,0,0.02,0,0.03V7.6c-2.21-0.43-5.25-0.44-5.6-0.44c-0.51,0-2.81,0.02-4.82,0.31l1.19,1.19 c0.93-0.1,2.13-0.18,3.63-0.18c3,0,4.82,0.31,5.6,0.48v0.49c0,0.01,0,0.02,0,0.03v0.86c0,0.01,0,0.02,0,0.03v0.36 c-2.21-0.43-5.25-0.44-5.6-0.44c-0.17,0-0.94,0-1.95,0.05l1.29,1.29c0.22,0,0.43-0.01,0.66-0.01c2.99,0,4.81,0.31,5.6,0.48v1.76 c-0.41-0.08-0.86-0.15-1.33-0.21c-0.63-0.07-1.33-0.13-2.07-0.17c-0.38-0.02-0.73-0.03-1.05-0.04l1.39,1.39 c1.81,0.12,3.09,0.36,3.73,0.56c-0.51,0.16-1.43,0.34-2.7,0.47l1.21,1.21c1.15-0.16,2.02-0.38,2.56-0.66 c0.53-0.27,0.79-0.61,0.79-1c0-0.4-0.27-0.73-0.79-1c-0.07-0.04-0.15-0.07-0.24-0.11v-0.92c0.69-0.29,1.03-0.65,1.03-1.1 c0.01-0.47-0.32-0.83-1.02-1.12v-0.92C22.64,9.94,22.98,9.58,22.98,9.13z"/></svg>