<svg
    xmlns="http://www.w3.org/2000/svg"
    viewBox="0 0 24 24"
    height="24px"
    width="24px">
    <path d="M6.8,4.5C5,5.1,4.1,6.1,4.1,6.3c0,0.3,0,0.6,0,0.9c0,0.3,0.1,0.5,0.1,0.5L1.8,9.1V20l9.8,1c0,0,1.6-0.6,3.2-1.1
    c4.9-0.1,7.3-1.3,7.3-1.9s0.1-0.2,0-0.9c-0.7-1.2-4.4-1.7-9.2-1.7c-4.7,0-7.9,0.9-7.9,0.9s0.1-1.5,0.1-1.9c0-0.4,1.8-1.6,7.7-1.7
    c5.7-0.1,7.9,1.2,7.9,1.7c0,0.5,0.1,1,0.1,1s1.1-0.4,1.1-1c0-0.6,0-0.8-0.1-1.1c-1.3-1.6-5.4-1.7-9-1.8c-3.6-0.1-7.7,1-7.7,1
    s0-1.3,0.1-1.7c0-0.4,1.5-1.9,7.7-1.9s7.6,1.3,7.7,1.9c0,0.6,0,0.5,0.1,1.1c0.7-0.2,1.2-1.1,1.2-1.1s0-0.7-0.1-1.1
    C21.1,8,17.2,7.5,13,7.5c-4.2,0-7.6,1.1-7.6,1.1s0-1.1,0.1-1.5C5.5,6.8,7,5,13.2,5.1c6.2,0.1,7.2,1.5,7.2,1.8c0,0.3,0.1,1.6,0.1,1.6
    s1.3-0.6,1.3-1.4s0-0.6-0.1-1c-0.7-1.6-3.7-2.2-7.7-2.3S8.6,3.9,6.8,4.5z M12.5,19.8c-2.4,0-7.4-0.4-7.4-1.5s4.7-1.6,8.3-1.6
    s7.5,0.4,7.6,1.5C21.1,19.2,14.9,19.8,12.5,19.8z"/>
</svg>
