<svg viewBox="0 0 24 24" fill="#44739e" xmlns="http://www.w3.org/2000/svg"><title>hue:wellner-solid</title><desc>Source: https://github.com/arallsopp/hass-hue-icons</desc><path d="M20.2,8.47c-1.31-1.51-2.88-2.78-4.63-3.75c-1.06-0.57-2.23-0.89-3.43-0.93c-0.05,0-0.09,0.01-0.13,0.02 c-0.04-0.01-0.09-0.02-0.13-0.02c-1.2,0.04-2.38,0.36-3.43,0.93C6.68,5.69,5.11,6.96,3.8,8.47c-1.3,1.45-1.98,3.34-1.89,5.28 c0.14,1.59,1.08,3.58,2.55,4.13c1.14,0.43,5.58,0.56,7.44,0.59l0-0.02c0.05,0.01,0.11,0.02,0.17,0.02h0.01c0.03,0,0.06,0,0.08,0 c1.89-0.04,6.25-0.17,7.38-0.59c1.47-0.55,2.41-2.54,2.55-4.13C22.18,11.82,21.5,9.92,20.2,8.47z M16.94,19.21 c-1.46,0.18-2.93,0.26-4.41,0.24c-2.86,0-5.48-0.24-5.5-0.24c-0.27-0.02-0.51,0.18-0.54,0.45c-0.03,0.28,0.18,0.52,0.45,0.54 c0,0,0,0,0,0c0.03,0,2.69,0.24,5.59,0.24c1.52,0.02,3.05-0.06,4.56-0.25c0.27-0.04,0.46-0.29,0.42-0.57S17.22,19.17,16.94,19.21 C16.95,19.21,16.94,19.21,16.94,19.21L16.94,19.21z"/></svg>