<svg viewBox="0 0 24 24" fill="#44739e" xmlns="http://www.w3.org/2000/svg"><title>hue:wellner-solid-off</title><desc>Source: https://github.com/arallsopp/hass-hue-icons</desc><path d="M1.49,3.24l3.77,3.77C4.75,7.47,4.25,7.95,3.8,8.47c-1.3,1.45-1.98,3.34-1.89,5.28 c0.14,1.59,1.08,3.58,2.55,4.13c1.14,0.43,5.58,0.56,7.44,0.59l0-0.02c0.05,0.01,0.11,0.02,0.17,0.02h0.01c0.03,0,0.06,0,0.08,0 c1.04-0.02,2.81-0.07,4.39-0.18l4.04,4.04l1.38-1.38L2.88,1.86L1.49,3.24z M16.95,19.2C16.95,19.21,16.94,19.21,16.95,19.2L16.95,19.2c-1.47,0.18-2.94,0.26-4.42,0.24 c-2.86,0-5.48-0.24-5.5-0.24c-0.27-0.02-0.51,0.18-0.54,0.45c-0.03,0.28,0.18,0.52,0.45,0.54c0,0,0,0,0,0 c0.03,0,2.69,0.24,5.59,0.24c1.52,0.02,3.05-0.06,4.56-0.25c0.27-0.04,0.46-0.29,0.42-0.57C17.48,19.36,17.22,19.17,16.95,19.2z M22.09,13.76c0.09-1.94-0.59-3.84-1.89-5.28c-1.31-1.51-2.88-2.78-4.63-3.75c-1.06-0.57-2.23-0.89-3.43-0.93 c-0.05,0-0.09,0.01-0.13,0.02c-0.04-0.01-0.09-0.02-0.13-0.02c-1.2,0.04-2.38,0.36-3.43,0.93C8.19,4.86,7.96,5.01,7.72,5.15 l12.41,12.41C21.26,16.77,21.97,15.12,22.09,13.76z"/></svg>