<svg viewBox="0 0 24 24" fill="#44739e" xmlns="http://www.w3.org/2000/svg"><title>hue:wellness</title><desc>Source: https://github.com/arallsopp/hass-hue-icons</desc><path d="M22.01,14.89L19.69,3.16c-0.02-0.44-0.48-2.62-7.64-2.67C4.7,0.43,4.38,3.04,4.37,3.27L1.99,15.3 c-0.16,0.78,0.03,1.59,0.52,2.22c0.67,0.81,1.56,1.4,2.56,1.71c0.4,0.37,0.9,0.63,1.43,0.74c0,0-0.5,3.58,5.36,3.56 c5.85-0.02,5.61-2.62,5.82-3.65c0.57-0.15,1.09-0.44,1.51-0.84l-0.04,0.02c0.87-0.34,1.64-0.9,2.23-1.63 C21.96,16.72,22.19,15.79,22.01,14.89z M20.56,16.85c-0.82,1.05-2.96,2.3-8.56,2.3c-5.77,0-7.9-1.2-8.67-2.21 c-0.33-0.39-0.47-0.9-0.38-1.4l2.4-12.14c0-0.02,0.35-1.93,6.49-1.93c0.07,0,0.13,0,0.2,0c5.2,0.03,6.56,1.27,6.66,1.79l2.34,11.84 C21.15,15.74,20.97,16.37,20.56,16.85L20.56,16.85z"/></svg>