<svg viewBox="0 0 24 24" fill="#44739e" xmlns="http://www.w3.org/2000/svg"><title>hue:wellner</title><desc>Source: https://github.com/arallsopp/hass-hue-icons</desc><path d="M20.2,8.19c-1.31-1.51-2.88-2.78-4.63-3.75c-1.06-0.57-2.23-0.89-3.43-0.93c-0.05,0-0.09,0.01-0.13,0.02 c-0.04-0.01-0.09-0.02-0.13-0.02c-1.2,0.04-2.38,0.36-3.43,0.93C6.68,5.41,5.11,6.68,3.8,8.19c-1.3,1.45-1.98,3.34-1.89,5.28 c0.14,1.59,1.08,3.58,2.55,4.13c0.46,0.14,0.93,0.23,1.4,0.27l0.65,1.59c0.07,0.17,0.23,0.29,0.42,0.31c0.03,0,2.69,0.24,5.59,0.24 c1.52,0.02,3.05-0.06,4.56-0.25c0.17-0.03,0.31-0.14,0.38-0.29l0.7-1.6c0.47-0.04,0.93-0.13,1.37-0.27 c1.47-0.55,2.41-2.54,2.55-4.13C22.18,11.53,21.5,9.64,20.2,8.19z M16.67,18.81c-1.37,0.15-2.76,0.21-4.14,0.2 c-2.3,0-4.43-0.15-5.2-0.21l-0.33-0.81c1.71,0.14,3.78,0.19,4.91,0.21l0-0.02c0.05,0.01,0.11,0.02,0.17,0.02h0.01 c0.03,0,0.06,0,0.08,0c1.14-0.02,3.18-0.08,4.86-0.22L16.67,18.81z M21.1,13.39c-0.11,1.27-0.87,2.89-1.91,3.28 c-2.35,0.38-4.73,0.56-7.11,0.53c-0.02,0-0.05,0-0.07,0.01l0,0h0c-0.01,0-0.03,0-0.05,0c-0.01,0-0.03,0-0.04,0 c-2.38,0.03-4.76-0.15-7.11-0.53c-1.04-0.39-1.8-2.01-1.91-3.28c-0.06-1.66,0.52-3.28,1.63-4.51c1.23-1.43,2.7-2.62,4.35-3.54 c0.92-0.5,1.94-0.78,2.99-0.83c0.05,0,0.09-0.01,0.13-0.02c0.04,0.01,0.09,0.02,0.13,0.02c1.05,0.04,2.07,0.33,2.99,0.83 c1.65,0.91,3.12,2.11,4.35,3.54C20.57,10.11,21.16,11.73,21.1,13.39L21.1,13.39z"/></svg>