<svg viewBox="0 0 24 24" fill="#44739e" xmlns="http://www.w3.org/2000/svg"><title>hue:bloom</title><desc>Source: https://github.com/arallsopp/hass-hue-icons</desc><path d="M18.69,17.65c-1.49-0.67-4.69-2.54-7.66-5.47c-3.06-3.02-5.01-6.2-5.61-7.64C5.3,4.27,5.55,3.98,5.85,4.06 c0.41,0.1,0.96,0.3,1.66,0.67c3.87,2.07,8.91,7.05,11.02,10.87c0.37,0.67,0.56,1.23,0.66,1.66C19.25,17.54,18.95,17.77,18.69,17.65 M19.49,15.07c-2.21-4.02-7.38-9.11-11.46-11.3c-1.24-0.66-2.21-0.9-2.92-0.9c0,0-0.45-0.01-0.79,0.13c-0.9,0.39-1.4,1.45-1.4,3.76 c0,2.83,1.19,5.59,3.05,7.86l-2.93,4.36c-0.33,0.48,0.02,1.13,0.6,1.12l4.8-0.02c0.48,0,0.94-0.24,1.21-0.64l0.73-1.08 c1.93,1.11,4.04,1.75,6.09,1.75c1.75,0,2.87-0.42,3.59-1.14C20.48,18.59,20.61,17.12,19.49,15.07"/></svg>