<svg viewBox="0 0 24 24" height="24px" width="24px" fill="#44739e" xmlns="http://www.w3.org/2000/svg"><title>hue:bloom</title><desc>Source: https://github.com/arallsopp/hass-hue-icons</desc><path d="M 18.6875 17.652344 C 17.195312 16.984375 13.996094 15.117188 11.03125 12.183594 C 7.96875 9.160156 6.023438 5.980469 5.421875 4.546875 C 5.304688 4.269531 5.554688 3.984375 5.851562 4.058594 C 6.265625 4.15625 6.816406 4.355469 7.511719 4.726562 C 11.378906 6.796875 16.425781 11.773438 18.53125 15.59375 C 18.898438 16.261719 19.09375 16.820312 19.1875 17.253906 C 19.25 17.535156 18.953125 17.769531 18.6875 17.652344 M 19.488281 15.074219 C 17.273438 11.054688 12.105469 5.960938 8.03125 3.777344 C 6.792969 3.117188 5.816406 2.875 5.109375 2.875 C 5.109375 2.875 4.660156 2.867188 4.316406 3.003906 C 3.414062 3.390625 2.917969 4.449219 2.917969 6.765625 C 2.917969 9.597656 4.109375 12.355469 5.964844 14.621094 L 3.035156 18.984375 C 2.707031 19.464844 3.054688 20.113281 3.636719 20.109375 L 8.4375 20.09375 C 8.921875 20.09375 9.375 19.851562 9.644531 19.453125 L 10.375 18.371094 C 12.300781 19.476562 14.410156 20.125 16.464844 20.125 C 18.210938 20.125 19.332031 19.707031 20.054688 18.984375 C 20.480469 18.589844 20.613281 17.117188 19.488281 15.074219 "/></svg>