<svg viewBox="0 0 24 24" fill="#44739e" xmlns="http://www.w3.org/2000/svg"><title>hue:bollard</title><desc>Source: https://github.com/arallsopp/hass-hue-icons</desc><path d="M15.75,9.38c0,0.62-1.68,1.12-3.75,1.12S8.25,10,8.25,9.38V6.22c0-0.18,0.2-0.28,0.35-0.18 C9.2,6.42,10.5,6.75,12,6.75s2.8-0.33,3.4-0.71c0.15-0.1,0.35,0,0.35,0.18V9.38z M10.01,3.96c1.2-0.28,3.04-0.28,4.16,0 c1.14,0.29,1.12,0.76-0.09,1.06c-1.23,0.31-3.19,0.31-4.32,0C8.65,4.72,8.78,4.24,10.01,3.96z M15.25,3.36 C14.41,3.12,13.3,3,12.17,3c-1.12,0-2.27,0.12-3.16,0.36C8.02,3.62,7.5,3.98,7.5,4.34v15.42c0,0.3,0.38,0.6,1.14,0.84 c0.86,0.26,2.01,0.4,3.19,0.4c1.18,0,2.37-0.14,3.29-0.4S16.5,20,16.5,19.66V4.24C16.5,3.91,16.08,3.6,15.25,3.36z"/></svg>