<svg viewBox="0 0 24 24" height="24px" width="24px" fill="#44739e" xmlns="http://www.w3.org/2000/svg"><title>hue:bridge-v1</title><desc>Source: https://github.com/arallsopp/hass-hue-icons</desc><path d="M12,16.72c-2.6,0-4.72-2.12-4.72-4.72S9.4,7.28,12,7.28S16.72,9.4,16.72,12S14.6,16.72,12,16.72 M5.02,8.1 c-0.52,0-0.94-0.42-0.94-0.94c0-0.52,0.42-0.94,0.94-0.94c0.52,0,0.94,0.42,0.94,0.94C5.97,7.68,5.55,8.1,5.02,8.1 M3.5,12.94 c-0.52,0-0.94-0.42-0.94-0.94c0-0.52,0.42-0.94,0.94-0.94S4.45,11.48,4.45,12C4.45,12.52,4.03,12.94,3.5,12.94 M9.08,3.06 c0.52,0,0.94,0.42,0.94,0.94c0,0.52-0.42,0.94-0.94,0.94S8.14,4.53,8.14,4.01C8.14,3.48,8.56,3.06,9.08,3.06z M12,9.17 c1.56,0,2.83,1.27,2.83,2.83s-1.27,2.83-2.83,2.83S9.17,13.56,9.17,12S10.44,9.17,12,9.17z M12,0.67C5.77,0.67,0.67,5.77,0.67,12 S5.77,23.33,12,23.33S23.33,18.23,23.33,12S18.23,0.67,12,0.67"/></svg>