<svg viewBox="0 0 24 24" fill="#44739e" xmlns="http://www.w3.org/2000/svg"><title>hue:bulb-group</title><desc>Source: https://github.com/arallsopp/hass-hue-icons</desc><path d="M4.78,16.82l0.35,1.9c0.02,0.15,0.09,0.3,0.21,0.4l0.33,0.3c0.02,0.02,0.04,0.04,0.06,0.06l0.34,0.41 c0.14,0.16,0.34,0.25,0.55,0.25h0.51c0.21,0,0.41-0.09,0.55-0.25l0.34-0.41c0.02-0.02,0.04-0.04,0.06-0.06l0.33-0.3 c0.12-0.1,0.19-0.25,0.21-0.4l0.35-1.9c-0.73,0.07-1.52,0.1-2.09,0.1C6.3,16.92,5.51,16.89,4.78,16.82z M20.82,2.16 c-1.53-1.41-5.65-1.31-5.91-1.31c-0.26,0-4.38-0.1-5.91,1.31c-1.43,1.32-0.13,3.74,0.31,4.6c1.83,0.47,3.71,0.69,5.6,0.65 c1.89,0.04,3.77-0.18,5.6-0.65C20.95,5.89,22.25,3.47,20.82,2.16z M9.16,8.75C9.1,8.52,9.03,8.3,8.96,8.08 c-0.21-0.57-0.4-1.04-0.4-1.04c-0.5-0.92-0.83-1.93-0.99-2.96C7.19,4.06,6.92,4.06,6.87,4.06c-0.18,0-3.13-0.07-4.22,0.96 C1.63,5.99,2.56,7.77,2.87,8.4c1.3,0.35,2.65,0.51,4,0.48C7.64,8.89,8.4,8.84,9.16,8.75z M9.38,9.5C8.55,9.61,7.71,9.67,6.87,9.67 c-1.2,0-2.39-0.11-3.57-0.36c0.63,1.91,0.96,3.9,1,5.91c-0.01,0.16,0.05,0.32,0.16,0.44L4.74,16c0.71,0.08,1.42,0.12,2.13,0.12 c0.71,0,1.42-0.04,2.13-0.12l0.28-0.32c0.11-0.12,0.16-0.28,0.16-0.44c0.01-1.23,0.15-2.45,0.41-3.65 C9.72,10.92,9.57,10.22,9.38,9.5z M12.11,18.53l0.47,2.91c0.03,0.21,0.13,0.4,0.28,0.54l0.44,0.4c0.03,0.03,0.06,0.06,0.08,0.09 l0.46,0.55c0.18,0.21,0.45,0.34,0.74,0.33h0.69c0.28,0,0.55-0.12,0.74-0.33l0.46-0.55c0.03-0.03,0.05-0.06,0.08-0.09l0.44-0.4 c0.16-0.14,0.26-0.33,0.28-0.54l0.47-2.91c-0.98,0.09-2.05,0.13-2.81,0.13C14.16,18.66,13.08,18.63,12.11,18.53z M14.91,8.35 c-1.74,0.01-3.48-0.17-5.19-0.52c0.91,2.78,1.4,5.68,1.45,8.61c-0.01,0.24,0.07,0.47,0.23,0.64l0.41,0.47 c1.03,0.12,2.07,0.18,3.1,0.17c1.04,0,2.07-0.05,3.1-0.17l0.41-0.47c0.16-0.18,0.24-0.41,0.23-0.64c0.05-2.93,0.54-5.83,1.45-8.61 C18.4,8.18,16.66,8.35,14.91,8.35z"/></svg>