<svg viewBox="0 0 24 24" fill="#44739e" xmlns="http://www.w3.org/2000/svg"><title>hue:bulb-candle</title><desc>Source: https://github.com/arallsopp/hass-hue-icons</desc><path d="M15.73,12.34c-0.79,0.22-2.04,0.41-3.73,0.41s-2.94-0.2-3.73-0.41C8.51,8.41,10.59,3,12,3 C13.41,3,15.49,8.41,15.73,12.34z M15.75,13.1c0,0.03,0,0.07,0,0.1c0,1.86-0.57,3.17-1.3,3.89c-0.67,0.1-1.49,0.16-2.45,0.16 s-1.78-0.06-2.45-0.16c-0.73-0.72-1.3-2.04-1.3-3.89c0-0.03,0-0.07,0-0.1c1.16,0.3,2.71,0.4,3.75,0.4S14.59,13.4,15.75,13.1z M10.12,17.92C10.77,17.98,11.49,18,12,18s1.23-0.02,1.88-0.08l-0.31,1.86c-0.02,0.13-0.08,0.25-0.19,0.34l-0.29,0.25 c-0.02,0.02-0.04,0.04-0.05,0.05l-0.31,0.35C12.6,20.92,12.42,21,12.23,21h-0.46c-0.19,0-0.37-0.08-0.49-0.21l-0.31-0.35 c-0.02-0.02-0.04-0.04-0.05-0.05l-0.29-0.25c-0.11-0.09-0.17-0.21-0.19-0.34L10.12,17.92z"/></svg>