<svg viewBox="0 0 24 24" fill="#44739e" xmlns="http://www.w3.org/2000/svg"><title>hue:bulb-sultan</title><desc>Source: https://github.com/arallsopp/hass-hue-icons</desc><path d="M16.73,4.05c1.14,1.05,0.11,2.99-0.25,3.68C15.54,8,14.03,8.25,12,8.25C9.97,8.25,8.46,8,7.52,7.73 C7.17,7.04,6.13,5.1,7.27,4.05C8.5,2.93,11.79,3,12,3S15.5,2.93,16.73,4.05z M12,9c1.14,0,2.81-0.11,4.15-0.41 c-1.02,3.16-1.19,6.06-1.16,6.88c0.01,0.19-0.06,0.38-0.18,0.52l-0.33,0.38c-0.71,0.09-1.54,0.14-2.48,0.14s-1.77-0.05-2.48-0.14 l-0.33-0.38C9.06,15.84,9,15.66,9,15.46c0.04-0.82-0.14-3.71-1.16-6.88C9.19,8.89,10.86,9,12,9z M9.75,17.14 c0.78,0.08,1.64,0.11,2.25,0.11c0.61,0,1.47-0.03,2.25-0.11l-0.38,2.33c-0.02,0.16-0.1,0.32-0.23,0.43l-0.35,0.32 c-0.02,0.02-0.05,0.04-0.07,0.07l-0.37,0.44C12.72,20.9,12.51,21,12.28,21h-0.55c-0.23,0-0.45-0.1-0.59-0.27l-0.37-0.44 c-0.02-0.02-0.04-0.05-0.07-0.07l-0.35-0.32c-0.12-0.11-0.2-0.27-0.22-0.43L9.75,17.14z"/></svg>