<svg viewBox="0 0 24 24" fill="#44739e" xmlns="http://www.w3.org/2000/svg"><title>hue:bulb-flood</title><desc>Source: https://github.com/arallsopp/hass-hue-icons</desc><path d="M6.13,7.56C7.66,8.03,9.88,8.25,12,8.25s4.34-0.22,5.87-0.69l-2.71,3.21c-0.26,0.31-0.41,0.7-0.42,1.1 l-0.11,3.84c-0.01,0.39-0.32,0.7-0.7,0.73c-0.59,0.04-1.23,0.06-1.92,0.06s-1.33-0.02-1.92-0.06c-0.39-0.03-0.69-0.34-0.7-0.73 l-0.11-3.84c-0.01-0.41-0.16-0.79-0.43-1.1L6.13,7.56z M18.75,4.99V5.7c0,0.27-0.05,0.52-0.14,0.77C17.66,6.96,15.41,7.5,12,7.5 S6.34,6.96,5.39,6.47C5.3,6.23,5.25,5.97,5.25,5.7V4.99c0-0.13,0.05-0.27,0.14-0.4C6.01,3.68,8.74,3,12,3 C15.73,3,18.75,3.89,18.75,4.99z M9.75,17.15c0.78,0.07,1.64,0.1,2.25,0.1s1.47-0.03,2.25-0.1l-0.38,2.33 c-0.02,0.16-0.1,0.32-0.23,0.43l-0.35,0.32c-0.02,0.02-0.05,0.04-0.07,0.07l-0.37,0.44C12.72,20.9,12.5,21,12.27,21h-0.55 c-0.23,0-0.45-0.1-0.59-0.27l-0.37-0.44c-0.02-0.02-0.04-0.05-0.07-0.07l-0.35-0.32c-0.12-0.11-0.21-0.27-0.23-0.43L9.75,17.15z"/></svg>