<svg viewBox="0 0 24 24" height="24px" width="24px" fill="#44739e" xmlns="http://www.w3.org/2000/svg"><title>hue:bulb-group</title><desc>Source: https://github.com/arallsopp/hass-hue-icons</desc><path d="M4.78,16.82111l.348,1.89941a.64223.64223,0,0,0,.20819.40033l.32636.29578a.77377.77377,0,0,1,.06189.06433l.34405.40674a.71544.71544,0,0,0,.54736.24914h.51044a.716.716,0,0,0,.54822-.24914l.3432-.40674a.67124.67124,0,0,1,.06189-.06433l.32635-.29578a.65108.65108,0,0,0,.209-.40033l.35046-1.89941c-.72583.06994-1.52484.0957-2.09228.0957C6.30481,16.91681,5.50659,16.89105,4.78,16.82111Z M20.82245,2.15631C19.29437.75043,15.17322.84692,14.91443.84692c-.25726,0-4.37836-.09649-5.90723,1.30939-1.43078,1.31586-.12781,3.73773.30945,4.6026A20.74236,20.74236,0,0,0,14.91443,7.41a20.75084,20.75084,0,0,0,5.5993-.65112C20.95105,5.894,22.25238,3.47217,20.82245,2.15631Z M9.16486,8.747c-.06513-.22266-.13428-.447-.20661-.67121-.2074-.56506-.4035-1.04095-.4035-1.04095a9.07527,9.07527,0,0,1-.9903-2.96362c-.37622-.01447-.64306-.00965-.69372-.00965-.18488,0-3.12842-.07074-4.22.96216-1.02167.96619-.09247,2.74579.22021,3.3808a14.37025,14.37025,0,0,0,3.99976.47906A18.15305,18.15305,0,0,0,9.16486,8.747Z M9.376,9.50281a19.56279,19.56279,0,0,1-2.5055.17041,17.49736,17.49736,0,0,1-3.56811-.35529,20.032,20.032,0,0,1,.99512,5.91284.63426.63426,0,0,0,.15673.44373l.28376.32471a18.22668,18.22668,0,0,0,2.1325.11816,18.22119,18.22119,0,0,0,2.13172-.11816l.28454-.32471a.633.633,0,0,0,.156-.44373,17.82957,17.82957,0,0,1,.40918-3.64929C9.72241,10.91675,9.56567,10.219,9.376,9.50281Z M12.10535,18.53467l.46942,2.91382a.86417.86417,0,0,0,.2821.53778l.43732.39789a.83428.83428,0,0,1,.08276.086l.46222.54737a.96436.96436,0,0,0,.73706.33441h.68567a.967.967,0,0,0,.73712-.33441l.46216-.54737a.82675.82675,0,0,1,.082-.086l.43811-.39789a.86312.86312,0,0,0,.28131-.53778l.46942-2.91382c-.97662.09326-2.05053.12866-2.81329.12866C14.15668,18.66333,13.082,18.62793,12.10535,18.53467Z M14.91473,8.34735a25.36414,25.36414,0,0,1-5.191-.51849,29.20812,29.20812,0,0,1,1.4477,8.60644.91865.91865,0,0,0,.22747.64466l.41395.47345a26.50885,26.50885,0,0,0,3.10192.172,26.49865,26.49865,0,0,0,3.10193-.172L18.4306,17.08a.9193.9193,0,0,0,.22827-.64466,29.18028,29.18028,0,0,1,1.4477-8.60644A25.3662,25.3662,0,0,1,14.91473,8.34735Z"/></svg>