<svg viewBox="0 0 24 24" fill="#44739e" xmlns="http://www.w3.org/2000/svg"><title>hue:bulb-spot</title><desc>Source: https://github.com/arallsopp/hass-hue-icons</desc><path d="M12,3.75c3.73,0,6.75,0.89,6.75,1.99c0,1.1-3.02,1.99-6.75,1.99S5.25,6.84,5.25,5.74c0-0.13,0.05-0.27,0.14-0.4 C6.01,4.43,8.74,3.75,12,3.75z M6.16,7.57C7.79,8.25,10.27,8.48,12,8.48s4.21-0.23,5.84-0.91c-0.25,1.44-0.86,3.41-2.67,4.72 C15.02,12.43,15,12.66,15,13.13v2.77c0,0.36-0.11,0.71-0.35,0.97c-0.38,0.43-1.18,0.75-2.65,0.75s-2.28-0.32-2.65-0.75 C9.11,16.6,9,16.25,9,15.89v-2.77c0-0.47-0.02-0.7-0.17-0.84C7.02,10.97,6.41,9,6.16,7.57z M12.75,19.5v-1.16 c0.67-0.06,1.16-0.21,1.5-0.4v1.55c0,0.41-0.34,0.75-0.75,0.75S12.75,19.91,12.75,19.5z M9.75,19.5v-1.55 c0.34,0.19,0.83,0.34,1.5,0.4v1.16c0,0.41-0.34,0.75-0.75,0.75S9.75,19.91,9.75,19.5z"/></svg>