<svg viewBox="0 0 24 24" height="24px" width="24px" fill="#44739e" xmlns="http://www.w3.org/2000/svg"><title>hue:bulb-spot</title><desc>Source: https://github.com/arallsopp/hass-hue-icons</desc><path d="M 12 3.75 C 15.726562 3.75 18.75 4.640625 18.75 5.738281 C 18.75 6.835938 15.726562 7.730469 12 7.730469 C 8.273438 7.730469 5.25 6.835938 5.25 5.738281 C 5.25 5.605469 5.296875 5.46875 5.386719 5.339844 C 6.007812 4.433594 8.738281 3.75 12 3.75 Z M 6.160156 7.566406 C 7.785156 8.253906 10.265625 8.480469 12 8.480469 C 13.734375 8.480469 16.210938 8.253906 17.839844 7.566406 C 17.59375 9.003906 16.984375 10.972656 15.167969 12.285156 C 15.015625 12.425781 15 12.660156 15 13.128906 L 15 15.894531 C 15 16.25 14.886719 16.601562 14.648438 16.867188 C 14.273438 17.292969 13.46875 17.617188 12 17.617188 C 10.53125 17.617188 9.722656 17.292969 9.347656 16.867188 C 9.113281 16.601562 9 16.25 9 15.894531 L 9 13.128906 C 9 12.660156 8.984375 12.425781 8.832031 12.285156 C 7.015625 10.972656 6.40625 9.003906 6.160156 7.566406 Z M 12.75 19.5 L 12.75 18.34375 C 13.421875 18.28125 13.910156 18.136719 14.25 17.945312 L 14.25 19.5 C 14.25 19.914062 13.914062 20.25 13.5 20.25 C 13.085938 20.25 12.75 19.914062 12.75 19.5 Z M 9.75 19.5 L 9.75 17.945312 C 10.089844 18.136719 10.578125 18.28125 11.25 18.34375 L 11.25 19.5 C 11.25 19.914062 10.914062 20.25 10.5 20.25 C 10.085938 20.25 9.75 19.914062 9.75 19.5 Z M 9.75 19.5 "/></svg>