<svg viewBox="0 0 24 24" fill="#44739e" xmlns="http://www.w3.org/2000/svg"><title>hue:bulb-classic</title><desc>Source: https://github.com/arallsopp/hass-hue-icons</desc><path d="M7.18,9.91c1.41,0.45,3.48,0.59,4.82,0.59s3.41-0.14,4.82-0.59c-0.57,1.51-1.57,2.18-1.81,3.59 c-0.11,0.61-0.19,1.47-0.13,2.1c0.04,0.4-0.27,0.75-0.67,0.79c-0.65,0.07-1.38,0.11-2.21,0.11s-1.56-0.04-2.21-0.11 c-0.4-0.04-0.7-0.39-0.67-0.79c0.06-0.63-0.03-1.49-0.13-2.1C8.75,12.09,7.76,11.42,7.18,9.91z M9.75,17.15 c0.78,0.07,1.64,0.1,2.25,0.1s1.47-0.03,2.25-0.1l-0.38,2.33c-0.02,0.16-0.1,0.32-0.23,0.43l-0.35,0.32 c-0.02,0.02-0.05,0.04-0.07,0.07l-0.37,0.44C12.72,20.9,12.5,21,12.27,21h-0.55c-0.23,0-0.45-0.1-0.59-0.27l-0.37-0.44 c-0.02-0.02-0.04-0.05-0.07-0.07l-0.35-0.32c-0.12-0.11-0.21-0.27-0.23-0.43L9.75,17.15z M12,3c2.89,0,5.25,2.5,5.25,4.88 c0,0.21-0.04,0.41-0.06,0.61c-0.02,0.19-0.06,0.35-0.1,0.53C16.27,9.36,14.54,9.75,12,9.75S7.73,9.36,6.91,9.01 c-0.04-0.18-0.07-0.34-0.1-0.53c-0.02-0.2-0.06-0.39-0.06-0.61C6.75,5.5,9.11,3,12,3z"/></svg>