<svg viewBox="0 0 24 24" height="24px" width="24px" fill="#44739e" xmlns="http://www.w3.org/2000/svg"><title>hue:bulb-candle</title><desc>Source: https://github.com/arallsopp/hass-hue-icons</desc><path d="M 15.726562 12.335938 C 14.941406 12.554688 13.6875 12.75 12 12.75 C 10.3125 12.75 9.058594 12.554688 8.273438 12.335938 C 8.511719 8.40625 10.585938 3 12 3 C 13.410156 3 15.488281 8.40625 15.726562 12.335938 Z M 15.75 13.101562 C 15.75 13.132812 15.75 13.167969 15.75 13.199219 C 15.75 15.054688 15.179688 16.371094 14.453125 17.089844 C 13.78125 17.1875 12.960938 17.25 12 17.25 C 11.039062 17.25 10.21875 17.1875 9.546875 17.089844 C 8.820312 16.371094 8.25 15.054688 8.25 13.199219 C 8.25 13.167969 8.25 13.132812 8.25 13.101562 C 9.410156 13.398438 10.964844 13.5 12 13.5 C 13.035156 13.5 14.589844 13.398438 15.75 13.101562 Z M 10.125 17.917969 C 10.773438 17.976562 11.492188 18 12 18 C 12.507812 18 13.226562 17.976562 13.875 17.917969 L 13.5625 19.78125 C 13.546875 19.914062 13.480469 20.035156 13.375 20.125 L 13.082031 20.378906 C 13.0625 20.398438 13.042969 20.414062 13.027344 20.433594 L 12.71875 20.785156 C 12.601562 20.921875 12.421875 21 12.230469 21 L 11.769531 21 C 11.578125 21 11.398438 20.921875 11.28125 20.785156 L 10.972656 20.433594 C 10.957031 20.414062 10.9375 20.398438 10.917969 20.378906 L 10.625 20.125 C 10.519531 20.035156 10.453125 19.914062 10.4375 19.78125 Z M 10.125 17.917969 "/></svg>