<svg viewBox="0 0 24 24" fill="#44739e" xmlns="http://www.w3.org/2000/svg"><title>hue:ceiling-square</title><desc>Source: https://github.com/arallsopp/hass-hue-icons</desc><path d="M17.85,13.67l-5.38,1.99c-0.3,0.11-0.64,0.11-0.95,0l-5.38-1.99c-0.2-0.07-0.2-0.38,0-0.45l5.39-1.89 c0.29-0.1,0.61-0.1,0.91,0l5.39,1.89C18.05,13.29,18.05,13.6,17.85,13.67 M20.6,9.95l-8.13-3.11c-0.3-0.12-0.64-0.12-0.95,0 L3.4,9.95C3.16,10.04,3,10.3,3,10.6v2.79c0,0.3,0.16,0.57,0.4,0.66l8.13,3.12c0.31,0.12,0.64,0.12,0.95,0l8.13-3.12 c0.24-0.09,0.4-0.36,0.4-0.66V10.6C21,10.3,20.84,10.04,20.6,9.95"/></svg>