<svg viewBox="0 0 24 24" fill="#44739e" xmlns="http://www.w3.org/2000/svg"><title>hue:ceiling-round</title><desc>Source: https://github.com/arallsopp/hass-hue-icons</desc><path d="M18.85,14.36c-3.68,0.9-9.74,0.9-13.42,0c-3.64-0.89-3.53-2.3,0.16-3.16c3.63-0.84,9.46-0.84,13.09,0 C22.36,12.06,22.48,13.47,18.85,14.36 M23.31,7c-0.27-0.67-1.39-1.31-3.33-1.82c-4.37-1.14-11.36-1.14-15.72,0 C2.34,5.69,1.23,6.33,0.95,7C0.9,7.12,0.88,7.22,0.88,7.34v3.79c0,0.11,0.02,2.91,0.07,3.01c0.27,0.64,1.3,1.27,3.13,1.77 c4.42,1.21,11.69,1.21,16.11,0c1.82-0.5,2.85-1.12,3.12-1.77c0.05-0.11,0.07-0.22,0.07-0.33V7.34C23.38,7.22,23.36,7.12,23.31,7"/></svg>