<svg viewBox="0 0 24 24" height="24px" width="24px" fill="#44739e" xmlns="http://www.w3.org/2000/svg"><title>hue:desk-lamp</title><desc>Source: https://github.com/arallsopp/hass-hue-icons</desc><path d="M 17.144531 7.300781 C 18.570312 6.824219 18.847656 7.214844 17.730469 8.191406 C 16.597656 9.179688 14.492188 10.375 13.058594 10.839844 C 11.648438 11.300781 11.453125 10.863281 12.59375 9.886719 C 13.714844 8.921875 15.742188 7.773438 17.144531 7.300781 M 12.785156 12.535156 C 14.835938 11.96875 17.785156 10.292969 19.324219 8.820312 C 20.105469 8.078125 20.359375 7.539062 20.152344 7.269531 C 18.691406 4.867188 15.800781 3.878906 13.410156 4.902344 C 13.445312 4.773438 13.472656 4.640625 13.472656 4.5 C 13.472656 3.671875 12.800781 3 11.972656 3 C 11.144531 3 10.472656 3.671875 10.472656 4.5 C 10.472656 5.238281 11.003906 5.847656 11.707031 5.972656 L 4.722656 12.664062 C 4.582031 12.796875 4.503906 12.984375 4.5 13.175781 C 4.496094 13.371094 4.574219 13.558594 4.710938 13.695312 L 9.164062 18.144531 C 8.746094 18.207031 8.347656 18.28125 8 18.382812 C 7.269531 18.59375 6.855469 18.851562 6.75 19.125 C 6.730469 19.167969 6.722656 19.21875 6.722656 19.265625 L 6.722656 19.734375 C 6.722656 19.78125 6.730469 19.828125 6.75 19.875 C 6.859375 20.15625 7.304688 20.425781 8.078125 20.640625 C 9.820312 21.121094 12.617188 21.121094 14.363281 20.640625 C 15.136719 20.425781 15.582031 20.15625 15.691406 19.875 C 15.710938 19.828125 15.722656 19.78125 15.722656 19.734375 L 15.722656 19.265625 C 15.722656 19.21875 15.710938 19.167969 15.691406 19.125 C 15.585938 18.851562 15.171875 18.59375 14.445312 18.382812 C 13.519531 18.117188 12.285156 17.992188 11.0625 18.003906 L 6.253906 13.195312 L 10.363281 9.257812 C 10.277344 10.3125 10.484375 11.417969 11.023438 12.441406 C 11.140625 12.765625 11.734375 12.824219 12.785156 12.535156 "/></svg>