<svg viewBox="0 0 24 24" fill="#44739e" xmlns="http://www.w3.org/2000/svg"><title>hue:desk-lamp</title><desc>Source: https://github.com/arallsopp/hass-hue-icons</desc><path d="M17.14,7.3c1.43-0.48,1.7-0.09,0.59,0.89c-1.13,0.99-3.24,2.18-4.67,2.65c-1.41,0.46-1.61,0.02-0.46-0.95 C13.71,8.92,15.74,7.77,17.14,7.3 M12.79,12.54c2.05-0.57,5-2.24,6.54-3.71c0.78-0.74,1.04-1.28,0.83-1.55 c-1.46-2.4-4.35-3.39-6.74-2.37c0.04-0.13,0.06-0.26,0.06-0.4c0-0.83-0.67-1.5-1.5-1.5s-1.5,0.67-1.5,1.5 c0,0.74,0.53,1.35,1.23,1.47l-6.98,6.69C4.58,12.8,4.5,12.98,4.5,13.18c0,0.2,0.07,0.38,0.21,0.52l4.45,4.45 C8.75,18.21,8.35,18.28,8,18.38c-0.73,0.21-1.14,0.47-1.25,0.74c-0.02,0.04-0.03,0.09-0.03,0.14v0.47c0,0.05,0.01,0.09,0.03,0.14 c0.11,0.28,0.55,0.55,1.33,0.77c1.74,0.48,4.54,0.48,6.29,0c0.77-0.21,1.22-0.48,1.33-0.77c0.02-0.05,0.03-0.09,0.03-0.14v-0.47 c0-0.05-0.01-0.1-0.03-0.14c-0.11-0.27-0.52-0.53-1.25-0.74c-0.93-0.27-2.16-0.39-3.38-0.38L6.25,13.2l4.11-3.94 c-0.09,1.05,0.12,2.16,0.66,3.18C11.14,12.77,11.73,12.82,12.79,12.54"/></svg>