<svg viewBox="0 0 24 24" fill="#44739e" xmlns="http://www.w3.org/2000/svg"><title>hue:dimmer-switch</title><desc>Source: https://github.com/arallsopp/hass-hue-icons</desc><path d="M15,20.25c0,0.41-0.34,0.75-0.75,0.75h-4.5C9.34,21,9,20.66,9,20.25v-4.5h6V20.25z M9,14.25v-1.5h6v1.5H9z M9,11.25v-1.5h6v1.5H9z M15,8.25H9v-4.5C9,3.34,9.34,3,9.75,3h4.5C14.66,3,15,3.34,15,3.75V8.25z M16.5,21.37 c0,0.62-0.51,1.12-1.12,1.12H8.63c-0.62,0-1.13-0.51-1.13-1.12V2.63c0-0.62,0.5-1.12,1.13-1.12h6.74c0.62,0,1.12,0.5,1.12,1.12 V21.37z M16.12,0H7.88C6.84,0,6,0.84,6,1.88v20.25C6,23.16,6.84,24,7.88,24h8.25c1.04,0,1.88-0.84,1.88-1.88V1.88 C18,0.84,17.16,0,16.12,0z"/></svg>