<svg viewBox="0 0 24 24" height="24px" width="24px" fill="#44739e" xmlns="http://www.w3.org/2000/svg"><title>hue:dimmer-switch</title><desc>Source: https://github.com/arallsopp/hass-hue-icons</desc><path d="M 15 20.25 C 15 20.664062 14.664062 21 14.25 21 L 9.75 21 C 9.335938 21 9 20.664062 9 20.25 L 9 15.75 L 15 15.75 Z M 9 14.25 L 9 12.75 L 15 12.75 L 15 14.25 Z M 9 11.25 L 9 9.75 L 15 9.75 L 15 11.25 Z M 15 8.25 L 9 8.25 L 9 3.75 C 9 3.335938 9.335938 3 9.75 3 L 14.25 3 C 14.664062 3 15 3.335938 15 3.75 Z M 16.496094 21.371094 C 16.496094 21.988281 15.988281 22.496094 15.371094 22.496094 L 8.628906 22.496094 C 8.011719 22.496094 7.503906 21.988281 7.503906 21.371094 L 7.503906 2.628906 C 7.503906 2.007812 8.007812 1.503906 8.628906 1.503906 L 15.371094 1.503906 C 15.992188 1.503906 16.496094 2.007812 16.496094 2.628906 Z M 16.125 0 L 7.875 0 C 6.84375 0 6 0.84375 6 1.875 L 6 22.125 C 6 23.160156 6.839844 24 7.875 24 L 16.125 24 C 17.160156 24 18 23.160156 18 22.125 L 18 1.875 C 18 0.84375 17.15625 0 16.125 0 Z M 16.125 0 "/></svg>