<svg viewBox="0 0 24 24" fill="#44739e" xmlns="http://www.w3.org/2000/svg"><title>hue:double-spot</title><desc>Source: https://github.com/arallsopp/hass-hue-icons</desc><path d="M21.69,17.42c-0.5,1.38-1.52,2.28-2.28,2.02c-0.76-0.26-0.98-1.59-0.48-2.98c0.5-1.38,1.52-2.28,2.28-2.02 C21.97,14.71,22.18,16.04,21.69,17.42 M3.96,15.55c-0.49,0.17-1.14-0.41-1.46-1.3c-0.32-0.89-0.18-1.74,0.3-1.91 c0.49-0.17,1.14,0.41,1.46,1.3C4.58,14.52,4.45,15.38,3.96,15.55 M22.09,13.44l-7.29-2.39V6.89c1-0.1,1.93-0.24,2.75-0.42 c1.49-0.34,2.33-0.75,2.55-1.19c0.04-0.07,0.06-0.15,0.06-0.22V4.51c0-0.08-0.02-0.15-0.06-0.22c-0.22-0.45-1.14-0.88-2.71-1.22 c-3.56-0.77-9.27-0.77-12.82,0C2.98,3.4,2.08,3.83,1.85,4.28C1.81,4.36,1.8,4.43,1.8,4.51v0.55c0,0.08,0.02,0.15,0.06,0.22 C2.07,5.71,2.91,6.13,4.4,6.46c0.81,0.18,1.75,0.32,2.74,0.42v2.66l-5.28,1.77c-0.86,0.3-1.1,1.8-0.54,3.36 c0.56,1.56,1.71,2.58,2.57,2.28l5.76-2.65c0.65-0.25,0.74-1.54,0.2-2.87c-0.28-0.7-0.73-1.29-1.18-1.66V7.01 c1.51,0.08,3.08,0.09,4.59,0v4.23c-0.68,0.45-1.39,1.31-1.83,2.35c-0.72,1.73-0.6,3.41,0.27,3.74l7.67,3.45 c1.14,0.39,2.68-0.94,3.42-2.97C23.56,15.78,23.23,13.82,22.09,13.44"/></svg>