<svg viewBox="0 0 24 24" fill="#44739e" xmlns="http://www.w3.org/2000/svg"><title>hue:floor-spot</title><desc>Source: https://github.com/arallsopp/hass-hue-icons</desc><path d="M16.31,10.71c-0.89,0.32-2.1-0.77-2.68-2.43c-0.59-1.66-0.34-3.26,0.56-3.57c0.89-0.32,2.09,0.77,2.68,2.43 C17.46,8.8,17.21,10.4,16.31,10.71 M18.28,6.64c-0.88-2.43-2.67-4.02-4-3.56L5.37,7.22c-1.02,0.39-1.16,2.4-0.32,4.48 c0.84,2.08,2.57,3.56,3.59,3.17l1.12-0.41v2.81c-2.2,0.08-3.96,0.53-4.39,1.11c-0.07,0.09-0.11,0.19-0.11,0.28v0.94 c0,0.78,2.35,1.41,5.25,1.41s5.25-0.63,5.25-1.41v-0.94c0-0.71-1.96-1.29-4.5-1.39v-3.31l6.18-2.07 C18.78,11.42,19.15,9.07,18.28,6.64"/></svg>