<svg viewBox="0 0 24 24" fill="#44739e" xmlns="http://www.w3.org/2000/svg"><title>hue:floor-lantern</title><desc>Source: https://github.com/arallsopp/hass-hue-icons</desc><path d="M13.89,9.73c-1.07-0.37-2.71-0.37-3.78,0L9.2,3.46c1.78,0.22,3.82,0.22,5.6,0L13.89,9.73z M16.83,0.55 c-2.66-0.73-7.02-0.73-9.67,0C4.55,1.27,4.63,2.42,7.29,3.12C7.4,3.15,7.53,3.17,7.64,3.2l1.18,8.12c0.09,0.32,0.58,0.7,1.68,0.9 v8.97c-0.73,0.12-1.27,0.31-1.44,0.55C9.02,21.8,9,21.86,9,21.91v0.54c0,0.45,1.34,0.82,3,0.82s3-0.37,3-0.82v-0.54 c0-0.3-0.61-0.56-1.5-0.71v-8.98c1.09-0.2,1.56-0.59,1.68-0.9l1.18-8.13c0.12-0.03,0.25-0.05,0.36-0.08 C19.37,2.42,19.45,1.27,16.83,0.55z"/></svg>