<svg viewBox="0 0 24 24" height="24px" width="24px" fill="#44739e" xmlns="http://www.w3.org/2000/svg"><title>hue:floor-shade</title><desc>Source: https://github.com/arallsopp/hass-hue-icons</desc><path d="M 9.3125 1.726562 C 10.789062 1.425781 13.207031 1.425781 14.683594 1.726562 C 16.136719 2.023438 16.09375 2.5 14.621094 2.789062 C 13.167969 3.070312 10.835938 3.070312 9.382812 2.789062 C 7.90625 2.5 7.863281 2.023438 9.3125 1.726562 M 15.667969 9.324219 C 16.570312 9.070312 17.089844 8.75 17.21875 8.417969 C 17.242188 8.363281 17.25 8.308594 17.25 8.253906 L 17.25 1.496094 C 17.25 1.4375 17.242188 1.382812 17.21875 1.328125 C 17.09375 1.007812 16.609375 0.699219 15.757812 0.449219 C 13.695312 -0.148438 10.304688 -0.148438 8.238281 0.449219 C 7.390625 0.699219 6.90625 1.007812 6.78125 1.328125 C 6.757812 1.382812 6.75 1.4375 6.75 1.496094 L 6.75 8.253906 C 6.75 8.308594 6.757812 8.363281 6.78125 8.417969 C 6.910156 8.75 7.433594 9.070312 8.335938 9.324219 C 9.160156 9.554688 10.1875 9.683594 11.25 9.730469 L 11.25 20.269531 C 9.054688 20.351562 7.289062 20.796875 6.855469 21.375 C 6.785156 21.464844 6.75 21.558594 6.75 21.65625 L 6.75 22.59375 C 6.75 23.371094 9.101562 24 12 24 C 14.898438 24 17.25 23.371094 17.25 22.59375 L 17.25 21.65625 C 17.25 20.949219 15.292969 20.363281 12.75 20.265625 L 12.75 9.730469 C 13.816406 9.6875 14.84375 9.554688 15.667969 9.324219 "/></svg>