<svg viewBox="0 0 24 24" fill="#44739e" xmlns="http://www.w3.org/2000/svg"><title>hue:floor-shade</title><desc>Source: https://github.com/arallsopp/hass-hue-icons</desc><path d="M9.31,1.73c1.48-0.3,3.89-0.3,5.37,0c1.45,0.3,1.41,0.77-0.06,1.06c-1.45,0.28-3.79,0.28-5.24,0 C7.91,2.5,7.86,2.02,9.31,1.73 M15.67,9.32c0.9-0.25,1.42-0.57,1.55-0.91c0.02-0.05,0.03-0.11,0.03-0.16V1.5 c0-0.06-0.01-0.11-0.03-0.17c-0.12-0.32-0.61-0.63-1.46-0.88c-2.06-0.6-5.45-0.6-7.52,0C7.39,0.7,6.91,1.01,6.78,1.33 C6.76,1.38,6.75,1.44,6.75,1.5v6.76c0,0.05,0.01,0.11,0.03,0.16c0.13,0.33,0.65,0.65,1.55,0.91c0.82,0.23,1.85,0.36,2.91,0.41v10.54 c-2.2,0.08-3.96,0.53-4.39,1.11c-0.07,0.09-0.11,0.18-0.11,0.28v0.94C6.75,23.37,9.1,24,12,24s5.25-0.63,5.25-1.41v-0.94 c0-0.71-1.96-1.29-4.5-1.39V9.73C13.82,9.69,14.84,9.55,15.67,9.32"/></svg>