<svg viewBox="0 0 24 24" fill="#44739e" xmlns="http://www.w3.org/2000/svg"><title>hue:go</title><desc>Source: https://github.com/arallsopp/hass-hue-icons</desc><path d="M17.15,15.76c-2.89-2.04-6.85-6-8.9-8.9C6.18,3.92,6.81,3.12,9.73,5.15c2.96,2.05,7.07,6.17,9.12,9.13 C20.88,17.2,20.09,17.83,17.15,15.76 M19.88,14.02c-2.09-3.41-6.48-7.81-9.89-9.89C8.37,3.13,7.25,2.8,6.73,3.11 C4.49,4.93,3,7.97,3,11.08c0,3.09,1.41,5.85,3.63,7.67H6.38c-0.62,0-1.12,0.5-1.12,1.12c0,0.62,0.51,1.12,1.12,1.12h5.9 c0.07,0,0.14-0.01,0.21-0.02c0.14,0.01,0.28,0.02,0.43,0.02c3.07,0,6.16-1.53,7.97-3.72C21.2,16.75,20.86,15.63,19.88,14.02"/></svg>