<svg viewBox="0 0 24 24" height="24px" width="24px" fill="#44739e" xmlns="http://www.w3.org/2000/svg"><title>hue:iris</title><desc>Source: https://github.com/arallsopp/hass-hue-icons</desc><path d="M 19.199219 13.746094 C 18.046875 13.371094 16.351562 12.265625 14.058594 9.96875 C 12.214844 8.125 10.769531 6.09375 10.300781 4.84375 C 10.199219 4.574219 10.441406 4.300781 10.726562 4.355469 C 11.015625 4.410156 11.414062 4.53125 11.925781 4.773438 C 13.3125 5.417969 14.585938 6.253906 16.179688 7.847656 C 17.769531 9.4375 18.605469 10.710938 19.25 12.097656 C 19.496094 12.621094 19.617188 13.023438 19.671875 13.316406 C 19.722656 13.59375 19.464844 13.832031 19.199219 13.746094 M 16.527344 16.882812 C 16.476562 17.039062 16.332031 17.140625 16.171875 17.140625 C 16.132812 17.140625 16.09375 17.136719 16.058594 17.125 C 15.027344 16.789062 13.742188 15.957031 12.289062 14.683594 C 10.566406 15.628906 7.75 16.746094 7.820312 17.226562 C 7.960938 18.148438 7.410156 18.65625 6.371094 17.617188 C 5.332031 16.578125 5.839844 16.027344 6.761719 16.164062 C 7.242188 16.238281 8.367188 13.386719 9.316406 11.667969 C 8.183594 10.320312 7.289062 8.964844 6.925781 8 C 6.851562 7.804688 6.953125 7.589844 7.144531 7.515625 C 7.335938 7.441406 7.554688 7.539062 7.628906 7.734375 C 8.101562 8.996094 9.574219 11.003906 11.296875 12.726562 C 13.824219 15.253906 15.40625 16.125 16.289062 16.410156 C 16.484375 16.472656 16.59375 16.683594 16.527344 16.882812 M 20.433594 11.796875 C 18.996094 8.707031 15.308594 4.992188 12.25 3.554688 C 11.003906 2.96875 10.078125 2.867188 9.511719 3.15625 C 9.441406 3.199219 9.375 3.246094 9.304688 3.292969 C 8.550781 3.792969 7.820312 4.371094 7.140625 5.046875 C 2.910156 9.269531 1.238281 14.449219 5.414062 18.613281 C 9.53125 22.726562 14.773438 21.113281 19.003906 16.890625 C 19.671875 16.222656 20.242188 15.503906 20.738281 14.765625 C 20.769531 14.71875 20.800781 14.671875 20.828125 14.625 C 21.140625 14.058594 21.039062 13.09375 20.433594 11.796875 "/></svg>