<svg viewBox="0 0 24 24" fill="#44739e" xmlns="http://www.w3.org/2000/svg"><title>hue:iris</title><desc>Source: https://github.com/arallsopp/hass-hue-icons</desc><path d="M19.2,13.75c-1.15-0.38-2.85-1.48-5.14-3.78c-1.84-1.84-3.29-3.88-3.76-5.12c-0.1-0.27,0.14-0.54,0.43-0.49 c0.29,0.05,0.69,0.18,1.2,0.42c1.39,0.64,2.66,1.48,4.25,3.07c1.59,1.59,2.43,2.86,3.07,4.25c0.25,0.52,0.37,0.93,0.42,1.22 C19.72,13.59,19.46,13.83,19.2,13.75 M16.53,16.88c-0.05,0.16-0.2,0.26-0.36,0.26c-0.04,0-0.08,0-0.11-0.02 c-1.03-0.34-2.32-1.17-3.77-2.44c-1.72,0.95-4.54,2.06-4.47,2.54c0.14,0.92-0.41,1.43-1.45,0.39c-1.04-1.04-0.53-1.59,0.39-1.45 c0.48,0.07,1.61-2.78,2.55-4.5C8.18,10.32,7.29,8.96,6.93,8C6.85,7.8,6.95,7.59,7.14,7.52c0.19-0.07,0.41,0.02,0.48,0.22 C8.1,9,9.57,11,11.3,12.73c2.53,2.53,4.11,3.4,4.99,3.68C16.48,16.47,16.59,16.68,16.53,16.88 M20.43,11.8 c-1.44-3.09-5.12-6.8-8.18-8.24C11,2.97,10.08,2.87,9.51,3.16C9.44,3.2,9.38,3.25,9.3,3.29c-0.75,0.5-1.48,1.08-2.16,1.75 c-4.23,4.22-5.9,9.4-1.73,13.57c4.12,4.11,9.36,2.5,13.59-1.72c0.67-0.67,1.24-1.39,1.73-2.12c0.03-0.05,0.06-0.09,0.09-0.14 C21.14,14.06,21.04,13.09,20.43,11.8"/></svg>