<svg viewBox="0 0 24 24" fill="#44739e" xmlns="http://www.w3.org/2000/svg"><title>hue:lightstrip</title><desc>Source: https://github.com/arallsopp/hass-hue-icons</desc><path d="M6.33,12.5c0.41-0.09,0.8,0.17,0.89,0.58c0.09,0.4-0.17,0.8-0.57,0.89c-0.41,0.09-0.8-0.17-0.89-0.57 C5.67,12.99,5.93,12.59,6.33,12.5 M10,11.71c0.4-0.09,0.8,0.17,0.89,0.57c0.09,0.41-0.17,0.8-0.57,0.89 C9.91,13.26,9.51,13,9.42,12.6C9.33,12.2,9.59,11.8,10,11.71 M13.66,10.92c0.41-0.09,0.8,0.17,0.89,0.57 c0.09,0.41-0.17,0.8-0.57,0.89c-0.4,0.09-0.8-0.17-0.89-0.57C13,11.4,13.25,11,13.66,10.92 M17.32,10.12 c0.41-0.09,0.8,0.17,0.89,0.57c0.09,0.4-0.17,0.8-0.57,0.89c-0.41,0.09-0.8-0.17-0.89-0.57C16.66,10.61,16.92,10.21,17.32,10.12 M8,15.48l11.1-2.4c0.81-0.17,1.32-0.97,1.15-1.78c-0.42-1.94-2.33-3.17-4.26-2.75L4.89,10.95c-0.81,0.18-1.32,0.97-1.15,1.78 C4.16,14.66,6.07,15.9,8,15.48 M18.75,19.5c-0.41,0-0.75-0.34-0.75-0.75S18.34,18,18.75,18s0.75,0.34,0.75,0.75 S19.16,19.5,18.75,19.5 M15,19.5c-0.41,0-0.75-0.34-0.75-0.75S14.59,18,15,18s0.75,0.34,0.75,0.75S15.41,19.5,15,19.5 M11.25,19.5 c-0.41,0-0.75-0.34-0.75-0.75S10.84,18,11.25,18S12,18.34,12,18.75S11.66,19.5,11.25,19.5 M7.5,19.5c-0.41,0-0.75-0.34-0.75-0.75 S7.09,18,7.5,18s0.75,0.34,0.75,0.75S7.91,19.5,7.5,19.5 M20.25,16.5H6.75c-3,0-3.75-2.25-3.75-3v3.75C3,19.32,4.68,21,6.75,21h13.5 c0.41,0,0.75-0.34,0.75-0.75v-3C21,16.84,20.66,16.5,20.25,16.5 M16.5,6c-0.41,0-0.75-0.34-0.75-0.75S16.09,4.5,16.5,4.5 s0.75,0.34,0.75,0.75S16.91,6,16.5,6 M12.75,6C12.34,6,12,5.66,12,5.25s0.34-0.75,0.75-0.75s0.75,0.34,0.75,0.75S13.16,6,12.75,6 M9,6C8.59,6,8.25,5.66,8.25,5.25S8.59,4.5,9,4.5s0.75,0.34,0.75,0.75S9.41,6,9,6 M5.25,6C4.84,6,4.5,5.66,4.5,5.25 S4.84,4.5,5.25,4.5S6,4.84,6,5.25S5.66,6,5.25,6 M17.25,3H3.75C3.34,3,3,3.34,3,3.75v3C3,7.16,3.34,7.5,3.75,7.5h13.5 c3,0,3.75,2.25,3.75,3V6.75C21,4.68,19.32,3,17.25,3"/></svg>