<svg viewBox="0 0 24 24" height="24px" width="24px" fill="#44739e" xmlns="http://www.w3.org/2000/svg"><title>hue:motion-sensor</title><desc>Source: https://github.com/arallsopp/hass-hue-icons</desc><path d="M 12 15 C 10.34375 15 9 13.65625 9 12 C 9 10.34375 10.34375 9 12 9 C 13.65625 9 15 10.34375 15 12 C 15 13.65625 13.65625 15 12 15 M 12 4.5 C 12.414062 4.5 12.75 4.835938 12.75 5.25 C 12.75 5.664062 12.414062 6 12 6 C 11.585938 6 11.25 5.664062 11.25 5.25 C 11.25 4.835938 11.585938 4.5 12 4.5 M 18 3 L 6 3 C 4.351562 3 3 4.351562 3 6 L 3 18 C 3 19.648438 4.351562 21 6 21 L 18 21 C 19.648438 21 21 19.648438 21 18 L 21 6 C 21 4.351562 19.648438 3 18 3 "/></svg>