<svg viewBox="0 0 24 24" height="24px" width="24px" fill="#44739e" xmlns="http://www.w3.org/2000/svg"><title>hue:outdoor-motion-sensor</title><desc>Source: https://github.com/arallsopp/hass-hue-icons</desc><path d="M 6.0441177,3 C 4.363511,3 3,4.3898591 3,6.1029412 V 18.514706 c 0,1.713082 1.363511,3.102941 3.0441177,3.102941 H 18.220588 c 1.680607,0 3.044118,-1.389859 3.044118,-3.102941 V 6.1029412 C 21.264706,4.3898591 19.901195,3 18.220588,3 Z m 6.0882353,2.3272059 c 3.781364,0 6.849265,3.1271836 6.849265,6.9816171 0,3.854435 -3.067901,6.981618 -6.849265,6.981618 -3.7813641,0 -6.8492648,-3.127183 -6.8492648,-6.981618 0,-3.8544335 3.0679007,-6.9816171 6.8492648,-6.9816171 z m 0,0.7757353 C 9.0882353,6.0908201 6.4959783,8.3574227 6.0441177,11.424 c -0.015855,0.141411 0.039636,0.283326 0.1545841,0.368172 0.1109834,0.08484 0.2581356,0.100504 0.3849738,0.04394 1.7717721,-0.739373 3.6743454,-1.10704 5.5888094,-1.078757 1.886719,-0.02827 3.760556,0.335849 5.508546,1.071181 0.126837,0.0606 0.274486,0.04848 0.389432,-0.03636 0.110984,-0.08484 0.169943,-0.226761 0.150125,-0.368172 C 17.760799,8.3614627 15.172507,6.0989012 12.132353,6.1029412 Z"/></svg>