<svg viewBox="0 0 24 24" fill="#44739e" xmlns="http://www.w3.org/2000/svg"><title>hue:outdoor-motion-sensor</title><desc>Source: https://github.com/arallsopp/hass-hue-icons</desc><path d="M6.04,3C4.36,3,3,4.39,3,6.1v12.41c0,1.71,1.36,3.1,3.04,3.1h12.18c1.68,0,3.04-1.39,3.04-3.1V6.1 c0-1.71-1.36-3.1-3.04-3.1H6.04z M12.13,5.33c3.78,0,6.85,3.13,6.85,6.98s-3.07,6.98-6.85,6.98s-6.85-3.13-6.85-6.98 S8.35,5.33,12.13,5.33z M12.13,6.1C9.09,6.09,6.5,8.36,6.04,11.42c-0.02,0.14,0.04,0.28,0.15,0.37c0.11,0.08,0.26,0.1,0.38,0.04 c1.77-0.74,3.67-1.11,5.59-1.08c1.89-0.03,3.76,0.34,5.51,1.07c0.13,0.06,0.27,0.05,0.39-0.04c0.11-0.08,0.17-0.23,0.15-0.37 C17.76,8.36,15.17,6.1,12.13,6.1z"/></svg>