<svg viewBox="0 0 24 24" fill="#44739e" xmlns="http://www.w3.org/2000/svg"><title>hue:pendant-round</title><desc>Source: https://github.com/arallsopp/hass-hue-icons</desc><path d="M18.57,18.08c-3.62,0.91-9.57,0.91-13.2,0c-3.58-0.9-3.47-2.32,0.16-3.19c3.57-0.85,9.3-0.85,12.87,0 C22.03,15.76,22.14,17.18,18.57,18.08 M22.96,10.65c-0.27-0.68-1.37-1.32-3.27-1.84c-1.91-0.51-4.33-0.8-6.8-0.85V4.12V3.86 c0-0.23-0.41-0.42-0.92-0.42s-0.92,0.19-0.92,0.42v0.25v3.84C8.57,8.02,6.15,8.3,4.24,8.81c-1.9,0.51-2.99,1.16-3.26,1.84 c-0.05,0.11-0.07,0.22-0.07,0.34v6.53c0,0.11,0.02,0.23,0.07,0.34c0.26,0.65,1.28,1.28,3.08,1.78c4.35,1.22,11.49,1.22,15.84,0 c1.79-0.51,2.81-1.13,3.07-1.78c0.05-0.11,0.07-0.22,0.07-0.34v-6.53C23.03,10.87,23.01,10.77,22.96,10.65"/></svg>