<svg viewBox="0 0 24 24" fill="#44739e" xmlns="http://www.w3.org/2000/svg"><title>hue:pendant-long</title><desc>Source: https://github.com/arallsopp/hass-hue-icons</desc><path d="M20.64,13.02L6.62,17.73c-0.15,0.05-0.32,0.05-0.47-0.01l-2.77-1.05c-0.19-0.07-0.18-0.34,0.01-0.4l14.02-4.71 c0.15-0.05,0.32-0.05,0.47,0.01l2.77,1.05C20.84,12.69,20.83,12.96,20.64,13.02 M22.84,9.18l-4.96-1.87 c-0.15-0.06-0.32-0.06-0.47-0.01l-4.7,1.58V4.97v-0.2c0-0.18-0.32-0.33-0.71-0.33c-0.39,0-0.71,0.15-0.71,0.33v0.2v4.38L1.19,12.75 c-0.29,0.1-0.48,0.37-0.48,0.67v3.26c0,0.3,0.18,0.56,0.46,0.66l4.96,1.87c0.15,0.06,0.32,0.06,0.47,0.01l16.22-5.45 c0.29-0.1,0.48-0.37,0.48-0.67V9.85C23.29,9.55,23.11,9.29,22.84,9.18"/></svg>