<svg viewBox="0 0 24 24" fill="#44739e" xmlns="http://www.w3.org/2000/svg"><title>hue:play-bar</title><desc>Source: https://github.com/arallsopp/hass-hue-icons</desc><path d="M21.73,14.5c-1.6,0.79-3.17,0.2-4.22-0.21C16.65,13.95,2.16,7.97,2.16,7.97s-1.34-0.6,0.12-1.13 c1.8-0.66,3.25-0.11,4.93,0.56c1.06,0.43,14.13,5.67,14.13,5.67S23.33,13.71,21.73,14.5z M23.24,13.83 c-0.01-0.36-0.2-1.01-1.27-1.45L6.51,6.17C5.85,5.9,4.83,5.74,3.83,5.74c-0.51,0-1.25,0.05-1.84,0.27c-1.04,0.4-1.25,1-1.27,1.35 l-0.01,0l-0.01,4.27l0,0c0.02,0.34,0.21,0.89,1.1,1.27l15.88,6.53c0.6,0.25,1.38,0.4,2.21,0.4c0.83,0,1.61-0.14,2.2-0.4 c1.02-0.45,1.16-1.1,1.16-1.45L23.24,13.83L23.24,13.83z"/></svg>