<svg viewBox="0 0 24 24" fill="#44739e" xmlns="http://www.w3.org/2000/svg"><title>hue:plug</title><desc>Source: https://github.com/arallsopp/hass-hue-icons</desc><path d="M19.68,6.22h-3.3v-3.3c0-0.46-0.37-0.83-0.82-0.83s-0.83,0.37-0.83,0.82c0,0,0,0,0,0.01v3.3H9.78v-3.3 c0-0.46-0.37-0.83-0.82-0.83S8.13,2.46,8.13,2.92c0,0,0,0,0,0.01v3.3h-3.3C4.37,6.22,4,6.6,4,7.05C4,7.5,4.37,7.87,4.83,7.87h0.83 v3.3c0,3.01,2.04,5.64,4.95,6.39v2.69c0,0.91,0.74,1.65,1.65,1.65s1.65-0.74,1.65-1.65c0,0,0,0,0,0v-2.69 c2.91-0.75,4.95-3.38,4.95-6.39v-3.3h0.83c0.46,0,0.83-0.37,0.83-0.82S20.14,6.22,19.68,6.22C19.68,6.22,19.68,6.22,19.68,6.22"/></svg>