<svg viewBox="0 0 24 24" height="24px" width="24px" fill="#44739e" xmlns="http://www.w3.org/2000/svg"><title>hue:plug</title><desc>Source: https://github.com/arallsopp/hass-hue-icons</desc><path d="M19.68115,6.22273H16.37986V2.92144a.82533.82533,0,1,0-1.65065,0V6.22273H9.77727V2.92144a.82533.82533,0,1,0-1.65065,0V6.22273H4.82532a.82533.82533,0,0,0,0,1.65065h.82533v3.3013A6.59918,6.59918,0,0,0,10.60259,17.561v2.69221a1.65065,1.65065,0,1,0,3.3013,0V17.561a6.59919,6.59919,0,0,0,4.95194-6.38635V7.87338h.82532a.82533.82533,0,1,0,0-1.65065"/></svg>