<svg viewBox="0 0 24 24" fill="#44739e" xmlns="http://www.w3.org/2000/svg"><title>hue:recessed-ceiling</title><desc>Source: https://github.com/arallsopp/hass-hue-icons</desc><path d="M12,8.25c-2.57,0-5.03,0.46-6.9,1.3c-0.9,0.4-1.58,0.85-2.09,1.3C2.95,9.78,3.85,8.7,5.7,7.89 c3.5-1.52,9.09-1.52,12.59,0c1.86,0.8,2.76,1.89,2.71,2.96c-0.51-0.45-1.19-0.9-2.1-1.3C17.02,8.71,14.57,8.25,12,8.25z M18.29,10.17c3.54,1.58,3.66,4.19,0.17,5.83c-3.54,1.66-9.35,1.66-12.89,0c-3.49-1.64-3.39-4.25,0.15-5.83 C9.21,8.61,14.8,8.61,18.29,10.17z M16.84,15.18c2.62-0.75,2.53-1.93-0.12-2.65c-2.62-0.71-6.81-0.71-9.43,0 c-2.65,0.72-2.73,1.91-0.11,2.65C9.84,15.94,14.19,15.94,16.84,15.18z"/></svg>