<svg viewBox="0 0 24 24" fill="#44739e" xmlns="http://www.w3.org/2000/svg"><title>hue:recessed-floor</title><desc>Source: https://github.com/arallsopp/hass-hue-icons</desc><path d="M12.02,15.75c2.57,0,5.02-0.46,6.9-1.3c0.9-0.4,1.58-0.85,2.09-1.3c0.05,1.07-0.85,2.16-2.7,2.96 c-3.49,1.52-9.09,1.52-12.58,0c-1.86-0.8-2.77-1.89-2.71-2.96c0.52,0.45,1.19,0.9,2.1,1.3C6.99,15.29,9.44,15.75,12.02,15.75z M5.72,13.83C2.18,12.25,2.07,9.64,5.55,8c3.54-1.66,9.34-1.66,12.89,0c3.49,1.64,3.38,4.25-0.15,5.84 C14.8,15.39,9.21,15.39,5.72,13.83z M7.16,8.82c-2.61,0.75-2.53,1.93,0.12,2.65c2.62,0.71,6.81,0.71,9.43,0 c2.65-0.72,2.73-1.91,0.12-2.65C14.18,8.06,9.82,8.06,7.16,8.82z"/></svg>