<svg viewBox="0 0 24 24" height="24px" width="24px" fill="#44739e" xmlns="http://www.w3.org/2000/svg"><title>hue:room-hallway</title><desc>Source: https://github.com/arallsopp/hass-hue-icons</desc><path d="M 20.980469 16.367188 L 18.824219 6.785156 C 18.484375 5.277344 17.039062 4.320312 15.535156 4.546875 L 14.949219 3.667969 C 14.671875 3.25 14.203125 3 13.703125 3 L 12.75 3 C 12.335938 3 12 3.335938 12 3.75 L 12 5.25 L 10.5 5.25 L 10.5 0.75 C 10.5 0.335938 10.164062 0 9.75 0 C 9.335938 0 9 0.335938 9 0.75 L 9 9 L 6 9 L 6 7.5 C 6 7.085938 5.664062 6.75 5.25 6.75 C 4.835938 6.75 4.5 7.085938 4.5 7.5 L 4.5 9.75 C 4.5 10.164062 4.835938 10.5 5.25 10.5 L 9 10.5 L 9 21.75 L 6 21.75 C 5.171875 21.75 4.5 22.421875 4.5 23.25 C 4.5 23.664062 4.835938 24 5.25 24 L 14.25 24 C 14.664062 24 15 23.664062 15 23.25 C 15 22.421875 14.328125 21.75 13.5 21.75 L 10.5 21.75 L 10.5 6.75 L 12 6.75 L 12 18.75 C 12 19.164062 12.335938 19.5 12.75 19.5 L 13.753906 19.5 C 15.308594 19.5 16.46875 18.078125 16.167969 16.558594 L 15.253906 12 L 16.082031 8.269531 L 18.054688 17.027344 C 18.144531 17.429688 18.546875 17.683594 18.953125 17.59375 L 20.414062 17.261719 C 20.820312 17.171875 21.074219 16.773438 20.980469 16.367188 "/></svg>