<svg viewBox="0 0 24 24" fill="#44739e" xmlns="http://www.w3.org/2000/svg"><title>hue:room-attic</title><desc>Source: https://github.com/arallsopp/hass-hue-icons</desc><path d="M12.42,7.78l6.56,9.05c0.38,0.51,0.02,1.24-0.6,1.24H5.61c-0.62,0-0.97-0.73-0.6-1.24l6.57-9.05 C11.79,7.48,12.21,7.48,12.42,7.78z M12,16.56c1.24,0,2.25-1.01,2.25-2.25s-1.01-2.25-2.25-2.25s-2.25,1.01-2.25,2.25 S10.76,16.56,12,16.56z M23.84,18.34c0.38,0.5,0.02,1.22-0.6,1.22h-0.03c-0.23,0-0.46-0.11-0.6-0.3l-0.92-1.23h0.01L20,15.75 l-6.91-9.2l-0.75-1c-0.18-0.23-0.52-0.23-0.7,0l-0.75,1L4,15.75l-1.71,2.28H2.3l-0.92,1.23c-0.14,0.19-0.36,0.3-0.6,0.3H0.75 c-0.62,0-0.98-0.72-0.6-1.22l0.93-1.25l1.71-2.28l6.91-9.2l1.09-1.46l0.68-0.9c0.26-0.35,0.79-0.35,1.05,0l0.68,0.9l1.09,1.46 l2.2,2.93V6.83c0-0.43,0.34-0.77,0.75-0.77h1.5c0.41,0,0.75,0.35,0.75,0.77v5.72l1.7,2.26l1.71,2.28L23.84,18.34z"/></svg>