<svg viewBox="0 0 24 24" fill="#44739e" xmlns="http://www.w3.org/2000/svg"><title>hue:room-other</title><desc>Source: https://github.com/arallsopp/hass-hue-icons</desc><path d="M18.86,2.05c0.37,0.05,0.64,0.38,0.64,0.75V21.2c0,0.38-0.27,0.7-0.64,0.75l-9,1.3C9.4,23.31,9,22.95,9,22.49 V21H5.29c-0.43,0-0.79-0.36-0.79-0.79V3.79C4.5,3.36,4.86,3,5.29,3H9V1.51c0-0.46,0.4-0.82,0.86-0.75L18.86,2.05z M11.25,12.75 c0.41,0,0.75-0.34,0.75-0.75s-0.34-0.75-0.75-0.75S10.5,11.59,10.5,12S10.84,12.75,11.25,12.75z M6,19.5h3v-15H6V19.5z"/></svg>