<svg viewBox="0 0 24 24" height="24px" width="24px" fill="#44739e" xmlns="http://www.w3.org/2000/svg"><title>hue:room-outdoors</title><desc>Source: https://github.com/arallsopp/hass-hue-icons</desc><path d="M 8.25 7.5 C 11.148438 7.5 13.5 9.851562 13.5 12.75 C 13.5 15.410156 11.519531 17.601562 8.953125 17.949219 L 8.953125 20.25 C 8.953125 20.664062 8.617188 21 8.203125 21 C 7.789062 21 7.453125 20.664062 7.453125 20.25 L 7.453125 17.933594 C 4.933594 17.546875 3 15.378906 3 12.75 C 3 9.851562 5.351562 7.5 8.25 7.5 Z M 21 14.507812 C 21 16.945312 19.222656 17.214844 17.25 17.246094 L 17.25 20.25 C 17.25 20.664062 16.914062 21 16.5 21 C 16.085938 21 15.75 20.664062 15.75 20.25 L 15.75 17.242188 C 15.363281 17.238281 14.984375 17.222656 14.625 17.183594 C 14.085938 17.125 13.820312 16.519531 14.085938 16.046875 C 14.636719 15.074219 14.953125 13.949219 14.953125 12.75 C 14.953125 11.128906 14.375 9.644531 13.417969 8.480469 C 13.335938 8.378906 13.308594 8.246094 13.351562 8.121094 C 14.304688 5.378906 15.574219 3 16.5 3 C 18.1875 3 21 10.878906 21 14.507812 Z M 21 14.507812 "/></svg>