<svg viewBox="0 0 24 24" fill="#44739e" xmlns="http://www.w3.org/2000/svg"><title>hue:room-office</title><desc>Source: https://github.com/arallsopp/hass-hue-icons</desc><path d="M19.88,10.5h-0.75c-0.62,0-1.12,0.51-1.12,1.12v2.33c0,0.33-0.27,0.6-0.6,0.6h-0.01 c-0.68-1.08-1.88-1.8-3.25-1.8h-1.39V10.5h2.32c1.21,0,2.18-0.98,2.18-2.18L16.3,0.93C16.22,0.4,15.76,0,15.21,0H8.79 c-0.54,0-1,0.4-1.08,0.93L6.75,8.32c0,1.21,0.98,2.18,2.18,2.18h2.32v2.25H9.86c-1.24,0-2.32,0.59-3.03,1.5H6.6 c-0.33,0-0.6-0.27-0.6-0.6v-2.18c0-0.7-0.57-1.27-1.28-1.27H4.28C3.57,10.2,3,10.77,3,11.47c0,0.7,0.57,1.28,1.28,1.28H4.5v0.9 c0,0.99,0.7,1.82,1.62,2.04C6.05,15.98,6,16.29,6,16.61c0,0.36,0.29,0.64,0.64,0.64h4.51l-3.27,3.81C7.77,21.02,7.64,21,7.5,21 C6.67,21,6,21.67,6,22.5S6.67,24,7.5,24S9,23.33,9,22.5c0-0.22-0.05-0.42-0.13-0.61l2.38-2.78v2.09c-0.45,0.26-0.75,0.74-0.75,1.29 c0,0.83,0.67,1.5,1.5,1.5s1.5-0.67,1.5-1.5c0-0.55-0.3-1.03-0.75-1.29v-2.09l2.38,2.78C15.05,22.08,15,22.28,15,22.5 c0,0.83,0.67,1.5,1.5,1.5s1.5-0.67,1.5-1.5S17.33,21,16.5,21c-0.14,0-0.27,0.02-0.39,0.06l-3.27-3.81h4.51 c0.36,0,0.64-0.29,0.64-0.64c0-0.21-0.03-0.43-0.06-0.63c0.89-0.24,1.56-1.05,1.56-2.02v-1.2h0.38c0.62,0,1.12-0.51,1.12-1.12 S20.49,10.5,19.88,10.5"/></svg>