<svg viewBox="0 0 24 24" fill="#44739e" xmlns="http://www.w3.org/2000/svg"><title>hue:room-kitchen</title><desc>Source: https://github.com/arallsopp/hass-hue-icons</desc><path d="M17.62,5.25c0.62,0,1.12,0.5,1.12,1.12s-0.5,1.12-1.12,1.12H6.38C5.75,7.5,5.25,7,5.25,6.38s0.5-1.12,1.12-1.12 h4.33C10.58,5.03,10.5,4.77,10.5,4.5C10.5,3.67,11.17,3,12,3s1.5,0.67,1.5,1.5c0,0.27-0.08,0.53-0.21,0.75H17.62z M19.5,9 c0.83,0,1.5,0.67,1.5,1.5S20.33,12,19.5,12h-0.75v7.41c0,0.88-0.71,1.59-1.59,1.59H6.84c-0.88,0-1.59-0.71-1.59-1.59V12H4.5 C3.67,12,3,11.33,3,10.5S3.67,9,4.5,9H19.5z"/></svg>