<svg viewBox="0 0 24 24" height="24px" width="24px" fill="#44739e" xmlns="http://www.w3.org/2000/svg"><title>hue:room-guestroom</title><desc>Source: https://github.com/arallsopp/hass-hue-icons</desc><path d="M 18 12 L 6 12 C 4.34375 12 3 13.34375 3 15 L 3 16.5 C 3 16.914062 3.335938 17.25 3.75 17.25 L 4.5 17.25 L 4.5 18 C 4.5 18.828125 5.171875 19.5 6 19.5 C 6.828125 19.5 7.5 18.828125 7.5 18 L 7.5 17.25 L 16.5 17.25 L 16.5 18 C 16.5 18.828125 17.171875 19.5 18 19.5 C 18.828125 19.5 19.5 18.828125 19.5 18 L 19.5 17.25 L 20.25 17.25 C 20.664062 17.25 21 16.914062 21 16.5 L 21 15 C 21 13.34375 19.65625 12 18 12 M 9.082031 7.5 L 14.914062 7.5 C 15.378906 7.5 15.75 7.835938 15.75 8.25 C 15.75 8.664062 15.378906 9 14.914062 9 L 9.082031 9 C 8.621094 9 8.25 8.664062 8.25 8.25 C 8.25 7.835938 8.621094 7.5 9.082031 7.5 M 6.75 10.5 L 17.25 10.5 C 17.664062 10.5 18 10.164062 18 9.75 L 18 5.25 C 18 4.835938 17.664062 4.5 17.25 4.5 L 6.75 4.5 C 6.335938 4.5 6 4.835938 6 5.25 L 6 9.75 C 6 10.164062 6.335938 10.5 6.75 10.5 "/></svg>