<svg viewBox="0 0 24 24" fill="#44739e" xmlns="http://www.w3.org/2000/svg"><title>hue:room-closet</title><desc>Source: https://github.com/arallsopp/hass-hue-icons</desc><path d="M18,6.75h-3c-0.41,0-0.75-0.34-0.75-0.75S14.59,5.25,15,5.25h3c0.41,0,0.75,0.34,0.75,0.75S18.41,6.75,18,6.75z M18,11.25h-3c-0.41,0-0.75-0.34-0.75-0.75S14.59,9.75,15,9.75h3c0.41,0,0.75,0.34,0.75,0.75S18.41,11.25,18,11.25z M18,15.75h-3 c-0.41,0-0.75-0.34-0.75-0.75s0.34-0.75,0.75-0.75h3c0.41,0,0.75,0.34,0.75,0.75S18.41,15.75,18,15.75z M12.75,17.25 c0,0.41-0.34,0.75-0.75,0.75s-0.75-0.34-0.75-0.75V3.75C11.25,3.34,11.59,3,12,3s0.75,0.34,0.75,0.75V17.25z M9,11.25H7.5 c-0.41,0-0.75-0.34-0.75-0.75S7.09,9.75,7.5,9.75H9c0.41,0,0.75,0.34,0.75,0.75S9.41,11.25,9,11.25z M19.5,0.75h-15 c-0.41,0-0.75,0.34-0.75,0.75v18c0,0.41,0.34,0.75,0.75,0.75h0.75V21c0,0.41,0.34,0.75,0.75,0.75S6.75,21.41,6.75,21v-0.75h10.5V21 c0,0.41,0.34,0.75,0.75,0.75s0.75-0.34,0.75-0.75v-0.75h0.75c0.41,0,0.75-0.34,0.75-0.75v-18C20.25,1.09,19.91,0.75,19.5,0.75z"/></svg>