<svg viewBox="0 0 24 24" height="24px" width="24px" fill="#44739e" xmlns="http://www.w3.org/2000/svg"><title>hue:room-living</title><desc>Source: https://github.com/arallsopp/hass-hue-icons</desc><path d="M 21 9.75 C 21.828125 9.75 22.5 10.421875 22.5 11.25 L 22.5 15.796875 C 22.5 16.1875 22.1875 16.5 21.796875 16.5 L 21 16.5 L 21 17.25 C 21 18.078125 20.328125 18.75 19.5 18.75 C 18.671875 18.75 18 18.078125 18 17.25 L 18 16.5 L 6 16.5 L 6 17.25 C 6 18.078125 5.328125 18.75 4.5 18.75 C 3.671875 18.75 3 18.078125 3 17.25 L 3 16.5 L 2.203125 16.5 C 1.8125 16.5 1.5 16.1875 1.5 15.796875 L 1.5 11.25 C 1.5 10.421875 2.171875 9.75 3 9.75 C 3.828125 9.75 4.5 10.421875 4.5 11.25 L 4.5 12.75 L 19.5 12.75 L 19.5 11.25 C 19.5 10.421875 20.171875 9.75 21 9.75 Z M 6 11.25 C 6 9.59375 4.65625 8.25 3 8.25 L 3 6.75 C 3 5.921875 3.671875 5.25 4.5 5.25 L 19.5 5.25 C 20.328125 5.25 21 5.921875 21 6.75 L 21 8.25 C 19.34375 8.25 18 9.59375 18 11.25 Z M 6 11.25 "/></svg>