<svg viewBox="0 0 24 24" height="24px" width="24px" fill="#44739e" xmlns="http://www.w3.org/2000/svg"><title>hue:room-computer</title><desc>Source: https://github.com/arallsopp/hass-hue-icons</desc><path d="M 21.75 3.75 C 22.164062 3.75 22.5 4.085938 22.5 4.5 L 22.5 12.75 L 1.5 12.75 L 1.5 4.5 C 1.5 4.085938 1.835938 3.75 2.25 3.75 Z M 1.5 15 L 1.5 14.25 L 22.5 14.25 L 22.5 15 C 22.5 15.414062 22.164062 15.75 21.75 15.75 L 12.75 15.75 L 12.75 18.75 L 14.25 18.75 C 14.664062 18.75 15 19.085938 15 19.5 C 15 19.914062 14.664062 20.25 14.25 20.25 L 9.75 20.25 C 9.335938 20.25 9 19.914062 9 19.5 C 9 19.085938 9.335938 18.75 9.75 18.75 L 11.25 18.75 L 11.25 15.75 L 2.25 15.75 C 1.835938 15.75 1.5 15.414062 1.5 15 Z M 1.5 15 "/></svg>