<svg viewBox="0 0 24 24" fill="#44739e" xmlns="http://www.w3.org/2000/svg"><title>hue:room-pool</title><desc>Source: https://github.com/arallsopp/hass-hue-icons</desc><path d="M21,14.22L21,14.22l0,2.69c-0.09-0.07-0.17-0.13-0.22-0.18c-0.49-0.5-1.3-0.95-2.21-0.96c-0.01,0-0.02,0-0.02,0 c-0.09,0-0.18,0-0.28,0.01c-0.61,0.06-1.25,0.34-1.86,0.95c-1.02,1.03-1.97,0.25-2.24,0c-0.88-0.89-2.76-1.61-4.36,0 c-1.02,1.03-1.98,0.25-2.24,0c-0.5-0.5-1.31-0.95-2.21-0.96c-0.7-0.01-1.45,0.25-2.15,0.96C3.14,16.8,3.07,16.85,3,16.9v-2.68h0 c0-0.19,0.07-0.38,0.21-0.52c0.91-0.92,1.92-1.07,2.78-0.88V5.25C6,4.84,5.66,4.5,5.25,4.5S4.5,4.84,4.5,5.25S4.16,6,3.75,6 S3,5.66,3,5.25C3,4.01,4.01,3,5.25,3S7.5,4.01,7.5,5.25v1.5h5.25v-1.5c0-0.41-0.34-0.75-0.75-0.75s-0.75,0.34-0.75,0.75 S10.91,6,10.5,6S9.75,5.66,9.75,5.25C9.75,4.01,10.76,3,12,3s2.25,1.01,2.25,2.25v8.52c0.19,0.17,0.57,0.45,1.05,0.46h0.05 c0.32-0.01,0.69-0.14,1.06-0.52c1.6-1.61,3.48-0.88,4.36,0C20.92,13.85,20.99,14.04,21,14.22z M9.82,13.7 c0.97-0.97,2.04-1.09,2.93-0.84V12H7.5v1.63c0.03,0.03,0.05,0.05,0.08,0.07c0.16,0.16,0.58,0.51,1.12,0.52h0.05 C9.08,14.21,9.45,14.08,9.82,13.7z M7.5,10.5h5.25V8.25H7.5V10.5z M19.72,17.78C19.73,17.78,19.73,17.78,19.72,17.78 c0.07,0.07,0.55,0.53,1.28,0.79V21H3v-2.41c0.45-0.15,0.88-0.41,1.27-0.8c0,0,0.01,0,0.01-0.01c0.25-0.26,0.5-0.41,0.74-0.48 c0.71-0.21,1.3,0.28,1.5,0.48c0,0,0.01,0,0.01,0c0.07,0.07,0.57,0.55,1.31,0.8c1.08,0.37,2.16,0.08,3.04-0.81 c1.03-1.04,1.98-0.26,2.24,0c0.05,0.05,0.56,0.55,1.32,0.81c0.3,0.11,0.61,0.16,0.91,0.16c0.76,0,1.49-0.33,2.12-0.96c0,0,0,0,0,0 c0.13-0.13,0.25-0.23,0.38-0.31C18.73,16.92,19.49,17.55,19.72,17.78z"/></svg>