<svg viewBox="0 0 24 24" fill="#44739e" xmlns="http://www.w3.org/2000/svg"><title>hue:room-nursery</title><desc>Source: https://github.com/arallsopp/hass-hue-icons</desc><path d="M12.58,11.25c-0.73,0-1.33-0.6-1.33-1.33V9.75h2.67v0.17C13.91,10.65,13.32,11.25,12.58,11.25z M19.7,16.13 c0.28-0.31,0.76-0.32,1.06-0.04c0.3,0.28,0.32,0.76,0.04,1.06C18.54,19.6,15.33,21,12,21c-3.33,0-6.54-1.4-8.8-3.85 c-0.28-0.3-0.27-0.78,0.04-1.06c0.3-0.28,0.78-0.27,1.06,0.04c0.07,0.07,0.14,0.14,0.22,0.21l2.17-5.97 c-2.58,0.76-4.8-2.14-3.1-3.88c0.97-1-0.02-1.99-0.51-2.47C2.94,3.88,3,3.63,3.19,3.56c5.54-1.83,7.48,1.21,7.75,3.17 c0.11,0.79-0.25,1.84-0.44,2.3l-0.64,1.62c0.33,1.2,1.42,2.09,2.72,2.09c1.51,0,2.73-1.19,2.82-2.68c0.31,0.14,0.59,0.34,0.83,0.58 c0.92,0.04,1.85-0.29,2.55-0.99c0.49-0.49,0.8-1.1,0.93-1.73c0.11-0.56,0.92-0.59,1.11-0.05c0.5,1.47-0.21,2.62-0.52,3.02 c-0.07,0.09-0.15,0.18-0.23,0.25c-0.79,0.73-1.84,1.01-2.83,0.86c0.03,0.05,0.07,0.1,0.09,0.15l2.01,4.32v0 C19.46,16.36,19.59,16.25,19.7,16.13z M12,19.5c1.75,0,3.46-0.45,4.98-1.27c-0.15-0.13-0.27-0.29-0.36-0.48L15,14.24H8.47l-1.31,3.6 c-0.05,0.13-0.11,0.25-0.19,0.36C8.5,19.04,10.23,19.5,12,19.5z M6,7.48c0.42,0,0.75-0.34,0.75-0.75S6.42,5.98,6,5.98 c-0.41,0-0.75,0.34-0.75,0.75S5.59,7.48,6,7.48z"/></svg>