<svg viewBox="0 0 24 24" height="24px" width="24px" fill="#44739e" xmlns="http://www.w3.org/2000/svg"><title>hue:room-studio</title><desc>Source: https://github.com/arallsopp/hass-hue-icons</desc><path d="M 18.75 4.5 C 19.164062 4.5 19.5 4.835938 19.5 5.25 L 19.5 12 C 19.5 12.414062 19.164062 12.75 18.75 12.75 L 5.25 12.75 C 4.835938 12.75 4.5 12.414062 4.5 12 L 4.5 5.25 C 4.5 4.835938 4.835938 4.5 5.25 4.5 L 11.25 4.5 L 11.25 3 C 11.25 2.585938 11.585938 2.25 12 2.25 C 12.414062 2.25 12.75 2.585938 12.75 3 L 12.75 4.5 Z M 15.820312 15.75 L 18.648438 20.625 C 18.855469 20.980469 18.734375 21.441406 18.375 21.648438 C 18.257812 21.71875 18.128906 21.75 18 21.75 C 17.742188 21.75 17.492188 21.617188 17.351562 21.375 L 14.085938 15.75 L 12.75 15.75 L 12.75 20.960938 C 12.75 21.378906 12.414062 21.710938 12 21.710938 C 11.585938 21.710938 11.25 21.378906 11.25 20.960938 L 11.25 15.75 L 9.914062 15.75 L 6.648438 21.375 C 6.511719 21.617188 6.257812 21.75 6 21.75 C 5.871094 21.75 5.742188 21.71875 5.625 21.648438 C 5.265625 21.441406 5.144531 20.980469 5.351562 20.625 L 8.179688 15.75 L 6.75 15.75 C 6.335938 15.75 6 15.414062 6 15 C 6 14.585938 6.335938 14.25 6.75 14.25 L 17.25 14.25 C 17.664062 14.25 18 14.585938 18 15 C 18 15.414062 17.664062 15.75 17.25 15.75 Z M 15.820312 15.75 "/></svg>