<svg viewBox="0 0 24 24" fill="#44739e" xmlns="http://www.w3.org/2000/svg"><title>hue:room-gym</title><desc>Source: https://github.com/arallsopp/hass-hue-icons</desc><path d="M17.25,6.75C17.66,6.75,18,7.09,18,7.5v9c0,0.41-0.34,0.75-0.75,0.75h-3c-0.41,0-0.75-0.34-0.75-0.75v-2.25h-3 v2.25c0,0.41-0.34,0.75-0.75,0.75h-3C6.34,17.25,6,16.91,6,16.5v-9c0-0.41,0.34-0.75,0.75-0.75h3c0.41,0,0.75,0.34,0.75,0.75v2.25h3 V7.5c0-0.41,0.34-0.75,0.75-0.75H17.25z M3,9c0-0.41,0.34-0.75,0.75-0.75H4.5v7.5H3.75C3.34,15.75,3,15.41,3,15v-1.5 c-0.83,0-1.5-0.67-1.5-1.5s0.67-1.5,1.5-1.5V9z M21,10.5c0.83,0,1.5,0.67,1.5,1.5s-0.67,1.5-1.5,1.5V15c0,0.41-0.34,0.75-0.75,0.75 H19.5v-7.5h0.75C20.66,8.25,21,8.59,21,9V10.5z"/></svg>