<svg viewBox="0 0 24 24" fill="#44739e" xmlns="http://www.w3.org/2000/svg"><title>hue:room-carport</title><desc>Source: https://github.com/arallsopp/hass-hue-icons</desc><path d="M19.07,13.23c0.26,0.12,0.43,0.39,0.43,0.68v4.06c0,0.41-0.34,0.75-0.75,0.75H18v1.14 c0,0.62-0.51,1.12-1.12,1.12h-0.75c-0.62,0-1.12-0.5-1.12-1.12v-1.14H9v1.12c0,0.62-0.51,1.12-1.12,1.12H7.12 c-0.62,0-1.12-0.5-1.12-1.12v-1.12H5.25c-0.41,0-0.75-0.34-0.75-0.75v-4.06c0-0.29,0.17-0.55,0.43-0.68l0.75-0.35 c0.2-0.1,0.35-0.27,0.4-0.49l1.12-4.34C7.3,7.72,7.6,7.49,7.94,7.49h8.12c0.34,0,0.64,0.23,0.73,0.56l1.12,4.34 c0.05,0.22,0.2,0.39,0.4,0.49L19.07,13.23z M16.88,16.5C17.5,16.5,18,16,18,15.38c0-0.62-0.5-1.12-1.12-1.12s-1.12,0.5-1.12,1.12 C15.75,16,16.25,16.5,16.88,16.5z M13.5,16.5c0.41,0,0.75-0.34,0.75-0.75c0-0.41-0.34-0.75-0.75-0.75h-3 c-0.41,0-0.75,0.34-0.75,0.75c0,0.41,0.34,0.75,0.75,0.75H13.5z M7.12,14.25C6.5,14.25,6,14.75,6,15.38c0,0.62,0.5,1.12,1.12,1.12 s1.12-0.5,1.12-1.12C8.25,14.75,7.75,14.25,7.12,14.25z M7.53,11.8c-0.14,0.47,0.24,0.94,0.77,0.94h7.41c0.52,0,0.9-0.47,0.77-0.94 l-0.64-2.25C15.73,9.23,15.42,9,15.07,9H8.93C8.58,9,8.27,9.23,8.17,9.55L7.53,11.8z M23.25,3C23.66,3,24,3.34,24,3.75v16.5 c0,0.41-0.34,0.75-0.75,0.75s-0.75-0.34-0.75-0.75V6.75C22.5,6.34,22.16,6,21.75,6H2.25C1.84,6,1.5,6.34,1.5,6.75v13.5 C1.5,20.66,1.16,21,0.75,21S0,20.66,0,20.25V3.75C0,3.34,0.34,3,0.75,3H23.25z"/></svg>