<svg viewBox="0 0 24 24" fill="#44739e" xmlns="http://www.w3.org/2000/svg"><title>hue:room-toilet</title><desc>Source: https://github.com/arallsopp/hass-hue-icons</desc><path d="M6.75,14.25C6.34,14.25,6,13.91,6,13.5s0.34-0.75,0.75-0.75H9.6c-1.69-1.12-2.85-3.38-2.85-6 C6.75,3.02,9.1,0,12,0s5.25,3.02,5.25,6.75c0,2.62-1.16,4.88-2.85,6h2.85c0.41,0,0.75,0.34,0.75,0.75s-0.34,0.75-0.75,0.75H6.75z M17.4,15.75c0.33,0,0.6,0.26,0.6,0.58v0.16c0,2.46-1.57,4.36-3.8,5.21c-0.32,0.12-0.53,0.42-0.53,0.75v0.72 c0,0.45-0.38,0.81-0.84,0.81h-1.67c-0.46,0-0.84-0.36-0.84-0.81v-0.73c0-0.33-0.21-0.63-0.52-0.75C7.55,20.81,6,18.81,6,16.33 c0-0.32,0.27-0.58,0.6-0.58H17.4z"/></svg>