<svg viewBox="0 0 24 24" fill="#44739e" xmlns="http://www.w3.org/2000/svg"><title>hue:room-laundry</title><desc>Source: https://github.com/arallsopp/hass-hue-icons</desc><path d="M18.75,4.5C18.34,4.5,18,4.16,18,3.75S18.34,3,18.75,3s0.75,0.34,0.75,0.75S19.16,4.5,18.75,4.5 M12,19.5 c-3.31,0-6-2.69-6-6s2.69-6,6-6s6,2.69,6,6S15.31,19.5,12,19.5 M4.5,3.75C4.5,3.34,4.84,3,5.25,3h3C8.66,3,9,3.34,9,3.75 S8.66,4.5,8.25,4.5h-3C4.84,4.5,4.5,4.16,4.5,3.75 M15.75,3c0.41,0,0.75,0.34,0.75,0.75S16.16,4.5,15.75,4.5 C15.34,4.5,15,4.16,15,3.75S15.34,3,15.75,3z M16.5,12.02c-0.74,0.12-1.29,0.73-1.29,1.48s0.55,1.36,1.29,1.48 C15.87,16.73,14.15,18,12.13,18c-2.55,0-4.63-2.02-4.63-4.5S9.58,9,12.13,9C14.15,9,15.87,10.27,16.5,12.02z M20.25,1.5H3.75 C3.34,1.5,3,1.84,3,2.25v19.5c0,0.41,0.34,0.75,0.75,0.75h16.5c0.41,0,0.75-0.34,0.75-0.75V2.25C21,1.84,20.66,1.5,20.25,1.5"/></svg>