<svg viewBox="0 0 24 24" height="24px" width="24px" fill="#44739e" xmlns="http://www.w3.org/2000/svg"><title>hue:room-bbq</title><desc>Source: https://github.com/arallsopp/hass-hue-icons</desc><path d="M 9.21875 16.5 L 9.613281 15.324219 C 10.359375 15.59375 11.152344 15.75 11.980469 15.75 C 12.957031 15.75 13.894531 15.542969 14.753906 15.171875 L 15.199219 16.5 Z M 20.25 9 C 20.664062 9 21 9.335938 21 9.75 C 21 10.164062 20.664062 10.5 20.25 10.5 L 18.984375 10.5 C 18.410156 12.113281 17.386719 13.476562 16.078125 14.410156 L 17.285156 18.003906 C 18.097656 18.023438 18.75 18.683594 18.75 19.5 C 18.75 20.328125 18.078125 21 17.25 21 C 16.421875 21 15.75 20.328125 15.75 19.5 C 15.75 19.226562 15.828125 18.972656 15.957031 18.753906 L 15.703125 18 L 8.714844 18 L 7.878906 20.488281 C 7.773438 20.800781 7.480469 21 7.167969 21 C 7.085938 21 7.007812 20.988281 6.925781 20.960938 C 6.535156 20.828125 6.324219 20.402344 6.457031 20.011719 L 8.253906 14.65625 C 6.769531 13.726562 5.605469 12.265625 4.976562 10.5 L 3.75 10.5 C 3.335938 10.5 3 10.164062 3 9.75 C 3 9.335938 3.335938 9 3.75 9 L 4.585938 9 C 4.550781 8.78125 4.519531 8.558594 4.496094 8.332031 C 4.457031 7.890625 4.800781 7.5 5.246094 7.5 L 18.710938 7.5 C 19.160156 7.5 19.503906 7.890625 19.460938 8.332031 C 19.441406 8.558594 19.410156 8.78125 19.371094 9 Z M 9.542969 5.9375 C 9.488281 5.898438 9 5.558594 9 5.042969 C 9 4.816406 9.09375 4.488281 9.542969 4.1875 C 9.695312 4.085938 9.75 4 9.75 3.957031 C 9.75 3.878906 9.625 3.746094 9.542969 3.6875 C 9.371094 3.570312 9.320312 3.339844 9.4375 3.167969 C 9.507812 3.058594 9.628906 3 9.75 3 C 9.820312 3 9.894531 3.019531 9.957031 3.0625 C 10.015625 3.101562 10.5 3.441406 10.5 3.957031 C 10.5 4.183594 10.40625 4.511719 9.957031 4.8125 C 9.804688 4.914062 9.75 5 9.75 5.039062 C 9.75 5.121094 9.871094 5.253906 9.960938 5.316406 C 10.128906 5.429688 10.175781 5.660156 10.0625 5.832031 C 9.945312 6.007812 9.710938 6.050781 9.542969 5.9375 Z M 11.792969 5.9375 C 11.738281 5.898438 11.25 5.558594 11.25 5.042969 C 11.25 4.816406 11.34375 4.488281 11.792969 4.1875 C 11.945312 4.085938 12 4 12 3.957031 C 12 3.878906 11.875 3.746094 11.792969 3.6875 C 11.621094 3.570312 11.570312 3.339844 11.6875 3.167969 C 11.757812 3.058594 11.878906 3 12 3 C 12.070312 3 12.144531 3.019531 12.207031 3.0625 C 12.265625 3.101562 12.75 3.441406 12.75 3.957031 C 12.75 4.183594 12.65625 4.511719 12.207031 4.8125 C 12.054688 4.914062 12 5 12 5.042969 C 12 5.121094 12.121094 5.253906 12.210938 5.316406 C 12.378906 5.429688 12.425781 5.660156 12.3125 5.832031 C 12.195312 6.007812 11.960938 6.050781 11.792969 5.9375 Z M 14.042969 5.9375 C 13.988281 5.898438 13.5 5.558594 13.5 5.042969 C 13.5 4.816406 13.59375 4.488281 14.042969 4.1875 C 14.195312 4.085938 14.25 4 14.25 3.957031 C 14.25 3.878906 14.125 3.746094 14.042969 3.6875 C 13.871094 3.570312 13.820312 3.339844 13.9375 3.167969 C 14.007812 3.058594 14.128906 3 14.25 3 C 14.320312 3 14.394531 3.019531 14.457031 3.0625 C 14.515625 3.101562 15 3.441406 15 3.957031 C 15 4.183594 14.90625 4.511719 14.457031 4.8125 C 14.304688 4.914062 14.25 5 14.25 5.039062 C 14.25 5.121094 14.371094 5.253906 14.460938 5.316406 C 14.628906 5.429688 14.675781 5.660156 14.5625 5.832031 C 14.445312 6.007812 14.210938 6.050781 14.042969 5.9375 Z M 14.042969 5.9375 "/></svg>