<svg viewBox="0 0 24 24" height="24px" width="24px" fill="#44739e" xmlns="http://www.w3.org/2000/svg"><title>hue:room-games</title><desc>Source: https://github.com/arallsopp/hass-hue-icons</desc><path d="M 20.25 10.449219 C 19.835938 10.449219 19.5 10.113281 19.5 9.699219 C 19.5 9.285156 19.835938 8.949219 20.25 8.949219 C 20.664062 8.949219 21 9.285156 21 9.699219 C 21 10.113281 20.664062 10.449219 20.25 10.449219 M 18 8.199219 C 17.585938 8.199219 17.25 7.863281 17.25 7.449219 C 17.25 7.035156 17.585938 6.699219 18 6.699219 C 18.414062 6.699219 18.75 7.035156 18.75 7.449219 C 18.75 7.863281 18.414062 8.199219 18 8.199219 M 18 12.75 C 17.585938 12.75 17.25 12.414062 17.25 12 C 17.25 11.585938 17.585938 11.25 18 11.25 C 18.414062 11.25 18.75 11.585938 18.75 12 C 18.75 12.414062 18.414062 12.75 18 12.75 M 15.75 10.449219 C 15.335938 10.449219 15 10.113281 15 9.699219 C 15 9.285156 15.335938 8.949219 15.75 8.949219 C 16.164062 8.949219 16.5 9.285156 16.5 9.699219 C 16.5 10.113281 16.164062 10.449219 15.75 10.449219 M 7.472656 10.449219 L 6.722656 10.449219 L 6.722656 11.199219 C 6.722656 11.613281 6.382812 11.949219 5.972656 11.949219 C 5.558594 11.949219 5.222656 11.613281 5.222656 11.199219 L 5.222656 10.449219 L 4.472656 10.449219 C 4.058594 10.449219 3.722656 10.113281 3.722656 9.699219 C 3.722656 9.289062 4.058594 8.949219 4.472656 8.949219 L 5.222656 8.949219 L 5.222656 8.199219 C 5.222656 7.789062 5.558594 7.449219 5.972656 7.449219 C 6.382812 7.449219 6.722656 7.789062 6.722656 8.199219 L 6.722656 8.949219 L 7.472656 8.949219 C 7.882812 8.949219 8.222656 9.289062 8.222656 9.699219 C 8.222656 10.113281 7.882812 10.449219 7.472656 10.449219 M 18.269531 5.25 L 6.433594 5.25 C 3.894531 5.25 1.5 7.273438 1.5 9.699219 L 1.5 16.046875 C 1.5 17.617188 3.046875 18.75 4.457031 18.75 C 5.585938 18.75 6.652344 18.03125 7.066406 17.039062 L 8.492188 13.496094 L 15.507812 13.496094 L 17.414062 17.039062 C 17.980469 18.03125 18.695312 18.675781 19.8125 18.675781 C 21.371094 18.675781 22.5 17.617188 22.5 16.046875 L 22.5 9.699219 C 22.5 7.273438 20.65625 5.25 18.269531 5.25 "/></svg>