<svg viewBox="0 0 24 24" fill="#44739e" xmlns="http://www.w3.org/2000/svg"><title>hue:room-driveway</title><desc>Source: https://github.com/arallsopp/hass-hue-icons</desc><path d="M18,15c-0.83,0-1.5-0.67-1.5-1.5S17.17,12,18,12s1.5,0.67,1.5,1.5S18.83,15,18,15z M16.33,9.75H7.67 c-0.61,0-1.05-0.56-0.89-1.14l0.75-2.7c0.11-0.39,0.47-0.66,0.89-0.66h7.15c0.42,0,0.78,0.27,0.89,0.66l0.75,2.7 C17.38,9.19,16.93,9.75,16.33,9.75z M15,13.95c0,0.58-0.48,1.05-1.07,1.05h-3.87C9.48,15,9,14.52,9,13.95V13.8 c0-0.58,0.48-1.05,1.07-1.05h3.87c0.59,0,1.07,0.48,1.07,1.05V13.95z M6,15c-0.83,0-1.5-0.67-1.5-1.5S5.17,12,6,12s1.5,0.67,1.5,1.5 S6.83,15,6,15z M20.48,10.74l-0.9-0.43c-0.24-0.12-0.42-0.34-0.49-0.6l-1.35-5.28c-0.1-0.4-0.46-0.68-0.87-0.68H7.12 c-0.41,0-0.77,0.28-0.87,0.68L4.91,9.71c-0.07,0.26-0.25,0.48-0.49,0.6l-0.9,0.43C3.2,10.89,3,11.21,3,11.56v4.78 c0,0.5,0.4,0.91,0.9,0.91h1.35v1.63c0,0.75,0.62,1.37,1.37,1.37h1.01c0.75,0,1.37-0.62,1.37-1.37v-1.63h6v1.63 c0,0.75,0.62,1.37,1.37,1.37h1.01c0.75,0,1.37-0.62,1.37-1.37v-1.63h1.35c0.5,0,0.9-0.41,0.9-0.91v-4.78 C21,11.21,20.8,10.89,20.48,10.74z"/></svg>