<svg viewBox="0 0 24 24" height="24px" width="24px" fill="#44739e" xmlns="http://www.w3.org/2000/svg"><title>hue:room-balcony</title><desc>Source: https://github.com/arallsopp/hass-hue-icons</desc><path d="M 18 9.207031 C 17.554688 9.46875 17.25 9.945312 17.25 10.5 C 17.25 11.054688 17.554688 11.53125 18 11.789062 L 18 15.019531 C 17.9375 15.015625 17.878906 15 17.816406 15 L 15 15 L 15 11.789062 C 15.445312 11.53125 15.75 11.054688 15.75 10.5 C 15.75 9.945312 15.445312 9.46875 15 9.207031 L 15 6 L 18 6 Z M 6 15.019531 L 6 11.789062 C 6.445312 11.53125 6.75 11.054688 6.75 10.5 C 6.75 9.945312 6.445312 9.46875 6 9.207031 L 6 6 L 9 6 L 9 9.207031 C 8.554688 9.46875 8.25 9.945312 8.25 10.5 C 8.25 11.054688 8.554688 11.53125 9 11.789062 L 9 15 L 6.183594 15 C 6.121094 15 6.0625 15.015625 6 15.019531 Z M 13.5 9.207031 C 13.054688 9.46875 12.75 9.945312 12.75 10.5 C 12.75 11.054688 13.054688 11.53125 13.5 11.789062 L 13.5 15 L 10.5 15 L 10.5 11.789062 C 10.945312 11.53125 11.25 11.054688 11.25 10.5 C 11.25 9.945312 10.945312 9.46875 10.5 9.207031 L 10.5 6 L 13.5 6 Z M 21.75 4.5 L 2.25 4.5 C 1.835938 4.5 1.5 4.835938 1.5 5.25 C 1.5 5.660156 1.835938 6 2.25 6 L 4.5 6 L 4.5 9.207031 C 4.054688 9.46875 3.75 9.945312 3.75 10.5 C 3.75 11.054688 4.054688 11.53125 4.5 11.789062 L 4.5 15.492188 C 3.601562 16.054688 3 17.046875 3 18.183594 C 3 18.910156 3.589844 19.5 4.316406 19.5 L 19.683594 19.5 C 20.410156 19.5 21 18.910156 21 18.183594 C 21 17.046875 20.398438 16.054688 19.5 15.492188 L 19.5 11.789062 C 19.945312 11.53125 20.25 11.054688 20.25 10.5 C 20.25 9.945312 19.945312 9.46875 19.5 9.207031 L 19.5 6 L 21.75 6 C 22.164062 6 22.5 5.660156 22.5 5.25 C 22.5 4.835938 22.164062 4.5 21.75 4.5 Z M 21.75 4.5 "/></svg>