<svg viewBox="0 0 24 24" fill="#44739e" xmlns="http://www.w3.org/2000/svg"><title>hue:room-bedroom</title><desc>Source: https://github.com/arallsopp/hass-hue-icons</desc><path d="M19.5,12h-15c-1.66,0-3,1.34-3,3v1.5c0,0.41,0.34,0.75,0.75,0.75H3V18c0,0.83,0.67,1.5,1.5,1.5S6,18.83,6,18 v-0.75h12V18c0,0.83,0.67,1.5,1.5,1.5S21,18.83,21,18v-0.75h0.75c0.41,0,0.75-0.34,0.75-0.75V15C22.5,13.34,21.16,12,19.5,12 M6.75,7.5h3.75c0.41,0,0.75,0.34,0.75,0.75C11.25,8.66,10.91,9,10.5,9H6.75C6.34,9,6,8.66,6,8.25C6,7.84,6.34,7.5,6.75,7.5 M13.5,7.5h3.75C17.66,7.5,18,7.84,18,8.25C18,8.66,17.66,9,17.25,9H13.5c-0.41,0-0.75-0.34-0.75-0.75 C12.75,7.84,13.09,7.5,13.5,7.5 M5.26,10.5h13.48c0.42,0,0.76-0.34,0.76-0.76V6c0-0.83-0.67-1.5-1.5-1.5H6C5.17,4.5,4.5,5.17,4.5,6 v3.74C4.5,10.16,4.84,10.5,5.26,10.5"/></svg>