<svg viewBox="0 0 24 24" fill="#44739e" xmlns="http://www.w3.org/2000/svg"><title>hue:room-studio</title><desc>Source: https://github.com/arallsopp/hass-hue-icons</desc><path d="M18.75,4.5c0.41,0,0.75,0.34,0.75,0.75V12c0,0.41-0.34,0.75-0.75,0.75H5.25c-0.41,0-0.75-0.34-0.75-0.75V5.25 c0-0.41,0.34-0.75,0.75-0.75h6V3c0-0.41,0.34-0.75,0.75-0.75S12.75,2.59,12.75,3v1.5H18.75z M15.82,15.75l2.83,4.88 c0.21,0.36,0.09,0.82-0.27,1.02c-0.12,0.07-0.25,0.1-0.38,0.1c-0.26,0-0.51-0.13-0.65-0.38l-3.27-5.62h-1.34v5.21 c0,0.42-0.34,0.75-0.75,0.75s-0.75-0.33-0.75-0.75v-5.21H9.91l-3.27,5.62C6.51,21.62,6.26,21.75,6,21.75c-0.13,0-0.26-0.03-0.38-0.1 c-0.36-0.21-0.48-0.67-0.27-1.02l2.83-4.88H6.75C6.34,15.75,6,15.41,6,15s0.34-0.75,0.75-0.75h10.5c0.41,0,0.75,0.34,0.75,0.75 s-0.34,0.75-0.75,0.75H15.82z"/></svg>