<svg viewBox="0 0 24 24" fill="#44739e" xmlns="http://www.w3.org/2000/svg"><title>hue:room-hallway</title><desc>Source: https://github.com/arallsopp/hass-hue-icons</desc><path d="M20.98,16.37l-2.16-9.58c-0.34-1.51-1.79-2.46-3.29-2.24l-0.59-0.88C14.67,3.25,14.2,3,13.7,3h-0.95 C12.34,3,12,3.34,12,3.75v1.5h-1.5v-4.5C10.5,0.34,10.16,0,9.75,0S9,0.34,9,0.75V9H6V7.5c0-0.41-0.34-0.75-0.75-0.75 S4.5,7.09,4.5,7.5v2.25c0,0.41,0.34,0.75,0.75,0.75H9v11.25H6c-0.83,0-1.5,0.67-1.5,1.5C4.5,23.66,4.84,24,5.25,24h9 c0.41,0,0.75-0.34,0.75-0.75c0-0.83-0.67-1.5-1.5-1.5h-3v-15H12v12c0,0.41,0.34,0.75,0.75,0.75h1c1.55,0,2.71-1.42,2.41-2.94 L15.25,12l0.83-3.73l1.97,8.76c0.09,0.4,0.49,0.66,0.9,0.57l1.46-0.33C20.82,17.17,21.07,16.77,20.98,16.37"/></svg>