<svg viewBox="0 0 24 24" fill="#44739e" xmlns="http://www.w3.org/2000/svg"><title>hue:room-bathroom</title><desc>Source: https://github.com/arallsopp/hass-hue-icons</desc><path d="M20.02,12.75H19.5V3.86C19.5,1.73,17.77,0,15.64,0c-1.83,0-3.36,1.29-3.75,3H10.5C9.68,3,9,3.67,9,4.5 c0,0.41,0.34,0.75,0.75,0.75H15c0.41,0,0.75-0.33,0.75-0.75c0-0.83-0.67-1.5-1.5-1.5h-0.79c0.34-0.88,1.19-1.5,2.19-1.5 c1.3,0,2.36,1.06,2.36,2.36v8.89H3.98C3.44,12.75,3,13.19,3,13.73c0,0.55,0.44,0.99,0.98,0.99H4.5v1.67c0,2.11,1.23,3.93,3,4.8v1.3 C7.5,23.33,8.17,24,9,24s1.5-0.67,1.5-1.5v-0.75h3.64c0.04,0,0.07,0,0.11,0v0.75c0,0.83,0.67,1.5,1.5,1.5s1.5-0.67,1.5-1.5v-1.75 c1.36-0.97,2.25-2.56,2.25-4.36v-1.67h0.52c0.54,0,0.98-0.44,0.98-0.99C21,13.19,20.56,12.75,20.02,12.75"/></svg>