<svg viewBox="0 0 24 24" fill="#44739e" xmlns="http://www.w3.org/2000/svg"><title>hue:room-front-door</title><desc>Source: https://github.com/arallsopp/hass-hue-icons</desc><path d="M15.75,15c0,0.41-0.34,0.75-0.75,0.75H9c-0.41,0-0.75-0.34-0.75-0.75S8.59,14.25,9,14.25h6 C15.41,14.25,15.75,14.59,15.75,15z M8.25,4.5c0-0.41,0.34-0.75,0.75-0.75h1.5c0.41,0,0.75,0.34,0.75,0.75V9 c0,0.41-0.34,0.75-0.75,0.75H9C8.59,9.75,8.25,9.41,8.25,9V4.5z M7.5,12.75c-0.41,0-0.75-0.34-0.75-0.75s0.34-0.75,0.75-0.75 S8.25,11.59,8.25,12S7.91,12.75,7.5,12.75z M12.75,4.5c0-0.41,0.34-0.75,0.75-0.75H15c0.41,0,0.75,0.34,0.75,0.75V9 c0,0.41-0.34,0.75-0.75,0.75h-1.5c-0.41,0-0.75-0.34-0.75-0.75V4.5z M18,0.75H6c-0.41,0-0.75,0.34-0.75,0.75v21 c0,0.41,0.34,0.75,0.75,0.75h12c0.41,0,0.75-0.34,0.75-0.75v-21C18.75,1.09,18.41,0.75,18,0.75z"/></svg>