<svg viewBox="0 0 24 24" fill="#44739e" xmlns="http://www.w3.org/2000/svg"><title>hue:room-kids</title><desc>Source: https://github.com/arallsopp/hass-hue-icons</desc><path d="M15.75,19.12c-0.83,0-1.5-0.84-1.5-1.88s0.67-1.88,1.5-1.88s1.5,0.84,1.5,1.88S16.58,19.12,15.75,19.12 M12,11.25c-1.24,0-2.25-0.84-2.25-1.88S10.76,7.5,12,7.5s2.25,0.84,2.25,1.88S13.24,11.25,12,11.25 M8.25,19.12 c-0.83,0-1.5-0.84-1.5-1.88s0.67-1.88,1.5-1.88s1.5,0.84,1.5,1.88S9.08,19.12,8.25,19.12z M12,8.25c0.41,0,0.75,0.34,0.75,0.75 S12.41,9.75,12,9.75S11.25,9.41,11.25,9S11.59,8.25,12,8.25z M18.75,12c-0.32,0-0.63,0.07-0.91,0.2c-0.48-0.61-1.14-1.12-1.91-1.53 c0.57-0.8,0.91-1.77,0.91-2.82c0-0.02,0-0.04,0-0.06c1.09-0.23,1.91-1.2,1.91-2.37c0-1.34-1.09-2.42-2.42-2.42 c-0.69,0-1.31,0.29-1.75,0.75C13.83,3.28,12.95,3,12,3c-0.95,0-1.83,0.28-2.58,0.75C8.98,3.29,8.36,3,7.67,3 C6.34,3,5.25,4.09,5.25,5.42c0,1.16,0.82,2.12,1.9,2.36c0,0.02,0,0.04,0,0.06c0,1.05,0.34,2.03,0.91,2.82 c-0.77,0.4-1.43,0.92-1.91,1.52C5.88,12.07,5.57,12,5.25,12C4.01,12,3,13.01,3,14.25s1.01,2.25,2.25,2.25 c0.02,0,0.04-0.01,0.06-0.01c-0.04,0.25-0.06,0.5-0.06,0.76c0,2.07,1.34,3.75,3,3.75c1.01,0,1.9-0.63,2.45-1.59 c0.42,0.06,0.86,0.09,1.3,0.09s0.88-0.03,1.3-0.09c0.55,0.96,1.44,1.59,2.45,1.59c1.66,0,3-1.68,3-3.75c0-0.26-0.02-0.51-0.06-0.76 c0.02,0,0.04,0.01,0.06,0.01c1.24,0,2.25-1.01,2.25-2.25S19.99,12,18.75,12"/></svg>