<svg viewBox="0 0 24 24" fill="#44739e" xmlns="http://www.w3.org/2000/svg"><title>hue:room-recreation</title><desc>Source: https://github.com/arallsopp/hass-hue-icons</desc><path d="M18.75,16.5c1.24,0,2.25,1.01,2.25,2.25S19.99,21,18.75,21s-2.25-1.01-2.25-2.25S17.51,16.5,18.75,16.5z M19.76,15.16C19.44,15.06,19.1,15,18.75,15C16.68,15,15,16.68,15,18.75c-1.77,0.39-3.84,0.05-5.5-0.79 c-0.43-0.22-0.95-0.14-1.3,0.21l-2.62,2.61c-0.29,0.29-0.77,0.29-1.06,0l-1.31-1.3c-0.29-0.29-0.29-0.77,0-1.06l2.62-2.61 c0.34-0.34,0.43-0.85,0.21-1.27C4.34,11.2,5.16,6.9,8.52,4.48c2.8-2,6.46-1.98,9.23,0.06C21.26,7.12,21.92,11.78,19.76,15.16z"/></svg>