<svg viewBox="0 0 24 24" fill="#44739e" xmlns="http://www.w3.org/2000/svg"><title>hue:room-bbq</title><desc>Source: https://github.com/arallsopp/hass-hue-icons</desc><path d="M9.22,16.5l0.39-1.18c0.75,0.27,1.54,0.43,2.37,0.43c0.98,0,1.91-0.21,2.77-0.58l0.45,1.33H9.22z M20.25,9 C20.66,9,21,9.34,21,9.75s-0.34,0.75-0.75,0.75h-1.27c-0.57,1.61-1.6,2.98-2.91,3.91L17.29,18c0.81,0.02,1.46,0.68,1.46,1.5 c0,0.83-0.67,1.5-1.5,1.5s-1.5-0.67-1.5-1.5c0-0.27,0.08-0.53,0.21-0.75L15.7,18H8.71l-0.84,2.49C7.77,20.8,7.48,21,7.17,21 c-0.08,0-0.16-0.01-0.24-0.04c-0.39-0.13-0.6-0.56-0.47-0.95l1.8-5.36c-1.48-0.93-2.65-2.39-3.28-4.16H3.75 C3.34,10.5,3,10.16,3,9.75S3.34,9,3.75,9h0.84C4.55,8.78,4.52,8.56,4.5,8.33C4.46,7.89,4.8,7.5,5.25,7.5h13.46 c0.45,0,0.79,0.39,0.75,0.83C19.44,8.56,19.41,8.78,19.37,9H20.25z M9.54,5.94C9.49,5.9,9,5.56,9,5.04c0-0.23,0.09-0.55,0.54-0.86 C9.7,4.09,9.75,4,9.75,3.96c0-0.08-0.12-0.21-0.21-0.27C9.37,3.57,9.32,3.34,9.44,3.17C9.51,3.06,9.63,3,9.75,3 c0.07,0,0.14,0.02,0.21,0.06c0.06,0.04,0.54,0.38,0.54,0.89c0,0.23-0.09,0.55-0.54,0.86C9.8,4.91,9.75,5,9.75,5.04 c0,0.08,0.12,0.21,0.21,0.28c0.17,0.11,0.21,0.34,0.1,0.52C9.95,6.01,9.71,6.05,9.54,5.94z M11.79,5.94 c-0.05-0.04-0.54-0.38-0.54-0.89c0-0.23,0.09-0.55,0.54-0.86C11.95,4.09,12,4,12,3.96c0-0.08-0.12-0.21-0.21-0.27 c-0.17-0.12-0.22-0.35-0.11-0.52C11.76,3.06,11.88,3,12,3c0.07,0,0.14,0.02,0.21,0.06c0.06,0.04,0.54,0.38,0.54,0.89 c0,0.23-0.09,0.55-0.54,0.86C12.05,4.91,12,5,12,5.04c0,0.08,0.12,0.21,0.21,0.27c0.17,0.11,0.21,0.34,0.1,0.52 C12.2,6.01,11.96,6.05,11.79,5.94z M14.04,5.94C13.99,5.9,13.5,5.56,13.5,5.04c0-0.23,0.09-0.55,0.54-0.86 c0.15-0.1,0.21-0.19,0.21-0.23c0-0.08-0.12-0.21-0.21-0.27c-0.17-0.12-0.22-0.35-0.11-0.52C14.01,3.06,14.13,3,14.25,3 c0.07,0,0.14,0.02,0.21,0.06C14.52,3.1,15,3.44,15,3.96c0,0.23-0.09,0.55-0.54,0.86C14.3,4.91,14.25,5,14.25,5.04 c0,0.08,0.12,0.21,0.21,0.28c0.17,0.11,0.21,0.34,0.1,0.52C14.45,6.01,14.21,6.05,14.04,5.94z"/></svg>