<svg viewBox="0 0 24 24" fill="#44739e" xmlns="http://www.w3.org/2000/svg"><title>hue:room-dining</title><desc>Source: https://github.com/arallsopp/hass-hue-icons</desc><path d="M18,2.25c0.82,0,1.5,0.68,1.5,1.5v16.5c0,0.82-0.68,1.5-1.5,1.5s-1.5-0.68-1.5-1.5v-8.06 c-1.2-0.86-2.25-2.63-2.25-4.69c0-2.82,1.98-5.12,3.62-5.24C17.91,2.26,17.95,2.25,18,2.25z M10.5,13.34v6.91 c0,0.83-0.67,1.5-1.5,1.5s-1.5-0.67-1.5-1.5v-6.91c0-0.38-0.14-0.75-0.41-1.03l-0.22-0.23C5.83,10.97,5.25,9.5,5.25,7.98V3 c0-0.41,0.34-0.75,0.75-0.75S6.75,2.59,6.75,3v3.75c0,0.41,0.34,0.75,0.75,0.75s0.75-0.34,0.75-0.75V3c0-0.41,0.34-0.75,0.75-0.75 S9.75,2.59,9.75,3v3.75c0,0.41,0.34,0.75,0.75,0.75s0.75-0.34,0.75-0.75V3c0-0.41,0.34-0.75,0.75-0.75S12.75,2.59,12.75,3v4.98 c0,1.52-0.58,2.99-1.62,4.11l-0.22,0.23C10.64,12.59,10.5,12.96,10.5,13.34z"/></svg>