<svg viewBox="0 0 24 24" fill="#44739e" xmlns="http://www.w3.org/2000/svg"><title>hue:room-lounge</title><desc>Source: https://github.com/arallsopp/hass-hue-icons</desc><path d="M18,12.75c2.48,0,4.5,0.52,4.5,3c0,0.41-0.34,0.75-0.75,0.75H21v0.75c0,0.83-0.67,1.5-1.5,1.5 s-1.5-0.67-1.5-1.5V16.5H6v0.75c0,0.83-0.67,1.5-1.5,1.5S3,18.08,3,17.25V16.5H2.25c-0.41,0-0.75-0.34-0.75-0.75 c0-0.04,0.01-0.08,0.01-0.12c0-0.02-0.01-0.04-0.01-0.06v-5.14C1.5,9.64,2.14,9,2.93,9h0.14C3.86,9,4.5,9.64,4.5,10.43v2.32H18z M3.07,7.5H2.93c-0.45,0-1.05,0.14-1.43,0.33c0.6-2.31,2.85-4.08,6.36-4.08c3.36,0,5.47,1.59,6.39,3.75h4.01 c1.51,0,2.74,1.23,2.74,2.74v0.33c0,0.38-0.3,0.68-0.68,0.68H6v-0.82C6,8.82,4.68,7.5,3.07,7.5z"/></svg>