<svg viewBox="0 0 24 24" fill="#44739e" xmlns="http://www.w3.org/2000/svg"><title>hue:room-porch</title><desc>Source: https://github.com/arallsopp/hass-hue-icons</desc><path d="M10.34,19.28l1.09-3.41l2.34-0.34l1.46,3.8C13.64,19.57,11.93,19.55,10.34,19.28z M8.12,11.3 c0.52-0.08,1.32-0.2,2.24-0.33l0.64,2.7l-2.21,0.33L8.12,11.3z M14.82,13.09l-2.33,0.35l-0.64-2.69c0.81-0.12,1.62-0.23,2.33-0.33 L14.82,13.09z M20.15,18.33c-0.21-0.36-0.66-0.48-1.02-0.28c-0.7,0.4-1.51,0.71-2.4,0.96l-1.43-3.71l4.21-0.62 c-0.18-1.23-1.31-2.08-2.54-1.91l-0.64,0.09l-0.64-2.65c0.15-0.02,0.27-0.04,0.38-0.05c0.43,0.01,0.77,0.36,0.77,0.78 c0,0.41,0.34,0.75,0.75,0.75s0.75-0.34,0.75-0.75c0-1.26-1.03-2.29-2.29-2.29c-0.01,0-0.02,0.01-0.04,0.01c-0.01,0-0.02,0-0.04,0 C14.66,8.8,9.36,9.6,7.76,9.84l-1.4-5.65C6.19,3.49,5.56,3,4.85,3h-1.1l3.33,13.5l2.7-0.39l-0.9,2.83 c-0.79-0.23-1.51-0.53-2.13-0.89c-0.36-0.2-0.82-0.08-1.02,0.28C5.51,18.69,5.64,19.15,6,19.36c0.91,0.52,1.97,0.93,3.15,1.21 c1.2,0.29,2.48,0.44,3.79,0.44s2.59-0.14,3.79-0.44c1.17-0.28,2.23-0.69,3.14-1.21C20.23,19.15,20.36,18.69,20.15,18.33z"/></svg>