<svg viewBox="0 0 24 24" fill="#44739e" xmlns="http://www.w3.org/2000/svg"><title>hue:room-terrace</title><desc>Source: https://github.com/arallsopp/hass-hue-icons</desc><path d="M20.68,6.42c0.29,0.21,0.41,0.59,0.25,0.91c-0.24,0.5-0.77,0.89-1.37,0.89c-0.39,0-0.75-0.16-1.02-0.42 c-0.28-0.27-0.71-0.27-0.99,0c-0.27,0.25-0.62,0.42-1.02,0.42c-0.39,0-0.75-0.16-1.02-0.42c-0.28-0.27-0.71-0.27-0.99,0 c-0.27,0.25-0.62,0.42-1.02,0.42c-0.28,0-0.54-0.09-0.76-0.23v5.48c0,0.42-0.34,0.75-0.75,0.75s-0.75-0.33-0.75-0.75V8 c-0.22,0.14-0.48,0.23-0.77,0.23c-0.39,0-0.75-0.16-1.01-0.42c-0.28-0.27-0.72-0.27-1,0C8.21,8.06,7.85,8.23,7.46,8.23 c-0.39,0-0.75-0.16-1.02-0.42c-0.28-0.27-0.72-0.27-1,0C5.18,8.06,4.82,8.23,4.43,8.23c-0.6,0-1.12-0.39-1.37-0.89 c-0.15-0.32-0.03-0.7,0.25-0.91l8.23-6.27c0.27-0.2,0.64-0.2,0.91,0L20.68,6.42z M17.25,14.98c0.83,0,1.5,0.67,1.5,1.5 c0,0.83-0.67,1.5-1.5,1.5h-3.31l3.89,4.78c0.26,0.32,0.21,0.79-0.11,1.05c-0.14,0.11-0.3,0.17-0.47,0.17 c-0.21,0-0.43-0.09-0.58-0.27L12,17.98L7.33,23.7c-0.26,0.32-0.73,0.37-1.05,0.11c-0.32-0.26-0.37-0.73-0.11-1.05l3.9-4.78H6.75 c-0.83,0-1.5-0.67-1.5-1.5c0-0.83,0.67-1.5,1.5-1.5H17.25z"/></svg>