<svg viewBox="0 0 24 24" height="24px" width="24px" fill="#44739e" xmlns="http://www.w3.org/2000/svg"><title>hue:room-recreation</title><desc>Source: https://github.com/arallsopp/hass-hue-icons</desc><path d="M 18.75 16.5 C 19.992188 16.5 21 17.507812 21 18.75 C 21 19.992188 19.992188 21 18.75 21 C 17.507812 21 16.5 19.992188 16.5 18.75 C 16.5 17.507812 17.507812 16.5 18.75 16.5 Z M 19.761719 15.15625 C 19.4375 15.0625 19.101562 15 18.75 15 C 16.683594 15 15 16.683594 15 18.75 C 13.226562 19.140625 11.15625 18.804688 9.503906 17.964844 C 9.074219 17.746094 8.550781 17.828125 8.207031 18.171875 L 5.589844 20.78125 C 5.296875 21.074219 4.820312 21.074219 4.527344 20.78125 L 3.21875 19.476562 C 2.925781 19.183594 2.925781 18.710938 3.21875 18.417969 L 5.839844 15.808594 C 6.175781 15.472656 6.273438 14.957031 6.054688 14.535156 C 4.335938 11.199219 5.15625 6.898438 8.523438 4.484375 C 11.320312 2.480469 14.980469 2.507812 17.753906 4.546875 C 21.261719 7.125 21.917969 11.777344 19.761719 15.15625 Z M 19.761719 15.15625 "/></svg>