<svg viewBox="0 0 24 24" height="24px" width="24px" fill="#44739e" xmlns="http://www.w3.org/2000/svg"><title>hue:room-dining</title><desc>Source: https://github.com/arallsopp/hass-hue-icons</desc><path d="M 18 2.25 C 18.824219 2.25 19.5 2.925781 19.5 3.75 L 19.5 20.25 C 19.5 21.074219 18.824219 21.75 18 21.75 C 17.175781 21.75 16.5 21.074219 16.5 20.25 L 16.5 12.1875 C 15.300781 11.324219 14.25 9.554688 14.25 7.5 C 14.25 4.679688 16.234375 2.382812 17.867188 2.261719 C 17.914062 2.257812 17.953125 2.25 18 2.25 Z M 10.5 13.34375 L 10.5 20.25 C 10.5 21.078125 9.828125 21.75 9 21.75 C 8.171875 21.75 7.5 21.078125 7.5 20.25 L 7.5 13.34375 C 7.5 12.960938 7.355469 12.59375 7.09375 12.316406 L 6.871094 12.082031 C 5.828125 10.96875 5.25 9.5 5.25 7.976562 L 5.25 3 C 5.25 2.585938 5.585938 2.25 6 2.25 C 6.414062 2.25 6.75 2.585938 6.75 3 L 6.75 6.75 C 6.75 7.164062 7.085938 7.5 7.5 7.5 C 7.914062 7.5 8.25 7.164062 8.25 6.75 L 8.25 3 C 8.25 2.585938 8.585938 2.25 9 2.25 C 9.414062 2.25 9.75 2.585938 9.75 3 L 9.75 6.75 C 9.75 7.164062 10.085938 7.5 10.5 7.5 C 10.914062 7.5 11.25 7.164062 11.25 6.75 L 11.25 3 C 11.25 2.585938 11.585938 2.25 12 2.25 C 12.414062 2.25 12.75 2.585938 12.75 3 L 12.75 7.976562 C 12.75 9.5 12.171875 10.96875 11.128906 12.082031 L 10.90625 12.316406 C 10.644531 12.59375 10.5 12.960938 10.5 13.34375 Z M 10.5 13.34375 "/></svg>