<svg viewBox="0 0 24 24" fill="#44739e" xmlns="http://www.w3.org/2000/svg"><title>hue:room-living</title><desc>Source: https://github.com/arallsopp/hass-hue-icons</desc><path d="M21,9.75c0.83,0,1.5,0.67,1.5,1.5v4.55c0,0.39-0.31,0.7-0.7,0.7H21v0.75c0,0.83-0.67,1.5-1.5,1.5 s-1.5-0.67-1.5-1.5V16.5H6v0.75c0,0.83-0.67,1.5-1.5,1.5S3,18.08,3,17.25V16.5H2.2c-0.39,0-0.7-0.31-0.7-0.7v-4.55 c0-0.83,0.67-1.5,1.5-1.5s1.5,0.67,1.5,1.5v1.5h15v-1.5C19.5,10.42,20.17,9.75,21,9.75z M6,11.25c0-1.66-1.34-3-3-3v-1.5 c0-0.83,0.67-1.5,1.5-1.5h15c0.83,0,1.5,0.67,1.5,1.5v1.5c-1.66,0-3,1.34-3,3H6z"/></svg>