<svg viewBox="0 0 24 24" height="24px" width="24px" fill="#44739e" xmlns="http://www.w3.org/2000/svg"><title>hue:room-nursery</title><desc>Source: https://github.com/arallsopp/hass-hue-icons</desc><path d="M 12.578125 11.246094 C 11.84375 11.246094 11.246094 10.648438 11.246094 9.914062 L 11.246094 9.746094 L 13.914062 9.746094 L 13.914062 9.914062 C 13.914062 10.648438 13.316406 11.246094 12.578125 11.246094 Z M 19.699219 16.128906 C 19.980469 15.820312 20.457031 15.804688 20.761719 16.085938 C 21.0625 16.367188 21.082031 16.84375 20.800781 17.148438 C 18.535156 19.597656 15.328125 21 12.003906 21 C 8.675781 21 5.46875 19.597656 3.207031 17.148438 C 2.925781 16.84375 2.941406 16.367188 3.246094 16.085938 C 3.550781 15.804688 4.023438 15.820312 4.304688 16.128906 C 4.375 16.203125 4.449219 16.265625 4.523438 16.335938 L 6.695312 10.363281 C 4.117188 11.125 1.898438 8.222656 3.59375 6.484375 C 4.566406 5.484375 3.574219 4.492188 3.085938 4.015625 C 2.941406 3.875 3 3.628906 3.191406 3.5625 C 8.726562 1.734375 10.671875 4.773438 10.945312 6.734375 C 11.058594 7.527344 10.699219 8.570312 10.503906 9.035156 L 9.867188 10.652344 C 10.195312 11.851562 11.285156 12.742188 12.585938 12.742188 C 14.09375 12.742188 15.320312 11.550781 15.402344 10.0625 C 15.710938 10.207031 15.988281 10.40625 16.234375 10.640625 C 17.15625 10.679688 18.085938 10.355469 18.789062 9.652344 C 19.277344 9.160156 19.589844 8.554688 19.71875 7.925781 C 19.832031 7.367188 20.640625 7.332031 20.824219 7.871094 C 21.328125 9.34375 20.617188 10.488281 20.308594 10.890625 C 20.238281 10.980469 20.160156 11.066406 20.074219 11.144531 C 19.285156 11.875 18.238281 12.152344 17.242188 12.003906 C 17.273438 12.054688 17.308594 12.101562 17.332031 12.15625 L 19.34375 16.472656 L 19.34375 16.476562 C 19.460938 16.359375 19.585938 16.25 19.699219 16.128906 Z M 12.003906 19.496094 C 13.753906 19.496094 15.464844 19.046875 16.984375 18.226562 C 16.835938 18.09375 16.714844 17.933594 16.625 17.742188 L 14.996094 14.242188 L 8.472656 14.242188 L 7.164062 17.84375 C 7.117188 17.976562 7.050781 18.089844 6.972656 18.199219 C 8.503906 19.039062 10.230469 19.496094 12.003906 19.496094 Z M 6.003906 7.484375 C 6.421875 7.484375 6.753906 7.148438 6.753906 6.734375 C 6.753906 6.320312 6.421875 5.984375 6.003906 5.984375 C 5.589844 5.984375 5.253906 6.320312 5.253906 6.734375 C 5.253906 7.148438 5.589844 7.484375 6.003906 7.484375 Z M 6.003906 7.484375 "/></svg>