<svg viewBox="0 0 24 24" fill="#44739e" xmlns="http://www.w3.org/2000/svg"><title>hue:room-garage</title><desc>Source: https://github.com/arallsopp/hass-hue-icons</desc><path d="M20.84,4.3c0.22,0.22,0.22,0.6,0,0.92l-3.38,4.84c-0.3,0.43-0.87,0.55-1.17,0.25l-0.71-0.7l-0.81,0.81 L13.6,9.25l0.81-0.81l-0.7-0.71c-0.3-0.3-0.18-0.87,0.25-1.17l4.84-3.38c0.32-0.22,0.7-0.22,0.92,0L20.84,4.3z M8.66,13.01L11,15.36 l-5.4,5.4c-0.32,0.32-0.85,0.32-1.18,0l-1.17-1.17c-0.32-0.32-0.32-0.85,0-1.18L8.66,13.01z M20.74,18.51 c0.32,0.32,0.32,0.85,0,1.18l-1.06,1.06c-0.16,0.16-0.38,0.24-0.59,0.24c-0.21,0-0.43-0.08-0.59-0.24L8.39,10.62 c-1.21,0.47-2.62,0.33-3.7-0.43C3.32,9.22,2.79,7.62,3.08,6.16c0.06-0.3,0.45-0.41,0.66-0.19L5.27,7.5c0.31,0.31,0.81,0.31,1.12,0 L7.5,6.39c0.31-0.31,0.31-0.81,0-1.12L5.98,3.74c-0.22-0.22-0.11-0.61,0.2-0.66c1.25-0.25,2.6,0.11,3.57,1.07 c1.14,1.14,1.43,2.82,0.88,4.23L20.74,18.51z"/></svg>