<svg viewBox="0 0 24 24" height="24px" width="24px" fill="#44739e" xmlns="http://www.w3.org/2000/svg"><title>hue:room-bathroom</title><desc>Source: https://github.com/arallsopp/hass-hue-icons</desc><path d="M 20.015625 12.75 L 19.5 12.75 L 19.5 3.855469 C 19.5 1.730469 17.769531 0 15.644531 0 C 13.8125 0 12.285156 1.285156 11.894531 3 L 10.503906 3 C 9.675781 3 9 3.671875 9 4.503906 C 9 4.917969 9.335938 5.25 9.746094 5.25 L 15.003906 5.25 C 15.417969 5.25 15.75 4.917969 15.75 4.503906 C 15.75 3.671875 15.078125 3 14.246094 3 L 13.457031 3 C 13.800781 2.125 14.648438 1.5 15.644531 1.5 C 16.941406 1.5 18 2.558594 18 3.855469 L 18 12.75 L 3.984375 12.75 C 3.441406 12.75 3 13.191406 3 13.734375 C 3 14.28125 3.441406 14.722656 3.984375 14.722656 L 4.5 14.722656 L 4.5 16.394531 C 4.5 18.503906 5.726562 20.324219 7.5 21.199219 L 7.5 22.5 C 7.5 23.328125 8.171875 24 9 24 C 9.828125 24 10.5 23.328125 10.5 22.5 L 10.5 21.75 L 14.144531 21.75 C 14.179688 21.75 14.214844 21.746094 14.25 21.746094 L 14.25 22.5 C 14.25 23.328125 14.921875 24 15.75 24 C 16.578125 24 17.25 23.328125 17.25 22.5 L 17.25 20.75 C 18.609375 19.78125 19.5 18.191406 19.5 16.394531 L 19.5 14.722656 L 20.015625 14.722656 C 20.558594 14.722656 21 14.28125 21 13.734375 C 21 13.191406 20.558594 12.75 20.015625 12.75 "/></svg>