<svg viewBox="0 0 24 24" fill="#44739e" xmlns="http://www.w3.org/2000/svg"><title>hue:room-guestroom</title><desc>Source: https://github.com/arallsopp/hass-hue-icons</desc><path d="M18,12H6c-1.66,0-3,1.34-3,3v1.5c0,0.41,0.34,0.75,0.75,0.75H4.5V18c0,0.83,0.67,1.5,1.5,1.5s1.5-0.67,1.5-1.5 v-0.75h9V18c0,0.83,0.67,1.5,1.5,1.5s1.5-0.67,1.5-1.5v-0.75h0.75c0.41,0,0.75-0.34,0.75-0.75V15C21,13.34,19.66,12,18,12 M9.08,7.5 h5.83c0.46,0,0.84,0.34,0.84,0.75c0,0.41-0.37,0.75-0.84,0.75H9.08C8.62,9,8.25,8.66,8.25,8.25C8.25,7.84,8.62,7.5,9.08,7.5 M6.75,10.5h10.5c0.41,0,0.75-0.34,0.75-0.75v-4.5c0-0.41-0.34-0.75-0.75-0.75H6.75C6.34,4.5,6,4.84,6,5.25v4.5 C6,10.16,6.34,10.5,6.75,10.5"/></svg>