<svg viewBox="0 0 24 24" fill="#44739e" xmlns="http://www.w3.org/2000/svg"><title>hue:room-outdoors</title><desc>Source: https://github.com/arallsopp/hass-hue-icons</desc><path d="M8.25,7.5c2.9,0,5.25,2.35,5.25,5.25c0,2.66-1.98,4.85-4.55,5.2v2.3C8.95,20.66,8.62,21,8.2,21 c-0.41,0-0.75-0.34-0.75-0.75v-2.32C4.93,17.55,3,15.38,3,12.75C3,9.85,5.35,7.5,8.25,7.5z M21,14.51c0,2.44-1.78,2.71-3.75,2.74v3 c0,0.41-0.34,0.75-0.75,0.75s-0.75-0.34-0.75-0.75v-3.01c-0.39,0-0.77-0.02-1.12-0.06c-0.54-0.06-0.8-0.66-0.54-1.14 c0.55-0.97,0.87-2.1,0.87-3.3c0-1.62-0.58-3.11-1.54-4.27c-0.08-0.1-0.11-0.23-0.07-0.36C14.3,5.38,15.57,3,16.5,3 C18.19,3,21,10.88,21,14.51z"/></svg>