<svg viewBox="0 0 24 24" height="24px" width="24px" fill="#44739e" xmlns="http://www.w3.org/2000/svg"><title>hue:room-stairs</title><desc>Source: https://github.com/arallsopp/hass-hue-icons</desc><path d="M 20.25 21 L 8.558594 21 L 21 8.558594 L 21 20.25 C 21 20.664062 20.664062 21 20.25 21 Z M 17.25 3 L 21 3 L 21 6.441406 L 6.441406 21 L 3 21 L 3 17.25 C 3 16.835938 3.335938 16.5 3.75 16.5 L 7.5 16.5 L 7.5 12.75 C 7.5 12.335938 7.835938 12 8.25 12 L 12 12 L 12 8.25 C 12 7.835938 12.335938 7.5 12.75 7.5 L 16.5 7.5 L 16.5 3.75 C 16.5 3.335938 16.835938 3 17.25 3 Z M 17.25 3 "/></svg>