<svg viewBox="0 0 24 24" fill="#44739e" xmlns="http://www.w3.org/2000/svg"><title>hue:single-spot</title><desc>Source: https://github.com/arallsopp/hass-hue-icons</desc><path d="M19.13,16.83c-0.58,1.67-1.77,2.77-2.66,2.45c-0.89-0.32-1.14-1.93-0.56-3.6c0.58-1.67,1.77-2.76,2.66-2.45 C19.46,13.55,19.71,15.16,19.13,16.83 M19.7,12.06L11.25,9.2V7.78c1.69-0.05,3.34-0.26,4.62-0.62c1.21-0.35,1.9-0.79,2.08-1.24 C17.99,5.84,18,5.76,18,5.68V5.11c0-0.08-0.01-0.15-0.05-0.23c-0.18-0.47-0.93-0.92-2.21-1.28c-2.91-0.8-7.57-0.8-10.48,0 C3.97,3.96,3.23,4.41,3.05,4.88C3.02,4.96,3,5.03,3,5.11v0.57c0,0.08,0.02,0.16,0.05,0.23C3.23,6.37,3.91,6.8,5.13,7.16 c1.29,0.37,2.93,0.58,4.62,0.62v1.43c-0.89,0.45-1.88,1.61-2.45,3.04c-0.84,2.09-0.7,4.11,0.31,4.51l8.94,4.16 c1.33,0.47,3.11-1.14,3.98-3.58S21.03,12.53,19.7,12.06"/></svg>