<svg viewBox="0 0 24 24" height="24px" width="24px" fill="#44739e" xmlns="http://www.w3.org/2000/svg"><title>hue:single-spot</title><desc>Source: https://github.com/arallsopp/hass-hue-icons</desc><path d="M 19.132812 16.832031 C 18.554688 18.503906 17.359375 19.597656 16.46875 19.28125 C 15.578125 18.960938 15.328125 17.347656 15.910156 15.679688 C 16.492188 14.011719 17.683594 12.917969 18.574219 13.234375 C 19.464844 13.554688 19.714844 15.164062 19.132812 16.832031 M 19.695312 12.0625 L 11.25 9.195312 L 11.25 7.78125 C 12.941406 7.734375 14.585938 7.523438 15.871094 7.15625 C 17.085938 6.804688 17.773438 6.367188 17.953125 5.917969 C 17.988281 5.84375 18 5.761719 18 5.683594 L 18 5.109375 C 18 5.03125 17.988281 4.957031 17.953125 4.878906 C 17.769531 4.410156 17.023438 3.957031 15.738281 3.601562 C 12.824219 2.800781 8.164062 2.800781 5.257812 3.601562 C 3.96875 3.957031 3.230469 4.410156 3.046875 4.878906 C 3.015625 4.957031 3 5.03125 3 5.109375 L 3 5.683594 C 3 5.761719 3.015625 5.84375 3.046875 5.917969 C 3.226562 6.367188 3.914062 6.804688 5.132812 7.15625 C 6.417969 7.523438 8.058594 7.734375 9.75 7.78125 L 9.75 9.210938 C 8.859375 9.664062 7.867188 10.816406 7.296875 12.25 C 6.460938 14.34375 6.601562 16.363281 7.609375 16.761719 L 16.546875 20.917969 C 17.878906 21.386719 19.660156 19.78125 20.53125 17.335938 C 21.402344 14.890625 21.027344 12.527344 19.695312 12.0625 "/></svg>