<svg viewBox="0 0 24 24" fill="#44739e" xmlns="http://www.w3.org/2000/svg"><title>hue:table-shade</title><desc>Source: https://github.com/arallsopp/hass-hue-icons</desc><path d="M14.16,5.77c-1.18,0.3-3.12,0.3-4.3,0C8.7,5.47,8.73,4.99,9.91,4.71c1.16-0.29,3.03-0.29,4.19,0 C15.28,4.99,15.32,5.47,14.16,5.77 M18.71,11.2l-2.03-6.93L16.66,4.2c-0.19-0.43-1.11-0.85-2.75-1.07c-1.25-0.17-2.52-0.17-3.77,0 C8.51,3.35,7.59,3.76,7.41,4.2L7.37,4.31L5.29,11.2c-0.03,0.1-0.05,0.2-0.04,0.3c0.17,1.14,2.23,2.06,6,2.17v3.6 c-1.83,0.1-3.3,0.54-3.66,1.11c-0.06,0.09-0.09,0.19-0.09,0.28v0.94c0,0.78,2.02,1.41,4.5,1.41c2.48,0,4.5-0.63,4.5-1.41v-0.94 c0-0.7-1.62-1.27-3.75-1.39v-3.6c3.77-0.11,5.82-1.03,5.99-2.17C18.76,11.4,18.74,11.3,18.71,11.2"/></svg>