<svg viewBox="0 0 24 24" fill="#44739e" xmlns="http://www.w3.org/2000/svg"><title>hue:table-wash</title><desc>Source: https://github.com/arallsopp/hass-hue-icons</desc><path d="M16.07,12.12c-1.2-0.98-2.3-2.1-3.26-3.33c-2.96-3.8-1.91-5.08,1.89-2.02c1.24,1,2.36,2.14,3.34,3.41 C21.04,14.07,19.8,15.15,16.07,12.12 M21,12.95c0-0.06,0-0.12,0-0.18c0-0.42-0.18-1-0.57-1.72c-1.27-2.39-4.23-5.42-6.57-6.72 c-0.66-0.37-1.19-0.55-1.59-0.57c-0.05-0.01-0.09-0.01-0.14,0C12.09,3.75,12.05,3.75,12,3.75c-3.38,0-9,5.75-9,9.2 c0,3.2,1.59,6.01,4.01,7.66C7.39,20.86,7.83,21,8.28,21h6.19c0.47,0,0.93-0.15,1.32-0.43C18.47,18.61,21,15.26,21,12.95"/></svg>