<svg viewBox="0 0 24 24" fill="#44739e" xmlns="http://www.w3.org/2000/svg"><title>hue:wall-lantern</title><desc>Source: https://github.com/arallsopp/hass-hue-icons</desc><path d="M16.33,18.41c-0.99-0.32-2.43-0.32-3.41,0l-0.82-5.82c1.61,0.2,3.44,0.2,5.05,0L16.33,18.41z M19.19,9.57 c-1.17-0.35-2.7-0.54-4.25-0.56C14.58,6.46,12.39,4.5,9.75,4.5c-1.16,0-2.22,0.38-3.09,1.02C6.6,5.03,6.52,4.57,6.4,4.17 C6.21,3.5,5.97,3.12,5.72,3.03C5.68,3.01,5.63,3,5.59,3H4.16C4.12,3,4.07,3.01,4.03,3.03c-0.26,0.1-0.5,0.51-0.7,1.22 c-0.44,1.6-0.44,4.16,0,5.76c0.2,0.71,0.44,1.12,0.7,1.21c0.04,0.02,0.09,0.03,0.13,0.03h1.43c0.04,0,0.09-0.01,0.13-0.03 c0.25-0.1,0.49-0.48,0.68-1.14c0.21-0.75,0.33-1.72,0.34-2.7C7.45,6.48,8.53,5.9,9.75,5.9c1.88,0,3.44,1.35,3.78,3.13 c-1.27,0.07-2.49,0.24-3.47,0.54c-2.47,0.75-2.39,1.93,0.12,2.65c0.11,0.03,0.25,0.05,0.37,0.09l1.08,7.68 c0.09,0.34,0.62,0.75,1.86,0.93c0.38,0.05,0.76,0.08,1.14,0.08c0.38,0,0.77-0.03,1.14-0.08c1.23-0.18,1.74-0.59,1.86-0.93l1.08-7.69 c0.12-0.03,0.25-0.05,0.37-0.09C21.58,11.5,21.66,10.31,19.19,9.57z"/></svg>