<svg viewBox="0 0 24 24" fill="#44739e" xmlns="http://www.w3.org/2000/svg"><title>hue:wall-spot</title><desc>Source: https://github.com/arallsopp/hass-hue-icons</desc><path d="M17.54,16.14c-1.43,1.04-3.05,1.26-3.61,0.48c-0.56-0.78,0.14-2.25,1.57-3.29c1.43-1.04,3.04-1.26,3.61-0.48 C19.68,13.62,18.97,15.09,17.54,16.14 M20.71,12.45l-6.56-7.5c-0.67-0.87-2.65-0.43-4.41,0.98c-1.76,1.41-2.7,3.51-2.02,4.38 l0.66,0.94H6.73C6.69,10.34,6.58,9.47,6.4,8.78C6.21,8.05,5.96,7.63,5.72,7.53C5.68,7.51,5.63,7.5,5.59,7.5H4.16 c-0.04,0-0.09,0.01-0.13,0.03c-0.26,0.11-0.5,0.56-0.7,1.33c-0.44,1.75-0.44,4.54,0,6.29c0.2,0.77,0.44,1.22,0.7,1.33 c0.04,0.02,0.09,0.03,0.13,0.03h1.43c0.04,0,0.09-0.01,0.13-0.03c0.25-0.11,0.49-0.52,0.68-1.25c0.18-0.69,0.29-1.56,0.33-2.47h2.7 l3.71,5.3c0.83,1.16,3.2,0.85,5.29-0.7C20.52,15.81,21.54,13.61,20.71,12.45"/></svg>