<svg viewBox="0 0 24 24" fill="#44739e" xmlns="http://www.w3.org/2000/svg"><title>hue:wall-shade</title><desc>Source: https://github.com/arallsopp/hass-hue-icons</desc><path d="M16.4,5.77c-1.18,0.3-3.11,0.3-4.3,0c-1.16-0.3-1.12-0.78,0.05-1.07c1.16-0.29,3.03-0.29,4.19,0 C17.52,4.99,17.56,5.47,16.4,5.77 M20.96,11.06l-2.03-6.82l-0.02-0.07c-0.19-0.43-1.11-0.83-2.75-1.05c-1.25-0.17-2.52-0.17-3.77,0 c-1.64,0.22-2.55,0.62-2.74,1.05L9.62,4.29l-2.08,6.77c-0.03,0.09-0.05,0.2-0.04,0.3c0.17,1.11,2.17,2,5.84,2.12 c-0.49,1.74-2.09,3.02-3.99,3.02c-0.99,0-1.9-0.35-2.61-0.93c-0.03-1.07-0.14-2.12-0.34-2.93c-0.19-0.79-0.43-1.24-0.68-1.35 c-0.04-0.02-0.09-0.03-0.13-0.03H4.16c-0.04,0-0.09,0.01-0.13,0.03c-0.26,0.12-0.5,0.6-0.7,1.44c-0.44,1.89-0.44,4.92,0,6.81 c0.2,0.84,0.44,1.32,0.7,1.44C4.07,20.99,4.12,21,4.16,21h1.43c0.04,0,0.09-0.01,0.13-0.03c0.25-0.12,0.49-0.56,0.68-1.36 c0.16-0.65,0.26-1.44,0.31-2.27C7.5,17.76,8.4,18,9.35,18c2.73,0,5-1.94,5.53-4.51c3.84-0.09,5.95-1,6.11-2.14 C21.01,11.26,20.99,11.16,20.96,11.06"/></svg>