<svg
    xmlns="http://www.w3.org/2000/svg"
    viewBox="0 0 24 24"
    height="24px"
    width="24px">
    <path d="m 18.751533,17.880838 c -1.745745,1.273362 -3.717604,1.537921 -4.403268,0.591368 -0.684749,-0.94747 0.175764,-2.746288 1.921509,-4.01965 1.745744,-1.273362 3.717604,-1.537921 4.403268,-0.592283 0.685665,0.948385 -0.174849,2.747203 -1.921509,4.020565 m 3.86682,-4.499335 -8.005526,-9.1607006 C 13.790761,3.1598204 11.381323,3.6971774 9.2300377,5.4209304 7.0769219,7.1437684 5.9390296,9.7088014 6.7592638,10.769784 l 0.8019265,1.145202 H 5.5536292 C 5.5060262,10.807317 5.3732874,9.7445024 5.1499201,8.8968154 4.9137364,8.0079334 4.6207955,7.5026164 4.3187002,7.3726254 4.2692662,7.3488254 4.2152554,7.3378354 4.1612444,7.3378354 H 2.4164151 c -0.053096,0 -0.1034448,0.01098 -0.1574557,0.03479 -0.3139961,0.133653 -0.6160914,0.680164 -0.8559368,1.623972 -0.5373635,2.1311196 -0.5373635,5.5438396 0,7.6722116 0.2398454,0.943808 0.5419407,1.486658 0.8559368,1.62031 0.054011,0.0238 0.1043602,0.03387 0.1574557,0.03387 h 1.7448293 c 0.054011,0 0.108022,-0.01007 0.1574558,-0.03387 0.3020953,-0.12999 0.5950362,-0.635308 0.8312199,-1.527851 0.2233673,-0.846772 0.3551908,-1.90867 0.4037091,-3.015424 h 3.2900923 l 4.5277685,6.465681 c 1.013392,1.418916 3.905268,1.039012 6.459347,-0.846772 2.553163,-1.885784 3.800908,-4.565246 2.787516,-5.983246"/>
</svg>
