<svg viewBox="0 0 24 24" height="24px" width="24px" fill="#44739e" xmlns="http://www.w3.org/2000/svg"><title>hue:bollard</title><desc>Source: https://github.com/arallsopp/hass-hue-icons</desc><path d="M 15.75 9.375 C 15.75 9.996094 14.070312 10.5 12 10.5 C 9.929688 10.5 8.25 9.996094 8.25 9.375 L 8.25 6.222656 C 8.25 6.039062 8.449219 5.941406 8.601562 6.039062 C 9.199219 6.421875 10.496094 6.75 12 6.75 C 13.503906 6.75 14.800781 6.421875 15.398438 6.039062 C 15.550781 5.941406 15.75 6.039062 15.75 6.222656 Z M 10.007812 3.957031 C 11.207031 3.679688 13.046875 3.679688 14.164062 3.957031 C 15.300781 4.242188 15.285156 4.71875 14.078125 5.019531 C 12.851562 5.328125 10.890625 5.328125 9.757812 5.019531 C 8.648438 4.71875 8.78125 4.242188 10.007812 3.957031 Z M 15.246094 3.359375 C 14.414062 3.121094 13.304688 3 12.171875 3 C 11.046875 3 9.90625 3.121094 9.007812 3.359375 C 8.015625 3.621094 7.5 3.984375 7.5 4.34375 L 7.5 19.761719 C 7.5 20.0625 7.875 20.363281 8.640625 20.601562 C 9.496094 20.863281 10.648438 21 11.828125 21 C 13.003906 21 14.199219 20.863281 15.121094 20.601562 C 16.042969 20.339844 16.5 19.996094 16.5 19.65625 L 16.5 4.238281 C 16.5 3.914062 16.078125 3.601562 15.246094 3.359375 Z M 15.246094 3.359375 "/></svg>