<svg viewBox="0 0 24 24" height="24px" width="24px" fill="#44739e" xmlns="http://www.w3.org/2000/svg"><title>hue:bulb-group-bollard</title><desc>Source: https://github.com/arallsopp/hass-hue-icons</desc><path d="M19.65,9.31c0,0.62-1.68,1.12-3.75,1.12s-3.75-0.5-3.75-1.12V6.16c0-0.18,0.2-0.28,0.35-0.18c0.6,0.38,1.89,0.71,3.4,0.71s2.8-0.33,3.4-0.71c0.15-0.1,0.35,0,0.35,0.18V9.31z M13.91,3.89c1.2-0.28,3.04-0.28,4.16,0c1.14,0.29,1.12,0.76-0.09,1.06c-1.23,0.31-3.19,0.31-4.32,0C12.55,4.65,12.68,4.18,13.91,3.89z M19.15,3.29c-0.83-0.24-1.94-0.36-3.07-0.36c-1.12,0-2.27,0.12-3.16,0.36c-0.99,0.26-1.51,0.62-1.51,0.98V19.7c0,0.3,0.38,0.6,1.14,0.84c0.86,0.26,2.01,0.4,3.19,0.4c1.18,0,2.37-0.14,3.29-0.4s1.38-0.61,1.38-0.95V4.17C20.4,3.85,19.98,3.54,19.15,3.29z M9.51,3.08L9.51,3.08C8.9,2.91,8.07,2.81,7.19,2.81c-0.88,0-1.72,0.1-2.38,0.27C4.03,3.29,3.6,3.59,3.6,3.93v11.44 c0,0.21,0.16,0.5,0.93,0.74c0.64,0.19,1.49,0.3,2.4,0.3c0.9,0,1.8-0.11,2.48-0.3c0.73-0.21,1.11-0.49,1.11-0.82V3.85 C10.53,3.54,10.18,3.28,9.51,3.08z M9.72,5.33v2.34c0,0.3-1.01,0.71-2.66,0.71S4.41,7.96,4.41,7.67V5.33c0-0.02,0.01-0.03,0.02-0.03 c0,0,0.01-0.01,0.02-0.01c0.01,0,0.02,0,0.03,0.01c0.51,0.33,1.55,0.55,2.59,0.55S9.14,5.62,9.65,5.3c0.02-0.02,0.04-0.01,0.05,0 C9.72,5.3,9.72,5.32,9.72,5.33z M8.64,3.77C9.08,3.88,9.16,4,9.16,4.03c0,0.04-0.11,0.17-0.59,0.29c-0.89,0.22-2.33,0.22-3.14,0 C5.05,4.21,4.96,4.1,4.96,4.07c0-0.03,0.11-0.18,0.65-0.3C6.48,3.57,7.83,3.57,8.64,3.77z"/></svg>