<svg viewBox="0 0 24 24" height="24px" width="24px" fill="#44739e" xmlns="http://www.w3.org/2000/svg"><title>hue:bulb-group-pillar-impress-3</title><desc>Source: https://github.com/arallsopp/hass-hue-icons</desc><path d="M15.36,9.85V2.18c0,0,0,0,0,0c0,0,0,0,0,0c0,0,0-0.01,0-0.01c0-0.09-0.03-0.17-0.08-0.25c-0.01-0.02-0.02-0.03-0.03-0.05 c-0.06-0.07-0.12-0.12-0.21-0.16c0,0-0.01-0.01-0.01-0.01l-2.86-1c-0.11-0.04-0.22-0.04-0.33,0l-2.87,1c0,0-0.01,0.01-0.01,0.01 C8.87,1.74,8.8,1.8,8.75,1.87C8.73,1.88,8.73,1.9,8.71,1.92C8.67,1.99,8.64,2.07,8.63,2.16c0,0,0,0.01,0,0.01c0,0,0,0,0,0 c0,0,0,0,0,0v7.67c0,0,0,0,0,0c0,0,0,0,0,0l0.01,11.9c0,0.21,0.13,0.4,0.33,0.47l2.87,1.07c0.06,0.02,0.12,0.03,0.17,0.03 c0.06,0,0.12-0.01,0.18-0.03l2.86-1.07c0.2-0.07,0.32-0.26,0.32-0.47L15.36,9.85z M14.36,9.5l-1.61,0.6V3.5l1.61-0.6V9.5z M11.25,3.5v6.6L9.63,9.5V2.9L11.25,3.5z M19.14,8.62V3.34c0,0,0,0,0,0c0,0,0,0,0,0c0,0,0,0,0-0.01c0-0.06-0.02-0.12-0.06-0.17c-0.01-0.01-0.01-0.02-0.02-0.03 c-0.04-0.05-0.09-0.09-0.14-0.11c0,0,0,0-0.01-0.01l-1.97-0.69c-0.07-0.03-0.15-0.03-0.23,0l-0.36,0.12v7.4l0.01,7.9l0.35,0.13 c0.04,0.01,0.08,0.02,0.12,0.02c0.04,0,0.08-0.01,0.12-0.02l1.97-0.74c0.13-0.05,0.22-0.18,0.22-0.32L19.14,8.62z M18.46,8.38 l-1.11,0.41V4.25l1.11-0.41V8.38z M7.63,9.85V2.41l0-0.01l0,0l-0.2-0.07C7.35,2.3,7.27,2.3,7.2,2.32L5.22,3.01c0,0,0,0-0.01,0C5.15,3.04,5.11,3.07,5.07,3.12 C5.06,3.13,5.05,3.14,5.05,3.16C5.01,3.21,4.99,3.26,4.99,3.33c0,0,0,0,0,0.01c0,0,0,0,0,0c0,0,0,0,0,0v5.28c0,0,0,0,0,0s0,0,0,0 l0.01,8.2c0,0.14,0.09,0.27,0.22,0.32l1.98,0.74c0.04,0.01,0.08,0.02,0.12,0.02c0.04,0,0.08-0.01,0.12-0.02l0.2-0.07L7.63,9.85z M6.8,8.8L5.68,8.38V3.83L6.8,4.25V8.8z"/></svg>