<svg viewBox="0 0 24 24" height="24px" width="24px" fill="#44739e" xmlns="http://www.w3.org/2000/svg"><title>hue:bulb-group-go-filament</title><desc>Source: https://github.com/arallsopp/hass-hue-icons</desc><path d="M17.84,9.54c0-0.06-0.09-0.16-0.27-0.2l-1.89-0.47c0.35,0.35,0.69,0.71,1.02,1.07l0.88-0.2 C17.75,9.69,17.84,9.6,17.84,9.54z M18.61,2.39c-2-0.72-4.24-0.13-5.6,1.48c-0.45,0.53-0.76,1.13-0.95,1.77c1.02,0.79,2.05,1.69,3.05,2.66 c-0.01-0.05-0.02-0.09-0.02-0.14c0-0.32,0.22-0.61,0.54-0.69l2.34-0.62C18,6.83,18.03,6.8,18.03,6.75c0-0.05-0.03-0.09-0.08-0.1 l-1.94-0.53c-0.4-0.07-0.7-0.4-0.73-0.8c0.03-0.4,0.33-0.73,0.73-0.8l2.04-0.5c0.17-0.04,0.34,0.07,0.38,0.23 c0.02,0.08,0.01,0.16-0.03,0.23c-0.04,0.07-0.11,0.12-0.2,0.14l-2.03,0.5c-0.16,0.05-0.26,0.14-0.26,0.2c0,0.06,0.09,0.16,0.27,0.2 l1.96,0.53c0.31,0.09,0.53,0.37,0.53,0.69c0,0.32-0.22,0.6-0.53,0.69L15.8,8.05c-0.04,0.01-0.08,0.05-0.08,0.09 c0,0.05,0.03,0.09,0.08,0.09l1.95,0.53c0.4,0.07,0.69,0.4,0.73,0.8c-0.03,0.4-0.33,0.73-0.73,0.8l-0.54,0.12 c0.53,0.6,1.02,1.19,1.48,1.78c0.11-0.01,0.22-0.01,0.33-0.02c0.43-0.8,1.13-1.06,1.99-2.29c0.07-0.09,0.13-0.19,0.2-0.29 l0.07-0.11c0.44-0.76,0.67-1.61,0.67-2.49l0,0C21.93,4.98,20.6,3.11,18.61,2.39z M16.58,16.64c-2.89-2.04-6.85-6-8.9-8.9C5.61,4.8,6.24,4,9.16,6.03c2.96,2.05,7.07,6.17,9.12,9.13 C20.31,18.07,19.52,18.71,16.58,16.64 M19.31,14.89C17.22,11.48,12.82,7.09,9.42,5C7.8,4.01,6.68,3.68,6.16,3.99 c-2.24,1.82-3.73,4.86-3.73,7.96c0,3.09,1.41,5.85,3.63,7.67H5.81c-0.62,0-1.12,0.5-1.12,1.12c0,0.62,0.51,1.12,1.12,1.12h5.9 c0.07,0,0.14-0.01,0.21-0.02c0.14,0.01,0.28,0.02,0.43,0.02c3.07,0,6.16-1.53,7.97-3.72C20.63,17.63,20.29,16.51,19.31,14.89"/></svg>