<svg viewBox="0 0 24 24" height="24px" width="24px" fill="#44739e" xmlns="http://www.w3.org/2000/svg"><title>hue:bulb-group-filament-filament-alt-hung</title><desc>Source: https://github.com/arallsopp/hass-hue-icons</desc><path d="M6.4,7C6.38,6.75,6.33,6.51,6.24,6.28C6.1,5.87,6.23,5.41,6.58,5.15l0.41-2.49c0.03-0.21,0.13-0.4,0.28-0.53 l0.45-0.4L7.8,1.64L8.27,1.1c0.18-0.22,0.46-0.34,0.74-0.34h0.7c0.28,0,0.56,0.12,0.74,0.34l0.47,0.54L11,1.72l0.45,0.4 c0.16,0.14,0.26,0.33,0.28,0.53l0.41,2.51c0.34,0.27,0.48,0.72,0.33,1.13c-0.09,0.23-0.14,0.47-0.15,0.72 c-1.06-0.12-2.12-0.18-3.19-0.18C8.29,6.85,7.34,6.9,6.4,7z M1.76,15.75c0-1.31,0.34-2.6,1.01-3.74l0.1-0.16 c0.09-0.15,0.19-0.3,0.29-0.44c1.29-1.85,2.34-2.25,2.99-3.45C7.14,7.85,8.12,7.8,9.11,7.8c1.16,0,2.31,0.07,3.46,0.21 c0.65,1.16,1.69,1.58,2.96,3.4c0.1,0.14,0.2,0.29,0.29,0.44l0.1,0.16c1.6,2.72,1.3,6.16-0.75,8.55c-2.07,2.42-5.43,3.3-8.42,2.22 C3.77,21.73,1.77,18.91,1.76,15.75L1.76,15.75z M7.46,15.21c-0.58,0.16-0.92,0.75-0.76,1.32c0.1,0.37,0.39,0.66,0.76,0.76l2.94,0.79 c0.27,0.07,0.41,0.21,0.41,0.3c0,0.09-0.14,0.22-0.39,0.3l-3.06,0.75c-0.12,0.03-0.23,0.1-0.29,0.21C7,19.75,6.99,19.88,7.02,20 c0.07,0.25,0.32,0.4,0.57,0.35l3.07-0.75c0.6-0.1,1.05-0.6,1.1-1.21c-0.05-0.61-0.5-1.1-1.1-1.21l-2.92-0.8 c-0.07-0.02-0.12-0.08-0.11-0.15c0-0.07,0.05-0.13,0.11-0.14l3.52-0.93c0.48-0.12,0.81-0.55,0.81-1.04c0-0.49-0.33-0.92-0.81-1.05 l-2.94-0.74c-0.27-0.07-0.41-0.21-0.41-0.3s0.14-0.22,0.39-0.3l2.96-0.68c0.26-0.02,0.45-0.25,0.42-0.51 c-0.02-0.26-0.25-0.45-0.51-0.42c0,0-0.01,0-0.01,0h-0.11L8.06,10.8c-0.6,0.1-1.05,0.6-1.1,1.21c0.05,0.6,0.5,1.09,1.09,1.2 L10.98,14c0.07,0.01,0.12,0.07,0.11,0.14c0,0.07-0.05,0.13-0.11,0.14L7.46,15.21z M19.39,14.38c0-0.06-0.04-0.11-0.1-0.11 l-1.56-0.37c0.06,0.31,0.11,0.62,0.14,0.93l1.42-0.33C19.34,14.48,19.39,14.43,19.39,14.38z M19.13,17.76 c0-0.07-0.13-0.19-0.37-0.24l-0.98-0.23c-0.06,0.33-0.14,0.66-0.24,0.98L18.78,18C19.01,17.94,19.13,17.83,19.13,17.76z M15.57,8.71 c0.76-0.07,1.51-0.12,2.18-0.12c0.85,0,1.7,0.05,2.54,0.14c0.01-0.2,0.05-0.39,0.12-0.57c0.11-0.33,0.01-0.69-0.26-0.9l-0.33-2 c-0.02-0.16-0.1-0.31-0.23-0.42l-0.36-0.32l-0.07-0.07l-0.37-0.43c-0.15-0.17-0.36-0.27-0.59-0.27h-0.56 c-0.23,0-0.44,0.09-0.59,0.27l-0.37,0.43l-0.07,0.07l-0.36,0.32c-0.13,0.11-0.21,0.26-0.23,0.42l-0.33,1.98 c-0.27,0.21-0.38,0.57-0.26,0.9C15.52,8.32,15.56,8.52,15.57,8.71z M19.88,9.43c-0.3-0.02-1.28-0.07-1.92-0.08 c-0.71-0.01-2.06,0.04-2.14,0.04l-0.06,0l-0.13,0.51c0.23,0.27,0.47,0.57,0.72,0.93c0.1,0.13,0.21,0.3,0.31,0.47l0.1,0.15 c0.04,0.07,0.07,0.15,0.11,0.22l2.47-0.5h0.1c0.22-0.03,0.43,0.11,0.48,0.33c0.01,0.21-0.15,0.4-0.37,0.41c0,0-0.01,0-0.01,0 l-2.32,0.47c0.1,0.22,0.18,0.45,0.26,0.68l2.06,0.46c0.41,0.07,0.71,0.42,0.73,0.83c-0.02,0.41-0.32,0.76-0.73,0.83l-1.62,0.38 c0.01,0.32,0.01,0.65-0.02,0.97L19,16.8c0.51,0.05,0.92,0.45,0.99,0.96c-0.07,0.51-0.48,0.91-0.99,0.96l-1.75,0.38 c-0.3,0.69-0.69,1.33-1.16,1.91c0.39,0.12,0.79,0.19,1.19,0.2c0.23,0.1,0.47,0.17,0.72,0.2c0.22-0.03,0.44-0.1,0.65-0.2 c1-0.01,1.96-0.39,2.7-1.05c1.35-1.15,0.76-3.29,0.76-3.29l-1.94-7.41C20.08,9.44,19.98,9.44,19.88,9.43z"/></svg>