<svg viewBox="0 0 24 24" height="24px" width="24px" fill="#44739e" xmlns="http://www.w3.org/2000/svg"><title>hue:bulb-group-bollard-3</title><desc>Source: https://github.com/arallsopp/hass-hue-icons</desc><path d="M22.46,9.44c0,0.62-1.68,1.12-3.75,1.12s-3.75-0.5-3.75-1.12V6.29c0-0.18,0.2-0.28,0.35-0.18c0.6,0.38,1.89,0.71,3.4,0.71 s2.8-0.33,3.4-0.71c0.15-0.1,0.35,0,0.35,0.18V9.44z M16.71,4.02c1.2-0.28,3.04-0.28,4.16,0c1.14,0.29,1.12,0.76-0.09,1.06 c-1.23,0.31-3.19,0.31-4.32,0C15.35,4.78,15.49,4.3,16.71,4.02z M21.95,3.42c-0.83-0.24-1.94-0.36-3.07-0.36 c-1.12,0-2.27,0.12-3.16,0.36c-0.99,0.26-1.51,0.62-1.51,0.98v15.42c0,0.3,0.38,0.6,1.14,0.84c0.86,0.26,2.01,0.4,3.19,0.4 c1.18,0,2.37-0.14,3.29-0.4s1.38-0.61,1.38-0.95V4.3C23.21,3.98,22.78,3.66,21.95,3.42 M12.44,3.21L12.44,3.21c-0.61-0.18-1.43-0.27-2.32-0.27c-0.88,0-1.72,0.1-2.38,0.27C6.96,3.41,6.53,3.72,6.53,4.06V15.5 c0,0.21,0.16,0.5,0.93,0.74c0.64,0.19,1.49,0.3,2.4,0.3c0.9,0,1.8-0.11,2.48-0.3c0.73-0.21,1.11-0.49,1.11-0.82V3.98 C13.46,3.67,13.12,3.41,12.44,3.21z M12.65,5.45v2.34c0,0.3-1.01,0.71-2.66,0.71S7.34,8.09,7.34,7.79V5.45 c0-0.02,0.01-0.03,0.02-0.03c0,0,0.01-0.01,0.02-0.01c0.01,0,0.02,0,0.03,0.01C7.92,5.75,8.96,5.97,10,5.97s2.08-0.22,2.59-0.55 c0.02-0.02,0.04-0.01,0.05,0C12.65,5.43,12.65,5.45,12.65,5.45z M11.57,3.89C12.01,4,12.1,4.13,12.1,4.15 c0,0.04-0.11,0.17-0.59,0.29c-0.89,0.22-2.33,0.22-3.14,0C7.98,4.34,7.9,4.23,7.9,4.2c0-0.03,0.11-0.18,0.65-0.3 C9.41,3.69,10.77,3.69,11.57,3.89z M5.07,3.19l-0.01,0c-0.45-0.13-1.04-0.2-1.68-0.2c-0.64,0-1.25,0.07-1.73,0.2c-0.61,0.16-0.93,0.4-0.93,0.69v8.25 c0,0.25,0.24,0.46,0.73,0.61c0.47,0.14,1.09,0.22,1.75,0.22c0.65,0,1.31-0.08,1.81-0.22c0.57-0.16,0.86-0.39,0.86-0.67V3.81 C5.86,3.55,5.6,3.34,5.07,3.19z M5.13,4.96v1.61C5.13,6.69,4.5,7,3.29,7S1.45,6.69,1.45,6.56v-1.6c0.4,0.22,1.12,0.37,1.84,0.37 C4.01,5.32,4.73,5.18,5.13,4.96z M5.13,4.88C5.13,4.88,5.13,4.88,5.13,4.88h0.08H5.13z M1.88,3.97c0.04-0.03,0.15-0.09,0.39-0.15 c0.61-0.14,1.57-0.14,2.15,0c0.18,0.04,0.26,0.09,0.3,0.12C4.67,3.97,4.57,4.02,4.36,4.07c-0.63,0.16-1.65,0.16-2.23,0 C1.99,4.03,1.91,3.99,1.88,3.97z"/></svg>