<svg viewBox="0 0 24 24" height="24px" width="24px" fill="#44739e" xmlns="http://www.w3.org/2000/svg"><title>hue:bulb-filament-hung</title><desc>Source: https://github.com/arallsopp/hass-hue-icons</desc><path d="M15.27,7.04c0.01-0.25,0.06-0.49,0.15-0.72c0.14-0.41,0.01-0.86-0.33-1.13l-0.41-2.49 c-0.03-0.21-0.13-0.4-0.28-0.53l-0.45-0.4l-0.09-0.08L13.4,1.15c-0.18-0.22-0.45-0.34-0.74-0.34h-0.7c-0.29,0-0.56,0.12-0.74,0.34 l-0.47,0.54l-0.09,0.08l-0.45,0.4C10.06,2.31,9.96,2.5,9.94,2.71L9.53,5.22C9.18,5.49,9.05,5.94,9.2,6.35 c0.09,0.23,0.14,0.47,0.15,0.72c1.06-0.12,2.12-0.18,3.19-0.18C13.37,6.9,14.32,6.95,15.27,7.04z M19.91,15.79 c0-1.31-0.34-2.6-1.01-3.74l-0.1-0.16c-0.09-0.15-0.19-0.3-0.29-0.44c-1.29-1.85-2.34-2.25-2.99-3.45 c-0.98-0.11-1.97-0.16-2.95-0.16c-1.16,0-2.31,0.07-3.46,0.21c-0.65,1.16-1.69,1.58-2.96,3.4c-0.1,0.14-0.2,0.29-0.29,0.44 l-0.1,0.16c-1.6,2.72-1.3,6.14,0.75,8.55c2.05,2.41,5.42,3.3,8.42,2.22C17.91,21.76,19.91,18.94,19.91,15.79L19.91,15.79z M14.21,15.26c0.47,0.13,0.8,0.56,0.8,1.04c0,0.48-0.33,0.91-0.8,1.04l-2.94,0.79c-0.27,0.07-0.41,0.21-0.41,0.3 c0,0.09,0.14,0.22,0.39,0.3l3.06,0.75c0.12,0.03,0.23,0.1,0.29,0.21c0.06,0.11,0.08,0.23,0.05,0.35c-0.07,0.25-0.32,0.4-0.57,0.35 l-3.07-0.75c-0.6-0.11-1.06-0.6-1.1-1.21c0.04-0.6,0.5-1.1,1.1-1.21l2.92-0.8c0.07-0.02,0.12-0.08,0.11-0.15 c0-0.07-0.05-0.13-0.11-0.14l-3.52-0.93c-0.48-0.12-0.81-0.55-0.81-1.04c0-0.49,0.33-0.92,0.81-1.05l2.94-0.74 c0.27-0.07,0.41-0.21,0.41-0.3s-0.14-0.22-0.39-0.3l-2.96-0.68c-0.26-0.03-0.45-0.26-0.42-0.52c0.03-0.26,0.26-0.44,0.53-0.42h0.11 l2.98,0.68c0.6,0.11,1.06,0.6,1.1,1.21c-0.05,0.6-0.5,1.08-1.09,1.2l-2.93,0.79c-0.07,0.01-0.12,0.07-0.11,0.14 c0,0.07,0.05,0.13,0.11,0.14L14.21,15.26z"/></svg>