<svg viewBox="0 0 24 24" height="24px" width="24px" fill="#44739e" xmlns="http://www.w3.org/2000/svg"><title>hue:bulb-filament</title><desc>Source: https://github.com/arallsopp/hass-hue-icons</desc><path d="m15.272 17.051c0.01282 0.24621 0.06409 0.48895 0.1519 0.7198 0.14412 0.40822 0.01092 0.86159-0.33229 1.131l-0.40824 2.4865c-0.02582 0.20584-0.12713 0.3953-0.28482 0.53278l-0.44622 0.40195-0.08545 0.08419-0.46521 0.54214c-0.18286 0.21615-0.45486 0.33977-0.74054 0.33649h-0.70256c-0.28568 0.0033-0.55768-0.12034-0.74054-0.33649l-0.46521-0.54214-0.08545-0.08419-0.44622-0.40195c-0.15769-0.13748-0.25899-0.32694-0.28482-0.53278l-0.40824-2.5145c-0.34321-0.26953-0.47641-0.7228-0.33229-1.1311 0.089529-0.23029 0.1408-0.47331 0.1519-0.71971 1.0593 0.11688 2.1242 0.17616 3.19 0.17756 0.83548 0 1.7849-0.0561 2.7343-0.14956zm4.6332-8.7494c0.0033 1.3117-0.34378 2.6012-1.0065 3.7391l-0.10444 0.15883c-0.09494 0.14956-0.18988 0.29921-0.29432 0.43941-1.2912 1.8508-2.345 2.2528-2.9906 3.4493-0.98055 0.10639-1.9662 0.15939-2.9526 0.15892-1.1551 7.49e-4 -2.3092-0.0679-3.4558-0.20566-0.6456-1.1591-1.6899-1.5797-2.9621-3.4025-0.10443-0.1402-0.19938-0.28985-0.29432-0.43941l-0.10443-0.15883c-1.6039-2.7224-1.305-6.1423 0.74785-8.5548 2.0528-2.4125 5.4201-3.3014 8.4233-2.2235 3.0033 1.0779 4.9997 3.8918 4.9941 7.0392zm-5.6965 0.53278c0.47214-0.13336 0.7975-0.55853 0.7975-1.0422 0-0.48371-0.32536-0.90888-0.7975-1.0422l-2.9432-0.79463c-0.26583-0.065368-0.40824-0.20556-0.40824-0.29912 0-0.093464 0.14241-0.22429 0.38926-0.29912l3.0571-0.7478c0.12295-0.026222 0.22938-0.10142 0.29413-0.20762 0.06475-0.1062 0.08193-0.23403 0.04766-0.35325-0.065414-0.24668-0.31634-0.39914-0.56964-0.34585l-3.0666 0.7478c-0.60278 0.10882-1.0553 0.60423-1.1013 1.2058 0.042818 0.60311 0.49682 1.1002 1.1013 1.2058l2.9242 0.8039c0.06883 0.017513 0.11621 0.079603 0.11393 0.14956 0.0014 0.067709-0.04652 0.12671-0.11393 0.14029l-3.5223 0.93473c-0.48011 0.1209-0.81364 0.54973-0.80699 1.0377-0.0042723 0.48904 0.32745 0.91928 0.80699 1.0469l2.9432 0.73844c0.26583 0.06546 0.40824 0.20566 0.40824 0.29912 0 0.09346-0.14241 0.22439-0.38926 0.29912l-2.9621 0.68243c-0.26213 0.02838-0.45135 0.26063-0.42249 0.51873 0.028862 0.2582 0.26479 0.44437 0.52692 0.416h0.11393l2.9811-0.68234c0.60278-0.10882 1.0553-0.60424 1.1013-1.2058-0.04908-0.59524-0.49597-1.0849-1.0918-1.1966l-2.9337-0.79453c-0.06969-0.0096-0.11962-0.071174-0.11393-0.14019-0.0014-0.06771 0.04652-0.12671 0.11393-0.1402z"/></svg>