<svg viewBox="0 0 24 24" height="24px" width="24px" fill="#44739e" xmlns="http://www.w3.org/2000/svg"><title>hue:bulb-group-classic</title><desc>Source: https://github.com/arallsopp/hass-hue-icons</desc><path d="M14.38,16.05l0.29,1.83c0.02,0.13,0.08,0.25,0.18,0.34l0.27,0.25c0.02,0.02,0.04,0.03,0.05,0.05l0.29,0.34 c0.11,0.14,0.28,0.21,0.46,0.21h0.43c0.18,0,0.35-0.08,0.46-0.21l0.29-0.34c0.02-0.02,0.03-0.04,0.05-0.05l0.27-0.25 c0.1-0.09,0.16-0.21,0.18-0.34l0.29-1.83c-0.61,0.06-1.29,0.08-1.77,0.08S14.99,16.11,14.38,16.05z M16.15,4.93c-0.43,0-0.83,0.09-1.22,0.21c0.5,0.83,0.8,1.77,0.8,2.74c0,0.21-0.03,0.39-0.05,0.54 c-0.01,0.05-0.02,0.11-0.02,0.19c-0.03,0.23-0.07,0.42-0.11,0.62c-0.01,0.02-0.01,0.05-0.02,0.07l-0.27,0.9c0,0,0,0.01,0,0.01 c0.29,0.01,0.58,0.02,0.9,0.02c2,0,3.36-0.31,4-0.58c0.03-0.14,0.06-0.26,0.08-0.41c0.02-0.16,0.05-0.31,0.05-0.48 C20.28,6.89,18.42,4.93,16.15,4.93z M15.01,10.78c-0.25,0.52-0.53,0.94-0.78,1.33c-0.2,0.29-0.37,0.55-0.5,0.82c0.02,0.08,0.05,0.16,0.06,0.25 c0.08,0.48,0.15,1.16,0.1,1.65c-0.03,0.31,0.21,0.59,0.53,0.62c0.51,0.05,1.09,0.09,1.73,0.09c0.65,0,1.23-0.03,1.73-0.09 c0.31-0.03,0.55-0.31,0.53-0.62c-0.05-0.49,0.02-1.17,0.1-1.65c0.19-1.11,0.97-1.64,1.42-2.82c-1.11,0.35-2.74,0.47-3.79,0.47 C15.82,10.82,15.42,10.8,15.01,10.78z M4.65,9.91c1.41,0.45,3.48,0.59,4.82,0.59s3.41-0.14,4.82-0.59c-0.57,1.51-1.57,2.18-1.81,3.59 c-0.11,0.61-0.19,1.47-0.13,2.1c0.04,0.4-0.27,0.75-0.67,0.79c-0.65,0.07-1.38,0.11-2.21,0.11s-1.56-0.04-2.21-0.11 C6.86,16.35,6.56,16,6.6,15.6c0.06-0.63-0.03-1.49-0.13-2.1C6.23,12.09,5.23,11.42,4.65,9.91z M7.22,17.15 c0.78,0.07,1.64,0.1,2.25,0.1s1.47-0.03,2.25-0.1l-0.38,2.33c-0.02,0.16-0.1,0.32-0.23,0.43l-0.35,0.32 c-0.02,0.02-0.05,0.04-0.07,0.07l-0.37,0.44C10.2,20.9,9.98,21,9.75,21H9.2c-0.23,0-0.45-0.1-0.59-0.27l-0.37-0.44 c-0.02-0.02-0.04-0.05-0.07-0.07l-0.35-0.32c-0.12-0.11-0.21-0.27-0.23-0.43L7.22,17.15z M9.47,3c2.89,0,5.25,2.5,5.25,4.88 c0,0.21-0.04,0.41-0.06,0.61c-0.02,0.19-0.06,0.35-0.1,0.53c-0.82,0.35-2.55,0.74-5.09,0.74S5.2,9.36,4.38,9.01 c-0.04-0.18-0.07-0.34-0.1-0.53c-0.02-0.2-0.06-0.39-0.06-0.61C4.22,5.5,6.58,3,9.47,3z"/></svg>