<svg viewBox="0 0 24 24" height="24px" width="24px" fill="#44739e" xmlns="http://www.w3.org/2000/svg"><title>hue:bulb-group-filament</title><desc>Source: https://github.com/arallsopp/hass-hue-icons</desc><path d="M18.13919,17.00312a2.37106,2.37106,0,0,0,.1519.7198,1.00914,1.00914,0,0,1-.33229,1.131l-.40824,2.4865a.847.847,0,0,1-.28482.53278l-.44622.40195-.08545.08419-.46521.54215a.9556.9556,0,0,1-.74054.33649h-.70256a.95553.95553,0,0,1-.74054-.33649L13.62,22.35934l-.08545-.08419-.44622-.40195a.847.847,0,0,1-.28482-.53278l-.40824-2.5145a1.0093,1.0093,0,0,1-.33229-1.1311,2.26749,2.26749,0,0,0,.1519-.7197,29.43947,29.43947,0,0,0,3.19.17756C16.24037,17.15268,17.18979,17.09658,18.13919,17.00312Zm4.6332-8.7494a7.39034,7.39034,0,0,1-1.0065,3.7391l-.10444.15883c-.09494.14956-.18988.29921-.29432.43941-1.2912,1.8508-2.345,2.2528-2.9906,3.4493a27.25206,27.25206,0,0,1-2.9526.15892,28.81423,28.81423,0,0,1-3.4558-.20566c-.6456-1.1591-1.6899-1.5797-2.9621-3.4025-.10443-.1402-.19938-.28985-.29432-.43941l-.10443-.15883a7.38627,7.38627,0,0,1,.74785-8.5548,7.67188,7.67188,0,0,1,8.4233-2.2235,7.4846,7.4846,0,0,1,4.9941,7.0392Zm-5.6965.53278a1.07974,1.07974,0,0,0,0-2.0844l-2.9432-.79463c-.26583-.06537-.40824-.20556-.40824-.29912,0-.09346.14241-.22429.38926-.29912l3.0571-.7478a.45539.45539,0,0,0,.29413-.20762.44279.44279,0,0,0,.04766-.35325.48462.48462,0,0,0-.56964-.34585l-3.0666.7478a1.33511,1.33511,0,0,0-1.1013,1.2058,1.32553,1.32553,0,0,0,1.1013,1.2058l2.9242.8039a.14993.14993,0,0,1,.11393.14956.14078.14078,0,0,1-.11393.14029l-3.5223.93473a1.05921,1.05921,0,0,0-.807,1.0377,1.07772,1.07772,0,0,0,.807,1.0469l2.9432.73844c.26583.06546.40824.20566.40824.29912s-.14241.22439-.38926.29912l-2.9621.68243a.47033.47033,0,1,0,.10443.93473h.11393l2.9811-.68234a1.33512,1.33512,0,0,0,1.1013-1.2058,1.33525,1.33525,0,0,0-1.0918-1.1966l-2.9337-.79453a.13133.13133,0,0,1-.11393-.14019.14061.14061,0,0,1,.11393-.1402 M5.24011,9.77106a.10172.10172,0,0,0,.0882.10858l1.53308.41522A8.3892,8.3892,0,0,1,6.68292,9.303l-1.35461.3595A.10891.10891,0,0,0,5.24011,9.77106Z M5.46063,6.47766c0,.07245.11023.181.3161.23163l.93543.25256A8.35765,8.35765,0,0,1,6.922,5.96228L5.762,6.246C5.57086,6.304,5.46063,6.40527,5.46063,6.47766Z M8.18555,13.16406c-.09864-.13281-.20606-.30029-.3125-.46826l-.10157-.1543c-.04077-.06909-.06555-.14318-.10418-.213-.026.00678-.04785.02179-.07465.02661l-2.30841.52838H5.196a.3642.3642,0,1,1-.08087-.72381l2.21936-.51135c-.081-.183-.15881-.36548-.22613-.552l-1.99329-.50012a.83447.83447,0,0,1-.62488-.81061.82015.82015,0,0,1,.62488-.80352L6.6123,8.58472a8.41553,8.41553,0,0,1,.00763-.887L5.57825,7.41132a1.02642,1.02642,0,0,1-.85279-.93372,1.03393,1.03393,0,0,1,.85279-.93372l1.60754-.392a8.37393,8.37393,0,0,1,1.2367-2.12513A5.93183,5.93183,0,0,0,2.07727,4.79712a5.71935,5.71935,0,0,0-.579,6.62427l.08081.123c.07355.11585.1471.23169.22791.34027.9851,1.4115,1.79376,1.73719,2.2937,2.63471a22.32626,22.32626,0,0,0,2.676.15924,21.11059,21.11059,0,0,0,2.28626-.123c.032-.05945.069-.11041.10363-.16522A11.98606,11.98606,0,0,1,8.18555,13.16406Z M8.87909,15.301c-.73511.07238-1.47028.11578-2.11725.11578a22.79844,22.79844,0,0,1-2.47015-.13745,1.75375,1.75375,0,0,1-.11762.55725.7816.7816,0,0,0,.25733.87585l.3161,1.94709a.65572.65572,0,0,0,.22058.41253l.34552.31128.06616.06519.36023.4198a.73987.73987,0,0,0,.57343.26056h.544a.74017.74017,0,0,0,.57343-.26056l.36023-.4198.06616-.06519.34552-.31128a.65572.65572,0,0,0,.22058-.41253l.3161-1.92536a.78137.78137,0,0,0,.25726-.87579A1.83678,1.83678,0,0,1,8.87909,15.301Z"/></svg>