<svg viewBox="0 0 24 24" height="24px" width="24px" fill="#44739e" xmlns="http://www.w3.org/2000/svg"><title>hue:bulb-group-pillar-impress</title><desc>Source: https://github.com/arallsopp/hass-hue-icons</desc><path d="M10.29,8.62V3.33c0,0,0,0,0,0c0,0,0,0,0,0c0,0,0,0,0-0.01c0-0.06-0.02-0.12-0.06-0.17c-0.01-0.01-0.01-0.02-0.02-0.03 c-0.04-0.05-0.09-0.09-0.14-0.11c0,0,0,0-0.01-0.01L8.09,2.32c-0.07-0.03-0.15-0.03-0.23,0L5.88,3.01c0,0,0,0-0.01,0 C5.82,3.04,5.77,3.07,5.73,3.12C5.72,3.13,5.72,3.14,5.71,3.16C5.68,3.21,5.66,3.26,5.65,3.33c0,0,0,0,0,0.01c0,0,0,0,0,0 c0,0,0,0,0,0v5.28c0,0,0,0,0,0c0,0,0,0,0,0l0.01,8.2c0,0.14,0.09,0.27,0.22,0.32l1.98,0.74c0.04,0.01,0.08,0.02,0.12,0.02 c0.04,0,0.08-0.01,0.12-0.02l1.97-0.74c0.13-0.05,0.22-0.18,0.22-0.32L10.29,8.62z M9.6,8.38L8.49,8.79V4.25L9.6,3.83V8.38z M7.46,4.25V8.8L6.34,8.38V3.83L7.46,4.25z M18.34,9.85V2.18c0,0,0,0,0,0c0,0,0,0,0,0c0,0,0-0.01,0-0.01c0-0.09-0.03-0.17-0.08-0.25c-0.01-0.02-0.02-0.03-0.03-0.05 c-0.06-0.07-0.12-0.12-0.21-0.16c0,0-0.01-0.01-0.01-0.01l-2.86-1c-0.11-0.04-0.22-0.04-0.33,0l-2.87,1c0,0-0.01,0.01-0.01,0.01 c-0.09,0.03-0.15,0.09-0.21,0.16c-0.01,0.02-0.02,0.03-0.03,0.05c-0.05,0.07-0.08,0.15-0.08,0.25c0,0,0,0.01,0,0.01c0,0,0,0,0,0 c0,0,0,0,0,0v7.67c0,0,0,0,0,0c0,0,0,0,0,0l0.01,11.9c0,0.21,0.13,0.4,0.33,0.47l2.87,1.07c0.06,0.02,0.12,0.03,0.17,0.03 c0.06,0,0.12-0.01,0.18-0.03l2.86-1.07c0.2-0.07,0.32-0.26,0.32-0.47L18.34,9.85z M17.34,9.5l-1.61,0.6V3.5l1.61-0.6V9.5z M14.23,3.5v6.6l-1.62-0.6V2.9L14.23,3.5z"/></svg>