<svg viewBox="0 0 24 24" height="24px" width="24px" fill="#44739e" xmlns="http://www.w3.org/2000/svg"><title>hue:bulb-group-filament-alt-filament-hung</title><desc>Source: https://github.com/arallsopp/hass-hue-icons</desc><path d="M8.66,23.29c0.3,0,0.81-0.25,0.81-0.25s1.69,0.12,3.39-1.32c1.7-1.44,0.95-4.14,0.95-4.14l-2.43-9.31 c-0.12-0.01-0.24-0.02-0.36-0.03c-0.37-0.02-1.61-0.09-2.41-0.1c-0.9-0.01-2.59,0.05-2.69,0.05c-0.03,0-0.05,0-0.08,0.01 l-2.41,9.18c0,0-0.88,2.68,0.66,4.18c1.53,1.49,3.66,1.48,3.66,1.48S8.36,23.29,8.66,23.29L8.66,23.29z M6.22,20.66 c-0.2-0.03-0.38-0.16-0.43-0.35c-0.04-0.12-0.02-0.25,0.05-0.35c0.07-0.11,0.19-0.18,0.33-0.21L9.64,19 c0.28-0.07,0.44-0.21,0.44-0.3c0-0.09-0.16-0.23-0.46-0.3l-3.33-0.79c-0.54-0.13-0.9-0.56-0.9-1.04c0-0.48,0.37-0.91,0.9-1.04 l3.99-0.94c0.08-0.01,0.13-0.07,0.13-0.14c0.01-0.07-0.05-0.13-0.13-0.14l-3.32-0.79c-0.68-0.11-1.18-0.6-1.24-1.2 c0.05-0.6,0.56-1.1,1.25-1.21l3.38-0.68h0.13c0.3-0.03,0.56,0.16,0.6,0.42c0.03,0.26-0.18,0.49-0.48,0.52l-3.36,0.68 c-0.28,0.07-0.44,0.21-0.44,0.3s0.16,0.23,0.46,0.3l3.34,0.74c0.54,0.13,0.92,0.56,0.91,1.05c0.01,0.49-0.37,0.92-0.91,1.04 l-3.99,0.94c-0.08,0.01-0.13,0.07-0.13,0.14c0,0.07,0.05,0.13,0.13,0.15l3.31,0.8c0.69,0.11,1.2,0.6,1.25,1.21 c-0.05,0.6-0.56,1.1-1.25,1.21l-3.47,0.75C6.36,20.67,6.29,20.67,6.22,20.66L6.22,20.66z M11.52,7.37 c0.01-0.25,0.06-0.49,0.15-0.72c0.14-0.41,0.01-0.86-0.33-1.13L10.93,3c-0.03-0.21-0.13-0.39-0.29-0.53l-0.45-0.4l-0.08-0.08 L9.65,1.44C9.47,1.22,9.2,1.1,8.91,1.1h-0.7c-0.29,0-0.56,0.12-0.74,0.34L7,1.98L6.92,2.07l-0.45,0.4C6.31,2.61,6.21,2.79,6.19,3 L5.78,5.49C5.43,5.76,5.3,6.21,5.45,6.62C5.53,6.85,5.58,7.09,5.6,7.34c0.95-0.09,1.9-0.15,2.73-0.15 C9.4,7.19,10.46,7.25,11.52,7.37L11.52,7.37z M13.26,7.22c0.88-0.1,1.76-0.15,2.65-0.15c0.69,0.01,1.48,0.05,2.27,0.12c0.01-0.21,0.05-0.41,0.12-0.6 c0.12-0.34,0.01-0.71-0.27-0.94l-0.34-2.07c-0.02-0.17-0.11-0.33-0.23-0.44l-0.37-0.33L17,2.76l-0.38-0.45 C16.47,2.13,16.25,2.03,16,2.03h-0.58c-0.24,0-0.46,0.1-0.61,0.28l-0.39,0.45l-0.07,0.07l-0.37,0.33 c-0.12,0.12-0.21,0.27-0.22,0.45l-0.34,2.08c-0.29,0.22-0.4,0.6-0.27,0.94C13.21,6.81,13.25,7.01,13.26,7.22 M11,10.68c-0.01-0.02-0.03-0.03-0.04-0.05C10.97,10.65,10.99,10.66,11,10.68z M17.06,14.98c0.06-0.02,0.1-0.07,0.09-0.12c0-0.06-0.04-0.11-0.09-0.12l-2.92-0.77 c-0.1-0.02-0.18-0.06-0.26-0.11l0.49,1.89c0.09-0.04,0.17-0.08,0.27-0.1L17.06,14.98z M10.87,10.54c-0.01-0.01-0.02-0.01-0.02-0.02c0,0,0,0,0,0C10.85,10.54,10.86,10.54,10.87,10.54z M21.18,11.35l-0.08-0.13c-0.07-0.12-0.16-0.25-0.24-0.37c-1.07-1.54-1.94-1.87-2.48-2.86 c-0.81-0.09-1.63-0.13-2.45-0.13c-0.96,0-1.92,0.06-2.87,0.17c-0.15,0.27-0.33,0.49-0.52,0.7l1.04,3.97 c0.11-0.22,0.31-0.4,0.56-0.47l2.44-0.61c0.22-0.06,0.34-0.17,0.34-0.25c0-0.07-0.12-0.18-0.32-0.25l-2.46-0.56 c-0.22-0.02-0.37-0.22-0.35-0.43c0.02-0.22,0.22-0.37,0.44-0.35h0.09l2.47,0.56c0.5,0.09,0.88,0.5,0.91,1c-0.04,0.5-0.41,0.9-0.9,1 L14.37,13c-0.06,0.01-0.1,0.06-0.09,0.12c0,0.06,0.04,0.11,0.09,0.12l2.92,0.79c0.39,0.11,0.66,0.46,0.66,0.86 c0,0.4-0.27,0.76-0.66,0.86l-2.44,0.66c-0.14,0.04-0.22,0.09-0.27,0.15l0.07,0.26c0.05,0.03,0.11,0.07,0.19,0.1l2.54,0.62 c0.1,0.02,0.19,0.08,0.24,0.17c0.05,0.09,0.07,0.19,0.04,0.29c-0.06,0.21-0.27,0.33-0.47,0.29l-2.32-0.57 c0.11,0.59,0.23,1.73-0.13,2.87c1.04,0.16,2.12,0.09,3.15-0.28c2.47-0.88,4.13-3.22,4.13-5.83C22.02,13.37,21.74,12.3,21.18,11.35z "/></svg>