<svg viewBox="0 0 24 24" height="24px" width="24px" fill="#44739e" xmlns="http://www.w3.org/2000/svg"><title>hue:bulb-classic-hung</title><desc>Source: https://github.com/arallsopp/hass-hue-icons</desc><path d="M16.82,14.09c-1.41-0.45-3.48-0.59-4.82-0.59s-3.41,0.14-4.82,0.59c0.57-1.51,1.57-2.18,1.81-3.59 C9.1,9.89,9.18,9.03,9.12,8.4C9.09,8,9.39,7.65,9.79,7.61C10.44,7.54,11.18,7.5,12,7.5s1.56,0.04,2.21,0.11 c0.4,0.04,0.7,0.39,0.67,0.79c-0.06,0.63,0.03,1.49,0.13,2.1C15.25,11.91,16.24,12.58,16.82,14.09z M14.25,6.85 c-0.78-0.07-1.64-0.1-2.25-0.1s-1.47,0.03-2.25,0.1l0.38-2.33c0.02-0.16,0.1-0.32,0.23-0.43l0.35-0.32 c0.02-0.02,0.05-0.04,0.07-0.07l0.37-0.44C11.28,3.1,11.5,3,11.73,3h0.55c0.23,0,0.45,0.1,0.59,0.27l0.37,0.44 c0.02,0.02,0.04,0.05,0.07,0.07l0.35,0.32c0.12,0.11,0.21,0.27,0.23,0.43L14.25,6.85z M12,21c-2.89,0-5.25-2.5-5.25-4.88 c0-0.21,0.04-0.41,0.06-0.61c0.02-0.19,0.06-0.35,0.1-0.53c0.82-0.35,2.55-0.74,5.09-0.74s4.27,0.39,5.09,0.74 c0.04,0.18,0.07,0.34,0.1,0.53c0.02,0.2,0.06,0.39,0.06,0.61C17.25,18.5,14.89,21,12,21z"/></svg>