<svg viewBox="0 0 24 24" height="24px" width="24px" fill="#44739e" xmlns="http://www.w3.org/2000/svg"><title>hue:bulb-group-golfball-e14</title><desc>Source: https://github.com/arallsopp/hass-hue-icons</desc><path d="M15.3,6.3c2.9,0,4.9,0.1,6.4,0.2c-0.1-2.8-1.1-5.6-6.7-5.6C9.4,0.8,8.4,3.7,8.3,6.5C10,6.4,12.3,6.3,15.3,6.3 M15.3,7.3c-3,0-5.3,0.1-7,0.3c0.2,2.2,1.3,5.4,3.1,7.5c0.3,0.4,0.6,0.7,0.9,1c0,0,0.6,0.2,2.7,0.2s2.7-0.2,2.7-0.2 c0.3-0.3,0.6-0.6,0.9-1c1.8-2.1,2.9-5.4,3.1-7.6C20.2,7.4,18.2,7.3,15.3,7.3z M18,17.1c-0.9,0.1-1.9,0.2-2.7,0.2c-1.1,0-2.1-0.1-3.2-0.2c0,0.2-0.1,0.5-0.2,0.7c-0.1,0.4,0,0.9,0.3,1.1l0.4,2.5 c0,0.2,0.1,0.4,0.3,0.5l0.4,0.4l0.1,0.1l0.5,0.5c0.2,0.2,0.5,0.3,0.7,0.3h0.7c0.3,0,0.6-0.1,0.7-0.3l0.5-0.5l0.1-0.1l0.4-0.4 c0.2-0.1,0.3-0.3,0.3-0.5l0.4-2.5c0.3-0.3,0.5-0.7,0.3-1.1C18,17.6,18,17.4,18,17.1z M7.7,15.4c1.7,0,2.2-0.2,2.2-0.2c0.1-0.1,0.2-0.2,0.2-0.3c-1.5-2.2-2.4-4.9-2.7-6.8c-2.1,0-3.9,0.1-5.1,0.2 c0.1,1.8,1.1,4.4,2.5,6.1C5,14.8,5.3,15,5.5,15.3C5.5,15.3,6,15.4,7.7,15.4z M7.3,7l0-0.4l0,0l0-0.1C7.3,5.1,7.6,4,8.1,3C8,3,7.9,3,7.7,3C3.2,2.9,2.4,5.3,2.3,7.6c1.2-0.1,2.9-0.2,5-0.2L7.3,7z M10.1,16.1c-0.7,0.1-1.5,0.2-2.2,0.2c-0.9,0-1.7-0.1-2.6-0.2c0,0.2-0.1,0.4-0.2,0.6c-0.1,0.3,0,0.7,0.2,0.9l0.3,2 c0,0.2,0.1,0.3,0.2,0.4l0.3,0.3l0.1,0.1l0.4,0.4C7,20.9,7.2,21,7.4,21h0.6c0.2,0,0.5-0.1,0.6-0.2l0.4-0.4L9,20.3l0.3-0.3 c0.2-0.1,0.2-0.2,0.2-0.4l0.3-2c0.2-0.2,0.4-0.6,0.2-0.9C10.1,16.5,10.1,16.3,10.1,16.1z"/></svg>