<svg viewBox="0 0 24 24" height="24px" width="24px" fill="#44739e" xmlns="http://www.w3.org/2000/svg"><title>hue:bulb-group-candle</title><desc>Source: https://github.com/arallsopp/hass-hue-icons</desc><path d="M19.83356,12.5108C19.53583,7.60065,16.93921.84552,15.17719.84552c-1.76685,0-4.35865,6.75513-4.65638,11.66528a17.98484,17.98484,0,0,0,4.65638.5174A17.98481,17.98481,0,0,0,19.83356,12.5108 M12.83435,19.4856l.3905,2.32812a.66559.66559,0,0,0,.23426.42957l.36609.31726a.87771.87771,0,0,1,.06829.0683l.38562.43927a.80056.80056,0,0,0,.61011.26843h.57593a.80056.80056,0,0,0,.61011-.26843l.38562-.43927a.88835.88835,0,0,1,.06829-.0683l.36609-.31726a.66559.66559,0,0,0,.23426-.42957L17.52,19.4856c-.81024.07318-1.70831.10247-2.34283.10247S13.64459,19.55878,12.83435,19.4856Z M15.17719,13.96527a21.05106,21.05106,0,0,1-4.68561-.4978v.122A6.776,6.776,0,0,0,12.112,18.45081a21.51759,21.51759,0,0,0,3.06519.20013,21.51691,21.51691,0,0,0,3.06518-.20013,6.776,6.776,0,0,0,1.62048-4.86133v-.122A21.05191,21.05191,0,0,1,15.17719,13.96527Z M4.94635,17.3363l.3056,1.82245a.521.521,0,0,0,.18341.33618l.28656.24836a.70007.70007,0,0,1,.05347.05346l.30182.34387a.62676.62676,0,0,0,.4776.21015h.45081a.6267.6267,0,0,0,.4776-.21015l.30181-.34387a.7019.7019,0,0,1,.05347-.05346l.28656-.24836a.521.521,0,0,0,.18341-.33618l.3056-1.82245c-.63421.05732-1.33715.0802-1.83386.0802C6.28357,17.4165,5.58057,17.39362,4.94635,17.3363Z M6.78021,2.74542c-1.383,0-3.4118,5.28772-3.64483,9.13123a14.07521,14.07521,0,0,0,3.64483.405,16.20513,16.20513,0,0,0,2.773-.21869,24.64931,24.64931,0,0,1,.45746-2.96088C9.29572,5.89679,7.84491,2.74542,6.78021,2.74542Z M9.49121,12.81476a18.86744,18.86744,0,0,1-2.711.20044,16.47507,16.47507,0,0,1-3.66778-.38971V12.721a5.30388,5.30388,0,0,0,1.26843,3.8053,16.83978,16.83978,0,0,0,2.39935.15667,16.84,16.84,0,0,0,2.39936-.15667,3.4927,3.4927,0,0,0,.53918-.7229,10.66076,10.66076,0,0,1-.22754-2.21357Z"/></svg>