<svg viewBox="0 0 24 24" height="24px" width="24px" fill="#44739e" xmlns="http://www.w3.org/2000/svg"><title>hue:bulb-group-filament-hung</title><desc>Source: https://github.com/arallsopp/hass-hue-icons</desc><path d="M13.84,7.13C14.63,7.05,15.43,7,16.12,7c0.89,0,1.78,0.05,2.66,0.15c0.01-0.21,0.05-0.41,0.13-0.6 c0.12-0.34,0.01-0.72-0.28-0.94l-0.34-2.1c-0.02-0.17-0.11-0.33-0.24-0.44l-0.37-0.34l-0.07-0.07l-0.39-0.45 c-0.15-0.18-0.38-0.28-0.62-0.28h-0.59c-0.24,0-0.46,0.1-0.62,0.28l-0.39,0.45l-0.07,0.07l-0.37,0.34 c-0.13,0.11-0.22,0.27-0.24,0.44l-0.34,2.08c-0.29,0.22-0.4,0.6-0.28,0.94C13.79,6.72,13.83,6.92,13.84,7.13z M17.53,16.64c0-0.08-0.12-0.2-0.34-0.25l-0.32-0.09c-0.02,0.23-0.05,0.46-0.09,0.69l0.42-0.1 C17.41,16.83,17.53,16.72,17.53,16.64z M17.76,13.09c0-0.06-0.04-0.11-0.1-0.12l-1.4-0.38c0.12,0.3,0.21,0.6,0.3,0.91l1.11-0.29 C17.72,13.2,17.76,13.15,17.76,13.09z M21.8,11.31l-0.09-0.13c-0.08-0.12-0.16-0.25-0.25-0.37c-1.06-1.52-1.93-1.87-2.47-2.84 c-0.96-0.11-1.92-0.17-2.88-0.17c-0.82,0-1.65,0.04-2.46,0.13c-0.12,0.22-0.26,0.41-0.41,0.59c0.06,0.06,0.11,0.11,0.17,0.17 c0.44,0.42,0.98,0.95,1.56,1.71c0.08-0.04,0.17-0.08,0.26-0.09l2.49-0.57h0.1c0,0,0.01,0,0.01,0c0.22-0.02,0.41,0.14,0.43,0.35 c0.02,0.22-0.14,0.41-0.35,0.43l-2.44,0.56c0.05,0.07,0.1,0.15,0.15,0.22l0.13,0.2c0.03,0.06,0.06,0.12,0.09,0.18l2.08,0.52 c0.4,0.1,0.68,0.46,0.67,0.87c0,0.41-0.28,0.77-0.67,0.87l-1.16,0.31c0.08,0.41,0.12,0.83,0.13,1.24l0.53,0.14 c0.5,0.08,0.88,0.5,0.92,1.01c-0.04,0.51-0.42,0.92-0.92,1.01l-0.77,0.19c-0.25,0.98-0.7,1.91-1.3,2.76 c2.16,0.34,4.38-0.44,5.85-2.15C22.89,16.45,23.14,13.58,21.8,11.31z M5.34,7C5.32,6.75,5.27,6.51,5.19,6.28C5.04,5.87,5.18,5.41,5.52,5.14l0.41-2.49c0.03-0.21,0.13-0.4,0.28-0.53 l0.45-0.4l0.09-0.08L7.21,1.1c0.18-0.22,0.46-0.34,0.74-0.34h0.7c0.28,0,0.56,0.12,0.74,0.34l0.47,0.54l0.09,0.08l0.45,0.4 c0.16,0.14,0.26,0.33,0.28,0.53l0.41,2.51c0.34,0.27,0.48,0.72,0.33,1.13c-0.09,0.23-0.14,0.47-0.15,0.72 C10.2,6.91,9.14,6.85,8.07,6.85C7.24,6.85,6.29,6.9,5.34,7z M0.7,15.74c0-1.31,0.34-2.6,1.01-3.74l0.1-0.16 c0.09-0.15,0.19-0.3,0.29-0.44C3.4,9.56,4.45,9.15,5.1,7.96C6.08,7.85,7.07,7.8,8.05,7.8c1.16,0,2.31,0.07,3.46,0.21 c0.65,1.16,1.69,1.58,2.96,3.4c0.1,0.14,0.2,0.29,0.29,0.44l0.1,0.16c1.6,2.72,1.3,6.16-0.75,8.55c-2.07,2.42-5.43,3.3-8.42,2.22 C2.71,21.73,0.71,18.91,0.7,15.74L0.7,15.74z M6.4,15.21c-0.58,0.16-0.92,0.75-0.76,1.32c0.1,0.37,0.39,0.66,0.76,0.76l2.94,0.79 c0.27,0.07,0.41,0.21,0.41,0.3c0,0.09-0.14,0.22-0.39,0.3l-3.06,0.75c-0.12,0.03-0.23,0.1-0.29,0.21C5.95,19.75,5.93,19.88,5.96,20 c0.07,0.25,0.32,0.4,0.57,0.35L9.6,19.6c0.6-0.1,1.05-0.6,1.1-1.21c-0.05-0.61-0.5-1.1-1.1-1.21l-2.92-0.8 c-0.07-0.02-0.12-0.08-0.11-0.15c0-0.07,0.05-0.13,0.11-0.14l3.52-0.93c0.48-0.12,0.81-0.55,0.81-1.04c0-0.49-0.33-0.92-0.81-1.05 l-2.94-0.74c-0.27-0.07-0.41-0.21-0.41-0.3s0.14-0.22,0.39-0.3l2.96-0.68c0.26-0.02,0.45-0.25,0.42-0.51 c-0.02-0.26-0.25-0.45-0.51-0.42c0,0-0.01,0-0.01,0H9.98L7,10.8c-0.6,0.1-1.05,0.6-1.1,1.21c0.05,0.6,0.5,1.09,1.09,1.2L9.92,14 c0.07,0.01,0.12,0.07,0.11,0.14c0,0.07-0.05,0.13-0.11,0.14L6.4,15.21z"/></svg>