<svg viewBox="0 0 24 24" height="24px" width="24px" fill="#44739e" xmlns="http://www.w3.org/2000/svg"><title>hue:bulb-group-pillar-impress-short</title><desc>Source: https://github.com/arallsopp/hass-hue-icons</desc><path d="M10.2,2.59c-0.01-0.07-0.03-0.14-0.08-0.22l-0.03-0.04C10.05,2.27,9.99,2.23,9.92,2.2L6.96,1.16c-0.1-0.04-0.21-0.04-0.32,0 L3.7,2.18L3.67,2.19C3.6,2.22,3.54,2.27,3.49,2.33C3.48,2.35,3.47,2.36,3.46,2.38C3.42,2.45,3.39,2.52,3.38,2.59l0,13.37 c0,0.2,0.13,0.38,0.31,0.45l2.94,1.09c0.05,0.02,0.11,0.03,0.17,0.03c0.06,0,0.11-0.01,0.17-0.03l2.92-1.09 c0.19-0.07,0.31-0.25,0.31-0.45V2.66L10.2,2.59z M9.24,3.32v6.82l-1.7,0.64V3.96L9.24,3.32z M6.05,3.96v6.83l-1.71-0.64V3.32 L6.05,3.96z M20.5,2.55C20.5,2.54,20.49,2.54,20.5,2.55c-0.01-0.1-0.04-0.18-0.08-0.26c-0.01-0.02-0.02-0.03-0.03-0.05 c-0.06-0.07-0.12-0.12-0.21-0.16c0,0-0.01-0.01-0.01-0.01l-4.12-1.44c-0.11-0.04-0.22-0.04-0.33,0l-4.15,1.44 c0,0-0.01,0.01-0.01,0.01c-0.09,0.03-0.15,0.09-0.21,0.16c-0.01,0.02-0.02,0.03-0.03,0.05c-0.05,0.07-0.08,0.15-0.08,0.25 c0,0,0,0.01,0,0.01c0,0,0,0,0,0c0,0,0,0,0,0v11.07v7.73c0,0.21,0.13,0.4,0.33,0.47l4.15,1.54c0.06,0.02,0.12,0.03,0.17,0.03 c0.06,0,0.12-0.01,0.18-0.03l4.12-1.54c0.2-0.07,0.33-0.26,0.33-0.47v-7.06v-0.67V2.55C20.5,2.55,20.49,2.55,20.5,2.55 C20.49,2.55,20.5,2.55,20.5,2.55z M15,4.3v10l-2.77-1.03v-10L15,4.3z M19.5,13.27l-2.75,1.03v-10l2.75-1.03V13.27z"/></svg>