<svg viewBox="0 0 24 24" height="24px" width="24px" fill="#44739e" xmlns="http://www.w3.org/2000/svg"><title>hue:ceiling-cher-semiflush</title><desc>Source: https://github.com/arallsopp/hass-hue-icons</desc><path d="M23.54,13.57c0-2.29-4.14-3.68-11.09-3.74V8.22c1.24-0.07,2.5-0.44,2.5-1.29V6.51c0-0.96-1.61-1.3-2.99-1.3 c-1.38,0-2.99,0.34-2.99,1.3v0.42c0,0.85,1.25,1.21,2.49,1.29v1.61c-6.89,0.07-11,1.45-11,3.74c0,0.14,0.01,0.28,0.03,0.41 c0,0.01,0,0.01,0.01,0.01c0.39,2.29,3.98,3.32,11.51,3.32c7.55,0,11.14-1.04,11.51-3.34c0-0.01,0.01-0.02,0.01-0.03 C23.53,13.82,23.54,13.69,23.54,13.57z M12,16.31c-6.5,0-10.02-0.8-10.49-2.37c0.37-0.46,2.86-1.55,10.49-1.55 c8.39,0,10.22,1.31,10.49,1.54C22.03,15.51,18.51,16.31,12,16.31z"/></svg>