<svg viewBox="0 0 24 24" height="24px" width="24px" fill="#44739e" xmlns="http://www.w3.org/2000/svg"><title>hue:ceiling-round</title><desc>Source: https://github.com/arallsopp/hass-hue-icons</desc><path d="m18.848 14.362c-3.6844 0.9-9.7359 0.9-13.423 0-3.6366-0.8875-3.525-2.3 0.15844-3.1562 3.6328-0.84375 9.4556-0.84375 13.092 0 3.6872 0.85625 3.8053 2.2687 0.1725 3.1562m4.4644-7.3589c-0.27375-0.66964-1.3922-1.3125-3.3253-1.8214-4.3669-1.1446-11.356-1.1446-15.715 0-1.9331 0.50893-3.045 1.1518-3.3188 1.8214-0.049688 0.11339-0.070312 0.22054-0.070312 0.33482v3.7946c0 0.11339 0.020625 2.9062 0.070312 3.0134 0.26719 0.64286 1.3013 1.2652 3.1284 1.767 4.4231 1.2134 11.687 1.2134 16.109 0 1.8206-0.50178 2.8547-1.1241 3.1219-1.767 0.04875-0.10714 0.07031-0.22143 0.07031-0.33482v-6.4732c0-0.11429-0.02156-0.22143-0.07031-0.33482"/></svg>