<svg viewBox="0 0 24 24" height="24px" width="24px" fill="#44739e" xmlns="http://www.w3.org/2000/svg"><title>hue:centris-three</title><desc>Source: https://github.com/arallsopp/hass-hue-icons</desc><path d="M23.5,13.1L22,11.6h0.3c0.1,0,0.3-0.1,0.3-0.2l0.4-1.3c0-0.1,0-0.1,0-0.2l-0.1-4.7c0-0.2-0.2-0.3-0.4-0.3h-22 C0.5,4.9,0.3,5,0.3,5.2l0,4.4l0.6,1.8c0.1,0.1,0.2,0.2,0.3,0.2l12.7,0l0,3.6c0,0.8,1,1.4,2.4,1.4c1.3,0,2.3-0.6,2.4-1.3l0-3.8 l-2.1,0c-0.1,0.3-0.1,0.7,0,1l0.1,0.1c0,0,2.3,2.6,2.9,3.4c0,0,0.1,0.1,0.1,0.1c0.3,0.3,0.7,0.5,1.2,0.5c0.7,0,1.2-0.2,1.8-0.8 C23.3,15.2,23.9,14.1,23.5,13.1z M10.3,10.7H1.8L1.6,9.9h8.8L10.3,10.7z M16.3,15.7c-0.8,0-1.4-0.3-1.4-0.6c0-0.3,0.6-0.6,1.4-0.6 s1.4,0.3,1.4,0.6C17.7,15.5,17.1,15.7,16.3,15.7z M22.5,14.1L22.5,14.1c-0.1,0.4-0.3,0.7-0.6,0.9c-0.3,0.3-0.7,0.4-1.1,0.5 c-0.1,0-0.2,0-0.3-0.1c-0.1-0.1-0.1-0.3,0-0.4c0.1-0.3,0.3-0.6,0.6-0.9c0.3-0.3,0.7-0.4,1.1-0.5c0.1,0,0.2,0,0.3,0.1 C22.5,13.9,22.5,14,22.5,14.1z M9.8,11.3c0.1,0.2,0.2,0.2,0.3,0.2h0.3L9,13.1c-0.4,1,0.1,2.1,0.8,2.8c0.6,0.6,1.2,0.7,1.8,0.8 c0.4,0,0.9-0.2,1.2-0.5c0,0,0.1-0.1,0.1-0.1c0.6-0.7,2.9-3.4,2.9-3.4l0.1-0.1c0.1-0.3,0.1-0.7,0-1l0.9,0 M10,13.7 c0.1-0.1,0.2-0.1,0.3-0.1c0.4,0,0.8,0.2,1.1,0.5c0.3,0.2,0.5,0.5,0.6,0.9c0.1,0.1,0,0.3,0,0.4c-0.1,0.1-0.2,0.1-0.3,0.1 c-0.4,0-0.8-0.2-1.1-0.5c-0.3-0.2-0.5-0.5-0.6-0.9l0,0C9.9,14,10,13.9,10,13.7z"/></svg>