<svg viewBox="0 0 24 24" height="24px" width="24px" fill="#44739e" xmlns="http://www.w3.org/2000/svg"><title>hue:double-spot</title><desc>Source: https://github.com/arallsopp/hass-hue-icons</desc><path d="m 21.68536,17.422387 c -0.497944,1.379861 -1.521367,2.284726 -2.283962,2.022369 -0.76336,-0.263887 -0.978294,-1.594796 -0.479586,-2.975422 0.498708,-1.379862 1.521366,-2.283962 2.284726,-2.021604 0.762596,0.263122 0.97753,1.594795 0.478822,2.974657 M 3.9605636,15.545347 c -0.48647,0.16904 -1.1389212,-0.413041 -1.4578804,-1.299548 -0.3189591,-0.886508 -0.1828087,-1.743185 0.3036614,-1.91146 0.48647,-0.169041 1.1396861,0.413805 1.4586452,1.300313 0.3189591,0.886507 0.1828087,1.741654 -0.3044262,1.910695 M 22.091516,13.435015 14.79829,11.047029 V 6.8890866 c 0.998181,-0.1009655 1.934407,-0.2409403 2.74978,-0.4245139 1.485416,-0.3373165 2.32909,-0.7549465 2.547083,-1.1855795 0.04054,-0.0719 0.05737,-0.1476238 0.05737,-0.2241128 v -0.549191 c 0,-0.075724 -0.01683,-0.1476238 -0.05737,-0.2241128 C 19.871805,3.8325862 18.960056,3.4019531 17.382088,3.0608122 13.819231,2.2928626 8.1169758,2.2928626 4.5602373,3.0608122 2.9830342,3.4019531 2.0758746,3.8325862 1.8525267,4.2815766 1.8127525,4.3580656 1.79516,4.4299653 1.79516,4.5056894 v 0.549191 c 0,0.076489 0.017592,0.1522131 0.057367,0.2241128 0.2179937,0.430633 1.0616674,0.848263 2.552438,1.1855795 0.8138429,0.1828087 1.7485385,0.3227835 2.7444253,0.423749 V 9.5470794 L 1.8708841,11.320094 c -0.8574417,0.296778 -1.09838203,1.802081 -0.5384825,3.360927 0.5598994,1.559611 1.7095291,2.582269 2.5669708,2.284726 L 9.6544048,14.315404 C 10.305326,14.06146 10.396348,12.774915 9.8571006,11.440947 9.5733264,10.737248 9.1296902,10.146753 8.67917,9.7765464 V 7.0076446 c 1.505304,0.084903 3.084036,0.085668 4.58934,7.649e-4 v 4.2336665 c -0.684577,0.449755 -1.392865,1.305667 -1.825792,2.350507 -0.718232,1.734005 -0.59738,3.40682 0.270771,3.737252 l 7.673376,3.44583 c 1.143511,0.386269 2.675585,-0.943875 3.422883,-2.970833 0.746532,-2.026194 0.424514,-3.982782 -0.718232,-4.369817"/></svg>