<svg viewBox="0 0 24 24" height="24px" width="24px" fill="#44739e" xmlns="http://www.w3.org/2000/svg"><title>hue:floor-spot</title><desc>Source: https://github.com/arallsopp/hass-hue-icons</desc><path d="M 16.3125 10.714844 C 15.417969 11.03125 14.214844 9.941406 13.632812 8.285156 C 13.046875 6.625 13.296875 5.027344 14.195312 4.710938 C 15.089844 4.394531 16.289062 5.480469 16.875 7.140625 C 17.460938 8.796875 17.207031 10.398438 16.3125 10.714844 M 18.277344 6.640625 C 17.402344 4.210938 15.609375 2.617188 14.273438 3.078125 L 5.367188 7.222656 C 4.351562 7.617188 4.207031 9.621094 5.046875 11.699219 C 5.890625 13.78125 7.621094 15.261719 8.636719 14.867188 L 9.753906 14.457031 L 9.753906 17.269531 C 7.558594 17.351562 5.792969 17.796875 5.359375 18.375 C 5.289062 18.464844 5.253906 18.5625 5.253906 18.65625 L 5.253906 19.59375 C 5.253906 20.371094 7.605469 21 10.503906 21 C 13.402344 21 15.75 20.371094 15.75 19.59375 L 15.75 18.65625 C 15.75 17.949219 13.792969 17.363281 11.253906 17.265625 L 11.253906 13.953125 L 17.4375 11.882812 C 18.777344 11.417969 19.152344 9.070312 18.277344 6.640625 "/></svg>