<svg viewBox="0 0 24 24" height="24px" width="24px" fill="#44739e" xmlns="http://www.w3.org/2000/svg"><title>hue:floor-lantern</title><desc>Source: https://github.com/arallsopp/hass-hue-icons</desc><path d="M 13.890625 9.734375 C 12.816406 9.367188 11.183594 9.367188 10.109375 9.734375 L 9.199219 3.464844 C 10.976562 3.683594 13.023438 3.683594 14.800781 3.46875 Z M 16.832031 0.550781 C 14.175781 -0.183594 9.816406 -0.183594 7.164062 0.550781 C 4.550781 1.273438 4.632812 2.421875 7.289062 3.121094 C 7.402344 3.148438 7.527344 3.171875 7.644531 3.199219 L 8.824219 11.324219 C 8.914062 11.644531 9.40625 12.023438 10.5 12.226562 L 10.5 21.199219 C 9.769531 21.316406 9.230469 21.511719 9.058594 21.746094 C 9.019531 21.796875 9 21.855469 9 21.910156 L 9 22.453125 C 9 22.90625 10.34375 23.273438 12 23.273438 C 13.65625 23.273438 15 22.90625 15 22.453125 L 15 21.910156 C 15 21.605469 14.394531 21.347656 13.5 21.203125 L 13.5 12.226562 C 14.589844 12.023438 15.0625 11.640625 15.175781 11.328125 L 16.355469 3.199219 C 16.472656 3.171875 16.601562 3.148438 16.714844 3.121094 C 19.367188 2.421875 19.449219 1.273438 16.832031 0.550781 Z M 16.832031 0.550781 "/></svg>