<svg viewBox="0 0 24 24" height="24px" width="24px" fill="#44739e" xmlns="http://www.w3.org/2000/svg"><title>hue:go</title><desc>Source: https://github.com/arallsopp/hass-hue-icons</desc><path d="M 17.152344 15.757812 C 14.257812 13.714844 10.300781 9.753906 8.253906 6.855469 C 6.179688 3.917969 6.8125 3.125 9.726562 5.148438 C 12.683594 7.199219 16.796875 11.316406 18.847656 14.277344 C 20.875 17.195312 20.085938 17.832031 17.152344 15.757812 M 19.875 14.015625 C 17.789062 10.605469 13.390625 6.207031 9.984375 4.121094 C 8.371094 3.132812 7.253906 2.800781 6.726562 3.113281 C 4.488281 4.929688 3 7.96875 3 11.078125 C 3 14.167969 4.414062 16.929688 6.628906 18.75 L 6.375 18.75 C 5.757812 18.75 5.25 19.253906 5.25 19.875 C 5.25 20.492188 5.757812 21 6.375 21 L 12.277344 21 C 12.351562 21 12.421875 20.992188 12.488281 20.976562 C 12.632812 20.984375 12.769531 21 12.914062 21 C 15.980469 21 19.070312 19.472656 20.886719 17.28125 C 21.199219 16.753906 20.863281 15.632812 19.875 14.015625 "/></svg>