<svg viewBox="0 0 24 24" height="24px" width="24px" fill="#44739e" xmlns="http://www.w3.org/2000/svg"><title>hue:gradient-lightstrip</title><desc>Source: https://github.com/arallsopp/hass-hue-icons</desc><path d="M6.3,12.5c0.4-0.1,0.8,0.2,0.9,0.6c0.1,0.4-0.2,0.8-0.6,0.9c-0.4,0.1-0.8-0.2-0.9-0.6C5.7,13,5.9,12.6,6.3,12.5 M10,11.7 c0.4-0.1,0.8,0.2,0.9,0.6c0.1,0.4-0.2,0.8-0.6,0.9c-0.4,0.1-0.8-0.2-0.9-0.6C9.3,12.2,9.6,11.8,10,11.7 M13.7,10.9 c0.4-0.1,0.8,0.2,0.9,0.6c0.1,0.4-0.2,0.8-0.6,0.9c-0.4,0.1-0.8-0.2-0.9-0.6C13,11.4,13.3,11,13.7,10.9 M17.3,10.1 c0.4-0.1,0.8,0.2,0.9,0.6c0.1,0.4-0.2,0.8-0.6,0.9c-0.4,0.1-0.8-0.2-0.9-0.6C16.7,10.6,16.9,10.2,17.3,10.1 M18.8,19.5 c-0.4,0-0.8-0.3-0.8-0.8s0.3-0.8,0.8-0.8s0.8,0.3,0.8,0.8S19.2,19.5,18.8,19.5 M15,19.5c-0.4,0-0.8-0.3-0.8-0.8S14.6,18,15,18 s0.8,0.3,0.8,0.8S15.4,19.5,15,19.5 M11.2,19.5c-0.4,0-0.8-0.3-0.8-0.8s0.3-0.8,0.8-0.8s0.8,0.3,0.8,0.8S11.7,19.5,11.2,19.5 M7.5,19.5c-0.4,0-0.8-0.3-0.8-0.8S7.1,18,7.5,18s0.8,0.3,0.8,0.8S7.9,19.5,7.5,19.5 M20.2,16.5H6.8c-3,0-3.8-2.2-3.8-3v3.8 C3,19.3,4.7,21,6.8,21h13.5c0.4,0,0.8-0.3,0.8-0.8v-3C21,16.8,20.7,16.5,20.2,16.5 M16.5,6c-0.4,0-0.8-0.3-0.8-0.8s0.3-0.8,0.8-0.8 s0.8,0.3,0.8,0.8S16.9,6,16.5,6 M12.8,6C12.3,6,12,5.7,12,5.2s0.3-0.8,0.8-0.8s0.8,0.3,0.8,0.8S13.2,6,12.8,6 M9,6 C8.6,6,8.2,5.7,8.2,5.2S8.6,4.5,9,4.5s0.8,0.3,0.8,0.8S9.4,6,9,6 M5.2,6C4.8,6,4.5,5.7,4.5,5.2s0.3-0.8,0.8-0.8S6,4.8,6,5.2 S5.7,6,5.2,6 M17.2,3H3.8C3.3,3,3,3.3,3,3.8v3c0,0.4,0.3,0.8,0.8,0.8h13.5c3,0,3.8,2.2,3.8,3V6.8C21,4.7,19.3,3,17.2,3 M16.8,9.5c0.6,0,1.1,0.2,1.6,0.6c0.5,0.4,0.8,0.9,0.9,1.5c0,0.2,0,0.3-0.1,0.4c0,0.1-0.1,0.2-0.3,0.2L7.8,14.5 c-0.2,0-0.4,0.1-0.5,0.1c-1.2,0-2.3-0.9-2.5-2c0-0.2,0-0.3,0.1-0.4C4.9,12,5,12,5.1,11.9l11.1-2.4C16.4,9.5,16.6,9.5,16.8,9.5 M16.8,8.5c-0.3,0-0.5,0-0.8,0.1L4.9,10.9c-0.8,0.2-1.3,1-1.1,1.8c0.4,1.7,1.9,2.8,3.5,2.8c0.3,0,0.5,0,0.8-0.1l11.1-2.4 c0.8-0.2,1.3-1,1.1-1.8c-0.2-0.9-0.7-1.6-1.3-2.1C18.3,8.8,17.6,8.5,16.8,8.5L16.8,8.5z"/></svg>