<svg viewBox="0 0 24 24" height="24px" width="24px" fill="#44739e" xmlns="http://www.w3.org/2000/svg"><title>hue:gradient-lightstrip-wrap</title><desc>Source: https://github.com/arallsopp/hass-hue-icons</desc><path d="M5.2,3C3.1,3.1,1.5,4.8,1.5,6.9v13.4c0,0.5,0.3,0.8,0.8,0.8h3c0.4,0,0.8-0.3,0.8-0.8V6.8C6,3.8,8.2,3,9,3H5.2z M5,6.8v13.3 l-2.6,0V6.9C2.5,5.3,3.7,4,5.2,4h0.5C5.3,4.7,5,5.6,5,6.8z M4.5,18.9c0,0.4-0.3,0.7-0.8,0.7s-0.8-0.3-0.8-0.8s0.4-0.7,0.8-0.7 C4,18.1,4.5,18.4,4.5,18.9z M4.5,15.1c0,0.4-0.3,0.8-0.8,0.8S3,15.5,3,15.1c0-0.4,0.3-0.8,0.8-0.8S4.5,14.7,4.5,15.1z M4.5,11.3 c0,0.5-0.3,0.8-0.8,0.8s-0.8-0.3-0.8-0.8s0.3-0.8,0.8-0.8S4.5,10.9,4.5,11.3z M4.5,7.6c0,0.4-0.3,0.8-0.8,0.8S2.8,8.1,2.8,7.6 s0.3-0.8,0.8-0.8S4.5,7.2,4.5,7.6z M18.8,2.9H15c0.8,0,3,0.8,3,3.8v13.5c0,0.5,0.4,0.8,0.8,0.8h3c0.5,0,0.8-0.3,0.8-0.8V6.8 C22.5,4.7,20.8,3,18.8,2.9z M21.5,20H19V6.7c0-1.2-0.3-2.1-0.7-2.8h0.5c1.6,0.1,2.8,1.4,2.8,2.9L21.5,20z M21.2,18.7 c0,0.5-0.3,0.8-0.8,0.8s-0.8-0.3-0.8-0.7c0-0.5,0.4-0.8,0.8-0.8C20.8,18,21.2,18.2,21.2,18.7z M20.3,15.8c-0.5,0-0.8-0.4-0.8-0.8 c0-0.4,0.2-0.8,0.7-0.8S21,14.6,21,15C21,15.4,20.8,15.8,20.3,15.8z M21.2,11.2c0,0.5-0.3,0.8-0.8,0.8s-0.8-0.3-0.8-0.8 c0-0.4,0.3-0.8,0.8-0.8S21.2,10.7,21.2,11.2z M20.3,6.7c0.5,0,0.8,0.3,0.8,0.8s-0.3,0.8-0.8,0.8s-0.8-0.4-0.8-0.8 C19.5,7.1,19.8,6.7,20.3,6.7z M12,3C7.5,2.9,7.5,6.5,7.5,7h9.1C16.6,7,17.1,3,12,3z M10.3,5.9C9.9,6,9.5,5.7,9.4,5.3 C9.3,4.9,9.6,4.5,10,4.4c0.4-0.1,0.8,0.2,0.9,0.6C11,5.4,10.7,5.8,10.3,5.9z M14,5.9c-0.4,0.1-0.8-0.2-0.9-0.6s0.2-0.8,0.6-0.9 c0.4-0.1,0.8,0.2,0.9,0.6C14.7,5.4,14.4,5.8,14,5.9z"/></svg>