<svg viewBox="0 0 24 24" height="24px" width="24px" fill="#44739e" xmlns="http://www.w3.org/2000/svg"><title>hue:lightstrip</title><desc>Source: https://github.com/arallsopp/hass-hue-icons</desc><path d="M 6.328125 12.5 C 6.734375 12.414062 7.132812 12.671875 7.222656 13.078125 C 7.308594 13.480469 7.050781 13.878906 6.648438 13.96875 C 6.242188 14.054688 5.84375 13.796875 5.753906 13.394531 C 5.667969 12.988281 5.925781 12.589844 6.328125 12.5 M 9.996094 11.707031 C 10.398438 11.621094 10.800781 11.878906 10.886719 12.28125 C 10.972656 12.6875 10.71875 13.085938 10.3125 13.175781 C 9.90625 13.261719 9.507812 13.003906 9.421875 12.601562 C 9.332031 12.195312 9.589844 11.796875 9.996094 11.707031 M 13.660156 10.917969 C 14.066406 10.828125 14.464844 11.085938 14.550781 11.488281 C 14.640625 11.894531 14.382812 12.292969 13.976562 12.382812 C 13.574219 12.46875 13.171875 12.210938 13.085938 11.808594 C 13 11.402344 13.253906 11.003906 13.660156 10.917969 M 17.324219 10.125 C 17.730469 10.035156 18.128906 10.292969 18.21875 10.699219 C 18.304688 11.101562 18.046875 11.503906 17.644531 11.589844 C 17.238281 11.675781 16.839844 11.421875 16.75 11.015625 C 16.664062 10.609375 16.921875 10.210938 17.324219 10.125 M 8.003906 15.480469 L 19.105469 13.082031 C 19.914062 12.910156 20.429688 12.109375 20.253906 11.300781 C 19.835938 9.363281 17.925781 8.132812 15.992188 8.550781 L 4.886719 10.945312 C 4.078125 11.121094 3.5625 11.917969 3.738281 12.726562 C 4.15625 14.664062 6.066406 15.898438 8.003906 15.480469 M 18.75 19.5 C 18.335938 19.5 18 19.164062 18 18.75 C 18 18.335938 18.335938 18 18.75 18 C 19.164062 18 19.5 18.335938 19.5 18.75 C 19.5 19.164062 19.164062 19.5 18.75 19.5 M 15 19.5 C 14.585938 19.5 14.25 19.164062 14.25 18.75 C 14.25 18.335938 14.585938 18 15 18 C 15.414062 18 15.75 18.335938 15.75 18.75 C 15.75 19.164062 15.414062 19.5 15 19.5 M 11.25 19.5 C 10.835938 19.5 10.5 19.164062 10.5 18.75 C 10.5 18.335938 10.835938 18 11.25 18 C 11.664062 18 12 18.335938 12 18.75 C 12 19.164062 11.664062 19.5 11.25 19.5 M 7.5 19.5 C 7.085938 19.5 6.75 19.164062 6.75 18.75 C 6.75 18.335938 7.085938 18 7.5 18 C 7.914062 18 8.25 18.335938 8.25 18.75 C 8.25 19.164062 7.914062 19.5 7.5 19.5 M 20.25 16.5 L 6.75 16.5 C 3.75 16.5 3 14.25 3 13.5 L 3 17.25 C 3 19.320312 4.679688 21 6.75 21 L 20.25 21 C 20.664062 21 21 20.664062 21 20.25 L 21 17.25 C 21 16.835938 20.664062 16.5 20.25 16.5 M 16.5 6 C 16.085938 6 15.75 5.664062 15.75 5.25 C 15.75 4.835938 16.085938 4.5 16.5 4.5 C 16.914062 4.5 17.25 4.835938 17.25 5.25 C 17.25 5.664062 16.914062 6 16.5 6 M 12.75 6 C 12.335938 6 12 5.664062 12 5.25 C 12 4.835938 12.335938 4.5 12.75 4.5 C 13.164062 4.5 13.5 4.835938 13.5 5.25 C 13.5 5.664062 13.164062 6 12.75 6 M 9 6 C 8.585938 6 8.25 5.664062 8.25 5.25 C 8.25 4.835938 8.585938 4.5 9 4.5 C 9.414062 4.5 9.75 4.835938 9.75 5.25 C 9.75 5.664062 9.414062 6 9 6 M 5.25 6 C 4.835938 6 4.5 5.664062 4.5 5.25 C 4.5 4.835938 4.835938 4.5 5.25 4.5 C 5.664062 4.5 6 4.835938 6 5.25 C 6 5.664062 5.664062 6 5.25 6 M 17.25 3 L 3.75 3 C 3.335938 3 3 3.335938 3 3.75 L 3 6.75 C 3 7.164062 3.335938 7.5 3.75 7.5 L 17.25 7.5 C 20.25 7.5 21 9.75 21 10.5 L 21 6.75 C 21 4.679688 19.320312 3 17.25 3 "/></svg>