<svg viewBox="0 0 24 24" height="24px" width="24px" fill="#44739e" xmlns="http://www.w3.org/2000/svg"><title>hue:pendant-round</title><desc>Source: https://github.com/arallsopp/hass-hue-icons</desc><path d="m 18.573049,18.079037 c -3.622024,0.908332 -9.5711758,0.908332 -13.1959647,0 -3.5750206,-0.895718 -3.4653461,-2.321296 0.1557562,-3.185474 3.5713341,-0.851562 9.2956075,-0.851562 12.8697055,0 3.62571,0.864178 3.741837,2.289756 0.170503,3.185474 m 4.388824,-7.427065 C 22.692755,9.9761285 21.593245,9.3273193 19.692835,8.8136785 17.785051,8.2991366 15.366681,8.0152825 12.893015,7.9594129 V 4.1161184 3.8638037 c 0,-0.2333912 -0.411971,-0.4226273 -0.921635,-0.4226273 -0.509664,0 -0.921634,0.1892361 -0.921634,0.4226273 v 0.2523147 3.8432945 c -2.4773546,0.05587 -4.8984887,0.3388226 -6.8062723,0.8542656 -1.9004105,0.5136408 -2.9934691,1.16245 -3.26258644,1.8382935 -0.0488466,0.114442 -0.0691226,0.222578 -0.0691226,0.337921 v 6.53315 c 0,0.114443 0.0202759,0.229787 0.0691226,0.337922 0.26266584,0.648809 1.27922874,1.276892 3.07549464,1.783324 4.3482721,1.224628 11.4890971,1.224628 15.8364471,0 1.789815,-0.506432 2.806377,-1.134515 3.069044,-1.783324 0.04793,-0.108135 0.06912,-0.223479 0.06912,-0.337922 v -6.53315 c 0,-0.115343 -0.0212,-0.223479 -0.06912,-0.337921"/></svg>