<svg viewBox="0 0 24 24" height="24px" width="24px" fill="#44739e" xmlns="http://www.w3.org/2000/svg"><title>hue:play-bar-v</title><desc>Source: https://github.com/arallsopp/hass-hue-icons</desc><path d="M15.1,19.14c0.1-0.2,0.2-0.4,0.3-0.6c0.4-0.9,0.6-1.9,0.6-2.6L15.99,3.19c0-1.2-0.39-1.45-0.79-1.55l0,0l-3.8-1.2 c-0.3-0.1-1-0.2-1.8,0.5c-0.5,0.4-0.9,1-1.2,1.8c-0.3,0.8-0.5,1.5-0.5,2.2v12.8c0,1,0.5,1.3,0.8,1.5c-1,0.4-1.7,1-1.7,1.6v0.6 c0,1.2,2.3,2.2,5,2.2c2.8,0,5-1,5-2.2v-0.6C17,20.14,16.3,19.54,15.1,19.14z M12.6,6.64c0-1.1-0.16-2.7,1.24-3.9 c1.27-1.12,1.2,0.71,1.2,0.71S15,13.64,15,14.74c0,1.8,0,3.4-1.3,4.8c-1,1.2-1.1-0.3-1.1-0.3S12.6,7.64,12.6,6.64z"/></svg>