<svg viewBox="0 0 24 24" height="24px" width="24px" fill="#44739e" xmlns="http://www.w3.org/2000/svg"><title>hue:play-bar</title><desc>Source: https://github.com/arallsopp/hass-hue-icons</desc><path d="M 21.732571,14.498882 C 20.13567,15.288527 18.56624,14.701752 17.516667,14.288263 16.648831,13.946623 2.1583795,7.9718015 2.1583795,7.9718015 c 0,0 -1.33697368,-0.5966368 0.1225676,-1.1270589 1.8004765,-0.6551029 3.2536783,-0.111297 4.9344043,0.5635294 1.058731,0.4254647 14.1319066,5.674038 14.1319066,5.674038 0,0 1.982215,0.626926 0.385313,1.416572 z m 1.512372,-0.667078 C 23.232263,13.468327 23.044186,12.822382 21.972071,12.38142 L 6.5081224,6.1727338 C 5.8537234,5.9036485 4.8259864,5.7352941 3.830653,5.7352941 c -0.5135162,0 -1.2489221,0.047196 -1.8385147,0.2740162 C 0.95242642,6.4094162 0.74251172,7.0046441 0.71715292,7.3617809 l -0.005635,-0.00141 -0.005635,4.2680321 0.00423,7.04e-4 c 0.021132,0.343049 0.207097,0.888263 1.09536038,1.267941 l 15.8767337,6.529897 c 0.595932,0.253589 1.382055,0.396584 2.206922,0.396584 0.826979,0 1.606763,-0.144404 2.195651,-0.404332 1.016467,-0.449415 1.160871,-1.098882 1.157349,-1.446157 l 0.0049,-4.140533 z"/></svg>