<svg viewBox="0 0 24 24" height="24px" width="24px" fill="#44739e" xmlns="http://www.w3.org/2000/svg"><title>hue:recessed-floor</title><desc>Source: https://github.com/arallsopp/hass-hue-icons</desc><path d="M 12.015625 15.75 C 14.589844 15.75 17.039062 15.289062 18.917969 14.449219 C 19.820312 14.046875 20.496094 13.601562 21.007812 13.148438 C 21.0625 14.222656 20.15625 15.304688 18.304688 16.109375 C 14.8125 17.628906 9.21875 17.628906 5.722656 16.109375 C 3.863281 15.304688 2.957031 14.222656 3.011719 13.144531 C 3.527344 13.597656 4.203125 14.046875 5.109375 14.449219 C 6.988281 15.289062 9.441406 15.75 12.015625 15.75 Z M 5.71875 13.832031 C 2.179688 12.25 2.066406 9.636719 5.554688 7.996094 C 9.089844 6.335938 14.898438 6.335938 18.441406 7.996094 C 21.929688 9.636719 21.824219 12.25 18.289062 13.832031 C 14.800781 15.390625 9.210938 15.390625 5.71875 13.832031 Z M 7.164062 8.816406 C 4.550781 9.5625 4.632812 10.75 7.289062 11.46875 C 9.90625 12.175781 14.097656 12.175781 16.714844 11.46875 C 19.367188 10.75 19.449219 9.5625 16.832031 8.816406 C 14.175781 8.0625 9.816406 8.0625 7.164062 8.816406 Z M 7.164062 8.816406 "/></svg>