<svg viewBox="0 0 24 24" height="24px" width="24px" fill="#44739e" xmlns="http://www.w3.org/2000/svg"><title>hue:room-terrace</title><desc>Source: https://github.com/arallsopp/hass-hue-icons</desc><path d="M 20.679688 6.421875 C 20.964844 6.628906 21.085938 7.011719 20.933594 7.332031 C 20.691406 7.835938 20.167969 8.226562 19.566406 8.226562 C 19.175781 8.226562 18.820312 8.0625 18.550781 7.808594 C 18.273438 7.542969 17.835938 7.542969 17.558594 7.808594 C 17.289062 8.0625 16.933594 8.226562 16.539062 8.226562 C 16.148438 8.226562 15.792969 8.0625 15.523438 7.808594 C 15.246094 7.542969 14.808594 7.542969 14.53125 7.808594 C 14.261719 8.0625 13.90625 8.226562 13.511719 8.226562 C 13.234375 8.226562 12.976562 8.140625 12.75 8 L 12.75 13.476562 C 12.75 13.894531 12.414062 14.226562 12 14.226562 C 11.585938 14.226562 11.25 13.894531 11.25 13.476562 L 11.25 8 C 11.027344 8.140625 10.765625 8.226562 10.484375 8.226562 C 10.097656 8.226562 9.738281 8.0625 9.472656 7.808594 C 9.191406 7.542969 8.753906 7.542969 8.476562 7.808594 C 8.207031 8.0625 7.851562 8.226562 7.460938 8.226562 C 7.070312 8.226562 6.710938 8.0625 6.445312 7.808594 C 6.164062 7.542969 5.726562 7.542969 5.449219 7.808594 C 5.179688 8.0625 4.824219 8.226562 4.433594 8.226562 C 3.832031 8.226562 3.3125 7.835938 3.066406 7.332031 C 2.914062 7.011719 3.035156 6.628906 3.320312 6.421875 L 11.546875 0.152344 C 11.816406 -0.0507812 12.1875 -0.0507812 12.453125 0.152344 Z M 17.25 14.976562 C 18.078125 14.976562 18.75 15.648438 18.75 16.476562 C 18.75 17.304688 18.078125 17.976562 17.25 17.976562 L 13.9375 17.976562 L 17.832031 22.753906 C 18.09375 23.074219 18.046875 23.546875 17.722656 23.808594 C 17.585938 23.921875 17.417969 23.976562 17.25 23.976562 C 17.035156 23.976562 16.816406 23.882812 16.667969 23.703125 L 12 17.976562 L 7.332031 23.703125 C 7.070312 24.023438 6.597656 24.070312 6.277344 23.808594 C 5.957031 23.546875 5.90625 23.074219 6.167969 22.753906 L 10.066406 17.976562 L 6.75 17.976562 C 5.921875 17.976562 5.25 17.304688 5.25 16.476562 C 5.25 15.648438 5.921875 14.976562 6.75 14.976562 Z M 17.25 14.976562 "/></svg>