<svg viewBox="0 0 24 24" height="24px" width="24px" fill="#44739e" xmlns="http://www.w3.org/2000/svg"><title>hue:room-driveway</title><desc>Source: https://github.com/arallsopp/hass-hue-icons</desc><path d="M 18 15 C 17.171875 15 16.5 14.328125 16.5 13.5 C 16.5 12.671875 17.171875 12 18 12 C 18.828125 12 19.5 12.671875 19.5 13.5 C 19.5 14.328125 18.828125 15 18 15 Z M 16.328125 9.75 L 7.671875 9.75 C 7.066406 9.75 6.625 9.1875 6.78125 8.613281 L 7.535156 5.914062 C 7.644531 5.523438 8.007812 5.25 8.425781 5.25 L 15.574219 5.25 C 15.992188 5.25 16.355469 5.523438 16.464844 5.914062 L 17.21875 8.613281 C 17.375 9.1875 16.933594 9.75 16.328125 9.75 Z M 15 13.945312 C 15 14.523438 14.519531 15 13.933594 15 L 10.066406 15 C 9.480469 15 9 14.523438 9 13.945312 L 9 13.804688 C 9 13.226562 9.480469 12.75 10.066406 12.75 L 13.933594 12.75 C 14.519531 12.75 15 13.226562 15 13.804688 Z M 6 15 C 5.171875 15 4.5 14.328125 4.5 13.5 C 4.5 12.671875 5.171875 12 6 12 C 6.828125 12 7.5 12.671875 7.5 13.5 C 7.5 14.328125 6.828125 15 6 15 Z M 20.484375 10.738281 L 19.582031 10.308594 C 19.339844 10.191406 19.160156 9.972656 19.09375 9.710938 L 17.746094 4.433594 C 17.644531 4.03125 17.285156 3.75 16.875 3.75 L 7.125 3.75 C 6.714844 3.75 6.355469 4.03125 6.253906 4.433594 L 4.90625 9.710938 C 4.839844 9.972656 4.660156 10.191406 4.417969 10.308594 L 3.515625 10.738281 C 3.199219 10.890625 3 11.210938 3 11.5625 L 3 16.339844 C 3 16.84375 3.402344 17.25 3.898438 17.25 L 5.25 17.25 L 5.25 18.878906 C 5.25 19.632812 5.867188 20.25 6.621094 20.25 L 7.628906 20.25 C 8.382812 20.25 9 19.632812 9 18.878906 L 9 17.25 L 15 17.25 L 15 18.878906 C 15 19.632812 15.617188 20.25 16.371094 20.25 L 17.378906 20.25 C 18.132812 20.25 18.75 19.632812 18.75 18.878906 L 18.75 17.25 L 20.101562 17.25 C 20.597656 17.25 21 16.84375 21 16.339844 L 21 11.5625 C 21 11.210938 20.800781 10.890625 20.484375 10.738281 Z M 20.484375 10.738281 "/></svg>