<svg viewBox="0 0 24 24" height="24px" width="24px" fill="#44739e" xmlns="http://www.w3.org/2000/svg"><title>hue:room-pool</title><desc>Source: https://github.com/arallsopp/hass-hue-icons</desc><path d="M 20.996094 14.222656 L 21 14.222656 L 21 16.910156 C 20.910156 16.84375 20.832031 16.777344 20.78125 16.730469 C 20.289062 16.230469 19.476562 15.78125 18.574219 15.773438 C 18.566406 15.773438 18.558594 15.773438 18.550781 15.773438 C 18.460938 15.773438 18.367188 15.777344 18.273438 15.785156 C 17.660156 15.847656 17.019531 16.125 16.417969 16.730469 C 15.394531 17.761719 14.445312 16.984375 14.179688 16.730469 C 13.304688 15.84375 11.421875 15.117188 9.820312 16.730469 C 8.796875 17.761719 7.84375 16.984375 7.582031 16.730469 C 7.085938 16.230469 6.273438 15.78125 5.371094 15.773438 C 4.671875 15.765625 3.917969 16.023438 3.21875 16.730469 C 3.144531 16.804688 3.074219 16.847656 3 16.902344 L 3 14.222656 L 3.003906 14.222656 C 3.007812 14.035156 3.078125 13.847656 3.21875 13.703125 C 4.132812 12.78125 5.140625 12.628906 6 12.828125 L 6 5.25 C 6 4.835938 5.664062 4.5 5.25 4.5 C 4.835938 4.5 4.5 4.835938 4.5 5.25 C 4.5 5.664062 4.164062 6 3.75 6 C 3.335938 6 3 5.664062 3 5.25 C 3 4.007812 4.007812 3 5.25 3 C 6.492188 3 7.5 4.007812 7.5 5.25 L 7.5 6.75 L 12.75 6.75 L 12.75 5.25 C 12.75 4.835938 12.414062 4.5 12 4.5 C 11.585938 4.5 11.25 4.835938 11.25 5.25 C 11.25 5.664062 10.914062 6 10.5 6 C 10.085938 6 9.75 5.664062 9.75 5.25 C 9.75 4.007812 10.757812 3 12 3 C 13.242188 3 14.25 4.007812 14.25 5.25 L 14.25 13.765625 C 14.441406 13.9375 14.820312 14.210938 15.300781 14.222656 L 15.355469 14.222656 C 15.679688 14.214844 16.042969 14.082031 16.417969 13.703125 C 18.019531 12.09375 19.902344 12.820312 20.78125 13.703125 C 20.921875 13.847656 20.992188 14.035156 20.996094 14.222656 Z M 9.820312 13.703125 C 10.789062 12.730469 11.859375 12.613281 12.75 12.867188 L 12.75 12 L 7.5 12 L 7.5 13.628906 C 7.527344 13.65625 7.554688 13.679688 7.582031 13.703125 C 7.742188 13.863281 8.164062 14.210938 8.703125 14.222656 L 8.753906 14.222656 C 9.082031 14.214844 9.445312 14.082031 9.820312 13.703125 Z M 7.5 10.5 L 12.75 10.5 L 12.75 8.25 L 7.5 8.25 Z M 19.722656 17.78125 C 19.726562 17.78125 19.726562 17.78125 19.730469 17.785156 C 19.796875 17.851562 20.277344 18.3125 21 18.570312 L 21 21 L 3 21 L 3 18.589844 C 3.449219 18.4375 3.878906 18.175781 4.269531 17.785156 C 4.273438 17.78125 4.277344 17.78125 4.28125 17.777344 C 4.535156 17.515625 4.785156 17.371094 5.023438 17.300781 C 5.734375 17.09375 6.320312 17.582031 6.519531 17.78125 C 6.523438 17.78125 6.527344 17.785156 6.53125 17.785156 C 6.605469 17.859375 7.097656 18.335938 7.84375 18.589844 C 8.925781 18.960938 10.003906 18.667969 10.878906 17.777344 C 11.90625 16.734375 12.855469 17.515625 13.121094 17.777344 C 13.175781 17.832031 13.679688 18.332031 14.445312 18.589844 C 14.75 18.695312 15.054688 18.746094 15.355469 18.746094 C 16.117188 18.746094 16.847656 18.417969 17.476562 17.78125 C 17.476562 17.777344 17.480469 17.777344 17.480469 17.777344 C 17.609375 17.644531 17.734375 17.542969 17.859375 17.464844 C 18.730469 16.921875 19.488281 17.546875 19.722656 17.78125 Z M 19.722656 17.78125 "/></svg>