<svg viewBox="0 0 24 24" height="24px" width="24px" fill="#44739e" xmlns="http://www.w3.org/2000/svg"><title>hue:room-toilet</title><desc>Source: https://github.com/arallsopp/hass-hue-icons</desc><path d="M 6.75 14.25 C 6.335938 14.25 6 13.914062 6 13.5 C 6 13.085938 6.335938 12.75 6.75 12.75 L 9.601562 12.75 C 7.910156 11.628906 6.75 9.367188 6.75 6.75 C 6.75 3.023438 9.101562 0 12 0 C 14.898438 0 17.25 3.023438 17.25 6.75 C 17.25 9.367188 16.089844 11.628906 14.398438 12.75 L 17.25 12.75 C 17.664062 12.75 18 13.085938 18 13.5 C 18 13.914062 17.664062 14.25 17.25 14.25 Z M 17.398438 15.75 C 17.730469 15.75 18 16.011719 18 16.332031 L 18 16.496094 C 18 18.960938 16.425781 20.859375 14.203125 21.710938 C 13.882812 21.835938 13.675781 22.132812 13.675781 22.464844 L 13.675781 23.1875 C 13.675781 23.636719 13.300781 24 12.835938 24 L 11.164062 24 C 10.699219 24 10.324219 23.636719 10.324219 23.1875 L 10.324219 22.453125 C 10.324219 22.121094 10.117188 21.824219 9.800781 21.699219 C 7.550781 20.808594 5.996094 18.8125 6 16.328125 C 6 16.007812 6.273438 15.75 6.601562 15.75 Z M 17.398438 15.75 "/></svg>