<svg viewBox="0 0 24 24" height="24px" width="24px" fill="#44739e" xmlns="http://www.w3.org/2000/svg"><title>hue:room-office</title><desc>Source: https://github.com/arallsopp/hass-hue-icons</desc><path d="M 19.875 10.5 L 19.125 10.5 C 18.507812 10.5 18 11.007812 18 11.625 L 18 13.953125 C 18 14.285156 17.730469 14.550781 17.402344 14.550781 L 17.394531 14.550781 C 16.714844 13.472656 15.515625 12.75 14.144531 12.75 L 12.75 12.75 L 12.75 10.5 L 15.066406 10.5 C 16.273438 10.5 17.25 9.523438 17.25 8.316406 L 16.296875 0.933594 C 16.21875 0.398438 15.757812 0 15.214844 0 L 8.785156 0 C 8.242188 0 7.78125 0.398438 7.703125 0.933594 L 6.75 8.316406 C 6.75 9.523438 7.726562 10.5 8.933594 10.5 L 11.25 10.5 L 11.25 12.75 L 9.855469 12.75 C 8.617188 12.75 7.53125 13.34375 6.824219 14.25 L 6.597656 14.25 C 6.269531 14.25 6 13.980469 6 13.652344 L 6 11.472656 C 6 10.773438 5.425781 10.199219 4.722656 10.199219 L 4.277344 10.199219 C 3.574219 10.199219 3 10.773438 3 11.472656 C 3 12.175781 3.574219 12.75 4.277344 12.75 L 4.5 12.75 L 4.5 13.652344 C 4.5 14.644531 5.195312 15.472656 6.121094 15.691406 C 6.046875 15.984375 6 16.289062 6 16.605469 C 6 16.960938 6.289062 17.25 6.644531 17.25 L 11.15625 17.25 L 7.890625 21.058594 C 7.765625 21.023438 7.636719 21 7.5 21 C 6.671875 21 6 21.671875 6 22.5 C 6 23.328125 6.671875 24 7.5 24 C 8.328125 24 9 23.328125 9 22.5 C 9 22.28125 8.953125 22.078125 8.867188 21.890625 L 11.25 19.113281 L 11.25 21.207031 C 10.804688 21.46875 10.5 21.945312 10.5 22.5 C 10.5 23.328125 11.171875 24 12 24 C 12.828125 24 13.5 23.328125 13.5 22.5 C 13.5 21.945312 13.195312 21.46875 12.75 21.207031 L 12.75 19.113281 L 15.132812 21.890625 C 15.046875 22.078125 15 22.28125 15 22.5 C 15 23.328125 15.671875 24 16.5 24 C 17.328125 24 18 23.328125 18 22.5 C 18 21.671875 17.328125 21 16.5 21 C 16.363281 21 16.234375 21.023438 16.109375 21.058594 L 12.84375 17.25 L 17.355469 17.25 C 17.710938 17.25 18 16.960938 18 16.605469 C 18 16.390625 17.972656 16.179688 17.9375 15.976562 C 18.832031 15.738281 19.5 14.925781 19.5 13.953125 L 19.5 12.75 L 19.875 12.75 C 20.492188 12.75 21 12.242188 21 11.625 C 21 11.007812 20.492188 10.5 19.875 10.5 "/></svg>