<svg viewBox="0 0 24 24" height="24px" width="24px" fill="#44739e" xmlns="http://www.w3.org/2000/svg"><title>hue:wall-shade</title><desc>Source: https://github.com/arallsopp/hass-hue-icons</desc><path d="M 16.398438 5.769531 C 15.21875 6.074219 13.285156 6.074219 12.101562 5.769531 C 10.941406 5.46875 10.976562 4.992188 12.152344 4.699219 C 13.316406 4.414062 15.179688 4.414062 16.34375 4.699219 C 17.523438 4.992188 17.5625 5.46875 16.398438 5.769531 M 20.964844 11.0625 L 18.9375 4.246094 L 18.914062 4.175781 C 18.726562 3.75 17.808594 3.34375 16.164062 3.125 C 14.917969 2.957031 13.648438 2.957031 12.398438 3.125 C 10.757812 3.34375 9.84375 3.75 9.65625 4.175781 L 9.621094 4.289062 L 7.539062 11.0625 C 7.507812 11.15625 7.492188 11.257812 7.503906 11.359375 C 7.671875 12.464844 9.675781 13.355469 13.339844 13.484375 C 12.847656 15.222656 11.246094 16.5 9.351562 16.5 C 8.363281 16.5 7.453125 16.148438 6.738281 15.566406 C 6.707031 14.492188 6.597656 13.449219 6.398438 12.632812 C 6.207031 11.84375 5.96875 11.394531 5.71875 11.28125 C 5.679688 11.257812 5.632812 11.25 5.589844 11.25 L 4.160156 11.25 C 4.117188 11.25 4.074219 11.257812 4.03125 11.28125 C 3.773438 11.398438 3.527344 11.882812 3.332031 12.722656 C 2.890625 14.613281 2.890625 17.640625 3.332031 19.53125 C 3.527344 20.371094 3.773438 20.851562 4.03125 20.96875 C 4.074219 20.992188 4.117188 21 4.160156 21 L 5.589844 21 C 5.632812 21 5.679688 20.992188 5.71875 20.96875 C 5.96875 20.851562 6.207031 20.40625 6.398438 19.613281 C 6.558594 18.964844 6.65625 18.171875 6.707031 17.339844 C 7.5 17.757812 8.398438 18 9.351562 18 C 12.078125 18 14.355469 16.0625 14.882812 13.492188 C 18.726562 13.402344 20.828125 12.488281 20.996094 11.355469 C 21.007812 11.257812 20.992188 11.160156 20.964844 11.0625 "/></svg>