<svg viewBox="0 0 24 24" height="24px" width="24px" fill="#44739e" xmlns="http://www.w3.org/2000/svg"><title>hue:wall-lantern</title><desc>Source: https://github.com/arallsopp/hass-hue-icons</desc><path d="M 16.332031 18.414062 C 15.34375 18.089844 13.90625 18.089844 12.917969 18.410156 L 12.101562 12.59375 C 13.710938 12.796875 15.539062 12.796875 17.148438 12.59375 Z M 19.1875 9.566406 C 18.015625 9.214844 16.488281 9.03125 14.941406 9.007812 C 14.578125 6.464844 12.390625 4.5 9.75 4.5 C 8.59375 4.5 7.527344 4.882812 6.65625 5.515625 C 6.597656 5.027344 6.515625 4.566406 6.398438 4.171875 C 6.207031 3.503906 5.96875 3.125 5.71875 3.027344 C 5.679688 3.007812 5.632812 3 5.589844 3 L 4.160156 3 C 4.117188 3 4.074219 3.007812 4.03125 3.027344 C 3.773438 3.125 3.527344 3.535156 3.332031 4.246094 C 2.890625 5.847656 2.890625 8.410156 3.332031 10.007812 C 3.527344 10.714844 3.773438 11.125 4.03125 11.222656 C 4.074219 11.242188 4.117188 11.25 4.160156 11.25 L 5.589844 11.25 C 5.632812 11.25 5.679688 11.242188 5.71875 11.222656 C 5.96875 11.125 6.207031 10.746094 6.398438 10.078125 C 6.613281 9.328125 6.726562 8.359375 6.742188 7.375 C 7.449219 6.484375 8.527344 5.898438 9.75 5.898438 C 11.625 5.898438 13.1875 7.25 13.527344 9.03125 C 12.253906 9.097656 11.035156 9.273438 10.058594 9.566406 C 7.589844 10.3125 7.667969 11.5 10.175781 12.21875 C 10.289062 12.25 10.421875 12.273438 10.542969 12.304688 L 11.625 19.988281 C 11.714844 20.324219 12.25 20.734375 13.484375 20.917969 C 13.863281 20.972656 14.246094 21 14.625 21 C 15.007812 21 15.390625 20.972656 15.769531 20.917969 C 17 20.734375 17.507812 20.324219 17.625 19.992188 L 18.707031 12.304688 C 18.828125 12.273438 18.960938 12.25 19.078125 12.21875 C 21.582031 11.5 21.660156 10.3125 19.1875 9.566406 Z M 19.1875 9.566406 "/></svg>