<svg viewBox="0 0 24 24" height="24px" width="24px" fill="#44739e" xmlns="http://www.w3.org/2000/svg"><title>hue:wall-spot</title><desc>Source: https://github.com/arallsopp/hass-hue-icons</desc><path d="M 17.542969 16.136719 C 16.113281 17.179688 14.496094 17.398438 13.9375 16.621094 C 13.375 15.84375 14.078125 14.371094 15.511719 13.328125 C 16.941406 12.285156 18.554688 12.070312 19.117188 12.84375 C 19.679688 13.621094 18.972656 15.09375 17.542969 16.136719 M 20.710938 12.449219 L 14.152344 4.945312 C 13.480469 4.078125 11.503906 4.515625 9.742188 5.929688 C 7.980469 7.339844 7.046875 9.441406 7.71875 10.3125 L 8.375 11.25 L 6.730469 11.25 C 6.691406 10.34375 6.582031 9.472656 6.398438 8.777344 C 6.207031 8.046875 5.964844 7.632812 5.71875 7.527344 C 5.679688 7.507812 5.632812 7.5 5.589844 7.5 L 4.160156 7.5 C 4.117188 7.5 4.074219 7.507812 4.03125 7.527344 C 3.773438 7.636719 3.527344 8.085938 3.332031 8.859375 C 2.890625 10.605469 2.890625 13.402344 3.332031 15.144531 C 3.527344 15.917969 3.773438 16.363281 4.03125 16.472656 C 4.074219 16.492188 4.117188 16.5 4.160156 16.5 L 5.589844 16.5 C 5.632812 16.5 5.679688 16.492188 5.71875 16.472656 C 5.964844 16.367188 6.207031 15.953125 6.398438 15.21875 C 6.582031 14.527344 6.691406 13.65625 6.730469 12.75 L 9.425781 12.75 L 13.136719 18.046875 C 13.964844 19.210938 16.335938 18.898438 18.425781 17.351562 C 20.519531 15.808594 21.542969 13.613281 20.710938 12.449219 "/></svg>